<svg xmlns="http://www.w3.org/2000/svg" width="124.117" height="139.061" viewBox="0 0 124.117 139.061">
  <g id="Grupo_1207843" data-name="Grupo 1207843" transform="translate(-1146.93 -3441.425)">
    <circle id="Elipse_13777" data-name="Elipse 13777" cx="62.059" cy="62.059" r="62.059" transform="translate(1146.93 3441.425)" fill="#bbd8f2"/>
    <g id="Grupo_1207772" data-name="Grupo 1207772" transform="translate(-21.04 3023.016)">
      <path id="Trazado_1328477" data-name="Trazado 1328477" d="M1181.884,461.059h37.187v12.992a28.642,28.642,0,0,1,22.479.3l4.458-13.291h32.148v3.046h-1.566c-9.034,0-18.067.013-27.1-.02a1.41,1.41,0,0,0-1.634,1.178c-1.1,3.51-2.312,6.985-3.365,10.124,2.553,2.41,5.2,4.44,7.273,6.945,11.721,14.161,6.286,35.87-10.666,43.036-.16.067-.312.152-.471.22-.909.384-2.367.558-2.608,1.194-.429,1.131-.12,2.542-.12,4.011h2.988V533.9h-2.965v3.11h2.961v3l-3.059.158c0,2.98,0,5.88,0,8.78a7.841,7.841,0,0,1-2.576,6.167,7.759,7.759,0,0,1-12.978-5.64c-.1-2.6-.025-5.211-.027-7.817,0-.469,0-.937,0-1.544H1219.2V537.06h2.94V534h-2.914V530.84h3c0-1.368.013-2.607-.015-3.845a.666.666,0,0,0-.334-.492,30.95,30.95,0,0,0-3.4-1.278c-.275-.077-.813.348-1.06.672-2.58,3.381-5.1,6.807-7.707,10.169a2.475,2.475,0,0,1-1.645.935c-8.469.059-16.938.04-25.407.038-.213,0-.425-.027-.739-.048v-3.058h1.553c7.557,0,15.114-.02,22.671.025a2.329,2.329,0,0,0,2.141-1.091c2.274-3.114,4.62-6.176,7.009-9.351-6.821-4.5-11.256-10.6-12.751-18.6s.362-15.321,5.3-22.131h-25.954Zm23.3,38.775a24.844,24.844,0,1,0,24.823-24.87A24.836,24.836,0,0,0,1205.187,499.834Zm-20.2-20.255h1.7c7.427,0,14.854-.02,22.28.02a3.939,3.939,0,0,0,3.035-1.079,17.661,17.661,0,0,1,3.14-2.3,1.67,1.67,0,0,0,.9-1.675c-.036-3.083-.011-6.167-.019-9.251,0-.37-.064-.74-.1-1.074h-30.941Zm49.633,60.629h-9.233c0,3.232-.09,6.355.028,9.469a4.529,4.529,0,0,0,4.466,4.383,4.406,4.406,0,0,0,4.688-3.963C1234.773,546.828,1234.622,543.536,1234.622,540.208Zm-9.143-12.836V530.7h9.129v-3.337c-1.559.127-3.025.34-4.49.341C1228.607,527.7,1227.1,527.5,1225.479,527.372Zm9.144,9.618v-2.942h-9.157v2.942Z" fill="#4e2825" stroke="#4e2825" stroke-width="0.5"/>
      <path id="Trazado_1328478" data-name="Trazado 1328478" d="M1456.548,487.958v-2.907h24.688v2.907Z" transform="translate(-203.076 -17.739)" fill="#4e2825" stroke="#4e2825" stroke-width="0.5"/>
      <path id="Trazado_1328479" data-name="Trazado 1328479" d="M1203.548,693.216v2.95h-21.656v-2.95Z" transform="translate(-0.006 -171.648)" fill="#4e2825" stroke="#4e2825" stroke-width="0.5"/>
      <path id="Trazado_1328480" data-name="Trazado 1328480" d="M1475.084,511.856h-18.422V508.94h18.422Z" transform="translate(-203.16 -35.401)" fill="#4e2825" stroke="#4e2825" stroke-width="0.5"/>
      <path id="Trazado_1328481" data-name="Trazado 1328481" d="M1205.768,720.091V717.2h15.417v2.89Z" transform="translate(-17.659 -189.382)" fill="#4e2825" stroke="#4e2825" stroke-width="0.5"/>
      <path id="Trazado_1328482" data-name="Trazado 1328482" d="M1182.005,717.1h2.922v2.924h-2.922Z" transform="translate(-0.089 -189.306)" fill="#4e2825" stroke="#4e2825" stroke-width="0.5"/>
      <path id="Trazado_1328483" data-name="Trazado 1328483" d="M1539.924,508.81h2.97v2.941h-2.97Z" transform="translate(-264.721 -35.305)" fill="#4e2825" stroke="#4e2825" stroke-width="0.5"/>
      <path id="Trazado_1328484" data-name="Trazado 1328484" d="M1304.85,526.437a21.686,21.686,0,1,1-21.823,21.611A21.771,21.771,0,0,1,1304.85,526.437Zm15.969,31.23c3.516-6.664,3.634-13.013-.113-19.2-3.2-5.286-8.025-8.151-14.239-8.85a5.8,5.8,0,0,0-.079.695,12.693,12.693,0,0,1-3.634,9.692,3.6,3.6,0,0,0-.746,4.11,3.745,3.745,0,0,0,3.663,2.453,6.707,6.707,0,0,1,5.273,2.366,5.864,5.864,0,0,0,1.2,1.18,6.87,6.87,0,0,0,2.525,1.122,5.93,5.93,0,0,1,5.294,4.151C1320.212,556.026,1320.449,556.672,1320.82,557.667Zm-17.653-27.942c-7.335.081-14.654,6.85-15.669,12.15a4.445,4.445,0,0,0,.647.039,6.63,6.63,0,0,1,7.4,6.477,3.058,3.058,0,0,0,1.092,2.222,13.342,13.342,0,0,0,4.813,2.073c3.161.418,5.364,1.83,6.617,4.715a2.569,2.569,0,0,0,2.223,1.678,4.182,4.182,0,0,1,3.749,3.594c.078.443.143.888.261,1.63,1.38-1.153,2.593-2.116,3.735-3.158a1.272,1.272,0,0,0,.288-1.088,19.732,19.732,0,0,0-1.466-3.88,3.368,3.368,0,0,0-2.052-1.691,8.958,8.958,0,0,1-6.174-3.464,3.842,3.842,0,0,0-2.958-1.36,6.95,6.95,0,0,1-6-3.325c-1.767-2.837-1.469-5.846,1.037-8.723A9.818,9.818,0,0,0,1303.167,529.725Zm-16.755,15.35a19.45,19.45,0,0,0,.342,7.662,18.754,18.754,0,0,0,23.213,13.287c1.318-.393,1.081-1.2,1.1-2.072.019-.911-.223-1.747-1.253-1.817-2.459-.168-3.774-1.656-4.712-3.726a4.151,4.151,0,0,0-3.121-2.469,33.661,33.661,0,0,1-5.289-1.632,6.615,6.615,0,0,1-4.389-6.332,3.005,3.005,0,0,0-2.7-2.88C1288.577,544.99,1287.536,545.075,1286.412,545.075Z" transform="translate(-74.78 -48.338)" fill="#4e2825" stroke="#4e2825" stroke-width="0.5"/>
      <path id="Trazado_1328485" data-name="Trazado 1328485" d="M1229.665,488.044v-2.9h18.469v2.9Z" transform="translate(-35.327 -17.805)" fill="#4e2825" stroke="#4e2825" stroke-width="0.5"/>
      <path id="Trazado_1328486" data-name="Trazado 1328486" d="M1229.678,511.881v-2.923h15.371v2.923Z" transform="translate(-35.337 -35.415)" fill="#4e2825" stroke="#4e2825" stroke-width="0.5"/>
      <path id="Trazado_1328487" data-name="Trazado 1328487" d="M1208.854,485.141v2.9h-2.924v-2.9Z" transform="translate(-17.779 -17.805)" fill="#4e2825" stroke="#4e2825" stroke-width="0.5"/>
      <path id="Trazado_1328488" data-name="Trazado 1328488" d="M1208.765,511.8h-2.923v-2.945h2.923Z" transform="translate(-17.714 -35.337)" fill="#4e2825" stroke="#4e2825" stroke-width="0.5"/>
    </g>
  </g>
</svg>
