<svg xmlns="http://www.w3.org/2000/svg" xmlns:xlink="http://www.w3.org/1999/xlink" width="135.059" height="129" viewBox="0 0 135.059 129">
  <defs>
    <clipPath id="clip-path">
      <rect id="Rectángulo_400938" data-name="Rectángulo 400938" width="120" height="120" fill="none"/>
    </clipPath>
  </defs>
  <g id="Grupo_1207844" data-name="Grupo 1207844" transform="translate(-386 -5865.663)">
    <g id="Grupo_108927" data-name="Grupo 108927" transform="translate(2 1398.663)">
      <rect id="Rectángulo_36179" data-name="Rectángulo 36179" width="129" height="127" transform="translate(390.059 4467)" fill="#f9f7f0"/>
    </g>
    <g id="Grupo_1207762" data-name="Grupo 1207762" transform="translate(-777.865 5383.615)">
      <path id="Trazado_1328450" data-name="Trazado 1328450" d="M1248.931,528.724h33.023v61.1h-55.116V552.665c-2.519.958-4.938,1.863-7.339,2.816a.94.94,0,0,0-.383.725q-.057,1.924,0,3.85c.008.275.241.538.336.817.416,1.222,1.148,2.441,1.173,3.673.123,5.929.087,11.862.04,17.792a7.618,7.618,0,0,1-5.894,7.415,7.534,7.534,0,0,1-8.637-4.109,8.989,8.989,0,0,1-.817-3.576q-.122-8.895,0-17.792a5.712,5.712,0,0,1,.917-2.965c1.212-1.789.407-3.682.543-5.515.013-.179-.742-.484-1.176-.616a25.985,25.985,0,0,1-.25-49.8,25.276,25.276,0,0,1,11.406-.878c.405.066,1.06-.447,1.364-.862a19.9,19.9,0,1,1,31.6,24.115C1249.534,527.99,1249.342,528.225,1248.931,528.724Zm-15.94,39.785h7.646v-9.157H1252.8v-9.243h-19.926v-3.019a12.365,12.365,0,0,1-1.487,1.568,3.788,3.788,0,0,0-1.5,3.532c.061,11.02.033,22.041.033,33.061v1.59h49.041v-55.1h-1.538c-9.914,0-19.828.017-29.742-.018a8.067,8.067,0,0,0-4.409,1.016,23.753,23.753,0,0,1-3.819,1.473,5.744,5.744,0,0,0-.691.372l.07.318h37v15.243h-19.725v9.263h13.708c0,2.566.069,5.036-.029,7.5a1.945,1.945,0,0,0,1.477,2.3A7.541,7.541,0,0,1,1275.41,579a7.681,7.681,0,0,1-9.869,4.324,7.623,7.623,0,0,1,.081-14.33c.4-.159,1.01-.507,1.024-.791.092-1.886.047-3.779.047-5.741h-22.859v6.076c2.115,0,4.146.054,6.172-.022,1.081-.041,1.454.264,1.432,1.4-.07,3.539-.026,7.081-.026,10.622v3.184h-18.422Zm-10.9-42.075c-2.345,2.336-4.583,4.537-6.776,6.781a4.592,4.592,0,0,0-.628,1.3,4.6,4.6,0,0,0,1.466.279c2.753-.407,5.491-.911,8.241-1.337,4.012-.621,8.022-1.274,12.049-1.786a17.04,17.04,0,0,0,14.792-14.346,16.881,16.881,0,1,0-33.227,1.2A18.591,18.591,0,0,0,1222.087,526.434ZM1214.6,513.61a16.786,16.786,0,1,0-2.61,33.46c8.839.63,15.708-6.127,16.623-11.215-.532.087-1.052.175-1.572.257-3.708.583-7.411,1.21-11.129,1.73a3.631,3.631,0,0,1-4.135-2.175c-.722-1.572-.343-2.969,1.2-4.516,1.653-1.654,3.319-3.3,5.024-4.987A19.8,19.8,0,0,1,1214.6,513.61Zm58.2,24.254h-1.681c-9.95,0-19.9.086-29.848-.062-2.43-.036-3.681.481-4.536,2.961-.749,2.173-.535,4.189-.649,6.316h36.714Zm-56.9-30.224c-9.971-1.9-23.413,4.95-25.686,19.2a22.906,22.906,0,0,0,21.424,26.332c13.21.871,22.505-9.348,23.716-18.343a12.822,12.822,0,0,0-2.228.29,1.719,1.719,0,0,0-1.025.921,19.954,19.954,0,1,1-25.965-24.48,20.691,20.691,0,0,1,8.892-1.134Zm-7.472,65.76c0,2.962-.022,5.925.007,8.888a4.559,4.559,0,1,0,9.117.031c.036-6.013.021-12.027.007-18.041,0-1.376-.469-1.85-1.832-1.878-1.768-.036-3.537-.027-5.306-.005-1.539.019-1.982.463-1.99,1.984C1208.422,567.387,1208.432,570.394,1208.433,573.4Zm27.69,7.349H1248.2v-9.064h-12.081Zm36.752-4.614a4.643,4.643,0,0,0-4.584-4.549,4.611,4.611,0,0,0-.03,9.221A4.692,4.692,0,0,0,1272.875,576.136ZM1210,559.273h5.986v-3.041H1210Z"/>
      <path id="Trazado_1328451" data-name="Trazado 1328451" d="M1358.258,576.6v3.06h-8.979v-3h2.811v-9.172H1349.3v-3h8.927v2.981h-2.843V576.6Z" transform="translate(-119.258 -51.001)"/>
      <path id="Trazado_1328452" data-name="Trazado 1328452" d="M1358.06,522.787a4.562,4.562,0,1,1-4.461-4.587A4.478,4.478,0,0,1,1358.06,522.787Zm-2.4-.046a9.571,9.571,0,0,0-2.14-1.483c-.741-.219-1.807.856-1.516,1.534a2.435,2.435,0,0,0,1.542,1.4C1354.08,524.235,1354.685,523.449,1355.655,522.741Z" transform="translate(-119.006 -17.002)"/>
      <path id="Trazado_1328453" data-name="Trazado 1328453" d="M1395.528,570.358h3.023a13.765,13.765,0,0,1-5.137,10.625l-1.927-2.337A11.189,11.189,0,0,0,1395.528,570.358Z" transform="translate(-150.255 -55.308)"/>
      <path id="Trazado_1328454" data-name="Trazado 1328454" d="M1233.364,625.1v-2.848h2.964V625.1Z" transform="translate(-34.129 -93.421)"/>
      <path id="Trazado_1328455" data-name="Trazado 1328455" d="M1259.47,625.091h-2.962v-2.883h2.962Z" transform="translate(-51.126 -93.387)"/>
    </g>
  </g>
</svg>
