<svg xmlns="http://www.w3.org/2000/svg" xmlns:xlink="http://www.w3.org/1999/xlink" width="135.059" height="129" viewBox="0 0 135.059 129">
  <defs>
    <clipPath id="clip-path">
      <rect id="Rectángulo_400938" data-name="Rectángulo 400938" width="120" height="120" fill="none"/>
    </clipPath>
  </defs>
  <g id="Grupo_1207846" data-name="Grupo 1207846" transform="translate(-386 -6203.663)">
    <g id="Grupo_108927" data-name="Grupo 108927" transform="translate(2 1736.663)">
      <rect id="Rectángulo_36179" data-name="Rectángulo 36179" width="129" height="127" transform="translate(390.059 4467)" fill="#f9f7f0"/>
    </g>
    <g id="Grupo_1207764" data-name="Grupo 1207764" transform="translate(-778.71 5760.067)">
      <path id="Trazado_1328459" data-name="Trazado 1328459" d="M1273.015,539.666V536.5H1252.1v3.169c1.464,0,2.856-.016,4.248,0,1.666.024,2.146.475,2.154,2.1q.028,5.977,0,11.954c-.008,1.5-.582,2.06-2.074,2.065q-6.042.022-12.086,0c-1.483-.006-2.033-.575-2.038-2.086q-.02-5.977,0-11.954c.005-1.566.479-2.049,2.029-2.079,1.434-.028,2.869-.006,4.354-.006v-3.191h-25.715v3.19c1.413,0,2.8-.016,4.194,0,1.7.024,2.117.424,2.124,2.093q.021,5.977,0,11.954c-.006,1.615-.494,2.074-2.157,2.078q-5.912.015-11.823,0c-1.634,0-2.135-.491-2.14-2.1q-.02-5.977,0-11.954c.005-1.594.441-2.038,2.02-2.068,1.394-.026,2.79-.005,4.3-.005v-3.157h-22.46v3.156c1.395,0,2.783-.013,4.171,0,1.727.02,2.21.479,2.216,2.174q.023,5.911,0,11.823c-.008,1.6-.554,2.124-2.146,2.128q-5.977.017-11.954,0c-1.534-.005-2.086-.532-2.092-2.033q-.027-6.043,0-12.086c.006-1.476.5-1.968,1.974-2,1.435-.031,2.871-.007,4.5-.007,0-1.525-.009-2.908,0-4.29.014-1.706.494-2.2,2.179-2.2,3.065-.01,6.13,0,9.2,0h1.489v-4.852c-2.389,0-4.742.021-7.1-.011a8.532,8.532,0,0,1-2.46-.263c-2.187-.7-3.307-2.491-3.308-5.1q-.008-22.07,0-44.139,0-6.306,0-12.611c0-2.13.373-2.5,2.549-2.5,9.02,0,18.041.02,27.061-.033a7.529,7.529,0,0,0,2.994-.7c2.463-1.129,4.841-2.441,7.291-3.6a5.482,5.482,0,0,1,2.257-.507q18.26-.046,36.52-.021c2.815,0,3.961,1.155,3.961,4q0,29.952,0,59.9,0,5.568-5.561,5.579c-1.876.006-3.752,0-5.714,0v4.852h4.4c1.62,0,3.241-.014,4.861.005,1.448.017,1.985.543,2.008,1.973s.005,2.874.005,4.516c1.5,0,2.886-.013,4.271,0,1.734.021,2.2.473,2.2,2.174q.016,5.911,0,11.823c-.006,1.6-.531,2.123-2.133,2.128q-5.977.018-11.954,0c-1.525,0-2.1-.536-2.105-2.033q-.036-6.043,0-12.086c.008-1.47.521-1.969,1.984-2C1270.016,539.642,1271.453,539.666,1273.015,539.666Zm-59.9-42.005a22.782,22.782,0,0,1,45.423-.144c.078.036.156.1.235.1q1.9.028,3.807.04c2.016.016,2.372.363,2.372,2.375q0,11.756,0,23.512v1.338a1.782,1.782,0,0,0,.393.15c1.707.013,3.414.026,5.121.027,2.266,0,2.61-.334,2.61-2.552q0-23.774,0-47.549V473.49H1196.92v1.161q0,24.037,0,48.074c0,.349-.1.779.069,1.031.31.475.765,1.189,1.182,1.205,2.779.107,5.564.055,8.455.055v-1.691q0-11.756,0-23.512c0-1.649.472-2.129,2.089-2.15C1210.161,497.646,1211.6,497.661,1213.112,497.661ZM1210,500.912v24.06h51.668v-24.02h-3.187c-1.463,13.062-11.529,20.476-21.682,20.9a22.034,22.034,0,0,1-14.509-4.457,22.5,22.5,0,0,1-9.116-16.483Zm63.016-38.83c-.495-.025-.839-.057-1.184-.057q-17.724,0-35.449.016a4.2,4.2,0,0,0-1.737.426c-2.564,1.223-5.079,2.549-7.661,3.732a7.226,7.226,0,0,1-2.864.7c-8.534.053-17.068.031-25.6.031H1197v3.092h76.021Zm-17.526,36.849c-.881-.214-1.4-.294-1.888-.466-1.793-.636-3.8-.978-5.312-2.031a21.527,21.527,0,0,0-8.547-3.424,3.328,3.328,0,0,1-2.588-1.768,10.864,10.864,0,0,0-6.014-5.5c-1.779-.666-3.679-1.364-3.929-4.016l-4.547,3.127c.334.6.562,1.016.8,1.43.864,1.519,2.121,2.944,2.512,4.576.711,2.968,2.2,4.725,5.258,5.174.975.143,1.383.96,1.36,1.969-.029,1.269.1,2.552-.046,3.8a3.647,3.647,0,0,1-.9,2.17c-2.036,1.836-4.255,3.47-6.314,5.282-1.206,1.061-2.24,2.316-3.454,3.591l2.964,2.374c.818-.653,1.475-1.2,2.157-1.716a11.768,11.768,0,0,0,4.188-5.891c1-3.3,2.553-5.839,5.727-7.285.393-.179.7-.573,1.1-.7a3.362,3.362,0,0,1,1.733-.245q5.438,1.469,10.827,3.113a3.093,3.093,0,0,1,1.382,1.08c.649.836,1.176,1.766,1.754,2.657l.456-.035Zm6.221,29.51H1210v4.633h51.708Zm-33.4-11.369a2.991,2.991,0,0,0,.4.213,19.465,19.465,0,0,0,21.745-5.322c1.714-2.012,1.714-2.012.3-4.272a6.744,6.744,0,0,0-.861-1.311,4.38,4.38,0,0,0-1.6-1.121c-2.376-.735-4.835-1.224-7.166-2.073a3.468,3.468,0,0,0-3.573.551,6.339,6.339,0,0,0-2.73,3.3,23.971,23.971,0,0,1-2.682,5.33A55.761,55.761,0,0,1,1228.317,517.073Zm-8.3-6.623c.954-2.537,3.139-3.577,5.033-4.96a16.759,16.759,0,0,0,3.616-3.173,5.532,5.532,0,0,0,.528-3.171c0-.293-.884-.748-1.41-.835a4.611,4.611,0,0,1-4.046-4.129,7.231,7.231,0,0,0-.657-1.984c-.818-1.553-1.72-3.062-2.628-4.657A19.017,19.017,0,0,0,1220.02,510.45Zm9.988-29.524a8.533,8.533,0,0,0,1.5,1.4c2.85,1.534,6.134,2.493,7.511,5.9a3.507,3.507,0,0,0,3.093,2.057,15.327,15.327,0,0,1,7.461,3.249,10.469,10.469,0,0,0,5.1,1.795C1253,484.26,1240.3,477.089,1230.008,480.925Zm15.571,71.575h9.583v-9.509h-9.583Zm-45.519.034v-9.586H1190.5v9.586Zm16.346-.023h9.56v-9.556h-9.56Zm53.484.031h9.613v-9.554h-9.613Z"/>
      <path id="Trazado_1328460" data-name="Trazado 1328460" d="M1246.469,551.217v3.117h-9.555v-3.117Z" transform="translate(-36.654 -68.108)"/>
      <path id="Trazado_1328461" data-name="Trazado 1328461" d="M1243.137,530.02h-6.267v-3.058h6.267Z" transform="translate(-36.621 -50.227)"/>
      <path id="Trazado_1328462" data-name="Trazado 1328462" d="M1428.2,785.08h3.028v3.038H1428.2Z" transform="translate(-177.672 -240.519)"/>
      <path id="Trazado_1328463" data-name="Trazado 1328463" d="M1206.264,785.086h3v3.033h-3Z" transform="translate(-14.058 -240.524)"/>
      <path id="Trazado_1328464" data-name="Trazado 1328464" d="M1307.789,791.223v3.046H1304.7v-3.046Z" transform="translate(-86.626 -245.048)"/>
      <path id="Trazado_1328465" data-name="Trazado 1328465" d="M1511.318,800.374h-3v-3.09h3Z" transform="translate(-236.739 -249.516)"/>
    </g>
  </g>
</svg>
