<svg xmlns="http://www.w3.org/2000/svg" width="127" height="127" viewBox="0 0 127 127">
  <g id="Grupo_1207845" data-name="Grupo 1207845" transform="translate(-1092.26 -4619.287)">
    <g id="Grupo_1207807" data-name="Grupo 1207807">
      <g id="Grupo_1207190" data-name="Grupo 1207190" transform="translate(590.859 -2479.055)">
        <circle id="Elipse_13775" data-name="Elipse 13775" cx="63.5" cy="63.5" r="63.5" transform="translate(501.4 7098.342)" fill="#83433e"/>
        <circle id="Elipse_13776" data-name="Elipse 13776" cx="52" cy="52" r="52" transform="translate(513.4 7110.342)" fill="#cdb3b1"/>
      </g>
      <g id="Grupo_1207623" data-name="Grupo 1207623" transform="translate(48.003 4146.59)">
        <path id="Trazado_1328041" data-name="Trazado 1328041" d="M1113.853,510.767c.532-1.729,1.167-2.206,2.842-2.211,1.143,0,2.287-.018,3.43.007a.806.806,0,0,0,.934-.636,8.745,8.745,0,0,1,16.5-.175,1.045,1.045,0,0,0,1.2.817c1.172-.048,2.348-.029,3.522-.009a2.254,2.254,0,0,1,2.46,2.487q.013,8.482,0,16.963a2.248,2.248,0,0,1-2.53,2.5c-4.6.011-9.207,0-13.811,0h-1.241v1.131q0,11.818.007,23.637a3.614,3.614,0,0,1-1.833,3.4,1.092,1.092,0,0,0-.38.807c-.036,1.606-.009,3.213-.02,4.82a3.288,3.288,0,0,1-3.471,3.494c-1.723.016-3.446,0-5.267,0v2.6c-1.088-.352-2.07-.6-3-.987a3.577,3.577,0,0,0-2.921.017c-.9.377-1.86.618-2.919.96V567.8h-1.178q-11.772,0-23.544,0c-3.851,0-6.081-2.24-6.082-6.106,0-14.924.051-29.848-.039-44.771a5.886,5.886,0,0,1,6.16-6.19c10.01.1,20.021.032,30.032.032Zm-28.429,2.226v43.79c.338.019.61.049.882.049q18.491,0,36.982,0c1.383,0,1.65-.282,1.651-1.708q0-11.771,0-23.542v-1h-2.221V539.2h-35.083V515.138H1113.9v-2.145Zm57.058,15.325V510.826h-4.118a36.739,36.739,0,0,1-1.191,4.248c-1.463,3.557-4.089,6.2-7.038,8.564a1.061,1.061,0,0,1-1.588-.018c-4.1-3.362-7.569-7.12-8.075-12.781h-4.219a2.072,2.072,0,0,0-.069.34c0,6.8-.017,13.6.02,20.395,0,.36.4.992.655,1.013a1.481,1.481,0,0,0,1.146-.614,23.124,23.124,0,0,0,1.506-2.969,1.023,1.023,0,0,1,1.117-.7c4.357.023,8.714.013,13.072.013Zm-23.421,8.724c-.337-.373-.537-.6-.747-.826a4.213,4.213,0,0,0-2.284-1.565,2.828,2.828,0,0,1-2.067-2.488,2.617,2.617,0,0,0-.559-1.194c-1.93-2.126-3.871-4.245-5.879-6.3a3.648,3.648,0,0,0-1.674-.753,3.191,3.191,0,0,0-1.471,0,3.126,3.126,0,0,0-1.525.67c-3.717,3.923-7.386,7.89-11.065,11.848a6.159,6.159,0,0,0-.433.605Zm-35.919-23.994c-2.6-.447-4.381,1-4.381,3.544q-.007,20.212,0,40.424a4.869,4.869,0,0,0,.044.561l4.337-.986Zm6.634,22.089.287.242a4.057,4.057,0,0,1,.455-.782c3.166-3.421,6.46-6.732,9.474-10.281a6.587,6.587,0,0,1,6.208-2.592,4.15,4.15,0,0,1,2.846,1.3c1.41,1.555,2.856,3.076,4.293,4.606a5.647,5.647,0,0,0,.554.452V517.436h-24.117Zm-2.139,26.034h35.049v-2.125h-1.131q-19.366,0-38.732,0a11.586,11.586,0,0,0-1.2.042,3.224,3.224,0,0,0-2.756,3.958,3.288,3.288,0,0,0,3.5,2.546q12.046.007,24.092,0c.27,0,.54-.027.839-.043v-2.14h-19.657Zm41.719-39.722c2.956-2.58,5.511-5.287,6.442-9.153a6.639,6.639,0,1,0-12.607,1.083C1124.379,516.69,1126.659,519.153,1129.356,521.449Zm-19.78,42v3.958a4.126,4.126,0,0,1,4.308,0v-3.961Zm13.08.023h-6.421V565.6h4.665C1122.6,565.594,1122.875,565.27,1122.656,563.475Zm-2.2-28.2V532.19l-1.133,1.867Z" transform="translate(0 0)" fill="#262626"/>
        <path id="Trazado_1328042" data-name="Trazado 1328042" d="M1164.839,716c-1.859.419-1.8,1.713-1.74,3.1.08,1.819.031,3.643.015,5.465a2.347,2.347,0,0,1-2.482,2.514q-3.149.049-6.3,0a2.29,2.29,0,0,1-2.449-2.445c-.03-2.315.045-4.63.024-6.945a1.559,1.559,0,0,0-.465-.956,7.871,7.871,0,0,0-1.221-.843l1.343-2.011,1.612,1a7.3,7.3,0,0,1,7.162-.785c1.195.424,2.061.857,3.028-.3Zm-4.2,6.769h-6.214v1.757h6.214Zm-4.382-2.563c0-1.214,0-2.321,0-3.427,0-.181-.033-.362-.051-.54-1.813,0-2.134,1.792-1.7,3.968Zm4.361-.01c.258-2.519-.092-3.835-1.816-3.964v3.964Z" transform="translate(-60.035 -172.299)" fill="#262626"/>
        <path id="Trazado_1328043" data-name="Trazado 1328043" d="M1290.685,715.129h6.429v2.133h-6.429Z" transform="translate(-174.453 -173.613)" fill="#262626"/>
        <path id="Trazado_1328044" data-name="Trazado 1328044" d="M1290.618,764.478v-2.1h6.437v2.1Z" transform="translate(-174.398 -212.097)" fill="#262626"/>
        <path id="Trazado_1328045" data-name="Trazado 1328045" d="M1290.683,740.893V738.8h6.444v2.09Z" transform="translate(-174.451 -192.897)" fill="#262626"/>
        <path id="Trazado_1328046" data-name="Trazado 1328046" d="M1266.763,717.426v-2.087h2.081v2.087Z" transform="translate(-154.966 -173.784)" fill="#262626"/>
        <path id="Trazado_1328047" data-name="Trazado 1328047" d="M1268.986,764.577h-2.045v-2.106h2.045Z" transform="translate(-155.112 -212.176)" fill="#262626"/>
        <path id="Trazado_1328048" data-name="Trazado 1328048" d="M1266.844,741.024v-2.038h2.1v2.038Z" transform="translate(-155.032 -193.046)" fill="#262626"/>
        <path id="Trazado_1328049" data-name="Trazado 1328049" d="M1304.494,608.812v2.034h-2.086v-2.034Z" transform="translate(-184.002 -87.011)" fill="#262626"/>
        <path id="Trazado_1328050" data-name="Trazado 1328050" d="M1326,610.944v-2.007h2.082v2.007Z" transform="translate(-203.215 -87.113)" fill="#262626"/>
        <path id="Trazado_1328051" data-name="Trazado 1328051" d="M1385.38,608.807h2.1v2.017h-2.1Z" transform="translate(-251.588 -87.007)" fill="#262626"/>
        <path id="Trazado_1328052" data-name="Trazado 1328052" d="M1411.142,610.92h-2.076v-2.055h2.076Z" transform="translate(-270.881 -87.054)" fill="#262626"/>
        <path id="Trazado_1328053" data-name="Trazado 1328053" d="M1163.13,603.224a3.283,3.283,0,1,1,3.282-3.306A3.29,3.29,0,0,1,1163.13,603.224Zm-.234-2.067h.425c.294-.39.768-.75.842-1.179.115-.663-.363-1.082-1.057-1.086s-1.164.44-1.058,1.088C1162.116,600.408,1162.6,600.767,1162.9,601.157Z" transform="translate(-67.851 -77.112)" fill="#262626"/>
        <path id="Trazado_1328054" data-name="Trazado 1328054" d="M1100.829,821.461h4.261v2.1h-4.261Z" transform="translate(-19.803 -260.227)" fill="#262626"/>
        <path id="Trazado_1328055" data-name="Trazado 1328055" d="M1342.115,525.846a4.286,4.286,0,0,1,4.328,4.351,4.357,4.357,0,0,1-4.42,4.381,4.423,4.423,0,0,1-4.355-4.38A4.357,4.357,0,0,1,1342.115,525.846Zm-.055,6.517a2.22,2.22,0,0,0,2.233-2.131,2.283,2.283,0,0,0-2.248-2.236,2.209,2.209,0,0,0-2.154,2.2A2.133,2.133,0,0,0,1342.06,532.362Z" transform="translate(-212.723 -19.43)" fill="#262626"/>
      </g>
    </g>
  </g>
</svg>
