<svg xmlns="http://www.w3.org/2000/svg" width="127" height="127" viewBox="0 0 127 127">
  <g id="Grupo_1207848" data-name="Grupo 1207848" transform="translate(729.451 7080.713)">
    <g id="Grupo_1207810" data-name="Grupo 1207810">
      <g id="Grupo_1207190" data-name="Grupo 1207190" transform="translate(-1230.852 -14179.055)">
        <circle id="Elipse_13775" data-name="Elipse 13775" cx="63.5" cy="63.5" r="63.5" transform="translate(501.4 7098.342)" fill="#83433e"/>
        <circle id="Elipse_13776" data-name="Elipse 13776" cx="52" cy="52" r="52" transform="translate(513.4 7110.342)" fill="#cdb3b1"/>
      </g>
      <g id="Grupo_1207626" data-name="Grupo 1207626" transform="translate(-1918.398 -7615.727)">
        <path id="Trazado_1328072" data-name="Trazado 1328072" d="M1240.192,571.626c0-1.518,0-2.921,0-4.323.012-3.827,2.5-6.365,6.328-6.3a13.408,13.408,0,0,1,4.419.58,5.4,5.4,0,0,1,3.495,5.281c.053,1.534.01,3.072.01,4.764a11.319,11.319,0,0,1,2.026.022c1.146.217,2.267.565,3.4.856a5.435,5.435,0,0,0,1.187.279c1.6.032,3.209,0,4.813.016,3.914.035,6.382,2.483,6.384,6.381q.014,23.25,0,46.5c0,3.9-2.48,6.345-6.4,6.346q-18.532.006-37.065,0c-3.923,0-6.378-2.425-6.382-6.354q-.018-23.25,0-46.5c0-3.913,2.462-6.34,6.382-6.374.995-.008,1.99,0,2.984,0a7.186,7.186,0,0,0,3.9-.676,6.569,6.569,0,0,1,2.511-.481A19.115,19.115,0,0,1,1240.192,571.626Zm24.878,53.234V580h-2.324c0,1.1.009,2.12,0,3.143-.013,1.138-.366,1.507-1.5,1.508q-13.911.01-27.822,0c-1.147,0-1.5-.359-1.513-1.492-.013-1.046,0-2.092,0-3.162h-2.29v36.635h3.923c2.965,0,4.286,1.319,4.29,4.28,0,1.3,0,2.607,0,3.952Zm-32.8-49.672c-1.191,0-2.311,0-3.43,0q-4.07.009-4.076,4.085,0,23.15,0,46.3c0,2.682,1.417,4.115,4.079,4.116q18.481.005,36.963,0c2.638,0,4.049-1.41,4.051-4.031q0-8.663,0-17.326,0-14.679,0-29.359c0-1.883-.938-3.38-2.64-3.634a33.273,33.273,0,0,0-4.838-.05l.482,2.265c.645,0,1.28,0,1.916,0a2.444,2.444,0,0,1,2.748,2.716q.009,22.139,0,44.279a2.433,2.433,0,0,1-2.73,2.73c-2.823.012-5.647,0-8.471,0-6.931,0-13.861.022-20.792-.009a8.255,8.255,0,0,1-8.395-8.143q-.049-19.492-.009-38.984a2.39,2.39,0,0,1,2.571-2.59c.724-.013,1.449,0,2.118,0Zm28.058,3.468c.4-2.647-1.15-4.873-4.157-4.634-.828.066-1.667.021-2.5.007-1.176-.02-1.557-.4-1.564-1.56-.011-1.8.02-3.593-.01-5.388a3.648,3.648,0,0,0-3.775-3.767c-.609-.014-1.219-.008-1.828,0a3.623,3.623,0,0,0-3.916,3.893c-.017,1.764.006,3.528-.009,5.292-.009,1.075-.44,1.507-1.518,1.53-.994.021-1.989,0-2.983.007-2.658.028-4.2,1.93-3.712,4.622Zm-26.062,3.59h26.049a3.661,3.661,0,0,0,.064-.5,4.875,4.875,0,0,0-.066-.543h-26.047Zm1.157,42.606c0-1.632.061-3.2-.044-4.755a1.425,1.425,0,0,0-.915-1.027c-1.608-.109-3.228-.049-4.833-.049A5.68,5.68,0,0,0,1235.422,624.852Z" fill="#262626"/>
        <path id="Trazado_1328073" data-name="Trazado 1328073" d="M1493.791,658.536c0-6-.013-12,.006-18a5.781,5.781,0,0,1,4.413-5.711,5.682,5.682,0,0,1,6.471,2.593,7.268,7.268,0,0,1,.9,3.366q.1,18,0,35.991a5.51,5.51,0,0,1-.839,2.5,10.447,10.447,0,0,0-1.525,6.015,3.536,3.536,0,1,1-7.051.041c.252-2.612-.808-4.717-1.925-6.885a4.161,4.161,0,0,1-.437-1.823C1493.778,670.6,1493.79,664.567,1493.791,658.536Zm4.71,15.234V650.087h2.408v23.685h2.285V647.709h-7.028V673.77Zm4.7-32.089c.231-1.7-.088-3.142-1.557-4.1a3.346,3.346,0,0,0-3.891.007c-1.458.957-1.77,2.4-1.571,4.091Zm-3.536,39.061c1.384.489,2.029-.275,2.456-1.474a9.025,9.025,0,0,1,.821-1.625.889.889,0,0,0-.444-1.461,1.129,1.129,0,0,0-1.534.72c-.058.18.006.45-.1.554-.36.344-.759.842-1.173.874-.352.027-.777-.481-1.109-.812-.133-.132-.074-.437-.156-.642a1.062,1.062,0,0,0-1.452-.713c-.718.253-.886.762-.513,1.449a14.678,14.678,0,0,1,.9,1.8C1497.761,680.5,1498.359,681.187,1499.661,680.743Zm3.563-36.573h-7.052v1.044h7.052Zm-4.688,39.051c0,.9-.059,1.7.019,2.487a.965.965,0,0,0,1.19.955,1.68,1.68,0,0,0,1.083-.972,11.865,11.865,0,0,0,.05-2.47Z" transform="translate(-219.133 -59.439)" fill="#262626"/>
        <path id="Trazado_1328074" data-name="Trazado 1328074" d="M1297.038,708.643a13.008,13.008,0,1,1-13.147,12.9A12.984,12.984,0,0,1,1297.038,708.643Zm-.076,23.592c0-.691-.041-1.327.015-1.955.035-.394.095-.926.354-1.135a2.8,2.8,0,0,0,.863-2.4c.019-.478.322-1.3.609-1.353,1.32-.244,2.725-.6,3.96.3.95.694,1.849,1.459,2.929,2.319l1.754-3.759c-.227-.13-.278-.182-.335-.188a2.529,2.529,0,0,0-.574-.03c-2.15.268-4.095-.5-6.067-1.163a1.479,1.479,0,0,1-1.142-1.648,13.8,13.8,0,0,0-.008-2.21,2.043,2.043,0,0,1,1.519-2.421,1.45,1.45,0,0,0,.874-.746c.267-1.083.393-2.2.593-3.437a10.389,10.389,0,0,0-7.857-1.081,3.859,3.859,0,0,1,1.347,3.788,2.183,2.183,0,0,0,.781,2.124,1.38,1.38,0,0,1,.367.847c.253,1.893.063,3.591-2.053,4.4a4.307,4.307,0,0,0-.8.526c-1.049.709-1.054,1.343.112,1.8a2.2,2.2,0,0,1,1.607,2.657,9.793,9.793,0,0,0-.014,1.153,1.172,1.172,0,0,1-1.255,1.278c-1.413.024-2.827.007-4.276.007A10.163,10.163,0,0,0,1296.962,732.236Zm-3.685-4.571.167-.5a7.648,7.648,0,0,1-1.441-.791,2.614,2.614,0,0,1-.946-1.292c-.327-1.828-.018-3.44,1.969-4.245a5.3,5.3,0,0,0,.888-.569c.938-.626.943-1.293.229-2.2a4.708,4.708,0,0,1-.73-1.767,3.962,3.962,0,0,1-.012-1.435,3.06,3.06,0,0,0-1.273-2.689,10.7,10.7,0,0,0-5.726,11.243c.273,1.562.815,2.784,2.543,3.16.584.127,1.105.534,1.689.67C1291.5,727.458,1292.395,727.534,1293.277,727.664Zm11.352-13.438-.35.018a7.924,7.924,0,0,0-.161,1.627,2.043,2.043,0,0,1-1.521,2.5c-.18.054-.45.147-.487.277a7.02,7.02,0,0,0-.322,1.667.944.944,0,0,0,.515.651,10.128,10.128,0,0,0,5.336.589A10.41,10.41,0,0,0,1304.63,714.226Zm-3.8,13.315a7.684,7.684,0,0,1-.915,2.23,2.461,2.461,0,0,0-.453,2.427l4.459-2.269-.058-.327C1302.8,728.948,1302.1,727.74,1300.833,727.541Z" transform="translate(-49.653 -119.214)" fill="#262626"/>
        <path id="Trazado_1328075" data-name="Trazado 1328075" d="M1402.135,847.327a3.55,3.55,0,1,1-3.531-3.535A3.548,3.548,0,0,1,1402.135,847.327Zm-3.562-1.165a1.1,1.1,0,0,0-1.122,1.166,1.08,1.08,0,0,0,1.108,1.179,1.173,1.173,0,1,0,.014-2.345Z" transform="translate(-139.395 -228.34)" fill="#262626"/>
        <path id="Trazado_1328076" data-name="Trazado 1328076" d="M1359.488,853.8v2.34c-2.7.963-3.994-.948-5.463-2.544l1.624-1.628C1356.759,852.883,1357.5,854.5,1359.488,853.8Z" transform="translate(-106.282 -234.94)" fill="#262626"/>
        <path id="Trazado_1328077" data-name="Trazado 1328077" d="M1271.924,698.841v-2.278h4.628v2.278Z" transform="translate(-39.99 -109.46)" fill="#262626"/>
        <path id="Trazado_1328078" data-name="Trazado 1328078" d="M1271.979,717.288v-2.233h4.629v2.233Z" transform="translate(-40.035 -124.392)" fill="#262626"/>
        <path id="Trazado_1328079" data-name="Trazado 1328079" d="M1336.9,585.544a3.529,3.529,0,1,1-.06,7.058,3.529,3.529,0,1,1,.06-7.058Zm1.158,3.486a1.145,1.145,0,0,0-1.2-1.1,1.109,1.109,0,0,0-1.141,1.241,1.07,1.07,0,0,0,1.22,1.061A1.133,1.133,0,0,0,1338.053,589.03Z" transform="translate(-89.547 -19.818)" fill="#262626"/>
      </g>
    </g>
  </g>
</svg>
