<svg xmlns="http://www.w3.org/2000/svg" width="74.39" height="74.39" viewBox="0 0 74.39 74.39">
  <g id="Grupo_1207845" data-name="Grupo 1207845" transform="translate(-270 -833.789)">
    <g id="Grupo_1207844" data-name="Grupo 1207844">
      <g id="Grupo_1207385" data-name="Grupo 1207385" transform="translate(270 833.789)">
        <g id="Grupo_1207190" data-name="Grupo 1207190">
          <circle id="Elipse_13775" data-name="Elipse 13775" cx="37.195" cy="37.195" r="37.195" fill="#fbe49d"/>
          <circle id="Elipse_13776" data-name="Elipse 13776" cx="29.902" cy="29.902" r="29.902" transform="translate(7.293 7.293)" fill="#3b4b68"/>
        </g>
      </g>
    </g>
    <g id="Grupo_1207797" data-name="Grupo 1207797" transform="translate(-87.046 558.705)">
      <path id="Trazado_1328554" data-name="Trazado 1328554" d="M381.5,307.713a2.554,2.554,0,0,1-1.841-2.752c0-.713-.011-1.427,0-2.14a2.519,2.519,0,0,1,2.545-2.548c.49-.009.968.045,1.083-.6a.194.194,0,0,1,.1-.122c.662-.294.639-.914.769-1.5a6.186,6.186,0,0,1,5.973-4.9,7.277,7.277,0,0,1,4.841,1.152,6.231,6.231,0,0,1,2.6,4.432,1.26,1.26,0,0,0,.316.535c.246.313.513.611.824.978l1.263.055c.64-.724,1.252-1.387,1.822-2.084a.867.867,0,0,0,.1-.619,4.2,4.2,0,0,1,2.638-4.734,3.975,3.975,0,0,1,4.169.689,4.048,4.048,0,0,1,1.457,3.969.826.826,0,0,0,.3.9,6.565,6.565,0,0,1-6.087,11.207c-.424-.115-.714-.3-.591-.767s.479-.46.862-.356a5.461,5.461,0,0,0,6.347-3.025,5.379,5.379,0,0,0-1.462-6.3l-.619,1.009a4.243,4.243,0,0,1,1.285,3.7,4.048,4.048,0,0,1-1.459,2.6,4.223,4.223,0,0,1-5.609-6.309l-.606-1.022a5.2,5.2,0,0,0-1.846,3.211,5.3,5.3,0,0,0,1.373,4.593c.094.107.267.193.286.307a5.276,5.276,0,0,1,.019.823,2.088,2.088,0,0,1-.818-.041,3.1,3.1,0,0,1-.684-.655l-.819.349c.033.962.06,1.883.1,2.8.007.144.044.365.139.416a4.682,4.682,0,0,1,2.149,2.4.623.623,0,0,0,.149.01c1.324-.35,1.665-.081,1.665,1.316,0,1.659.007,3.318-.006,4.976a.584.584,0,0,0,.368.62,1.947,1.947,0,0,1,1.122,1.808c.017.588.016,1.177,0,1.766a1.943,1.943,0,0,1-1.114,1.812.612.612,0,0,0-.377.67c.02.624,0,1.248,0,1.873a.95.95,0,0,1-.7.964c-2.621.921-5.237,1.857-7.87,2.743a2.06,2.06,0,0,1-1.229-.028c-2.463-.832-4.906-1.725-7.368-2.559a1.865,1.865,0,0,0-1.117.01c-2.412.816-4.808,1.68-7.213,2.518a.972.972,0,0,1-1.382-.976c-.015-1.534-.01-3.068,0-4.6a.547.547,0,0,0-.326-.591,1.93,1.93,0,0,1-1.137-1.745c-.027-.676-.024-1.356.014-2.031a1.841,1.841,0,0,1,1.071-1.614.619.619,0,0,0,.38-.669c-.02-.838-.01-1.676-.005-2.515,0-.728.179-1,.887-1.2a.813.813,0,0,0,.719-.951,4.109,4.109,0,0,1,2.206-3.877.618.618,0,0,0,.345-.636C381.486,309.564,381.5,308.677,381.5,307.713Zm14.165,22.96c.232-.065.4-.1.566-.161,1.9-.663,3.8-1.321,5.7-2,1.164-.416,1.159-.43,1.159-1.7a1.571,1.571,0,0,0-.014-.53.67.67,0,0,0-.347-.394,2.069,2.069,0,0,1-1.693-1.943,16.691,16.691,0,0,1,0-1.978,1.986,1.986,0,0,1,1.62-1.877c.384-.067.439-.236.436-.566-.013-1.534,0-3.067-.007-4.6,0-.137-.023-.273-.035-.416a.69.69,0,0,0-.184,0c-2.3.8-4.608,1.6-6.9,2.432a.671.671,0,0,0-.285.523c-.024,1.373-.013,2.746-.013,4.119,0,.374.006.749-.007,1.123a.545.545,0,0,1-.551.6c-.375.016-.539-.23-.591-.562a3.123,3.123,0,0,1-.015-.48c0-1.569-.015-3.139.009-4.708a.634.634,0,0,0-.51-.724c-1.653-.558-3.295-1.15-4.942-1.726-.632-.221-1.268-.433-1.935-.66-.016.165-.032.253-.032.34,0,4.3,0,8.6-.011,12.893,0,.374.178.485.469.585,1.33.459,2.655.93,3.983,1.394.966.337,1.933.67,2.967,1.028v-.671q0-2.167,0-4.334c0-.4.076-.788.579-.795s.59.361.586.777c-.006.589,0,1.177,0,1.766C395.661,328.495,395.661,329.559,395.661,330.673Zm-17.136-.015c.145-.035.268-.053.382-.093,2.218-.777,4.434-1.563,6.656-2.327.333-.114.365-.314.364-.605q-.008-6.34-.005-12.679c0-.151-.021-.3-.036-.519-2.428.856-4.794,1.686-7.153,2.537a.523.523,0,0,0-.219.405c-.022.748,0,1.5-.015,2.246-.006.279.071.4.368.457a1.978,1.978,0,0,1,1.692,1.977c.025.641.026,1.285-.007,1.925a1.958,1.958,0,0,1-1.3,1.794,5.331,5.331,0,0,1-.722.194Zm6.652-31.606a3.951,3.951,0,0,0,.4.047c.678,0,1.355,0,2.033,0a.552.552,0,0,1,.62.529c.033.4-.221.58-.587.615-.212.02-.428.01-.641.011h-2.742v1.279h13.065v-1.279H390.6c-.41,0-.787-.084-.78-.588s.369-.575.789-.573c1.73.008,3.46,0,5.19,0h.557a4.556,4.556,0,0,0-.713-2.445c-1.774-3.088-7.322-3.073-9.265-.587A5.215,5.215,0,0,0,385.177,299.052Zm10.249,15.818c-.212.011-.456.094-.626.016a1.028,1.028,0,0,1-.555-.516c-.091-.332.154-.559.51-.608.176-.025.356-.031.53-.065a2.441,2.441,0,0,0,1.941-2.088,2.47,2.47,0,0,0-1.4-2.544.659.659,0,0,0-.848.134,4.363,4.363,0,0,1-1.235.812.7.7,0,0,0-.519.659,2.445,2.445,0,0,1-4.788.34c-.078-.269-.107-.552-.158-.829a6.314,6.314,0,0,1-1.687-.994.656.656,0,0,0-.8-.135,2.44,2.44,0,0,0-.638,4.041.792.792,0,0,0,.64.124,2.059,2.059,0,0,1,1.351-.011c2.446.878,4.9,1.728,7.35,2.6.9.32,1.076.195.988-.768A.778.778,0,0,0,395.426,314.87Zm-8.641-12.11c0,1.465-.055,2.872.017,4.272a2.153,2.153,0,0,0,2.258,2.039c1.123.011,2.245.007,3.368,0a2.235,2.235,0,0,0,2.389-2.363c.016-.766,0-1.532,0-2.3,0-.544,0-1.088,0-1.653Zm19.234.1c.993-1.731,1.992-3.309,2.82-4.971a2.886,2.886,0,0,0-.787-3.365,3.07,3.07,0,0,0-3.3-.506A3.021,3.021,0,0,0,403,296.947a2.073,2.073,0,0,0,.162.884C404.074,299.476,405.017,301.1,406.018,302.856Zm2.255-1.573c-.449.76-.895,1.5-1.329,2.253-.224.388-.554.694-.987.569a1.769,1.769,0,0,1-.889-.656c-.478-.691-.872-1.44-1.313-2.189a3.035,3.035,0,0,0,.242,4.287,3.07,3.07,0,0,0,4.213-.155A2.979,2.979,0,0,0,408.273,301.284Zm-24.7,1.348c-.177-.359-.325-.673-.486-.98a.443.443,0,0,0-.2-.213c-.6-.212-1.654.079-1.836.64a6.3,6.3,0,0,0,0,3.914,1.043,1.043,0,0,0,1.34.561c.381-.277.727-.6,1.089-.91A2.69,2.69,0,0,1,383.57,302.632Zm-6.54,20.317h0c0,.285-.014.571,0,.855.041.67.395.963,1.146.97.814.007,1.177-.257,1.216-.943.031-.55.028-1.1,0-1.655-.029-.683-.362-.981-1.06-1-.994-.025-1.31.285-1.313,1.291C377.029,322.628,377.03,322.789,377.03,322.949Zm27.523.062h0c0-.285.013-.571,0-.855-.039-.707-.4-.989-1.239-.979-.734.009-1.107.325-1.127.99-.017.534-.014,1.069,0,1.6a.93.93,0,0,0,.952,1c1.067.079,1.419-.251,1.422-1.333C404.553,323.3,404.552,323.153,404.552,323.011Zm-8.694-15.186a3.658,3.658,0,0,1,2.447,2.648c.1.431.364.251.641.264,0-.6,0-1.151,0-1.7a2.609,2.609,0,0,0-1.021-2.075,1.765,1.765,0,0,0-1.91-.1Zm-10.283-1.048a4.3,4.3,0,0,0-1.338-.092,2.087,2.087,0,0,0-1.36,1.269,8.273,8.273,0,0,0-.228,2.942c.289-.171.548-.233.583-.358a3.845,3.845,0,0,1,2.5-2.718Zm14.627-.4a6.651,6.651,0,0,1-.529-4.913h-1.011l-.654,1.164a2.617,2.617,0,0,1,.084,3.036,6.45,6.45,0,0,1,.851.671C399.357,306.786,399.743,306.646,400.2,306.374Zm-1.255,5.61c-.405-.123-.546-.023-.714.342a5.038,5.038,0,0,1-1.135,1.7,1.294,1.294,0,0,0-.408,1.408c.721-.247,1.409-.472,2.085-.727.088-.033.162-.225.165-.345C398.955,313.576,398.947,312.793,398.947,311.983ZM396,305.62a1.433,1.433,0,0,0,1.357-1.6A1.323,1.323,0,0,0,396,302.816Zm-10.428-2.855a1.439,1.439,0,0,0-1.345,1.444,1.4,1.4,0,0,0,1.345,1.4Zm3.964,7.5a1.141,1.141,0,0,0,.613,1.208,1.221,1.221,0,0,0,1.359-.042,1.149,1.149,0,0,0,.561-1.166Zm-9.371,4.943c.389-.133.775-.255,1.151-.4a.317.317,0,0,0,.167-.231c.013-.749.008-1.5.008-2.3A2.877,2.877,0,0,0,380.166,315.207Zm2.508-.869,1.4-.5a14.206,14.206,0,0,1-.736-1.532c-.137-.4-.321-.439-.661-.319Zm17.631-2.059-.147.087v1.859l1.26-.462Z" transform="translate(0 0)" fill="#fef8e6"/>
      <path id="Trazado_1328555" data-name="Trazado 1328555" d="M499.5,416.483a1.9,1.9,0,0,1-1.9-1.664.611.611,0,0,1,.486-.766.545.545,0,0,1,.668.522c.069.44.251.743.737.745.515,0,.7-.33.769-.781a.522.522,0,0,1,.636-.489.574.574,0,0,1,.5.65A1.879,1.879,0,0,1,499.5,416.483Z" transform="translate(-108.698 -108.482)" fill="#fef8e6"/>
      <path id="Trazado_1328556" data-name="Trazado 1328556" d="M526,394.23c-.017.585-.2.863-.606.849-.447-.016-.573-.35-.562-.749s.173-.667.6-.649A.524.524,0,0,1,526,394.23Z" transform="translate(-133.031 -90.301)" fill="#fef8e6"/>
      <path id="Trazado_1328557" data-name="Trazado 1328557" d="M496.318,394.406c-.011.381-.166.678-.58.669-.445-.01-.58-.338-.572-.736.008-.382.154-.669.583-.663C496.217,393.682,496.32,394.011,496.318,394.406Z" transform="translate(-106.536 -90.298)" fill="#fef8e6"/>
      <path id="Trazado_1328558" data-name="Trazado 1328558" d="M639.631,315.12a1.94,1.94,0,0,1,1.917-1.949,1.956,1.956,0,0,1,.041,3.911A1.944,1.944,0,0,1,639.631,315.12Zm2.718,0a.787.787,0,0,0-.77-.786.777.777,0,0,0-.788.762.779.779,0,1,0,1.557.025Z" transform="translate(-235.546 -18.404)" fill="#fef8e6"/>
    </g>
  </g>
</svg>
