<svg xmlns="http://www.w3.org/2000/svg" width="127" height="127" viewBox="0 0 127 127">
  <g id="Grupo_1207847" data-name="Grupo 1207847" transform="translate(-276 -8263)">
    <g id="Grupo_1207733" data-name="Grupo 1207733" transform="translate(0 62)">
      <g id="Grupo_1207190" data-name="Grupo 1207190" transform="translate(-225.4 1102.658)">
        <circle id="Elipse_13775" data-name="Elipse 13775" cx="63.5" cy="63.5" r="63.5" transform="translate(501.4 7098.342)" fill="#fbe49d"/>
        <circle id="Elipse_13776" data-name="Elipse 13776" cx="52" cy="52" r="52" transform="translate(513.4 7110.342)" fill="#3b4b68"/>
      </g>
      <g id="Grupo_1207726" data-name="Grupo 1207726" transform="translate(-700.071 7798.255)">
        <path id="Trazado_1328326" data-name="Trazado 1328326" d="M1085.809,437.3q-.691-1.32-1.383-2.639a1.72,1.72,0,0,0-.255-.443,7.106,7.106,0,0,0-7.508-.925,4.388,4.388,0,0,1-1.375,4.531c-.244.228-.255.786-.248,1.189a100.574,100.574,0,0,0,2.111,18.677c.029.14.13.3.087.414-.152.388-.353.757-.535,1.133-.361-.26-.961-.46-1.043-.789a34.917,34.917,0,0,1-.912-4.747c-.5-4.81-.915-9.63-1.363-14.446-.013-.139-.034-.278-.059-.484h-1.2c-.146,2.46-.2,4.9-.454,7.312-.364,3.489-.865,6.965-1.316,10.445-.075.58-.3,1.1-1.008.987-.811-.127-.753-.775-.626-1.348,1.244-5.6,1.42-11.3,1.686-17a1.981,1.981,0,0,0-.657-1.792,3.507,3.507,0,0,1-1.088-3.336.97.97,0,0,0-.813-1.247c-2.506-.744-4.644.205-6.69,1.5-.16.1-.153.444-.258.658-.264.535-.421,1.228-.851,1.552-.684.514-.624.973-.364,1.634,1.309,3.334,2.578,6.684,3.9,10.011a1.261,1.261,0,0,0,.823.609c1.017.209,1.222.535.844,1.576a7.7,7.7,0,0,1-8.221,4.714,7.546,7.546,0,0,1-6.011-4.8c-.387-.946-.16-1.259.831-1.487a1.411,1.411,0,0,0,.9-.685q2.051-5.14,3.982-10.328a1.392,1.392,0,0,0-.3-1.154,2.74,2.74,0,0,1-.269-3.7,2.6,2.6,0,0,1,3.57-.516,1.07,1.07,0,0,0,1.343.033,9.019,9.019,0,0,1,4.98-1.483,17.475,17.475,0,0,1,3.542.716c.569-.132.648-.425.458-1.112a3.911,3.911,0,0,1,.156-2.351,18.362,18.362,0,0,1,1.732-2.952c.38-.591,1.023-.761,1.421-.167a24.688,24.688,0,0,1,2.145,3.811c.222.506-.1,1.243-.148,1.876-.019.245-.06.583.072.718a.791.791,0,0,0,.721.13c2.86-1.33,5.513-.628,8.132.728a1.529,1.529,0,0,0,1.209.111c1.5-.808,2.976-.634,3.84.563a2.688,2.688,0,0,1-.554,3.74c-.078.073-.167.134-.312.249,1.456,3.79,2.895,7.566,4.378,11.323a1.146,1.146,0,0,0,.827.458c.944.114,1.116.586.842,1.419a7.665,7.665,0,0,1-14.359-.082c-.254-.8.006-1.214.862-1.341a1.255,1.255,0,0,0,.883-.544c1.421-3.6,2.791-7.215,4.169-10.83a.628.628,0,0,0,0-.211Zm-3.495,13.174a5.463,5.463,0,0,0,5.2,2.976,5.827,5.827,0,0,0,5.014-2.976Zm-18.984.013h-10.351a6,6,0,0,0,10.351,0Zm9.406-13.466a2.447,2.447,0,0,0,2.413-2.506,2.448,2.448,0,0,0-4.9.066A2.453,2.453,0,0,0,1072.736,437.025Zm-15.361,4.39-.223-.071-2.819,7.338h3.042Zm31-.011-.178.06v7.211h2.992Zm-1.939.3-.176-.076-2.736,7.083h2.912Zm-27.349,6.976h2.9l-2.693-6.9-.21.07Zm13.669-21.907a16.876,16.876,0,0,0-1.171,2.34c-.111.352.073,1.117.293,1.192a2.791,2.791,0,0,0,1.7-.009c.214-.073.378-.826.274-1.185A17.057,17.057,0,0,0,1072.752,426.769Zm14.2,8.936.482-.015c.26-.381.781-.818.714-1.13a1.4,1.4,0,0,0-1.013-.907c-.344.006-.89.58-.948.965C1086.137,434.934,1086.673,435.339,1086.95,435.7Zm-29.032-.028.538.027c.259-.369.672-.713.742-1.115a.788.788,0,0,0-.954-.971,1.4,1.4,0,0,0-.935.887C1057.258,434.859,1057.7,435.283,1057.919,435.676Z" transform="translate(-30.012)" fill="#fef8e6" stroke="#fef8e6" stroke-width="0.5"/>
        <path id="Trazado_1328327" data-name="Trazado 1328327" d="M1046.54,600.622a14.336,14.336,0,0,1,13.014-1.342,13.73,13.73,0,0,1,6.9,5.747,14.157,14.157,0,0,1-1.7,17.028,14.407,14.407,0,0,1-18.989,1.657c-1.232,1.906-3.1,2.255-5.234,2.238-7.46-.057-14.923-.108-22.381.016-3.489.058-5.583-2.321-5.555-5.613.1-11.229.036-22.459.038-33.689,0-3.71,1.912-5.606,5.65-5.607q11.353,0,22.705,0c3.585,0,5.537,1.938,5.544,5.506q.012,6.351,0,12.7Zm-2.064,21.966a2.707,2.707,0,0,0-.225-.329,14.13,14.13,0,0,1,.187-19.871,1.594,1.594,0,0,0,.421-1.029c.026-5.13.037-10.259.006-15.389a3.094,3.094,0,0,0-3.2-3.208q-12.1-.039-24.208,0a3.016,3.016,0,0,0-3.118,3.149q-.026,17.6,0,35.191a2.992,2.992,0,0,0,3.085,3.174c8.105.033,16.21.021,24.315.007A2.982,2.982,0,0,0,1044.476,622.588Zm9.963,2.271a12.444,12.444,0,1,0-12.52-12.376A12.371,12.371,0,0,0,1054.438,624.859Z" transform="translate(0 -122.717)" fill="#fef8e6" stroke="#fef8e6" stroke-width="0.5"/>
        <path id="Trazado_1328328" data-name="Trazado 1328328" d="M1047.572,600.744a12.082,12.082,0,1,1-12.145,12.032A12.028,12.028,0,0,1,1047.572,600.744Zm.636,22.773c-.051-.351-.071-.561-.112-.768-.571-2.851-.021-3.769,2.722-4.529.034-.01.068-.024.1-.031,1.029-.2,1.575-.713,1.367-1.87a1.244,1.244,0,0,1,1.171-1.6c.853-.089,1.1-.6,1.31-1.312a1.9,1.9,0,0,1,2.665-1.391c.258.083.507.193.78.3.089-1.495-.146-1.865-1.483-1.991a3.843,3.843,0,0,0-1.755.3,15.845,15.845,0,0,0-1.842,1.1,3.94,3.94,0,0,1-3.695.443c-1.821-.777-2.016-2.5-.42-3.667.5-.369,1.044-.689,1.667-1.1-1.467-1.579-1.409-3.245-.476-5.076L1047.3,602c.114.291.151.422.212.539,1.169,2.236.815,3.727-1.241,5.174-.556.392-1.132.757-1.681,1.158s-.678.773-.221,1.432a2.173,2.173,0,0,1,.305,1.718,1.516,1.516,0,0,1-1.911.8,14.071,14.071,0,0,1-1.9-.724c-.926-.381-1.824-.843-2.776-1.137-.339-.1-1.136.148-1.149.288-.1,1.1-.054,2.222-.054,3.431,1.716-.481,3.208-.835,4.724-.116,1.562.74,1.8,2.4,2.54,3.672,1.521-.3,2.19.136,2.308,1.614.1,1.194.019,2.4.019,3.666Zm-4.885-11.895c-1.036-2.139-.882-2.88.922-4.162.467-.332.981-.6,1.418-.969a4.609,4.609,0,0,0,.995-1.1c.57-.941,0-1.688-.5-2.449-.479-.725-1.084-.663-1.787-.434a10.739,10.739,0,0,0-5.991,4.634,21.811,21.811,0,0,0-1.041,2.115Zm6.265,11.764a10.369,10.369,0,0,0,7.02-4.816,16.465,16.465,0,0,0,1.506-3.755c.28-.94-.531-1.34-1.267-1.548-.792-.224-.793.466-.944.974a2.18,2.18,0,0,1-1.653,1.662.892.892,0,0,0-.579.563c-.271,2.17-.681,2.631-2.919,3.125-1.34.3-1.616.631-1.506,1.991A17.589,17.589,0,0,0,1049.588,623.386Zm8.084-14.248a10.62,10.62,0,0,0-5.629-6.09.9.9,0,0,0-.82.322,2.5,2.5,0,0,0,.165,2.814c.893,1.281.685,2.012-.646,2.805a6.365,6.365,0,0,0-.91.561c-.227.194-.569.549-.512.711a1.468,1.468,0,0,0,.726.672,2.388,2.388,0,0,0,2.512-.439C1054.072,609.478,1055.593,608.576,1057.672,609.138Zm-20.371,6.784c.82,3.559,4.676,7.08,7.81,7.228v-3.561c-1.907.049-1.9.048-2.592-1.68-.119-.3-.263-.587-.408-.874a2.48,2.48,0,0,0-2.867-1.53C1038.613,615.595,1037.994,615.771,1037.3,615.922Z" transform="translate(-17.915 -138.168)" fill="#fef8e6" stroke="#fef8e6" stroke-width="0.5"/>
        <path id="Trazado_1328329" data-name="Trazado 1328329" d="M1056.877,733.5h-7.42c-.287,0-.626.088-.848-.034a4.716,4.716,0,0,1-.86-.783,4.552,4.552,0,0,1,.849-.772c.223-.121.561-.032.848-.032H1064.5c.215,0,.473-.076.636.017a10.672,10.672,0,0,1,1.073.776c-.351.275-.694.776-1.055.789-2.076.077-4.156.039-6.235.04Z" transform="translate(-27.586 -241.06)" fill="#fef8e6" stroke="#fef8e6" stroke-width="0.5"/>
        <path id="Trazado_1328330" data-name="Trazado 1328330" d="M1064.321,750.93c-1.932,0-3.864,0-5.8,0-.651,0-1.322-.06-1.292-.893.027-.757.673-.8,1.28-.8q5.9.008,11.807,0c.65,0,1.322.051,1.291.89-.028.758-.672.8-1.279.8C1068.328,750.926,1066.324,750.929,1064.321,750.93Z" transform="translate(-35.027 -254.708)" fill="#fef8e6" stroke="#fef8e6" stroke-width="0.5"/>
        <path id="Trazado_1328331" data-name="Trazado 1328331" d="M1071.054,768.355c-1.394,0-2.792.053-4.181-.036-.37-.024-.712-.485-1.067-.745.347-.279.688-.791,1.041-.8q4.288-.1,8.579,0a1.335,1.335,0,0,1,1.013.783c.107.7-.508.806-1.095.8C1073.914,768.349,1072.484,768.355,1071.054,768.355Z" transform="translate(-41.756 -268.428)" fill="#fef8e6" stroke="#fef8e6" stroke-width="0.5"/>
        <path id="Trazado_1328332" data-name="Trazado 1328332" d="M1180.014,701.923c0,1.207-.006,2.274,0,3.341,0,.576-.062,1.173-.769,1.186-.758.015-.864-.59-.863-1.217q.008-6.45,0-12.9c0-.6-.1-1.332.794-1.362.923-.031.814.7.835,1.308.006.174.027.348.053.667h1.168q4.784,0,9.569,0c1.319,0,1.464.153,1.468,1.5q.008,3.011,0,6.022c0,1.244-.192,1.442-1.429,1.446-3.19.009-6.379,0-9.569,0Zm.057-1.746h10.464v-5.455h-10.464Z" transform="translate(-130.106 -208.977)" fill="#fef8e6" stroke="#fef8e6" stroke-width="0.5"/>
      </g>
    </g>
  </g>
</svg>
