<svg xmlns="http://www.w3.org/2000/svg" width="127" height="127" viewBox="0 0 127 127">
  <g id="Grupo_1207849" data-name="Grupo 1207849" transform="translate(-896 -8263)">
    <g id="Grupo_1207731" data-name="Grupo 1207731" transform="translate(0 62)">
      <g id="Grupo_1207190" data-name="Grupo 1207190" transform="translate(394.6 1102.658)">
        <circle id="Elipse_13775" data-name="Elipse 13775" cx="63.5" cy="63.5" r="63.5" transform="translate(501.4 7098.342)" fill="#fbe49d"/>
        <circle id="Elipse_13776" data-name="Elipse 13776" cx="52" cy="52" r="52" transform="translate(513.4 7110.342)" fill="#3b4b68"/>
      </g>
      <g id="Grupo_1207728" data-name="Grupo 1207728" transform="translate(-320.662 7711.462)">
        <path id="Trazado_1328354" data-name="Trazado 1328354" d="M1302.188,522.374c1.706,0,3.349-.044,4.987.028a1.792,1.792,0,0,1,1.336.611,1.545,1.545,0,0,1-.262,1.419c-1.549,1.608-1.5,3.091.015,4.688a1.526,1.526,0,0,1,.234,1.417,1.84,1.84,0,0,1-1.356.553c-1.636.065-3.275.025-4.967.025-.018.388-.033.693-.053,1.133,1.547,0,3.054,0,4.56,0a6.971,6.971,0,0,1,1.042.023,1.047,1.047,0,0,1,.809,1.621c-.443.764-1.006,1.46-1.432,2.233a1.191,1.191,0,0,0,0,.981c.388.721.9,1.371,1.331,2.072.59.967.156,1.775-.985,1.794-1.734.03-3.469.008-5.257.008v1.138c1.669,0,3.309-.047,4.943.028a1.933,1.933,0,0,1,1.406.628,1.554,1.554,0,0,1-.314,1.413c-1.511,1.582-1.448,3.039.024,4.605a1.53,1.53,0,0,1,.271,1.413,2,2,0,0,1-1.427.621c-1.606.075-3.218.028-4.959.028V552q0,16.039,0,32.078c0,1.53-.247,1.788-1.739,1.788q-20.879,0-41.758,0c-4.258,0-7.005-2.759-7.006-7.008q-.006-25.814,0-51.628c0-4.258,2.74-7.017,6.994-7.02q20.642-.014,41.284,0C1302.008,520.206,1302.015,520.214,1302.188,522.374Zm-2.359,50.295V522.456H1260.44v50.213Zm.036,2.293h-25.927q-7.83,0-15.661,0a4.166,4.166,0,0,0-3.94,2.335,4.366,4.366,0,0,0,4.1,6.4q20.359.021,40.718,0c.238,0,.476-.046.759-.076-.023-.376-.041-.678-.064-1.056h-39.623c-.285,0-.57,0-.854,0-.666-.019-1.1-.324-1.11-1.025-.016-.744.407-1.089,1.128-1.1.316-.006.633,0,.949,0h39.513V578.2h-39.694c-1.457,0-1.922-.271-1.9-1.1.02-.8.462-1.045,1.864-1.045h39.746Zm-41.687-2.5V522.426a4.256,4.256,0,0,0-4.323,4.385q-.021,23.341,0,46.682a3.111,3.111,0,0,0,.066.528Zm47.124-33.7.3-.134c-1.652-1.35-1.456-2.712,0-4.133h-3.426v4.267Zm.042-9.831c0-.048-.077-4.275-.077-4.27H1302.2v4.27Zm.357,19.672c-1.81-1.462-1.493-2.871-.112-4.279h-3.384v4.279Z" transform="translate(0 0)" fill="#fef8e6"/>
        <path id="Trazado_1328355" data-name="Trazado 1328355" d="M1327.2,543.329q6.643,0,13.285,0a3.883,3.883,0,0,1,4.256,4.226q.008,13.285,0,26.57a3.873,3.873,0,0,1-4.2,4.192q-13.38.007-26.76,0c-2.647,0-4.16-1.525-4.16-4.184q0-13.332,0-26.665a3.775,3.775,0,0,1,4.107-4.138C1318.212,543.323,1322.7,543.33,1327.2,543.329Zm15.29,17.551q0-6.645,0-13.29c0-1.53-.582-2.115-2.111-2.116q-13.243,0-26.485,0c-1.491,0-2.125.635-2.126,2.141q-.008,13.195,0,26.39c0,1.537.6,2.155,2.106,2.157q13.29.01,26.58,0c1.517,0,2.035-.547,2.037-2.086Q1342.49,567.478,1342.485,560.88Z" transform="translate(-46.978 -18.732)" fill="#fef8e6"/>
        <path id="Trazado_1328356" data-name="Trazado 1328356" d="M1357.5,735.383c1.957-3.576,5.181-4.613,8.873-4.73,1.135-.036,1.493.329,1.469,1.457-.079,3.825-1.172,7.141-4.9,8.927a13.22,13.22,0,0,1-8.071.887c-5.654-.953-7.672-4.792-7.848-9.793-.038-1.09.384-1.472,1.482-1.486C1352.388,730.6,1354.783,731.846,1357.5,735.383Zm-1.943,2.548.257-.264a6.049,6.049,0,0,0-6.483-4.641c.232,3.6,2.162,6.122,5.106,6.422-.588-.537-1.066-.949-1.516-1.39-.52-.509-.7-1.1-.106-1.649a1.077,1.077,0,0,1,1.668.14C1354.876,736.981,1355.2,737.468,1355.559,737.931Zm5.042,1.391c3.183-.642,5.361-3.642,4.87-6.37-3.088-.094-6.429,2.4-6.238,5.008.5-.6.83-1.063,1.228-1.46a1.1,1.1,0,1,1,1.537,1.55C1361.549,738.492,1361.068,738.9,1360.6,739.322Z" transform="translate(-77.285 -170.482)" fill="#fef8e6"/>
        <path id="Trazado_1328357" data-name="Trazado 1328357" d="M1345.8,566.445a13.118,13.118,0,1,1-13.166,13.107A13.167,13.167,0,0,1,1345.8,566.445Zm-4.361,3.263c1.026,0,2.056-.057,3.077.021a4.835,4.835,0,0,1,1.893.481,3.122,3.122,0,0,1,1.521,3.4,3.24,3.24,0,0,1-3.158,2.652c-1.8.057-3.606.02-5.41.024-.7,0-1.182.3-1.2,1.041s.431,1.036,1.13,1.127c2.071.268,3.349,1.689,3.208,3.517a3.387,3.387,0,0,1-3.663,3.084c-.777.007-1.554,0-2.376,0,1.629,3.688,7.568,6.4,11.2,5.171-1.363-.9-2.18-2.086-1.749-3.757.565-2.194,2.271-2.664,4.293-2.524a5.079,5.079,0,0,1,1.83-4.384c1.354-1.146,3-1.134,4.709-1.146l-.386-1.96c-2.821,1.29-4.713,1.152-6.1-.578a5.761,5.761,0,0,1-1.068-2.363,4.291,4.291,0,0,1,1.352-3.833A10.161,10.161,0,0,0,1341.438,569.708Zm-6.131,13.1c1.268,0,2.4-.01,3.538,0,.731.009,1.372-.125,1.422-1.006s-.532-1.075-1.281-1.168a3.288,3.288,0,1,1,.451-6.561c1.642-.012,3.285-.007,4.927,0,.74,0,1.337-.184,1.394-1.054.048-.734-.435-1.128-1.4-1.135-1.927-.013-3.854-.024-5.78.014a1.454,1.454,0,0,0-.972.413A10.839,10.839,0,0,0,1335.307,582.809Zm21.382-2.013c-3.179-.6-4.687.883-4.018,3.846a1.068,1.068,0,0,1-1.113,1.45c-.819.036-1.642-.01-2.46.032a1.088,1.088,0,0,0,0,2.176,17.693,17.693,0,0,0,1.892.009c.525-.021,1.191.089,1.548-.183A10.45,10.45,0,0,0,1356.689,580.8Zm-3.138-5.578a6.842,6.842,0,0,0,.824-.256c.95-.416,1.071-.8.433-1.62-.538-.692-1.163-1.315-1.74-1.977-.4-.455-.757-.33-1.1.049a2.077,2.077,0,0,0-.532,2.331A2.387,2.387,0,0,0,1353.551,575.217Z" transform="translate(-65.63 -37.46)" fill="#fef8e6"/>
      </g>
    </g>
  </g>
</svg>
