<svg xmlns="http://www.w3.org/2000/svg" width="127" height="127" viewBox="0 0 127 127">
  <g id="Grupo_1207844" data-name="Grupo 1207844" transform="translate(-738.26 -4619.287)">
    <g id="Grupo_1207806" data-name="Grupo 1207806">
      <g id="Grupo_1207190" data-name="Grupo 1207190" transform="translate(236.859 -2479.055)">
        <circle id="Elipse_13775" data-name="Elipse 13775" cx="63.5" cy="63.5" r="63.5" transform="translate(501.4 7098.342)" fill="#83433e"/>
        <circle id="Elipse_13776" data-name="Elipse 13776" cx="52" cy="52" r="52" transform="translate(513.4 7110.342)" fill="#cdb3b1"/>
      </g>
      <g id="Grupo_1207622" data-name="Grupo 1207622" transform="translate(-371.3 3973.156)">
        <path id="Trazado_1328028" data-name="Trazado 1328028" d="M1173.183,677.81h32.543a7.651,7.651,0,0,1,.934.022,1.1,1.1,0,0,1,1.053,1.1c.022.216.008.436.008.654q0,11.736,0,23.472c0,.125,0,.25,0,.374-.032.971-.388,1.347-1.377,1.361-1.5.021-2.992.006-4.489.007a10.893,10.893,0,0,1-1.308-.01,1.852,1.852,0,0,0-1.793.735,9,9,0,0,1-.988.993,1.1,1.1,0,0,1-1.729,0,11.829,11.829,0,0,1-1.12-1.126,1.734,1.734,0,0,0-1.477-.6q-8.416.027-16.833,0a1.822,1.822,0,0,0-1.549.65,11.706,11.706,0,0,1-.987.994c-.722.675-1.19.664-1.929-.028a.467.467,0,0,1-.067-.065c-.927-1.341-2.206-1.606-3.791-1.574-5.048.1-10.1.054-15.149.02a2.235,2.235,0,0,0-2.036.834,6.41,6.41,0,0,1-.854.862,1.137,1.137,0,0,1-1.8.014,1.748,1.748,0,0,1-.266-.262,3.5,3.5,0,0,0-3.46-1.46c-1.485.13-2.99.032-4.486.027-1.426,0-1.714-.286-1.714-1.683q0-11.783,0-23.566c0-1.466.277-1.745,1.75-1.745Q1156.724,677.808,1173.183,677.81Zm-23.746,26.563,1.054-1.194a1.646,1.646,0,0,1,1.325-.556q9.394.016,18.789,0a1.776,1.776,0,0,1,1.4.606c.351.379.739.723,1.119,1.091a6.285,6.285,0,0,0,.675-.655,2.8,2.8,0,0,1,2.527-1.054c5.7.043,11.4.055,17.106-.006a3.313,3.313,0,0,1,3.008,1.262,4.162,4.162,0,0,0,.6.514c.3-.356.592-.681.861-1.023a2.018,2.018,0,0,1,1.812-.739c1.338.044,2.679.013,4.019.013h1.732V680.064h-64.718V702.63c1.6,0,3.148-.009,4.7,0,2.608.019,1.874-.244,3.584,1.411C1149.112,704.124,1149.211,704.192,1149.437,704.373Z" transform="translate(-0.056)" fill="#262626"/>
        <path id="Trazado_1328029" data-name="Trazado 1328029" d="M1157.375,857.373a8.872,8.872,0,0,1-3.724,4.415v2.273c.647,0,1.259-.005,1.87,0a4.375,4.375,0,0,1,4.588,4.583c.013.9.017,1.808,0,2.711-.019.831-.47,1.348-1.116,1.339s-1.061-.521-1.074-1.374c-.014-.935.01-1.87-.007-2.8a2.138,2.138,0,0,0-2.28-2.286c-2.677-.072-2.677-.072-4.914,1.411-.234.155-.475.3-.705.458a1.194,1.194,0,0,1-1.474,0c-.748-.506-1.484-1.033-2.263-1.487a2.913,2.913,0,0,0-1.207-.366,20.688,20.688,0,0,0-2.242-.011,2.108,2.108,0,0,0-2.177,2.188c-.024.872,0,1.745-.008,2.618a3.933,3.933,0,0,1-.044.744,1.039,1.039,0,0,1-1.036.9,1,1,0,0,1-1.066-.965,24.908,24.908,0,0,1,.079-4.1,4.167,4.167,0,0,1,4.183-3.555c.706-.025,1.414,0,2.171,0V861.84c-.176-.127-.4-.285-.621-.448a8.339,8.339,0,0,1-3.654-6.908c-.034-2.9-.026-5.8,0-8.695a4.271,4.271,0,0,1,3.369-4.264,3.284,3.284,0,0,0,1.012-.43,8.97,8.97,0,0,1,9.877-.681,9.348,9.348,0,0,1,5.184,8.5c.093,3.488.021,6.98.021,10.471a2.64,2.64,0,0,1-.015.373,1.091,1.091,0,0,1-2.18-.031c-.106-.8-.208-1.591-.311-2.386Zm.254-3.834.264-.193c0-1.65.075-3.305-.031-4.948a7.891,7.891,0,0,0-.672-2.6,7.2,7.2,0,0,0-10.594-3.129,1.221,1.221,0,0,0-.549.756c-.048,1.525-.06,3.055,0,4.579a2.067,2.067,0,0,0,2.057,2.018c.839.045,1.683.006,2.523.032a9.51,9.51,0,0,1,6.6,2.863A3.358,3.358,0,0,1,1157.629,853.538Zm-14.818-1.43a9.187,9.187,0,0,0,.68,5.149,6.461,6.461,0,0,0,6.666,3.5,6.562,6.562,0,0,0,5.5-5.159,1.615,1.615,0,0,0-.694-1.838,8.115,8.115,0,0,0-5.266-1.557c-1.75.069-3.449,0-4.715-1.426-.386.288-.7.553-1.038.764S1143.222,851.9,1142.81,852.108Zm6.429,13.855c2.29-1.293,2.416-1.493,2.056-3.173a18.379,18.379,0,0,1-2.031.2,20.207,20.207,0,0,1-2.1-.215,1.869,1.869,0,0,0,1.034,2.522A7.874,7.874,0,0,1,1149.239,865.963Zm-6.472-16.259a1.9,1.9,0,0,0,1.078-1.607c.063-1.347.02-2.7.02-4.147a1.887,1.887,0,0,0-1.082,1.711C1142.727,846.959,1142.767,848.261,1142.767,849.7Z" transform="translate(0 -131.242)" fill="#262626"/>
        <path id="Trazado_1328030" data-name="Trazado 1328030" d="M1407.65,868.894c.792,0,1.443-.012,2.093,0a4.326,4.326,0,0,1,4.421,4.446c.013.966.016,1.932,0,2.9-.015.792-.432,1.277-1.056,1.29a1.133,1.133,0,0,1-1.108-1.243c-.029-.965,0-1.932-.014-2.9a2.142,2.142,0,0,0-2.329-2.324c-.5-.009-1,.031-1.5-.01a1.934,1.934,0,0,0-1.82.674,1.037,1.037,0,0,1-1.433.22,1.825,1.825,0,0,1-.165-.087,2.288,2.288,0,0,0-2.818-.008c-.807.482-1.056.406-1.717-.279a1.545,1.545,0,0,0-1.316-.521c-.59.037-1.184,0-1.776.01a2.166,2.166,0,0,0-2.4,2.445c-.007.935.006,1.87-.006,2.8a1.119,1.119,0,0,1-.776,1.154.991.991,0,0,1-1.342-.791,12.827,12.827,0,0,1,.193-4.82,4.213,4.213,0,0,1,4.012-2.957c.708-.026,1.417,0,2.171,0v-2.261a8.4,8.4,0,0,1-3.74-4.583,12.9,12.9,0,0,1-.494-2.831c-.083-1.051-.019-2.114-.019-3.21-.955-.249-1.159-.927-1.123-1.788a9.211,9.211,0,0,1,18.271-1.481,14.8,14.8,0,0,1,.12,2.61c.016,1.34.022,2.681-.005,4.02a8.123,8.123,0,0,1-3.49,6.7,1.716,1.716,0,0,0-.843,1.758C1407.678,868.129,1407.65,868.438,1407.65,868.894ZM1396.9,856.209c0,1.273-.053,2.364.011,3.447a6.414,6.414,0,0,0,4.967,5.823,6.5,6.5,0,0,0,7.243-3.329c.957-1.838.727-3.81.735-5.759a.721.721,0,0,0-.139-.33c-1.045-1.733-2.208-2.126-4.1-1.356a19.24,19.24,0,0,1-5.939,1.5C1398.786,856.26,1397.888,856.209,1396.9,856.209Zm-.962-2.318c.232.037.474.088.718.113a17.612,17.612,0,0,0,8.9-1.584.85.85,0,0,0,.405-.345c.5-.988.976-1.988,1.446-2.958a6.869,6.869,0,0,0-7.812-1C1397.393,849.221,1395.737,851.812,1395.933,853.891Zm5.368,13.817v2.179a2.836,2.836,0,0,1,4.054-.055,4.892,4.892,0,0,0,.151-2.124Zm8.208-14.915.152-.127-.614-1.545-.21,0-.5,1.1Z" transform="translate(-206.502 -136.075)" fill="#262626"/>
        <path id="Trazado_1328031" data-name="Trazado 1328031" d="M1280.772,868.891c.763,0,1.412-.01,2.062,0a4.378,4.378,0,0,1,4.476,4.51c.013.872,0,1.745,0,2.617,0,.094,0,.187,0,.28-.059.754-.517,1.244-1.142,1.225a1.139,1.139,0,0,1-1.066-1.2c-.033-.934-.006-1.869-.012-2.8a2.168,2.168,0,0,0-2.464-2.461c-.467,0-.937.027-1.4-.007a1.828,1.828,0,0,0-1.735.644,1.045,1.045,0,0,1-1.505.22,2.322,2.322,0,0,0-2.979-.028,1.124,1.124,0,0,1-1.652-.281,1.527,1.527,0,0,0-1.4-.557c-.621.04-1.246,0-1.869.012a2.1,2.1,0,0,0-2.236,2.216c-.017.872,0,1.745-.005,2.617a3.623,3.623,0,0,1-.028.652,1.134,1.134,0,0,1-1.087.975,1.056,1.056,0,0,1-1.067-.983,23.713,23.713,0,0,1,.156-4.275,4.1,4.1,0,0,1,4.135-3.369c.684-.022,1.369,0,2.131,0v-2.267a8.535,8.535,0,0,1-4.131-6,16.117,16.117,0,0,1-.1-2.516c-.014-1.5.011-2.992-.005-4.487a8.63,8.63,0,0,1,17.12-1.357,17.067,17.067,0,0,1,.119,2.609c.017,1.464.012,2.929,0,4.394a8.172,8.172,0,0,1-3.551,6.854,1.537,1.537,0,0,0-.771,1.6A10.3,10.3,0,0,1,1280.772,868.891Zm2.214-10.549c0-.579.018-1.016,0-1.452a1.9,1.9,0,0,0-2.125-1.586,14.168,14.168,0,0,1-8.287.09,1.758,1.758,0,0,0-2.281.747,1.713,1.713,0,0,0-.321.822,23.418,23.418,0,0,0,0,2.43,6.517,6.517,0,0,0,5.051,6.088,6.446,6.446,0,0,0,7.309-3.547A7.321,7.321,0,0,0,1282.987,858.342Zm-.185-5.172a6.278,6.278,0,0,0-6.749-5.832c-3.2.2-6.233,3.226-5.843,5.759a1.384,1.384,0,0,1,1.574-.183,12.571,12.571,0,0,0,9.279.031A1.5,1.5,0,0,1,1282.8,853.17Zm-8.258,16.611c1.274-1.075,2.59-1.048,4.008.115v-2.183h-4.17A3.053,3.053,0,0,0,1274.544,869.781Z" transform="translate(-103.408 -136.072)" fill="#262626"/>
        <path id="Trazado_1328032" data-name="Trazado 1328032" d="M1294.3,717c-3.057-.8-4.914-2.623-5.313-5.67a9.613,9.613,0,0,1,.289-3.128,12.131,12.131,0,0,1,2.451-5.18,7.526,7.526,0,0,1,1.186-1.182,3.675,3.675,0,0,1,5.021.048,10.433,10.433,0,0,1,1.825,2.1,12.822,12.822,0,0,1,2.012,5.274c.591,3.763-1.392,6.716-5.257,7.718,0,.3.016.63,0,.961-.045.791-.453,1.248-1.095,1.254s-1.071-.451-1.114-1.229C1294.283,717.661,1294.3,717.352,1294.3,717Zm-.056-2.375c.018-.212.051-.421.052-.63.005-1.4-.008-2.8.008-4.2.01-.863.416-1.322,1.108-1.318s1.075.466,1.1,1.334c.015.466,0,.934,0,1.4,0,1.138,0,2.276,0,3.437a3.951,3.951,0,0,0,3.169-3.768,10.128,10.128,0,0,0-2.761-7.035,1.817,1.817,0,0,0-3.056.016,10.068,10.068,0,0,0-2.734,7.136A3.894,3.894,0,0,0,1294.241,714.626Z" transform="translate(-122.347 -18.753)" fill="#262626"/>
        <path id="Trazado_1328033" data-name="Trazado 1328033" d="M1176.8,735.5q3.736,0,7.472,0a3.134,3.134,0,0,1,.743.035,1.073,1.073,0,0,1,.01,2.108,3.373,3.373,0,0,1-.743.046q-7.566,0-15.131,0a3.232,3.232,0,0,1-.741-.055,1.069,1.069,0,0,1-.01-2.084,3.147,3.147,0,0,1,.835-.049Q1173.02,735.5,1176.8,735.5Z" transform="translate(-23.682 -46.899)" fill="#262626"/>
        <path id="Trazado_1328034" data-name="Trazado 1328034" d="M1390.67,735.513q3.783,0,7.566,0c1.1,0,1.615.37,1.592,1.122-.021.711-.525,1.066-1.561,1.067q-7.612.006-15.224,0a2.909,2.909,0,0,1-.74-.064,1.067,1.067,0,0,1-.029-2.056,2.9,2.9,0,0,1,.831-.066Q1386.887,735.509,1390.67,735.513Z" transform="translate(-197.598 -46.912)" fill="#262626"/>
        <path id="Trazado_1328035" data-name="Trazado 1328035" d="M1176.623,754.948q-3.736,0-7.473,0c-1.091,0-1.611-.378-1.589-1.13.021-.717.518-1.067,1.559-1.068q7.613-.005,15.226,0a2.871,2.871,0,0,1,.65.04,1.078,1.078,0,0,1,.029,2.115,3.289,3.289,0,0,1-.835.043Q1180.406,754.95,1176.623,754.948Z" transform="translate(-23.668 -60.922)" fill="#262626"/>
        <path id="Trazado_1328036" data-name="Trazado 1328036" d="M1390.709,754.949q-3.783,0-7.566,0a2.922,2.922,0,0,1-.834-.053,1.022,1.022,0,0,1-.807-1.108,1,1,0,0,1,.84-.985,3.612,3.612,0,0,1,.835-.051q7.473,0,14.946,0a3.747,3.747,0,0,1,.835.051,1.071,1.071,0,0,1,.057,2.088,2.935,2.935,0,0,1-.833.058Q1394.446,754.953,1390.709,754.949Z" transform="translate(-197.592 -60.924)" fill="#262626"/>
        <path id="Trazado_1328037" data-name="Trazado 1328037" d="M1176.745,718.427q3.779,0,7.559,0a3.451,3.451,0,0,1,.834.049.938.938,0,0,1,.734,1.048.924.924,0,0,1-.739.951,3.2,3.2,0,0,1-.742.046q-7.652,0-15.3,0c-.155,0-.312.007-.466-.006a1.014,1.014,0,0,1-1.068-1.046.99.99,0,0,1,1.074-1.035c1.337-.027,2.675-.01,4.013-.011Z" transform="translate(-23.663 -33.019)" fill="#262626"/>
        <path id="Trazado_1328038" data-name="Trazado 1328038" d="M1390.6,720.535c-2.613,0-5.226.006-7.839,0-.821,0-1.2-.309-1.254-.94a.976.976,0,0,1,.86-1.129,4.745,4.745,0,0,1,.745-.023q7.559,0,15.118,0a4.487,4.487,0,0,1,.745.027.98.98,0,0,1,.847,1.057.95.95,0,0,1-.825.98,5.066,5.066,0,0,1-.837.032Q1394.375,720.537,1390.6,720.535Z" transform="translate(-197.59 -33.028)" fill="#262626"/>
        <path id="Trazado_1328039" data-name="Trazado 1328039" d="M1195.761,772.417q-1.818,0-3.636,0c-.484,0-.915-.185-1-.657a1.69,1.69,0,0,1,.207-1.1,1.08,1.08,0,0,1,.81-.327q3.729-.036,7.458-.007a1.044,1.044,0,1,1-.013,2.082C1198.309,772.435,1197.034,772.418,1195.761,772.417Z" transform="translate(-42.805 -75.206)" fill="#262626"/>
        <path id="Trazado_1328040" data-name="Trazado 1328040" d="M1409.809,770.294c1.181,0,2.362-.013,3.542.005.744.011,1.188.4,1.21,1.009.023.634-.45,1.074-1.237,1.079-2.424.013-4.848,0-7.271.006-.468,0-.921-.1-1.06-.579a1.326,1.326,0,0,1,.071-1.03,1.5,1.5,0,0,1,1.016-.469C1407.322,770.26,1408.566,770.294,1409.809,770.294Z" transform="translate(-216.637 -75.179)" fill="#262626"/>
      </g>
    </g>
  </g>
</svg>
