<svg xmlns="http://www.w3.org/2000/svg" width="104" height="119.957" viewBox="0 0 104 119.957">
  <g id="Grupo_1207850" data-name="Grupo 1207850" transform="translate(-628.746 -3447)">
    <g id="Grupo_1207602" data-name="Grupo 1207602">
      <circle id="Elipse_13777" data-name="Elipse 13777" cx="52" cy="52" r="52" transform="translate(628.746 3447)" fill="#fbe49d"/>
      <g id="Grupo_1207585" data-name="Grupo 1207585" transform="translate(214.727 3211.819)">
        <path id="Trazado_1327867" data-name="Trazado 1327867" d="M427.434,349.573h8.572q9.09,0,18.18,0c.42,0,.938-.118,1.236.081.433.289.963.81.974,1.245s-.5.979-.914,1.285c-.286.209-.811.112-1.23.113q-13.256.007-26.513,0c-2.457,0-3.159-.7-3.159-3.144q0-23.672,0-47.344c0-2.393.685-3.083,3.058-3.092.793,0,1.585,0,2.582,0,0-1.815,0-3.521,0-5.227,0-2.616.66-3.265,3.3-3.266,1.094,0,2.188.015,3.282,0,.907-.015,1.511.406,1.537,1.3.029.965-.6,1.422-1.552,1.426-1.216,0-2.433,0-3.745,0v39.676h28.411c4.172,0,4.9.22,8.351,2.579V329.64A23.511,23.511,0,0,1,460.561,327a3.088,3.088,0,0,0-1.357-.147q-7.575-.014-15.15-.006c-.337,0-.673,0-1.01,0a1.291,1.291,0,0,1-1.434-1.284,1.319,1.319,0,0,1,1.429-1.425c.588-.028,1.178-.013,1.767-.013h11.219c-1.448-1.9-2.808-3.73-4.243-5.5-.2-.244-.767-.254-1.166-.255-4.25-.017-8.5,0-12.751-.028a2.432,2.432,0,0,1-1.5-.416,1.41,1.41,0,0,1-.283-1.333,1.907,1.907,0,0,1,1.331-.869c2.649-.084,5.3-.044,7.952-.045h4.84l-1.494-5.767H438.4c-1.814,0-2.536-.4-2.425-1.429.168-1.553,1.4-1.292,2.421-1.3,3.36-.012,6.72,0,10.122,0l.775-5.775h-9.275c-.842,0-1.683,0-2.525,0-.88,0-1.5-.356-1.518-1.3-.021-1.024.633-1.375,1.567-1.374,3.829,0,7.66-.034,11.488.023a1.656,1.656,0,0,0,1.79-1.122c.74-1.542,1.684-2.986,2.659-4.67h-1.849q-3.788,0-7.575,0c-.989,0-1.835-.261-1.8-1.429.031-1.088.841-1.307,1.784-1.3,3.7.014,7.407.041,11.109-.027a3.638,3.638,0,0,0,2.025-.708,23.132,23.132,0,0,1,8.774-4.274c.864-.21,1.237-.493,1.137-1.4a19.519,19.519,0,0,1-.014-2.078l-1.191-.084c-1.291-.088-1.72-.761-1.465-2.028a1.714,1.714,0,0,0-.434-1.208c-2.658-3.21-3.35-6.773-1.663-10.592a9.832,9.832,0,0,1,17.848-.268c1.826,3.82,1.221,7.448-1.451,10.713-.429.524-.831.852-.488,1.7.361.886-.269,1.513-1.205,1.664a10.5,10.5,0,0,1-1.469.011c0,1-.041,1.948.032,2.887.016.212.4.511.667.57a23.718,23.718,0,0,1,9.547,4.664,2.788,2.788,0,0,0,1.614.444c7.238.028,14.477.018,21.715.019,2.608,0,3.246.655,3.254,3.31q.007,2.4.033,4.8c0,.076.065.152.173.388.883,0,1.84-.014,2.8,0,1.8.031,2.618.839,2.632,2.629.018,2.441,0,4.882,0,7.322q0,20.2,0,40.4c0,2.544-.674,3.225-3.207,3.225q-18.559,0-37.117-.013a2.56,2.56,0,0,0-2.257.959,5.478,5.478,0,0,1-8.328-.055,2.205,2.205,0,0,0-2.026-.906c-1.09.065-2.187.018-3.282.012-.922-.005-1.6-.37-1.587-1.38s.688-1.352,1.618-1.346c1.6.01,3.2.031,4.8-.009a2.2,2.2,0,0,1,2.073,1.153c1.433,2.235,3.77,2.277,5.148.068a2.5,2.5,0,0,1,2.417-1.225q18.685.033,37.37.014h1.5V301.479h-2.756v1.684q0,20.074,0,40.148c0,2.653-.645,3.312-3.252,3.312q-37.812,0-75.624,0c-2.631,0-3.275-.648-3.275-3.288q0-20.074,0-40.147v-1.7h-2.787Zm43.809-22.658A19.83,19.83,0,1,0,451.373,307,19.885,19.885,0,0,0,471.243,326.915Zm22.835-19.74h1.211q4.922,0,9.844,0c.886,0,1.482.412,1.491,1.341s-.576,1.355-1.462,1.375-1.767.009-2.651.009h-8.635l-1.491,5.766h1.476c3.7,0,7.405-.025,11.107.033a2.13,2.13,0,0,1,1.461.7,1.377,1.377,0,0,1-.071,1.356,2.392,2.392,0,0,1-1.543.571c-3.491.048-6.991.16-10.473-.023-2.283-.12-4.024.215-5.115,2.486a12.485,12.485,0,0,1-2.128,2.477c-.2.227-.389.463-.716.852h12.2q.442,0,.883.006c.9.013,1.517.481,1.518,1.348,0,.936-.637,1.379-1.6,1.377q-8.015-.018-16.029,0a2.823,2.823,0,0,0-1.239.112,23.658,23.658,0,0,1-9.368,2.686v5.759c2.924-2.9,6.411-2.822,9.935-2.8,8.456.054,16.913.018,25.369.018h1.5V293.033H489.178c.935,1.629,1.9,3.149,2.687,4.753a1.414,1.414,0,0,0,1.509.951c3.7-.038,7.4-.017,11.107-.017.981,0,2.051-.1,2.147,1.3.068,1-.562,1.374-2.207,1.375q-4.859,0-9.719,0h-1.4Zm-61.036,28.246v8.416h36.712a6.843,6.843,0,0,0-6.782-8.48c-9.667-.052-19.333-.018-29-.015C433.683,335.342,433.4,335.39,433.041,335.422Zm76.531,8.4v-8.486h-1.308q-14.059,0-28.118,0a14.349,14.349,0,0,0-1.511.062c-3.98.423-6.961,4.814-5.735,8.421Zm-33.895-66.566c2.683-1.751,3.18-5.289,2.379-7.745a7.143,7.143,0,0,0-13.662.542c-.68,2.869.421,5.952,2.559,7.162.946-2.816,2.112-3.9,4.244-3.931C473.421,273.251,474.5,274.209,475.678,277.258Zm-2.936,4.477h-2.86v2.776h2.86Zm.008-2.884c.076-1.074.259-2.12-.791-2.656a1.767,1.767,0,0,0-1.507.137c-.9.61-.7,1.574-.552,2.52Z" fill="#83433e"/>
        <path id="Trazado_1327868" data-name="Trazado 1327868" d="M648.493,461.332c-.5-1.848-.994-3.7-1.5-5.542-.055-.2-.173-.383-.246-.58-.29-.786-.3-1.558.561-1.945.879-.394,1.529,0,1.943.852a16.548,16.548,0,0,1,1.552,9.573,16.959,16.959,0,1,1-33.452-5.5c2.318-12.089,16.964-17.656,26.833-10.2.787.594,1.356,1.3.673,2.217s-1.521.551-2.319-.009c-7.316-5.136-16.639-3.134-20.991,4.5a14.186,14.186,0,1,0,26.64,6.718Z" transform="translate(-162.705 -154.397)" fill="#83433e"/>
        <path id="Trazado_1327869" data-name="Trazado 1327869" d="M673.619,516.213a1.82,1.82,0,0,1-1.855-2.2c.926-3.577,1.881-7.149,2.953-10.684a2.5,2.5,0,0,1,1.546-1.273c3.137-.939,6.323-1.712,9.465-2.635,2.3-.676,3.4.818,2.808,2.733-.982,3.167-1.737,6.4-2.709,9.575a2.588,2.588,0,0,1-1.431,1.53c-3.453,1.048-6.952,1.947-10.436,2.895A3.382,3.382,0,0,1,673.619,516.213Zm5.26-12.049,4.891,4.917,1.833-6.759Zm-2.2,2.125-1.849,6.812,6.76-1.86Z" transform="translate(-208.92 -200.585)" fill="#83433e"/>
      </g>
    </g>
  </g>
</svg>
