<svg xmlns="http://www.w3.org/2000/svg" width="104" height="124.292" viewBox="0 0 104 124.292">
  <g id="Grupo_1207854" data-name="Grupo 1207854" transform="translate(8482.711 8253)">
    <g id="Grupo_1207598" data-name="Grupo 1207598">
      <circle id="Elipse_13777" data-name="Elipse 13777" cx="52" cy="52" r="52" transform="translate(-8482.711 -8253)" fill="#fbe49d"/>
      <g id="Grupo_1207589" data-name="Grupo 1207589" transform="translate(-9270.618 -8754.753)">
        <path id="Trazado_1327906" data-name="Trazado 1327906" d="M863.982,585.389c2.2.453,4.324.835,6.422,1.338,5.187,1.245,8.176,4.71,8.576,10.005a51.14,51.14,0,0,1,.016,5.344,9.048,9.048,0,0,1-2.141,5.587,27.175,27.175,0,0,1,3.766.789,9.04,9.04,0,0,1-2.939,17.556c-6.281.068-12.564.022-18.846.023-6.876,0-13.753.016-20.629-.006a9.073,9.073,0,0,1-.917-18.118c.408-.021.816-.046,1.4-.078-3.062-3.926-2.442-8.322-2-12.584a10.137,10.137,0,0,1,7.855-8.408c2.307-.525,4.633-.966,6.928-1.44.377-2.186.373-2.178-1.316-3.159a9.257,9.257,0,0,1-4.638-7.53,19.5,19.5,0,0,1-2.908-1.025,5.614,5.614,0,0,1-3.05-4.567,1.381,1.381,0,0,0-1.1-1.4,11.241,11.241,0,0,1-6.15-4.883,1.241,1.241,0,0,0-1.537-.659,12.089,12.089,0,1,1-3.441-23.925,34.886,34.886,0,0,1,4.554.216,1.532,1.532,0,0,0,1.05-.258c4.823-5.088,9.929-5.974,16.26-2.719a12.293,12.293,0,0,1,17.063.03,12.374,12.374,0,0,1,8.862-1.739,12.226,12.226,0,0,1,7.717,4.865,13.54,13.54,0,0,1,7.969.227,12.138,12.138,0,0,1,7.892,12.5,11.941,11.941,0,0,1-9.7,10.7,40.243,40.243,0,0,1-4.531.1,1.682,1.682,0,0,0-1.187.561,12.571,12.571,0,0,1-6.6,5.143,1.189,1.189,0,0,0-.68.717c-.856,3.956-2.093,5.229-5.922,5.97a31.291,31.291,0,0,1-.885,3.251,8.631,8.631,0,0,1-3.857,4.42C863.66,583.2,863.656,583.2,863.982,585.389Zm.92-24.576c2.259,3.281,5.317,5.051,9.408,4.456s6.4-3.3,7.691-6.988c5.367,1.8,9.28.913,11.925-2.629a9.013,9.013,0,0,0,.174-10.582c-2.655-3.826-6.016-4.546-12.562-2.654a9.411,9.411,0,0,0-7-5.659c-3.41-.615-6.21.682-8.717,3.018-2-2.964-4.594-4.687-8.122-4.681s-6.069,1.808-8,4.574c-7.293-4.76-11.466-4.023-15.852,2.769-4.874-2.208-9.255-1.772-12.57,2.831a8.807,8.807,0,0,0,.107,10.151c2.616,3.7,6.022,4.527,12.134,2.908,1.273,3.74,3.631,6.379,7.742,6.959,4.089.577,7.094-1.3,9.386-4.492C856.234,564.956,858.574,564.956,864.9,560.812Zm-28.25,56.945a6.884,6.884,0,0,1,6.356-3.86c3.819-.047,7.64-.018,11.46-.01,1.3,0,2.65-.2,3.769.769a.641.641,0,0,0,.574.025c2.113-1.089,4.393-.765,6.626-.791,2.377-.028,4.754-.037,7.131,0,2.892.051,5.5,1.755,6.089,3.975l-2.507,1.229c-1.429-2.433-3.674-2.245-5.973-2.025a6.736,6.736,0,0,1,4.392,5.917c1.136,0,2.153.038,3.166-.008a6.051,6.051,0,0,0,5.121-8.862c-1.221-2.35-3.325-3.272-5.9-3.272-12.818,0-25.637-.02-38.455.034a8.064,8.064,0,0,0-3.421.781,5.884,5.884,0,0,0-2.968,6.8,6.02,6.02,0,0,0,5.78,4.517c5.772.031,11.545.012,17.318.009.286,0,.571-.044.916-.073v-5.99h-1.444c-3.481,0-6.962.044-10.441-.017-2.013-.035-3.821.249-4.934,2.2Zm28.626-9.918c1.659,0,3.357.119,5.033-.025a6.04,6.04,0,0,0,5.677-6.2c.026-1.145.006-2.29.006-3.436,0-5.13-2.273-7.816-7.333-8.752-.837-.155-1.268-.074-1.541.88-.743,2.593-1.63,5.145-2.513,7.879l-4.794-3.567c-2.078-1.547-2.076-1.544-4.156.009-1.538,1.148-3.081,2.289-4.7,3.493l-3.291-8.683c-4.124.113-7.437,2.495-7.943,6.1a32.373,32.373,0,0,0-.04,7.475,5.4,5.4,0,0,0,4.869,4.684c2.809.229,5.651.052,8.531.052v-5.876c-2.992-.048-6.109-.865-7.83,2.536l-2.482-2.364c.58-.434,1.077-.825,1.592-1.19A2.88,2.88,0,0,0,845.568,598c-.1-1.21-.022-2.435-.022-3.707h3.12v4.178c2.275.3,4.384.577,6.5.849.077.01.161-.051.244-.06,1.5-.169,2.995-.427,4.5-.481,2.273-.082,4.55-.021,6.967-.021V594.3H869.9c.219,2.892-.94,6.147,2.771,7.772l-2.348,2.244c-1.453-1.3-2.57-3.362-5.042-2.345Zm-7.538-18.675c1.225-1.8,3.507-2.517,3.059-5.064-.369-2.1.657-3.408,2.567-4.287a5.8,5.8,0,0,0,3.488-5.605c.016-1.655-.126-3.324.041-4.962a3.473,3.473,0,0,0-1.812-3.755,1.248,1.248,0,0,0-1.455-.127,11.816,11.816,0,0,1-11.789-.008c-.585-.314-.911-.16-1.451.148a3.4,3.4,0,0,0-1.794,3.759,19.912,19.912,0,0,1,.014,3.688c-.239,3.438,1.056,5.912,4.294,7.316a2.923,2.923,0,0,1,1.8,2.962,17,17,0,0,0,.018,2.035,2.12,2.12,0,0,0,.422,1.115C855.908,587.277,856.748,588.113,857.739,589.165Zm1.538,33.722h12.277a10.351,10.351,0,0,0-.8-1.733,3.389,3.389,0,0,0-3.3-1.211,1.948,1.948,0,0,1-2.205-1.167,3.734,3.734,0,0,0-5.421-1.143,1.3,1.3,0,0,0-.522.878C859.246,619.943,859.277,621.378,859.277,622.887Zm-3.071-15.027c1.637,0,3.114.052,4.584-.019a1.5,1.5,0,0,0,1.494-1.591,11.611,11.611,0,0,0-.051-2.912,2.13,2.13,0,0,0-1.256-1.429,12.7,12.7,0,0,0-3.669-.018,1.573,1.573,0,0,0-1.052,1.083C856.132,604.53,856.206,606.1,856.206,607.86Zm-.846-16.807c-3.126-3.332-2.454-2.961-4.664-2.268l1.674,4.486Zm4.761-.005,2.9,2.164,1.405-4.493C862.7,588.059,863.108,587.858,860.121,591.048Zm-14.643-19.653v-3.272l-2.864.435C842.9,570.453,843.545,571.092,845.478,571.395Zm24.516-.035c1.953-.19,2.823-1.106,2.744-2.852l-2.744-.358Z" transform="translate(-17.84 0)" fill="#83433e"/>
        <path id="Trazado_1327907" data-name="Trazado 1327907" d="M792.818,723.614l9.023.4v-3.336c-.873,0-1.739.006-2.606,0a6.074,6.074,0,0,1-6.452-6.446c-.005-.8,0-1.6,0-2.335H801.9v-3.279c-3.057.063-6.088.167-8.064-2.695-1.339-1.939-1.032-4.114-1.037-6.131h9.1c0-1,.052-2.259-.036-3.51-.022-.313-.45-.662-.769-.881-7.638-5.24-6.895-15.778,1.444-19.876a2.37,2.37,0,0,1,1.845.022c8.306,4.166,8.975,14.63,1.328,19.907a1.96,1.96,0,0,0-.7,1.294c-.1,1.09-.033,2.2-.033,3.148,1.533-.141,2.983-.327,4.44-.392,1.479-.067,2.964-.015,4.581-.015.185,2.668.325,5.216-1.718,7.3-2.006,2.046-4.606,1.836-7.282,1.833v24.016a61.966,61.966,0,0,1-7.461-.063,5.548,5.548,0,0,1-4.7-5.15C792.718,726.263,792.818,725.073,792.818,723.614Zm6.065-37.649a8.11,8.11,0,0,0,3.6,6.727,1.386,1.386,0,0,0,1.826.045,8.34,8.34,0,0,0,.01-13.788,1.388,1.388,0,0,0-1.828.029A8.286,8.286,0,0,0,798.883,685.965Zm6.183,19.484c3.512.415,5.837-.018,5.782-2.86C807.2,702.218,805.222,702.675,805.066,705.45Zm-9.147,21.419c.164,2.9,2.436,3.25,5.856,2.795C801.782,727.02,799.379,726.336,795.919,726.869Zm5.883-21.446c-.1-2.731-2.632-3.366-5.91-2.707C796.228,705.561,798.369,705.841,801.8,705.423Zm0,12.085c-.288-2.911-2.469-3.1-5.877-2.685C796.136,717.7,798.407,717.919,801.806,717.508Z" transform="translate(0 -106.799)" fill="#83433e"/>
        <path id="Trazado_1327908" data-name="Trazado 1327908" d="M1091.3,699.465h9.068c.127,2.42.309,4.984-1.789,7.055-2.036,2.01-4.639,1.733-7.211,1.8v3.242h8.985c.162,2.376.336,4.929-1.707,7.028-2.018,2.073-4.626,1.771-7.245,1.753v3.35l8.927-.411c.225,3.068.383,5.91-2.235,7.847a6.518,6.518,0,0,1-3.11,1.273c-2.181.2-4.392.058-6.737.058v-24.19c-3.133.106-6.158.155-8.087-2.755-1.285-1.938-1.088-4.092-.981-6.059h9.043c0-.981.05-2.243-.035-3.5-.022-.316-.426-.678-.741-.893-7.636-5.22-6.875-15.8,1.426-19.923a1.876,1.876,0,0,1,1.89.033c8.278,4.255,8.95,14.658,1.3,19.953a1.968,1.968,0,0,0-.725,1.283A30.241,30.241,0,0,0,1091.3,699.465Zm3.013-13.885a8.212,8.212,0,0,0-3.625-6.953,1.383,1.383,0,0,0-1.827.01,8.332,8.332,0,0,0,.059,13.784,1.332,1.332,0,0,0,1.723,0A8.173,8.173,0,0,0,1094.316,685.58Zm-12.072,16.708c.349,2.97,2.5,3.2,5.857,2.819C1088.137,702.409,1085.928,701.834,1082.244,702.288Zm15.037,24.239c-3.5-.513-5.864.166-5.848,2.81C1094.878,729.782,1097.121,729.426,1097.281,726.527Zm-5.839-21.46c3.326.513,5.7.073,5.845-2.767C1093.819,701.835,1091.467,702.33,1091.442,705.066Zm-.05,12.1c3.4.442,5.665.169,5.889-2.656C1093.916,714.045,1091.682,714.282,1091.391,717.164Z" transform="translate(-213.405 -106.467)" fill="#83433e"/>
        <path id="Trazado_1327909" data-name="Trazado 1327909" d="M969.253,559.233v3.009l-2.91.134v2.858h-3.112v-2.885h-2.957v-3.017h2.854v-2.964h3.121v2.865Z" transform="translate(-124.841 -18.117)" fill="#83433e"/>
        <path id="Trazado_1327910" data-name="Trazado 1327910" d="M927.362,603.816H924.4v-2.973l2.935-.128v-2.849h3.047v2.9h2.979v2.99h-2.911v3.03h-3.083Z" transform="translate(-98.1 -49.046)" fill="#83433e"/>
        <path id="Trazado_1327911" data-name="Trazado 1327911" d="M1004.971,600.8v3.013h-2.9V606.8h-3.079v-2.873l-3.02-.133v-2.944h2.957v-2.927h3.044V600.8Z" transform="translate(-151.448 -49.088)" fill="#83433e"/>
        <path id="Trazado_1327912" data-name="Trazado 1327912" d="M852.769,591.857V588.88l2.912-.132.131-2.93h2.955v2.909l2.931.155V591.8h-2.9v2.96h-3.021v-2.9Z" transform="translate(-44.716 -40.066)" fill="#83433e"/>
        <path id="Trazado_1327913" data-name="Trazado 1327913" d="M1067.88,588.817h2.872v-2.936h3v2.883l3.021.171v2.845l-2.949.13V594.8h-3.029V591.89h-2.913Z" transform="translate(-205.042 -40.114)" fill="#83433e"/>
        <path id="Trazado_1327914" data-name="Trazado 1327914" d="M954,693.106h2.848c.862,2.2,1.774,2.989,3.355,2.908,1.5-.077,2.39-.919,3-2.893h2.853a5.919,5.919,0,0,1-5.627,5.924C957,699.239,954.312,696.812,954,693.106Z" transform="translate(-120.165 -120.03)" fill="#83433e"/>
      </g>
    </g>
  </g>
</svg>
