<svg xmlns="http://www.w3.org/2000/svg" xmlns:xlink="http://www.w3.org/1999/xlink" width="84.975" height="84.606" viewBox="0 0 84.975 84.606">
  <defs>
    <clipPath id="clip-path">
      <rect width="84.975" height="84.606" fill="none"/>
    </clipPath>
    <clipPath id="clip-path-2">
      <rect id="Rectángulo_457197" data-name="Rectángulo 457197" width="49.302" height="42.137" fill="#fcf7ef"/>
    </clipPath>
  </defs>
  <g id="Grupo_1207844" data-name="Grupo 1207844" transform="translate(-725.711 -948.383)">
    <g id="Grupo_1207843" data-name="Grupo 1207843">
      <g id="Grupo_de_desplazamiento_1" data-name="Grupo de desplazamiento 1" transform="translate(725.711 948.383)" clip-path="url(#clip-path)" style="isolation: isolate">
        <g id="Grupo_1207790" data-name="Grupo 1207790" transform="translate(-725.711 -948.383)">
          <rect id="Rectángulo_457233" data-name="Rectángulo 457233" width="94" height="81.3" transform="translate(726.686 964.689)" fill="none"/>
          <g id="Grupo_1207268" data-name="Grupo 1207268" transform="translate(404.652 -5743.359)">
            <g id="Grupo_1207842" data-name="Grupo 1207842">
              <g id="Grupo_1207190" data-name="Grupo 1207190" transform="translate(321.059 6691.371)">
                <circle id="Elipse_13775" data-name="Elipse 13775" cx="42" cy="42" r="42" transform="translate(0 0.371)" fill="#cdb3b1"/>
                <ellipse id="Elipse_13776" data-name="Elipse 13776" cx="34.5" cy="35" rx="34.5" ry="35" transform="translate(8 7.371)" fill="#83433e"/>
              </g>
            </g>
            <g id="Grupo_1207192" data-name="Grupo 1207192" transform="translate(336.393 6711.738)">
              <g id="Grupo_1207191" data-name="Grupo 1207191" clip-path="url(#clip-path-2)">
                <path id="Trazado_1327226" data-name="Trazado 1327226" d="M342.4.056a4.642,4.642,0,0,0-1.4,0A6.854,6.854,0,0,0,334.756,7c.14,2.574,2.146,5.012,3.388,7.169l-1.655.5c-.626.186-1.68.326-1.4,1.245s3.036-.249,3.847-.545c.364.6.752,1.186,1.124,1.781a19.413,19.413,0,0,0,1.11,1.708c.805.9,1.475-.69,1.815-1.244l1.388-2.288c1.154-1.927,2.45-3.832,3.406-5.869A6.793,6.793,0,0,0,342.4.056m4.4,7.967a13.118,13.118,0,0,1-1.509,3.079l-3.5,5.813-.124.21a6.58,6.58,0,0,1-.46-.714l-.963-1.526c-1.15-1.81-3.881-5.642-4.089-7.7A5.525,5.525,0,0,1,341.189,1.4,5.432,5.432,0,0,1,346.8,8.023" transform="translate(-299.064 0)" fill="#fcf7ef"/>
                <path id="Trazado_1327227" data-name="Trazado 1327227" d="M378.285,38.591c-.005-.046-.012-.091-.019-.137s-.016-.091-.026-.136-.02-.09-.032-.134-.025-.089-.039-.133-.029-.087-.045-.13-.034-.086-.052-.128-.038-.084-.058-.125-.042-.082-.064-.122-.046-.08-.07-.119-.049-.078-.076-.115-.053-.075-.081-.111-.057-.072-.087-.107-.06-.069-.092-.1-.064-.066-.1-.1-.067-.063-.1-.093-.07-.06-.106-.088-.073-.056-.11-.083-.075-.053-.114-.078-.078-.049-.118-.072-.08-.045-.121-.066-.082-.041-.124-.06-.084-.037-.127-.054-.086-.033-.13-.047-.088-.028-.132-.041-.089-.024-.134-.035-.09-.02-.135-.028-.091-.015-.136-.021-.091-.011-.137-.014-.092-.006-.138-.008-.092,0-.138,0-.092,0-.138.006-.092.007-.138.013-.091.012-.137.019-.09.016-.135.026-.09.021-.134.033-.088.025-.132.039-.087.029-.13.046-.086.033-.128.052-.084.038-.125.058-.082.042-.122.064-.08.046-.119.07-.077.05-.115.076-.075.053-.111.081-.072.057-.107.087-.069.06-.1.092-.066.064-.1.1-.063.067-.093.1-.06.07-.088.106-.056.073-.083.11-.052.075-.077.114-.049.078-.072.118-.045.08-.066.121-.041.082-.06.124-.037.084-.054.127-.033.086-.047.129-.028.087-.041.132-.024.089-.035.133-.02.09-.028.135-.015.091-.021.136-.011.091-.015.137-.006.092-.008.138,0,.092,0,.138,0,.092.006.138.007.092.012.137.012.091.019.136.016.09.026.135.021.089.032.134.025.088.039.132.029.087.045.13.033.086.052.128.037.084.058.125.041.082.064.122.046.08.07.119.049.077.075.115.053.075.081.111.057.072.086.107.06.069.092.1.064.066.1.1.067.063.1.093.07.06.106.088.072.056.11.083.075.053.114.078.078.049.117.072.08.045.121.066.082.041.124.06.084.037.127.054.086.033.129.048.087.029.131.041.089.024.133.035.09.02.135.028.091.015.136.022.091.011.137.015.091.006.137.008.092,0,.138,0,.092,0,.138-.005.092-.007.137-.012.091-.011.136-.019.091-.016.136-.025.09-.02.134-.032.089-.025.132-.039.087-.029.13-.045.086-.033.128-.052.084-.037.125-.058.082-.041.122-.064.08-.046.119-.07.078-.049.115-.076.075-.053.112-.081.072-.057.108-.087.069-.06.1-.092.067-.064.1-.1.063-.067.094-.1.06-.07.089-.106.056-.073.083-.11.053-.075.078-.114.049-.078.072-.118.045-.08.066-.121.041-.082.06-.124.037-.084.054-.127.033-.086.048-.13.029-.088.041-.132.024-.089.035-.134.02-.09.028-.135.015-.091.022-.136.011-.091.015-.137.006-.092.008-.138,0-.092,0-.138,0-.092-.006-.138-.007-.092-.012-.138m-1.367.378c0,.023,0,.047,0,.07s0,.047-.008.07-.007.046-.011.07-.009.046-.014.069-.011.046-.018.068-.013.045-.021.067-.016.044-.024.066-.018.043-.027.065-.02.042-.031.063-.022.041-.034.062-.024.04-.037.06-.026.039-.04.058-.028.038-.042.056l-.045.054-.048.052-.05.049-.053.047-.055.044-.057.041-.059.038-.061.036-.062.033-.064.03-.065.026-.066.023-.068.02-.068.016-.069.013-.069.01-.07.006-.07,0h-.07l-.07,0-.07-.008-.069-.011-.069-.014-.068-.018-.067-.021-.066-.024-.065-.027-.063-.031-.062-.034-.06-.037-.058-.04-.056-.042L374.543,40l-.052-.048-.049-.05c-.016-.017-.031-.034-.047-.052s-.03-.036-.044-.055-.028-.038-.041-.057-.026-.039-.038-.059-.024-.04-.036-.061-.022-.041-.033-.062-.02-.042-.029-.064-.018-.043-.026-.065-.016-.044-.023-.066-.014-.045-.02-.067-.011-.045-.016-.068-.009-.046-.013-.069-.007-.046-.01-.07,0-.047-.006-.07,0-.047,0-.07,0-.047,0-.07,0-.047,0-.07,0-.047.007-.07.007-.046.011-.069.009-.046.014-.069.011-.045.018-.068.013-.045.021-.067.016-.044.024-.066.018-.043.027-.065.02-.042.03-.063.022-.041.034-.062.024-.04.036-.06l.039-.058c.014-.019.028-.038.042-.056l.045-.054.047-.052.05-.049.052-.047.055-.044.057-.041.059-.039.06-.036.062-.033.064-.03.065-.026.066-.023.067-.02.068-.017.069-.013.07-.01.07-.007.07,0h.07l.07,0,.07.007.07.011.069.014.068.018.067.021.066.024.065.027.063.03.062.034.06.037.058.039.056.042.054.045.052.048.049.05.047.053q.023.027.044.055t.041.057c.013.019.026.039.039.059s.024.04.036.061.022.041.033.062.02.042.03.064.018.043.026.065.016.044.023.066.014.045.02.068.012.045.016.068.009.046.013.069.007.046.01.07,0,.046.006.07,0,.047,0,.07,0,.047,0,.07" transform="translate(-332.957 -32.254)" fill="#fcf7ef"/>
                <path id="Trazado_1327228" data-name="Trazado 1327228" d="M297.452,149.752c.285-.54-.219-1.005-.741-.981-.466.1-1.88.457-2.123.832-.347.534.221,1.132.781,1.038.507-.143,1.841-.429,2.083-.888" transform="translate(-263.089 -132.911)" fill="#fcf7ef"/>
                <path id="Trazado_1327229" data-name="Trazado 1327229" d="M254.81,161.907a4.756,4.756,0,0,0-2.151.857.693.693,0,0,0,.652,1.06c.531-.136,1.9-.439,2.182-.886s-.216-1-.683-1.031" transform="translate(-225.616 -144.648)" fill="#fcf7ef"/>
                <path id="Trazado_1327230" data-name="Trazado 1327230" d="M7.881,167.961a8.452,8.452,0,0,0-7.827,9.356c.244,2.226,1.643,4.071,2.813,5.9A66.132,66.132,0,0,1,7.05,190.36c.324.683.713,2.279,1.77,1.688a5.019,5.019,0,0,0,.87-1.6c1.3-2.575,2.8-4.989,4.343-7.421,1.176-1.856,2.553-3.83,2.74-6.085a8.446,8.446,0,0,0-8.893-8.977m7.3,10.173a12.939,12.939,0,0,1-1.571,3.022l-2.091,3.327c-1.063,1.714-1.987,3.358-2.9,5.158l-.212.394c-.43-.728-.793-1.511-1.2-2.256-1.056-1.945-2.26-3.83-3.463-5.687-.977-1.508-2.116-3.058-2.328-4.893a7.078,7.078,0,0,1,6.464-7.872c4.489-.637,8.628,4.307,7.3,8.806" transform="translate(0 -150.04)" fill="#fcf7ef"/>
                <path id="Trazado_1327231" data-name="Trazado 1327231" d="M197.183,191.968c1.486-.681-.8-2.041-1.367-2.536l-7.353-6.443c-1.048-.939-1.824-1.315-1.391-2.845.822-2.9,3.93-3.26,4.142-4.029a.708.708,0,0,0-.8-.849,7.423,7.423,0,0,0-4.2,3.373c-1.153,2.138-.8,3.469.852,4.931l8.623,7.541c.429.37.867.99,1.5.857" transform="translate(-165.76 -156.582)" fill="#fcf7ef"/>
                <path id="Trazado_1327232" data-name="Trazado 1327232" d="M368.108,200.948q-.015-.112-.034-.223t-.045-.221q-.025-.11-.056-.219t-.066-.216q-.036-.107-.077-.212t-.087-.208q-.046-.1-.1-.2t-.107-.2q-.056-.1-.117-.193t-.126-.187q-.065-.092-.135-.181t-.144-.174q-.074-.085-.152-.167t-.16-.159q-.082-.078-.168-.151t-.175-.143q-.089-.069-.182-.134t-.188-.125q-.1-.06-.194-.116t-.2-.106q-.1-.05-.2-.1t-.209-.086q-.105-.041-.213-.076t-.216-.065q-.109-.03-.219-.055t-.221-.044q-.111-.019-.223-.033t-.225-.022q-.113-.008-.226-.011t-.226,0q-.113,0-.226.011t-.226.022q-.113.014-.225.033t-.223.044q-.111.025-.221.055t-.218.066q-.108.036-.214.077t-.21.087q-.1.046-.206.1t-.2.108q-.1.056-.195.117t-.189.127q-.093.066-.183.136t-.175.145q-.086.074-.168.153t-.161.161q-.078.083-.152.169t-.144.176q-.07.09-.135.183t-.126.19q-.06.1-.116.2t-.106.2q-.051.1-.1.206t-.086.21q-.041.106-.076.214t-.065.218q-.03.11-.054.221t-.043.223q-.019.112-.032.225t-.021.226q-.008.114-.01.227t0,.228q0,.114.012.227t.024.226q.015.113.035.225t.046.223q.026.111.057.22t.068.217q.036.108.078.214t.088.209q.047.1.1.2t.109.2q.057.1.118.194t.128.188q.066.092.137.182t.146.175q.075.086.154.167t.162.159q.083.078.17.151t.177.143q.09.069.184.134t.19.125q.1.06.2.115t.2.105q.1.05.207.1t.211.085q.107.04.215.075t.218.064q.11.029.221.053t.223.042q.112.018.225.031t.227.02q.114.007.227.009t.227,0q.114,0,.227-.014t.224-.025q.112-.015.223-.036t.221-.046q.11-.026.218-.057t.215-.068q.107-.037.212-.078t.208-.089q.1-.047.2-.1t.2-.108q.1-.056.193-.118t.186-.127q.092-.066.18-.136t.173-.145q.085-.075.166-.153t.158-.161q.077-.083.15-.169t.142-.176q.069-.09.133-.182t.124-.189q.06-.1.114-.195t.1-.2q.05-.1.1-.2t.085-.209q.04-.106.075-.213t.064-.216q.029-.109.053-.219t.043-.222q.019-.111.032-.224t.021-.225q.008-.113.01-.226t0-.226q0-.113-.012-.225t-.023-.225m-1.346.793q0,.079-.013.158t-.021.157q-.012.079-.029.156t-.036.155q-.02.077-.043.153t-.051.15q-.027.075-.058.148t-.066.145q-.035.072-.072.141c-.025.047-.052.092-.079.138s-.056.09-.086.134-.061.087-.092.129-.065.084-.1.124-.069.08-.1.12-.073.077-.11.114-.076.073-.116.109-.08.07-.121.1-.083.066-.126.1-.086.062-.13.091-.089.057-.135.084-.092.053-.139.077-.094.048-.142.07-.1.044-.146.064-.1.039-.148.056-.1.034-.151.049-.1.029-.153.041-.1.024-.155.034-.1.019-.157.026-.1.014-.158.018-.106.009-.159.011-.106,0-.159,0-.106,0-.159,0-.106-.007-.159-.013-.106-.012-.158-.02-.1-.017-.157-.028-.1-.023-.155-.036-.1-.028-.153-.044-.1-.033-.151-.051-.1-.038-.148-.058-.1-.042-.145-.065-.1-.047-.142-.072-.093-.052-.138-.08-.09-.056-.134-.086-.087-.061-.129-.093-.084-.065-.125-.1-.081-.069-.12-.1-.077-.073-.115-.111-.074-.077-.109-.116-.07-.08-.1-.121-.066-.083-.1-.126-.062-.087-.091-.131-.057-.089-.084-.135-.053-.092-.078-.139-.048-.095-.07-.143-.043-.1-.064-.146-.039-.1-.056-.149-.034-.1-.049-.152-.029-.1-.041-.154-.024-.1-.034-.156-.019-.1-.026-.157-.013-.105-.018-.158-.008-.106-.01-.159,0-.106,0-.159,0-.106.005-.159.007-.106.013-.159.013-.105.021-.158.018-.1.029-.157.023-.1.036-.155.028-.1.044-.153.033-.1.051-.151.038-.1.059-.148.043-.1.066-.145.047-.1.073-.142.052-.093.08-.138.057-.09.087-.134.061-.087.093-.129.065-.084.1-.124.069-.081.105-.12.073-.077.111-.114.077-.073.117-.109.08-.07.122-.1.084-.066.127-.1.087-.061.131-.091.09-.057.135-.084.092-.053.139-.077.095-.048.143-.07.1-.043.146-.063.1-.038.149-.056.1-.033.152-.048.1-.028.154-.041.1-.023.156-.033.1-.018.157-.026.105-.013.158-.018.106-.008.159-.01.106,0,.159,0,.106,0,.159.006.105.008.158.013.1.013.157.021.1.018.156.029.1.023.155.037.1.028.153.044.1.033.15.051.1.038.148.059.1.043.145.066.095.047.141.073.092.052.137.08.09.057.133.086.087.061.129.093.084.065.124.1.08.069.119.1.077.073.114.111.073.076.108.116.069.08.1.121.065.083.1.126.061.086.09.131.057.089.084.135.053.092.077.139.048.094.07.142.043.1.063.146.038.1.056.149.033.1.048.151.029.1.041.153.023.1.033.155.019.1.026.157.013.1.018.158.008.106.01.159,0,.106,0,.159,0,.106-.005.159" transform="translate(-320.652 -175.929)" fill="#fcf7ef"/>
                <path id="Trazado_1327233" data-name="Trazado 1327233" d="M232.773,199.135c-1.453.677.645,2.388,1.445,2.272,1.4-.695-.649-2.324-1.445-2.272" transform="translate(-207.513 -177.906)" fill="#fcf7ef"/>
                <path id="Trazado_1327234" data-name="Trazado 1327234" d="M52.684,215c-.005-.058-.012-.115-.02-.172s-.018-.114-.029-.171-.023-.113-.037-.169-.029-.112-.045-.167-.034-.11-.053-.165-.04-.109-.061-.162-.045-.106-.069-.159-.05-.1-.077-.155-.055-.1-.084-.151-.06-.1-.092-.147-.065-.1-.1-.142-.069-.092-.106-.137-.074-.089-.112-.132-.078-.085-.119-.126-.082-.081-.125-.12-.086-.077-.13-.114-.09-.073-.136-.107-.093-.068-.141-.1-.1-.064-.146-.094-.1-.059-.15-.086-.1-.054-.154-.079-.1-.049-.158-.071-.107-.044-.161-.063-.109-.038-.164-.056-.111-.033-.167-.047-.112-.027-.169-.039-.113-.022-.171-.031-.114-.016-.172-.022-.115-.011-.173-.014-.115-.005-.173-.005-.116,0-.173,0-.115.006-.173.012-.115.012-.172.02-.114.018-.171.029-.113.023-.169.037-.112.029-.167.045-.11.034-.165.053-.109.04-.162.061-.106.045-.159.069-.1.05-.155.077-.1.055-.151.084-.1.06-.147.092-.1.065-.142.1-.092.069-.137.106-.089.074-.132.112-.085.078-.126.119-.081.082-.12.125-.077.086-.114.13-.073.09-.107.136-.068.093-.1.141-.064.1-.094.146-.059.1-.086.15-.054.1-.079.154-.049.1-.071.158-.044.107-.064.161-.038.109-.055.164-.033.111-.047.167-.028.112-.039.169-.022.113-.031.17-.016.114-.022.172-.011.115-.014.173-.005.115-.005.173,0,.115,0,.173.006.115.012.173.012.115.02.172.018.114.028.171.023.113.037.169.029.112.045.167.034.11.053.165.039.109.061.162.045.107.069.159.05.1.077.155.055.1.084.151.06.1.092.147.065.1.1.142.069.092.106.137.074.089.112.132.078.085.119.126.082.081.125.12.086.077.13.114.09.073.136.108.093.068.141.1.1.064.146.093.1.059.15.086.1.054.154.079.1.049.158.071.107.043.161.063.109.038.164.055.111.033.167.047.112.028.169.039.113.022.17.031.114.016.172.022.115.011.173.014.115,0,.173.005.115,0,.173,0,.115-.006.173-.012.115-.012.172-.02.114-.018.171-.028.113-.023.169-.037.112-.029.167-.045.11-.034.165-.053.109-.039.162-.061.106-.045.159-.069.1-.05.155-.077.1-.055.151-.084.1-.06.147-.092.1-.064.142-.1.092-.069.137-.106.089-.074.132-.112.085-.078.126-.119.081-.082.12-.125.077-.086.114-.13.073-.09.107-.136.068-.093.1-.141.064-.1.094-.146.059-.1.086-.15.054-.1.079-.154.049-.1.071-.158.044-.107.063-.162.038-.109.055-.164.033-.111.047-.167.027-.112.039-.169.022-.114.031-.171.016-.114.022-.172.011-.115.014-.173.005-.115.005-.173,0-.116,0-.173-.006-.115-.012-.173m-1.347.483q0,.054-.01.107t-.015.107q-.009.053-.02.106t-.026.1q-.014.052-.031.1t-.036.1c-.013.033-.026.067-.041.1s-.03.065-.046.1-.033.064-.05.095-.036.062-.055.093-.039.06-.059.09-.042.058-.064.087-.045.056-.068.083-.047.054-.072.08-.05.051-.076.076-.052.049-.08.072-.055.047-.083.069-.057.044-.086.064-.059.041-.089.06-.061.038-.092.055-.063.035-.095.051-.064.032-.1.046l-.1.041c-.033.013-.067.025-.1.036l-.1.032-.1.026-.105.021-.106.016-.106.011-.107.005h-.107c-.036,0-.071,0-.107-.005l-.106-.01-.106-.016-.1-.02-.1-.026q-.051-.014-.1-.031t-.1-.036l-.1-.04c-.033-.014-.065-.029-.1-.045s-.063-.033-.094-.05-.062-.036-.092-.054-.06-.039-.089-.059-.058-.042-.086-.063-.056-.044-.083-.067-.054-.047-.08-.071-.051-.049-.076-.075-.049-.052-.072-.079-.046-.054-.068-.082-.043-.056-.064-.085-.041-.058-.06-.088-.038-.06-.055-.091-.035-.062-.051-.094-.032-.064-.046-.1-.028-.065-.041-.1-.025-.066-.037-.1-.022-.068-.032-.1-.019-.069-.027-.1-.015-.07-.021-.1-.012-.07-.016-.106-.008-.071-.011-.106,0-.071-.006-.107,0-.071,0-.107,0-.071,0-.107.006-.071.01-.106.009-.071.015-.106.012-.07.02-.1.016-.07.025-.1.019-.069.03-.1.022-.067.035-.1.026-.066.04-.1.029-.065.045-.1.032-.064.049-.095.035-.062.054-.092.038-.06.058-.089.041-.058.063-.086.044-.056.067-.083.047-.054.071-.08.049-.051.075-.076.052-.049.078-.072.054-.046.082-.069.056-.044.085-.065.058-.041.088-.06l.091-.056q.046-.027.094-.051t.1-.047q.049-.022.1-.042l.1-.037.1-.032c.034-.01.069-.019.1-.027l.1-.022.106-.017.107-.012.107-.006h.108l.108,0,.107.009.107.015.106.02.1.025.1.03q.051.016.1.035l.1.04.1.045.1.05q.047.026.093.054t.09.059c.03.02.059.041.087.063s.056.044.084.068.054.047.08.071.052.05.077.075.049.052.073.079.047.054.069.083.044.057.065.086.041.059.061.089.038.061.056.092.035.063.051.095.032.064.047.1.029.066.042.1.025.067.037.1.022.068.032.1.019.069.027.1.015.07.022.105.012.071.017.106.008.071.011.107,0,.072.006.107,0,.072,0,.108,0,.071,0,.107" transform="translate(-40.773 -189.22)" fill="#fcf7ef"/>
                <path id="Trazado_1327235" data-name="Trazado 1327235" d="M385.2,220.949a12.41,12.41,0,0,0,0-1.369.976.976,0,0,0-.784-.445c-.811.317-.6,1.1-.6,1.815-.639-.67-1.413-.337-1.352.328.025.274,1.5,2.022,2.185,1.982a5.282,5.282,0,0,0,1.794-1.668c.395-.757-.378-1.365-1.238-.642" transform="translate(-341.684 -195.775)" fill="#fcf7ef"/>
                <path id="Trazado_1327236" data-name="Trazado 1327236" d="M266.9,228.472c1.624-.589-.784-2.447-1.457-2.452-1.658.483.6,2.428,1.457,2.452" transform="translate(-236.619 -201.926)" fill="#fcf7ef"/>
                <path id="Trazado_1327237" data-name="Trazado 1327237" d="M298.649,254.946c-1.467.653.709,2.388,1.483,2.277,1.43-.752-.738-2.354-1.483-2.277" transform="translate(-266.369 -227.766)" fill="#fcf7ef"/>
                <path id="Trazado_1327238" data-name="Trazado 1327238" d="M250.763,291.882c3.043,0,5,.239,7.366-2.13a7.77,7.77,0,0,0,2.357-5.256c0-.953-.479-2.5-1.678-2.412-.925.492-.222,1.1.1,1.591,1.054,1.614-1.406,5.092-2.815,6-2.274,1.459-5.961.179-6.247,1.369-.144.6.447.826.92.842" transform="translate(-223.191 -252.011)" fill="#fcf7ef"/>
                <path id="Trazado_1327239" data-name="Trazado 1327239" d="M120.379,360.924c-.649.114-.968.848-.337,1.267a5.129,5.129,0,0,0,1.819.108c.76-.191.93-.924.311-1.259a4.918,4.918,0,0,0-1.793-.115" transform="translate(-106.94 -322.428)" fill="#fcf7ef"/>
                <path id="Trazado_1327240" data-name="Trazado 1327240" d="M162.883,360.917c-.587.128-.9.942-.286,1.269a6.72,6.72,0,0,0,2.067.106c.614-.188.865-.945.2-1.268a6.242,6.242,0,0,0-1.983-.107" transform="translate(-144.966 -322.421)" fill="#fcf7ef"/>
                <path id="Trazado_1327241" data-name="Trazado 1327241" d="M208.5,361.056c-.629-.019-1.259,0-1.888,0-.591.108-.963.882-.362,1.259a6.412,6.412,0,0,0,2.1.116c.751-.213.739-.978.163-1.363Z" transform="translate(-183.992 -322.56)" fill="#fcf7ef"/>
              </g>
            </g>
          </g>
        </g>
      </g>
    </g>
  </g>
</svg>
