<svg xmlns="http://www.w3.org/2000/svg" xmlns:xlink="http://www.w3.org/1999/xlink" width="135.176" height="127.499" viewBox="0 0 135.176 127.499">
  <defs>
    <clipPath id="clip-path">
      <rect id="Rectángulo_400938" data-name="Rectángulo 400938" width="120" height="120" fill="none"/>
    </clipPath>
  </defs>
  <g id="Grupo_1207843" data-name="Grupo 1207843" transform="translate(-489 -1863)">
    <g id="Grupo_108927" data-name="Grupo 108927" transform="translate(105.059 -2604)">
      <path id="Rectángulo_36179" data-name="Rectángulo 36179" d="M0,0H129.117V127.5H0Z" transform="translate(390 4467)" fill="#f9f7f0"/>
    </g>
    <g id="Grupo_1207581" data-name="Grupo 1207581" transform="translate(110.813 1603.549)">
      <path id="Trazado_1327834" data-name="Trazado 1327834" d="M444.475,353.738H406.13c-2.2,0-2.476-.277-2.476-2.451q0-35.352,0-70.7c0-2.231.183-2.41,2.464-2.41h85.45c2.159,0,2.367.209,2.367,2.382q0,34.029.019,68.057c0,2.023-.559,3.6-2.389,4.641-.281.16-.415.739-.451,1.139a49.12,49.12,0,0,1-.566,6.612,9.623,9.623,0,0,1-9.035,7.164q-13.737.11-27.474,0a9.941,9.941,0,0,1-9.555-9.557C444.434,357.065,444.475,355.515,444.475,353.738Zm37.258-37.772a10.053,10.053,0,0,1,2,.031c.478.1,1.132.4,1.278.771a1.975,1.975,0,0,1-.24,1.59,17.472,17.472,0,0,1-1.82,1.909A12.32,12.32,0,0,0,479.48,330.4a13.364,13.364,0,0,0,4.83,8.7c.611.549,1.166,1.157.792,2.072s-1.209.895-2.024.894q-6.238-.008-12.475,0c-.443,0-.886.037-1.327.057v8.6h4.254c0-1.192,0-2.317,0-3.442.007-1.856.435-2.284,2.3-2.285q7.587,0,15.179,0V292.642c-2.465,0-4.856.106-7.231-.036a4.367,4.367,0,0,0-3.946,1.625A3.273,3.273,0,0,1,477.7,295.5a4.021,4.021,0,0,0-3.749,1.758,3.158,3.158,0,0,1-2.978,1.23c-1.382-.079-2.78.071-4.154-.057a3.594,3.594,0,0,1-1.967-.837c-1.612-1.469-3.076-3.1-4.675-4.582a3.071,3.071,0,0,1-1.188-2.867,2.369,2.369,0,0,0-.92-2.19q-3.086-2.97-6.069-6.046a2.775,2.775,0,0,0-2.188-.936q-20.918.048-41.837.022h-1.411v56.518a1.379,1.379,0,0,0,.272.134,1.04,1.04,0,0,0,.374.03,4.712,4.712,0,0,1,4.892,2.084,2.657,2.657,0,0,0,2.312.943,3.147,3.147,0,0,1,2.127.68,5.45,5.45,0,0,0,5.5,2.116c.37-.053.759.027,1.132-.014a2.8,2.8,0,0,1,2.442,1.017c1.843,1.9,3.733,3.75,5.623,5.6.285.279.667.645,1.009.65,3.138.05,6.277.03,9.433.03-.581-3.625,1.264-5.788,4.829-5.793q6.742-.008,13.484,0c1.416,0,1.891.483,1.909,1.881.017,1.284,0,2.568,0,3.824h4.277v-8.638a58.182,58.182,0,0,0-6.207.046c-2.357.257-3.909-.7-5.431-2.367a15.5,15.5,0,0,1-1.261-19.9c1.047-1.4,2.342-2.612,3.448-3.828-.218-.616-.652-1.217-.58-1.75a3.8,3.8,0,0,0-1.715-3.761,6.711,6.711,0,0,1-.8-.806,1.384,1.384,0,0,1,.014-2.119c.906-.935,1.813-1.87,2.769-2.752a2.025,2.025,0,0,1,1.108-.491c2.088-.2,4.139-.214,5.463,1.867a2.606,2.606,0,0,0,.444.444,1.857,1.857,0,0,0,2.76-.014,5.832,5.832,0,0,1,5.931-2.343,9.221,9.221,0,0,0,2.013,0,2.909,2.909,0,0,1,2.56,1.028c1.285,1.384,2.661,2.683,4,4.02A5.413,5.413,0,0,1,481.732,315.967ZM480.1,318.9a1.581,1.581,0,0,0-.33-.1c-6.973-.006-13.945-.019-20.918.016a2.108,2.108,0,0,0-1.278.606c-5.906,5.648-5.94,13.4-.069,19.071a2.594,2.594,0,0,0,1.622.674c6.678.046,13.357.031,20.036.025a8.922,8.922,0,0,0,.927-.1C475.259,332.321,475.251,325.657,480.1,318.9Zm-24.848-37.825c2.069,2.059,3.959,3.894,5.785,5.791a2.415,2.415,0,0,1,.806,1.591c-.252,1.788.627,2.906,1.851,3.969.917.8,1.731,1.711,2.6,2.564.207.2.462.538.676.524,2.025-.139,4.309.914,5.9-1.29a3.676,3.676,0,0,1,3.58-1.628,2.116,2.116,0,0,0,1.595-.7,5.582,5.582,0,0,1,5.272-2.153c2.534.194,5.094.045,7.7.045v-8.712Zm27.066,72.734c0,1.317.014,2.567,0,3.816-.02,1.379-.529,1.927-1.9,1.929q-12.655.021-25.309,0c-1.443,0-1.956-.542-1.978-2-.019-1.242,0-2.485,0-3.712H447.3c0,1.447-.024,2.786,0,4.123a7.337,7.337,0,0,0,7.368,7.387q13.094.092,26.19,0a6.943,6.943,0,0,0,6.838-4.984,42.584,42.584,0,0,0,.558-6.567Zm-2.951,2.719c0-1.267-.012-2.473,0-3.68.018-1.56.491-2.044,2.029-2.051q3.906-.018,7.812,0c1.018.005,1.821-.358,1.821-1.447s-.8-1.453-1.819-1.449c-3.15.012-6.3,0-9.45,0h-3.246c0,1.386.015,2.636,0,3.886-.021,1.377-.54,1.932-1.9,1.938q-6.867.029-13.734,0c-1.414-.006-1.867-.49-1.893-1.926-.023-1.247,0-2.5,0-3.808-.431-.038-.714-.085-1-.085-3.864,0-7.728,0-11.592-.006-1.021,0-1.917.2-1.909,1.454s.9,1.444,1.925,1.439c2.436-.012,4.872-.005,7.308,0,1.949,0,2.38.423,2.384,2.33,0,1.121,0,2.242,0,3.4ZM456.824,308.7a2.586,2.586,0,0,0,.374.458,4.269,4.269,0,0,1,1.825,4.124c-.122,1.067,1.835,2.676,3,2.677,4.451.006,8.9-.048,13.353.033a3.787,3.787,0,0,0,3.287-1.356c.975-1.152,1.031-2.163-.061-3.258q-1.779-1.782-3.569-3.554c-.233-.23-.519-.6-.767-.591-2.115.095-4.457-.795-6.08,1.518a3.4,3.4,0,0,1-2.008,1.326c-1.986.305-3.805.1-5.278-1.737C459.377,306.436,458.381,306.636,456.824,308.7Zm-50.268,42.024h21.258a20.33,20.33,0,0,1-2.175-2.087,5,5,0,0,0-5.205-2.154,4.715,4.715,0,0,1-4.827-1.96,2.323,2.323,0,0,0-1.591-.963,4.184,4.184,0,0,1-4.106-1.868c-.9-1.22-2.069-1.153-3.354-.9Z"/>
      <path id="Trazado_1327835" data-name="Trazado 1327835" d="M492.809,452.369c0,3.652-.01,7.3,0,10.956a4.247,4.247,0,0,0,4.632,4.6c5.457.013,10.914,0,16.372.006,1.838,0,2.225.388,2.23,2.2,0,1.637-.008,3.274,0,4.911a1.462,1.462,0,0,1-1.618,1.657c-6.507.009-13.021.187-19.517-.07a11.473,11.473,0,0,1-10.89-11.673c-.025-7.976-.009-15.952,0-23.928,0-1.685.459-2.125,2.183-2.131,1.343-.005,2.687,0,4.03,0,2.217,0,2.577.351,2.578,2.519Q492.81,446.891,492.809,452.369Zm-5.841-10.48v1.283q0,10.712,0,21.423c.01,5.51,3.636,9.134,9.151,9.15,5.251.015,10.5.005,15.752,0,.405,0,.811-.043,1.25-.069v-2.769h-1.448q-6.931,0-13.862,0c-4.934-.007-7.993-3.085-8-8.047q-.007-9.83,0-19.659v-1.312Z" transform="translate(-68.75 -137.509)"/>
      <path id="Trazado_1327836" data-name="Trazado 1327836" d="M455.209,325.094c2.14-2.164,3.993-4.047,5.856-5.919,1.232-1.238,1.858-1.254,3.055-.063,3.6,3.58,7.21,7.147,10.751,10.783a2.651,2.651,0,0,1,.67,1.947c-.127.894-1.053.909-1.837.909-9.317,0-18.634.014-27.95-.039a2.633,2.633,0,0,1-1.873-.859c-.572-.771.1-1.46.689-2.044,2.088-2.064,4.16-4.145,6.244-6.215,1.389-1.38,1.832-1.39,3.2-.012A18.153,18.153,0,0,1,455.209,325.094Zm7.4-3.154-5.189,5.175c.705.653,1.421,1.347,2.173,2,.333.289.734.7,1.111.709,3.251.056,6.5.032,9.769.032Zm-6.782,7.849-3.249-3.248-3.432,3.248Z" transform="translate(-34.232 -34.275)"/>
      <path id="Trazado_1327837" data-name="Trazado 1327837" d="M798.9,594.534l2.366-2.36,3.162,3.9,3.259-3.872,2.139,2.24-3.655,3.069,3.964,3.277-2.559,2.118-2.994-3.5-3.309,3.9-2.009-2.51,3.413-3Z" transform="translate(-338.164 -268.655)"/>
    </g>
  </g>
</svg>
