<svg xmlns="http://www.w3.org/2000/svg" xmlns:xlink="http://www.w3.org/1999/xlink" width="134.828" height="127.499" viewBox="0 0 134.828 127.499">
  <defs>
    <clipPath id="clip-path">
      <rect id="Rectángulo_400938" data-name="Rectángulo 400938" width="120" height="120" fill="none"/>
    </clipPath>
  </defs>
  <g id="Grupo_1207846" data-name="Grupo 1207846" transform="translate(-489 -2370)">
    <g id="Grupo_108927" data-name="Grupo 108927" transform="translate(104.711 -2097)">
      <path id="Rectángulo_36179" data-name="Rectángulo 36179" d="M0,0H129.117V127.5H0Z" transform="translate(390 4467)" fill="#f9f7f0"/>
    </g>
    <g id="Grupo_1207584" data-name="Grupo 1207584" transform="translate(46.175 2046.42)">
      <path id="Trazado_1327855" data-name="Trazado 1327855" d="M506.228,591.928c-2.082,0-4.01-.024-5.936.022a2.565,2.565,0,0,0-1.038.473c-3.29,1.862-6.539,3.8-9.887,5.553a5.273,5.273,0,0,1-3.141.486c-4.817-.852-9.594-1.921-14.406-2.8a27.275,27.275,0,0,0-4.345-.215c-1.595-.032-3.19-.007-4.908-.007v-3.378a47.5,47.5,0,0,1,13.187.877c3.574.868,7.208,1.5,10.83,2.159a2.884,2.884,0,0,0,1.768-.361c4.272-2.389,8.652-4.626,12.708-7.343,2.141-1.434,3.7-3.732,5.525-5.639l-.269-.349c-1.554.829-3.112,1.648-4.66,2.488-3.663,1.987-7.3,4.03-11,5.934a3.14,3.14,0,0,1-2.41.107c-3.17-1.451-6.253-3.091-9.388-4.621a1.737,1.737,0,0,1-1.187-2.059c.228-1.081,1.055-1.263,2-1.248,1.164.018,2.329.006,3.494,0,2.544,0,3.127-.732,2.632-3.432-2.83,0-5.685-.057-8.535.047a2.556,2.556,0,0,0-1.665,1.019,9.383,9.383,0,0,1-9.812,4,20.734,20.734,0,0,0-3.248-.025v-3.3H469.2v-1.714q0-8.879,0-17.759c0-1.956.43-2.382,2.4-2.383q17.759-.006,35.518,0c1.96,0,2.407.44,2.41,2.39q.014,7.715,0,15.43v1.851c.807-.873,1.333-1.456,1.873-2.024,1.059-1.113,1.977-1.178,2.961-.07,3.832,4.316,7.651,8.644,11.4,13.029a2.233,2.233,0,0,1,.36,1.955,2.362,2.362,0,0,1-1.738.919c-1.529.13-3.076.042-4.769.042V593.7q0,8.079,0,16.158c0,1.864-.444,2.3-2.33,2.311q-4.366.021-8.733,0c-1.885-.009-2.324-.447-2.327-2.314q-.011-8.079,0-16.158Zm-33.677-14.094c1.466-1.463,2.754-2.591,4.7-2.562,3.4.051,6.792.035,10.188,0,1.308-.013,1.84.653,1.895,1.853.019.426,0,.853,0,1.342.334.038.566.087.8.087,4.512,0,9.024.031,13.535-.02a12.785,12.785,0,0,0,2.466-.5V561.909H472.551Zm36.982,30.942h6.786V607.15q0-7.859,0-15.718c0-2.422.28-2.7,2.646-2.709.561,0,1.122,0,2.067,0l-8.111-9.246-8.094,9.246c1.005,0,1.583,0,2.161,0,2.2.007,2.539.335,2.542,2.521q.009,6.04,0,12.079ZM486.4,585.2c1.681,1.484,3.539,1.819,5.521.186a10.252,10.252,0,0,1,1.638-.919l3.955-2.171a62.009,62.009,0,0,0-7.747-.266,1.526,1.526,0,0,0-.928.49C488.018,583.372,487.242,584.271,486.4,585.2Z" transform="translate(0 -174.858)"/>
      <path id="Trazado_1327856" data-name="Trazado 1327856" d="M565.722,378.6v-3.361c.428-.028.847-.077,1.265-.078,2.815-.007,5.638.139,8.442-.036,4.576-.285,8.958.742,13.373,1.622,2.613.521,5.216,1.1,7.839,1.559a2.675,2.675,0,0,0,1.616-.387q10.189-5.761,20.341-11.578c-.769-1.942-1.5-2.248-3.261-1.3-4.821,2.6-9.645,5.194-14.433,7.854a2.961,2.961,0,0,1-3.129.079c-2.919-1.529-5.881-2.975-8.842-4.423-.916-.448-1.578-1.022-1.333-2.127.252-1.14,1.15-1.3,2.144-1.282,1.067.02,2.135,0,3.2,0,2.729,0,3.13-.432,2.958-3.345-2.972,0-5.961-.05-8.945.047a2.383,2.383,0,0,0-1.507,1.026c-2.369,3.347-5.544,4.346-9.555,3.952-3.31-.325-6.678-.067-10.125-.067v-3.267h2.108c3.64,0,7.281.048,10.918-.041a4.588,4.588,0,0,0,2.126-.891,7.965,7.965,0,0,0,1.46-1.412c1.439-1.571,2.972-2.957,5.4-2.74l.173-.462c-.972-.859-1.91-1.761-2.934-2.551a2.4,2.4,0,0,0-1.35-.316c-2.033-.032-4.066-.014-6.2-.014V351.7h3.786c-2.195-2.606-3.011-5.313-2.325-8.326a8.5,8.5,0,0,1,3.281-5.008c3.035-2.283,7.949-2.8,12.035,1.214,2.221-2.224,4.943-3.524,8.083-2.807a11.194,11.194,0,0,1,4.822,2.433c3.4,3.055,3.422,7.181.321,12.42h3.562v3.436c-2.121,0-4.2-.045-6.267.03a2.836,2.836,0,0,0-1.648.641,35.467,35.467,0,0,0-3.187,3.186,3.885,3.885,0,0,0-.66,1.629,4.2,4.2,0,0,0-.015,1.305c.215,2.715-.378,5.039-3.342,6.382a18.323,18.323,0,0,0,2.78,1.367,2.535,2.535,0,0,0,1.713-.3c4.574-2.444,9.115-4.95,13.679-7.413a5.034,5.034,0,0,1,6.993,1.726c2.555,3.708,2.534,3.758-1.306,5.936-6.83,3.875-13.635,7.8-20.5,11.614a4.666,4.666,0,0,1-2.864.485c-4.53-.806-9.028-1.794-13.548-2.665a20.177,20.177,0,0,0-3.6-.373C574.8,378.577,570.346,378.6,565.722,378.6Zm33.945-26.829c.993-.118,2.207.079,2.929-.427a12.766,12.766,0,0,0,3.058-3.253,5.091,5.091,0,0,0-.334-5.98,4.951,4.951,0,0,0-5.786-1.868,17.024,17.024,0,0,0-3.831,2.722c-1.149.927-1.819.984-2.906-.02-.6-.558-1.151-1.183-1.784-1.7a5.437,5.437,0,0,0-7.519,7.822c.546.614,1.154,1.173,1.74,1.751,1.393,1.372,2.827,1.228,3.9-.384.591-.885,1.171-1.779,1.779-2.653,1.039-1.493,2.162-1.522,3.228-.087a9.963,9.963,0,0,1,1.048,1.566C596.1,351.164,597.418,352.251,599.667,351.773Zm-.986,3.483c-1.313-.2-2.732-.053-3.687-.651-1.016-.636-1.594-1.974-2.43-3.1l-2.775,3.747C593.324,359.63,595.139,359.651,598.681,355.256Z" transform="translate(-81.317)"/>
      <path id="Trazado_1327857" data-name="Trazado 1327857" d="M745.069,555.453c-2.614.993-4.964,1.869-7.3,2.777-2.828,1.1-4.966.511-6.748-1.948q-3.156-4.355-6.256-8.751c-1.1-1.555-.9-2.4.771-3.222,4.4-2.171,3.42-2.385,7.06.656,2.419,2.021,4.6,2.875,7.405,1.016a16.448,16.448,0,0,1,2.618-1.093c-1.472-1.4-2.823-2.63-4.117-3.921-1.511-1.507-1.09-2.547.817-3.46,3.505-1.678,6.743-1.637,9.883.731.113.085.274.106.393.187,2.5,1.718,4.921,2.175,7.883.7,2.569-1.282,5.319-.545,7.683,1.152,1.1.791,2.182,1.615,3.258,2.441,1.666,1.28,1.5,2.608-.483,3.441-2.855,1.2-5.719,2.385-8.608,3.5a3.663,3.663,0,0,0-2.315,2.152c-1.295,3.13-2.8,6.175-4.1,9.3a2.513,2.513,0,0,1-2.783,1.776c-1.208-.072-2.424,0-3.636-.019-1.682-.03-2.273-.665-2.1-2.36C744.554,558.927,744.81,557.356,745.069,555.453Zm19.157-11.418a5.2,5.2,0,0,0-6.472-1.542c-6.883,2.744-13.776,5.462-20.641,8.248a2.514,2.514,0,0,1-2.807-.381c-1.444-1.143-2.93-2.233-4.424-3.31a7.269,7.269,0,0,0-1.259-.589l-.255.338c1.948,2.7,3.843,5.439,5.9,8.052a2.411,2.411,0,0,0,2.088.266c2.208-.716,4.348-1.641,6.531-2.437,1.641-.6,3.49-.948,3.011-3.509l3.394.52-1.318,9.578c1.356.462,2.067.132,2.627-1.2,1.775-4.233,3.71-8.4,5.563-12.544.965.257,1.93.851,2.674.645A49.329,49.329,0,0,0,764.226,544.034ZM749.2,542.1c-3.747-2.422-4.943-2.773-6.534-1.948C745.075,543.6,746.22,543.961,749.2,542.1Z" transform="translate(-206.112 -157.426)"/>
      <path id="Trazado_1327858" data-name="Trazado 1327858" d="M794.149,677.146c2.908,0,5.817-.018,8.725,0,3.578.027,5.565,2.031,5.575,5.6.009,3.1.021,6.2,0,9.307a4.993,4.993,0,0,1-5.17,5.279q-9.088.087-18.177,0a4.966,4.966,0,0,1-5.191-5.242q-.035-4.872,0-9.743a4.98,4.98,0,0,1,5.08-5.2c.1,0,.194,0,.291,0Zm-.841,3.384v13.387c3.5,0,6.788.063,10.073-.06a2.17,2.17,0,0,0,1.6-1.285,17.582,17.582,0,0,0,.076-3.648h-3.185v-3.469h3.24c0-1.132.033-2.142-.009-3.149a1.685,1.685,0,0,0-1.873-1.772C799.992,680.519,796.751,680.53,793.308,680.53Zm-10.11,8.428a13.778,13.778,0,0,0,.062,3.209c.169.655.87,1.581,1.427,1.653a42.336,42.336,0,0,0,5.27.079V680.535a44.673,44.673,0,0,0-5.011.062,2.249,2.249,0,0,0-1.609,1.305,17.7,17.7,0,0,0-.076,3.682h3.252v3.375Z" transform="translate(-250.095 -268.383)"/>
      <path id="Trazado_1327859" data-name="Trazado 1327859" d="M495.621,354.847l1.2,2.9c-16.064,7.264-25.7,19.572-28.868,37.043l-3.11-.358C466.595,378.213,478.56,361.341,495.621,354.847Z" transform="translate(-1.819 -14.396)"/>
      <path id="Trazado_1327860" data-name="Trazado 1327860" d="M816.675,392.815l-3.159.5C810,376.663,800.484,364.92,784.93,357.89L786.091,355C801.261,360.519,814.01,375.854,816.675,392.815Z" transform="translate(-254.067 -14.518)"/>
      <path id="Trazado_1327861" data-name="Trazado 1327861" d="M585.106,764.995l-.618,3.238a49.144,49.144,0,0,1-17.913-7.553l1.861-2.767A48.609,48.609,0,0,0,585.106,764.995Z" transform="translate(-81.99 -332.038)"/>
      <path id="Trazado_1327862" data-name="Trazado 1327862" d="M910.4,611.714l-2.8-1.159,3.272-12.989,2.973.305A46.929,46.929,0,0,1,910.4,611.714Z" transform="translate(-350.738 -205.674)"/>
      <path id="Trazado_1327863" data-name="Trazado 1327863" d="M756.389,777.172l1.445,3.017-10.475,3.467-.688-3.3Z" transform="translate(-223.917 -347.215)"/>
      <path id="Trazado_1327864" data-name="Trazado 1327864" d="M565.5,594.985a5,5,0,1,1,10,.341,5.062,5.062,0,0,1-5.112,4.883A5.006,5.006,0,0,1,565.5,594.985Zm4.616,2.041.669.014c.473-.619,1.241-1.192,1.346-1.867.143-.923-.539-1.627-1.6-1.65s-1.773.642-1.669,1.578C568.942,595.781,569.677,596.387,570.118,597.026Z" transform="translate(-81.142 -199.798)"/>
      <path id="Trazado_1327865" data-name="Trazado 1327865" d="M526.281,606.477h4.736v3.148h-4.736Z" transform="translate(-50.235 -212.697)"/>
      <path id="Trazado_1327866" data-name="Trazado 1327866" d="M629.036,609.767v-3.094h4.83v3.094Z" transform="translate(-131.213 -212.851)"/>
    </g>
  </g>
</svg>
