<svg xmlns="http://www.w3.org/2000/svg" width="127" height="127" viewBox="0 0 127 127">
  <g id="Grupo_1207846" data-name="Grupo 1207846" transform="translate(-1091.166 -3084.309)">
    <g id="Grupo_1207616" data-name="Grupo 1207616" transform="translate(0 144)">
      <g id="Grupo_1207190" data-name="Grupo 1207190" transform="translate(589.766 -4158.033)">
        <circle id="Elipse_13775" data-name="Elipse 13775" cx="63.5" cy="63.5" r="63.5" transform="translate(501.4 7098.342)" fill="#83433e"/>
        <circle id="Elipse_13776" data-name="Elipse 13776" cx="52" cy="52" r="52" transform="translate(513.4 7110.342)" fill="#cdb3b1"/>
      </g>
      <g id="Grupo_1207609" data-name="Grupo 1207609" transform="translate(331.472 2443)">
        <path id="Trazado_1327997" data-name="Trazado 1327997" d="M845.577,572.194h-2.254V528.813h-2.277v43.35h-2.3l-.144-1.016H836.44a24.722,24.722,0,0,1-.034,2.969,2.008,2.008,0,0,1-.768,1.41c-.325.166-1.059-.155-1.436-.47a31.683,31.683,0,0,1-2.289-2.343v4.012H829.5a28.949,28.949,0,0,1,.039-4.187c.287-1.955-.746-3.066-2.246-4.193v8.39h-2.355v-9.048h-2.265V577.91H820.4v-9.525l-.254-.142c-.645.682-1.3,1.358-1.93,2.05a.721.721,0,0,0-.181.441c-.01,3.134-.008,6.268-.008,9.509h2.288v2.262h-27.47v3.414h10.179V588.3h-6.637c-1.422,0-2.845.007-4.267,0-1.218-.008-1.578-.373-1.585-1.61-.009-1.555-.006-3.109,0-4.664,0-1.5.185-1.683,1.719-1.757.129-.006.258-.03.533-.063v-1.044q0-7.691,0-15.381c0-1.5.363-1.851,1.878-1.854q1.588,0,3.175,0c1.515,0,1.884.363,1.885,1.852q0,7.641,0,15.282V580.2h2.238v-1.183q0-16.671,0-33.342c0-1.8.242-2.036,2.073-2.036,1.058,0,2.117,0,3.175,0,1.3.007,1.647.342,1.648,1.639q.005,10.271,0,20.541v1.085c1.053-.989,2.4-1.558,2.383-3.46-.107-9.426-.05-18.854-.048-28.281,0-1.586.26-1.844,1.84-1.846,1.092,0,2.183,0,3.275,0,1.392,0,1.709.31,1.71,1.674q.005,6.252,0,12.5v1.213a20,20,0,0,0,2.09-.992c.192-.117.246-.571.249-.872.021-2.084,0-4.168.013-6.251,0-1.189.336-1.511,1.546-1.519,1.29-.009,2.58-.014,3.87,0,1.049.013,1.44.389,1.451,1.442.021,2.018.044,4.037-.011,6.053-.022.806.163,1.307,1,1.521a7.145,7.145,0,0,1,1.273.637v-1.16q0-6.8,0-13.595c0-1.45.356-1.8,1.826-1.8,1.025,0,2.051,0,3.076,0,1.742,0,2.036.288,2.036,2,0,9.592.071,19.186-.06,28.777-.026,1.922.826,2.959,2.3,4.094,0-.523,0-.9,0-1.278q0-18.606,0-37.212c0-1.856.2-2.058,2.038-2.06,1.058,0,2.117,0,3.175,0,1.4.008,1.683.29,1.684,1.69q0,11.809,0,23.617v20.4ZM804.344,546v34.179a3.43,3.43,0,0,0,.5.079c2.146.011,1.724.118,1.726-1.627q.022-15.676.007-31.351V546Zm9.123-10.281v19.725c.537-1.14,1.216-2.545,1.858-3.968a3.822,3.822,0,0,0,.444-1.446c.034-4.429.02-8.858.02-13.287v-1.024Zm20.553,19.262V534.571h-2.091a1.99,1.99,0,0,0-.069.337q-.007,7.774,0,15.547a1.939,1.939,0,0,0,.239.827C832.751,552.565,833.423,553.836,834.02,554.983Zm-38.81,9.323v15.885H797.3V564.306Zm41.559,4.506-4.834-4.929-2.856,2.447,4.941,5.048C834.294,568.954,834.294,568.954,836.769,568.812ZM815.775,564l-4.755,4.728c.566.125,1.591.06,2.061.539s.351,1.492.462,2.105l5.062-4.957Zm-4.668,16.213v-9.048h-2.171v9.048Zm15.83-24.039c-1.812.448-2.85-.337-3.177-2.355-.141,2.185-1.443,2.64-3.3,2.524,1.9.842,2.079,2.14,1.175,3.813,2.177-1,2.177-1,4.129-.086a5.473,5.473,0,0,1-.3-2.156C825.645,557.28,826.374,556.8,826.937,556.175Zm4.758-.276c-1.261.91-2.385,1.707-3.487,2.533a.693.693,0,0,0-.267.557c.421,1.359.887,2.7,1.393,4.21A8.319,8.319,0,0,0,831.695,555.9Zm-6.869-6.461,1.458,4.45h4.736A8.2,8.2,0,0,0,824.826,549.438Zm-8.163,4.472h4.64l1.386-4.327A7.207,7.207,0,0,0,816.663,553.911Zm3.372,10.441a7.317,7.317,0,0,0,7.492-.018c-1.163-.844-2.293-1.685-3.454-2.48a.775.775,0,0,0-.689.075C822.28,562.7,821.2,563.5,820.035,564.352Zm-4.13-8.428a8.036,8.036,0,0,0,2.373,7.252c.464-1.437.9-2.736,1.288-4.049a.769.769,0,0,0-.176-.674C818.3,557.622,817.169,556.833,815.9,555.924Zm-.152,17.087-.284-.225c-.494.569-1.006,1.123-1.473,1.713a2,2,0,0,0-.538.981c-.057,1.548-.025,3.1-.025,4.715h2.32Zm9.124-25.969v-5.611H822.7v5.611ZM813.5,558.786v3.675c.727-.431.97-.87.583-1.638A11.529,11.529,0,0,1,813.5,558.786Zm20.547.611c-1.006,2.371-1.006,2.371,0,2.916Z" transform="translate(0)" fill="#262626"/>
        <path id="Trazado_1327998" data-name="Trazado 1327998" d="M927.523,811.981h3.3v2.2c-1.59,0-3.2.05-4.792-.045-.293-.017-.628-.585-.8-.964a3.791,3.791,0,0,1-.088-1.2c-.876,0-1.723-.033-2.567.009-1.009.049-1.873-.085-2.11-1.332a28.461,28.461,0,0,1-10.462,3.387,27.724,27.724,0,0,1-3.164.19q-12.5.024-25,.007a4.51,4.51,0,0,1-4.812-4.747,4.563,4.563,0,0,1,4.783-4.413c4.3-.024,8.6-.007,12.9-.007h.882a17.39,17.39,0,0,1,.047-3.661,4.184,4.184,0,0,1,4.107-3.13c1.951-.035,3.9.01,5.854-.033a1.7,1.7,0,0,0,1.119-.415,11.053,11.053,0,0,1,13.528-2.166c.049.028.127,0,.255,0,.024-.243.052-.495.072-.747a1.182,1.182,0,0,1,1.35-1.238c1.024.016,2.048,0,3.115,0a3.371,3.371,0,0,0,.146-.578c.1-1.533.336-1.768,1.84-1.771,1.25,0,2.5,0,3.813,0v2.317h-3.316Zm-32.29-4.575q-6.7,0-13.4,0a2.326,2.326,0,0,0-2.573,2.283,2.408,2.408,0,0,0,2.618,2.276c8.435,0,16.87.049,25.3-.023a25.4,25.4,0,0,0,12.644-3.565,1.167,1.167,0,0,0,.762-1.129c-.047-2.645-.006-5.292-.038-7.938a1.327,1.327,0,0,0-.4-.92,8.244,8.244,0,0,0-6.205-1.807,8.331,8.331,0,0,0-5.516,2.83,3.092,3.092,0,0,1-2.7,1.092c-1.849-.081-3.7-.039-5.556-.016a2.285,2.285,0,0,0-2.5,2.351,2.222,2.222,0,0,0,2.487,2.222c.331,0,.661,0,.992,0H908.8c.644,0,1.265.165,1.362.867a1.55,1.55,0,0,1-.427,1.186,1.948,1.948,0,0,1-1.2.277C904.1,807.412,899.665,807.405,895.233,807.406ZM925.1,809.6V795.967h-2.149V809.6Z" transform="translate(-71.562 -219.109)" fill="#262626"/>
      </g>
    </g>
  </g>
</svg>
