<svg xmlns="http://www.w3.org/2000/svg" width="127" height="127" viewBox="0 0 127 127">
  <g id="Grupo_1207847" data-name="Grupo 1207847" transform="translate(5103.545 8615.691)">
    <g id="Grupo_1207615" data-name="Grupo 1207615" transform="translate(0 144)">
      <g id="Grupo_1207190" data-name="Grupo 1207190" transform="translate(-5604.945 -15858.033)">
        <circle id="Elipse_13775" data-name="Elipse 13775" cx="63.5" cy="63.5" r="63.5" transform="translate(501.4 7098.342)" fill="#83433e"/>
        <circle id="Elipse_13776" data-name="Elipse 13776" cx="52" cy="52" r="52" transform="translate(513.4 7110.342)" fill="#cdb3b1"/>
      </g>
      <g id="Grupo_1207610" data-name="Grupo 1207610" transform="translate(-5886.942 -9240.473)">
        <path id="Trazado_1327999" data-name="Trazado 1327999" d="M835.52,536.365v2.267h-7.757v9.762c1.343-.407,2.639-.792,3.931-1.192,2.019-.626,4.041-1.243,6.045-1.912a1.5,1.5,0,0,0,.806-.707c.8-1.742,1.537-3.512,2.358-5.416-2.733-1.095-4.393-2.977-4.194-6.046-3.5-.5-4.561-1.745-4.49-5.185.05-2.407,1.484-3.718,4.5-3.994v-2.211a4,4,0,0,1-2.82-1.965,4.808,4.808,0,0,1-.525-1.942c-.067-1.985-.036-3.974-.021-5.962.008-1.085.313-1.394,1.416-1.4q6.354-.016,12.707,0a3.934,3.934,0,0,1,3.352,1.863,2.343,2.343,0,0,0,1.012.795c1.18.461,2.391.844,3.593,1.247a3.7,3.7,0,0,1,2.672,3.073,19.688,19.688,0,0,1,.084,3.213.864.864,0,0,1-.329.672c-1.339.565-.65,1.666-.808,2.659a4.2,4.2,0,0,1,3.623,1.427,4.946,4.946,0,0,1,.878,3.6c-.057,2.392-1.387,3.632-4.364,4.088l-.608,3.242h.964q7.136,0,14.271,0c2.841,0,4.424,1.576,4.428,4.4,0,3.193.041,6.387-.028,9.579a11.1,11.1,0,0,1-.6,2.317,4.632,4.632,0,0,0-.322,1.622c.9,6.447,1.845,12.887,2.775,19.329a3.938,3.938,0,0,1-3.526,4.45c-.356.031-.716.029-1.074.029-17.758,0-35.516-.022-53.273.025-2.8.008-4.257-1.673-4.482-3.443a7.37,7.37,0,0,1,.114-1.935c.886-6.185,1.8-12.367,2.66-18.556a4.258,4.258,0,0,0-.338-1.524,9.963,9.963,0,0,1-.595-2.22c-.065-3.355-.042-6.712-.023-10.068a3.767,3.767,0,0,1,3.645-3.959C825.926,536.3,830.678,536.365,835.52,536.365Zm22.715,39.456v-7.8h2.191V575.8h2.231v-12.27H860.4v2.1h-2.181a9.57,9.57,0,0,1,.007-1.111c.084-.691-.147-1.029-.812-1.392a3.233,3.233,0,0,1-1.4-1.734c-.7-2.288.037-3.79,2.155-4.822v-8.23l-2.685-.821c-.954,1.358-1.854,2.633-2.747,3.914-3.1,4.446-8.614,4.44-11.717-.01-.908-1.3-1.827-2.6-2.752-3.915l-2.667.86v8.262c1.8.684,2.266,1.368,2.27,3.239,0,.293.007.586,0,.879a2.55,2.55,0,0,1-1.684,2.509.851.851,0,0,0-.644.988c.017,3.615.008,7.23.012,10.845a7.314,7.314,0,0,0,.074.738Zm-3.449-54.076H839.073v8.649c1.43-.358,2.737-.758,4.072-1,1.635-.3,3.182-1.189,4.949-.672,1.619.474,3.267.85,4.9,1.258.551.137,1.111.24,1.727.371.027-.315.058-.5.058-.693C854.786,527.056,854.785,524.456,854.785,521.745Zm-11.88,18.493c-.832,1.938-1.658,3.81-2.424,5.706a1.209,1.209,0,0,0,.153.955c.806,1.222,1.647,2.422,2.513,3.6a4.516,4.516,0,0,0,7.481-.007,22.77,22.77,0,0,1,1.646-2.3,2.868,2.868,0,0,0,.413-3.812c-.73-1.319-1.237-2.761-1.843-4.15C846.2,542.376,846.876,542,842.906,540.238ZM828.8,575.8c0-4.017.009-7.92-.023-11.824a.964.964,0,0,0-.517-.654,2.667,2.667,0,0,1-1.708-2.7c.014-.423,0-.846,0-1.269a2.536,2.536,0,0,1,1.644-2.523c.231-.1.566-.341.57-.523.042-1.908.026-3.817.026-5.73a1.686,1.686,0,0,0-.321,0c-.778.231-1.555.47-2.333.7-1.571.465-1.883.871-1.884,2.494q0,10.5,0,20.991V575.8Zm40.6,0c.054-.128.1-.185.1-.243.008-7.452.031-14.9-.018-22.356a1.974,1.974,0,0,0-.859-1.494,29.733,29.733,0,0,0-3.643-1.255c0,2.059-.019,3.909.026,5.758.005.217.327.514.569.621a2.555,2.555,0,0,1,1.648,2.523c0,.488,0,.976,0,1.464a2.366,2.366,0,0,1-1.541,2.379c-.63.24-.719.591-.716,1.166.019,3.515.008,7.029.012,10.544,0,.283.037.566.06.893ZM852.837,539.09c.848,1.973,1.628,3.827,2.456,5.658a1.274,1.274,0,0,0,.723.538c1.447.486,2.907.936,4.366,1.387,1.855.574,3.714,1.136,5.633,1.723v-9.64a1.49,1.49,0,0,0-.319-.083c-3.842-.005-7.684-.019-11.526.009A5.152,5.152,0,0,0,852.837,539.09Zm-13.85-5.524a3.11,3.11,0,0,0,1.842,3.041c1.652.84,3.317,1.654,4.971,2.491a2.125,2.125,0,0,0,2.052.044c1.737-.887,3.5-1.736,5.22-2.646a3.12,3.12,0,0,0,1.724-3.049c-.01-.494-.127-.737-.665-.863-2.278-.534-4.539-1.139-6.813-1.692a2.1,2.1,0,0,0-.957.018c-2.178.531-4.344,1.116-6.528,1.621C839.167,532.685,838.841,532.94,838.986,533.566Zm-13.643,5.1c-1.333,0-2.566-.017-3.8.005a1.671,1.671,0,0,0-1.805,1.748q-.046,4.978,0,9.956a1.741,1.741,0,0,0,1.89,1.8.775.775,0,0,0,.579-.345,4.3,4.3,0,0,1,3.134-2.668Zm43.1,10.509a3.932,3.932,0,0,1,2.958,2.363c.281.724.71.744,1.28.58a1.7,1.7,0,0,0,1.352-1.705c.026-3.351.031-6.7-.006-10.053a1.51,1.51,0,0,0-1.374-1.641c-1.382-.1-2.775-.026-4.211-.026Zm-46.475,26.662V554.469h-1.234c-.6,4.224-1.2,8.377-1.789,12.529-.313,2.19-.641,4.377-.94,6.568-.179,1.31.385,2.159,1.536,2.256C820.335,575.89,821.145,575.836,821.964,575.836Zm49.8.011c.642,0,1.221,0,1.8,0,1.8-.007,2.426-.724,2.175-2.487q-.943-6.617-1.889-13.234c-.271-1.889-.551-3.777-.828-5.67h-1.258Zm-31.678-63.138c0,1.776-.048,3.463.019,5.146a1.609,1.609,0,0,0,1.563,1.6c.928.086,1.871.019,2.894.019,0-1.864.053-3.646-.024-5.423a1.442,1.442,0,0,0-1.47-1.325C842.11,512.649,841.138,512.708,840.088,512.708Zm-6.8,63.105V563.5h-2.18v12.31Zm27.2-26.62v7.428h2.229v-5.011c0-2.1,0-2.1-2.124-2.457C860.57,549.15,860.538,549.177,860.493,549.194ZM833.3,556.656v-7.577c-.674.2-1.293.366-1.888.591a.652.652,0,0,0-.35.477c-.023,2.161-.016,4.322-.016,6.51Zm2.208,2.261c-2.121,0-4.131-.044-6.139.018-.984.031-.469.885-.559,1.374-.087.472-.019.9.676.881,1.462-.034,2.925-.01,4.388-.01h1.633Zm22.747,2.26c2.124,0,4.163.011,6.2-.02a.707.707,0,0,0,.48-.451c.344-1.414.031-1.794-1.41-1.8h-5.271ZM846.82,512.753v6.691h2.342c0-1.539.007-3.028,0-4.517C849.15,513.2,848.38,512.547,846.82,512.753Zm-8.9,6.646v-6.632h-2.369c0,1.633-.021,3.193.006,4.752A1.789,1.789,0,0,0,837.921,519.4Zm13.533-3.986v4.008h4.406c.032-1.1.323-2.259-.9-2.8C853.849,516.131,852.657,515.819,851.454,515.413Zm-14.807,15.244v-4.416c-1.676-.02-2.274.677-2.218,2.5C834.473,530.19,835.115,530.754,836.648,530.657Zm20.459-4.415v4.416c1.588.1,2.207-.479,2.233-2.016C859.37,526.892,858.766,526.219,857.107,526.242Z" transform="translate(0 0)" fill="#262626"/>
      </g>
    </g>
  </g>
</svg>
