<svg xmlns="http://www.w3.org/2000/svg" width="127" height="127" viewBox="0 0 127 127">
  <g id="Grupo_1207848" data-name="Grupo 1207848" transform="translate(4750.545 8615.691)">
    <g id="Grupo_1207614" data-name="Grupo 1207614" transform="translate(0 144)">
      <g id="Grupo_1207190" data-name="Grupo 1207190" transform="translate(-5251.945 -15858.033)">
        <circle id="Elipse_13775" data-name="Elipse 13775" cx="63.5" cy="63.5" r="63.5" transform="translate(501.4 7098.342)" fill="#83433e"/>
        <circle id="Elipse_13776" data-name="Elipse 13776" cx="52" cy="52" r="52" transform="translate(513.4 7110.342)" fill="#cdb3b1"/>
      </g>
      <g id="Grupo_1207611" data-name="Grupo 1207611" transform="translate(-5556.306 -9270.145)">
        <path id="Trazado_1328000" data-name="Trazado 1328000" d="M892.479,566.192c-.719,1.224.9,3.349-1.879,3.506a19.844,19.844,0,0,0,.034,2.378c.031.26.426.586.721.687,6.544,2.252,10.994,6.594,13.043,13.23a19.8,19.8,0,0,1-36.808,14.252,1.494,1.494,0,0,0-1.6-.961q-15.446.038-30.892.016c-1.739,0-1.835-.1-1.836-1.87,0-.776.014-1.552,0-2.327a1.009,1.009,0,0,1,1.151-1.172c.772,0,1.544,0,2.467,0,0-.717,0-1.372,0-2.027.006-1.4.165-1.554,1.6-1.559.6,0,1.194,0,1.952,0,0-.624,0-1.174,0-1.723,0-1.612,0-1.612,1.607-1.95V569.73c-1.605-.285-1.606-.285-1.607-1.916,0-.52,0-1.04,0-1.7-1.374,0-2.632.011-3.89,0-1.218-.014-1.49-.292-1.509-1.5-.01-.67,0-1.34,0-2.01,0-1.706.069-1.782,1.847-1.965,0-.751.023-1.519-.007-2.284a1.161,1.161,0,0,1,.97-1.291q7.275-2.206,14.539-4.452c4.338-1.336,8.672-2.682,13.07-4.043V538.72c0-.247,0-.494,0-.74-.015-.684-.06-1.528.835-1.523.435,0,.866.666,1.3,1.03l-.177.317q2.9,0,5.791,0c.6,0,1.2-.067,1.549.628.082.161.475.22.728.228.881.027,1.769-.05,2.642.035.471.046,1.161.228,1.309.551a1.616,1.616,0,0,1-.4,1.366,1.517,1.517,0,0,0-.036,2.408,1.759,1.759,0,0,1,.406,1.455c-.1.29-.858.489-1.329.5-2.009.054-4.021.068-6.029-.008a4.65,4.65,0,0,1-1.5-.652,1.626,1.626,0,0,0-.541-.228c-.841-.025-1.682-.011-2.69-.011,0,1.438-.031,2.8.034,4.152.01.206.439.483.723.571q13.109,4.069,26.23,8.1c1.57.484,1.6.5,1.6,2.112,0,.523,0,1.046,0,1.55,1.752.345,1.752.345,1.753,2.127q0,.846,0,1.693c0,1.568-.164,1.721-1.781,1.731q-1.639.01-3.278.035C892.52,566.148,892.46,566.2,892.479,566.192ZM903.4,591.637a18,18,0,1,0-17.929,17.94A17.907,17.907,0,0,0,903.4,591.637Zm-9.479-30.981c.218-1.9.222-1.909-1.451-2.425-8.337-2.571-16.671-5.149-25.021-7.677a3.906,3.906,0,0,0-2.142-.005c-8.416,2.552-16.816,5.154-25.218,7.752-1.622.5-1.635.55-1.272,2.355Zm-33.349,5.533h-8.509c0,.6,0,1.119,0,1.641,0,1.6-.025,1.63-1.614,1.9v16.953c1.581.31,1.611.346,1.614,1.925,0,.55,0,1.1,0,1.65h8.359c.624-1.275-.98-3.485,1.769-3.569V569.749c-1.618-.324-1.618-.324-1.619-1.979C860.573,567.281,860.574,566.792,860.574,566.188Zm35.194-3.568h-58.8v1.548h58.8Zm-25.193,15.533a53.151,53.151,0,0,1,5.43-3.819,54.781,54.781,0,0,1,6.234-2.495V569.7c-1.568-.223-1.589-.247-1.591-1.82,0-.553,0-1.106,0-1.712h-8.29c-.654,1.224.979,3.48-1.784,3.532Zm-22.1,8.579V569.693h-4.448v17.039ZM864.1,569.672v17.116c.572,0,1.095.032,1.61-.016a.775.775,0,0,0,.557-.341q1.172-2.586,2.272-5.2a2.509,2.509,0,0,0,.085-.934q.008-4.806,0-9.612c0-.336-.036-.671-.055-1.008Zm1.948,26.16H835.221v1.587H866.39Zm-27.32-1.971h26.949c-.026-.578-.048-1.086-.071-1.6H838.732Zm28.663-54.288v2.539c1.764.612,3.767-.7,5.211,1.019h4.059a4.029,4.029,0,0,1-.528-1.3,3.937,3.937,0,0,1,.477-1.246c-1.394-.263-2.986.486-4.009-1-.024-.036-.135-.016-.2-.016Zm-17.206,26.647h-7.848v1.548h7.848Zm12.24,1.567h7.827V566.2h-7.827ZM890.38,566.2h-7.928c.027.594.05,1.1.072,1.589h7.856Zm-48.042,24.057h7.815v-1.569h-7.815Zm41.84-18.439,4.493.236V569.7h-4.493Zm-21.728,16.862v1.6h3.18c.033-.557.062-1.054.093-1.6Z" transform="translate(0)" fill="#262626"/>
        <path id="Trazado_1328001" data-name="Trazado 1328001" d="M1069.357,777.358a2.185,2.185,0,0,0-.726-.249c-1.044.041-1.486-.426-1.427-1.465.044-.773,0-1.551.009-2.326.009-1.3.186-1.481,1.454-1.49,1-.008,2.006,0,3.118,0-3.308-3.937-3.276-7.069-.3-9.767a8.49,8.49,0,0,1-.158-2.648c.283-.973,1.294-1.048,2.217-1.031.952.017,1.9.014,2.855,0a2.06,2.06,0,0,1,2.139,1.049,1.925,1.925,0,0,1-.579,2.341,5.984,5.984,0,0,1,2.545,4.969,6.4,6.4,0,0,1-2.643,5.087c1.323,0,2.364.027,3.4-.008,1-.034,1.414.43,1.377,1.4-.029.775,0,1.551-.007,2.327-.009,1.228-.226,1.446-1.453,1.553a.9.9,0,0,0-.627.368,8.539,8.539,0,0,0,4.318-1.607c.2-.138.262-.539.3-.829a6.638,6.638,0,0,1,.061-1.362c.113-.324.544-.775.8-.754.346.03.68.433.971.724.094.094.047.338.047.514,0,3.349.014,6.7-.016,10.048a1.953,1.953,0,0,1-.416,1.125.855.855,0,0,1-.841.112,1.6,1.6,0,0,1-.561-1.016c-.051-2.113-.025-4.227-.025-6.374-1.47.494-2.9.943-4.291,1.476-.2.079-.354.555-.363.852-.039,1.3-.035,2.609-.012,3.913.015.882-.353,1.29-1.26,1.284-2.926-.02-5.853-.015-8.779,0-.8,0-1.161-.36-1.154-1.154.012-1.34-.021-2.68.013-4.019a.846.846,0,0,0-.755-1.01c-1.309-.363-2.576-.877-3.955-1.362,0,1.857,0,3.682,0,5.507,0,.684.054,1.475-.893,1.5s-.946-.745-.945-1.445q.006-4.5,0-8.991c0-.68-.055-1.477.889-1.5s1.021.762.928,1.445a1.58,1.58,0,0,0,1.149,1.859c1.139.454,2.274.917,3.411,1.377Zm6.071-5.562a8.507,8.507,0,0,1,1.333-1.526,4.258,4.258,0,0,0-.051-7.121,2.438,2.438,0,0,1-.79-1.414,4.724,4.724,0,0,1,.135-1.489h-2.388a2.444,2.444,0,0,1-1.013,3.326c-2.172,1.5-1.945,5.033.192,6.57a11.326,11.326,0,0,1,1.425,1.464l-.149.189Zm3.147,11.912v-3.626h-7.34v3.626Zm2.152-9.988h-11.634v1.421h11.634Zm-9.475,3.42c-.248.779.071,1.046.749,1.044q2.941-.01,5.882-.007c.722,0,.922-.339.678-1.037Z" transform="translate(-189.477 -183.193)" fill="#262626"/>
        <path id="Trazado_1328002" data-name="Trazado 1328002" d="M1004.2,631.524a4.092,4.092,0,0,1-4.116-4.064,4.133,4.133,0,1,1,8.265.037A4.082,4.082,0,0,1,1004.2,631.524Zm.059-6.361a2.331,2.331,0,0,0-2.36,2.205,2.323,2.323,0,0,0,4.645.079A2.334,2.334,0,0,0,1004.261,625.163Z" transform="translate(-137.711 -71.677)" fill="#262626"/>
      </g>
    </g>
  </g>
</svg>
