<svg xmlns="http://www.w3.org/2000/svg" width="127" height="127" viewBox="0 0 127 127">
  <g id="Grupo_1207849" data-name="Grupo 1207849" transform="translate(4396.545 8615.691)">
    <g id="Grupo_1207613" data-name="Grupo 1207613" transform="translate(0 144)">
      <g id="Grupo_1207190" data-name="Grupo 1207190" transform="translate(-4897.945 -15858.033)">
        <circle id="Elipse_13775" data-name="Elipse 13775" cx="63.5" cy="63.5" r="63.5" transform="translate(501.4 7098.342)" fill="#83433e"/>
        <circle id="Elipse_13776" data-name="Elipse 13776" cx="52" cy="52" r="52" transform="translate(513.4 7110.342)" fill="#cdb3b1"/>
      </g>
      <g id="Grupo_1207612" data-name="Grupo 1207612" transform="translate(-5269.139 -9275.188)">
        <path id="Trazado_1328003" data-name="Trazado 1328003" d="M971.86,586.127H968.49v1.179q0,5.39,0,10.78a6.645,6.645,0,0,1-.016.845c-.086.672-.431,1.14-1.158,1.119a1.092,1.092,0,0,1-1.123-1.152c-.02-.281-.009-.563-.009-.845q0-5.337,0-10.675v-1.254c-.453-.02-.826-.05-1.2-.051-2.642,0-5.285.007-7.927-.006a3.43,3.43,0,0,1-3.751-3.731q-.011-14,0-28.008a4.225,4.225,0,0,1,.022-.633,1.042,1.042,0,0,1,1.071-.969,1.068,1.068,0,0,1,1.147.892,4.676,4.676,0,0,1,.049,1.052q0,10.252,0,20.5v1.383h15.9c.282,0,.565-.014.845.008a1.059,1.059,0,0,1,1.106,1.051,1.1,1.1,0,0,1-1.049,1.227,5.867,5.867,0,0,1-.949.024H955.61c0,1.355-.023,2.611.01,3.865a1.035,1.035,0,0,0,1.013,1.029,6.3,6.3,0,0,0,.844.024q12.736,0,25.472,0c1.66,0,1.882-.227,1.885-1.9,0-.95,0-1.9,0-2.952-.346-.026-.647-.067-.949-.068-1.761-.006-3.523,0-5.284,0-.247,0-.494.013-.74-.006-.824-.063-1.33-.552-1.292-1.232.037-.648.5-1.057,1.322-1.066,1.867-.021,3.734-.007,5.6-.008h1.341v-1.145q0-15.642,0-31.284c0-1.632-.2-1.833-1.812-1.834q-12.789,0-25.577,0c-1.668,0-1.847.187-1.849,1.9,0,1.233,0,2.466,0,3.7a4.089,4.089,0,0,1-.027.738,1.085,1.085,0,0,1-1.177.984,1.016,1.016,0,0,1-1.07-1.076c-.016-1.867-.07-3.738.032-5.6a3.307,3.307,0,0,1,3.1-2.95c.28-.026.563-.014.845-.014q12.894,0,25.789,0c2.745,0,4.035,1.27,4.035,3.982q0,19.077,0,38.154,0,3.949-3.952,3.958c-2.537.006-5.073,0-7.61,0h-1.317v1.295c0,9.266-.037,18.531.026,27.8.016,2.35-1.035,2.967-2.9,2.84-1.017-.069-2.043.006-3.064-.018a1.927,1.927,0,0,1-2.112-2.1q-.026-5.655,0-11.309c0-.927.463-1.446,1.186-1.421.685.024,1.1.5,1.108,1.4.017,3.241.007,6.482.008,9.724V615.6h3.369Z" transform="translate(-34.119)" fill="#262626"/>
        <path id="Trazado_1328004" data-name="Trazado 1328004" d="M983.86,575.972v-2.119a4.57,4.57,0,0,1-2.823-2.866,4.186,4.186,0,1,1,5.809,2.556c-.8.4-.882.745-.345,1.427.022.027.055.047.073.076a3.572,3.572,0,0,0,3.891,1.81,6.961,6.961,0,0,1,1.582,0,1.032,1.032,0,0,1,1.077,1.07,1.014,1.014,0,0,1-1.1,1.142c-1.408.022-2.821.055-4.224-.033a5.442,5.442,0,0,1-1.554-.633v3.161c.4.026.77.07,1.141.072,1.8.008,3.593-.007,5.389.008a3.018,3.018,0,0,1,3.35,2.31c.622,1.569,1.266,3.129,1.932,4.772.442,0,.9,0,1.349,0a1.066,1.066,0,0,1,1.212,1.044,1.114,1.114,0,0,1-1.171,1.216c-.7.046-1.409.026-2.112.007s-1.036-.458-1.276-1.073c-.665-1.7-1.414-3.375-2.038-5.093a1.245,1.245,0,0,0-1.411-.933c-1.972.035-3.945.021-5.917.008a2.494,2.494,0,0,1-2.788-2.715c-.025-.906,0-1.812,0-2.734a5.916,5.916,0,0,0-4.629,7.623,6.066,6.066,0,0,0,10.981,1.241c.114-.178.206-.37.325-.544a1.046,1.046,0,0,1,1.537-.415,1.071,1.071,0,0,1,.427,1.544,8.058,8.058,0,0,1-4.682,4.183,8.312,8.312,0,0,1-5.911-15.536C982.53,576.31,983.158,576.182,983.86,575.972Zm3.082-6.18a1.911,1.911,0,0,0-1.851-1.912,1.881,1.881,0,0,0-1.929,1.816,1.836,1.836,0,0,0,1.884,1.946A1.877,1.877,0,0,0,986.942,569.792Z" transform="translate(-52.582 -20.214)" fill="#262626"/>
        <path id="Trazado_1328005" data-name="Trazado 1328005" d="M1090.6,797.664c-3.719,0-7.164,0-10.609,0-.386,0-.854.1-1.137-.084a1.928,1.928,0,0,1-.815-1.065.883.883,0,0,1,.8-1.052,5.965,5.965,0,0,1,1.049-.071q4.75-.007,9.5-.005c.341,0,.681-.032,1.246-.06-.549-.559-.967-.961-1.359-1.389-.562-.613-.6-1.184-.146-1.679a1.118,1.118,0,0,1,1.751.076q1.671,1.611,3.285,3.28a1.116,1.116,0,0,1-.017,1.833q-1.61,1.671-3.288,3.277a1.14,1.14,0,1,1-1.632-1.58c.207-.239.447-.448.663-.679C1090.083,798.269,1090.255,798.061,1090.6,797.664Z" transform="translate(-132.477 -198.641)" fill="#262626"/>
        <path id="Trazado_1328006" data-name="Trazado 1328006" d="M914.29,795.375h10.316c.281,0,.564-.013.844.012.819.074,1.256.488,1.2,1.167a1.091,1.091,0,0,1-1.183,1.087c-.281.01-.563.01-.844.01H914.036c.573.6.979,1.01,1.36,1.439.548.615.584,1.2.13,1.684a1.147,1.147,0,0,1-1.761-.1q-1.632-1.574-3.214-3.2c-.7-.717-.7-1.211-.026-1.91q1.614-1.666,3.287-3.275a1.132,1.132,0,1,1,1.612,1.574A14.4,14.4,0,0,1,914.039,795Z" transform="translate(0 -198.63)" fill="#262626"/>
      </g>
    </g>
  </g>
</svg>
