<svg xmlns="http://www.w3.org/2000/svg" width="127" height="127" viewBox="0 0 127 127">
  <g id="Grupo_1207842" data-name="Grupo 1207842" transform="translate(-275.971 -2025)">
    <g id="Grupo_1207190" data-name="Grupo 1207190" transform="translate(-225.43 -5073.342)">
      <circle id="Elipse_13775" data-name="Elipse 13775" cx="63.5" cy="63.5" r="63.5" transform="translate(501.4 7098.342)" fill="#fbe49d"/>
      <circle id="Elipse_13776" data-name="Elipse 13776" cx="52" cy="52" r="52" transform="translate(513.4 7110.342)" fill="#3b4b68"/>
    </g>
    <g id="Grupo_1207603" data-name="Grupo 1207603" transform="translate(-624.879 1532.471)">
      <path id="Trazado_1327942" data-name="Trazado 1327942" d="M994.128,550.189h2.353a7.83,7.83,0,0,1-7.308,8.973c-1.253.056-2.511.009-3.829.009v4.642c3.3-3.3,7.331-2.145,11.1-2.382a7.584,7.584,0,0,1-4.318,8.222,15.461,15.461,0,0,1-3.936.845,22.248,22.248,0,0,1-2.912.024c0,1.333,0,2.558,0,3.784a4.646,4.646,0,0,0,.068.58,13.364,13.364,0,0,1,2.059.494,2.9,2.9,0,0,1,1.767,2.1c.178.8.595.983,1.333.939.913-.054,1.833-.034,2.749,0a2.37,2.37,0,0,1,2.52,1.875c.28.857.523,1.548,1.632,1.757a1.976,1.976,0,0,1,1.442,2.024c.05,1.449.013,2.9.013,4.485h-1.04c-17.257,0-34.514-.032-51.771.02a8.024,8.024,0,0,1-8.291-8.288,22.419,22.419,0,0,0-.018-2.842,1.094,1.094,0,0,0-.527-.8c-5.546-2.15-8.525-6.447-8.526-12.369q0-7.443,0-14.887a16.928,16.928,0,0,1,18.8-17.167,16.586,16.586,0,0,1,6.783,2.247c2.357-7.6,7.231-12.749,14.841-15.04a21.093,21.093,0,0,1,15.406,1.3A21.627,21.627,0,0,1,994.128,550.189Zm-11.172,11.254c-2.716,0-5.3,0-7.891,0a21.224,21.224,0,0,1-11.479-3.338c-.274-.171-.554-.334-.95-.573,0,2.626.012,5.058,0,7.489a12.055,12.055,0,0,1-2.4,7.151,12.9,12.9,0,0,1-4.783,3.955c.1.565.21,1.085.278,1.612.073.559.106,1.122.176,1.9a6.108,6.108,0,0,0,1.011-.525c.417-.334.755-.767,1.172-1.1a3.483,3.483,0,0,1,4.726.332,3.719,3.719,0,0,0,2.052,1.413,3.634,3.634,0,0,1,1.72,1.369,1.413,1.413,0,0,0,1.308.664c1.547-.035,3.1.049,4.643-.044a2.656,2.656,0,0,0,1.641-.689,4.346,4.346,0,0,1,3.79-1.54,1.248,1.248,0,0,0,1.435-.893c.744-1.631,1.391-3.4,3.551-3.6v-2.388a43.454,43.454,0,0,1-4.567-.026,7.762,7.762,0,0,1-6.526-8.9c3.767.264,7.8-.963,11.095,2.335Zm-43.473,8.31c-.369-.2-.674-.358-.969-.53a9.625,9.625,0,0,1-5.221-8.266c-.145-4.135-.1-8.28-.014-12.418a7.414,7.414,0,0,1,6.479-7.19,75.036,75.036,0,0,1,11.448-.061c4.129.316,6.89,3.742,6.9,7.906.012,3.729.038,7.459-.009,11.187a9.871,9.871,0,0,1-4.935,8.644,20.4,20.4,0,0,1-2.013,1l3.538,3.92a9.883,9.883,0,0,0,5.67-8.948c.1-5.244.04-10.492.024-15.737a14.709,14.709,0,0,0-29.409-.662c-.065,5.466-.077,10.935.007,16.4a9.8,9.8,0,0,0,5.192,8.683c.468.276.988.464,1.529.713C937.952,571.873,938.067,571.575,939.482,569.753Zm54.9-31.056-.272-.041a1.147,1.147,0,0,0-.173.209c-1.16,2.355-2.987,2.443-4.845,2.233-1.729-.195-2.726-1.379-3.175-3.512a3.24,3.24,0,0,0-.191-.921c-.223-.39-.5-.916-.86-1.028-1.068-.33-2.443-.4-3.055.89a5.488,5.488,0,0,1-.526.786c-1.086,1.522-2.782,1.907-4.761,1.383a3.4,3.4,0,0,1-2.52-3.675,6.9,6.9,0,0,0-1.262-4.5c-1.535-2.185.358-6.657,2.956-7.3a4.708,4.708,0,0,1,.938-.105c.442-.018.885,0,1.327-.008a2.027,2.027,0,0,0,2.161-1.611A19.2,19.2,0,0,0,964.6,523.94a13.142,13.142,0,0,0,1.458.9c2.694,1.2,3.714,3.225,3.444,6.158-.168,1.827-.765,3.17-2.49,3.866-1.042.42-1,1.266-.951,2.131.047.781.551,1.141,1.26,1.33,2.425.646,3.253,1.744,3.256,4.276,0,.379-.019.76,0,1.137a3.88,3.88,0,0,1-2.12,3.922,2.305,2.305,0,0,0-1.31,2.289,3.518,3.518,0,0,1-3.51,3.6c-.306.018-.612.042-1.087.074.133.459.12.96.36,1.163a18.48,18.48,0,0,0,8.526,4.042,8.129,8.129,0,0,1-1.914-6.329l2.221-.1c-.164-1.768.3-3.221,1.83-4.05a2.616,2.616,0,0,0,1.544-2.926,4.119,4.119,0,0,1,0-.758,3.555,3.555,0,0,1,3.514-3.508c.884-.037,1.772.03,2.654-.021a4.419,4.419,0,0,1,3.725,1.491,2.2,2.2,0,0,0,1.352.727c2.368.074,4.739.048,7.109.015.217,0,.6-.285.619-.465C994.23,541.505,994.293,540.1,994.378,538.7Zm-38.688,11.542H935.5c0,3.5-.049,6.941.013,10.376a7.882,7.882,0,0,0,7.6,7.614c1.7.047,3.412.043,5.117,0,3.632-.088,7.067-2.779,7.39-6.388C955.954,558.029,955.689,554.161,955.689,550.239Zm26.8-27.978a5.237,5.237,0,0,1-5.816,3.1,1.33,1.33,0,0,0-.793.24,3.51,3.51,0,0,0-.866,4.32,5.868,5.868,0,0,1,1.257,4.151,3.224,3.224,0,0,0,.039,1.314,2.021,2.021,0,0,0,.846,1.109,1.978,1.978,0,0,0,2.531-.85c.231-.339.44-.7.7-1.015,1.682-2.1,5.744-1.917,7.067.374a8.2,8.2,0,0,1,.74,2.422c.157.753.434,1.359,1.262,1.423.9.069,1.862.234,2.377-.859.484-1.026,1.029-2.024,1.509-3.052a1.164,1.164,0,0,0,.045-.782A19.306,19.306,0,0,0,982.491,522.261Zm-19.852,28.963c1.773.16,2.283-.257,2.282-1.811a3.42,3.42,0,0,1,1.759-3.243,2.973,2.973,0,0,0,1.685-3.153c-.118-2.014-.053-2.043-1.98-2.627a3.424,3.424,0,0,1-2.57-3.07c-.2-1.723.046-3.443,1.781-4.229a2.406,2.406,0,0,0,1.588-2.821c-.038-.343.091-.732-.027-1.033a3.615,3.615,0,0,0-.872-1.535c-.938-.735-2.024-1.279-3.019-1.947a.829.829,0,0,0-1.215.141,19.281,19.281,0,0,0-5.534,9.206,1.106,1.106,0,0,0,.392,1.3,16.585,16.585,0,0,1,5.73,12.713C962.643,549.8,962.639,550.489,962.639,551.225Zm3.547,35h30.365V584.3a7.159,7.159,0,0,1-1.871-1.072,5.485,5.485,0,0,1-.921-1.932.82.82,0,0,0-.945-.68c-.851.039-1.7.012-2.557.01-1.963,0-2.485-.353-3.115-2.215a1.507,1.507,0,0,0-1.606-1.165c-3.478.026-2.795-.313-4.13,2.457a3.1,3.1,0,0,1-3.413,2.076,2.285,2.285,0,0,0-2.169.873,3.8,3.8,0,0,1-3.266,1.379c-1.823-.058-3.649-.014-5.391-.014Zm27.46-40.546c-2.585,0-4.858.086-7.118-.043a4.114,4.114,0,0,1-2.559-.947,4.105,4.105,0,0,0-3.642-1.3c-.533.05-1.076-.019-1.61.022a1.3,1.3,0,0,0-1.327,1.325,5.267,5.267,0,0,0-.007.852,4.268,4.268,0,0,1-2.415,4.531,1.816,1.816,0,0,0-.872,2.371c3.4-.153,6.867-.3,9.3,2.747.147-.109.218-.135.241-.184a7.885,7.885,0,0,1,7.28-4.882.861.861,0,0,0,.639-.275C992.25,548.565,992.893,547.214,993.646,545.674Zm-32.082,36.109a2.692,2.692,0,0,0-.055-.766c-.209-.482-.382-1.221-.739-1.337a2.367,2.367,0,0,0-1.581.413,4.128,4.128,0,0,0-1.079,1.052,1.8,1.8,0,0,1-1.574.647c-2.4-.033-4.8,0-7.2-.025a1.231,1.231,0,0,0-1.235.649c-.443.752-.971,1.454-1.5,2.237l-1.78-1.208c.533-1.414,1.946-2.268,1.946-3.876h-6.637c-.574,3.4,1.819,6.633,5.1,6.689,5.494.095,10.991.05,16.486.02a3.385,3.385,0,0,0,3.2-2.97,1.206,1.206,0,0,0-1.246-1.517C963,581.753,962.341,581.784,961.565,581.784Zm-5.858-33.9a6.887,6.887,0,0,0-.251-.911,5.484,5.484,0,0,0-5.143-3.555c-3.1-.076-6.2-.053-9.292.007a5.84,5.84,0,0,0-2.276.542,5.269,5.269,0,0,0-3.1,3.891h2.171v-2.1h2.235v2.119H942.3v-2.143H944.5l.119,2.149h2.17v-2.124h2.239c.035.759.066,1.443.1,2.138h2.184v-2.156H953.6v2.147Zm-8.943,29.334c0-1.244.039-2.407-.01-3.565a3.247,3.247,0,0,0-2.815-3.1,3.187,3.187,0,0,0-3.724,2.336,30.3,30.3,0,0,0-.252,4.325Zm25.1-22.408c.524,2.049,1.7,3.641,3.658,4.013a56.975,56.975,0,0,0,7.313.493,5.169,5.169,0,0,0-4.354-4.459A65.7,65.7,0,0,0,971.865,554.806Zm2.3,11.056a5.243,5.243,0,0,0,4.114,4.422,44.187,44.187,0,0,0,4.519.324,5.035,5.035,0,0,0-3.835-4.355A41.584,41.584,0,0,0,974.161,565.862Zm11.3,2.314c5.5.6,8.105-1.174,8.58-4.391C989.231,563.364,986.579,564.24,985.462,568.176Zm.019-11.3c5.327.59,8.031-1.028,8.554-4.339C989.394,552.082,986.559,552.858,985.48,556.871Zm-31.948,22.582c.322-3.656-2.884-7.62-4.627-7.781v7.781Z" fill="#f2eceb"/>
      <path id="Trazado_1327943" data-name="Trazado 1327943" d="M1003.695,733.19a21.7,21.7,0,0,1-.6,4.026,4.253,4.253,0,0,1-4.914,2.607,4.383,4.383,0,0,1-3.644-4.224c-.028-.782,0-1.565,0-2.41Zm-2.547,2.245h-4.286a2.142,2.142,0,0,0,2.09,2.238C999.915,737.729,1001.423,736.724,1001.148,735.435Z" transform="translate(-53.343 -173.944)" fill="#f2eceb"/>
      <path id="Trazado_1327944" data-name="Trazado 1327944" d="M1024.486,700.76a3.264,3.264,0,0,1,3.552-3.3,3.161,3.161,0,0,1,3.07,3.34,15.085,15.085,0,0,1-1.754-.024c-.2-.023-.4-.3-.542-.506-.46-.664-1.4-.873-1.736-.232-.491.938-1.226.764-1.975.766C1024.918,700.806,1024.735,700.779,1024.486,700.76Z" transform="translate(-77.625 -144.989)" fill="#f2eceb"/>
      <path id="Trazado_1327945" data-name="Trazado 1327945" d="M983.489,700.6c-.955-.11-1.939.478-2.6-.737a.857.857,0,0,0-1.46-.048c-.64,1.231-1.637.677-2.62.825a2.961,2.961,0,0,1,1.3-2.723,3.249,3.249,0,0,1,3.492-.33A3.177,3.177,0,0,1,983.489,700.6Z" transform="translate(-38.985 -144.8)" fill="#f2eceb"/>
    </g>
  </g>
</svg>
