<svg xmlns="http://www.w3.org/2000/svg" width="127" height="127" viewBox="0 0 127 127">
  <g id="Grupo_1207843" data-name="Grupo 1207843" transform="translate(-581.971 -2025)">
    <g id="Grupo_1207190" data-name="Grupo 1207190" transform="translate(80.57 -5073.342)">
      <circle id="Elipse_13775" data-name="Elipse 13775" cx="63.5" cy="63.5" r="63.5" transform="translate(501.4 7098.342)" fill="#fbe49d"/>
      <circle id="Elipse_13776" data-name="Elipse 13776" cx="52" cy="52" r="52" transform="translate(513.4 7110.342)" fill="#3b4b68"/>
    </g>
    <g id="Grupo_1207604" data-name="Grupo 1207604" transform="translate(-314.495 1521.471)">
      <path id="Trazado_1327946" data-name="Trazado 1327946" d="M966.428,576.158c.045-.539.083-1,.134-1.6-.661,0-1.294.008-1.927,0-.888-.013-1.45-.444-1.451-1.1s.562-1.085,1.448-1.1c.8-.012,1.6,0,2.516,0a12.978,12.978,0,0,1,16.6-7.766,12.842,12.842,0,0,1-3.709,24.9,13.186,13.186,0,0,1-13.593-10.561v.9c0,4.554.009,9.109,0,13.663a5.371,5.371,0,0,1-3.925,5.449,6.263,6.263,0,0,1-1.74.212c-9.14.013-18.279-.028-27.418.029a5.569,5.569,0,0,1-5.638-5.608q.071-26.535,0-53.071a5.568,5.568,0,0,1,5.6-5.647q13.755.079,27.511,0a5.5,5.5,0,0,1,5.618,5.643c0,1.518,0,3.036,0,4.554,0,.062,0,.124,0,.186-.028.881-.474,1.435-1.136,1.411-.637-.023-1.053-.543-1.062-1.383-.013-1.332-.087-2.671.013-4,.248-3.282-1.69-4.336-4.274-4.31-8.767.088-17.535.033-26.3.034-2.577,0-3.83,1.247-3.83,3.812q0,26.21,0,52.42c0,2.564,1.254,3.811,3.832,3.812q13.431,0,26.861,0c2.478,0,3.694-1.23,3.7-3.72,0-.217,0-.434,0-.651q0-7.621,0-15.243a6.147,6.147,0,0,1,.01-.743,1.084,1.084,0,0,1,1.763-.83C966.141,575.94,966.255,576.033,966.428,576.158Zm12.895-10.168a10.7,10.7,0,1,0,10.742,10.743A10.737,10.737,0,0,0,979.323,565.99Z" transform="translate(0 0)" fill="#f2eceb"/>
      <path id="Trazado_1327947" data-name="Trazado 1327947" d="M983.777,658.239q0-3.1,0-6.2c0-1.474.2-1.676,1.642-1.677q4.274,0,8.547,0c1.35,0,1.585.228,1.587,1.554,0,3.84.016,7.68-.012,11.52a1.3,1.3,0,0,0,.735,1.42,2.343,2.343,0,0,1,.8.756,2.121,2.121,0,0,0,1.061.94.993.993,0,0,1,.029,1.833,2.644,2.644,0,0,0-1.121,1,2.161,2.161,0,0,1-.8.748c-.654.271-.7.741-.7,1.339.022,2.415.012,4.831.008,7.247,0,1.358-.228,1.592-1.545,1.593q-9.2,0-18.4,0c-1.267,0-1.506-.244-1.507-1.527,0-4.676.011-9.352-.014-14.028a2.092,2.092,0,0,1,.676-1.637c1.925-1.884,3.821-3.8,5.73-5.7.9-.9,1.313-.893,2.239.029.284.283.533.6.8.9Zm2.1-5.737c0,1.563-.008,3.014,0,4.464.008,1.2-.273,2.533.148,3.574.407,1.007,1.52,1.748,2.376,2.548a2.347,2.347,0,0,1,.761,1.891c-.026,4.053-.012,8.106-.012,12.16v1.039h4.292c0-2.337-.015-4.62.011-6.9a1.084,1.084,0,0,0-.62-1.081,3.131,3.131,0,0,1-.443-5.122,11.414,11.414,0,0,1,1.035-.705v-4.213c-1.456-.9-1.461-1.641-.03-2.436v-.9l-.2.107c-.286-.394-.736-.757-.819-1.19-.13-.677.463-.991,1-1.161V652.5Zm-7.49,25.7c0-1.8-.011-3.5,0-5.2a3.153,3.153,0,0,1,3.119-3.335,3.19,3.19,0,0,1,3.327,3.244c.043,1.454.008,2.911.014,4.367,0,.3.034.6.053.9h1.98v-12.74H976.274V678.2Zm6.689-15.058-3.442-3.5-3.482,3.5ZM982.663,678.2c0-1.752.008-3.416,0-5.079-.006-.84-.433-1.365-1.064-1.362s-1.056.532-1.064,1.367c-.015,1.515-.007,3.029,0,4.544a2.862,2.862,0,0,0,.106.531Zm12.878-10.765a1.046,1.046,0,1,0-1,1.132A1.1,1.1,0,0,0,995.541,667.436Z" transform="translate(-37.754 -94.026)" fill="#f2eceb"/>
      <path id="Trazado_1327948" data-name="Trazado 1327948" d="M978.956,571.6H953.2v44.924h25.753v-.944q0-5.065,0-10.13a4.162,4.162,0,0,1,.03-.834,1.061,1.061,0,0,1,2.086-.033,3.365,3.365,0,0,1,.047.739q0,5.855,0,11.71c0,1.386-.256,1.644-1.615,1.644q-13.43,0-26.859,0c-1.4,0-1.6-.205-1.6-1.619q0-23,0-46c0-1.413.262-1.674,1.681-1.674q13.337,0,26.673,0c1.433,0,1.72.3,1.724,1.761,0,.805.021,1.612-.011,2.416a1.082,1.082,0,1,1-2.148-.027C978.939,572.916,978.956,572.3,978.956,571.6Z" transform="translate(-18.987 -28.095)" fill="#f2eceb"/>
      <path id="Trazado_1327949" data-name="Trazado 1327949" d="M1161.7,553.482a12.88,12.88,0,1,1-25.759-.3,12.88,12.88,0,0,1,25.759.3Zm-23.481,1.016a10.7,10.7,0,1,0,9.609-11.734c-5.022.383-9.969,5.323-9.546,9.533,1.519.222,2.038.511,1.947,1.171C1140.07,554.65,1139.081,554.442,1138.223,554.5Z" transform="translate(-169.517 -4.619)" fill="#f2eceb"/>
      <path id="Trazado_1327950" data-name="Trazado 1327950" d="M1103.347,631.61q0,4.181,0,8.362a5.6,5.6,0,0,1-.03.834,1.062,1.062,0,0,1-2.116,0,3.909,3.909,0,0,1-.018-.649q0-8.548,0-17.1c0-.124,0-.248,0-.372.039-.784.446-1.258,1.075-1.256a1.12,1.12,0,0,1,1.079,1.257c.017,2.973.007,5.947.007,8.92Z" transform="translate(-141.214 -70.474)" fill="#f2eceb"/>
      <path id="Trazado_1327951" data-name="Trazado 1327951" d="M1124.127,631.6q0-4.22,0-8.441c0-.277-.072-.634.069-.813a2.092,2.092,0,0,1,1-.8c.529-.119.927.281,1.068.815a3.275,3.275,0,0,1,.058.828q0,8.487,0,16.974c0,1.127-.386,1.707-1.116,1.7s-1.084-.573-1.085-1.723Q1124.126,635.863,1124.127,631.6Z" transform="translate(-159.884 -70.543)" fill="#f2eceb"/>
      <path id="Trazado_1327952" data-name="Trazado 1327952" d="M1000.53,592.453a3.24,3.24,0,0,1,2.584,1.559,1.491,1.491,0,0,0,.849.731,1.013,1.013,0,0,1-.013,1.9,1.515,1.515,0,0,0-.848.735,2.476,2.476,0,0,1-.893.916,1.321,1.321,0,0,0-.765,1.476c.025.833-.363,1.24-1.039,1.246s-1.085-.4-1.066-1.223a1.524,1.524,0,0,0-.829-1.55,3.021,3.021,0,0,1-1.147-3.612A3.31,3.31,0,0,1,1000.53,592.453Zm-.117,4.272a1.035,1.035,0,1,0-.036-2.07,1.035,1.035,0,1,0,.036,2.07Z" transform="translate(-56.55 -46.881)" fill="#f2eceb"/>
      <path id="Trazado_1327953" data-name="Trazado 1327953" d="M958.9,848.42c-.371,0-.743.018-1.113,0a.964.964,0,0,1-1-1,.935.935,0,0,1,.933-1.058,19.66,19.66,0,0,1,2.411,0,.936.936,0,0,1,.918.989.964.964,0,0,1-.942,1.059c-.4.037-.8.007-1.205.007Z" transform="translate(-23.666 -253.555)" fill="#f2eceb"/>
      <path id="Trazado_1327954" data-name="Trazado 1327954" d="M1086.168,848.418c-.371,0-.743.019-1.112,0a.944.944,0,0,1-.985-1.005.923.923,0,0,1,.926-1.055,19.963,19.963,0,0,1,2.408,0,.95.95,0,0,1,.919.993.977.977,0,0,1-.952,1.055c-.4.035-.8.007-1.2.007Z" transform="translate(-127.287 -253.553)" fill="#f2eceb"/>
      <path id="Trazado_1327955" data-name="Trazado 1327955" d="M1022.511,554.39a11.825,11.825,0,0,1-1.295-.009.947.947,0,0,1-.881-1.017.928.928,0,0,1,.884-1.011,19.871,19.871,0,0,1,2.5,0,.9.9,0,0,1,.863,1.015.92.92,0,0,1-.867,1.015A10.882,10.882,0,0,1,1022.511,554.39Z" transform="translate(-75.401 -14.203)" fill="#f2eceb"/>
      <path id="Trazado_1327956" data-name="Trazado 1327956" d="M1022.456,848.418c-.37,0-.742.017-1.111,0a.973.973,0,0,1-1-1.009.949.949,0,0,1,.945-1.052,20.1,20.1,0,0,1,2.406,0,.909.909,0,0,1,.89,1,.943.943,0,0,1-.931,1.055c-.4.036-.8.007-1.2.007Z" transform="translate(-75.409 -253.554)" fill="#f2eceb"/>
      <path id="Trazado_1327957" data-name="Trazado 1327957" d="M1049.244,606.3c-.339,0-.679.02-1.016,0a.941.941,0,0,1-.967-1.018.923.923,0,0,1,.94-1.037c.706-.036,1.417-.03,2.124,0a1.029,1.029,0,0,1,.026,2.053c-.367.031-.739.006-1.108.006Z" transform="translate(-97.321 -56.458)" fill="#f2eceb"/>
      <path id="Trazado_1327958" data-name="Trazado 1327958" d="M1080.81,606.312c-.369,0-.741.029-1.106-.007a.931.931,0,0,1-.9-1.069.9.9,0,0,1,.9-.973c.737-.034,1.477-.035,2.214,0a.891.891,0,0,1,.9.974.924.924,0,0,1-.9,1.069C1081.551,606.34,1081.179,606.312,1080.81,606.312Z" transform="translate(-122.996 -56.475)" fill="#f2eceb"/>
      <path id="Trazado_1327959" data-name="Trazado 1327959" d="M1112.238,606.292a8.386,8.386,0,0,1-1.107-.009.938.938,0,0,1-.873-1.015.912.912,0,0,1,.873-1.01,17.566,17.566,0,0,1,2.307,0,.91.91,0,0,1,.871,1.011.931.931,0,0,1-.871,1.016A10.741,10.741,0,0,1,1112.238,606.292Z" transform="translate(-148.606 -56.46)" fill="#f2eceb"/>
      <path id="Trazado_1327960" data-name="Trazado 1327960" d="M1010.844,652.011a4.725,4.725,0,0,1-.036.68.975.975,0,0,1-1.027.869.939.939,0,0,1-1.037-.847,5.534,5.534,0,0,1,0-1.47.941.941,0,0,1,1.055-.825.96.96,0,0,1,.99.8A4.293,4.293,0,0,1,1010.844,652.011Z" transform="translate(-65.925 -94.071)" fill="#f2eceb"/>
      <path id="Trazado_1327961" data-name="Trazado 1327961" d="M1177.79,730.719c0-1.324,0-2.526,0-3.728a3.365,3.365,0,0,1,.044-.831.968.968,0,0,1,1.009-.789.958.958,0,0,1,1.026.762,3.885,3.885,0,0,1,.07.921q.007,4.688,0,9.376c0,.124,0,.248,0,.371-.03.87-.4,1.36-1.044,1.386-.681.028-1.074-.47-1.109-1.4-.008-.213-.027-.426-.044-.69H1167a11.136,11.136,0,0,1-.007,1.15.962.962,0,0,1-1.069.93.921.921,0,0,1-.985-.916c-.03-1.856-.04-3.714,0-5.569.015-.711.4-.962,1.306-.966,2.228-.01,4.456,0,6.684,0Zm-10.783,2.13c.017.4.032.716.044,1h10.687v-1Z" transform="translate(-193.098 -155.09)" fill="#f2eceb"/>
      <path id="Trazado_1327962" data-name="Trazado 1327962" d="M1202.085,738.7c-.462,0-.926.015-1.387,0a1.2,1.2,0,0,1-1.289-1.065,1.169,1.169,0,0,1,1.229-1.118c.985-.03,1.973-.032,2.958,0a1.064,1.064,0,0,1,1.161,1.058c.016.652-.425,1.069-1.194,1.126-.061,0-.123,0-.185,0Z" transform="translate(-221.184 -164.143)" fill="#f2eceb"/>
      <path id="Trazado_1327963" data-name="Trazado 1327963" d="M1154.9,738.7a4.663,4.663,0,0,1-.557,0,1.16,1.16,0,0,1-1.092-1.068,1.125,1.125,0,0,1,1.05-1.1,5.015,5.015,0,0,1,1.02-.009,1.066,1.066,0,0,1,1.113,1.113c-.013.613-.442,1.011-1.163,1.071-.123.01-.247,0-.371,0Z" transform="translate(-183.61 -164.149)" fill="#f2eceb"/>
      <path id="Trazado_1327964" data-name="Trazado 1327964" d="M1045.039,690.374a3.094,3.094,0,0,1,.642.044,1.066,1.066,0,0,1,.914,1.106,1.012,1.012,0,0,1-.9,1.014,3.98,3.98,0,0,1-1.374,0,1.04,1.04,0,0,1-.927-1.1,1.083,1.083,0,0,1,.914-1.023A3.908,3.908,0,0,1,1045.039,690.374Z" transform="translate(-94.169 -126.599)" fill="#f2eceb"/>
      <path id="Trazado_1327965" data-name="Trazado 1327965" d="M1044.928,675.434c-.185,0-.372.016-.556,0a1.046,1.046,0,1,1,.041-2.09,7.1,7.1,0,0,1,1.019,0,1.042,1.042,0,0,1,1.1,1.021c.014.618-.41,1.021-1.135,1.075-.154.011-.309,0-.463,0Z" transform="translate(-94.095 -112.718)" fill="#f2eceb"/>
      <path id="Trazado_1327966" data-name="Trazado 1327966" d="M1208.354,583.851a4.571,4.571,0,0,1-3.219-4.944c.032-.68,0-1.362.006-2.042.01-.956.364-1.435,1.059-1.451.721-.016,1.113.495,1.123,1.49.01.928,0,1.857.006,2.785a1.914,1.914,0,0,0,1.024,1.751c0-.55,0-.96,0-1.37,0-1.145-.018-2.29.01-3.435.019-.784.453-1.23,1.1-1.221s1.05.452,1.059,1.257c.018,1.539.005,3.079.005,4.732a1.944,1.944,0,0,0,1.09-1.866c.034-.958,0-1.919.014-2.878.013-.829.376-1.247,1.042-1.246s1.027.415,1.041,1.248c.015.959,0,1.919,0,2.878a4.179,4.179,0,0,1-2.738,4.122l-.452.2c0,1.528,0,3.042,0,4.557,0,.248.011.5,0,.743-.043.761-.486,1.25-1.1,1.233a1.136,1.136,0,0,1-1.056-1.19c-.033-.772-.011-1.547-.012-2.321C1208.353,585.895,1208.354,584.907,1208.354,583.851Z" transform="translate(-225.838 -33.01)" fill="#f2eceb"/>
      <path id="Trazado_1327967" data-name="Trazado 1327967" d="M1166.735,586.64c0-.31-.02-.621,0-.929a3.334,3.334,0,0,0-1.051-3.014c-1.595-1.508-1.408-4.759.1-6.386a2.711,2.711,0,0,1,4.1,0c1.449,1.533,1.813,5.29-.4,6.944a1.258,1.258,0,0,0-.553,1.166c.027,1.393.01,2.787.009,4.18a5.676,5.676,0,0,1-.011.65,1.162,1.162,0,0,1-1.055,1.108,1.118,1.118,0,0,1-1.125-1.124c-.041-.865-.01-1.733-.01-2.6Zm2.306-7.027a11.211,11.211,0,0,0-.616-1.659c-.322-.579-.761-.556-1.169-.038a3.282,3.282,0,0,0-.026,3.422c.411.556.9.567,1.228-.055A11.643,11.643,0,0,0,1169.04,579.613Z" transform="translate(-192.823 -32.981)" fill="#f2eceb"/>
    </g>
  </g>
</svg>
