<svg xmlns="http://www.w3.org/2000/svg" width="127" height="127" viewBox="0 0 127 127">
  <g id="Grupo_1207845" data-name="Grupo 1207845" transform="translate(-1204.971 -2025)">
    <g id="Grupo_1207190" data-name="Grupo 1207190" transform="translate(703.57 -5073.342)">
      <circle id="Elipse_13775" data-name="Elipse 13775" cx="63.5" cy="63.5" r="63.5" transform="translate(501.4 7098.342)" fill="#fbe49d"/>
      <circle id="Elipse_13776" data-name="Elipse 13776" cx="52" cy="52" r="52" transform="translate(513.4 7110.342)" fill="#3b4b68"/>
    </g>
    <g id="Grupo_1207606" data-name="Grupo 1207606" transform="translate(278.214 1500.215)">
      <path id="Trazado_1327981" data-name="Trazado 1327981" d="M966.352,571.539c0-1.544-.011-2.951,0-4.357a3.329,3.329,0,0,1,3.56-3.572c.624-.007,1.251-.026,1.872.015a2.633,2.633,0,0,1,2.092,4.051,4.03,4.03,0,0,0-.749,2.722c.013.326-.031.655-.048.961a18.9,18.9,0,0,1,3.717.629,18.3,18.3,0,0,1,3.213,2.046v-1.364c0-3.22.081-6.442-.028-9.659a3.665,3.665,0,0,1,4.022-3.988c3.676.121,7.36-.015,11.038.059a1.713,1.713,0,0,0,1.974-1.256,5.134,5.134,0,0,1,.6-1.128,4.74,4.74,0,0,1,8.211.3,3.222,3.222,0,0,0,3.583,2.1c3.377-.152,6.767-.05,10.151-.042a3.457,3.457,0,0,1,3.786,3.8q.009,25.727,0,51.453a3.455,3.455,0,0,1-3.773,3.81q-17.891.009-35.781,0c-2.446,0-3.776-1.335-3.777-3.775q-.006-13.258.015-26.515a2.2,2.2,0,0,0-.753-1.793c-.624-.573-1.156-1.247-1.719-1.867a1.954,1.954,0,0,0-.957,1.854q.029,14.785,0,29.571a1.973,1.973,0,0,0,.667,1.638,24.109,24.109,0,0,1,2.087,2.09,2.479,2.479,0,0,1,.632,1.262c.176,1.727-.2,2.1-1.933,2.1q-8.329,0-16.658,0c-1.687,0-1.886-.2-1.886-1.857q0-18.383.011-36.766a2.508,2.508,0,0,0-.663-1.836,6.033,6.033,0,0,1-1.1-6.784,6.232,6.232,0,0,1,5.7-3.886C964.364,571.491,965.285,571.539,966.352,571.539Zm20.6-5.715v45.457H1016.4V565.823c-1.3,0-2.513.06-3.722-.02a1.406,1.406,0,0,0-1.7,1.049,1.875,1.875,0,0,1-2.122,1.326c-4.63-.047-9.262-.073-13.891.011-1.444.026-2.4-.334-2.873-1.756a1.033,1.033,0,0,0-.739-.582C989.917,565.794,988.475,565.824,986.952,565.824Zm3.736-2.215c-.284-.592-.512-.989-.668-1.412a1.282,1.282,0,0,0-1.478-.939c-1.474.081-2.956.021-4.434.024-1.51,0-1.808.288-1.81,1.765q-.007,4.731,0,9.463c0,.633-.165,1.312.711,1.626.213.076.355.61.367.939a32.937,32.937,0,0,1-.016,3.546,7.273,7.273,0,0,1-.54,1.653,5.616,5.616,0,0,0-.5,1.613q-.045,16.066-.021,32.134c0,1.61.269,1.872,1.9,1.872h34.894c1.673,0,1.927-.256,1.927-1.944q0-21.538,0-43.075c0-2.694.006-5.389,0-8.083,0-1.1-.388-1.5-1.47-1.505q-2.563-.023-5.125.008a1.017,1.017,0,0,0-.748.269c-.374.6-.652,1.255-1.044,2.046,1.639,0,3.1-.006,4.569,0,1.26.007,1.567.305,1.567,1.585q.006,23.41,0,46.821c0,1.226-.317,1.546-1.5,1.547q-15.623.007-31.247,0c-1.1,0-1.463-.37-1.464-1.5q-.007-23.46,0-46.92c0-1.176.357-1.528,1.525-1.535C987.549,563.6,989.025,563.609,990.688,563.609ZM961.8,616.733c.968-.186,1.8-.377,2.634-.5.659-.094.9-.4.973-1.078.647-6.137,1.341-12.268,2.01-18.4.081-.742.387-1.271,1.17-1.344.67-.062,1.132.513,1.178,1.41q.406,7.872.8,15.745c.071,1.361.177,2.721.274,4.19l3.4-.682V592.1H961.8Zm30.318-55.417c.714,1.428,1.333,2.728,2.021,3.991a1.112,1.112,0,0,0,.811.493q6.7.046,13.4.008a.951.951,0,0,0,.725-.315c.724-1.347,1.393-2.725,2.121-4.177Zm-27.412,22.615c.384.3.69.538,1,.772,3.266,2.465,6.469,2.123,9.084-.975.994-1.178,1.94-2.4,2.987-3.527a2.084,2.084,0,0,1,1.4-.692c1.527.094,2.111-.355,2-2.105-.026-.415,0-.833,0-1.26a3.033,3.033,0,0,0-2.861.753c-2.315,2.132-4.723,4.162-7.095,6.232-1.38,1.2-1.5,1.2-2.9.085-.533-.427-1.076-.84-1.628-1.269Zm1.241-9.871-.034-.225c-.836,0-1.673-.037-2.507.007a4.129,4.129,0,0,0-3.79,5.108c.406,1.789,1.842,2.588,3.121,3.508l2.089-1.971-1.462-1.275,1.4-1.716,1.929,1.494c.829-1.589.831-1.655.073-2.586l-.939.514-1.3-1.721Zm-4.115,10.61v4.943H974.22v-2.195a2.944,2.944,0,0,0-.351.116,8.285,8.285,0,0,1-9.476-.963C963.592,585.955,962.769,585.364,961.834,584.67Zm15.156,35.712.151-.2c-.594-.552-1.177-1.116-1.788-1.649a.851.851,0,0,0-.592-.239c-1.274.241-2.539.526-3.794.795v1.289Zm-9.155.026.172-.219c-.612-.574-1.216-1.158-1.843-1.714a.709.709,0,0,0-.519-.177c-1.277.248-2.548.528-3.8.794v1.316Zm36.379-61.415c-.45-1.528-1.45-2.334-2.717-2.235a2.535,2.535,0,0,0-2.335,2.235Zm-29.254,16.2-1.3,1.733-.932-.533c-.957.782-.374,1.539-.057,2.443l4.457-3.891a3.123,3.123,0,0,0-3.593-.9Zm-4.075-5.885c-.775.044-1.648-.436-2.159.406a1.441,1.441,0,0,0,.173,1.323,1.424,1.424,0,0,0,1.257.35C971.064,571.09,970.936,570.239,970.886,569.31Zm-1.277,12.1a1.815,1.815,0,0,0,.5-2.807.815.815,0,0,0-.637-.083,6.516,6.516,0,0,0-.642,1.924C968.8,580.746,969.337,581.094,969.608,581.41Zm-.987-14.416c.912,0,1.784.05,2.644-.031.256-.024.477-.418.713-.643-.236-.165-.456-.432-.712-.473a6.058,6.058,0,0,0-1.459-.011A1.2,1.2,0,0,0,968.622,566.993Zm-.064,50.44c-.1-2.017-.194-3.891-.287-5.765a39.754,39.754,0,0,0-.687,4.086C967.468,616.523,967.767,616.994,968.558,617.433Zm2.421-42.4-1.238-.923-1.154.9c.434.41.788,1,1.115.987C970.1,575.979,970.467,575.446,970.979,575.029Zm8.969,8.46v-1.935l-1.172.857Z" fill="#f2eceb"/>
      <path id="Trazado_1327982" data-name="Trazado 1327982" d="M1130.991,645.335a10.246,10.246,0,0,1,10.208-10.226,10.241,10.241,0,1,1-.06,20.481A10.194,10.194,0,0,1,1130.991,645.335Zm13.676-.067c2.734.276,2.755.286,4.227,1.884.92-2.524-.262-6.053-2.675-7.983a8.045,8.045,0,0,0-9.382-.455c-2.47,1.614-4.063,4.952-3.527,7.07l4.486-.629c0-1.051-.043-2.164.009-3.273a3.35,3.35,0,0,1,3.346-3.309c.688-.026,1.379-.022,2.066.012a2.546,2.546,0,0,1,2.258,1.5,2.376,2.376,0,0,1-.245,2.771A2.677,2.677,0,0,0,1144.667,645.267Zm-6.865,2.4c-.727,0-1.311.009-1.894,0s-1.121.025-1.409.65a1.6,1.6,0,0,0,.265,1.732,8.045,8.045,0,0,0,10.793,1.993,2.547,2.547,0,0,0,1.42-2.624c-.142-1.43-.332-1.749-1.741-1.748-2,0-1.75-.163-1.778,1.7a2.84,2.84,0,0,1-2.805,2.835,2.9,2.9,0,0,1-2.845-2.718C1137.767,648.941,1137.8,648.383,1137.8,647.671Zm4.585-3.636c-.722.257-1.244.447-1.768.629-.713.248-.7.774-.343,1.237a1.376,1.376,0,0,0,1.028.555,1.576,1.576,0,0,0,.968-.813A5.092,5.092,0,0,0,1142.387,644.034Zm-2.255-1.717a2.317,2.317,0,0,1,.519-.193,16.487,16.487,0,0,0,2.026-.172c.291-.063.51-.459.761-.7a2.485,2.485,0,0,0-.751-.423,6.171,6.171,0,0,0-1.365-.012C1140.461,640.871,1140.155,641.249,1140.132,642.317Zm1.052,6.465-1.053-.084-.213.221c.223.315.407.852.675.9C1141.216,649.926,1141.29,649.42,1141.184,648.783Z" transform="translate(-139.554 -64.737)" fill="#f2eceb"/>
      <path id="Trazado_1327983" data-name="Trazado 1327983" d="M1122.477,744.2l-.986.123v3.346h3.234v-1.637l-1.309,1.222-1.446-1.482,4.4-4.424,1.192,1.177a19.338,19.338,0,0,0-.431,2.348c-.063,1.212,0,2.429-.023,3.644-.017,1.042-.4,1.426-1.434,1.435q-2.61.021-5.221,0c-.961-.01-1.362-.414-1.373-1.395q-.03-2.561,0-5.122c.013-.974.416-1.349,1.4-1.371.649-.014,1.3,0,2.006,0Z" transform="translate(-129.976 -150.032)" fill="#f2eceb"/>
      <path id="Trazado_1327984" data-name="Trazado 1327984" d="M1126.451,787.76l1.42,1.43c-.974.593-.757,1.516-.763,2.378-.008,1.115.015,2.231-.008,3.346-.021.989-.406,1.381-1.372,1.39q-2.657.025-5.314,0c-.915-.009-1.326-.4-1.339-1.32q-.039-2.607,0-5.215a1.194,1.194,0,0,1,1.314-1.363c.557-.023,1.115-.007,1.673,0a3.073,3.073,0,0,1,.419.067v2.08l-1.022.18v3.3h3.262v-1.637l-1.422,1.324-1.413-1.508Z" transform="translate(-129.972 -187.292)" fill="#f2eceb"/>
      <path id="Trazado_1327985" data-name="Trazado 1327985" d="M1171.354,770.413V768.3h9.026v2.113Z" transform="translate(-171.96 -171.669)" fill="#f2eceb"/>
      <path id="Trazado_1327986" data-name="Trazado 1327986" d="M1209.428,753.088h-8.978v-2.144h8.978Z" transform="translate(-195.319 -157.735)" fill="#f2eceb"/>
      <path id="Trazado_1327987" data-name="Trazado 1327987" d="M1206.221,799v-2.155h7.849V799Z" transform="translate(-199.953 -194.585)" fill="#f2eceb"/>
      <path id="Trazado_1327988" data-name="Trazado 1327988" d="M1175.851,797.292v2.04h-4.464v-2.04Z" transform="translate(-171.986 -194.945)" fill="#f2eceb"/>
      <path id="Trazado_1327989" data-name="Trazado 1327989" d="M1203.691,816.444H1200.4v-2.182h3.289Z" transform="translate(-195.281 -208.569)" fill="#f2eceb"/>
      <path id="Trazado_1327990" data-name="Trazado 1327990" d="M1171.337,816.475v-2.147h3.368v2.147Z" transform="translate(-171.946 -208.622)" fill="#f2eceb"/>
      <path id="Trazado_1327991" data-name="Trazado 1327991" d="M1171.127,753.111c0-.475-.006-.892,0-1.307,0-.254.031-.506.05-.813h3.421c0,.417.006.768,0,1.119-.007.318-.028.636-.045,1Z" transform="translate(-171.776 -157.773)" fill="#f2eceb"/>
    </g>
  </g>
</svg>
