<svg xmlns="http://www.w3.org/2000/svg" width="127" height="127" viewBox="0 0 127 127">
  <g id="Grupo_1207845" data-name="Grupo 1207845" transform="translate(-737.166 -3084.309)">
    <g id="Grupo_1207617" data-name="Grupo 1207617" transform="translate(0 144)">
      <g id="Grupo_1207190" data-name="Grupo 1207190" transform="translate(235.766 -4158.033)">
        <circle id="Elipse_13775" data-name="Elipse 13775" cx="63.5" cy="63.5" r="63.5" transform="translate(501.4 7098.342)" fill="#83433e"/>
        <circle id="Elipse_13776" data-name="Elipse 13776" cx="52" cy="52" r="52" transform="translate(513.4 7110.342)" fill="#cdb3b1"/>
      </g>
      <g id="Grupo_1207608" data-name="Grupo 1207608" transform="translate(-22.948 2464.793)">
        <path id="Trazado_1327994" data-name="Trazado 1327994" d="M874.586,530.025l-3.761-.89v4.711a15.676,15.676,0,0,1,11.739,7.413,14.9,14.9,0,0,1,2.147,10.8,15.614,15.614,0,0,1-30.976-2.073c-.367-7.236,4.717-14.878,14.251-16.141v-4.69l-3.773.872c0,.618.013,1.354,0,2.089-.026,1.194-.456,1.664-1.62,1.668-4.171.015-8.342,0-12.513.008a1.341,1.341,0,0,1-1.533-1.512q0-10.881-.011-21.763a1.716,1.716,0,0,1,1.26-1.657q7.118-3.244,14.229-6.5c1.467-.671,2.908-1.411,4.413-1.982a2.8,2.8,0,0,1,1.893.007c2.689,1.128,5.331,2.366,8.188,3.655,0-.9-.016-1.636,0-2.37.033-1.241.407-1.634,1.625-1.652q2.31-.034,4.621,0c1.167.019,1.533.4,1.545,1.587.017,1.691.044,3.384-.013,5.073a1.275,1.275,0,0,0,.873,1.359c3.665,1.754,3.058.879,3.08,4.878.034,6.277.011,12.554.008,18.831,0,1.78-.262,2.045-2.015,2.046q-5.862.006-11.724,0c-1.558,0-1.923-.375-1.932-1.926C874.583,531.231,874.586,530.6,874.586,530.025Zm2.725,1.124h10.355v-.974c0-6.166.015-12.332-.041-18.5,0-.354-.517-.85-.908-1.031q-8.221-3.814-16.49-7.523a2.284,2.284,0,0,0-1.667.015c-5.483,2.447-10.933,4.968-16.411,7.425a1.473,1.473,0,0,0-1.036,1.582c.039,5.978.02,11.956.023,17.934,0,.362.033.724.05,1.083h10.287c.2-.9.069-1.377-.949-1.649a10.175,10.175,0,0,1-7.473-6.982,1.428,1.428,0,0,1,.661-1.924,13.086,13.086,0,0,1,3.265-1.451,40.7,40.7,0,0,1,4.978-.434,1.73,1.73,0,0,0-.042-.4c-1.333-4.944,1.289-11.185,6.329-14a2.131,2.131,0,0,1,2.321.006,12.38,12.38,0,0,1,6.5,9.484,40.109,40.109,0,0,1,.036,5.133,10.591,10.591,0,0,1,7.888,1.491,1.587,1.587,0,0,1,.74,2.1,9.63,9.63,0,0,1-4.153,5.434,40.387,40.387,0,0,1-4.258,1.969Zm-6.572-7.719a5.2,5.2,0,0,0,.532-.335,10.258,10.258,0,0,0-1.172-16.013,1.089,1.089,0,0,0-1.4.02,10.5,10.5,0,0,0-4.18,11.1,9.418,9.418,0,0,0,3.443,5.281c.249-2.68.591-5.248-2.042-6.92-.12-.076-.279-.227-.276-.34.012-.523-.1-1.179.171-1.528.231-.3.916-.306,1.4-.317.245-.006.5.265.847.472,0-1.013-.009-1.911,0-2.809s.317-1.585,1.337-1.584,1.323.7,1.335,1.587,0,1.744,0,2.807c.923-.663,1.694-.773,2.262.021.589.824.087,1.472-.523,2.054a12.489,12.489,0,0,0-1.255,1.289,2.03,2.03,0,0,0-.461,1.068C870.706,520.594,870.739,521.906,870.739,523.431Zm.888,3.024c4.148,2.149,10.26-.038,11.38-4.127a8.052,8.052,0,0,0-5.669-.659,4.564,4.564,0,0,0-2.121.931C873.945,523.787,872.829,525.142,871.628,526.454Zm-15.807-4.148c1.541,4.229,7.443,6.315,11.235,4.142a32.555,32.555,0,0,1-2.911-3.2,3.861,3.861,0,0,0-2.457-1.594A8.224,8.224,0,0,0,855.821,522.306Zm17.992,19.763a40.4,40.4,0,0,0-2.448-4.475c-1.158-1.616-2.751-1.638-3.932-.04a39.13,39.13,0,0,0-2.515,4.474A12.3,12.3,0,0,0,873.813,542.069Zm-.242,14.572a13.058,13.058,0,0,0-8.724.121,43.892,43.892,0,0,0,2.7,4.594c1.112,1.472,2.487,1.4,3.708.019A10.759,10.759,0,0,0,873.571,556.641Zm.638-2.578.4-3.3h-10.44c.112,1.134.216,2.182.326,3.3A16.946,16.946,0,0,1,874.209,554.063Zm-10.03-5.984h10.366c-.1-1.132-.2-2.183-.277-3.093-1.781.179-3.34.463-4.9.458-1.591-.005-3.182-.294-4.882-.47Zm18.022,2.695c-.32-.018-.648-.052-.977-.053-1.163,0-2.328-.03-3.488.032-.212.011-.542.373-.58.611-.167,1.035-.271,2.082-.339,3.129a1.109,1.109,0,0,0,.278.846c.862.637,1.782,1.2,2.672,1.781A10.072,10.072,0,0,0,882.2,550.774Zm-25.834-.011a12.411,12.411,0,0,0,2.591,6.363c.922-.61,1.779-1.14,2.587-1.737a1.068,1.068,0,0,0,.4-.794c-.109-1.263-.3-2.52-.462-3.831Zm20.794-2.678H882.3a11.964,11.964,0,0,0-2.561-6.366c-.919.6-1.762,1.1-2.53,1.7a1.318,1.318,0,0,0-.438.973C876.838,545.583,877.013,546.773,877.162,548.084Zm-15.679.009c.161-1.282.341-2.506.449-3.736a1.089,1.089,0,0,0-.334-.837c-.832-.626-1.721-1.178-2.666-1.809a12.5,12.5,0,0,0-2.549,6.383Zm22.225-41.706v-3.742H881.24C881.055,505.7,880.641,504.984,883.708,506.387Zm-7.626,51.384-1.319,3.318.225.163,3.064-2.089Zm-12.323,3.476.18-.243-1.333-3.227-1.971,1.417Zm14.329-21.6-3.091-2.007-.193.234,1.308,3.15Zm-14.155-1.838-.18-.2-3.089,2.061L862.619,541Z" transform="translate(-46.297 0)" fill="#262626"/>
        <path id="Trazado_1327995" data-name="Trazado 1327995" d="M1032.007,743.071c-.419-1.483-.83-2.883-1.209-4.292a3.428,3.428,0,0,1,2.111-4.1,3.12,3.12,0,0,1,4.049,2.063c.867,2.437,1.726,4.878,2.536,7.334a3.825,3.825,0,0,1,.135,1.64c-.465,3.572-.935,7.144-1.5,10.7a5.118,5.118,0,0,1-1.006,2.286c-1.706,2.142-3.521,4.2-5.385,6.389,1.52,1.589,1.075,3.244.112,4.923-.447.779-.777,1.625-1.211,2.412a3.236,3.236,0,0,1-4.339,1.437q-4.063-1.932-8.085-3.951a3.234,3.234,0,0,1-1.536-4.563c.5-1.052,1.043-2.078,1.547-3.126a3.494,3.494,0,0,1,2.781-2.027,1.374,1.374,0,0,0,.921-.692,28.632,28.632,0,0,1,4.26-7.735c1.4-1.745,2.151-4.017,3.132-6.082A4.732,4.732,0,0,1,1032.007,743.071Zm-7.824,18.112c1.55.773,3.012,1.453,4.424,2.227a.933.933,0,0,0,1.407-.283c1.626-1.97,3.32-3.883,4.947-5.853a3,3,0,0,0,.641-1.393c.494-3.343.944-6.693,1.376-10.045a3.114,3.114,0,0,0-.133-1.32c-.723-2.211-1.469-4.415-2.259-6.6-.112-.31-.5-.52-.762-.777-.142.382-.462.8-.4,1.14a34,34,0,0,0,.925,3.48,6.467,6.467,0,0,0,.845,2.038,3.456,3.456,0,0,1,.434,3.9c-1.108,2.3-2.256,4.578-3.384,6.868-.392.8-.949,1.293-1.884.94-.784-.3-.96-1.091-.473-2.09,1.085-2.227,2.209-4.435,3.266-6.675a3.14,3.14,0,0,0,.041-1.187c-.377.19-.874.289-1.1.591a11.887,11.887,0,0,0-.942,1.787c-.959,1.867-1.629,3.979-2.948,5.542A23.213,23.213,0,0,0,1024.183,761.182Zm3.577,10.468c.191-.156.459-.275.567-.479a36.383,36.383,0,0,0,1.63-3.327,1.177,1.177,0,0,0-.448-1.053q-3.849-1.975-7.777-3.791a1.243,1.243,0,0,0-1.137.4c-.573.917-.972,1.941-1.489,2.9-.381.7-.164,1.107.5,1.429,2.462,1.191,4.915,2.4,7.373,3.6C1027.215,771.434,1027.459,771.524,1027.76,771.651Z" transform="translate(-186.625 -196.172)" fill="#262626"/>
        <path id="Trazado_1327996" data-name="Trazado 1327996" d="M801.082,765.1c-1.866-2.208-3.7-4.34-5.48-6.518a3.682,3.682,0,0,1-.81-1.675q-.872-5.847-1.59-11.717a4.546,4.546,0,0,1,.4-1.841c.714-2.134,1.473-4.253,2.2-6.384a3.145,3.145,0,0,1,4.021-2.291,3.426,3.426,0,0,1,2.169,4.255c-.383,1.367-.765,2.734-1.167,4.172a4.882,4.882,0,0,1,2.849,2.93c.674,1.465,1.383,2.917,2.146,4.338a14.177,14.177,0,0,0,1.54,2.322,20.488,20.488,0,0,1,3.343,6.463c.241.687.5,1.129,1.37,1.157a2.821,2.821,0,0,1,2.388,1.663c.617,1.159,1.212,2.332,1.751,3.529a3.183,3.183,0,0,1-1.536,4.388c-2.707,1.379-5.442,2.706-8.188,4.007a3.2,3.2,0,0,1-4.256-1.407c-.612-1.118-1.135-2.285-1.717-3.42A3.366,3.366,0,0,1,801.082,765.1Zm7.6-3.9c-1.027-2.761-1.93-5.464-4.056-7.529a3.776,3.776,0,0,1-.659-1.035c-1.043-2.079-2.036-4.184-3.134-6.234-.2-.368-.8-.518-1.219-.768a3.6,3.6,0,0,0,.08,1.281c1.056,2.24,2.157,4.459,3.279,6.666.412.811.338,1.519-.454,1.926-.847.434-1.513.04-1.925-.8-1.159-2.356-2.332-4.706-3.482-7.067a3.052,3.052,0,0,1,.139-3.321c1.374-1.818,1.436-4.06,2.122-6.1.092-.274-.253-.7-.4-1.048-.267.242-.667.435-.778.736-.624,1.688-1.24,3.384-1.733,5.113a9.447,9.447,0,0,0-.55,3.369c.3,3.023.806,6.025,1.269,9.03a3.582,3.582,0,0,0,.559,1.668c1.7,2.1,3.471,4.147,5.269,6.167a1.2,1.2,0,0,0,1.1.2C805.62,762.787,807.078,762.012,808.685,761.2Zm5.336,5.927c-.134-.331-.2-.543-.3-.742-.445-.908-.927-1.8-1.339-2.723a.944.944,0,0,0-1.508-.537q-3.719,1.857-7.466,3.659a.879.879,0,0,0-.488,1.359c.488.971.991,1.934,1.461,2.913.321.669.747.707,1.368.4,2.51-1.261,5.038-2.487,7.55-3.743A4.251,4.251,0,0,0,814.022,767.131Z" transform="translate(0 -196.194)" fill="#262626"/>
      </g>
    </g>
  </g>
</svg>
