<svg xmlns="http://www.w3.org/2000/svg" xmlns:xlink="http://www.w3.org/1999/xlink" width="135.176" height="127.499" viewBox="0 0 135.176 127.499">
  <defs>
    <clipPath id="clip-path">
      <rect id="Rectángulo_400938" data-name="Rectángulo 400938" width="120" height="120" fill="none"/>
    </clipPath>
  </defs>
  <g id="Grupo_1207844" data-name="Grupo 1207844" transform="translate(-468 -3763.406)">
    <g id="Grupo_108927" data-name="Grupo 108927" transform="translate(84.059 -703.594)">
      <path id="Rectángulo_36179" data-name="Rectángulo 36179" d="M0,0H129.117V127.5H0Z" transform="translate(390 4467)" fill="#f9f7f0"/>
    </g>
    <g id="Grupo_1207743" data-name="Grupo 1207743" transform="translate(-730.393 3287.047)">
      <path id="Trazado_1328385" data-name="Trazado 1328385" d="M1268.435,596.081c-18.572-.207-34.86-12.835-38.884-30.865-3.659-16.394,1.421-30,14.321-40.681a1.909,1.909,0,0,0,.815-2.459,24.793,24.793,0,0,1,14.953-31.1c14.923-5.772,31.819,4.527,33.6,20.425a25.268,25.268,0,0,1-1.232,11.063,1.323,1.323,0,0,0,.571,1.768c10.562,8.276,15.956,19.183,15.823,32.563a39.693,39.693,0,0,1-31.7,38.16C1273.979,595.517,1271.19,595.717,1268.435,596.081ZM1240.4,566.341c3.252,10.48,14.369,18.615,24.685,19.243.036-3.478,1.015-5.293,3.453-6.054a10.758,10.758,0,0,1,2.843-.313c1.1-.034,1.937-.355,1.944-1.6.008-1.223-.777-1.655-1.9-1.651a36.615,36.615,0,0,1-4.464-.044,7.751,7.751,0,0,1-3.208-1.054,4.676,4.676,0,0,1-1.74-5.5,5.134,5.134,0,0,1,4.979-3.46c3.988-.033,7.977-.009,11.966-.01,2.584,0,2.987-.485,2.556-3.239-1.548,0-3.124.045-4.7-.01a5,5,0,0,1-5.046-5.308,5.05,5.05,0,0,1,5.216-4.717c3.839-.036,7.678-.009,11.524-.009-.316-4.639,1.578-6.632,6.191-6.633h1.991a20.189,20.189,0,0,0-1.315-3c-1.709-2.6-3.566-5.095-5.254-7.7a2.774,2.774,0,0,1-.318-2.156c.15-.409,1.154-.678,1.779-.682.407,0,.877.529,1.219.91,7.095,7.9,10.071,17.08,8.493,27.637-3.02,20.2-23.84,33.016-43.552,26.482-19.29-6.395-28.494-29.2-18.766-47.016a64.524,64.524,0,0,1,5.253-7.362,1.59,1.59,0,0,1,2.506-.371c.9.779.74,1.681.017,2.539a5.167,5.167,0,0,0-.4.7c1.936,0,3.712.076,5.473-.049.494-.035,1-.612,1.384-1.046.115-.131-.087-.706-.3-.933-2.179-2.332-4.39-4.635-6.633-6.989-10.742,7.458-17.542,22.834-13.316,38.467a36.509,36.509,0,0,0,35.808,27.153c16.826-.271,31.394-11.792,35.232-27.74,3.926-16.314-3.734-31.274-13.872-38.1a25.394,25.394,0,0,1-15.612,11.861c1.361,4.562-.742,7.395-5.385,7.4q-5.623,0-11.245,0c-2.593,0-3.108.633-2.589,3.389,1.734,0,3.509-.1,5.27.02a4.943,4.943,0,0,1-.671,9.858c-3.88,0-7.76,0-11.723,0,.521,2.353.143,4.529-1.866,5.578C1244.583,565.734,1242.44,565.855,1240.4,566.341Zm28.07-30.362a21.585,21.585,0,1,0-21.7-21.506A21.513,21.513,0,0,0,1268.471,535.978Zm16.733,26.684c-.042.334-.08.516-.087.7-.16,4.2-1.987,5.952-6.223,5.954q-5.547,0-11.094,0c-1.91,0-2.693.457-2.726,1.584-.035,1.167.776,1.646,2.789,1.649,1.3,0,2.6-.048,3.889.019a5.178,5.178,0,0,1,4.994,4.852,5.072,5.072,0,0,1-4.361,5.115c-.8.132-1.631.025-2.443.1a1.508,1.508,0,0,0-1.506,1.614,1.406,1.406,0,0,0,1.538,1.538,28.6,28.6,0,0,0,12.755-3.584,3.137,3.137,0,0,0-.328-.41c-2.129-1.794-2.825-3.735-2.071-5.79.816-2.222,2.725-3.439,5.441-3.45,2.113-.008,4.229-.059,6.339.024a1.914,1.914,0,0,0,1.951-1.084,29.336,29.336,0,0,0,4.124-18.627c-.4-3.567-.421-3.55-4.062-3.529-1.085.006-2.123.112-2.312,1.4-.186,1.267.66,1.647,1.771,1.981a2.464,2.464,0,0,1,1.38,1.67c.168,1-.669,1.5-1.635,1.6a10.649,10.649,0,0,1-1.152.019c-4.995,0-9.989-.006-14.984.007-1.4,0-2.367.872-2.1,1.9.27,1.051,1.048,1.362,2.086,1.353,3.506-.03,7.012-.018,10.518-.008,1.566,0,2.375.594,2.311,1.724-.078,1.385-1.038,1.694-2.214,1.686C1286.976,562.658,1286.161,562.663,1285.2,562.663Zm-28.84-26.392c-1.295,2.516-3.437,3.22-6.043,3.1-1.774-.085-3.562.078-5.331-.048a2.359,2.359,0,0,0-2.464,1.452,30.433,30.433,0,0,0-3.78,19.991c.2,1.436.679,2.182,2.246,1.921a14,14,0,0,1,2.015-.022c1.093-.02,1.918-.476,1.991-1.639.069-1.1-.7-1.515-1.682-1.812a2.376,2.376,0,0,1-1.428-1.143,1.836,1.836,0,0,1,.473-1.624,2.827,2.827,0,0,1,1.737-.418c4.854-.03,9.708-.017,14.562-.017.384,0,.769.01,1.153-.009,1.117-.055,1.919-.635,1.89-1.748s-.872-1.633-1.987-1.633c-3.556,0-7.113-.012-10.669.005-1.159.006-2.169-.163-2.26-1.594-.074-1.147.668-1.668,2.3-1.683.839-.008,1.678,0,2.51,0,.006-5.412,2.731-6.929,7.072-6.714,3.643.181,7.3.034,10.956.036,1.156,0,2.051-.429,2.062-1.69.01-1.2-.873-1.68-1.95-1.641A26.1,26.1,0,0,1,1256.365,536.271Zm33.871,39.7c-1.679,0-3.357-.005-5.036,0a1.554,1.554,0,0,0-1.758,1.66c.02,1.078.768,1.45,1.832,1.6C1287.862,579.6,1288.893,577.594,1290.236,575.968Z" transform="translate(0 0)"/>
      <path id="Trazado_1328386" data-name="Trazado 1328386" d="M1409.013,667.723a5,5,0,0,1-5.073,4.962,4.982,4.982,0,1,1,5.073-4.962Zm-3.066.3,0-.682c-.642-.425-1.243-1.1-1.937-1.216-.988-.166-1.63.6-1.628,1.582a1.43,1.43,0,0,0,1.649,1.568C1404.722,669.157,1405.313,668.46,1405.947,668.022Z" transform="translate(-121.47 -123.369)"/>
      <path id="Trazado_1328387" data-name="Trazado 1328387" d="M1305.5,753.438a4.938,4.938,0,1,1,.379-9.868,4.938,4.938,0,1,1-.379,9.868Zm2.514-4.99c-1.061-.742-1.655-1.465-2.339-1.562-.927-.132-1.559.618-1.644,1.594-.077.875.932,1.929,1.723,1.66A10.441,10.441,0,0,0,1308.016,748.448Z" transform="translate(-51.467 -180.901)"/>
      <path id="Trazado_1328388" data-name="Trazado 1328388" d="M1314.634,542.957c-2.948,1.547-4.53,1.086-6.191-1.787-.6-1.038-1.232-2.062-1.779-3.128a3.328,3.328,0,0,1,1.195-4.639,1.688,1.688,0,0,0,.9-1.721c-.027-1.474.11-2.783-1.529-3.765-1.285-.77-1.379-2.487-.636-3.907.778-1.487,1.613-2.951,2.518-4.364a3.422,3.422,0,0,1,4.577-1.158,1.439,1.439,0,0,0,1.9-.086,4.29,4.29,0,0,1,1.367-.786,1.35,1.35,0,0,0,.994-1.488,3.4,3.4,0,0,1,3.474-3.466c1.487-.054,2.979-.044,4.468,0a3.438,3.438,0,0,1,3.585,3.509,1.291,1.291,0,0,0,.893,1.407c.576.218,1.059.685,1.638.888a2.227,2.227,0,0,0,1.482.089,3.638,3.638,0,0,1,5.07,1.5c.746,1.231,1.488,2.467,2.157,3.741a3.423,3.423,0,0,1-1.189,4.778c-1.209.856-1.221,3.912-.019,4.759a3.414,3.414,0,0,1,1.216,4.768c-.731,1.4-1.526,2.778-2.374,4.113a3.376,3.376,0,0,1-4.548,1.23,1.543,1.543,0,0,0-2.14.2c-.678.7-2.12.444-2.182,1.934-.1,2.4-1.476,3.659-3.854,3.691-1.3.017-2.595.021-3.892,0a3.614,3.614,0,0,1-3.845-3.6,2.076,2.076,0,0,0-.807-1.264A24.521,24.521,0,0,0,1314.634,542.957Zm-2.574-21.786-2.7,4.672c3.3.525,3,2.762,2.708,5a.49.49,0,0,0,0,.144c.4,2.322.418,4.476-2.665,5.2l2.577,4.407a10.065,10.065,0,0,0,1.178-.663,2.31,2.31,0,0,1,3.445.206,4.385,4.385,0,0,0,1.808,1.15c2.232.593,3.13,1.966,2.806,4.212-.01.071.09.158.155.264h4.829a4.9,4.9,0,0,0,.054-.962,2.518,2.518,0,0,1,2.09-3.188,3.865,3.865,0,0,0,1.753-.957c1.635-1.741,3.282-1.648,5.04-.26.059.047.18.015.422.029l2.471-4.3c-2.783-.676-3.205-2.443-2.692-4.692a2.174,2.174,0,0,0,0-1c-.6-2.245.125-3.814,2.31-4.677.065-.026.087-.161.177-.341l-2.363-4.066a6.812,6.812,0,0,0-1,.536,2.505,2.505,0,0,1-3.805-.236,3.581,3.581,0,0,0-1.572-.988c-2.295-.581-3.225-1.993-2.89-4.3.009-.062-.115-.143-.189-.231h-4.962c.953,2.928-.876,3.941-3.06,4.7a1.071,1.071,0,0,0-.363.23C1315.886,522.68,1314.085,523.386,1312.06,521.171Z" transform="translate(-55.318 -16.556)"/>
      <path id="Trazado_1328389" data-name="Trazado 1328389" d="M1346.48,564.055a8.266,8.266,0,1,1,8.362-8.294A8.307,8.307,0,0,1,1346.48,564.055Zm4.955-8.219a4.951,4.951,0,1,0-4.928,4.972A5.02,5.02,0,0,0,1351.435,555.837Z" transform="translate(-78.09 -41.391)"/>
    </g>
  </g>
</svg>
