<svg xmlns="http://www.w3.org/2000/svg" xmlns:xlink="http://www.w3.org/1999/xlink" width="135.059" height="129" viewBox="0 0 135.059 129">
  <defs>
    <clipPath id="clip-path">
      <rect id="Rectángulo_400938" data-name="Rectángulo 400938" width="120" height="120" fill="none"/>
    </clipPath>
  </defs>
  <g id="Grupo_1207845" data-name="Grupo 1207845" transform="translate(-468 -3932.406)">
    <g id="Grupo_108927" data-name="Grupo 108927" transform="translate(84 -534.594)">
      <rect id="Rectángulo_36179" data-name="Rectángulo 36179" width="129" height="127" transform="translate(390.059 4467)" fill="#f9f7f0"/>
    </g>
    <g id="Grupo_1207744" data-name="Grupo 1207744" transform="translate(-682.632 3464.733)">
      <path id="Trazado_1328390" data-name="Trazado 1328390" d="M1221.545,487.707q13.01,0,26.021,0c2.445,0,3.436.982,3.445,3.406.006,1.57-.059,3.143.035,4.708a2.387,2.387,0,0,0,.709,1.555,42.486,42.486,0,0,1,14.775,23.068c3.085,12.607,1.1,24.424-6.239,35.133a42.382,42.382,0,0,1-30.318,18.664c-18.839,2.605-37.773-7.794-45.275-25.177-7.185-16.649-4.764-32.139,6.6-46.257a3.315,3.315,0,0,0,.688-1.875c.068-3.335.026-6.671.034-10.007.006-2.2,1.037-3.215,3.264-3.217Q1208.417,487.7,1221.545,487.707Zm-29.191,18.383a40,40,0,0,0-8.266,31.6,40.5,40.5,0,0,0,10.659,21.388V546.548h-5.472v-2.676h20.895V546.6h-6.96v1.275c0,5.613.034,11.227-.027,16.84-.013,1.22.39,1.519,1.553,1.513,8.008-.044,16.016-.022,24.023-.026.377,0,.753-.043,1.146-.067V553.617h-1.33c-3.3,0-6.6.047-9.892-.02a5.422,5.422,0,0,1-5.066-3.248,4.948,4.948,0,0,1,.742-5.816c.987-1.058,2.671-1.477,3.627-2.551,1.019-1.144,1.832-2.467,3.292-3.084a29.306,29.306,0,0,1,3.041-.927V536.7c0-5.26-.017-10.52.008-15.78a5.553,5.553,0,0,1,4.925-5.665c1.62-.24,3.237-.494,5.052-.772-.157-.661-.1-1.437-.465-1.777a7.882,7.882,0,0,1-2.544-5.263h-28.031v6.779a16.258,16.258,0,0,1,2.545.658,2.1,2.1,0,0,0,1.85,0,6.974,6.974,0,0,1,8.556,2.746,3.458,3.458,0,0,0,1.549,1.228,5.761,5.761,0,0,1,3.736,5.107,5.651,5.651,0,0,1-5.9,5.825c-3.689.043-7.38.008-11.069.014-.411,0-.822.046-1.233.071V538.2h9.659v2.64a1.375,1.375,0,0,1-.3.094c-7.026.005-14.052.048-21.078-.016a5.052,5.052,0,0,1-4.631-3.127,5.381,5.381,0,0,1,.42-5.595,5.654,5.654,0,0,1,6.467-2.122,5.34,5.34,0,0,1,3.64,5.3c-.564,0-1.146-.038-1.721.01-.666.056-.945-.188-1.135-.853a2.669,2.669,0,0,0-3.094-1.91,2.8,2.8,0,0,0-2.334,2.941,2.729,2.729,0,0,0,2.714,2.572c1.529.048,3.061.016,4.592.017,1.28,0,2.559,0,3.857,0V507.412h-2.774v20.851h-2.766V526.89c0-5.927-.015-11.855.014-17.782,0-1.03.037-1.915-1.3-2.146C1193.124,506.892,1192.786,506.425,1192.354,506.091ZM1249.7,563c9.71-8.232,15.042-18.373,15.333-30.888.292-12.548-4.478-22.992-13.873-31.36a22.84,22.84,0,0,0-.153,3.164c-.008,2.024-.419,2.615-2.252,3.383-.23.1-.532.393-.536.6-.04,2.109-.024,4.219-.024,6.3,2.908.764,4.146,1.957,4.168,4.185.048,4.788.021,9.578.012,14.367a3.6,3.6,0,0,1-1.818,3.237,1.767,1.767,0,0,0-.949,1.791c.03,7.929.017,15.859.021,23.788C1249.633,561.942,1249.67,562.321,1249.7,563Zm-4.15-58.58h2.567V490.586h-53.238v13.832h36.35c.9-4.383,3.2-6.7,6.743-6.84C1241.976,497.421,1244.145,499.369,1245.555,504.418Zm-12.8,35.086h13.935v-2.776c-2.245,0-4.4,0-6.547,0-2.878-.009-4.536-1.639-4.543-4.5-.011-4.473,0-8.946,0-13.419v-1.648c-1.852.251-3.6.486-5.343.725-2.269.311-3.122,1.289-3.123,3.6q0,10.771,0,21.541c0,.314-.1.707.045.924.3.447.727,1.088,1.138,1.117a2.248,2.248,0,0,0,1.471-.818c.234-.252.18-.814.18-1.236q.015-8.769.007-17.539v-1.2h2.782Zm.074,2.9v28.577c1.538-.445,2.947-.9,4.384-1.251.923-.222,1.208-.657,1.2-1.623-.045-8.151-.025-16.3-.028-24.455,0-.412-.034-.824-.053-1.247Zm8.458.022v25.761c1.592-.878,3.01-1.689,4.457-2.447a1.807,1.807,0,0,0,1.067-1.856c-.045-6.749-.024-13.5-.026-20.249,0-.383-.032-.766-.052-1.21Zm-37.717-25.45-.355.324c0,3.009-.015,6.018.033,9.026,0,.214.474.6.729.6,4.034.033,8.069.061,12.1-.01a2.65,2.65,0,0,0,2.578-2.914,2.617,2.617,0,0,0-2.76-2.591c-1.03.052-1.392-.3-1.667-1.263a4.081,4.081,0,0,0-6.317-2.254c-.39.26-.752.56-1.024.764Zm39.223-10.908-.269-.049a18.6,18.6,0,0,0-.011-2,4.17,4.17,0,0,0-8.308.293c-.046,1.058-.041,2.12,0,3.178a4.159,4.159,0,0,0,3.268,3.958,4,4,0,0,0,4.487-2.026A16.238,16.238,0,0,0,1242.793,506.067Zm-18.473,34.878c-2.73.292-3.9,1.921-4.351,4.247-.336,0-.568,0-.8,0-1.961-.009-3.227,1.046-3.272,2.726-.046,1.716,1.245,2.861,3.272,2.868,3.25.011,6.5.005,9.751,0,.334,0,.669-.047.987-.071v-2.9c-3.422.62-5.58-1.208-5.587-4.665C1224.319,542.45,1224.32,541.751,1224.32,540.945Zm25.259-16.829c0-1.969.083-3.883-.064-5.78a1.817,1.817,0,0,0-1.343-1.128c-2.781-.108-5.571-.108-8.352,0a1.81,1.81,0,0,0-1.332,1.133c-.146,1.9-.063,3.812-.063,5.757h4.175v-2.665h2.761c.048.916.094,1.791.141,2.681Zm-11.179,2.894c0,1.933-.02,3.73.008,5.525a1.315,1.315,0,0,0,1.415,1.407c2.781.031,5.564.067,8.34-.041a1.824,1.824,0,0,0,1.351-1.126c.148-1.891.064-3.8.064-5.733h-4.173v2.677h-2.831v-2.71Zm-38.043,37.014V546.654h-2.6a1.209,1.209,0,0,0-.1.287c-.011,4.784-.026,9.568-.007,14.352a1.352,1.352,0,0,0,.419.886C1198.729,562.777,1199.454,563.306,1200.357,564.023Zm9.711,5.016a38.008,38.008,0,0,0,19.844,2.363v-2.363Zm35.288-59.811a30.38,30.38,0,0,1-2.125,3.064,1.8,1.8,0,0,0-.513,1.978h2.639Z" transform="translate(0 0)"/>
      <path id="Trazado_1328391" data-name="Trazado 1328391" d="M1203.487,817.521v2.726a5.106,5.106,0,0,1-.6.075c-5.412,0-10.824.041-16.235-.013a5.6,5.6,0,1,1,5.653-5.687h-2.667c-.711-1.995-1.611-2.783-3.068-2.692a2.8,2.8,0,0,0-2.659,2.887,2.765,2.765,0,0,0,2.844,2.7c4,.026,8,.009,12,.01Z" transform="translate(-0.343 -245.705)"/>
      <path id="Trazado_1328392" data-name="Trazado 1328392" d="M1259.114,511.871h11.056v8.275h-11.056Zm2.833,2.784v2.695h5.4v-2.695Z" transform="translate(-59.996 -18.473)"/>
      <path id="Trazado_1328393" data-name="Trazado 1328393" d="M1318.525,514.7v-2.6h21.01v2.6Z" transform="translate(-105.414 -18.645)"/>
      <path id="Trazado_1328394" data-name="Trazado 1328394" d="M1318.526,538.347v-2.642h16.785v2.642Z" transform="translate(-105.414 -36.693)"/>
      <path id="Trazado_1328395" data-name="Trazado 1328395" d="M1420.3,511.883h2.659v2.639H1420.3Z" transform="translate(-183.215 -18.482)"/>
      <path id="Trazado_1328396" data-name="Trazado 1328396" d="M1446.675,511.915v2.62h-2.721v-2.62Z" transform="translate(-201.299 -18.507)"/>
    </g>
  </g>
</svg>
