<svg xmlns="http://www.w3.org/2000/svg" xmlns:xlink="http://www.w3.org/1999/xlink" width="134.711" height="129" viewBox="0 0 134.711 129">
  <defs>
    <clipPath id="clip-path">
      <rect id="Rectángulo_400938" data-name="Rectángulo 400938" width="120" height="120" fill="none"/>
    </clipPath>
  </defs>
  <g id="Grupo_1207847" data-name="Grupo 1207847" transform="translate(-470 -4751.943)">
    <g id="Grupo_108927" data-name="Grupo 108927" transform="translate(85.652 284.943)">
      <rect id="Rectángulo_36179" data-name="Rectángulo 36179" width="129" height="127" transform="translate(390.059 4467)" fill="#f9f7f0"/>
    </g>
    <g id="Grupo_1207746" data-name="Grupo 1207746" transform="translate(-689.622 4280.746)">
      <path id="Trazado_1328400" data-name="Trazado 1328400" d="M1187.216,703.842h-3.3c-.027.475-.069.867-.069,1.26,0,4.295-.014,8.589,0,12.884.014,4.079,2.245,6.612,6.287,7.182,1.674.236,2.006.584,2.009,2.223.009,4.695,0,9.39,0,14.193h-3.235V728.416c-3.6-.874-6.263-2.756-7.561-6.156a11.287,11.287,0,0,1-.739-3.776c-.081-5.278-.04-10.557-.032-15.836,0-1.708.526-2.221,2.26-2.234,1.834-.015,3.669-.019,5.5,0,1.631.018,2.177.565,2.181,2.187.01,4.608,0,9.216.009,13.824,0,1.63.49,2.093,2.205,2.028a8.234,8.234,0,0,1,1.882-9.005,7.832,7.832,0,0,1,6.187-2.392,8,8,0,0,1,6.6,3.78c1.214,1.836,1.3,2.891.866,7.655.612.062,1.233.087,1.838.2.565.1,1.114.3,1.823.494.028-.493.071-.908.071-1.323q.007-7.449,0-14.9c0-2.066.474-2.545,2.507-2.553q2.483-.009,4.966,0c2.057.008,2.479.441,2.48,2.551,0,4.474-.009,8.948.007,13.421.006,1.682.588,2.213,2.206,2.034-1.292-4.143-.369-7.655,3.317-10.072a7.625,7.625,0,0,1,8.964.089c3.526,2.415,4.458,5.857,3.149,9.964l3.785.693c.02-.391.055-.775.056-1.16q.006-7.515.005-15.031c0-1.952.529-2.48,2.448-2.489,1.565-.008,3.131,0,4.7,0,2.493,0,2.814.314,2.816,2.754,0,4.384-.01,8.768.007,13.153.006,1.707.523,2.21,2.211,2.156-1.279-4.292-.342-7.918,3.588-10.294a7.782,7.782,0,0,1,8.858.343c3.069,2.068,3.877,4.828,3.1,9.717a28.954,28.954,0,0,1,4.519,1.482,7.419,7.419,0,0,1,4.174,6.733c.114,5.006.031,10.017.031,15.132h-3.254v-1.358c0-4.25.009-8.5,0-12.75-.01-3.565-2.023-5.58-5.565-5.6a19.1,19.1,0,0,1-2.946-.042c-.667-.11-1.643-.466-1.81-.946a2.586,2.586,0,0,1,.546-2.092c1.977-2.369,1.958-5.244-.191-7.188a4.937,4.937,0,0,0-7.089,6.843c.2.239.538.423.621.691.174.562.453,1.264.254,1.719a1.983,1.983,0,0,1-1.426.958,29.63,29.63,0,0,1-4.557,0,4.862,4.862,0,0,1-4.346-4.959c-.032-3.8-.01-7.605-.011-11.408v-1.58h-3.252c-.02.375-.062.8-.062,1.227,0,4.295-.012,8.59,0,12.884.012,4.133,2.17,6.6,6.247,7.182,1.637.233,2.011.58,2.017,2.089.02,4.518.009,9.037,0,13.555a6.768,6.768,0,0,1-.1.821h-3.194V728.464l-3.221-1.141v14.266h-3.308c-.022-.428-.067-.9-.067-1.363-.005-4.205.005-8.411-.006-12.616-.01-3.773-1.952-5.72-5.69-5.733a18.961,18.961,0,0,1-2.946-.044c-.622-.1-1.512-.477-1.681-.946a2.386,2.386,0,0,1,.46-1.989c1.492-1.721,2.053-3.543,1.075-5.671a4.932,4.932,0,0,0-9.018.069,4.632,4.632,0,0,0,.858,5.246c.63.684,1.271,1.334.832,2.341s-1.353,1.023-2.281,1c-.984-.025-1.969.005-2.952-.009a4.9,4.9,0,0,1-5.147-5.137c-.024-4.026-.007-8.053-.01-12.079,0-.219-.028-.437-.052-.776h-3.3c0,.955,0,1.885,0,2.814,0,3.713-.011,7.426,0,11.139.016,4.306,2.128,6.747,6.391,7.339,1.115.155,1.887.54,1.887,1.8q0,7.113-.013,14.226a1.82,1.82,0,0,1-.122.427h-3.138v-13.16l-3.249-1.149v14.293h-3.385V740.2c0-4.294.012-8.589,0-12.883-.013-3.413-2.015-5.407-5.419-5.436a18.62,18.62,0,0,1-2.946-.043c-.707-.121-1.693-.462-1.925-.984a2.529,2.529,0,0,1,.578-2.071c1.508-1.842,1.889-3.879.828-5.828a4.71,4.71,0,0,0-4.5-2.623,4.936,4.936,0,0,0-3.6,8.15c.2.238.453.437.643.684a1.6,1.6,0,0,1-1.119,2.673,31.859,31.859,0,0,1-4.826-.034,4.8,4.8,0,0,1-4.164-4.837c-.04-3.847-.013-7.694-.015-11.542C1187.216,704.938,1187.216,704.454,1187.216,703.842Z" transform="translate(0 -157.436)"/>
      <path id="Trazado_1328401" data-name="Trazado 1328401" d="M1248.424,485.2q17.176,0,34.352,0a8.168,8.168,0,0,1,8.286,6.113,8.81,8.81,0,0,1,.283,2.381q.027,15.431.005,30.863a8.159,8.159,0,0,1-6.165,8.248,2.02,2.02,0,0,0-1.124,1.092c-.886,2.432-1.682,4.9-2.488,7.358-.3.9-.676,1.693-1.783,1.694s-1.476-.786-1.769-1.7c-.765-2.38-1.592-4.74-2.356-7.121a1.36,1.36,0,0,0-1.536-1.089q-9.259.062-18.518,0a1.176,1.176,0,0,0-1.372,1.04c-.786,2.932-1.653,5.841-2.487,8.76-.256.9-.576,1.713-1.729,1.725-1.224.013-1.555-.851-1.823-1.793-.792-2.792-1.619-5.574-2.352-8.381-.253-.967-.633-1.373-1.711-1.361-5.5.059-11,.05-16.5.005a1.33,1.33,0,0,0-1.567,1.172c-.778,2.933-1.663,5.837-2.487,8.758-.251.889-.647,1.584-1.694,1.6-1.114.014-1.526-.714-1.786-1.656-.8-2.883-1.648-5.752-2.423-8.64a1.425,1.425,0,0,0-1.685-1.234c-2.092.071-4.211.188-6.158-.877a7.82,7.82,0,0,1-4.487-7.107q-.084-15.9,0-31.8c.026-4.617,3.686-8.039,8.461-8.048Q1231.114,485.172,1248.424,485.2Zm31.379,50.833c.617-1.82,1.038-3.373,1.686-4.825a2.575,2.575,0,0,1,1.562-1.366c3.577-.638,5-2.231,5-5.9q0-14.692,0-29.384c0-4.291-1.816-6.1-6.122-6.1H1214.7c-.4,0-.806-.015-1.207.011a4.93,4.93,0,0,0-4.855,4.923q-.052,15.765,0,31.531a4.848,4.848,0,0,0,4.891,4.85c1.475.035,2.954.055,4.427,0a2.01,2.01,0,0,1,2.313,1.713c.438,1.718.986,3.407,1.577,5.411.572-1.947,1.127-3.55,1.5-5.193a2.212,2.212,0,0,1,2.556-1.938c6.53.048,13.06.02,19.589.021,2.334,0,2.521.158,3.13,2.4.391,1.437.828,2.862,1.245,4.292a36.116,36.116,0,0,0,1.691-5.057,1.953,1.953,0,0,1,2.107-1.643q11.2.03,22.407,0a1.967,1.967,0,0,1,2.129,1.61C1278.646,532.858,1279.2,534.3,1279.8,536.031Z" transform="translate(-18.099 0)"/>
      <path id="Trazado_1328402" data-name="Trazado 1328402" d="M1282.832,799.324v14.631H1279.7V799.324Z" transform="translate(-72.529 -229.802)"/>
      <path id="Trazado_1328403" data-name="Trazado 1328403" d="M1399.886,813.949h-3.117v-14.7h3.117Z" transform="translate(-158.167 -229.747)"/>
      <path id="Trazado_1328404" data-name="Trazado 1328404" d="M1513.81,813.86V799.173h3.153V813.86Z" transform="translate(-243.788 -229.691)"/>
      <path id="Trazado_1328405" data-name="Trazado 1328405" d="M1293.132,526.74c.868,1.733,1.725,3.3,2.433,4.934a3.034,3.034,0,0,1,.2,2.027c-.946,2.6-1.986,5.17-3.125,7.691a1.644,1.644,0,0,1-3.207.013c-1.137-2.521-2.172-5.094-3.116-7.694a3.034,3.034,0,0,1,.186-2.027c.707-1.635,1.565-3.2,2.423-4.92-.765-.593-1.5-1.24-2.313-1.754a1.7,1.7,0,0,0-1.228-.111,3.767,3.767,0,0,0-2.628,3.79c-.018,4.7-.007,9.393-.008,14.089v1.55h-3.075c-.069-.083-.12-.116-.12-.149,0-5.63-.14-11.265.064-16.888.089-2.465,1.852-4.175,4.09-5.4-1.07-2.272-1.468-4.64-.318-6.871a11.484,11.484,0,0,1,3.04-3.789,8.046,8.046,0,0,1,9.52.1c3.2,2.374,4.031,5.876,2.491,10.61,3.1,1.638,4.285,4.287,4.206,7.735-.1,4.381-.024,8.766-.024,13.15v1.515h-3.189c-.026-.473-.075-.942-.075-1.411q-.009-6.978,0-13.956a4.14,4.14,0,0,0-2.032-3.831,1.67,1.67,0,0,0-2.3.133A18.32,18.32,0,0,1,1293.132,526.74Zm-2.088-2.564c1.109-.852,2.166-1.6,3.15-2.434a4.865,4.865,0,0,0,.443-7.141,4.961,4.961,0,0,0-7.279.087,4.883,4.883,0,0,0,.59,7.133C1288.916,522.613,1289.937,523.337,1291.045,524.176Zm-.061,6.066c-1.648,2.62-1.641,3.25.011,6C1292.731,533.817,1292.742,532.547,1290.983,530.243Z" transform="translate(-72.384 -17.947)"/>
      <path id="Trazado_1328406" data-name="Trazado 1328406" d="M1411.264,554.634c1.364-2.5,0-4.536-2.188-6.455a1.5,1.5,0,0,1,1-2.585c2.97.045,4.447-1.427,5.382-4.058.522-1.468,2.229-1.393,3-.01a12.933,12.933,0,0,1,1.09,2.292,1.935,1.935,0,0,0,1.991,1.417,14.009,14.009,0,0,1,2.254.306c1.372.325,1.983,1.89.909,2.731-2.323,1.817-2.885,3.908-2.144,6.718a1.53,1.53,0,0,1-2.5,1.636c-2.242-1.665-4.167-1.486-6.35.066C1412.462,557.576,1411.219,556.666,1411.264,554.634Zm7.533-2.509c-.788-1.647.187-2.7,1.428-4.006a2.621,2.621,0,0,1-3.124-1.5l-3.033,2.072c1.17.729,1.5,1.935.781,3.718C1416.325,551.345,1417.488,551.2,1418.8,552.125Z" transform="translate(-166.828 -40.432)"/>
      <path id="Trazado_1328407" data-name="Trazado 1328407" d="M1396.027,516.433v2.977c-5.639,1.4-7.537,3.3-8.3,8.344h-2.971C1383.842,523.569,1388.6,516.112,1396.027,516.433Z" transform="translate(-149.297 -22.846)"/>
      <path id="Trazado_1328408" data-name="Trazado 1328408" d="M1463.3,527.773h-2.989c-1.123-5.439-3.052-7.374-8.4-8.324V516.5C1457.549,515.6,1464.111,522.134,1463.3,527.773Z" transform="translate(-198.509 -22.84)"/>
      <path id="Trazado_1328409" data-name="Trazado 1328409" d="M1452.166,595.229v-3.052c4.921-.567,7.739-3.275,8.282-8.262h3.052C1464.222,589.613,1458.243,595.626,1452.166,595.229Z" transform="translate(-198.693 -72.22)"/>
      <path id="Trazado_1328410" data-name="Trazado 1328410" d="M1384.692,583.929h2.989c.849,5.835,4.341,7.827,8.413,8.259v2.96C1390.5,596.14,1384.068,589.772,1384.692,583.929Z" transform="translate(-149.302 -72.23)"/>
      <path id="Trazado_1328411" data-name="Trazado 1328411" d="M1233.505,525.349h-3.4v-3.167h3.4l-.052-.043q0,1.629,0,3.259Z" transform="translate(-36.244 -27.029)"/>
      <path id="Trazado_1328412" data-name="Trazado 1328412" d="M1242.3,513.46c-.053-1.045-.107-2.09-.166-3.244h3.328v3.239l.04-.038h-3.254Z" transform="translate(-45.046 -18.306)"/>
      <path id="Trazado_1328413" data-name="Trazado 1328413" d="M1254.532,522.179h3.245v3.176h-3.244l.04.043q0-1.628,0-3.257Z" transform="translate(-54.114 -27.029)"/>
      <path id="Trazado_1328414" data-name="Trazado 1328414" d="M1245.526,534.1v3.257h-3.306c.05-1.1.1-2.181.148-3.261l-.058.049,3.256,0Z" transform="translate(-45.107 -35.774)"/>
    </g>
  </g>
</svg>
