<svg xmlns="http://www.w3.org/2000/svg" xmlns:xlink="http://www.w3.org/1999/xlink" width="134.828" height="127.499" viewBox="0 0 134.828 127.499">
  <defs>
    <clipPath id="clip-path">
      <rect id="Rectángulo_400938" data-name="Rectángulo 400938" width="120" height="120" fill="none"/>
    </clipPath>
  </defs>
  <g id="Grupo_1207848" data-name="Grupo 1207848" transform="translate(-470 -4920.943)">
    <g id="Grupo_108927" data-name="Grupo 108927" transform="translate(85.711 453.943)">
      <path id="Rectángulo_36179" data-name="Rectángulo 36179" d="M0,0H129.117V127.5H0Z" transform="translate(390 4467)" fill="#f9f7f0"/>
    </g>
    <g id="Grupo_1207747" data-name="Grupo 1207747" transform="translate(-703.998 4416.693)">
      <path id="Trazado_1328415" data-name="Trazado 1328415" d="M1192.25,566.531a43.016,43.016,0,0,1,84.814-9.915c.522,2.14.649,4.374,1.081,6.54a2.391,2.391,0,0,0,1.062,1.527c11.024,5.3,15.878,17.243,11.51,28.666a1.946,1.946,0,0,0,.576,2.556c1.234,1.107,2.392,2.3,3.531,3.512a7.541,7.541,0,0,1-10.533,10.79c-1.413-1.286-2.689-2.724-4.119-3.989a1.918,1.918,0,0,0-1.627-.327,22.73,22.73,0,0,1-20.72-1.706,2.1,2.1,0,0,0-1.74,0c-22,11.706-48.11,3.576-59.4-18.587A40.571,40.571,0,0,1,1192.25,566.531Zm33.728-38.121a2.058,2.058,0,0,0,.031.433,5.3,5.3,0,0,0,.256.709,14.139,14.139,0,0,0,8.547,8.016c2.273.791,4.618,1.375,6.909,2.116a2.173,2.173,0,0,1,1.708,2.361,2.224,2.224,0,0,1-1.928,2.036c-1.212.317-2.453.538-3.691.743-5.335.885-9,3.56-9.955,9.188a8.933,8.933,0,0,1-.21.88,6.777,6.777,0,0,1-7.361,5.355,29.159,29.159,0,0,1-3.851-.682c-2.3-.45-3.48.293-3.766,2.642-.212,1.74-.165,3.51-.236,5.267-.043,1.054-.04,2.112-.15,3.159a2.43,2.43,0,0,1-1.793,2.352,2.513,2.513,0,0,1-2.77-1.068c-.507-.621-.925-1.313-1.389-1.97-1.476-2.092-2.847-4.27-4.466-6.244a11.43,11.43,0,0,0-5.48-3.49c-2.62,12.594,2.4,29.893,17.608,39.644,13.9,8.913,30.7,7.15,39.887,1.288-7.276-8.086-8.513-17.072-3.905-26.9a12.535,12.535,0,0,1-5.952-5.711c-1.844-3.807-.358-6.713,3.81-7.386,1.885-.3,3.8-.429,5.667-.828,4.029-.864,5.6-2.791,5.892-6.873a22.763,22.763,0,0,1,2.217-9.323c.775-1.455,1.719-2.819,2.584-4.226C1255.014,529.393,1239.232,524.781,1225.978,528.41Zm43.835,37.765a18.952,18.952,0,1,0,19.051,18.961A19.046,19.046,0,0,0,1269.813,566.175Zm-61.188.882a66.289,66.289,0,0,1,.938-6.66c.757-3.1,3.1-4.654,6.292-4.358,1.444.134,2.861.535,4.3.763a3.352,3.352,0,0,0,3.862-2.162,13.378,13.378,0,0,0,.636-2.163,13.029,13.029,0,0,1,8.353-9.927c.419-.166.863-.268,1.289-.418.365-.129.72-.285.716-.283-2.488-1.545-5.379-2.811-7.557-4.843s-3.632-4.822-5.478-7.384c-12.834,3.939-22.875,16.686-24.762,27.169C1202.473,558.463,1205.909,562.28,1208.625,567.056Zm65.979-3.867a39.372,39.372,0,0,0-7.964-20.5,16.891,16.891,0,0,0-3.635,9.867c-.384,6.618-2.89,9.846-8.824,11.24-1.8.423-3.682.482-5.52.754-2.139.317-2.527.93-1.3,2.729a19.656,19.656,0,0,0,3.467,3.455c.7.608,1.356.449,2.035-.347a21.457,21.457,0,0,1,9.91-6.574A22.6,22.6,0,0,1,1274.6,563.189Zm8.719,40.991-.588-.5c.264.3.513.6.793.883,1.1,1.1,2.165,2.243,3.339,3.26a4.044,4.044,0,0,0,5.138.012,3.807,3.807,0,0,0,.907-5.127,46.551,46.551,0,0,0-3.989-4.311Z" transform="translate(0)"/>
      <path id="Trazado_1328416" data-name="Trazado 1328416" d="M1286.458,703.911a20.842,20.842,0,0,1-3.14-.726c-2.438-.921-3.2-3.057-1.984-5.38.51-.976,1.18-1.866,1.746-2.814a4.494,4.494,0,0,0-.757-6.133c-.957-.96-2.025-1.813-2.941-2.807a4.727,4.727,0,0,1-.424-6.448,8.532,8.532,0,0,1,6.652-3.629,4.473,4.473,0,0,1,4.208,1.926,28.71,28.71,0,0,0,9.524,9.037c2.539,1.518,3.246,4.716,1.883,7.635C1298.39,700.646,1293.356,703.412,1286.458,703.911Zm-2.315-4.034a14.225,14.225,0,0,0,1.536.421c4.594.651,10.308-2.5,12.188-6.7.968-2.163.729-3.22-1.336-4.393a24.9,24.9,0,0,1-8.86-8.418,2.335,2.335,0,0,0-3.215-1.03,9.171,9.171,0,0,0-2.364,1.536,1.566,1.566,0,0,0,.006,2.591c.847.785,1.723,1.539,2.549,2.345,3.245,3.168,3.7,6.738,1.376,10.63C1285.463,697.8,1284.869,698.714,1284.143,699.877Z" transform="translate(-59.772 -106.25)"/>
      <path id="Trazado_1328417" data-name="Trazado 1328417" d="M1421.549,698.231c2.426-.35,4.595-.721,6.778-.955a1.747,1.747,0,0,1,2.151,1.778c.094,4.5-1.145,10.057-6.271,12.454a18,18,0,0,1-15.88-.037c-3.79-1.792-5.392-5.22-6.012-9.19-.031-.2-.034-.4-.055-.6-.444-4.318-.024-4.764,4.341-4.236,1.433.173,2.833.608,4.193.91,1.073-1.527,2.074-3.149,3.272-4.609,1.774-2.162,2.69-2.112,4.541.047a22.779,22.779,0,0,1,1.727,2.28C1420.825,696.818,1421.217,697.632,1421.549,698.231Zm-7.261,11.291a8.021,8.021,0,0,0-8.493-8.47A8.254,8.254,0,0,0,1414.288,709.522Zm12.536-8.531c-4.742-.039-8.761,3.367-8.443,8.486C1423.069,709.687,1426.7,706.084,1426.823,700.991Zm-10.456,2.384c.748-1.239,1.919-2.318,1.9-3.376-.022-1.183-1.123-2.346-1.974-3.926-.859,1.616-1.766,2.779-2.04,4.076-.132.622.935,1.5,1.458,2.26C1415.879,702.654,1416.045,702.9,1416.368,703.375Z" transform="translate(-146.484 -117.546)"/>
    </g>
  </g>
</svg>
