<svg xmlns="http://www.w3.org/2000/svg" xmlns:xlink="http://www.w3.org/1999/xlink" width="134.711" height="129" viewBox="0 0 134.711 129">
  <defs>
    <clipPath id="clip-path">
      <rect id="Rectángulo_400938" data-name="Rectángulo 400938" width="120" height="120" fill="none"/>
    </clipPath>
  </defs>
  <g id="Grupo_1207849" data-name="Grupo 1207849" transform="translate(-470 -5089.943)">
    <g id="Grupo_108927" data-name="Grupo 108927" transform="translate(85.652 622.943)">
      <rect id="Rectángulo_36179" data-name="Rectángulo 36179" width="129" height="127" transform="translate(390.059 4467)" fill="#f9f7f0"/>
    </g>
    <g id="Grupo_1207748" data-name="Grupo 1207748" transform="translate(-704.654 4603.827)">
      <path id="Trazado_1328418" data-name="Trazado 1328418" d="M1268.095,536.677c2.37.592,2.351.584,3.272-1.45,3.494-7.711,6.984-15.425,10.536-23.11.3-.648,1.058-1.514,1.6-1.509a2.588,2.588,0,0,1,1.877,1.335c1.232,2.717,2.923,4,6,2.831a2.552,2.552,0,0,1,2.356.482,3.244,3.244,0,0,1-.158,2.554c-3.557,7.992-7.192,15.95-10.805,23.917-.094.208-.184.418-.271.616,9.873,8.4,14.021,18.856,10.516,31.422-3.451,12.374-12.258,19.179-24.789,21.39-.525,3.346-.525,3.346-4.094,3.346h-65.007c-2.729,0-2.927-.194-2.927-2.861q0-39.5-.025-79a4.239,4.239,0,0,1,1.374-3.346c3.885-3.771,7.7-7.615,11.507-11.465a3.39,3.39,0,0,1,2.611-1.1q26.992.038,53.984.02c2.02,0,2.439.445,2.44,2.533q0,15.9,0,31.8Zm-27.757,46.039c0,2.385.02,4.771-.007,7.156-.017,1.513-.561,2.076-2.032,2.083q-6.147.031-12.294,0c-1.554-.007-1.993-.469-2-2.054q-.024-4.381,0-8.761c.007-1.682.517-2.2,2.18-2.222,1.4-.019,2.8,0,4.225,0V572.4c-1.5,0-2.905.011-4.311,0-1.654-.016-2.086-.442-2.094-2.1q-.02-4.31,0-8.62c.006-1.823.493-2.286,2.38-2.3,1.347-.007,2.694,0,4.035,0v-3.1h-17.84v3.1c1.546,0,3-.023,4.452.007,1.406.028,2,.584,2.013,1.97q.048,4.521,0,9.044c-.014,1.522-.516,1.977-2.083,1.994-1.444.016-2.889,0-4.368,0v6.519c1.521,0,2.931-.02,4.339.005,1.49.027,2.1.585,2.111,2.029q.045,4.522,0,9.044c-.015,1.47-.507,1.953-1.976,1.961q-6.147.032-12.294,0c-1.578-.007-2-.446-2.009-2.041-.017-2.873-.011-5.747,0-8.62.005-1.93.462-2.37,2.445-2.38,1.342-.007,2.683,0,4,0V572.4c-1.53,0-2.98.014-4.43,0-1.574-.019-2.008-.447-2.017-2.026q-.025-4.381,0-8.761c.007-1.759.485-2.214,2.3-2.225,1.391-.009,2.783,0,4.231,0,0-1.535-.005-2.851,0-4.166.01-1.879.452-2.33,2.328-2.332q7.984-.01,15.969,0h2.821v-3.148a21.422,21.422,0,0,1-18.738-27.46c3.321-11.153,16.117-17.769,27.085-13.865a20.671,20.671,0,0,1,12.6,11.42c3.154,7.194,2.349,14.175-2.072,21.145a31.089,31.089,0,0,1,15.405-4.472V504.079H1212.48v1.351c0,3.2.014,6.406-.008,9.609-.01,1.482-.471,1.909-1.964,1.947-.518.013-1.036,0-1.554,0h-9.446v78.2h61.581l-8.474-2.314,1.408-3.114a4.175,4.175,0,0,1,.651.162,23.623,23.623,0,0,0,13.4,1.862c10.542-1.537,18.049-7.29,21.508-17.407,3.577-10.462.934-19.689-6.8-27.584a5.483,5.483,0,0,0-6.3-1.545,1.572,1.572,0,0,0-.815.639c-.494.9-.9,1.845-1.376,2.835.538.347,1.016.64,1.477.956a19.13,19.13,0,0,1,8.186,11.917c.567,2.518.546,2.521,3.191,2.687a1.5,1.5,0,0,1,.4.149v3.139h-3c-1.741,10.421-7.781,16.379-18.2,18.047v3.069h-3.18V585.6c-10.382-1.7-16.373-7.649-18.123-18.031H1242v-3.228h3.061a4.267,4.267,0,0,0,.156-.426c.068-.322.129-.646.188-.971,1.521-8.332,6.475-13.559,14.5-15.973.983-.3,2.389-.064,2.941-.673.58-.641.369-2,.511-3.1h3.1v3.158l4.567.9c1.693-1.989,2.063-3.992.111-5.957a3.042,3.042,0,0,0-1.665-1.054c-3.186-.089-6.48-.535-9.546.084-10.154,2.052-17.149,8.136-20.094,18.1-3.061,10.355-.341,19.424,7.534,26.863,1.079,1.02,2.321,1.868,3.554,2.849l-1.712,2.613A37.561,37.561,0,0,1,1240.338,582.717Zm8.281-15.119c-.157,6.89,7.746,14.719,14.634,14.45v-3.04h3.163v3.169c9.448-.851,14.627-9.168,14.559-14.608H1278v-3.314h2.969c.055-4.62-4.13-10.874-8.208-12.322-.914,1.993-1.812,4.006-2.762,5.992a1.489,1.489,0,0,0,.375,2.126,7.9,7.9,0,0,1,2.06,8.664,8.166,8.166,0,0,1-15.831-2.906,8.269,8.269,0,0,1,8.88-8.055,1.5,1.5,0,0,0,1.214-.481c1.082-2.232,2.063-4.513,3.162-6.972l-3.487-.718V552.8H1263.2v-2.963c-7.128-.12-14.657,7.357-14.493,14.446h2.9V567.6Zm1.437-39.053a17.97,17.97,0,1,0-17.788,17.828A17.945,17.945,0,0,0,1250.056,528.545Zm39.623-9.963-5.958-2.644q-5.045,11.166-10.085,22.337c-.092.2-.2.514-.116.664a14.309,14.309,0,0,0,1.91,2.928c.309.315,1.295-.078,1.972-.07,1.536.018,2.232-.843,2.805-2.182,1.775-4.143,3.689-8.227,5.547-12.335Q1287.72,522.932,1289.679,518.582Zm-73.956,50.573v-6.331h-9.7v6.331Zm.033,13.227h-9.74v6.3h9.74Zm11.512,6.313h9.651v-6.352h-9.651Zm37.662-27.52a4.715,4.715,0,0,0-4.989,4.14,5.009,5.009,0,0,0,3.5,5.311,4.91,4.91,0,0,0,5.833-2.762c.916-2.111.4-4.294-1.3-5.31l-1.991,4.213-2.925-1.338Zm-37.634,7.968h8.15v-6.327h-8.252c0,1.888,0,3.663,0,5.438A8.939,8.939,0,0,0,1227.3,569.142Zm-18.057-62.4-.454-.464-6.976,7.064.406.376h7.024Zm24.64,46.136c1.382,0,2.69.032,3.994-.023a1.278,1.278,0,0,0,.882-.5c1.023-1.553,1.99-3.143,2.97-4.71-1.855.55-3.7,1.165-5.588,1.643C1233.615,549.918,1233.6,549.872,1233.878,552.874Zm4.418,26.039-2.228-6.407h-2.218v6.314c.335.036.6.087.874.089C1235.887,578.918,1237.049,578.913,1238.3,578.913Zm-1.362-22.62h-3.054v3.034h2.246Z" transform="translate(0 0)"/>
      <path id="Trazado_1328419" data-name="Trazado 1328419" d="M1291.5,548.055l-1.131,2.861-2.585-.551v3.128h3.053v3.145h-6.322v3.38c1.331,0,2.721-.006,4.112,0,1.889.009,2.276.408,2.282,2.351q.008,2.4,0,4.8c0,2.188-.235,2.432-2.385,2.544-.225.012-.449.062-.752.107v2.8c3.148.128,7.1-2.766,8.678-6.326,1.618-3.644,1.752-9.006-3.195-13.6l1.865-2.366c4.529,2.9,7.732,10.861,3.977,17.979a14.688,14.688,0,1,1-7.6-20.255Zm-3.906,15.133c-1.554,0-2.963.014-4.372,0-1.6-.019-2.089-.5-2.115-2.128-.024-1.506-.007-3.013-.006-4.519,0-2.779.085-2.865,2.9-3.069a1,1,0,0,0,.341-.167V550.47c-5.269.35-9.833,5.608-9.785,11.2.048,5.573,4.661,10.81,9.754,11.04v-3.056h-3.1v-3.143h6.381Z" transform="translate(-53.909 -33.163)"/>
    </g>
  </g>
</svg>
