<svg xmlns="http://www.w3.org/2000/svg" width="129" height="127" viewBox="0 0 129 127">
  <g id="Grupo_1207850" data-name="Grupo 1207850" transform="translate(-475.711 -5258.943)">
    <g id="Grupo_108927" data-name="Grupo 108927" transform="translate(85.652 791.943)">
      <rect id="Rectángulo_36179" data-name="Rectángulo 36179" width="129" height="127" transform="translate(390.059 4467)" fill="#f9f7f0"/>
    </g>
    <g id="Grupo_1207749" data-name="Grupo 1207749" transform="translate(-711.196 4766.453)">
      <path id="Trazado_1328420" data-name="Trazado 1328420" d="M1292.188,587.429v14.084c0,.35.006.7,0,1.051-.062,2.463-1.268,3.675-3.718,3.7-2.151.019-4.3,0-6.454,0q-6.379,0-12.758,0c-2.443,0-3.219-.581-4.017-2.949a5.131,5.131,0,0,0-9.889.161c-.6,2.015-1.581,2.784-3.7,2.785q-23.115.014-46.231,0c-2.511,0-3.775-1.272-3.778-3.806-.011-12.758.013-25.517-.022-38.275-.005-2.05,1.058-3.96,3.909-3.819,1.892.093,3.792.018,5.811.018v-1.661c0-4.153-.028-8.306.023-12.458a6.316,6.316,0,0,1,.516-2.6c.781-1.622,2.3-2.113,4.007-2.116,2.6,0,5.2,0,7.805-.005.3,0,.59-.038.984-.066V537.6c0-.6-.005-1.2,0-1.8.028-2.74,1.531-4.242,4.277-4.274.2,0,.4,0,.6,0,1.332-.025,1.294-.04,1.8-1.323.675-1.717,1.394-3.418,2.136-5.106.5-1.139.524-1.189-.332-2.09-.344-.362-.722-.7-1.028-1.09a3.767,3.767,0,0,1,.1-4.953,46.6,46.6,0,0,1,3.606-3.6,3.607,3.607,0,0,1,5.152.149c1.383,1.606,2.555,1.557,4.213.56a20.856,20.856,0,0,1,3.89-1.529c1.187-.416,1.345-.57,1.387-1.794.012-.35-.005-.7.008-1.05a3.823,3.823,0,0,1,3.741-3.91,38.209,38.209,0,0,1,4.8,0,4.017,4.017,0,0,1,3.791,4.1c.117,2.188.134,2.143,2.226,2.921,1.4.52,2.76,1.159,4.112,1.8,1.156.549,1.212.575,2.1-.241,2.9-2.685,4.546-2.646,7.37.175.708.707,1.438,1.393,2.119,2.125a3.909,3.909,0,0,1,0,5.648c-1.536,1.675-1.49,1.653-.572,3.655.643,1.4,1.165,2.864,1.689,4.319.405,1.126.456,1.2,1.713,1.233.25.006.5,0,.75,0a3.982,3.982,0,0,1,4.278,4.206c.064,1.842.012,3.689.012,5.7a6.1,6.1,0,0,0,.9.108c2.452.012,4.9,0,7.355.011a9.414,9.414,0,0,1,1.494.092,3.975,3.975,0,0,1,3.525,3.864c.022.3.01.6.01.9q0,18.087-.006,36.174a7.482,7.482,0,0,1-.164,1.78,3.79,3.79,0,0,1-3.763,3.058c-.949.041-1.9.014-2.852.016C1294.212,587.43,1293.317,587.429,1292.188,587.429Zm-39.954-23.97h-47.48v39.681h47.517a8.54,8.54,0,0,1,6.553-6.5c-.013-.193-.018-.241-.019-.29-.009-1.25-.08-2.5-.005-3.749a1.585,1.585,0,0,1,1.523-1.571c.778.012,1.354.641,1.451,1.617.034.347.019.7.02,1.05,0,.987,0,1.973,0,3a8.481,8.481,0,0,1,6.585,6.451h20.629V563.454h-20.651c-1.214,4.009-3.808,6.479-8.115,6.465C1255.988,569.9,1253.49,567.377,1252.234,563.458Zm-13.943-18.88q-11.032,0-22.063,0c-1.657,0-1.809.163-1.813,1.8-.01,3.852,0,7.7,0,11.557,0,2.433,0,2.434,2.367,2.434q17.41,0,34.82,0c2.235,0,3.146.67,3.751,2.681a5.082,5.082,0,0,0,4.931,3.864,5.147,5.147,0,0,0,4.953-3.664c.829-2.408,1.485-2.882,4.033-2.883q7.729,0,15.459,0c1.351,0,2.7-.024,4.052.007a3.129,3.129,0,0,1,3.408,3.349c.02.4.007.8.007,1.2q0,6.153,0,12.307c0,1.9-.018,3.8.008,5.7.017,1.2.245,1.433,1.383,1.458q1.95.043,3.9,0c1.039-.024,1.314-.316,1.387-1.343.021-.3.005-.6.005-.9q0-17.635,0-35.271c0-.4.02-.8-.018-1.2a1.081,1.081,0,0,0-1.051-1.072c-.4-.039-.8-.035-1.2-.035-5.5,0-11.007.029-16.51-.023a2.377,2.377,0,0,0-2.7,1.694,7.493,7.493,0,0,1-6.358,4.836,7.929,7.929,0,0,1-8.657-5.218,1.668,1.668,0,0,0-1.877-1.292c-.4.02-.8,0-1.2,0Zm2.651-3.038h1.667c5.847,0,11.7.04,17.542-.019,2.551-.026,4.309.87,5.144,3.412a4.694,4.694,0,0,0,3.67,3.106,16.074,16.074,0,0,0,.46-20.237,16.3,16.3,0,0,0-20.23-4.481C1241.967,526.976,1239.117,535.357,1240.943,541.54Zm34.07,2.337a3.906,3.906,0,0,1,3.442-2.245c2.073.049,3.941-1.118,6.035-.832a.936.936,0,0,0,1.074-1c.035-1.4.042-2.8-.007-4.2a1.044,1.044,0,0,0-1.2-1.063c-.3,0-.6,0-.9,0-2.546-.03-3.583-.833-4.451-3.2-.653-1.776-1.407-3.518-2.2-5.237a4.1,4.1,0,0,1,.6-4.729c.333-.372.708-.706,1.057-1.065a1.018,1.018,0,0,0,.018-1.583c-.555-.577-1.13-1.133-1.7-1.7-1.846-1.837-1.855-1.848-3.722-.167a3.892,3.892,0,0,1-4.289.92c-2.225-.88-4.431-1.812-6.629-2.756a3.533,3.533,0,0,1-2.325-3.212c-.034-.6-.015-1.2-.042-1.8a1.122,1.122,0,0,0-1.225-1.213c-.9-.01-1.8,0-2.7-.01-2.057-.018-2.4-.163-2.372,2.3.024,2.178-.971,3.394-2.99,4.174-1.905.736-3.788,1.533-5.657,2.357a3.927,3.927,0,0,1-4.471-.575c-.266-.226-.507-.482-.759-.726-1.119-1.085-1.368-1.092-2.444-.043-.537.524-1.06,1.062-1.595,1.588-1.34,1.319-1.979,1.428-.051,3.268a3.968,3.968,0,0,1,.854,5.055q-1.235,2.72-2.29,5.521a3.938,3.938,0,0,1-3.819,2.818c-.4.014-.8-.008-1.2.008-1.106.045-1.32.232-1.351,1.319-.033,1.15-.022,2.3,0,3.452.021,1.371.166,1.477,1.592,1.536a6.9,6.9,0,0,1,2.208.254c2,.79,4.019.326,6.157.429-1-6.442.448-12.07,4.788-16.79,4.362-4.744,9.852-6.6,16.231-6.1C1268.114,519.368,1279.039,529.271,1275.013,543.877Z" transform="translate(0)"/>
      <path id="Trazado_1328421" data-name="Trazado 1328421" d="M1262.893,731.012c2.527.912,3.294,2.21,2.864,4.646a2.923,2.923,0,0,1-2.629,2.485,10.626,10.626,0,0,1-1.2.029q-17.49.011-34.981.018a9.868,9.868,0,0,1-1.05-.014,1.442,1.442,0,0,1-1.479-1.552c-.051-1.048-.018-2.1-.019-3.152,0-1.752.008-3.5,0-5.255a10.358,10.358,0,0,1,5.4-9.547c.167-.1.32-.223.48-.336-4.141-5.429-2.058-10.892.921-13.357a9.268,9.268,0,0,1,12.849,13.308,9.183,9.183,0,0,1,1.194.771q1.343,1.186,2.615,2.452c.358.355.624.817,1.409.4,0-.846-.006-1.784,0-2.721.015-1.98.314-2.287,2.248-2.3,1.137-.007,2.273,0,3.546,0,0-.9-.023-1.639.005-2.377a1.645,1.645,0,0,1,1.858-1.833c1.3-.031,2.6-.021,3.9,0,1.58.02,2.056.483,2.06,2.065.013,4.8.005,9.608.005,14.413Zm-32.932,4.078c0-.653,0-1.235,0-1.817.01-1.5-.033-3,.058-4.5a1.416,1.416,0,0,1,1.44-1.441,1.339,1.339,0,0,1,1.449,1.047,4.8,4.8,0,0,1,.121,1.187c.014,1.45,0,2.9.013,4.349a10.732,10.732,0,0,0,.13,1.14h7.22a5.6,5.6,0,0,1,.374-1.985,5.591,5.591,0,0,0,.579-3.32c.019-1.881.184-2.11,1.931-2.614.446-1.67-.593-3.6,1.125-5.161-1.026-.474-1.86-.915-2.738-1.237a2.125,2.125,0,0,0-1.259-.006,10.51,10.51,0,0,1-6.484-.04,1.872,1.872,0,0,0-.99-.051,7.363,7.363,0,0,0-5.48,6.888c-.044,2.2-.019,4.4-.005,6.6a5.787,5.787,0,0,0,.16.957Zm13.432-22.988a6.194,6.194,0,1,0-6.083,6.1A6.1,6.1,0,0,0,1243.392,712.1Zm14.788,3.634V731.06h1.715c-.026-5.181.033-10.244-.035-15.324Zm-5.759,4.2V731.17l1.538-.074V719.941Zm-8.867,14.377c.208,1.047.858.816,1.331.817q8.3.021,16.6.009a1.853,1.853,0,0,0,.738-.031c.225-.106.376-.366.783-.795Zm2.945-9.057V731.1h1.612V725.26Z" transform="translate(-15.934 -137.902)"/>
      <path id="Trazado_1328422" data-name="Trazado 1328422" d="M1448.837,727.339q0,6.674,0,13.348c0,2.025-.441,2.461-2.465,2.466q-5.174.01-10.348,0a5.894,5.894,0,0,1-1.046-.042,1.577,1.577,0,0,1-1.391-1.526,8.171,8.171,0,0,1-.014-.9q0-13.273,0-26.545c0-.3-.017-.6.01-.9a1.488,1.488,0,0,1,1.613-1.58c.9-.044,1.8-.014,2.7-.014q4.274,0,8.549,0c1.995,0,2.389.384,2.392,2.345Q1448.847,720.666,1448.837,727.339Zm-3.26,12.759c.35-1.754.274-24.3-.062-25.345h-8.777c-.3,1.94-.216,24.256.09,25.345Z" transform="translate(-162.298 -144.089)"/>
      <path id="Trazado_1328423" data-name="Trazado 1328423" d="M1395.208,769.446a19.114,19.114,0,0,1-.105,2.012,1.4,1.4,0,0,1-1.53,1.307,1.319,1.319,0,0,1-1.368-1.308,26.453,26.453,0,0,1,.021-3.867,1.319,1.319,0,0,1,1.425-1.246,1.358,1.358,0,0,1,1.43,1.249A15.788,15.788,0,0,1,1395.208,769.446Z" transform="translate(-133.316 -182.369)"/>
      <path id="Trazado_1328424" data-name="Trazado 1328424" d="M1395.033,724.814a15.79,15.79,0,0,1-.013,1.793,1.468,1.468,0,0,1-1.344,1.377,1.394,1.394,0,0,1-1.493-1.2,20.755,20.755,0,0,1,.007-3.86,1.3,1.3,0,0,1,1.52-1.125,1.352,1.352,0,0,1,1.319,1.368,14.333,14.333,0,0,1,.011,1.644Z" transform="translate(-133.281 -151.198)"/>
      <path id="Trazado_1328425" data-name="Trazado 1328425" d="M1395.255,747.475c-.032.669-.026,1.271-.1,1.863a1.3,1.3,0,0,1-1.311,1.2c-.729.052-1.4-.285-1.453-1a23.776,23.776,0,0,1,.024-4.144c.071-.732.793-.974,1.51-.9a1.23,1.23,0,0,1,1.219,1.115C1395.226,746.246,1395.224,746.9,1395.255,747.475Z" transform="translate(-133.434 -167.069)"/>
    </g>
  </g>
</svg>
