<svg xmlns="http://www.w3.org/2000/svg" xmlns:xlink="http://www.w3.org/1999/xlink" width="1228" height="227" viewBox="0 0 1228 227">
  <defs>
    <clipPath id="clip-path">
      <rect id="Rectángulo_33824" data-name="Rectángulo 33824" width="1228" height="227" transform="translate(185.746 2846)" fill="#c3c8d1"/>
    </clipPath>
    <clipPath id="clip-path-2">
      <rect id="Rectángulo_457421" data-name="Rectángulo 457421" width="207.963" height="458.373" fill="none"/>
    </clipPath>
    <clipPath id="clip-path-4">
      <rect id="Rectángulo_457418" data-name="Rectángulo 457418" width="3.757" height="3.218" fill="none"/>
    </clipPath>
    <clipPath id="clip-path-5">
      <rect id="Rectángulo_457426" data-name="Rectángulo 457426" width="432.689" height="276.967" fill="none"/>
    </clipPath>
    <clipPath id="clip-path-7">
      <rect id="Rectángulo_457422" data-name="Rectángulo 457422" width="86.51" height="256.53" transform="translate(259.674 10.226)" fill="none"/>
    </clipPath>
    <clipPath id="clip-path-8">
      <rect id="Rectángulo_457423" data-name="Rectángulo 457423" width="86.586" height="276.936" transform="translate(86.506 0.031)" fill="none"/>
    </clipPath>
    <clipPath id="clip-path-9">
      <rect id="Rectángulo_457424" data-name="Rectángulo 457424" width="86.586" height="276.936" transform="translate(259.517 0.031)" fill="none"/>
    </clipPath>
    <clipPath id="clip-path-10">
      <rect id="Rectángulo_457427" data-name="Rectángulo 457427" width="398.297" height="254.159" fill="none"/>
    </clipPath>
  </defs>
  <g id="Grupo_1207851" data-name="Grupo 1207851" transform="translate(-185.711 -5428)">
    <rect id="Rectángulo_33824-2" data-name="Rectángulo 33824" width="1228" height="227" transform="translate(185.711 5428)" fill="#e2f0fc"/>
    <g id="Enmascarar_grupo_1119312" data-name="Enmascarar grupo 1119312" transform="translate(-0.035 2582)" clip-path="url(#clip-path)">
      <g id="Grupo_1207464" data-name="Grupo 1207464" transform="translate(989.148 2852.378)">
        <g id="Grupo_1207463" data-name="Grupo 1207463" clip-path="url(#clip-path-2)">
          <g id="Grupo_1207462" data-name="Grupo 1207462">
            <g id="Grupo_1207461" data-name="Grupo 1207461" clip-path="url(#clip-path-2)">
              <path id="Trazado_1327477" data-name="Trazado 1327477" d="M103.739,301.933c2.41,17.138,4.165,30.866,5.961,46.329,7.6,3.083,8.7.223,16.212-3.071,2.334-14.476-.192-26.4.54-43.259Z" transform="translate(28.486 82.91)" fill="#e79a7b"/>
              <path id="Trazado_1327478" data-name="Trazado 1327478" d="M134.026,329.326a55.031,55.031,0,0,0-7.463-.008c-3.778.454-.849,8.38-8.53,8.224,0,0,2.375-10.036-2.981-14.055,0,0-7.6-.47-5.567,7.027s3.926,18.5,1.238,20.381-27.757-6.076-27.165,12h54.8s-1.985-8.216-3.972-17.6c-.64-3.026-.357-15.962-.357-15.962" transform="translate(22.942 88.827)" fill="#5c1900"/>
              <path id="Trazado_1327479" data-name="Trazado 1327479" d="M138.352,354.4a26.386,26.386,0,0,1-.056,6.652H125.452s-1.23-3.167-2.09-2.99-1.077,2.99-1.077,2.99h-4.047s-1.074-3.343-1.954-3.343-1.389,3.343-1.389,3.343H95.364s-.466-3.132-1.852-3.325c-1.022-.143-.633,3.325-.633,3.325H86.038s-1,.242-2.483-6.652Z" transform="translate(22.944 97.318)" fill="#2e0c00"/>
              <line id="Línea_3817" data-name="Línea 3817" x1="4.894" y2="3.495" transform="translate(132.577 431.101)" fill="none" stroke="#0d0000" stroke-miterlimit="10" stroke-width="0.75"/>
              <line id="Línea_3818" data-name="Línea 3818" x2="4.596" y2="4.464" transform="translate(132.522 430.296)" fill="none" stroke="#0d0000" stroke-miterlimit="10" stroke-width="0.75"/>
              <line id="Línea_3819" data-name="Línea 3819" x1="4.894" y2="3.495" transform="translate(132.223 434.76)" fill="none" stroke="#0d0000" stroke-miterlimit="10" stroke-width="0.75"/>
              <line id="Línea_3820" data-name="Línea 3820" x2="5.807" y2="3.823" transform="translate(132.577 434.596)" fill="none" stroke="#0d0000" stroke-miterlimit="10" stroke-width="0.75"/>
              <line id="Línea_3821" data-name="Línea 3821" y1="4.048" x2="4.383" transform="translate(132.522 426.248)" fill="none" stroke="#0d0000" stroke-miterlimit="10" stroke-width="0.75"/>
              <line id="Línea_3822" data-name="Línea 3822" x2="5.761" y2="5.492" transform="translate(131.71 425.608)" fill="none" stroke="#0d0000" stroke-miterlimit="10" stroke-width="0.75"/>
              <path id="Trazado_1327480" data-name="Trazado 1327480" d="M124.935,340.59s-5.417.329-6.456,5.255-.218,12.35-.218,12.35" transform="translate(32.39 93.525)" fill="none" stroke="#0d0000" stroke-miterlimit="10" stroke-width="0.75"/>
              <path id="Trazado_1327481" data-name="Trazado 1327481" d="M95.189,344.849s6.978,2.642,7.758,6.513a22.733,22.733,0,0,1,.626,5.663" transform="translate(26.139 94.694)" fill="none" stroke="#0d0000" stroke-miterlimit="10" stroke-width="0.75"/>
              <path id="Trazado_1327482" data-name="Trazado 1327482" d="M54.333,301.933c2.41,17.138,4.165,30.866,5.961,46.329,7.6,3.083,8.7.223,16.212-3.071,2.334-14.476-.192-26.4.54-43.259Z" transform="translate(14.92 82.91)" fill="#e79a7b"/>
              <path id="Trazado_1327483" data-name="Trazado 1327483" d="M73.814,63.669C68.5,63.588,56.667,74,50.541,83.4c-2.053,3.151-28.2,49.756-28.2,49.756L35.45,159.76S62.529,127.623,72.37,105.7c4.185-9.32,11.19-41.881,1.444-42.031" transform="translate(6.134 17.483)" fill="#6597c8"/>
              <path id="Trazado_1327484" data-name="Trazado 1327484" d="M70.97,62.993S56.976,61.8,50.932,72.554s-4.41,55.1-3.1,64.646,14.4,25.436,31.174,27.223l2.469-8.249s-18.382-.011-24.626-19.667-1.045-58.992.914-62.276c4.592-7.7,19.718-4.538,19.718-4.538Z" transform="translate(12.795 17.287)" fill="#5c1900"/>
              <path id="Trazado_1327485" data-name="Trazado 1327485" d="M177.132,185.825c-.565,3.926-1.247,7.966-3.607,11.357-2.879,4.13-7.659,6.6-13.061,8.106-.683.2-1.4.382-2.108.548a77.021,77.021,0,0,1-10.849,1.606c-.831.076-1.677.14-2.508.2a251.458,251.458,0,0,1-26.48.574c-7.539-.229-15.748-1.058-21.061-5.634-5.091-4.4-6.174-11.063-6.916-17.233a809.832,809.832,0,0,1-5.8-101.917c.059-8.272.282-16.786,4.023-24.409a21.38,21.38,0,0,1,2.33-3.747c8.148-10.6,24.475-11.064,38.5-10.617,4.215.127,8.207.1,11.917.217.639.025,1.262.038,1.885.076q1.736.076,3.384.229c9.589.9,16.788,4.04,20.409,15.856a287.743,287.743,0,0,1,9.944,124.783" transform="translate(23.264 12.235)" fill="#802400"/>
              <path id="Trazado_1327486" data-name="Trazado 1327486" d="M157.262,163.538c-.639,11.5-.846,23.4-5.18,34.414a43.271,43.271,0,0,1-3.784,7.507c-.683.2-1.4.382-2.108.548q.778-1.109,1.47-2.256a42.919,42.919,0,0,0,3.681-8,74.549,74.549,0,0,0,3.429-17.092c1.128-11.42,1.544-22.943,1.855-34.4a240.208,240.208,0,0,0-1.47-37.244c-2.849-22.038-10.434-43.91-25.811-61.958-.06-.064-.119-.14-.178-.2-.563-.663.728-1.3,1.291-.637.268.306.52.612.772.918A108.068,108.068,0,0,1,151.1,81.734c8.55,26.6,7.659,54.489,6.16,81.8" transform="translate(35.43 12.063)" fill="#5c1900"/>
              <path id="Trazado_1327487" data-name="Trazado 1327487" d="M87.233,100.78A83.851,83.851,0,0,1,84.352,62.52c.849-5.37,2.355-10.916,6.432-15.052,6.124-6.215,16.465-7.783,25.937-8.126a164.711,164.711,0,0,1,39.24,3.283,34.081,34.081,0,0,1,9.682,3.142c3.977,2.211,6.72,5.727,8.885,9.347,7.061,11.8,8.732,27.071,10.552,40.249a404.35,404.35,0,0,1-43.757,2.854c-17.128.187-37.019,3.774-54.09,2.563" transform="translate(22.884 10.774)" fill="#942900"/>
              <path id="Trazado_1327488" data-name="Trazado 1327488" d="M170.2,58.469c-8.742,3.194-84.485-2.352-87.892-4.837-2.687-1.95-5.887-8.022-5.812-10.438.167-5.361,1.965-10.9,4.366-16.083,1.239-2.689,6.228-6.164,10.916-6.8,8.806-1.2,80.656,4.306,84.179,8.133,5.657,6.136,0,27.925-5.756,30.023" transform="translate(21.004 5.532)" fill="#ffca85"/>
              <path id="Trazado_1327489" data-name="Trazado 1327489" d="M151.47,56.767c-9.155.537-6.773-15.48-5.616-24.1s11.372-5.926,11.372-5.926c5.657,6.136,0,27.925-5.756,30.023" transform="translate(39.732 7.235)" fill="#f3b35e"/>
              <path id="Trazado_1327490" data-name="Trazado 1327490" d="M84.732,81.813a810.077,810.077,0,0,0,5.8,101.917c.742,6.169,1.825,12.835,6.917,17.233,5.313,4.576,13.521,5.4,21.061,5.634a251.434,251.434,0,0,0,26.478-.574c8.208-9.113,12.705-21.005,13.863-32.477A304.137,304.137,0,0,0,154.715,85c-1.648-8.425-3.859-17.194-10.257-23.733-10.094-10.286-27.9-12.223-43.34-9.942a55.133,55.133,0,0,0-10.034,2.333,21.379,21.379,0,0,0-2.33,3.747c-3.741,7.622-3.963,16.136-4.023,24.409" transform="translate(23.263 13.858)" fill="#5c1900"/>
              <path id="Trazado_1327491" data-name="Trazado 1327491" d="M125.132,62.114s14.255,2.492,17.848,32.634,7.069,105.272-26.6,106.267" transform="translate(31.959 17.056)" fill="none" stroke="#0d0000" stroke-miterlimit="10" stroke-width="0.75"/>
              <path id="Trazado_1327492" data-name="Trazado 1327492" d="M.115,74.619S-.687,59,1.945,58.148s4.7,13.409,4.7,13.409Z" transform="translate(0 15.957)" fill="#e79a7b"/>
              <rect id="Rectángulo_457415" data-name="Rectángulo 457415" width="6.988" height="2.26" transform="translate(2.288 70.996) rotate(-20.276)" fill="#bfc1c0"/>
              <rect id="Rectángulo_457416" data-name="Rectángulo 457416" width="6.043" height="0.806" transform="matrix(0.938, -0.347, 0.347, 0.938, 3.619, 73.233)" fill="#2d333f"/>
              <g id="Grupo_1207460" data-name="Grupo 1207460" transform="translate(2.289 69.898)" opacity="0.2">
                <g id="Grupo_1207459" data-name="Grupo 1207459">
                  <g id="Grupo_1207458" data-name="Grupo 1207458" clip-path="url(#clip-path-4)">
                    <rect id="Rectángulo_457417" data-name="Rectángulo 457417" width="3.171" height="2.26" transform="translate(0 1.098) rotate(-20.279)" fill="#e5e8e7"/>
                  </g>
                </g>
              </g>
              <path id="Trazado_1327493" data-name="Trazado 1327493" d="M8.042,53.634,1.86,55.918l.1.282,6.182-2.284Z" transform="translate(0.511 14.728)" fill="#3c404b"/>
              <path id="Trazado_1327494" data-name="Trazado 1327494" d="M8.738,55.518,2.556,57.8l.1.282L8.842,55.8Z" transform="translate(0.702 15.245)" fill="#3c404b"/>
              <path id="Trazado_1327495" data-name="Trazado 1327495" d="M43.019,70.223,10.365,81.9A1.5,1.5,0,0,1,8.448,81L1.806,62.43a1.5,1.5,0,0,1,.906-1.917L35.366,48.831a1.5,1.5,0,0,1,1.917.908l6.642,18.567a1.5,1.5,0,0,1-.906,1.917" transform="translate(0.472 13.385)" fill="#f5f5f5"/>
              <path id="Trazado_1327496" data-name="Trazado 1327496" d="M26.144,52.447,8.71,58.683l.076-4.054A2.088,2.088,0,0,1,10.169,52.7l11.053-3.954a2.088,2.088,0,0,1,2.29.611Z" transform="translate(2.392 13.353)" fill="#f5f5f5"/>
              <path id="Trazado_1327497" data-name="Trazado 1327497" d="M19.533,52.39l-6.762,2.419a.986.986,0,0,1-.664-1.857l6.762-2.418a.986.986,0,1,1,.664,1.856" transform="translate(3.145 13.861)" fill="#18191d"/>
              <rect id="Rectángulo_457419" data-name="Rectángulo 457419" width="37.68" height="16.791" transform="translate(2.919 77.611) rotate(-19.683)" fill="#c26e34"/>
              <path id="Trazado_1327498" data-name="Trazado 1327498" d="M36.1,66.743h0a2.265,2.265,0,0,1-2.9-1.371l-4.13-11.54a2.268,2.268,0,0,1,1.371-2.9Z" transform="translate(7.948 13.986)" fill="#804922"/>
              <path id="Trazado_1327499" data-name="Trazado 1327499" d="M7.947,76.739h0L2.292,60.929a2.267,2.267,0,0,1,2.9,1.371l4.13,11.541a2.268,2.268,0,0,1-1.371,2.9" transform="translate(0.629 16.694)" fill="#804922"/>
              <path id="Trazado_1327500" data-name="Trazado 1327500" d="M32.649,60.282a12.393,12.393,0,1,1-15.843-7.495,12.393,12.393,0,0,1,15.843,7.495" transform="translate(2.357 14.296)" fill="#3c404b"/>
              <path id="Trazado_1327501" data-name="Trazado 1327501" d="M29.649,60.6A9.8,9.8,0,1,1,17.12,54.67,9.8,9.8,0,0,1,29.649,60.6" transform="translate(2.916 14.854)" fill="#686866"/>
              <path id="Trazado_1327502" data-name="Trazado 1327502" d="M23.719,61.219a4.676,4.676,0,1,1-5.978-2.827,4.677,4.677,0,0,1,5.978,2.827" transform="translate(4.02 15.959)" fill="#b1b0c2"/>
              <path id="Trazado_1327503" data-name="Trazado 1327503" d="M22.439,61.353a3.57,3.57,0,1,1-4.563-2.159,3.569,3.569,0,0,1,4.563,2.159" transform="translate(4.258 16.197)" fill="#18191d"/>
              <path id="Trazado_1327504" data-name="Trazado 1327504" d="M4.16,82.58S-.4,74.3.028,72.613,13.392,60.424,15.8,61.408s.635,4.8.635,4.8,4.385,3.6,3.682,5.673-4.3,8.628-4.3,8.628,25.159,55.043,27.627,63.833-.11,16.265-3.78,17.884c-8.867,3.912-14.394-2.715-18.395-13.256S4.16,82.58,4.16,82.58" transform="translate(0 16.845)" fill="#e79a7b"/>
              <path id="Trazado_1327505" data-name="Trazado 1327505" d="M73.629,32.587S64.823,26.573,62.8,33.794c-1.727,6.145,6.565,9.219,10.834,5.268Z" transform="translate(17.179 8.303)" fill="#db9275"/>
              <path id="Trazado_1327506" data-name="Trazado 1327506" d="M82.634,46.392c-.6.127-16.567,5-19.761,7.541s2.283,14.423,2.283,14.423-6.2,4.907-8.449,9.5-2.835,114.436-2.835,114.436h36.5Z" transform="translate(14.793 12.739)" fill="#6597c8"/>
              <path id="Trazado_1327507" data-name="Trazado 1327507" d="M53.871,161.973h36.5l-.273-5.162H53.9Z" transform="translate(14.793 43.06)" fill="#6fa5db"/>
              <path id="Trazado_1327508" data-name="Trazado 1327508" d="M72.426,188.224h39.487l-4.474-72.945-.548-8.744-.306-5.162-.548-8.744L104.112,61.2,78.378,63.212l-1.4,29.418-.421,8.744-.242,5.162-.421,8.744Z" transform="translate(19.888 16.805)" fill="#f5f5f5"/>
              <line id="Línea_3823" data-name="Línea 3823" x2="33.536" transform="translate(92.241 199.871)" fill="none" stroke="#0d0000" stroke-miterlimit="10" stroke-width="0.75"/>
              <path id="Trazado_1327509" data-name="Trazado 1327509" d="M75.666,94.6h40.583V85.858H76.087Z" transform="translate(20.778 23.576)" fill="#f6a052"/>
              <path id="Trazado_1327510" data-name="Trazado 1327510" d="M75.146,105.512h41.246V96.768H75.566Z" transform="translate(20.635 26.572)" fill="#f6a052"/>
              <path id="Trazado_1327511" data-name="Trazado 1327511" d="M103.287,66.145s-15.263,9.793-26.445,2.387" transform="translate(21.101 18.163)" fill="none" stroke="#0d0000" stroke-miterlimit="10" stroke-width="0.75"/>
              <path id="Trazado_1327512" data-name="Trazado 1327512" d="M93.264,73.147H88.8l-3.48,111.8H91.84Z" transform="translate(23.429 20.086)" fill="#50779e"/>
              <path id="Trazado_1327513" data-name="Trazado 1327513" d="M97.051,45.187,99.167,65.6s-6.555,8-7.136,12.592-1.595,114.436-1.595,114.436h39.052l-6.9-112.881s20.23-2.688,22-8.869c5.516-19.3-47.536-25.688-47.536-25.688" transform="translate(24.833 12.408)" fill="#6597c8"/>
              <path id="Trazado_1327514" data-name="Trazado 1327514" d="M120.507,72.307s-14.05-1.2-19.579,9.61-1.768,55.393,0,64.985,15.618,25.57,32.479,27.366l2.073-8.293s-18.381-.011-25.568-19.769-3.874-59.3-2.072-62.6c4.223-7.739,19.5-4.561,19.5-4.561Z" transform="translate(26.918 19.845)" fill="#5c1900"/>
              <path id="Trazado_1327515" data-name="Trazado 1327515" d="M56.488,147.435l13.275-11.646,2.816,4.459L59.323,153.24Z" transform="translate(15.511 37.287)" fill="#50779e"/>
              <path id="Trazado_1327516" data-name="Trazado 1327516" d="M79.332,66.715s-8.383-6.11-10.4-7.769c0,0,8.089-9.344,13.669-10.034,16.106-1.991,40.991,3.027,44.3,3.988,5.671,1.649,13.548,7.927,11.056,10.5-2.061,2.129-31.76,1.3-31.76,1.3Z" transform="translate(18.93 13.304)" fill="#50779e"/>
              <path id="Trazado_1327517" data-name="Trazado 1327517" d="M68.135,42.152,63.712,22.043s-10.32-9.282-9.823-10.829,9.484-1.031,9.484-1.031-2.152-5.156-1.1-6.7S81.23,5.714,81.23,5.714s.8-4.985,2.336-5.672,18.38,7.219,18.38,7.219.231-4.985,1.166-5.157,2.477,5.672,2.477,5.672,6.318-4.125,8.157-3.438-4.232,6.532-4.232,6.532,6.476.343,6.9,1.89S115,40.889,115,40.889c-.4,7.277,2.361,23.3-7.173,24.29-6.628.687-38.348-11.348-39.687-23.027" transform="translate(14.793 0)" fill="#75332f"/>
              <path id="Trazado_1327518" data-name="Trazado 1327518" d="M101.61,33.071l1.266,35.853s-11.5,11.192-25.619,2.013l-.765-34.343Z" transform="translate(21.004 9.081)" fill="#e79a7b"/>
              <path id="Trazado_1327519" data-name="Trazado 1327519" d="M98.033,34.508l1.207,9.8S98.59,62.03,89.684,66.9c-5.069,2.77-12.427,3.648-12.427,3.648L76.492,36.2Z" transform="translate(21.004 9.476)" fill="#41313b"/>
              <path id="Trazado_1327520" data-name="Trazado 1327520" d="M104.3,28.884c0-14.042-18.157-13.074-18.157-13.074s-18.158-.969-18.158,13.074c0,4.364-.242,13.558,0,15.978s4.842,19.61,18.158,19.61S104.06,47.282,104.3,44.862s0-11.614,0-15.978" transform="translate(18.639 4.337)" fill="#e79a7b"/>
              <path id="Trazado_1327521" data-name="Trazado 1327521" d="M94.339,32.587s8.806-6.014,10.834,1.207c1.727,6.145-6.565,9.219-10.834,5.268Z" transform="translate(25.905 8.303)" fill="#e79a7b"/>
              <path id="Trazado_1327522" data-name="Trazado 1327522" d="M66.247,15.495s1.731,7.291,8.224,10.343,17.651,3.053,19.538,2.544-2.874-5.256-2.874-5.256,9.823,3.729,13.678,1.356-2.856-17.466-38.565-8.987" transform="translate(18.191 3.552)" fill="#75332f"/>
              <path id="Trazado_1327523" data-name="Trazado 1327523" d="M70.156,29.436c-.111-1.462,6.711-1.993,6.481.2s-6.337,1.705-6.481-.2" transform="translate(19.264 7.734)" fill="#75332f"/>
              <path id="Trazado_1327524" data-name="Trazado 1327524" d="M88.918,29.436c.111-1.462-6.711-1.993-6.481.2s6.337,1.705,6.481-.2" transform="translate(22.635 7.734)" fill="#75332f"/>
              <path id="Trazado_1327525" data-name="Trazado 1327525" d="M79.333,36.014s-1.739,6.707-1.254,8.735,4.174.858,4.174.858" transform="translate(21.417 9.889)" fill="none" stroke="#0d0000" stroke-miterlimit="10" stroke-width="0.75"/>
              <path id="Trazado_1327526" data-name="Trazado 1327526" d="M76.7,46.225h7.565s-1.137,6.11-3.782,6.1c-2.553-.005-3.783-6.1-3.783-6.1" transform="translate(21.06 12.693)" fill="#fdfcff"/>
              <path id="Trazado_1327527" data-name="Trazado 1327527" d="M102.609,33.664s-1.131-1.747-2.209-1.439-3.134,2.57-3.853,4.162" transform="translate(26.511 8.839)" fill="none" stroke="#0d0000" stroke-miterlimit="10" stroke-width="0.75"/>
              <path id="Trazado_1327528" data-name="Trazado 1327528" d="M83.009,34.7c0,1.484.647,2.687,1.457,2.689s1.467-1.2,1.472-2.68-.647-2.688-1.457-2.691-1.468,1.2-1.472,2.682" transform="translate(22.794 8.792)" fill="#0d0000"/>
              <path id="Trazado_1327529" data-name="Trazado 1327529" d="M75.3,34.7c0,1.484-.649,2.687-1.458,2.689s-1.467-1.2-1.471-2.683.65-2.687,1.458-2.688,1.467,1.2,1.471,2.682" transform="translate(19.872 8.791)" fill="#0d0000"/>
              <path id="Trazado_1327530" data-name="Trazado 1327530" d="M19.976,86.453l15.652,57.572,24.607-7.4L45.412,80.213Z" transform="translate(5.485 22.026)" fill="#f2f2f2"/>
              <path id="Trazado_1327531" data-name="Trazado 1327531" d="M32.626,90.1,51.04,148.482l43.8-10.894L79.713,79.84Z" transform="translate(8.959 21.924)" fill="#fff"/>
              <path id="Trazado_1327532" data-name="Trazado 1327532" d="M41.939,80.214,32.626,90l11.331-2.443Z" transform="translate(8.959 22.026)" fill="#b6b6b8"/>
              <path id="Trazado_1327533" data-name="Trazado 1327533" d="M89.619,106.132s-5.943-6.958-9.2-9.248c-2.454-1.727-13.506,4.953-13.683,6.455s3.612,2.5,3.612,2.5-1.089,2.5-.02,3.143a3.974,3.974,0,0,0,2.563.312s-2.451,2.386-1.257,3.285,4.937-1.942,4.937-1.942,5.16,8.769,10.269,6.963Z" transform="translate(18.324 26.526)" fill="#e79a7b"/>
              <path id="Trazado_1327534" data-name="Trazado 1327534" d="M82.508,115.545l2.779-11.466,51.188,43.864s-1.767,12.109-11.96,12.109c-13.421,0-42.007-44.506-42.007-44.506" transform="translate(22.656 28.58)" fill="#e79a7b"/>
              <path id="Trazado_1327535" data-name="Trazado 1327535" d="M111.84,78.508c-14.932,4.873-3.7,58.145-3.7,58.145l22.413,18.661s7.739-5.84,2.211-12.791c0,0-4.619-45.014-6.634-55.282s-5.847-11.488-14.287-8.734" transform="translate(28.582 21.209)" fill="#6597c8"/>
              <path id="Trazado_1327536" data-name="Trazado 1327536" d="M129.637,129.513a42.386,42.386,0,0,0-14.172-4.9" transform="translate(31.706 34.219)" fill="none" stroke="#0d0000" stroke-miterlimit="10" stroke-width="0.75"/>
              <line id="Línea_3824" data-name="Línea 3824" x1="2.802" y2="2.387" transform="translate(2.514 84.308)" fill="none" stroke="#0d0000" stroke-miterlimit="10" stroke-width="0.75"/>
              <path id="Trazado_1327537" data-name="Trazado 1327537" d="M90.436,161.973l.066-5.162h38.67l.316,5.162Z" transform="translate(24.833 43.06)" fill="#6fa5db"/>
              <path id="Trazado_1327538" data-name="Trazado 1327538" d="M142.441,160.861l3.254,205.716H119.322L103.284,195.865H95.472l-19.1,72.491,7.214,98.22H56.718L43.267,266.254,56.72,160.861Z" transform="translate(11.881 44.172)" fill="#5a5b71"/>
              <path id="Trazado_1327539" data-name="Trazado 1327539" d="M56.669,164.98l-2.8,17.866s6.944-1.426,8.879-17.866" transform="translate(14.793 45.303)" fill="none" stroke="#0d0000" stroke-miterlimit="10" stroke-width="0.75"/>
              <path id="Trazado_1327540" data-name="Trazado 1327540" d="M113.319,164.98s.414,18.557,6.5,18.557V164.98" transform="translate(31.117 45.303)" fill="none" stroke="#0d0000" stroke-miterlimit="10" stroke-width="0.75"/>
              <line id="Línea_3825" data-name="Línea 3825" x2="86.523" transform="translate(67.887 210.629)" fill="none" stroke="#0d0000" stroke-miterlimit="10" stroke-width="0.75"/>
              <line id="Línea_3826" data-name="Línea 3826" x1="21.68" transform="translate(99.827 239.848)" fill="none" stroke="#0d0000" stroke-miterlimit="10" stroke-width="0.75"/>
              <line id="Línea_3827" data-name="Línea 3827" x2="5.594" y2="5.455" transform="translate(115.165 240.037)" fill="none" stroke="#0d0000" stroke-miterlimit="10" stroke-width="0.75"/>
              <line id="Línea_3828" data-name="Línea 3828" x1="6.479" y2="5.455" transform="translate(100.874 240.037)" fill="none" stroke="#0d0000" stroke-miterlimit="10" stroke-width="0.75"/>
              <path id="Trazado_1327541" data-name="Trazado 1327541" d="M82.191,165.252s.748,8.932,3.415,15.758c1.9,4.868,2.492,13.65,2.492,13.65" transform="translate(22.569 45.378)" fill="none" stroke="#0d0000" stroke-miterlimit="10" stroke-width="0.75"/>
              <path id="Trazado_1327542" data-name="Trazado 1327542" d="M77.206,165.252s2.468,13.8,3.738,15.946c.96,1.617,8.821,1.92,8.821,1.92" transform="translate(21.201 45.378)" fill="none" stroke="#0d0000" stroke-miterlimit="10" stroke-width="0.75"/>
              <line id="Línea_3829" data-name="Línea 3829" x1="5.098" y2="7.69" transform="translate(83.159 312.529)" fill="none" stroke="#0d0000" stroke-miterlimit="10" stroke-width="0.75"/>
              <path id="Trazado_1327543" data-name="Trazado 1327543" d="M68.3,202.386,54.955,199.56l-.663,2.011,13.957,2.911Z" transform="translate(14.909 54.798)" fill="#6c6d87"/>
              <path id="Trazado_1327544" data-name="Trazado 1327544" d="M72.3,207.7l-20.576-4.218-1.712,4.45,21.8,4.576Z" transform="translate(13.733 55.877)" fill="#6c6d87"/>
              <path id="Trazado_1327545" data-name="Trazado 1327545" d="M129.511,315.487v8.63H103.138l-.933-8.63Z" transform="translate(28.065 86.632)" fill="#676a82"/>
              <path id="Trazado_1327546" data-name="Trazado 1327546" d="M80.941,324.117l-.459-8.63H52.913l1.156,8.63Z" transform="translate(14.53 86.632)" fill="#676a82"/>
              <line id="Línea_3830" data-name="Línea 3830" x2="6.017" y2="6.618" transform="translate(122.517 312.529)" fill="none" stroke="#0d0000" stroke-miterlimit="10" stroke-width="0.75"/>
              <path id="Trazado_1327547" data-name="Trazado 1327547" d="M119.038,232.805l-14.131,1.249v3.1l-2.656.979.95,2.946,18.786-1.781v-3.106H119.14Z" transform="translate(28.078 63.928)" fill="#6c6d87"/>
              <path id="Trazado_1327548" data-name="Trazado 1327548" d="M118.452,240.426l-12.333.678.568,1.6,11.773-.051Z" transform="translate(29.14 66.02)" fill="#6c6d87"/>
              <line id="Línea_3831" data-name="Línea 3831" y2="8.201" transform="translate(80.609 205.033)" fill="none" stroke="#0d0000" stroke-miterlimit="10" stroke-width="0.75"/>
              <line id="Línea_3832" data-name="Línea 3832" y2="8.201" transform="translate(132.668 205.033)" fill="none" stroke="#0d0000" stroke-miterlimit="10" stroke-width="0.75"/>
              <path id="Trazado_1327549" data-name="Trazado 1327549" d="M84.62,329.326a55.031,55.031,0,0,0-7.463-.008c-3.778.454-.849,8.38-8.53,8.224,0,0,2.375-10.036-2.981-14.055,0,0-7.6-.47-5.567,7.027s3.926,18.5,1.238,20.381-27.757-6.076-27.165,12h54.8s-1.985-8.216-3.972-17.6c-.64-3.026-.357-15.962-.357-15.962" transform="translate(9.375 88.827)" fill="#5c1900"/>
              <path id="Trazado_1327550" data-name="Trazado 1327550" d="M88.946,354.4a26.385,26.385,0,0,1-.056,6.652H76.046s-1.23-3.167-2.09-2.99-1.077,2.99-1.077,2.99H68.832s-1.073-3.343-1.954-3.343-1.389,3.343-1.389,3.343H45.958s-.467-3.132-1.852-3.325c-1.022-.143-.633,3.325-.633,3.325H36.632s-1,.242-2.483-6.652Z" transform="translate(9.377 97.318)" fill="#2e0c00"/>
              <line id="Línea_3833" data-name="Línea 3833" x1="4.894" y2="3.495" transform="translate(69.604 431.101)" fill="none" stroke="#0d0000" stroke-miterlimit="10" stroke-width="0.75"/>
              <line id="Línea_3834" data-name="Línea 3834" x2="4.596" y2="4.464" transform="translate(69.549 430.296)" fill="none" stroke="#0d0000" stroke-miterlimit="10" stroke-width="0.75"/>
              <line id="Línea_3835" data-name="Línea 3835" x1="4.894" y2="3.495" transform="translate(69.251 434.76)" fill="none" stroke="#63341e" stroke-linecap="round" stroke-linejoin="round" stroke-width="1"/>
              <line id="Línea_3836" data-name="Línea 3836" x2="5.807" y2="3.823" transform="translate(69.604 434.596)" fill="none" stroke="#0d0000" stroke-miterlimit="10" stroke-width="0.75"/>
              <line id="Línea_3837" data-name="Línea 3837" y1="4.048" x2="4.383" transform="translate(69.549 426.248)" fill="none" stroke="#0d0000" stroke-miterlimit="10" stroke-width="0.75"/>
              <line id="Línea_3838" data-name="Línea 3838" x2="5.761" y2="5.492" transform="translate(68.737 425.608)" fill="none" stroke="#0d0000" stroke-miterlimit="10" stroke-width="0.75"/>
              <path id="Trazado_1327551" data-name="Trazado 1327551" d="M75.529,340.59s-5.417.329-6.456,5.255-.218,12.35-.218,12.35" transform="translate(18.823 93.525)" fill="none" stroke="#0d0000" stroke-miterlimit="10" stroke-width="0.75"/>
              <path id="Trazado_1327552" data-name="Trazado 1327552" d="M45.784,344.849s6.977,2.642,7.757,6.513a22.733,22.733,0,0,1,.626,5.663" transform="translate(12.572 94.694)" fill="none" stroke="#0d0000" stroke-miterlimit="10" stroke-width="0.75"/>
              <path id="Trazado_1327553" data-name="Trazado 1327553" d="M84.751,39.872c-.129.979,1.546,2.006,3.74,2.294s4.077-.27,4.206-1.249-1.546-2.006-3.74-2.294-4.077.27-4.206,1.249" transform="translate(23.27 10.585)" fill="#d47a55"/>
              <path id="Trazado_1327554" data-name="Trazado 1327554" d="M75.635,39.872c.129.979-1.546,2.006-3.74,2.294s-4.077-.27-4.206-1.249,1.546-2.006,3.74-2.294,4.077.27,4.206,1.249" transform="translate(18.585 10.585)" fill="#d47a55"/>
            </g>
          </g>
        </g>
      </g>
      <g id="Grupo_1207477" data-name="Grupo 1207477" transform="translate(376.217 2781.798) rotate(17)">
        <g id="Grupo_1207476" data-name="Grupo 1207476" clip-path="url(#clip-path-5)">
          <path id="Trazado_1327555" data-name="Trazado 1327555" d="M432.689,0,346.1,17.163,259.677.031V0l-.08.016L259.516,0V.031L173.091,17.163,86.666.031V0l-.08.016L86.505,0V.031L0,17.178V276.967L86.586,259.8l86.425,17.131v.032l.08-.016.081.016v-.032L259.6,259.8l86.426,17.131v.032l.08-.016.081.016v-.032l86.505-17.147Z" fill="#fff"/>
          <path id="Trazado_1327556" data-name="Trazado 1327556" d="M346.024,27.336v239.4l.08.02.08-.02,35.71-7.07,40.8-8.09V12.176l-76.51,15.16-.08.02Z" fill="#a1e7f4"/>
          <path id="Trazado_1327557" data-name="Trazado 1327557" d="M259.514,10.226v239.4l.08-.02.08.02,86.35,17.11.08.02.08-.02V27.336l-.08.02-.08-.02-86.35-17.11-.08-.02Z" fill="#8bc8d4"/>
          <path id="Trazado_1327558" data-name="Trazado 1327558" d="M173.014,27.336v239.4l.08.02.08-.02,86.34-17.11.08-.02.08.02V10.226l-.08-.02-.08.02-86.34,17.11-.08.02Z" fill="#a1e7f4"/>
          <path id="Trazado_1327559" data-name="Trazado 1327559" d="M86.5,10.226v239.4l.08-.02.08.02,86.35,17.11.08.02.08-.02V27.336l-.08.02-.08-.02-86.35-17.11-.08-.02Z" fill="#a1e7f4"/>
          <path id="Trazado_1327560" data-name="Trazado 1327560" d="M10,25.4v239.39l76.5-15.16.08-.02.08.02V10.226l-.08-.02-.08.02-.77.15-14.96,2.97Z" fill="#a1e7f4"/>
          <g id="Grupo_1207475" data-name="Grupo 1207475">
            <g id="Grupo_1207474" data-name="Grupo 1207474" clip-path="url(#clip-path-5)">
              <path id="Trazado_1327561" data-name="Trazado 1327561" d="M127.143,18.247,85.734,10.376,10.005,25.4V82.072H81.046A34.683,34.683,0,0,0,92,80.3l27.809-9.257A18.7,18.7,0,0,0,132.356,50.3Z" fill="#8fc23a"/>
              <path id="Trazado_1327562" data-name="Trazado 1327562" d="M62.228,15.038,58.915,34.385A23.471,23.471,0,0,1,39.167,53.648L10.005,57.9V25.4Z" fill="#80b035"/>
              <path id="Trazado_1327563" data-name="Trazado 1327563" d="M215.773,18.894l10.409,70.763a16.964,16.964,0,0,1-11.208,18.49,31.59,31.59,0,0,0-21.207,29.835v24.2a21.535,21.535,0,0,0,11.37,18.985A50.144,50.144,0,0,1,229.809,238.7l-4.9,17.783,34.768-6.858,86.43,17.13,76.59-15.18V12.176l-76.51,15.16-86.51-17.11Z" fill="#8fc23a"/>
              <path id="Trazado_1327564" data-name="Trazado 1327564" d="M422.694,139.466H384.84a19.8,19.8,0,0,0-19.8,19.8,12.8,12.8,0,0,1-12.8,12.8h-20.3a29,29,0,0,0,0,58h90.765Z" fill="#80b035"/>
              <g id="Grupo_1207467" data-name="Grupo 1207467" opacity="0.2">
                <g id="Grupo_1207466" data-name="Grupo 1207466">
                  <g id="Grupo_1207465" data-name="Grupo 1207465" clip-path="url(#clip-path-7)">
                    <path id="Trazado_1327565" data-name="Trazado 1327565" d="M346.184,27.336l-86.51-17.11v239.4l86.43,17.13Z" fill="#5a7a25"/>
                  </g>
                </g>
              </g>
              <path id="Trazado_1327566" data-name="Trazado 1327566" d="M311.449,93.951l3.894,6a9.85,9.85,0,0,1-.2,11.021l-3.667,5.226a9.848,9.848,0,0,1-8.062,4.192h-4.8a9.849,9.849,0,0,1-9.849-9.849V99.315a9.848,9.848,0,0,1,9.849-9.849h4.573a9.849,9.849,0,0,1,8.26,4.485" fill="#688f2b"/>
              <path id="Trazado_1327567" data-name="Trazado 1327567" d="M10.757,108.164,58.4,133.111a26.961,26.961,0,0,1,13.465,31.122l-6.739,24.182a26.96,26.96,0,0,0,16.5,32.482l.217.081a26.962,26.962,0,0,1,16.865,31.036L86.5,249.626l-75.747,15.16Z" fill="#8fc23a"/>
              <path id="Trazado_1327568" data-name="Trazado 1327568" d="M10.757,222.4H28.4A16.67,16.67,0,0,1,45.046,238.22l.99,19.426-35.279,7.14Z" fill="#80b035"/>
              <path id="Trazado_1327569" data-name="Trazado 1327569" d="M10.757,169.24l25.6,3.855a11.369,11.369,0,0,1,9.423,13.623l-2.327,10.86a11.368,11.368,0,0,1-11.116,8.986H10.757Z" fill="#80b035"/>
              <path id="Trazado_1327570" data-name="Trazado 1327570" d="M121.731,176.234c2.884,0,5.395.792,6.735,1.966,1.34-1.174,3.851-1.966,6.735-1.966,4.29,0,7.768,1.75,7.768,3.908H113.963c0-2.158,3.478-3.908,7.768-3.908" fill="#ccf7ff"/>
              <path id="Trazado_1327571" data-name="Trazado 1327571" d="M182.074,228.121c2.884,0,5.395.792,6.735,1.966,1.34-1.174,3.852-1.966,6.735-1.966,4.29,0,7.768,1.75,7.768,3.908H174.306c0-2.158,3.478-3.908,7.768-3.908" fill="#ccf7ff"/>
              <path id="Trazado_1327572" data-name="Trazado 1327572" d="M176.577,65.717c2.884,0,5.4.792,6.735,1.966,1.34-1.174,3.852-1.966,6.735-1.966,4.291,0,7.769,1.75,7.769,3.908H168.809c0-2.158,3.478-3.908,7.768-3.908" fill="#ccf7ff"/>
              <path id="Trazado_1327573" data-name="Trazado 1327573" d="M79.769,101.582c2.884,0,5.4.792,6.735,1.966,1.34-1.174,3.852-1.966,6.735-1.966,4.29,0,7.768,1.75,7.768,3.908H72c0-2.158,3.478-3.908,7.768-3.908" fill="#ccf7ff"/>
              <g id="Grupo_1207470" data-name="Grupo 1207470" opacity="0.1">
                <g id="Grupo_1207469" data-name="Grupo 1207469">
                  <g id="Grupo_1207468" data-name="Grupo 1207468" clip-path="url(#clip-path-8)">
                    <path id="Trazado_1327574" data-name="Trazado 1327574" d="M173.092,17.163l-.08,259.8L86.586,259.8,86.506.032Z" fill="#292929"/>
                  </g>
                </g>
              </g>
              <path id="Trazado_1327575" data-name="Trazado 1327575" d="M369.2,22.776V54.188a15.439,15.439,0,0,0,11.054,14.8l2.255.668A15.439,15.439,0,0,1,393.257,87.5a15.439,15.439,0,0,0,12.971,18.327l16.466,2.333V12.176Z" fill="#80b035"/>
              <path id="Trazado_1327576" data-name="Trazado 1327576" d="M308.231,19.848l-48.716-9.621-26.853,4.812,2.3,16.475a21.245,21.245,0,0,0,21.041,18.3,21.242,21.242,0,0,1,7.123,1.23l7.671,2.729A21.245,21.245,0,0,0,297.057,43Z" fill="#80b035"/>
              <g id="Grupo_1207473" data-name="Grupo 1207473" opacity="0.1">
                <g id="Grupo_1207472" data-name="Grupo 1207472">
                  <g id="Grupo_1207471" data-name="Grupo 1207471" clip-path="url(#clip-path-9)">
                    <path id="Trazado_1327577" data-name="Trazado 1327577" d="M346.1,17.163,259.517.032,259.6,259.8l86.426,17.163Z" fill="#292929"/>
                  </g>
                </g>
              </g>
              <path id="Trazado_1327578" data-name="Trazado 1327578" d="M395.946,216.6h8.332l-4.166-10.037-4.166-10.037-4.166,10.037L387.614,216.6Z" fill="#48631e"/>
              <path id="Trazado_1327579" data-name="Trazado 1327579" d="M288.767,160.772H297.1l-4.166-10.037L288.767,140.7,284.6,150.735l-4.166,10.037Z" fill="#48631e"/>
              <path id="Trazado_1327580" data-name="Trazado 1327580" d="M243.4,111.619h8.332l-4.166-10.037L243.4,91.545l-4.166,10.037-4.166,10.037Z" fill="#48631e"/>
              <path id="Trazado_1327581" data-name="Trazado 1327581" d="M216.345,170.809h8.332l-4.166-10.037-4.166-10.037-4.166,10.037-4.166,10.037Z" fill="#48631e"/>
              <path id="Trazado_1327582" data-name="Trazado 1327582" d="M68.986,61.5h8.332L73.152,51.466,68.986,41.429,64.82,51.466,60.654,61.5Z" fill="#48631e"/>
              <path id="Trazado_1327583" data-name="Trazado 1327583" d="M24.43,177.861h8.332L28.6,167.824,24.43,157.787l-4.166,10.037L16.1,177.861Z" fill="#48631e"/>
              <path id="Trazado_1327584" data-name="Trazado 1327584" d="M60.654,232.436h8.332L64.82,222.4l-4.166-10.037L56.488,222.4l-4.166,10.037Z" fill="#48631e"/>
              <path id="Trazado_1327585" data-name="Trazado 1327585" d="M44.265,134.111H52.6l-4.166-10.037-4.166-10.037L40.1,124.074l-4.166,10.037Z" fill="#48631e"/>
              <path id="Trazado_1327586" data-name="Trazado 1327586" d="M373.4,101.384h8.332l-4.166-10.037L373.4,81.31l-4.166,10.037-4.166,10.037Z" fill="#48631e"/>
              <path id="Trazado_1327587" data-name="Trazado 1327587" d="M408.42,71.539h8.332L412.586,61.5,408.42,51.465,404.254,61.5l-4.166,10.037Z" fill="#48631e"/>
              <path id="Trazado_1327588" data-name="Trazado 1327588" d="M39.52,216.113a18.264,18.264,0,1,0,18.263-18.275A18.262,18.262,0,0,0,39.52,216.113" fill="#fff"/>
              <path id="Trazado_1327589" data-name="Trazado 1327589" d="M33.626,216.114a24.158,24.158,0,1,1,24.158,24.157,24.192,24.192,0,0,1-24.158-24.157m2.156,0a22,22,0,1,0,22-22.015,22.026,22.026,0,0,0-22,22.015" fill="#fff"/>
              <path id="Trazado_1327590" data-name="Trazado 1327590" d="M57.783,197.838v36.538a18.269,18.269,0,0,0,0-36.538" fill="#fff"/>
              <path id="Trazado_1327591" data-name="Trazado 1327591" d="M49.17,185.184l12.163,30.444-7.1,1.946Z" fill="#e91d47"/>
              <path id="Trazado_1327592" data-name="Trazado 1327592" d="M66.4,248.018,54.235,217.574l7.1-1.946Z" fill="#e5e8e7"/>
              <path id="Trazado_1327593" data-name="Trazado 1327593" d="M355.9,149.9a4.128,4.128,0,0,1-.066.717,4.129,4.129,0,0,1-.717.066,4.169,4.169,0,0,1-4.125-4.908,4.24,4.24,0,0,1,.717-.066A4.191,4.191,0,0,1,355.9,149.9" fill="#688f2b"/>
              <path id="Trazado_1327594" data-name="Trazado 1327594" d="M349.061,149.9a4.128,4.128,0,0,1-.066.717,4.129,4.129,0,0,1-.717.066,4.169,4.169,0,0,1-4.125-4.908,4.169,4.169,0,0,1,4.908,4.125" fill="#688f2b"/>
              <path id="Trazado_1327595" data-name="Trazado 1327595" d="M342.22,149.9a4.128,4.128,0,0,1-.066.717,4.129,4.129,0,0,1-.717.066,4.169,4.169,0,0,1-4.125-4.908,4.239,4.239,0,0,1,.717-.066,4.191,4.191,0,0,1,4.191,4.191" fill="#688f2b"/>
              <path id="Trazado_1327596" data-name="Trazado 1327596" d="M335.379,149.9a4.128,4.128,0,0,1-.066.717,4.129,4.129,0,0,1-.717.066,4.169,4.169,0,0,1-4.125-4.908,4.239,4.239,0,0,1,.717-.066,4.191,4.191,0,0,1,4.191,4.191" fill="#688f2b"/>
              <path id="Trazado_1327597" data-name="Trazado 1327597" d="M248.659,127.528a4.129,4.129,0,0,1-.066.717,4.129,4.129,0,0,1-.717.066,4.169,4.169,0,0,1-4.125-4.908,4.169,4.169,0,0,1,4.908,4.125" fill="#688f2b"/>
              <path id="Trazado_1327598" data-name="Trazado 1327598" d="M241.818,127.528a4.129,4.129,0,0,1-.066.717,4.129,4.129,0,0,1-.717.066,4.169,4.169,0,0,1-4.125-4.908,4.169,4.169,0,0,1,4.908,4.125" fill="#688f2b"/>
              <path id="Trazado_1327599" data-name="Trazado 1327599" d="M234.977,127.528a4.129,4.129,0,0,1-.066.717,4.129,4.129,0,0,1-.717.066,4.169,4.169,0,0,1-4.125-4.908,4.239,4.239,0,0,1,.717-.066,4.191,4.191,0,0,1,4.191,4.191" fill="#688f2b"/>
              <path id="Trazado_1327600" data-name="Trazado 1327600" d="M228.136,127.528a4.131,4.131,0,0,1-.066.717,4.129,4.129,0,0,1-.717.066,4.169,4.169,0,0,1-4.125-4.908,4.239,4.239,0,0,1,.717-.066,4.191,4.191,0,0,1,4.191,4.191" fill="#688f2b"/>
              <path id="Trazado_1327601" data-name="Trazado 1327601" d="M361.644,53.17a4.131,4.131,0,0,1-.066.717,4.129,4.129,0,0,1-.717.066,4.169,4.169,0,0,1-4.125-4.908,4.239,4.239,0,0,1,.717-.066,4.191,4.191,0,0,1,4.191,4.191" fill="#688f2b"/>
              <path id="Trazado_1327602" data-name="Trazado 1327602" d="M354.8,53.17a4.128,4.128,0,0,1-.066.717,4.129,4.129,0,0,1-.717.066,4.169,4.169,0,0,1-4.125-4.908A4.169,4.169,0,0,1,354.8,53.17" fill="#688f2b"/>
              <path id="Trazado_1327603" data-name="Trazado 1327603" d="M347.963,53.17a4.131,4.131,0,0,1-.066.717,4.129,4.129,0,0,1-.717.066,4.169,4.169,0,0,1-4.125-4.908,4.239,4.239,0,0,1,.717-.066,4.191,4.191,0,0,1,4.191,4.191" fill="#688f2b"/>
              <path id="Trazado_1327604" data-name="Trazado 1327604" d="M341.122,53.17a4.131,4.131,0,0,1-.066.717,4.129,4.129,0,0,1-.717.066,4.169,4.169,0,0,1-4.125-4.908,4.239,4.239,0,0,1,.717-.066,4.191,4.191,0,0,1,4.191,4.191" fill="#688f2b"/>
              <path id="Trazado_1327605" data-name="Trazado 1327605" d="M122.989,52.634a4.129,4.129,0,0,1-.066.717,4.13,4.13,0,0,1-.717.066,4.169,4.169,0,0,1-4.125-4.908,4.239,4.239,0,0,1,.717-.066,4.191,4.191,0,0,1,4.191,4.191" fill="#688f2b"/>
              <path id="Trazado_1327606" data-name="Trazado 1327606" d="M116.148,52.634a4.129,4.129,0,0,1-.066.717,4.13,4.13,0,0,1-.717.066,4.169,4.169,0,0,1-4.125-4.908,4.169,4.169,0,0,1,4.908,4.125" fill="#688f2b"/>
              <path id="Trazado_1327607" data-name="Trazado 1327607" d="M109.307,52.634a4.129,4.129,0,0,1-.066.717,4.13,4.13,0,0,1-.717.066,4.169,4.169,0,0,1-4.125-4.908,4.239,4.239,0,0,1,.717-.066,4.191,4.191,0,0,1,4.191,4.191" fill="#688f2b"/>
              <path id="Trazado_1327608" data-name="Trazado 1327608" d="M102.466,52.634a4.129,4.129,0,0,1-.066.717,4.13,4.13,0,0,1-.717.066,4.169,4.169,0,0,1-4.125-4.908,4.239,4.239,0,0,1,.717-.066,4.191,4.191,0,0,1,4.191,4.191" fill="#688f2b"/>
              <path id="Trazado_1327609" data-name="Trazado 1327609" d="M38.166,35.652a4.129,4.129,0,0,1-.066.717,4.129,4.129,0,0,1-.717.066,4.169,4.169,0,0,1-4.125-4.908,4.239,4.239,0,0,1,.717-.066,4.191,4.191,0,0,1,4.191,4.191" fill="#688f2b"/>
              <path id="Trazado_1327610" data-name="Trazado 1327610" d="M31.325,35.652a4.129,4.129,0,0,1-.066.717,4.129,4.129,0,0,1-.717.066,4.169,4.169,0,0,1-4.125-4.908,4.169,4.169,0,0,1,4.908,4.125" fill="#688f2b"/>
              <path id="Trazado_1327611" data-name="Trazado 1327611" d="M24.484,35.652a4.129,4.129,0,0,1-.066.717,4.129,4.129,0,0,1-.717.066,4.169,4.169,0,0,1-4.125-4.908,4.239,4.239,0,0,1,.717-.066,4.191,4.191,0,0,1,4.191,4.191" fill="#688f2b"/>
              <path id="Trazado_1327612" data-name="Trazado 1327612" d="M17.643,35.652a4.129,4.129,0,0,1-.066.717,4.129,4.129,0,0,1-.717.066,4.169,4.169,0,0,1-4.125-4.908,4.239,4.239,0,0,1,.717-.066,4.191,4.191,0,0,1,4.191,4.191" fill="#688f2b"/>
            </g>
          </g>
        </g>
      </g>
      <g id="Grupo_1207479" data-name="Grupo 1207479" transform="translate(790 2938)">
        <g id="Grupo_1207478" data-name="Grupo 1207478" clip-path="url(#clip-path-10)">
          <path id="Trazado_1327613" data-name="Trazado 1327613" d="M310.2,253.693c115.974-45.3,99.657-136.8,49-138.016-270.179-6.455-262-31.716-303.966-86.949" fill="none" stroke="#5a5b71" stroke-miterlimit="10" stroke-width="1" stroke-dasharray="5 5"/>
          <path id="Trazado_1327614" data-name="Trazado 1327614" d="M0,0,45.214,20.568,53.746,47.3Z" fill="#f3b35e"/>
          <path id="Trazado_1327615" data-name="Trazado 1327615" d="M45.214,20.568,0,0,25.985,49.681Z" fill="#ffca85"/>
          <path id="Trazado_1327616" data-name="Trazado 1327616" d="M56.071,16.134,53.746,47.3,45.214,20.568,0,0Z" fill="#6e4c33"/>
          <path id="Trazado_1327617" data-name="Trazado 1327617" d="M77,8.273,56.071,16.134,0,0Z" fill="#ffca85"/>
        </g>
      </g>
    </g>
  </g>
</svg>
