<svg xmlns="http://www.w3.org/2000/svg" width="127" height="127" viewBox="0 0 127 127">
  <g id="Grupo_1207847" data-name="Grupo 1207847" transform="translate(-1204.971 -2742.499)">
    <g id="Grupo_1207738" data-name="Grupo 1207738">
      <g id="Grupo_1207190" data-name="Grupo 1207190" transform="translate(703.57 -4355.843)">
        <circle id="Elipse_13775" data-name="Elipse 13775" cx="63.5" cy="63.5" r="63.5" transform="translate(501.4 7098.342)" fill="#fbe49d"/>
        <circle id="Elipse_13776" data-name="Elipse 13776" cx="52" cy="52" r="52" transform="translate(513.4 7110.342)" fill="#3b4b68"/>
      </g>
      <g id="Grupo_1207737" data-name="Grupo 1207737" transform="translate(38.084 2254.997)">
        <path id="Trazado_1328378" data-name="Trazado 1328378" d="M1204.615,542.945c.9-2.051,1.743-3.917,2.521-5.81a1.169,1.169,0,0,0-.154-1.019c-.947-1.034-1.982-1.988-2.958-3-.752-.777-.756-1.253.006-2.019q3.766-3.787,7.565-7.542c.8-.794,1.305-.8,2.1-.009,1.116,1.109,2.192,2.258,3.182,3.282,2.231-.862,4.3-1.64,6.34-2.479.2-.082.339-.541.346-.829.036-1.369,0-2.74.022-4.11.014-1.049.373-1.409,1.439-1.412q5.343-.018,10.687,0c1.1,0,1.453.378,1.464,1.5.014,1.37-.032,2.742.033,4.109a1.18,1.18,0,0,0,.613.821q2.617,1.17,5.293,2.206a1.17,1.17,0,0,0,1-.212c1.011-.922,1.949-1.924,2.935-2.876.805-.777,1.306-.786,2.106,0q3.8,3.753,7.564,7.54c.752.756.748,1.264.007,2.03-.976,1.008-2.011,1.961-2.959,2.995a1.169,1.169,0,0,0-.151,1.019c.778,1.893,1.621,3.76,2.518,5.806,1.335,0,2.869-.008,4.4,0,1.336.009,1.712.387,1.719,1.708.007,1.266,0,2.531,0,3.981.752,0,1.453,0,2.153,0,1.334.012,1.646.3,1.6,1.653-.493,13.243-6.4,23.389-17.726,30.2a33.1,33.1,0,0,1-24.734,4.136c-14.547-3.182-23.921-12.076-27.741-26.54a52.5,52.5,0,0,1-1.025-8.017c-.111-1.077.284-1.4,1.373-1.432.684-.018,1.369-.018,2.053-.033.06,0,.118-.054.3-.143,0-1.267-.009-2.593,0-3.918.01-1.2.4-1.583,1.613-1.6C1201.658,542.934,1203.2,542.945,1204.615,542.945Zm43.373-17.131c-1.026,1.073-2.03,2.1-3,3.15a1.607,1.607,0,0,1-2.179.3,65.551,65.551,0,0,0-6.507-2.714c-1.018-.353-1.5-.76-1.452-1.846.057-1.423.014-2.85.014-4.306H1225.9c0,1.552-.021,3.049.008,4.545.017.861-.391,1.241-1.181,1.539-2.293.866-4.572,1.781-6.8,2.8a1.577,1.577,0,0,1-2.1-.262c-1.005-1.07-2.032-2.119-2.952-3.076l-6.4,6.392c.95.914,1.93,1.92,2.98,2.846.831.732.745,1.388.294,2.336a68.293,68.293,0,0,0-2.663,6.415c-.356,1-.805,1.489-1.881,1.452-1.423-.049-2.849-.012-4.29-.012v3.208h12.132c1.279-10.782,9.777-15.953,16.922-16.028a17.1,17.1,0,0,1,10.751,3.41,17.374,17.374,0,0,1,6.986,12.629h12.126v-3.218c-1.514,0-2.951-.02-4.386.007a1.6,1.6,0,0,1-1.7-1.269c-.827-2.235-1.707-4.458-2.729-6.609-.458-.964-.505-1.605.314-2.329,1.067-.943,2.067-1.961,3.068-2.919ZM1219.379,551c.643.81,1.2,1.447,1.684,2.142a1.783,1.783,0,0,0,1.933.8c1.319-.194,2.65-.335,3.981-.414a2.863,2.863,0,0,1,3.141,1.983c.522,2.4,1.908,3.308,4.251,3.509a2.932,2.932,0,0,1,2.817,3.017c-.063,4.372-.32,4.814-3.765,6.257a1.875,1.875,0,0,1-.189.08,2.021,2.021,0,0,0-1.695,2.531,6.057,6.057,0,0,1-.045,1.536,3.259,3.259,0,0,1-2.09,2.921c-1.6.687-3.192,1.408-4.81,2.055-.87.347-1.362.82-1.226,1.834a13.469,13.469,0,0,1,.066,2.155c-.018.64.249.871.876.987a32.815,32.815,0,0,0,21.423-3.184,32.051,32.051,0,0,0,9.5-7.407c-.319-.381-.578-.748-.9-1.057a5.784,5.784,0,0,1-1.7-4.155c-.072-1.915-.387-3.827-.357-5.737a4.2,4.2,0,0,0-1.919-3.709,4.1,4.1,0,0,1-1.655-3.972c.072-.7.1-1.411.156-2.177Zm1.614,30.525c0-.767.016-1.48,0-2.192-.06-2.206.572-3.191,2.587-4.035,1.418-.594,2.816-1.241,4.251-1.791a1.727,1.727,0,0,0,1.326-1.992c-.086-.813.033-1.647-.045-2.461a1.5,1.5,0,0,1,.836-1.608,21.188,21.188,0,0,1,3.016-1.519,2.453,2.453,0,0,0,1.853-2.556c.069-1.758.153-1.978-1.6-2.143-2.778-.261-4.506-1.549-5.073-4.315-.18-.878-.739-1.113-1.6-1-1.321.176-2.654.264-3.983.387a3.3,3.3,0,0,1-3.057-1.325c-.785-.992-1.584-1.974-2.371-2.966a1.054,1.054,0,0,0-1.676-.212c-1.381,1.066-2.8,2.079-4.146,3.191a2.012,2.012,0,0,0-.61,1.29,22.558,22.558,0,0,0,.006,3.588,2.369,2.369,0,0,0,.74,1.436,39.949,39.949,0,0,0,3.338,2.557,3.877,3.877,0,0,1,1.734,3.5c-.036,1.916.066,3.837-.029,5.749a14.687,14.687,0,0,0,1.089,5.767A3.666,3.666,0,0,0,1220.993,581.523ZM1197.1,551l.241,2.033c1.407-.659,2.135.3,2.964,1.082.351-.33.628-.63.945-.881a1.646,1.646,0,0,1,2.173-.05,5.017,5.017,0,0,1,1.43,1.448,1.8,1.8,0,0,1-.04,1.547c-.382.6-1.059.508-1.614.046-.281-.234-.552-.482-.819-.715-2.043,1.691-2.043,1.691-4.164.013-.56.553-.582,1.019-.076,1.257.746.351,1.482.725,2.327,1.14.164-.15.478-.463.818-.744a1.46,1.46,0,0,1,1.893-.186,7.075,7.075,0,0,1,1.74,1.713,1.466,1.466,0,0,1-.118,1.43,2.14,2.14,0,0,1-1.541.081c-.314-.067-.557-.465-.9-.774-.988,1.025-1.979,2.077-3.53.641,1.916,7.42,11.132,18.063,16.432,18.963-1.433-2.059-1.123-4.318-1.133-6.528-.007-1.712-.028-3.424.011-5.135a1.78,1.78,0,0,0-.8-1.649c-1.2-.856-2.34-1.783-3.524-2.657a3.626,3.626,0,0,1-1.551-3.079c0-1.232.012-2.465,0-3.7a3.714,3.714,0,0,1,1.615-3.256c.845-.61,1.664-1.256,2.7-2.042Zm59.734,18.868a33.137,33.137,0,0,0,6.8-18.874H1251.3c-.256,1.87-.75,3.714,1.31,5.022a4.643,4.643,0,0,1,2.017,3.957c.11,2.05.366,4.1.38,6.147A4.585,4.585,0,0,0,1256.829,569.871Zm-36.459-21.315h20.037c-.346-5.035-5.038-9.045-10.355-8.924C1225.091,539.746,1220.432,544.017,1220.371,548.556Zm24.779.038c-.139-6.391-6.127-14.025-15.35-13.674-9.082.345-14.209,8.207-14.145,13.657h2.1a12.779,12.779,0,0,1,12.295-11.325,12.276,12.276,0,0,1,7.28,2.1,12.772,12.772,0,0,1,5.609,9.24Z" fill="#fef8e6"/>
        <path id="Trazado_1328379" data-name="Trazado 1328379" d="M1398.059,766.3c2.029-1.731,2.029-1.731,4.164-.059a.3.3,0,0,0,.1-.031c2.057-1.652,2.7-1.58,4.414.5a1.174,1.174,0,0,1-.005,1.744,1.1,1.1,0,0,1-1.649-.059c-.251-.225-.505-.447-.753-.666-2.074,1.892-2.524,1.488-4.149.026-2.208,1.667-2.241,1.667-4.168-.042-.314.282-.6.724-.968.821a2.228,2.228,0,0,1-1.549-.09.951.951,0,0,1-.089-1.525,14.668,14.668,0,0,1,1.454-1.445,1.669,1.669,0,0,1,2.325.008C1397.468,765.727,1397.73,766,1398.059,766.3Z" transform="translate(-157.55 -196.242)" fill="#fef8e6"/>
        <path id="Trazado_1328380" data-name="Trazado 1328380" d="M1404.42,787c-2.192,1.733-2.192,1.733-4.04.084-.745.414-1.454,1.107-2.184,1.129-.691.02-1.4-.663-2.238-1.107-.157.142-.462.451-.8.717a1.11,1.11,0,0,1-1.649-.125,1.067,1.067,0,0,1,.037-1.567c.113-.128.232-.252.352-.373,1.95-1.981,2.155-1.991,4.26-.224,2.123-1.611,2.123-1.611,4.158-.023a.669.669,0,0,0,.186-.078c1.892-1.6,3.031-1.446,4.4.708a1.521,1.521,0,0,1-.034,1.448,2.039,2.039,0,0,1-1.534.174C1404.993,787.694,1404.719,787.262,1404.42,787Z" transform="translate(-157.642 -211.527)" fill="#fef8e6"/>
      </g>
    </g>
  </g>
</svg>
