<svg xmlns="http://www.w3.org/2000/svg" xmlns:xlink="http://www.w3.org/1999/xlink" width="135.059" height="129" viewBox="0 0 135.059 129">
  <defs>
    <clipPath id="clip-path">
      <rect id="Rectángulo_400938" data-name="Rectángulo 400938" width="120" height="120" fill="none"/>
    </clipPath>
  </defs>
  <g id="Grupo_1207843" data-name="Grupo 1207843" transform="translate(-468 -3594.406)">
    <g id="Grupo_108927" data-name="Grupo 108927" transform="translate(84 -872.594)">
      <rect id="Rectángulo_36179" data-name="Rectángulo 36179" width="129" height="127" transform="translate(390.059 4467)" fill="#f9f7f0"/>
    </g>
    <g id="Grupo_1207742" data-name="Grupo 1207742" transform="translate(-714.961 3109.479)">
      <path id="Trazado_1328381" data-name="Trazado 1328381" d="M1244.322,510.607h24.438c0-2.513,0-4.975,0-7.437,0-2.059.325-2.378,2.415-2.38q7.436-.008,14.873,0c2.06,0,2.372.324,2.373,2.428,0,8.951.014,17.9-.017,26.853a2.816,2.816,0,0,0,.966,2.279c2.484,2.3,5.192,4.053,8.726,4.173,1.468.05,1.919.591,1.927,2.1.021,3.947.008,7.9.008,11.843q0,21.413,0,42.827c0,2.538-.233,2.773-2.735,2.773h-81.66c-2.379,0-2.675-.3-2.675-2.72q0-27.06,0-54.119c0-2.282.3-2.585,2.594-2.761,3.566-.274,6.252-2.211,8.6-4.688a2.649,2.649,0,0,0,.373-1.662q.033-13.289.016-26.578c0-2.458.3-2.751,2.79-2.752q7.3,0,14.6,0c2.027,0,2.382.372,2.386,2.439C1244.326,505.655,1244.322,508.08,1244.322,510.607Zm-28.1,82.214h66.025a9.25,9.25,0,0,0-9.143-5.979c-1.788.005-3.575.179-5.363.185a28.181,28.181,0,0,1-4.927-.217,5.253,5.253,0,0,1-4.4-4.393c-.448-2.173.784-3.786,2.551-4.767a25.707,25.707,0,0,1,5.553-2.3c2.284-.633,4.322-1.47,5.746-3.462a6.575,6.575,0,0,1,5.347-2.675c5.774-.26,11.552-.437,17.329-.641.62-.022,1.241,0,1.851,0v-7.093c-6.117-.408-12.151-.83-18.189-1.18a3.3,3.3,0,0,0-1.565.658c-.826.477-1.56,1.324-2.429,1.482-3.867.7-7.76,1.281-11.661,1.764a2.8,2.8,0,0,1-3.025-1.748,4.013,4.013,0,0,0-2.442-2.23c-.759-.323-1.484-.725-2.247-1.036-3.591-1.461-3.448-5.753-1.61-7.824a12.767,12.767,0,0,1,9.278-4.455,4.05,4.05,0,0,0,3.32-1.339c1.917-2.471,4.473-3.247,7.516-3.209,7.161.088,14.324.03,21.487.025.528,0,1.056-.051,1.6-.079.028-.386.029-.615.063-.838.2-1.281-.148-1.988-1.627-2.189a10.841,10.841,0,0,1-3.457-1.27c-1.325-.7-2.542-1.6-3.871-2.458-.136.3-.262.578-.393.856-1.7,3.59-5.738,6.086-9.287,5.738-5.9-.579-9.476-4.488-9.494-10.411-.017-5.464,0-10.927,0-16.391v-1.426h-24.345V518.8c2.465,0,4.861-.185,7.214.05a37.106,37.106,0,0,1,7.665,1.444c2.75.886,3.663,3.255,2.715,5.984-.389,1.121-1.006,2.164-1.385,3.288a2.763,2.763,0,0,0-.126,1.935c1.483,2.559.123,6.176-3.5,7.011a15.744,15.744,0,0,1-5.833.214,75.541,75.541,0,0,1-7.825-2.032c-3.851,7.293-14.526,7.578-18.4-1.161a17.228,17.228,0,0,1-8.29,4.061c-.193.03-.455.446-.465.692-.049,1.177-.022,2.356-.022,3.608,4.018,0,7.867-.112,11.707.042,2.284.091,4.717.419,6.375,2.173a23.675,23.675,0,0,0,6.2,4.494,10.244,10.244,0,0,1,5.307,6.367c.782,2.737-.314,5.01-2.981,5.912a7.9,7.9,0,0,1-2.954.5,30.794,30.794,0,0,1-6.653-.854,7.507,7.507,0,0,0-7.65,1.722,12.151,12.151,0,0,1-8.595,3.026,6.756,6.756,0,0,0-.7.074Zm80.587-47.184c-.343-.035-.565-.078-.787-.078q-11.771,0-23.542-.005a4.267,4.267,0,0,0-3.452,1.691,7.3,7.3,0,0,1-5.859,2.78,9.577,9.577,0,0,0-6.954,3.165c-1.192,1.273-.973,2.41.531,3.174a24.9,24.9,0,0,1,2.84,1.375,9.718,9.718,0,0,1,2.694,2.43,1.691,1.691,0,0,0,1.877.926c1.954-.262,3.938-.386,5.853-.819a14.406,14.406,0,0,0,4.8-1.746,6.016,6.016,0,0,1,3.842-1.446c4.027.264,8.056.5,12.082.781,2,.139,3.99.347,6.076.532Zm0,26.328c-.162-.08-.242-.156-.321-.154q-9.353.259-18.7.535a4.05,4.05,0,0,0-3.255,1.771,11.758,11.758,0,0,1-7.155,4.27,19.01,19.01,0,0,0-4.782,2.005c-1.417.8-1.329,2.261.143,2.974a6.428,6.428,0,0,0,2.78.541c2.292-.021,4.583-.278,6.875-.3,5.062-.037,9.245,1.68,11.929,6.243a2.355,2.355,0,0,0,.859.846,21.307,21.307,0,0,0,11.63,2.169Zm-68.835-67.995c-.117.166-.165.2-.165.238-.01,9.5-.1,19.005.017,28.506a6.488,6.488,0,0,0,6.9,6.229c3.742-.125,6.393-3.053,6.405-7.191.026-8.86.009-17.721,0-26.581,0-.392-.061-.784-.1-1.2Zm43.983.011c-.038.325-.077.5-.077.68,0,9.223-.04,18.446.045,27.667a7.463,7.463,0,0,0,1.063,3.483,6.377,6.377,0,0,0,7.238,2.9,6.621,6.621,0,0,0,5.077-6.546c.029-9.131.012-18.261.006-27.392a5.255,5.255,0,0,0-.12-.789Zm-55.748,60c2.576.224,4.827-.085,6.781-1.822a11.309,11.309,0,0,1,11.476-2.6,20.615,20.615,0,0,0,6.251.556c1.988-.043,2.425-.955,1.777-2.857-.634-1.859-2.068-2.925-3.651-3.937-2.11-1.351-4.107-2.877-6.173-4.3-.806-.554-1.64-1.405-2.512-1.471-4.19-.32-8.4-.423-12.6-.587a10.276,10.276,0,0,0-1.349.124Zm28.1-42.081c0,3.751-.016,7.315.031,10.878a1.176,1.176,0,0,0,.682.825,39.4,39.4,0,0,0,6.134,1.911,15.206,15.206,0,0,0,5.269-.174,1.5,1.5,0,0,0,1.141-2.4,4.882,4.882,0,0,1,.053-4.484c.345-.846.8-1.648,1.154-2.491.774-1.836.4-2.638-1.517-3.127C1253.077,521.781,1248.82,521.86,1244.3,521.9Z" transform="translate(0 0)"/>
      <path id="Trazado_1328382" data-name="Trazado 1328382" d="M1260.6,741.164c2.707,0,5.423-.132,8.118.055a10.169,10.169,0,0,1,4.417,1.195c3.523,2.116,3.345,6.589-.234,8.607-.988.557-2.179.763-3.146,1.346a5.446,5.446,0,0,0-2.084,1.975,9.681,9.681,0,0,1-6.008,5.279,56.08,56.08,0,0,1-21.322,2.487c-4.294-.352-5.371-2.749-2.966-6.36.839-1.26,1.877-2.4,2.623-3.705a29.132,29.132,0,0,0,2.318-4.923,7.89,7.89,0,0,1,5.947-5.36,23.347,23.347,0,0,1,4.763-.573C1255.552,741.1,1258.079,741.162,1260.6,741.164Zm-21.367,17.522c.586.133.849.209,1.118.25a8.15,8.15,0,0,0,.958.094,66.747,66.747,0,0,0,17.468-1.792c2.636-.617,5-1.613,6.029-4.419a5.648,5.648,0,0,1,3.463-3.319,29.52,29.52,0,0,0,3.045-1.246,1.7,1.7,0,0,0,.13-3.155,5.384,5.384,0,0,0-2.592-.646c-3.991-.069-7.985-.068-11.977-.029a66.254,66.254,0,0,0-7.273.3c-1.813.219-3.6,1.061-4.056,3.036a20.445,20.445,0,0,1-3.91,7.49C1240.863,756.315,1240.128,757.41,1239.237,758.686Z" transform="translate(-16.78 -174.119)"/>
      <path id="Trazado_1328383" data-name="Trazado 1328383" d="M1277.608,605.863a5.085,5.085,0,1,1-.019-10.171,5.085,5.085,0,1,1,.019,10.171Zm1.895-5.055a1.932,1.932,0,0,0-1.889-1.958,2.042,2.042,0,0,0-1.98,1.905,2.077,2.077,0,0,0,1.929,1.968A1.954,1.954,0,0,0,1279.5,600.807Z" transform="translate(-43.145 -68.758)"/>
      <path id="Trazado_1328384" data-name="Trazado 1328384" d="M1437.686,605.851a5.088,5.088,0,1,1,5.082-5.04A5.044,5.044,0,0,1,1437.686,605.851Zm-.059-7.015a1.86,1.86,0,0,0-1.845,1.971,1.891,1.891,0,0,0,1.923,1.9,1.938,1.938,0,0,0-.078-3.876Z" transform="translate(-159.074 -68.746)"/>
    </g>
  </g>
</svg>
