<svg xmlns="http://www.w3.org/2000/svg" width="109.392" height="115.19" viewBox="0 0 109.392 115.19">
  <g id="Grupo_1207843" data-name="Grupo 1207843" transform="translate(-853.298 -192.651)">
    <g id="Grupo_1207104" data-name="Grupo 1207104" transform="translate(813.461 192.65)">
      <path id="Trazado_1326168" data-name="Trazado 1326168" d="M148.549,104.523l-26.642-2.49a48.936,48.936,0,1,1,9.563-11.784Z" fill="#f3dec2"/>
      <path id="Trazado_1326169" data-name="Trazado 1326169" d="M89.306,115.19a49.49,49.49,0,1,1,43.038-25.1L148.985,104a.681.681,0,0,1-.5,1.2l-26.348-2.464A49.572,49.572,0,0,1,89.306,115.19m.016-97.6a48.116,48.116,0,1,0,32.13,83.936.682.682,0,0,1,.518-.171l24.465,2.288-15.4-12.872a.681.681,0,0,1-.151-.866A48.111,48.111,0,0,0,89.322,17.59" fill="#322727"/>
      <path id="Trazado_1326170" data-name="Trazado 1326170" d="M103.611,52.309a17.215,17.215,0,0,0-27.567-7.045,16.375,16.375,0,0,1,2.326-1.047A17.2,17.2,0,0,1,95.6,73.28a17.2,17.2,0,0,0,8.01-20.971" fill="#624b04"/>
      <path id="Trazado_1326171" data-name="Trazado 1326171" d="M102.088,98.781c-.354.476-2.842,1.754-3.223,2.244-23.732-7.154-32.953-17.245-37.359-25.3-.041-.082-.1-.163-.136-.231-.952-1.782-1.55-3.142-1.863-3.9-.191-.422-.272-.653-.272-.653a27.083,27.083,0,0,1,11.641-32.49,27.092,27.092,0,0,0-8.418,30.259s.081.218.258.653a41.345,41.345,0,0,0,1.877,3.89c.041.081.082.163.123.231,4.42,8.065,13.64,18.142,37.372,25.3" fill="#624b04"/>
      <path id="Trazado_1326172" data-name="Trazado 1326172" d="M114.519,54.526v-.013a23.572,23.572,0,0,0-1.049-3.891c-.081-.27-.136-.448-.162-.5a27.071,27.071,0,0,0-50.85,18.591s.082.216.259.651a41.048,41.048,0,0,0,1.875,3.891c.041.082.082.163.123.23,4.42,8.065,13.64,18.142,37.373,25.3,14.974-19.5,14.51-35.155,12.431-44.254M95.6,73.28a16.23,16.23,0,0,1-2.327,1.048A17.244,17.244,0,1,1,95.6,73.28" fill="#f5bb0b"/>
      <path id="Trazado_1326173" data-name="Trazado 1326173" d="M95.6,73.961a.68.68,0,0,1-.449-1.19A16.518,16.518,0,0,0,78.6,44.857a15.8,15.8,0,0,0-2.226,1,.68.68,0,0,1-.782-1.1,17.887,17.887,0,0,1,28.657,7.322h0a17.957,17.957,0,0,1-8.329,21.8.674.674,0,0,1-.321.081M84.2,42.515a17.9,17.9,0,0,1,15.754,26.4,16.633,16.633,0,0,0,3.019-16.371A16.523,16.523,0,0,0,81.81,42.627l-.214.08a17.609,17.609,0,0,1,2.6-.192" fill="#322727"/>
      <path id="Trazado_1326174" data-name="Trazado 1326174" d="M98.844,101.7a.62.62,0,0,1-.176-.026c-19.129-5.765-31.48-14.146-37.759-25.62l-.077-.133a43.565,43.565,0,0,1-1.955-4.069c-.2-.434-.283-.685-.283-.685a27.773,27.773,0,0,1,11.936-33.3A.68.68,0,0,1,71.3,38.98,26.432,26.432,0,0,0,63.1,68.48s.08.212.249.628a40.416,40.416,0,0,0,1.844,3.819c.045.09.076.155.109.208C71.42,84.3,83.513,92.471,102.284,98.13a.68.68,0,0,1,.35,1.056,7.424,7.424,0,0,1-1.8,1.3,11.828,11.828,0,0,0-1.438.966.754.754,0,0,1-.553.254M64.154,45.154a26.445,26.445,0,0,0-4.28,25.557c.007.019.083.23.253.6a42.651,42.651,0,0,0,1.842,3.862c.061.1.106.171.144.245,6.049,11.053,18.018,19.186,36.579,24.839.321-.25.8-.547,1.429-.937.143-.088.306-.189.47-.292C82.2,93.281,70.263,85.023,64.119,73.811c-.036-.059-.086-.157-.135-.255a41.506,41.506,0,0,1-1.9-3.929c-.184-.453-.268-.676-.268-.676a27.827,27.827,0,0,1,2.333-23.8" fill="#322727"/>
      <path id="Trazado_1326175" data-name="Trazado 1326175" d="M102.088,99.46a.672.672,0,0,1-.2-.029c-19.129-5.766-31.484-14.146-37.772-25.62-.036-.059-.086-.157-.135-.256a41.516,41.516,0,0,1-1.9-3.929c-.184-.453-.268-.675-.268-.675a27.751,27.751,0,0,1,52.124-19.067s.078.214.178.544a24.047,24.047,0,0,1,1.064,3.967h0c3.32,14.548-.906,29.621-12.559,44.8a.68.68,0,0,1-.539.265M63.1,68.48s.08.212.249.628a40.782,40.782,0,0,0,1.844,3.819c.045.089.076.154.109.208,6.071,11.078,18.02,19.2,36.535,24.858,11.184-14.722,15.228-29.292,12.021-43.315a.65.65,0,0,1-.017-.152v-.013a23.825,23.825,0,0,0-1.007-3.659c-.073-.242-.114-.385-.141-.451A26.565,26.565,0,0,0,87.9,33.093,26.4,26.4,0,0,0,63.1,68.48" fill="#322727"/>
      <path id="Trazado_1326176" data-name="Trazado 1326176" d="M87.438,76.036a17.9,17.9,0,1,1,8.488-2.159,16.9,16.9,0,0,1-2.416,1.089,17.818,17.818,0,0,1-6.072,1.07m.008-34.406a16.522,16.522,0,1,0,5.6,32.058,15.592,15.592,0,0,0,2.226-1l.009,0A16.521,16.521,0,0,0,87.446,41.63" fill="#322727"/>
      <path id="Trazado_1326177" data-name="Trazado 1326177" d="M117.888,21.587a.679.679,0,0,1-.557-1.07L131.509.29a.68.68,0,1,1,1.113.781L118.444,21.3a.676.676,0,0,1-.556.289" fill="#322727"/>
      <path id="Trazado_1326178" data-name="Trazado 1326178" d="M124.976,27.258a.68.68,0,0,1-.457-1.184L135.2,16.4a.68.68,0,0,1,.914,1.008l-10.681,9.672a.678.678,0,0,1-.457.176" fill="#322727"/>
      <path id="Trazado_1326179" data-name="Trazado 1326179" d="M132.066,35.387a.68.68,0,0,1-.271-1.3l8.7-3.782a.68.68,0,1,1,.542,1.247l-8.695,3.782a.686.686,0,0,1-.271.056" fill="#322727"/>
      <path id="Trazado_1326180" data-name="Trazado 1326180" d="M109.193,17.586a.678.678,0,0,1-.616-.966l6.395-13.768a.679.679,0,1,1,1.232.572l-6.4,13.768a.678.678,0,0,1-.616.394" fill="#322727"/>
      <path id="Trazado_1326181" data-name="Trazado 1326181" d="M100.5,14.782a.681.681,0,0,1-.68-.65L99.44,5.626a.679.679,0,0,1,.648-.709.655.655,0,0,1,.711.649l.376,8.506a.679.679,0,0,1-.648.709H100.5" fill="#322727"/>
    </g>
  </g>
</svg>
