<svg xmlns="http://www.w3.org/2000/svg" width="127" height="127" viewBox="0 0 127 127">
  <g id="Grupo_1207846" data-name="Grupo 1207846" transform="translate(1436.451 7080.713)">
    <g id="Grupo_1207808" data-name="Grupo 1207808">
      <g id="Grupo_1207190" data-name="Grupo 1207190" transform="translate(-1937.852 -14179.055)">
        <circle id="Elipse_13775" data-name="Elipse 13775" cx="63.5" cy="63.5" r="63.5" transform="translate(501.4 7098.342)" fill="#83433e"/>
        <circle id="Elipse_13776" data-name="Elipse 13776" cx="52" cy="52" r="52" transform="translate(513.4 7110.342)" fill="#cdb3b1"/>
      </g>
      <g id="Grupo_1207624" data-name="Grupo 1207624" transform="translate(-2519.624 -7604.598)">
        <path id="Trazado_1328056" data-name="Trazado 1328056" d="M1129.041,563.153h10.983c3.843,0,7.686-.014,11.528.014a1.272,1.272,0,0,0,1.277-.715,12.09,12.09,0,0,1,20.734.028,1.153,1.153,0,0,0,1.181.688c1.109-.051,2.223-.019,3.334-.014,1.324.006,1.615.317,1.615,1.741q0,22.2,0,44.4c0,1.683.005,3.367,0,5.05-.005,1.262-.327,1.589-1.571,1.594-1.616.007-3.232,0-4.99,0,0,.955,0,1.861,0,2.767-.009,2.456-1.314,3.781-3.75,3.789q-4.049.013-8.1,0a3.273,3.273,0,0,1-3.576-3.62c0-.947,0-1.893,0-2.891l-.972-.046c-.067.089-.133.136-.137.187-.147,1.965-.147,1.964-2.154,1.968-1.048,0-2.1.014-3.143.027-.056,0-.11.052-.211.1v2.1c.951,0,1.921-.006,2.891,0,1.006.008,1.477.354,1.449,1.092-.036.952-.7,1.085-1.464,1.083q-4-.01-8,0c-.777,0-1.422-.159-1.491-1.076-.052-.7.494-1.094,1.458-1.1.946-.008,1.892,0,2.893,0v-2.231h-3.285c-2.031,0-2.031,0-2.223-2.152h-1.084q-10.29,0-20.58,0a7.707,7.707,0,0,1-8.017-7.858q-.016-21.818,0-43.637a7.6,7.6,0,0,1,6.252-7.663,7.679,7.679,0,0,1,8.369,4.232A21.9,21.9,0,0,1,1129.041,563.153Zm.038,15.434h.972c1.746,0,3.493.006,5.239,0a3.154,3.154,0,0,1,2.947,1.445,3.435,3.435,0,0,0,3.891,1.8,3.679,3.679,0,0,1,.761,0,3.923,3.923,0,0,1,3.011,1.592,3.65,3.65,0,0,1,.354,3.96,3.714,3.714,0,0,1-3.539,2.153q-6.24.009-12.479,0h-1.151v2.192h1.077c3.768,0,4.191.366,5.407,3.97.875,2.6.3,2.7,3.457,2.669a3.009,3.009,0,0,1,3.053,2.375,10.622,10.622,0,0,1,.19,2.354c.027,1.689.346,1.966,2.171,1.676,0-1.148,0-2.315,0-3.481,0-1.919.409-2.5,2.223-3.078-.194-1.674.361-2.921,2.218-3.279,0-1.74.006-3.42,0-5.1,0-.76.21-1.352,1.091-1.348s1.081.606,1.076,1.362c-.01,1.682,0,3.363,0,5.113,1.937.3,2.4,1.654,2.28,3.308,1.643.447,2.115,1.062,2.119,2.669,0,1.291,0,2.583,0,3.869h2.264c0-.368,0-.653,0-.938a5.282,5.282,0,0,1,3.6-5.182c.818-.294.906-.7.69-1.408-.186-.009-.341-.019-.5-.023-1.292-.035-1.638-.376-1.648-1.649-.007-.857-.01-1.715,0-2.572a1.176,1.176,0,0,1,1.3-1.3q4.239-.012,8.478,0a1.1,1.1,0,0,1,1.228,1.244c-.005.921.006,1.842,0,2.763-.009,1.146-.326,1.468-1.455,1.516-.214.009-.427.041-.6.059-.246.752-.036,1.119.7,1.388a5.194,5.194,0,0,1,3.485,4.173c.12.64.144,1.3.217,1.993a1.1,1.1,0,0,0,1-1.216c.009-.7-.006-1.4.013-2.1a3.158,3.158,0,0,1,1.935-2.925,8.981,8.981,0,0,1,1.375-.408v-9.756c-1.484,0-2.845.016-4.206,0a3.4,3.4,0,0,1-3.549-3.535,9.866,9.866,0,0,0-.042-1.9,2.075,2.075,0,0,0-.814-1.113c-.132-.093-.7.248-.931.51-1.275,1.414-2.492,2.879-3.763,4.3-.755.842-1.291.833-2.068.013a15.154,15.154,0,0,1-2.079-2.348c-1.319-2.162-3.115-2.855-5.617-2.625a4.165,4.165,0,0,1-4.49-3.879c-.2-1.408-.379-1.561-1.823-1.562-3.334,0-6.668,0-10,0-2.793-.006-4.688-1.793-4.679-4.393a4.413,4.413,0,0,1,4.732-4.392c1.524-.008,3.048,0,4.572,0s1.924-.54,1.513-2.066h-15.208Zm-2.238,19.759V579.731c0-5.112.023-10.223-.009-15.335a5.493,5.493,0,0,0-7.013-5.4,5.572,5.572,0,0,0-4.028,5.586q-.01,16.525,0,33.05c0,.206.02.412.033.678C1119.546,595.319,1123.392,595.533,1126.841,598.346Zm17.595,8.851c-.3-.019-.453-.034-.609-.039-2.51-.067-3.79-1.373-3.809-3.864-.018-2.287.536-2.89-2.751-2.8a3.139,3.139,0,0,1-3.21-2.342c-.367-1.08-.683-2.181-1.11-3.237-.146-.361-.532-.839-.853-.877a27.073,27.073,0,0,0-3.062-.042c0,3.234.014,6.343,0,9.451a7.716,7.716,0,0,1-6.944,8.05c-1.345.205-1.892-.261-1.894-1.637q-.007-5.144,0-10.288v-1.03a4.851,4.851,0,0,0-4.135,3.927,26.954,26.954,0,0,0-.125,6.531c.363,3,2.594,4.675,5.634,4.69,1.714.009,3.431.044,5.143-.026a2.431,2.431,0,0,0,1.383-.594,19.961,19.961,0,0,0,2.558-2.553,5.761,5.761,0,0,1,5.687-2.288c.156.021.318,0,.476.009a3.23,3.23,0,0,1,3.207,3.318c.014.687,0,1.374,0,2.054h3.327c.077-.865-.155-1.8.954-2.114.079-.022.13-.275.131-.421C1144.44,609.81,1144.436,608.546,1144.436,607.2Zm18.679-22.623a2.573,2.573,0,0,0,.343-.263c3.213-3.607,6.309-7.313,8.427-11.691a10.4,10.4,0,0,0,1.176-4.244,9.753,9.753,0,0,0-6.93-9.158,9.868,9.868,0,0,0-10.746,3.385c-2.208,2.926-2.815,6.1-1.165,9.542C1156.454,576.805,1159.741,580.7,1163.115,584.574Zm-16.421-19.117c-.015.222-.03.347-.032.473-.056,2.637-1.315,3.867-3.966,3.87-1.619,0-3.239-.015-4.858.008a2.188,2.188,0,0,0-2.193,1.868,2.24,2.24,0,0,0,1.537,2.35,4.019,4.019,0,0,0,1.213.161c3.366.012,6.732,0,10.1.008,2.259,0,3.426,1.1,3.724,3.335a2.845,2.845,0,0,0,.76,1.561c.882.858,2.022.6,3.175.529-.868-1.348-1.7-2.582-2.472-3.852-1.884-3.1-3.312-6.313-2.256-10.077.015-.053-.02-.121-.043-.235Zm13.236,39.5v10.92h10.886v-10.92Zm17.55-18.736V565.459h-2.615a9.712,9.712,0,0,1-.378,6.746c-.617,1.351-1.295,2.68-2.043,3.962s-1.6,2.469-2.439,3.737a3.671,3.671,0,0,1,2,3.838,12.648,12.648,0,0,0,0,1.331,1.046,1.046,0,0,0,1.122,1.141C1174.556,586.226,1175.979,586.218,1177.48,586.218Zm-48.444,1.137H1142.1c.222,0,.445.01.666-.006a1.627,1.627,0,0,0,1.658-1.7,1.55,1.55,0,0,0-1.676-1.558,12.081,12.081,0,0,0-1.331,0,4.672,4.672,0,0,1-4.649-2.338,2.352,2.352,0,0,0-1.6-.968c-1.831-.122-3.676-.066-5.515-.021a.85.85,0,0,0-.595.579C1129.017,583.3,1129.036,585.266,1129.036,587.355Zm24.184,24.161V600.564h-6.563c.018.389.033.716.05,1.084.728,0,1.36,0,1.992,0,.691,0,1.194.27,1.22,1.03.027.8-.461,1.127-1.209,1.134-.659.005-1.319,0-2,0V604.9c.681,0,1.311-.016,1.94,0,.714.023,1.255.3,1.264,1.11s-.524,1.105-1.239,1.134c-.656.027-1.315.006-2.035.006l.079,1.077c.674,0,1.273,0,1.873,0,.764,0,1.34.252,1.322,1.124-.017.815-.573,1.058-1.294,1.057h-1.9v1.1Zm24.245,2.137V600.512a1.265,1.265,0,0,0-1.077,1.328c0,.7.012,1.4-.007,2.1a3.061,3.061,0,0,1-1.548,2.68,10.561,10.561,0,0,1-1.639.651v6.387Zm-54.981-4.524a5.435,5.435,0,0,0,4.337-5.746c-.262-2.514-2.3-4.763-4.337-4.763Zm41.8-11.818c0,.51,0,.976,0,1.441-.006,1.436-.08,1.525-1.473,1.788a2.838,2.838,0,0,0-2.542,2.162h10.31a3.039,3.039,0,0,0-2.854-2.17,1.233,1.233,0,0,1-1.252-1.442c.011-.59,0-1.18,0-1.779Zm6.507,20.85h-10.838c-.258,1.706.118,2.161,1.729,2.162q3.655,0,7.311,0C1170.729,620.322,1171.007,620,1170.793,618.161Zm-16.486-4.4h-8.716v2.131h8.716Zm-16.432-.127a12.5,12.5,0,0,0-.025-1.911c-.065-.394-.342-1.057-.561-1.072-1.195-.085-2.569-.361-3.559.109-1.142.541-1.948,1.789-3.045,2.874Zm19.766.015v-6.435h-2.154v4.272c1.291.187,1.026,1.271,1.136,2.163Zm4.451-18.7h6.574v-.928h-6.523C1162.126,594.32,1162.111,594.593,1162.092,594.95Zm-13.15,3.333h2.11l-.063-.971h-2.047Z" fill="#262626"/>
        <path id="Trazado_1328057" data-name="Trazado 1328057" d="M1338.342,583.464l1.084-.48v-1.07a4.058,4.058,0,0,1-.854-.63,1.012,1.012,0,0,1,.787-1.653,11.755,11.755,0,0,1,2.375.018,1.272,1.272,0,0,1,.886.682,1.3,1.3,0,0,1-.237,1.111c-1.1,1.159-1.082,1.393.366,2,.536-.363.981-.707.642-1.518-.1-.232.239-.819.526-.987a1.233,1.233,0,0,1,1.121.046,9.677,9.677,0,0,1,1.815,1.8,1.27,1.27,0,0,1,0,1.189,1.256,1.256,0,0,1-1.112.428.875.875,0,0,0-1.24.622,1.128,1.128,0,0,0,.414,1.036c.414.156,1,.35,1.341-.4a1.3,1.3,0,0,1,1.163-.477,1.431,1.431,0,0,1,.777,1,6.429,6.429,0,0,1,0,2.178,1.425,1.425,0,0,1-.776,1,1.308,1.308,0,0,1-1.165-.479c-.365-.712-.936-.552-1.355-.375a1.125,1.125,0,0,0-.386,1.045.864.864,0,0,0,1.163.629,1.052,1.052,0,0,1,1.047,1.758,5.682,5.682,0,0,1-1.475,1.468,1.54,1.54,0,0,1-1.33.184,1.412,1.412,0,0,1-.43-1.256.89.89,0,0,0-.694-1.135,1.234,1.234,0,0,0-1.061.536.818.818,0,0,0,.353,1.2,1.385,1.385,0,0,1,.539,1.214c-.094.339-.678.653-1.1.762a8.513,8.513,0,0,1-1.611.038c-.731.039-1.477-.095-1.507-.909-.017-.481.508-.982.789-1.474l.244.118v-1.1l-1.071-.478c-.539.368-.939.7-.684,1.475.092.282-.241.868-.543,1.065a1.21,1.21,0,0,1-1.115-.084,8.456,8.456,0,0,1-1.742-1.738,1.453,1.453,0,0,1-.012-1.286c.36-.641,1-.518,1.631-.2.326-.4,1.079-.594.6-1.345-.146-.231-.407-.536-.622-.541a1.233,1.233,0,0,0-.922.373c-.367.505-.826.84-1.349.546a1.883,1.883,0,0,1-.77-1.158,4.565,4.565,0,0,1,0-1.89,1.644,1.644,0,0,1,.8-1.113,1.39,1.39,0,0,1,1.219.516.914.914,0,0,0,1.294.351,1.214,1.214,0,0,0,.408-1.111.824.824,0,0,0-1.171-.566,1.3,1.3,0,0,1-1.168-.465,1.425,1.425,0,0,1,.121-1.274,7.036,7.036,0,0,1,1.614-1.6,1.35,1.35,0,0,1,1.2-.113,1.234,1.234,0,0,1,.523,1.064C1337.414,582.742,1337.83,583.049,1338.342,583.464Zm4.375,3.812a2.173,2.173,0,0,0-2.143-2.2,2.28,2.28,0,0,0-2.248,2.243,2.237,2.237,0,0,0,2.238,2.139A2.138,2.138,0,0,0,1342.717,587.276Z" transform="translate(-177.364 -18.603)" fill="#262626"/>
        <path id="Trazado_1328058" data-name="Trazado 1328058" d="M1370.282,826.387c-.844-.149-2.078.163-2.078-1.193s1.249-1.024,2.065-1.192c.233-1.749.454-2.107,1.258-2.06.755.044.949.406,1.067,2.047.817.2,2.145-.17,2.13,1.218-.014,1.311-1.223,1.073-2.141,1.153-.132.861.257,2.1-1.166,2.073C1370.063,828.407,1370.475,827.2,1370.282,826.387Z" transform="translate(-206.066 -214.776)" fill="#262626"/>
      </g>
    </g>
  </g>
</svg>
