<svg xmlns="http://www.w3.org/2000/svg" width="129" height="127" viewBox="0 0 129 127">
  <g id="Grupo_1207846" data-name="Grupo 1207846" transform="translate(-474.059 -4101.406)">
    <g id="Grupo_108927" data-name="Grupo 108927" transform="translate(84 -365.594)">
      <rect id="Rectángulo_36179" data-name="Rectángulo 36179" width="129" height="127" transform="translate(390.059 4467)" fill="#f9f7f0"/>
    </g>
    <g id="Grupo_1207745" data-name="Grupo 1207745" transform="translate(-693.313 3581.577)">
      <path id="Trazado_1328397" data-name="Trazado 1328397" d="M1230.153,602.192v-1.4c0-14.229-.019-28.458.034-42.687a2.08,2.08,0,0,0-1.453-2.153,19.666,19.666,0,0,0-9.9-2.014c-3.926.165-7.864.038-11.8.038-.328,0-.657.015-.983-.01-1.008-.076-1.765-.5-1.69-1.626.067-1.006.749-1.431,1.736-1.428,2.668.008,5.337,0,8.006,0,1.639,0,3.286.112,4.914-.022a19.842,19.842,0,0,1,11.083,2.4,3.08,3.08,0,0,0,3.16-.017,22.4,22.4,0,0,1,11.086-2.42c10.672.159,21.348.054,32.022.054,3.34,0,4.046.7,4.046,3.988q0,18.325,0,36.65v1.824c.762,0,1.4-.021,2.039,0a4.385,4.385,0,0,1,4.423,4.349,43.6,43.6,0,0,1-.054,6.17,3.949,3.949,0,0,1-1.512,2.619,4.547,4.547,0,0,0-2.379,5.11,4.6,4.6,0,0,1,.006.841c-.011,2.53-.84,3.368-3.355,3.37q-5.477.006-10.955,0c-2.489,0-3.33-.862-3.337-3.393,0-1.026,0-2.052,0-3.3h-2.99c-2.247,0-4.494-.006-6.741,0-1.081,0-2.065-.208-2.044-1.535s1.032-1.5,2.094-1.5h8.942c-1.5-1.592-2.719-3.2-5.272-3.081-4.764.228-9.554.223-14.321.016a20.632,20.632,0,0,0-10.943,2.344,4.645,4.645,0,0,1-4.682.006,21.773,21.773,0,0,0-10.942-2.359c-10.156.174-20.318.058-30.477.058h-1.771V606.1h1.632c10.534,0,21.068.082,31.6-.044a21.1,21.1,0,0,1,10.409,2.307,3.571,3.571,0,0,0,3.794-.029c4.439-2.612,9.342-2.33,14.21-2.208a1.4,1.4,0,0,1,1.536,1.474c.007,1.058-.633,1.5-1.615,1.525a25.459,25.459,0,0,1-2.807,0,18.485,18.485,0,0,0-10.68,2.249,4.681,4.681,0,0,1-5.041.021c-.276-.17-.606-.249-.894-.4a18.822,18.822,0,0,0-9.361-1.891c-10.767.1-21.535.038-32.3.035-2.924,0-3.664-.737-3.664-3.63q0-25.486,0-50.972c0-2.876.76-3.627,3.666-3.628,3.792,0,7.584.011,11.376-.007,1.128-.005,2.179.139,2.168,1.548-.01,1.428-1.128,1.519-2.214,1.52q-5.126,0-10.253,0h-1.583v46.086h1.615c10.861,0,21.723.054,32.584-.035a18.279,18.279,0,0,1,8.41,1.784,8.069,8.069,0,0,0,.9.379A1.971,1.971,0,0,0,1230.153,602.192Zm47.092-8.875V553.971H1275.5c-10.339,0-20.68.091-31.017-.05a21.349,21.349,0,0,0-10.017,2.091,1.888,1.888,0,0,0-1.3,1.966c.042,14.313.027,28.626.032,42.938,0,.436.055.873.094,1.438.586-.239,1.023-.388,1.434-.589a17.2,17.2,0,0,1,8.13-1.741c5.05.118,10.1.033,15.157.033h1.481c.558-3.75,1.557-4.641,5.8-5.2,0-1.743-.014-3.509,0-5.274a4.784,4.784,0,1,1,9.553-.047c.017,1.245,0,2.491,0,3.782Zm2.654,19.366a30.678,30.678,0,0,1,.046-4.068c.12-.86.453-2.078,1.078-2.412,2.735-1.462,3.154-3.744,2.8-6.455a10.553,10.553,0,0,1-.009-1.262c-.017-1.736-.332-2.069-2.027-2.078-2.339-.012-4.678.024-7.016-.015a2.708,2.708,0,0,1-2.926-2.88c-.05-1.261,0-2.525-.022-3.787-.029-1.415-.726-2.272-1.814-2.161-1.265.129-1.69.964-1.675,2.16.027,2.2.019,4.4,0,6.593-.016,2.244-1.28,3.023-3.282,2.007-.818-.415-1.544-.455-2.083.36a1.446,1.446,0,0,0,.475,2.081c1.187.986,2.338,2.02,3.577,2.934a3.063,3.063,0,0,1,1.342,2.869c-.09,2.034-.025,4.074-.025,6.2,3.668,0,7.124,0,10.58,0C1279.188,612.768,1279.459,612.722,1279.9,612.683Z" transform="translate(0)"/>
      <path id="Trazado_1328398" data-name="Trazado 1328398" d="M1230.123,583.747a16.479,16.479,0,1,1-.479,32.955,16.479,16.479,0,1,1,.479-32.955Zm-4.738,8.846c1.255.458,2.444.861,3.608,1.324a3.277,3.277,0,0,1,2.157,3.919q-.932,5.173-1.847,10.35c-.266,1.5-1,2.263-2.323,2.372-2.261.185-3.173-.253-3.663-1.913-.661-2.239-1.214-4.51-1.891-6.744a1.444,1.444,0,0,0-.952-.85c-1.3-.185-2.627-.221-3.94-.312.091,5.768,3.9,10.606,9.856,12.44,4.862,1.5,11.078-.484,13.834-4.411a1.021,1.021,0,0,0-.158-.219,2.386,2.386,0,0,0-.46-.32c-1.852-.882-2.166-2.383-1.8-4.232.205-1.044.251-2.119.378-3.265l-3.019-.917a2.853,2.853,0,0,1-2.2-2.865c-.235-2.223.371-3.953,2.42-5.048a4.582,4.582,0,0,0,.891-.681c1.284-1.17,1.163-2.477-.432-3.06a45.458,45.458,0,0,0-5.107-1.374c-.379-.09-1-.09-1.2.138C1228.034,588.649,1225.8,589.84,1225.385,592.593Zm-1.965-4.119a13.376,13.376,0,0,0-6.177,7.244c-.281.763.767,2.116,1.647,2.193.6.052,1.214.012,1.822.013,2.392,0,3,.5,3.6,2.815.567,2.176,1.175,4.34,1.766,6.51a92.8,92.8,0,0,0,1.966-9.619,1.364,1.364,0,0,0-.693-1.069c-1.062-.472-2.2-.779-3.293-1.172a2.47,2.47,0,0,1-1.772-3.289C1222.592,590.986,1222.972,589.893,1223.419,588.474Zm16.759,3.082c-1.221,1.114-2.4,2.111-3.473,3.211a2.337,2.337,0,0,0-.616,1.526c.006.3.588.691.988.874a17.13,17.13,0,0,0,1.869.58,2.865,2.865,0,0,1,2.232,3.266,29.752,29.752,0,0,1-.315,3.067c-.18,1.039.057,1.726,1.178,1.922C1244.541,601.589,1243.588,594.887,1240.178,591.555Z" transform="translate(-21.881 -23.679)"/>
      <path id="Trazado_1328399" data-name="Trazado 1328399" d="M1414.107,614.4c-.083,1.242-.027,2.6-1.608,2.579-1.549-.017-1.514-1.357-1.558-2.566a11.073,11.073,0,0,1-7.128-4.315,10.139,10.139,0,0,1-.629-11.726c2.114-3.664,4.612-7.114,7.066-10.569a2.685,2.685,0,0,1,4.288-.264c3.314,3.879,6.434,7.925,8.168,12.8a10.584,10.584,0,0,1-7.564,13.822C1414.83,614.237,1414.515,614.3,1414.107,614.4Zm-3.195-11.471V592.215l-.324-.157-4.972,7.716Zm3.563-10.861-.334.112v10.759l5.114-3.05a15.807,15.807,0,0,0-.717-1.457C1417.2,596.3,1415.831,594.186,1414.475,592.066Zm5.722,10.819c-2.031,1.21-3.9,2.311-5.754,3.446a.933.933,0,0,0-.367.67c-.034,1.377-.017,2.754-.017,4.151A7.465,7.465,0,0,0,1420.2,602.886Zm-9.209,8.272c0-1.383.021-2.688-.016-3.992a1.116,1.116,0,0,0-.356-.818c-1.849-1.149-3.728-2.25-5.636-3.387C1404.032,606.44,1407.319,610.78,1410.987,611.158Z" transform="translate(-157.261 -25.726)"/>
    </g>
  </g>
</svg>
