<svg xmlns="http://www.w3.org/2000/svg" width="127" height="127" viewBox="0 0 127 127">
  <g id="Grupo_1207847" data-name="Grupo 1207847" transform="translate(1083.451 7080.713)">
    <g id="Grupo_1207809" data-name="Grupo 1207809">
      <g id="Grupo_1207190" data-name="Grupo 1207190" transform="translate(-1584.852 -14179.055)">
        <circle id="Elipse_13775" data-name="Elipse 13775" cx="63.5" cy="63.5" r="63.5" transform="translate(501.4 7098.342)" fill="#83433e"/>
        <circle id="Elipse_13776" data-name="Elipse 13776" cx="52" cy="52" r="52" transform="translate(513.4 7110.342)" fill="#cdb3b1"/>
      </g>
      <g id="Grupo_1207625" data-name="Grupo 1207625" transform="translate(-2186.622 -7613.37)">
        <path id="Trazado_1328059" data-name="Trazado 1328059" d="M1228.271,622.9c1.227-1.708,2.33-3.183,3.361-4.707a2.061,2.061,0,0,1,1.991-1.037c1.385.067,2.777.044,4.165.007a1.649,1.649,0,0,1,1.647.926c1.576,2.756,3.194,5.488,4.8,8.226.2.335.411.66.741,1.19.2-2.309.391-4.382.568-6.456.073-.861.132-1.723.185-2.585a1.208,1.208,0,0,1,1.355-1.291c1.293,0,2.586,0,3.925,0,.353-2.1-.31-4.255.434-6.361-.19-.015-.45-.052-.711-.052-2.376,0-4.754-.054-7.128.012a9.326,9.326,0,0,1-6.394-1.784,9.537,9.537,0,0,1-6.561,1.784c-2.621-.067-5.245-.013-7.869-.016-1.38,0-1.656-.287-1.658-1.7,0-2.129-.006-4.259,0-6.388,0-1,.4-1.519,1.127-1.468.888.062,1.071.686,1.069,1.437,0,1.969,0,3.938,0,6.018,1.878,0,3.688.026,5.5-.008a46.348,46.348,0,0,0,4.7-.226,5.271,5.271,0,0,0,3.23-1.944h-2.807c-2.345,0-4.691.005-7.036,0-1.174,0-1.485-.307-1.487-1.483-.008-3.765,0-7.53,0-11.294v-1.036h-2.093c0,1.529,0,3,0,4.478a5.658,5.658,0,0,1-.016.832,1.053,1.053,0,0,1-1.1,1.031,1.012,1.012,0,0,1-1.062-1.062c-.031-2.129-.037-4.259,0-6.387a1.037,1.037,0,0,1,1.175-1.044h3.091c0-.692-.01-1.326,0-1.959a1.118,1.118,0,0,1,1.265-1.246c2.16.011,4.32-.006,6.48.016a5.385,5.385,0,0,1,4.067,2.1c1.468-1.936,3.51-2.227,5.72-2.128,1.509.067,3.023.007,4.536.015,1.218.006,1.506.3,1.519,1.549.006.517,0,1.034,0,1.651,1.036,0,1.984-.011,2.932,0,.966.015,1.351.379,1.352,1.35q.015,8.749-.009,17.5a6.447,6.447,0,0,1-.342,1.4c1.791,0,3.6,0,5.412,0a7.526,7.526,0,0,1,5.966,2.657,7.146,7.146,0,0,1,1.763,4.38c.061,1.136-.294,1.526-1.432,1.53-3.364.011-6.727,0-10.091,0h-1.168c0,2.19-.013,4.332.015,6.474a2.69,2.69,0,0,0,.316.959,5.337,5.337,0,0,0,10.218-1.669c.064-.8.042-1.6.043-2.405,0-.735.348-1.237,1.08-1.224s1.016.542,1.041,1.266c.123,3.491-.119,4.385-1.992,7.087a17.145,17.145,0,0,1,2.453.885,4.859,4.859,0,0,1,2.722,4.421c.05,3.548.017,7.1.023,10.646,0,.707-.234,1.247-1.022,1.262-.843.016-1.084-.541-1.083-1.291q.01-5.092,0-10.183a3.168,3.168,0,0,0-2.377-3.249c-.241,1.044-.494,2.076-.716,3.115q-1.07,5.017-2.121,10.037c-.013.06-.027.12-.041.18-.263,1.148-.7,1.562-1.464,1.372-.7-.177-.9-.755-.663-1.838q1.332-6.094,2.647-12.191c.051-.236.071-.479.135-.917a4.565,4.565,0,0,0-.551.485c-.8,1.054-1.587,2.125-2.4,3.173-.719.928-1.341.921-2.073-.02-.758-.973-1.489-1.967-2.237-2.948a1.473,1.473,0,0,0-.681-.532c.066.4.115.806.2,1.2q1.272,5.966,2.555,11.93c.209.97-.036,1.547-.74,1.67-.72.126-1.133-.285-1.347-1.285q-1.376-6.416-2.767-12.829c-.038-.177-.1-.349-.151-.517a2.941,2.941,0,0,0-2.373,3.155c-.018,3.147-.005,6.3-.006,9.443,0,.247-.007.494,0,.74.023.751-.232,1.31-1.073,1.3-.786-.012-1.033-.548-1.017-1.26.01-.463,0-.926,0-1.389,0-2.716.113-5.437-.029-8.145-.173-3.319,1.569-5.82,5.386-6.35-3.056-3.026-1.982-6.866-2.235-10.5h-3.2c-.036.239-.084.473-.1.71-.3,3.565-.606,7.13-.89,10.7-.052.65-.26,1.284-.927,1.27a1.831,1.831,0,0,1-1.262-.831c-2.239-3.725-4.427-7.481-6.6-11.245a1.117,1.117,0,0,0-1.157-.674c-1.137.059-2.444-.287-3.369.169-.883.435-1.378,1.669-2.029,2.564-.979,1.347-1.913,2.73-2.939,4.04-.261.334-.871.7-1.186.609a1.613,1.613,0,0,1-.9-1.093c-.39-2.246-.678-4.51-.989-6.77-.138-1,.158-1.591.864-1.637.871-.056,1.148.524,1.25,1.282C1227.807,619.872,1228.027,621.258,1228.271,622.9Zm7.824-18.538c0-4.095.032-8.1-.017-12.1a2.918,2.918,0,0,0-2.733-2.8c-1.888-.139-3.794-.033-5.706-.033v14.928Zm2.226-.033h8.446V589.4c-1.823,0-3.578-.038-5.33.011a3.076,3.076,0,0,0-3.1,2.853C1238.284,596.263,1238.321,600.265,1238.321,604.326Zm12.714,4.419V592.67H1249v1.073q0,5.6,0,11.19c0,1.237-.3,1.537-1.523,1.54q-4.393.009-8.786,0h-1.04a5.193,5.193,0,0,0,3.359,1.956C1244.325,608.614,1247.647,608.649,1251.035,608.745Zm12.833,8.423c-.62-2.2-1.88-3.777-4.058-4.046a53.372,53.372,0,0,0-6.459-.056v4.056c.17.019.288.044.405.044C1257.08,617.168,1260.4,617.167,1263.868,617.167Zm-5.248,16.363.968-1.3h-1.955Z" transform="translate(-70.531 -18.864)" fill="#262626"/>
        <path id="Trazado_1328060" data-name="Trazado 1328060" d="M1145.243,591.716a22.3,22.3,0,0,1,3.032.852,6.939,6.939,0,0,1,4.409,6.039,59.847,59.847,0,0,1,.009,7.95c-.1,1.834-.562,2.492-1.942,4.381a16.552,16.552,0,0,1,2.6.976,4.978,4.978,0,0,1,2.587,4.323c.035.738-.284,1.254-1.011,1.282-.667.026-1.026-.421-1.087-1.125a3.274,3.274,0,0,0-2.317-2.985c-.262,1.507-.511,2.943-.76,4.38-.021.121-.029.245-.052.366-.294,1.559-.806,1.812-2.217,1.106-.634-.317-1.271-.625-1.91-.932-.046-.022-.115.006-.276.019v3.193c0,1.7-.008,3.394,0,5.091.005.758-.038,1.477-1.024,1.542-.741.048-1.07-.456-1.071-1.583q0-3.657,0-7.313v-1.067c-.869.423-1.6.776-2.333,1.137-1.209.6-1.828.258-2.043-1.1-.25-1.578-.53-3.151-.8-4.728a2.985,2.985,0,0,0-2.36,3.134c-.014,3.333,0,6.665-.008,10,0,.3.049.7-.116.89a1.519,1.519,0,0,1-1.015.578c-.326-.027-.691-.419-.9-.741-.145-.223-.065-.6-.065-.907q0-4.721,0-9.443c0-3.349,1.515-5.209,4.792-5.9l.569-.12c-2.047-2.04-2.269-4.52-2.158-7.106.033-.76.3-1.32,1.095-1.3.736.015.993.555,1.04,1.273a16.345,16.345,0,0,0,.416,3.824,5.179,5.179,0,0,0,5.923,3.328,5.262,5.262,0,0,0,4.325-5.062c.031-1.7.007-3.394,0-5.091a2.652,2.652,0,0,0-.066-.366c-.312-.014-.638-.042-.963-.042q-5.045,0-10.09,0c-1.444,0-1.822-.41-1.637-1.86a7.267,7.267,0,0,1,4.609-6.108,1.023,1.023,0,0,0,.729-1.15c-.017-6.758.093-13.518-.051-20.273a6.716,6.716,0,0,1,6.955-6.946q16.616.149,33.233,0a6.7,6.7,0,0,1,6.935,6.965c-.152,5.674-.039,11.355-.039,17.032,0,.247.012.5-.01.74a.967.967,0,0,1-1.022.978.954.954,0,0,1-1.039-.955c-.025-.276-.015-.555-.015-.833q0-8.424,0-16.849c0-3.214-1.708-4.932-4.9-4.932q-16.571,0-33.141,0c-3.074,0-4.826,1.745-4.828,4.815q-.007,9.905,0,19.811Zm-5.186,6.59h10.369a5.175,5.175,0,0,0-4.871-4.254A5.3,5.3,0,0,0,1140.057,598.306Zm9.258,15.069-.3-.115-2.11,2.814,1.83.91Zm-5.673,2.7-2.151-2.828-.277.122c.2,1.167.394,2.333.608,3.6Zm1.64-1.426,1.011-1.337h-2.066Z" transform="translate(0)" fill="#262626"/>
        <path id="Trazado_1328061" data-name="Trazado 1328061" d="M1238.773,868.289c0-.987.008-1.974,0-2.96-.007-.7.328-1.17,1.011-1.187.742-.019,1.082.472,1.079,1.21q-.009,3.053,0,6.105c0,.685-.283,1.159-1.009,1.174-.775.016-1.081-.466-1.078-1.2C1238.776,870.386,1238.773,869.337,1238.773,868.289Z" transform="translate(-84.915 -244.465)" fill="#262626"/>
        <path id="Trazado_1328062" data-name="Trazado 1328062" d="M1177.434,773.2c-.4.3-.759.774-1.2.861-.618.122-1.051-.357-1.08-.991a.934.934,0,0,1,1.008-1.068c.441.047.837.5,1.253.779Z" transform="translate(-33.079 -169.378)" fill="#262626"/>
        <path id="Trazado_1328063" data-name="Trazado 1328063" d="M1431.77,773.225c-.407.286-.788.749-1.228.814a1.029,1.029,0,1,1,0-2.058c.438.063.818.533,1.224.822Z" transform="translate(-240.325 -169.361)" fill="#262626"/>
        <path id="Trazado_1328064" data-name="Trazado 1328064" d="M1408.829,773.008a6.581,6.581,0,0,1-1.526.985c-.531.135-1.139-.57-1.05-1.116.1-.615.523-1.079,1.119-.954C1407.809,772.016,1408.165,772.492,1408.829,773.008Z" transform="translate(-221.378 -169.306)" fill="#262626"/>
        <path id="Trazado_1328065" data-name="Trazado 1328065" d="M1200.7,773a6.6,6.6,0,0,1-1.511,1.01c-.526.143-1.154-.56-1.068-1.1.1-.609.505-1.087,1.107-.968C1199.666,772.023,1200.029,772.492,1200.7,773Z" transform="translate(-51.785 -169.318)" fill="#262626"/>
        <path id="Trazado_1328066" data-name="Trazado 1328066" d="M1269.917,610.411c.4,0,.866-.129,1.183.034.377.194.859.636.863.975a1.322,1.322,0,0,1-.829.986,7.037,7.037,0,0,1-2.475,0,1.442,1.442,0,0,1-.854-.974c-.124-.575.288-.98.913-1.026.4-.029.8-.006,1.2-.006Z" transform="translate(-108.555 -37.676)" fill="#262626"/>
        <path id="Trazado_1328067" data-name="Trazado 1328067" d="M1269.856,635.651c-.369,0-.74.017-1.108,0a.953.953,0,0,1-1.013-1.065.929.929,0,0,1,.992-.99c.738-.023,1.478-.022,2.216,0a1.028,1.028,0,0,1,.021,2.055C1270.6,635.664,1270.225,635.651,1269.856,635.651Z" transform="translate(-108.516 -56.593)" fill="#262626"/>
        <path id="Trazado_1328068" data-name="Trazado 1328068" d="M1269.857,658.59a2.911,2.911,0,0,1-1.183-.034,1.751,1.751,0,0,1-.884-.964.846.846,0,0,1,.889-1.042,10.111,10.111,0,0,1,2.391.036c.36.068.9.643.874.938-.039.382-.51.819-.9,1.034C1270.73,658.725,1270.256,658.59,1269.857,658.59Z" transform="translate(-108.538 -75.268)" fill="#262626"/>
        <path id="Trazado_1328069" data-name="Trazado 1328069" d="M1327.683,612.4c-.4,0-.872.133-1.181-.034-.371-.2-.837-.662-.831-1a1.328,1.328,0,0,1,.86-.957,7.072,7.072,0,0,1,2.475.006,1.3,1.3,0,0,1,.8.988c-.007.341-.474.795-.847.971a3.247,3.247,0,0,1-1.275.036Z" transform="translate(-155.725 -37.623)" fill="#262626"/>
        <path id="Trazado_1328070" data-name="Trazado 1328070" d="M1327.554,635.656c-.369,0-.739.015-1.108,0a.973.973,0,0,1-1.026-1.065.954.954,0,0,1,1.006-.99c.738-.019,1.478-.023,2.215,0a1.028,1.028,0,0,1,.021,2.055C1328.293,635.673,1327.923,635.656,1327.554,635.656Z" transform="translate(-155.519 -56.597)" fill="#262626"/>
        <path id="Trazado_1328071" data-name="Trazado 1328071" d="M1327.738,658.564a3.092,3.092,0,0,1-1.273-.037,1.559,1.559,0,0,1-.815-1.02,1.236,1.236,0,0,1,.791-.924,7.946,7.946,0,0,1,2.568,0,1.3,1.3,0,0,1,.776,1.007c-.012.338-.49.766-.864.953a2.912,2.912,0,0,1-1.183.033Z" transform="translate(-155.707 -75.253)" fill="#262626"/>
      </g>
    </g>
  </g>
</svg>
