<svg xmlns="http://www.w3.org/2000/svg" width="104" height="119.958" viewBox="0 0 104 119.958">
  <g id="Grupo_1207851" data-name="Grupo 1207851" transform="translate(-894 -3447)">
    <g id="Grupo_1207601" data-name="Grupo 1207601">
      <circle id="Elipse_13777" data-name="Elipse 13777" cx="52" cy="52" r="52" transform="translate(894 3447)" fill="#fbe49d"/>
      <g id="Grupo_1207586" data-name="Grupo 1207586" transform="translate(282.621 3097.113)">
        <path id="Trazado_1327870" data-name="Trazado 1327870" d="M630.5,482.586c-6.325-2.607-9.918-7.194-9.476-14.139a12.713,12.713,0,0,1,9.445-12c6.259-1.962,11.485.022,15.636,5.2l3.2-5.952c.181-.337.348-.681.544-1.009.79-1.322,1.982-1.336,2.74.027,1.319,2.369,2.579,4.772,3.858,7.163q3.405,6.366,6.806,12.734c.159.3.346.577.616,1.023l3.233-5.21c1.036-1.669,2.111-1.656,3.156.039q1.684,2.732,3.371,5.462c.15.241.329.465.535.753,1.554-5.647,4.977-8.345,10.879-8.724a21.77,21.77,0,0,0,3.048-.5c3.286-.69,4.984,0,6.891,2.716.741,1.053,1.7,1.949,2.463,2.99a16.774,16.774,0,0,1,2.233,3.537,4.3,4.3,0,0,1-1.946,5.336,1.575,1.575,0,0,0-.512,1.092,40.27,40.27,0,0,1-.253,4.68,10.345,10.345,0,0,1-3.99,6.113c-.414.331-.848.637-1.337,1a13.509,13.509,0,0,0,.936,2.2,1.639,1.639,0,0,0,1.2.531c2.178.05,4.372-.061,6.422.878a8.813,8.813,0,0,1,5.611,8.44c.044,4.512.014,9.026.007,13.539,0,1.587-.456,2.049-2.053,2.049q-40.387.006-80.773,0c-1.5,0-2.047-.426-2.061-1.687a147.018,147.018,0,0,1,1.145-20.937,18.578,18.578,0,0,1,2.659-8.221c1.548-2.267,3.322-4.355,4.217-7.028A8.553,8.553,0,0,1,630.5,482.586Zm12.318,16.383c.849-.5,1.628-.971,2.41-1.434a1.445,1.445,0,1,1,1.5,2.438c-1.129.715-2.289,1.382-3.422,2.091a1.106,1.106,0,0,0-.172,1.937,6.916,6.916,0,0,0,2.786,1.155c2.483.236,4.224-1.123,5.394-3.18a5.228,5.228,0,0,0-.424-6.026c-.586-.8-.9-1.579-.136-2.361a4.93,4.93,0,0,0-3.291-8.154c-1.086-.071-1.552-.835-1.392-1.933a4.968,4.968,0,0,0-3.628-5.6,4.79,4.79,0,0,0-5.942,3.654,2.6,2.6,0,0,1-1.991,2.152,5.873,5.873,0,0,0-2.278,9.769c1.529,1.527,1.507,1.942-.177,3.326a3.663,3.663,0,0,0-1.235,4.686,6.309,6.309,0,0,0,4.574,3.656,4.083,4.083,0,0,0,3.942-1,1.241,1.241,0,0,0-.173-2.078c-1.069-.668-2.161-1.3-3.232-1.962-1.029-.638-1.33-1.49-.827-2.261.471-.722,1.3-.79,2.336-.19.732.425,1.462.853,2.257,1.316.132-1.626.132-1.626-.929-2.49-.622-.506-1.257-1-1.868-1.519-.838-.715-.992-1.511-.454-2.189s1.357-.714,2.223-.078l1.107.81c0-.985-.017-1.709,0-2.432a1.476,1.476,0,1,1,2.911,0c.021.741,0,1.483,0,2.445.544-.407.875-.647,1.2-.9a1.369,1.369,0,0,1,2.119.161,1.335,1.335,0,0,1-.272,2.02,21.071,21.071,0,0,1-2.048,1.657A1.992,1.992,0,0,0,642.822,498.969ZM702.866,515.7H623.9v3.9h78.963Zm-6.041-2.991c0-.525,0-.938,0-1.352.005-1.49-.008-2.981.025-4.471a1.41,1.41,0,0,1,2.787-.256c.047.21.082.423.117.6h3.1a5.84,5.84,0,0,0-4.422-6.25,22.721,22.721,0,0,0-4.992-.371,2.727,2.727,0,0,0-1.678.672c-1.4,1.245-2.69,2.6-4.04,3.9-1,.964-1.654.962-2.65,0-1.372-1.329-2.723-2.68-4.1-4.008-.238-.23-.545-.558-.82-.557-2.126,0-4.287-.329-6.346.51-2.614,1.066-4.264,3.7-3.8,6.14h3.045c.1-.385.088-.856.3-1.008a2.789,2.789,0,0,1,1.54-.661c.775.037,1.129.693,1.13,1.474,0,1.861,0,3.721,0,5.637Zm-73-43.263a10.98,10.98,0,0,0,9.07,10.708c.71.116,1.022-.157,1.287-.766a7.552,7.552,0,0,1,3.992-3.912,2.382,2.382,0,0,0,1.035-.95c1.583-2.874,3.076-5.8,4.69-8.654a1.991,1.991,0,0,0-.11-2.376,10.989,10.989,0,0,0-12.265-4.443A10.871,10.871,0,0,0,623.829,469.444Zm18.918,43.218h24.287c0-1.935-.134-3.78.038-5.6.168-1.773.648-3.517,1.013-5.39-4.256-1.934-8.619-4.355-13.66-5.443,1.085,3.748.331,6.878-2.354,9.418a8,8,0,0,1-9.323,1.679Zm13.459-19.06c1.233.423,2.411.744,3.521,1.223,3.4,1.467,6.766,3,10.159,4.482a1.391,1.391,0,0,0,1.1.047,12.089,12.089,0,0,1,7.023-1.682c2.148.025,2.176.014,2.852-2.017a1.308,1.308,0,0,0-.345-1.075c-.671-.672-1.49-1.2-2.156-1.872a10.654,10.654,0,0,1-2.93-5.854c-4.905,0-9.719-.006-14.532.016a1.021,1.021,0,0,0-.749.371C658.824,489.331,657.535,491.447,656.205,493.6Zm22.091-9.7c0,4.852,1.934,7.846,5.764,9.252,3.311,1.215,7.537-.7,9.462-4.226,1.2-2.2.72-4.555.778-6.861,0-.192-.366-.427-.6-.586a12.924,12.924,0,0,0-5.558-1.99,7.539,7.539,0,0,1-2.867-.721c-1.909-1.187-3.325-.637-4.65.863a1.769,1.769,0,0,1-.35.3C678.725,480.953,677.753,482.241,678.3,483.9Zm-23.355,6.253,5.888-9.565-15.72-10.922-2.764,5.188c3.928,1.065,6.288,3.325,6.663,7.368a1.048,1.048,0,0,0,.582.7C652.793,484.164,654.521,486.518,654.941,490.154ZM627.856,492c-3.9,6.488-3.306,13.66-3.927,20.692H639.7v-5.184c-4.406,1.521-7.937.2-10.587-3.3-2.353-3.109-2.133-6.309.485-9.164Zm49.568-13.5c1.244-.981,2.325-1.885,3.461-2.713.885-.645,1.949-1.2,2.992-.663,2.185,1.122,4.578,1.383,6.888,2.006a46.2,46.2,0,0,1,4.508,1.888c.443.172,1.242.271,1.44.035a1.841,1.841,0,0,0,.233-1.554,7.556,7.556,0,0,0-1.25-2.021c-1.108-1.4-2.321-2.72-3.4-4.143a2.731,2.731,0,0,0-2.872-1.178c-1.881.308-3.781.5-5.657.831a8.5,8.5,0,0,0-5.282,2.728A4.828,4.828,0,0,0,677.424,478.5Zm-16.292-1.209.2-.194-10.11-18.87-4.738,8.882Zm7.539-3.916-6.492,10.552h12.978ZM686.1,502.605l.613.018c.649-.789,1.246-1.628,1.957-2.357,1.448-1.483,1.443-1.446.691-3.33-.266-.665-.6-.771-1.285-.7a20.5,20.5,0,0,1-3.4.023c-.614-.041-1.018-.013-1.208.661-.133.471-.436.9-.549,1.371a1.159,1.159,0,0,0,.17.893C684.066,500.347,685.091,501.469,686.1,502.605Zm-13.008,7.719h-3.169v2.382h3.169Zm29.75,2.379v-2.4h-3.077v2.4Z" transform="translate(0 -52.719)" fill="#83433e"/>
        <path id="Trazado_1327871" data-name="Trazado 1327871" d="M898.416,420.438c-1.605,0-3.211.024-4.816-.005a7,7,0,0,1-3.575-13.066,2.446,2.446,0,0,0,.84-1.342,6.945,6.945,0,0,1,5.786-5.18c3.167-.36,5.925.951,7.182,3.771a4.714,4.714,0,0,0,2.688,2.662,6.69,6.69,0,0,1,3.7,7.824,6.928,6.928,0,0,1-6.531,5.312c-1.756.067-3.516.012-5.274.012Zm-.052-2.86c1.644,0,3.289.02,4.934,0a4.113,4.113,0,1,0,.2-8.224c-1.3-.089-1.655-.445-1.749-1.755a4.108,4.108,0,0,0-8.211-.034,1.984,1.984,0,0,1-1.507,2.093,4.071,4.071,0,0,0-2.631,4.466,4.194,4.194,0,0,0,4.141,3.451C895.151,417.6,896.758,417.577,898.364,417.578Z" transform="translate(-204.619 -11.955)" fill="#83433e"/>
        <path id="Trazado_1327872" data-name="Trazado 1327872" d="M758.686,395.777c.881-.726,1.8-1.586,2.819-2.291a1.507,1.507,0,0,1,2.312.273c.448.764.158,1.584-.819,2.16a5.691,5.691,0,0,0-2.812,3.984c-.168.861-.505,1.571-1.491,1.594s-1.35-.654-1.527-1.531a5.787,5.787,0,0,0-2.977-4.13c-.824-.452-1.2-1.108-.722-1.984a1.337,1.337,0,0,1,2.059-.515C756.652,394.082,757.674,394.984,758.686,395.777Z" transform="translate(-101.96 -5.995)" fill="#83433e"/>
        <path id="Trazado_1327873" data-name="Trazado 1327873" d="M804.356,439.67c.782-.708,1.521-1.419,2.308-2.071a3.748,3.748,0,0,1,1.2-.656,1.351,1.351,0,0,1,1.813.754,1.274,1.274,0,0,1-.6,1.765,6.531,6.531,0,0,0-3.3,4.567,2.043,2.043,0,0,1-1.306,1.168c-.746.194-1.315-.367-1.46-1.127a6.27,6.27,0,0,0-3.328-4.659,1.388,1.388,0,0,1,1.25-2.462,12.386,12.386,0,0,1,2.273,1.5A10.128,10.128,0,0,1,804.356,439.67Z" transform="translate(-137.213 -39.713)" fill="#83433e"/>
        <path id="Trazado_1327874" data-name="Trazado 1327874" d="M840.916,387.961c.835-.7,1.69-1.524,2.648-2.2,1-.7,1.925-.561,2.426.2.515.778.235,1.554-.868,2.208a5.967,5.967,0,0,0-2.822,4.116c-.181.848-.55,1.434-1.484,1.426-.879-.007-1.275-.58-1.428-1.367a5.942,5.942,0,0,0-3.164-4.376,1.321,1.321,0,0,1-.587-1.866,1.228,1.228,0,0,1,1.821-.633C838.671,386.2,839.775,387.124,840.916,387.961Z" transform="translate(-165.298)" fill="#83433e"/>
        <path id="Trazado_1327875" data-name="Trazado 1327875" d="M647.918,496.4a7.592,7.592,0,0,1,7.339-7.123c.874.008,1.52.343,1.622,1.265.11.989-.5,1.476-1.4,1.626-3.138.521-4.2,1.528-4.682,4.529-.152.948-.541,1.6-1.616,1.534C648.3,498.169,647.886,497.544,647.918,496.4Z" transform="translate(-20.798 -80.129)" fill="#83433e"/>
      </g>
    </g>
  </g>
</svg>
