<svg xmlns="http://www.w3.org/2000/svg" width="104" height="122.85" viewBox="0 0 104 122.85">
  <g id="Grupo_1207852" data-name="Grupo 1207852" transform="translate(-1174.746 -3447)">
    <g id="Grupo_1207600" data-name="Grupo 1207600">
      <circle id="Elipse_13777" data-name="Elipse 13777" cx="52" cy="52" r="52" transform="translate(1174.746 3447)" fill="#fbe49d"/>
      <g id="Grupo_1207587" data-name="Grupo 1207587" transform="translate(427.764 2984.083)">
        <path id="Trazado_1327876" data-name="Trazado 1327876" d="M797.959,572.022l-1.126,2.926H787.02c.195.4.3.66.444.894,1.072,1.69,2.168,3.366,3.225,5.066a1.5,1.5,0,0,0,1.447.858c1.342-.021,2.16.669,2.1,1.6-.059.91-.836,1.466-2.119,1.467q-15.28.007-30.56,0a4.4,4.4,0,0,1-.522-.01,1.559,1.559,0,0,1-1.516-1.5,1.386,1.386,0,0,1,1.448-1.518c1.351.122,1.918-.62,2.506-1.6,1-1.672,2.093-3.289,3.245-5.083a9.88,9.88,0,0,0-1.107-.144c-2.307-.011-4.615,0-6.922-.007-1.873,0-2.26-.4-2.266-2.329-.005-1.742-.009-3.485,0-5.227a5.664,5.664,0,0,1,5.105-5.926c.509-.081,1.023-.132,1.61-.206v-6.052a8.263,8.263,0,0,1-4.161-3,12.415,12.415,0,0,1-2.238-5.234,13.508,13.508,0,0,1,2.407-11.127,9.239,9.239,0,0,1,2.427-2.131,3,3,0,0,0,1.353-1.634,12.959,12.959,0,0,1,2.258-3.945c4.017-4.88,10.429-4.841,14.355.109a16.014,16.014,0,0,1,3.342,10.481,16.21,16.21,0,0,1-2.54,8.783,10.234,10.234,0,0,1-6.4,4.712V563.86c.5-.746.878-1.315,1.257-1.885,1.16-1.745,2.166-1.736,3.339.035.407.615.8,1.239,1.273,1.971.368-.4.69-.734,1-1.079q10.967-12.091,21.936-24.179a9.124,9.124,0,0,1,1.411-1.349,4.425,4.425,0,0,1,5.643.419c.766.708,1.463,1.49,2.18,2.249q7.937,8.4,15.869,16.807c.266.282.522.575.945,1.043a22.91,22.91,0,0,0-2.909-.532,4.936,4.936,0,0,1-3.521-1.879c-4.612-4.985-9.3-9.9-13.963-14.834a6.218,6.218,0,0,0-.645-.647,1.538,1.538,0,0,0-2.135.068c-.417.38-.774.825-1.154,1.244q-10.79,11.9-21.577,23.8c-.287.316-.553.651-.994,1.173,2.029-.207,3.846-.426,5.666.393,2.161-3.122,4.884-5.321,8.854-5.456a12.22,12.22,0,0,1,7.615,2.389L802,565.724c-.838-.364-1.583-.718-2.35-1.016A7.484,7.484,0,0,0,790.4,568c-.324.513-.548,1.089-.863,1.609a1.522,1.522,0,0,1-2.344.479c-1.559-1.078-1.728-1.118-3.85-.873a8.633,8.633,0,0,0,1.589,2.6c.171.219.72.193,1.1.195,3.483.013,6.965.008,10.448.008ZM773.933,548.99a5.965,5.965,0,0,0,3.445-2.488,14,14,0,0,0,1.787-12.571,9.713,9.713,0,0,0-3.383-5.147,5.32,5.32,0,0,0-6.86-.02,10.1,10.1,0,0,0-2.359,2.741,14.038,14.038,0,0,0-.969,11.843,9.275,9.275,0,0,0,3.484,4.917,16.768,16.768,0,0,0,1.641.87v-2.6c-.7-.369-1.4-.7-2.068-1.1a1.51,1.51,0,0,1-.68-2.005,1.48,1.48,0,0,1,1.882-.719c.268.078.528.183.851.3v-1.75c-.395-.218-.734-.412-1.079-.595s-.717-.323-1.042-.536a1.485,1.485,0,0,1,1.326-2.656c.24.083.475.18.861.328,0-.665-.028-1.225.006-1.782.066-1.09.667-1.691,1.607-1.657.866.031,1.416.63,1.476,1.657.033.558.006,1.119.006,1.782a5.818,5.818,0,0,1,.968-.361,2.217,2.217,0,0,1,1,0,1.3,1.3,0,0,1,.956,1.126,1.426,1.426,0,0,1-.713,1.554c-.711.4-1.443.769-2.128,1.131v1.791c.368-.141.64-.272.927-.35a1.466,1.466,0,0,1,1.784.7,1.5,1.5,0,0,1-.525,1.947c-.725.457-1.5.826-2.2,1.2Zm2.924,16c-3.664,5.665-7.191,11.1-10.718,16.649h9.236V580.25q0-4.116,0-8.231a7.032,7.032,0,0,1,.036-1.043,1.559,1.559,0,0,1,1.442-1.275,1.541,1.541,0,0,1,1.434,1.285c.059.428.01.87.039,1.3a2.6,2.6,0,0,0,.155,1.012c1.485,2.8,3,5.589,4.493,8.347h4.614Zm-17.347,7.032c2.976,0,5.789.008,8.6-.014a1.081,1.081,0,0,0,.782-.315c.663-.931,1.261-1.908,1.884-2.872-.176-.1-.226-.146-.241-.136-.324.209-.645.424-.966.639a1.5,1.5,0,0,1-2.494-.923c-.116-.417-.2-.845-.353-1.25a4.21,4.21,0,0,0-5.772-2.364,2.244,2.244,0,0,0-1.443,2.13C759.507,568.559,759.51,570.2,759.51,572.021Zm6.79-16.781c0,2.19-.012,4.278.015,6.367a1.037,1.037,0,0,0,.339.765,8.182,8.182,0,0,1,2.852,3.332l1.166-.33V552.165A9.05,9.05,0,0,1,766.3,555.24Zm-3.14-5.719c-.708-.359-1.336-.654-1.941-.989a1.542,1.542,0,0,1-.806-2.069,1.522,1.522,0,0,1,2-.675c.3.1.6.191.872.277-.417-1.454-.907-2.808-1.178-4.2-.264-1.361-.3-2.767-.448-4.208a7.456,7.456,0,0,0-2.012,4.619,10.988,10.988,0,0,0,1.485,7.758,4.268,4.268,0,0,0,2.031,1.852Z" transform="translate(0 -19.371)" fill="#83433e"/>
        <path id="Trazado_1327877" data-name="Trazado 1327877" d="M941.154,660.224A22.583,22.583,0,1,1,918.5,682.713,22.476,22.476,0,0,1,941.154,660.224Zm-19.6,22.475c-.212,10.682,8.773,19.629,19.506,19.672a19.587,19.587,0,1,0,.17-39.174A19.454,19.454,0,0,0,921.555,682.7Z" transform="translate(-119.74 -119.623)" fill="#83433e"/>
        <path id="Trazado_1327878" data-name="Trazado 1327878" d="M863.135,502.881c1.932-3.764,5.6-5.323,9.993-4.247a7.51,7.51,0,0,1,4.909,3.166,1.523,1.523,0,0,0,.828.527c3.028.878,4.362,3.14,4.658,5.963a3.072,3.072,0,0,1-3.273,3.614c-6.394-.059-12.789-.015-19.184-.028-2.21,0-3.3-1.161-3.171-3.342a5.487,5.487,0,0,1,3.528-5.041C861.979,503.253,862.564,503.083,863.135,502.881Zm17.218,5.982c-.153-2.247-1.212-3.457-3.312-3.745-.78-.107-1.383-.388-1.5-1.184a2.385,2.385,0,0,0-1.521-1.8,7.579,7.579,0,0,0-5.341-.487,2.979,2.979,0,0,0-2.645,2.8c-.076.964-.538,1.283-1.557,1.422a9.733,9.733,0,0,0-1.655.322c-1.266.405-1.764,1.152-1.851,2.677Z" transform="translate(-74.962 0)" fill="#83433e"/>
        <path id="Trazado_1327879" data-name="Trazado 1327879" d="M796.913,775.443l1.1,2.893a10.342,10.342,0,0,1-1.067.116q-19.07.008-38.14,0a5.226,5.226,0,0,1-.911-.047,1.5,1.5,0,0,1,.057-2.984,5.222,5.222,0,0,1,.782-.022q18.612,0,37.225,0C796.259,775.4,796.56,775.427,796.913,775.443Z" transform="translate(-0.081 -204.714)" fill="#83433e"/>
        <path id="Trazado_1327880" data-name="Trazado 1327880" d="M995.359,518.716a4.51,4.51,0,1,1-4.587,4.518A4.55,4.55,0,0,1,995.359,518.716Zm-.056,6.011a1.493,1.493,0,1,0-1.513-1.485A1.561,1.561,0,0,0,995.3,524.727Z" transform="translate(-173.136 -15.082)" fill="#83433e"/>
        <path id="Trazado_1327881" data-name="Trazado 1327881" d="M833.87,764.063a11.022,11.022,0,0,1-1.3-.009,1.371,1.371,0,0,1-1.293-1.514,1.316,1.316,0,0,1,1.3-1.37,19.151,19.151,0,0,1,2.609,0,1.373,1.373,0,0,1,1.308,1.372,1.41,1.41,0,0,1-1.313,1.51A11.266,11.266,0,0,1,833.87,764.063Z" transform="translate(-55.3 -194.17)" fill="#83433e"/>
        <path id="Trazado_1327882" data-name="Trazado 1327882" d="M972.834,533.309a9.805,9.805,0,0,1-1.08-.078,1.6,1.6,0,0,1-1.31-1.407,1.478,1.478,0,0,1,1.194-1.492,7.846,7.846,0,0,1,2.184,0,1.434,1.434,0,0,1,1.168,1.5,1.525,1.525,0,0,1-1.178,1.371A7.313,7.313,0,0,1,972.834,533.309Z" transform="translate(-158.117 -23.607)" fill="#83433e"/>
        <path id="Trazado_1327883" data-name="Trazado 1327883" d="M1005.308,500.7a7.864,7.864,0,0,1-.058.916,1.574,1.574,0,0,1-1.488,1.371,1.507,1.507,0,0,1-1.5-1.349,7.643,7.643,0,0,1,0-1.807,1.56,1.56,0,0,1,1.476-1.385,1.628,1.628,0,0,1,1.505,1.364A7.385,7.385,0,0,1,1005.308,500.7Z" transform="translate(-181.587 -0.107)" fill="#83433e"/>
        <path id="Trazado_1327884" data-name="Trazado 1327884" d="M1002.2,558.513a6.533,6.533,0,0,1,.083-1.034,1.492,1.492,0,0,1,1.52-1.171,1.421,1.421,0,0,1,1.385,1.162,7.294,7.294,0,0,1,.053,1.941,1.423,1.423,0,0,1-1.491,1.34,1.461,1.461,0,0,1-1.518-1.455,7.015,7.015,0,0,1,0-.781Z" transform="translate(-181.577 -42.854)" fill="#83433e"/>
        <path id="Trazado_1327885" data-name="Trazado 1327885" d="M767.5,726.5a6.545,6.545,0,0,1-.913-.069,1.584,1.584,0,0,1-1.288-1.451,1.493,1.493,0,0,1,1.2-1.505,6.86,6.86,0,0,1,2.072-.01,1.4,1.4,0,0,1,1.191,1.492,1.463,1.463,0,0,1-1.231,1.467A7.059,7.059,0,0,1,767.5,726.5Z" transform="translate(-6.562 -166.289)" fill="#83433e"/>
        <path id="Trazado_1327886" data-name="Trazado 1327886" d="M1030.633,530.182a6.423,6.423,0,0,1,1.036.072,1.422,1.422,0,0,1,1.145,1.525,1.328,1.328,0,0,1-1.159,1.365,7.824,7.824,0,0,1-1.943.039,1.52,1.52,0,0,1-1.379-1.479,1.544,1.544,0,0,1,1.389-1.48,6.331,6.331,0,0,1,.91-.007Z" transform="translate(-200.885 -23.553)" fill="#83433e"/>
        <path id="Trazado_1327887" data-name="Trazado 1327887" d="M981.347,508.038a3.47,3.47,0,0,1,2.581,2.415,1.464,1.464,0,0,1-2.124,1.418,5.7,5.7,0,0,1-1.669-1.608A1.416,1.416,0,0,1,981.347,508.038Z" transform="translate(-165.086 -7.194)" fill="#83433e"/>
        <path id="Trazado_1327888" data-name="Trazado 1327888" d="M1022.072,548.258a4.294,4.294,0,0,1,1.094.44,8.608,8.608,0,0,1,1.36,1.382,1.4,1.4,0,0,1-.15,1.893,1.323,1.323,0,0,1-1.875.152,8.729,8.729,0,0,1-1.39-1.351,1.283,1.283,0,0,1-.136-1.579A5.269,5.269,0,0,1,1022.072,548.258Z" transform="translate(-195.293 -36.907)" fill="#83433e"/>
        <path id="Trazado_1327889" data-name="Trazado 1327889" d="M891.8,761.177a7.428,7.428,0,0,1-1.04-.008,1.522,1.522,0,0,1-1.274-1.434,1.494,1.494,0,0,1,1.281-1.425,10.747,10.747,0,0,1,1.822-.02,1.5,1.5,0,0,1,1.46,1.387,1.518,1.518,0,0,1-1.467,1.515c-.258.024-.521,0-.781,0Z" transform="translate(-98.311 -192.052)" fill="#83433e"/>
        <path id="Trazado_1327890" data-name="Trazado 1327890" d="M1023.33,508.037a1.4,1.4,0,0,1,1.316,2.141,6.127,6.127,0,0,1-1.622,1.652,1.452,1.452,0,0,1-2.2-1.3A3.5,3.5,0,0,1,1023.33,508.037Z" transform="translate(-195.34 -7.192)" fill="#83433e"/>
        <path id="Trazado_1327891" data-name="Trazado 1327891" d="M984.011,550.341a1.975,1.975,0,0,1-.281.655,10.213,10.213,0,0,1-1.365,1.387,1.36,1.36,0,0,1-1.986-.124,1.517,1.517,0,0,1-.106-1.915,8.7,8.7,0,0,1,1.381-1.372,1.4,1.4,0,0,1,1.6-.087A1.47,1.47,0,0,1,984.011,550.341Z" transform="translate(-165.165 -37.216)" fill="#83433e"/>
        <path id="Trazado_1327892" data-name="Trazado 1327892" d="M896.108,729.377c-.779,0-1.551.055-2.31-.015a1.574,1.574,0,0,1-1.411-1.451,1.548,1.548,0,0,1,1.477-1.526C896.843,726.233,896.873,726.579,896.108,729.377Z" transform="translate(-100.451 -168.482)" fill="#83433e"/>
        <path id="Trazado_1327893" data-name="Trazado 1327893" d="M978.634,705.061c-.3,2.437-.584,4.809-.881,7.179-.13,1.035-.261,2.07-.428,3.1-.207,1.279-.586,1.6-1.923,1.605q-8.611.015-17.222,0c-1.494,0-1.895-.394-2.08-1.9q-.582-4.723-1.18-9.445c-.021-.172-.074-.339-.127-.572-1.381-.247-1.727-1.19-1.627-2.482a18.348,18.348,0,0,0,0-2.74c-.135-1.863.559-2.53,2.416-2.478,2.434.067,4.87.016,7.306.016h1.342l4.134-7.132c.218-.376.43-.756.662-1.123a1.512,1.512,0,0,1,2.2-.722c1.349.7,2.671,1.458,3.953,2.273a1.448,1.448,0,0,1,.4,2.174c-.674,1.216-1.393,2.407-2.084,3.613-.147.256-.259.532-.443.916,1.763,0,3.411-.006,5.06,0,1.729.008,2.226.513,2.235,2.261q.009,1.567,0,3.133C980.338,704.254,980.186,704.465,978.634,705.061ZM964.5,713.906h4.465v-2.876H964.5Zm-.009-6.064h4.5v-2.727a4.953,4.953,0,0,1-4.5.008Zm-6.206.056a9.286,9.286,0,0,0,3.144-.119v-2.762h-3.513Zm16.952-.014c.117-1.06.218-1.971.319-2.89h-3.476v2.89ZM969.444,697.4l2.847-4.941-1.3-.732-2.927,5.067Zm-7.979,16.531a9.815,9.815,0,0,0-.1-2.9h-2.7l.376,2.9Zm10.6-2.927v2.907h2.4l.351-2.907Zm-9.885-10.494H956.26v1.368c2.033.008,3.965.025,5.921-.008ZM971.3,701.8h5.878v-1.262h-5.945C971.261,701.009,971.281,701.379,971.3,701.8Zm-4.582.806a1.457,1.457,0,1,0-1.5-1.48A1.533,1.533,0,0,0,966.721,702.606Z" transform="translate(-145.341 -140.249)" fill="#83433e"/>
      </g>
    </g>
  </g>
</svg>
