<svg xmlns="http://www.w3.org/2000/svg" width="104" height="124.292" viewBox="0 0 104 124.292">
  <g id="Grupo_1207853" data-name="Grupo 1207853" transform="translate(8747.965 8253)">
    <g id="Grupo_1207599" data-name="Grupo 1207599">
      <circle id="Elipse_13777" data-name="Elipse 13777" cx="52" cy="52" r="52" transform="translate(-8747.965 -8253)" fill="#fbe49d"/>
      <g id="Grupo_1207588" data-name="Grupo 1207588" transform="translate(-9496.865 -8722.503)">
        <path id="Trazado_1327894" data-name="Trazado 1327894" d="M845.479,559.112c-2.693,0-5.241,0-7.789,0-2.2,0-2.429-.233-2.431-2.447,0-.566,0-1.133,0-1.8h2.819l.141,1.375h6.538c3.633,0,3.633,0,3.633,3.606,0,3.655.027,7.311-.013,10.966a5.053,5.053,0,0,1-3.793,4.932A4.936,4.936,0,0,1,839,573.515a6.968,6.968,0,0,1-.814-2.748c-.134-1.366-.035-2.754-.035-4.239h-5.946v17.334h19.01V548.206c-1.039,1.032-1.931,1.926-2.833,2.81-1.156,1.133-1.734,1.139-2.865.033-1.823-1.783-3.642-3.571-5.432-5.327l2.089-2.139,4.682,4.975c1.545-1.59,2.915-2.956,4.218-4.383a1.924,1.924,0,0,0,.232-1.142c.029-1.089.01-2.178.01-3.658-.954.943-1.679,1.656-2.4,2.374-1.882,1.875-2.085,1.874-3.993-.029a7.029,7.029,0,0,1-.935-.957c-1.408-2.094-3.426-2.319-5.806-1.853v12.872h-2.873v-7.12H825.06v2.753H822.1v-8.492a3.154,3.154,0,0,0-3.476.934c-2.159,2.314-4.462,4.493-6.7,6.73-.282.282-.547.582-.865.921,1.886,1.887,3.7,3.747,5.566,5.544a1.611,1.611,0,0,0,2.246-2.308c-.626-.691-1.319-1.322-1.962-2-.884-.93-.868-1.564.014-2.521.822-.892,1.636-1.791,2.576-2.822l1.888,2.452-1.552,1.633c.44.47.862.893,1.254,1.342a4.524,4.524,0,0,1-.107,6.19,4.435,4.435,0,0,1-6.26.237c-2.307-2.167-4.51-4.445-6.743-6.69a1.374,1.374,0,0,1,0-2.15c3.354-3.364,6.709-6.73,10.1-10.052a2.512,2.512,0,0,1,1.431-.5c.8-.081,1.607-.022,2.454-.022l.2-1.359h2.732l.219,1.287h10.03l.186-1.275h2.695l.226,1.345a30.5,30.5,0,0,1,3.628.039,4.247,4.247,0,0,1,2.122.884,36.365,36.365,0,0,1,2.821,2.925c1.522-1.517,2.937-2.89,4.294-4.319.2-.213.178-.686.179-1.038.011-4.752.03-9.5-.027-14.255a2.034,2.034,0,0,0-.771-1.437c-5.006-3.391-10.051-6.723-15.086-10.072-.338-.225-.789-.382-.982-.7-.291-.475-.654-1.141-.516-1.577a1.762,1.762,0,0,1,1.312-.993c6.286-.065,12.572-.044,19.018-.044v1.626q0,37.527,0,75.055a2.89,2.89,0,0,0,1.081,2.612c2.525,2.15,4.758,4.642,7.148,7.038l-2.2,2.046c-1.873-1.92-3.866-3.921-5.8-5.974a2.5,2.5,0,0,0-2.02-.825q-24.549.034-49.1,0a2.366,2.366,0,0,0-1.912.786c-1.936,2.065-3.925,4.082-6,6.223l-2.105-2.455a40.844,40.844,0,0,0,4.239-4.1c2.157-2.741,4.751-3.628,8.22-3.421,5.1.3,10.229.078,15.346.078h1.181c-.086-1.271-.229-2.434-.233-3.6-.02-7.513-.01-15.027-.01-22.541v-1.5h2.931v1.446q0,11.514,0,23.028a9.821,9.821,0,0,0,.021,1.1,2.166,2.166,0,0,0,4.327-.022c.068-.97.025-1.948.025-2.923q0-6.641,0-13.281c0-1.679.485-2.157,2.177-2.161q3.716-.009,7.432,0c1.6.007,2.079.5,2.086,2.126.008,1.706-.024,3.412.014,5.117a2.181,2.181,0,1,0,4.361.035C845.5,566.955,845.479,563.139,845.479,559.112Zm-5.321-50.9,11.062,7.344v-7.344Zm-5,33.41v-2.774h-10.08v2.774Z" transform="translate(-28.029 -0.048)" fill="#83433e"/>
        <path id="Trazado_1327895" data-name="Trazado 1327895" d="M792.343,711.428l-2.45,1.454-9.544-16.08c-.695.872-1.215,1.644-1.853,2.3-1.853,1.91-2.073,1.9-3.977-.028-.741-.749-1.454-1.525-2.289-2.4-1.056,1.043-2.02,2-2.993,2.953-1.206,1.178-1.743,1.172-2.961-.022-.724-.71-1.439-1.43-2.161-2.142a3.283,3.283,0,0,0-.354-.234l-4.963,8.35-2.509-1.455c1.867-3.174,3.668-6.242,5.475-9.307q4.418-7.493,8.843-14.982c.93-1.573,2.132-1.613,3.042-.078q9.221,15.536,18.423,31.082C792.155,710.977,792.208,711.132,792.343,711.428ZM767.921,696.98c.981-1.037,1.907-2.057,2.879-3.032,1.022-1.024,1.682-1.038,2.685-.017.987,1.006,1.906,2.078,3.034,3.318a23.5,23.5,0,0,1,1.75-1.987,1.055,1.055,0,0,0,.229-1.634c-.89-1.353-1.665-2.783-2.493-4.177-1.251-2.106-2.506-4.209-3.857-6.477-1.857,3.143-3.614,6.1-5.35,9.06C765.221,694.728,765.232,694.734,767.921,696.98Z" transform="translate(0 -131.182)" fill="#83433e"/>
        <path id="Trazado_1327896" data-name="Trazado 1327896" d="M761.539,522.7v-2.915h4.841a32.266,32.266,0,0,1-1.521-3.314,8.553,8.553,0,0,1,4.962-10.6,8.672,8.672,0,0,1,11.061,3.922,1.959,1.959,0,0,0,1.866,1.3,7.176,7.176,0,0,1,6.49,6.89c.016.525,0,1.051,0,1.723h4.3v2.968c-2.206,0-4.389.07-6.564-.027-1.229-.055-1.642-1.058-1.125-2.327,1.179-2.89-.131-5.69-2.966-6.264a5.236,5.236,0,0,0-1.69-.029c-1.566.206-1.9.012-2.34-1.519a5.818,5.818,0,0,0-9.766-2.7,5.511,5.511,0,0,0-1.392,6.057,5.792,5.792,0,0,0,5.117,3.92,2.412,2.412,0,0,1,1.406.507c.287.322.477,1.144.274,1.4a2.527,2.527,0,0,1-1.626.96c-2.839.1-5.682.045-8.524.045Z" transform="translate(-3.97)" fill="#83433e"/>
        <path id="Trazado_1327897" data-name="Trazado 1327897" d="M915.957,558.816c-.623,3.639-2.752,5.732-5.809,5.844-3.016.11-5.161-1.9-6.156-5.846a13.517,13.517,0,0,1-2.5-.039,2.212,2.212,0,0,1-1.5-.927,2.149,2.149,0,0,1,.434-1.687,14.221,14.221,0,0,1,1.863-1.91,8.924,8.924,0,0,0,2.415-3.526,5.294,5.294,0,0,1,5.178-3.546,5.383,5.383,0,0,1,5.392,3.407,9.6,9.6,0,0,0,2.8,3.992,8.725,8.725,0,0,1,1.351,1.389,3.149,3.149,0,0,1,.649,1.883c-.148.878-1.052.984-1.866.969C917.476,558.805,916.752,558.816,915.957,558.816Zm-.718-2.962a6.714,6.714,0,0,1-2.587-3.983c-.207-1.243-1.677-1.914-2.987-1.77a3.1,3.1,0,0,0-2.568,2.419,6.342,6.342,0,0,1-1.06,2.064,4.731,4.731,0,0,1-1.26.877l.343.393Zm-2.386,3.068h-5.7a2.856,2.856,0,0,0,2.87,2.791A2.819,2.819,0,0,0,912.853,558.921Z" transform="translate(-108.643 -31.756)" fill="#83433e"/>
        <path id="Trazado_1327898" data-name="Trazado 1327898" d="M1068.527,734.09l-2.477,1.512-4.692-7.567c-.592.678-1.053,1.28-1.59,1.8-.9.875-1.59.846-2.523-.03-.5-.471-1-.95-1.5-1.423a1.759,1.759,0,0,0-.33-.105l-1.41,2.007-2.46-2.353c1.077-1.008,2.079-1.993,3.135-2.916a1.323,1.323,0,0,1,1.964.115c.569.575,1.076,1.212,1.846,2.089l1.2-1.874-3.948-6.415-3.224,6.343-2.6-1.286c1.493-2.974,2.907-5.88,4.411-8.74.612-1.163,1.921-1.042,2.7.209,2.293,3.68,4.558,7.377,6.834,11.068Z" transform="translate(-222.086 -158.272)" fill="#83433e"/>
        <path id="Trazado_1327899" data-name="Trazado 1327899" d="M1070.313,806.339c-1.3-1.353-2.7-2.71-3.986-4.17a3.131,3.131,0,0,0-2.86-1.158,29.865,29.865,0,0,1-3.286.013c-1.191-.029-1.695-.529-1.718-1.718-.026-1.329-.006-2.658-.006-4.083h-2.852V792.3c1.515,0,3.007-.065,4.491.024.927.055,1.257.791,1.264,1.652.011,1.329,0,2.657,0,4.119,1.414,0,2.7-.052,3.987.025a4.937,4.937,0,0,1,1.54.542c.173.075.293.274.436.418l5.259,5.254Z" transform="translate(-226.388 -217.137)" fill="#83433e"/>
        <path id="Trazado_1327900" data-name="Trazado 1327900" d="M1071.491,578.22h-2.751c-.092-.377-.166-.726-.264-1.069a4.373,4.373,0,0,0-5.157-3.193,4.428,4.428,0,0,0-3.446,4.771c.177,2.052-.161,2.426-2.209,2.434-.681,0-1.362,0-2.122,0v-2.831l1.257-.107c1.134-5.174,4.005-7.668,8.285-7.241A7.281,7.281,0,0,1,1071.491,578.22Z" transform="translate(-226.339 -49.728)" fill="#83433e"/>
        <path id="Trazado_1327901" data-name="Trazado 1327901" d="M887.1,601.064v2.859h-2.83v4.286h-2.959c0-1.944-.039-3.842.017-5.737a1.351,1.351,0,0,1,1.5-1.408Z" transform="translate(-94.55 -72.515)" fill="#83433e"/>
        <path id="Trazado_1327902" data-name="Trazado 1327902" d="M881.3,726.569h2.859v4.189l1.432.214v2.816a15.717,15.717,0,0,1-3.079-.061,1.839,1.839,0,0,1-1.156-1.295C881.225,730.505,881.3,728.565,881.3,726.569Z" transform="translate(-94.536 -167.441)" fill="#83433e"/>
        <path id="Trazado_1327903" data-name="Trazado 1327903" d="M969.619,792.162v2.827l-1.381.14v2.736h-2.915a36.409,36.409,0,0,1,.062-4.373,1.987,1.987,0,0,1,1.3-1.272A13.62,13.62,0,0,1,969.619,792.162Z" transform="translate(-158.075 -217.013)" fill="#83433e"/>
        <path id="Trazado_1327904" data-name="Trazado 1327904" d="M1005.876,604.053h-4.184V601.3h4.184Z" transform="translate(-185.61 -72.694)" fill="#83433e"/>
        <path id="Trazado_1327905" data-name="Trazado 1327905" d="M1013.567,792.516h2.793v2.766h-2.793Z" transform="translate(-194.591 -217.32)" fill="#83433e"/>
      </g>
    </g>
  </g>
</svg>
