<svg xmlns="http://www.w3.org/2000/svg" xmlns:xlink="http://www.w3.org/1999/xlink" width="251.634" height="218.631" viewBox="0 0 251.634 218.631">
  <defs>
    <clipPath id="clip-path">
      <rect id="SVGID" width="251.634" height="218.631" fill="none"/>
    </clipPath>
  </defs>
  <g id="Grupo_1207682" data-name="Grupo 1207682" transform="translate(0 -56.906)">
    <g id="Grupo_1207681" data-name="Grupo 1207681" transform="translate(0 56.906)" clip-path="url(#clip-path)">
      <g id="Grupo_1207680" data-name="Grupo 1207680" transform="translate(-136.866 10.718)">
        <g id="Grupo_1207627" data-name="Grupo 1207627" transform="translate(43.39 202.324)">
          <path id="Trazado_1328080" data-name="Trazado 1328080" d="M-148.941,734.05c-.425,2.517-36.375,42.063-56.644,64.189a17.6,17.6,0,0,1-13.323,5.714,17.628,17.628,0,0,1-13.1-6.215l-51.5-60.691,15.4-19.093,45.065,40.61,42.127-55.515S-148.346,730.542-148.941,734.05Z" transform="translate(283.505 -703.048)" fill="#ce876c" fill-rule="evenodd"/>
        </g>
        <g id="Grupo_1207628" data-name="Grupo 1207628" transform="translate(209.75 225.85)">
          <path id="Trazado_1328081" data-name="Trazado 1328081" d="M275.523,905.649,260.066,774.4l-39.014,9.693,30.57,131.263Z" transform="translate(-221.052 -774.402)" fill="#ce876c" fill-rule="evenodd"/>
        </g>
        <g id="Grupo_1207629" data-name="Grupo 1207629" transform="translate(180.637 142.823)">
          <path id="Trazado_1328082" data-name="Trazado 1328082" d="M182.464,530.937c-13.6-22.753-58.594,5.525-48.151,30.644,8.046,19.35,24.647,88.458,24.647,88.458l63.308,2.62S206.973,558.716,182.464,530.937Z" transform="translate(-132.755 -522.586)" fill="#f0c660" fill-rule="evenodd"/>
        </g>
        <g id="Grupo_1207630" data-name="Grupo 1207630" transform="translate(110.154 158.971)">
          <path id="Trazado_1328083" data-name="Trazado 1328083" d="M29.954,608.807c14.72-22.053-30.125-50.559-48.337-30.349-14.023,15.567-62.633,65.881-62.633,65.881l45.274,45.667S18.752,625.6,29.954,608.807Z" transform="translate(81.016 -571.562)" fill="#f0c660" fill-rule="evenodd"/>
        </g>
        <g id="Grupo_1207631" data-name="Grupo 1207631" transform="translate(196.017 222.083)">
          <path id="Trazado_1328084" data-name="Trazado 1328084" d="M183.67,784.832,179.4,769.188l21.42-6.209Z" transform="translate(-179.4 -762.978)" fill="#1a1a3d" fill-rule="evenodd"/>
        </g>
        <g id="Grupo_1207632" data-name="Grupo 1207632" transform="translate(237.527 353.908)">
          <path id="Trazado_1328085" data-name="Trazado 1328085" d="M305.3,1170.56l26.538-7.623c5.427-1.24,27.193,5.866,33.47,9.664l-54.891,15.771Z" transform="translate(-305.299 -1162.793)" fill="#1a1a3d" fill-rule="evenodd"/>
        </g>
        <g id="Grupo_1207633" data-name="Grupo 1207633" transform="translate(242.644 363.716)">
          <path id="Trazado_1328086" data-name="Trazado 1328086" d="M323.95,1219.216l-3.131-10.905,54.891-15.771,3.137,10.91-54.9,15.767" transform="translate(-320.818 -1192.54)" fill="#96dfd7" fill-rule="evenodd"/>
        </g>
        <g id="Grupo_1207634" data-name="Grupo 1207634" transform="translate(8.303 204.954)">
          <path id="Trazado_1328087" data-name="Trazado 1328087" d="M-337.417,723.669l-18.834,20.191c-4.016,3.855-26.337,8.96-33.673,8.933l38.955-41.765Z" transform="translate(389.924 -711.027)" fill="#1a1a3d" fill-rule="evenodd"/>
        </g>
        <g id="Grupo_1207635" data-name="Grupo 1207635" transform="translate(0 197.214)">
          <path id="Trazado_1328088" data-name="Trazado 1328088" d="M-376.144,687.552l8.3,7.74L-406.8,737.057l-8.3-7.741,38.961-41.764" transform="translate(415.105 -687.552)" fill="#96dfd7" fill-rule="evenodd"/>
        </g>
        <g id="Grupo_1207636" data-name="Grupo 1207636" transform="translate(180.514 36.938)">
          <path id="Trazado_1328089" data-name="Trazado 1328089" d="M209.41,216.87c-9.8-1.291-40.848-13.42-53.822-15.255-13.939-1.972-34.017,13.553-16.161,30.1s51,15.408,65.227,15.634,4.756-30.483,4.756-30.483" transform="translate(-132.382 -201.445)" fill="#f0c660" fill-rule="evenodd"/>
        </g>
        <g id="Grupo_1207637" data-name="Grupo 1207637" transform="translate(235.516 62.105)">
          <path id="Trazado_1328090" data-name="Trazado 1328090" d="M314.3,280.859s-11.337-5.7-14.031-1.605.547,5.054.547,5.054,4.581-3.587,12.313,1.437Z" transform="translate(-299.199 -277.775)" fill="#1a1a3d" fill-rule="evenodd"/>
        </g>
        <g id="Grupo_1207638" data-name="Grupo 1207638" transform="translate(154.671 63.624)">
          <path id="Trazado_1328091" data-name="Trazado 1328091" d="M121.876,295c-9.751-3.387-30.3-16.008-43.3-11.76s-13.524,20.729-10.557,31.7S52.6,338.259,54.089,354.854s16.714,23.63,34.61,19.9,34.625-2.384,42.774-27.369S131.627,298.391,121.876,295Z" transform="translate(-54.003 -282.381)" fill="#1a1a3d" fill-rule="evenodd"/>
        </g>
        <g id="Grupo_1207639" data-name="Grupo 1207639" transform="translate(158.473 71.38)">
          <path id="Trazado_1328092" data-name="Trazado 1328092" d="M130.321,305.98c21.6,1.576,45.739,7.849,56.71,14.212,10.335,5.992,4.882,34,3.288,41.2a9.57,9.57,0,0,1-1.341,3.12c-2.5,3.8-9.236,14.026-11.009,16.715a9.155,9.155,0,0,0-.745,1.368c-1.982,4.54-12.79,29.737-15.627,45.335L65.532,404.9l37.907-47.032S98.191,303.636,130.321,305.98Z" transform="translate(-65.532 -305.906)" fill="#3b4b68" fill-rule="evenodd"/>
        </g>
        <g id="Grupo_1207640" data-name="Grupo 1207640" transform="translate(247.234 85.838)">
          <path id="Trazado_1328093" data-name="Trazado 1328093" d="M334.739,369.456l12.267,31.3c14.564,4.177,32.074.222,42.507-4.739,0,0-4.732-48.224-24.2-46.205S334.739,369.456,334.739,369.456Z" transform="translate(-334.739 -349.754)" fill="#3b4b68" fill-rule="evenodd"/>
        </g>
        <g id="Grupo_1207641" data-name="Grupo 1207641" transform="translate(261.962 80.874)">
          <path id="Trazado_1328094" data-name="Trazado 1328094" d="M386.824,334.976s11.314,30.481-7.415,55.142c0,0,16.383-9.8,19.306-15.331s4.761-28.451-1.016-35.126S386.824,334.976,386.824,334.976Z" transform="translate(-379.409 -334.698)" fill="#1a1a3d" fill-rule="evenodd"/>
        </g>
        <g id="Grupo_1207642" data-name="Grupo 1207642" transform="translate(259.674 76.729)">
          <circle id="Elipse_13815" data-name="Elipse 13815" cx="9.403" cy="9.403" r="9.403" transform="translate(0 18.458) rotate(-78.968)" fill="#1a1a3d"/>
        </g>
        <g id="Grupo_1207643" data-name="Grupo 1207643" transform="translate(187.106 71.222)">
          <path id="Trazado_1328095" data-name="Trazado 1328095" d="M189.061,305.8a41.3,41.3,0,0,1,19.176,1.958s8.924,13.194-.734,35.335c-7.218,16.548-28.055,28.3-55.129,23.353l4.226-4.613s36.1-4.7,40.752-30.666S189.061,305.8,189.061,305.8Z" transform="translate(-152.374 -305.427)" fill="#1a1a3d" fill-rule="evenodd"/>
        </g>
        <g id="Grupo_1207644" data-name="Grupo 1207644" transform="translate(245.145 51.469)">
          <path id="Trazado_1328096" data-name="Trazado 1328096" d="M355.37,263.8l-2.76,11.515a12.268,12.268,0,0,1-14.788,9.073l-.007,0a12.268,12.268,0,0,1-9.068-14.792l5.771-24.075Z" transform="translate(-328.405 -245.517)" fill="#ce876c" fill-rule="evenodd"/>
        </g>
        <g id="Grupo_1207645" data-name="Grupo 1207645" transform="translate(233.959 63.584)">
          <path id="Trazado_1328097" data-name="Trazado 1328097" d="M307.87,297.5s-12.4-8.892-10.763-15.237c0,0-1.131.316-2.446,4.336s4.653,12.1,11.269,16.062Z" transform="translate(-294.476 -282.259)" fill="#e4841f" fill-rule="evenodd"/>
        </g>
        <g id="Grupo_1207646" data-name="Grupo 1207646" transform="translate(235.578 69.744)">
          <circle id="Elipse_13816" data-name="Elipse 13816" cx="10.599" cy="10.599" r="10.599" transform="translate(0 20.828) rotate(-79.267)" fill="#1a1a3d"/>
        </g>
        <g id="Grupo_1207647" data-name="Grupo 1207647" transform="translate(235.569 71.997)">
          <circle id="Elipse_13817" data-name="Elipse 13817" cx="9.403" cy="9.403" r="9.403" transform="translate(0 18.747) rotate(-85.472)" fill="#e4841f"/>
        </g>
        <g id="Grupo_1207648" data-name="Grupo 1207648" transform="translate(255.735 60.322)">
          <path id="Trazado_1328098" data-name="Trazado 1328098" d="M374.277,292.726l1.756-7.325-15.51-13.036S360.567,288.409,374.277,292.726Z" transform="translate(-360.522 -272.365)" fill="#1a1a3d" fill-rule="evenodd"/>
        </g>
        <g id="Grupo_1207649" data-name="Grupo 1207649" transform="translate(240.045 38.645)">
          <path id="Trazado_1328099" data-name="Trazado 1328099" d="M319.822,206.776a5.583,5.583,0,1,0,4.13,6.731A5.585,5.585,0,0,0,319.822,206.776Z" transform="translate(-312.935 -206.621)" fill="#1a1a3d" fill-rule="evenodd"/>
        </g>
        <g id="Grupo_1207650" data-name="Grupo 1207650" transform="translate(243.677 49.061)">
          <path id="Trazado_1328100" data-name="Trazado 1328100" d="M328.588,238.317a3.761,3.761,0,1,0,2.781,4.534A3.76,3.76,0,0,0,328.588,238.317Z" transform="translate(-323.95 -238.213)" fill="#1a1a3d" fill-rule="evenodd"/>
        </g>
        <g id="Grupo_1207651" data-name="Grupo 1207651" transform="translate(237.471 10.838)">
          <path id="Trazado_1328101" data-name="Trazado 1328101" d="M320.461,137.672c4.4-10.964,11.942-18.1,27.369-14.4,19.984,4.79,21.546,20.248,17.133,38.661s-15.74,26.124-28.437,23.08c-12.344-2.959-22.956-14.944-20.678-30.011a9.627,9.627,0,1,1,4.614-17.326Z" transform="translate(-305.13 -122.284)" fill="#ce876c" fill-rule="evenodd"/>
        </g>
        <g id="Grupo_1207652" data-name="Grupo 1207652" transform="translate(245.452)">
          <path id="Trazado_1328102" data-name="Trazado 1328102" d="M384.046,111.979s.06-.68.094-1.8a19.777,19.777,0,0,0-18.2-20.491c-6.774-.559-15.507-.459-23.554,2.064a17.134,17.134,0,0,0-11.424,12.03,41.01,41.01,0,0,0-1.628,10.125,15.454,15.454,0,0,1,7.35,1.73S359.09,108.556,384.046,111.979Z" transform="translate(-329.334 -89.414)" fill="#f0c660" fill-rule="evenodd"/>
        </g>
        <g id="Grupo_1207653" data-name="Grupo 1207653" transform="translate(252.802 19.619)">
          <path id="Trazado_1328103" data-name="Trazado 1328103" d="M351.628,155.524s41.6-13.2,66.473-2.289-21.285,23.678-21.285,23.678a57.759,57.759,0,0,0,.954-15.35,6.644,6.644,0,0,0-5.022-5.943C384.718,153.679,367.126,150.549,351.628,155.524Z" transform="translate(-351.628 -148.918)" fill="#1a1a3d" fill-rule="evenodd"/>
        </g>
        <g id="Grupo_1207654" data-name="Grupo 1207654" transform="translate(242.308 28.322)">
          <path id="Trazado_1328104" data-name="Trazado 1328104" d="M320.061,180.824a.341.341,0,0,1-.252-.411c1.367-5.7,6.146-5.084,6.194-5.077a.345.345,0,0,1,.289.385.341.341,0,0,1-.385.29c-.171-.023-4.216-.524-5.434,4.56A.341.341,0,0,1,320.061,180.824Z" transform="translate(-319.799 -175.313)" fill="#1a1a3d"/>
        </g>
        <g id="Grupo_1207655" data-name="Grupo 1207655" transform="translate(254.496 42.242)">
          <path id="Trazado_1328105" data-name="Trazado 1328105" d="M364.266,217.7a6.085,6.085,0,1,1-7.334,4.5A6.09,6.09,0,0,1,364.266,217.7Z" transform="translate(-356.764 -217.532)" fill="#cc7b62" fill-rule="evenodd"/>
        </g>
        <g id="Grupo_1207656" data-name="Grupo 1207656" transform="translate(287.165 50.504)">
          <path id="Trazado_1328106" data-name="Trazado 1328106" d="M461.9,253.6a5.519,5.519,0,1,1,3.606-9.147A43.693,43.693,0,0,1,461.9,253.6Z" transform="translate(-455.849 -242.588)" fill="#cc7b62" fill-rule="evenodd"/>
        </g>
        <g id="Grupo_1207657" data-name="Grupo 1207657" transform="translate(269.364 36.729)">
          <path id="Trazado_1328107" data-name="Trazado 1328107" d="M404.944,200.843c1.108.266,1.622,2.128,1.136,4.155s-1.787,3.454-2.9,3.188-1.628-2.13-1.143-4.156S403.829,200.575,404.944,200.843Z" transform="translate(-401.858 -200.81)" fill="#1a1a3d" fill-rule="evenodd"/>
        </g>
        <g id="Grupo_1207658" data-name="Grupo 1207658" transform="translate(287.173 40.996)">
          <path id="Trazado_1328108" data-name="Trazado 1328108" d="M458.952,213.784c1.115.267,1.628,2.13,1.142,4.157s-1.787,3.454-2.9,3.186-1.622-2.128-1.136-4.154S457.844,213.519,458.952,213.784Z" transform="translate(-455.873 -213.752)" fill="#1a1a3d" fill-rule="evenodd"/>
        </g>
        <g id="Grupo_1207659" data-name="Grupo 1207659" transform="translate(268.333 51.815)">
          <path id="Trazado_1328109" data-name="Trazado 1328109" d="M399.241,246.565l15.787,3.784s-2.819,8.642-10.743,6.743S399.241,246.565,399.241,246.565Z" transform="translate(-398.733 -246.565)" fill="#fff" fill-rule="evenodd"/>
        </g>
        <g id="Grupo_1207660" data-name="Grupo 1207660" transform="translate(277.176 42.686)">
          <path id="Trazado_1328110" data-name="Trazado 1328110" d="M426.081,226.994c-.134-.032-.231-.058-.28-.072a.341.341,0,0,1-.238-.42.318.318,0,0,1,.419-.238c.982.264,3.678.744,4.394-.278.842-1.2-.714-2.841-.73-2.857a.341.341,0,0,1-.086-.316l.88-3.671a.341.341,0,1,1,.664.159l-.838,3.5c.422.494,1.667,2.157.67,3.58C429.953,227.781,427.049,227.226,426.081,226.994Z" transform="translate(-425.55 -218.879)" fill="#1a1a3d"/>
        </g>
        <g id="Grupo_1207661" data-name="Grupo 1207661" transform="translate(266.479 31.052)">
          <path id="Trazado_1328111" data-name="Trazado 1328111" d="M393.369,185.955a.329.329,0,0,1-.126-.06.34.34,0,0,1-.067-.476c.029-.038,2.886-3.707,8.316-.533a.342.342,0,0,1-.345.59c-4.889-2.861-7.325.222-7.426.354A.341.341,0,0,1,393.369,185.955Z" transform="translate(-393.107 -183.594)" fill="#1a1a3d"/>
        </g>
        <g id="Grupo_1207662" data-name="Grupo 1207662" transform="translate(287.628 35.46)">
          <path id="Trazado_1328112" data-name="Trazado 1328112" d="M464.33,201.618a.342.342,0,0,1-.257-.27c-.03-.165-.8-4.017-6.459-3.683a.342.342,0,0,1-.04-.682c6.277-.369,7.162,4.2,7.171,4.245a.34.34,0,0,1-.275.395A.337.337,0,0,1,464.33,201.618Z" transform="translate(-457.253 -196.961)" fill="#1a1a3d"/>
        </g>
        <g id="Grupo_1207663" data-name="Grupo 1207663" transform="translate(212.063 126)">
          <path id="Trazado_1328113" data-name="Trazado 1328113" d="M228.329,499.109a.342.342,0,0,1-.115-.612l38.575-26.872a.341.341,0,1,1,.39.56L228.6,499.056A.342.342,0,0,1,228.329,499.109Z" transform="translate(-228.068 -471.563)" fill="#1a1a3d"/>
        </g>
        <g id="Grupo_1207664" data-name="Grupo 1207664" transform="translate(235.682 143.449)">
          <path id="Trazado_1328114" data-name="Trazado 1328114" d="M299.963,537.135a.341.341,0,0,1-.157-.578l12.415-11.977a.341.341,0,1,1,.474.491L300.28,537.048A.341.341,0,0,1,299.963,537.135Z" transform="translate(-299.702 -524.484)" fill="#1a1a3d"/>
        </g>
        <g id="Grupo_1207665" data-name="Grupo 1207665" transform="translate(264.409 117.174)">
          <path id="Trazado_1328115" data-name="Trazado 1328115" d="M417.063,444.794l18.445,45.261,11.967-7.02,6.776,6.785,7.367-10.935,4.935-11.7s8.815,10.776,9.167,13.4c.614,4.62-2.994,11.057-4.668,13.059-12.686,15.186-27.283,8.091-58.889,16.307a8.621,8.621,0,0,1-10.391-5.761c-4.85-15.366-14.943-47.432-14.943-47.432Z" transform="translate(-386.829 -444.794)" fill="#ce876c" fill-rule="evenodd"/>
        </g>
        <g id="Grupo_1207666" data-name="Grupo 1207666" transform="translate(250.24 24.347)">
          <path id="Trazado_1328116" data-name="Trazado 1328116" d="M346.132,165.173s-4.4,8.472-.957,9.373,7.628-11.29,7.628-11.29Z" transform="translate(-343.857 -163.256)" fill="#1a1a3d" fill-rule="evenodd"/>
        </g>
        <g id="Grupo_1207667" data-name="Grupo 1207667" transform="translate(250.776 83.625)">
          <path id="Trazado_1328117" data-name="Trazado 1328117" d="M345.482,426.429l6.962-83.387,37.912,30.293,24.088-7.015,14.614,15.217,19.562-16.125,31.33,18.24-31.694,60.872-12.465-11.746-16.267,12.28-13.22-19.535-29.414,12.791Z" transform="translate(-345.482 -343.043)" fill="#e4841f" fill-rule="evenodd"/>
        </g>
        <g id="Grupo_1207668" data-name="Grupo 1207668" transform="translate(311.6 106.903)">
          <path id="Trazado_1328118" data-name="Trazado 1328118" d="M552.71,428.859l-9.533,63.52-13.22-19.535,8.139-59.2Z" transform="translate(-529.957 -413.642)" fill="#f0c660" fill-rule="evenodd"/>
        </g>
        <g id="Grupo_1207669" data-name="Grupo 1207669" transform="translate(341.087 105.994)">
          <path id="Trazado_1328119" data-name="Trazado 1328119" d="M619.391,478.253l12.828-67.366,31.33,18.24L631.855,490Z" transform="translate(-619.391 -410.887)" fill="#f0c660" fill-rule="evenodd"/>
        </g>
        <g id="Grupo_1207670" data-name="Grupo 1207670" transform="translate(250.776 83.625)">
          <path id="Trazado_1328120" data-name="Trazado 1328120" d="M376.892,438.314l13.465-64.979-37.912-30.293-6.962,83.387Z" transform="translate(-345.482 -343.043)" fill="#f0c660" fill-rule="evenodd"/>
        </g>
        <g id="Grupo_1207671" data-name="Grupo 1207671" transform="translate(160.927 104.411)">
          <path id="Trazado_1328121" data-name="Trazado 1328121" d="M126.806,419.278l-15.472,27.36,38.118,11.036,14.884-9.656-.1,9.588,12.962-2.4,8.562-3.389a2.067,2.067,0,0,1,2.814,2.2c-.564,4.247-1.612,11.034-2.713,12.447-2.867,3.679-9.988,5.609-12.587,5.818-19.582,1.569-61.581,3.117-94.971-10.836A8.634,8.634,0,0,1,74,449.4c7.685-14.427,23.09-43.312,23.09-43.312Z" transform="translate(-72.976 -406.086)" fill="#ce876c" fill-rule="evenodd"/>
        </g>
        <g id="Grupo_1207672" data-name="Grupo 1207672" transform="translate(345.754 152.846)">
          <path id="Trazado_1328122" data-name="Trazado 1328122" d="M644.029,576.97c11.133,4.647,9.395-14.931,9.395-14.931l-8.065-2.537s-4.657-3.766-7.578-6.125a1.755,1.755,0,0,0-2.833,1.061c-.725,4.157-1.865,11.478-1.207,13.229C635.382,572.031,641.618,575.964,644.029,576.97Z" transform="translate(-633.543 -552.987)" fill="#ce876c" fill-rule="evenodd"/>
        </g>
        <g id="Grupo_1207673" data-name="Grupo 1207673" transform="translate(168.604 70.412)">
          <path id="Trazado_1328123" data-name="Trazado 1328123" d="M156.994,308.215c9.835,6.214-3.17,28.871-12.92,49.719L96.261,345.567S120.511,285.159,156.994,308.215Z" transform="translate(-96.261 -302.969)" fill="#3b4b68" fill-rule="evenodd"/>
        </g>
        <g id="Grupo_1207674" data-name="Grupo 1207674" transform="translate(258.715 152.588)">
          <path id="Trazado_1328124" data-name="Trazado 1328124" d="M369.834,558.767a.356.356,0,0,1,.041-.7l8.258-.986,8.989-4.836a.356.356,0,0,1,.338.627l-9.049,4.869a.35.35,0,0,1-.126.04l-8.325.993A.345.345,0,0,1,369.834,558.767Z" transform="translate(-369.561 -552.203)" fill="#0d0d0d"/>
        </g>
        <g id="Grupo_1207675" data-name="Grupo 1207675" transform="translate(346.608 155.084)">
          <path id="Trazado_1328125" data-name="Trazado 1328125" d="M648.134,569.194a.337.337,0,0,1-.09-.035l-4.295-2.375a.33.33,0,0,1-.059-.041L636.26,560.4a.356.356,0,0,1,.463-.541l7.4,6.321,4.263,2.358a.356.356,0,0,1-.255.658Z" transform="translate(-636.135 -559.772)" fill="#0d0d0d"/>
        </g>
        <g id="Grupo_1207676" data-name="Grupo 1207676" transform="translate(260.013 158.261)">
          <path id="Trazado_1328126" data-name="Trazado 1328126" d="M373.771,573.687a.356.356,0,0,1,.031-.7l7.95-1.171,6.773-2.388a.356.356,0,1,1,.236.672l-6.84,2.4-8.016,1.188A.353.353,0,0,1,373.771,573.687Z" transform="translate(-373.497 -569.408)" fill="#0d0d0d"/>
        </g>
        <g id="Grupo_1207677" data-name="Grupo 1207677" transform="translate(346.149 160.883)">
          <path id="Trazado_1328127" data-name="Trazado 1328127" d="M645.523,584.619a.339.339,0,0,1-.07-.025l-4.69-2.222L634.885,578a.356.356,0,0,1,.425-.572l5.818,4.333,4.63,2.186a.356.356,0,0,1-.235.668Z" transform="translate(-634.741 -577.362)" fill="#0d0d0d"/>
        </g>
        <g id="Grupo_1207678" data-name="Grupo 1207678" transform="translate(260.646 161.281)">
          <path id="Trazado_1328128" data-name="Trazado 1328128" d="M375.689,583.054a.356.356,0,0,1,.058-.7l6.731-.476,7.083-3.277a.356.356,0,0,1,.3.647l-7.143,3.3a.354.354,0,0,1-.125.032l-6.8.481A.365.365,0,0,1,375.689,583.054Z" transform="translate(-375.416 -578.567)" fill="#0d0d0d"/>
        </g>
        <g id="Grupo_1207679" data-name="Grupo 1207679" transform="translate(345.457 163.829)">
          <path id="Trazado_1328129" data-name="Trazado 1328129" d="M645.1,594.765a.355.355,0,0,1-.047-.015l-6.341-2.483a.339.339,0,0,1-.109-.068l-5.84-5.282a.356.356,0,1,1,.478-.528l5.791,5.239,6.281,2.459a.356.356,0,0,1-.212.678Z" transform="translate(-632.643 -586.297)" fill="#0d0d0d"/>
        </g>
      </g>
    </g>
  </g>
</svg>
