<svg xmlns="http://www.w3.org/2000/svg" width="104" height="125.234" viewBox="0 0 104 125.234">
  <g id="Grupo_1207855" data-name="Grupo 1207855" transform="translate(8201.965 8253)">
    <g id="Grupo_1207597" data-name="Grupo 1207597">
      <circle id="Elipse_13777" data-name="Elipse 13777" cx="52" cy="52" r="52" transform="translate(-8201.965 -8253)" fill="#fbe49d"/>
      <g id="Grupo_1207590" data-name="Grupo 1207590" transform="translate(-9029.675 -8746.793)">
        <path id="Trazado_1327915" data-name="Trazado 1327915" d="M1024.349,593.1c0-4.118,0-8.163,0-12.208,0-3.874,1.957-5.839,5.843-5.846q10.2-.017,20.4,0c3.932.007,5.838,1.914,5.846,5.826.007,4.046,0,8.093,0,12.161a16.012,16.012,0,0,1,2.622.646,7.162,7.162,0,0,1,4.658,6.861q.1,21.728.011,43.457a7.294,7.294,0,0,1-7.6,7.422q-15.72.017-31.44,0a7.354,7.354,0,0,1-7.634-7.541q-.059-21.589,0-43.178C1017.07,596.593,1019.719,593.857,1024.349,593.1Zm36.946,29.28q0-10.544,0-21.088c-.006-3.735-1.967-5.713-5.649-5.715q-15.292-.007-30.585,0c-3.5,0-5.5,1.916-5.51,5.413-.028,14.2.015,28.4-.035,42.6a5.253,5.253,0,0,0,5.523,5.434c10.146-.143,20.3-.049,30.445-.05,3.969,0,5.808-1.82,5.813-5.781Q1061.3,632.788,1061.3,622.384Zm-29.908-29.3h18.787V581.345h-18.787Zm-2.563.047c0-3.959-.009-7.771,0-11.584.006-1.886.731-2.677,2.586-2.685q9.355-.039,18.709,0c1.846.008,2.492.717,2.5,2.586.015,3.537-.015,7.075.033,10.611.005.379.4.752.613,1.128.237-.351.675-.7.679-1.054q.073-5.933.02-11.867a2.506,2.506,0,0,0-2.666-2.766q-10.89-.066-21.781,0a2.46,2.46,0,0,0-2.646,2.764c-.026,4.1-.007,8.191,0,12.287a3.529,3.529,0,0,0,.106.579Z" transform="translate(-134.618 -33.799)" fill="#83433e" stroke="#83433e" stroke-width="0.5"/>
        <path id="Trazado_1327916" data-name="Trazado 1327916" d="M864.648,553.347c-2.629,1.477-5.213,2.927-7.795,4.38-2.756,1.552-5.5,3.118-8.27,4.656-2.684,1.493-4.867,1.121-6.846-1.168q-5.3-6.128-10.569-12.278c-1.472-1.715-1.289-2.787.648-3.884,1.619-.917,3.295-1.742,4.859-2.744a2.71,2.71,0,0,1,3.645.26c2.324,1.935,4.765,3.728,7.125,5.621a1.448,1.448,0,0,0,1.965.15c2.77-1.7,5.6-3.3,8.594-5.049-.438-.414-.778-.757-1.14-1.074q-4.515-3.96-9.035-7.914c-1.328-1.167-1.257-1.917.256-2.768,1.905-1.071,3.788-2.193,5.753-3.144a2.873,2.873,0,0,1,2.164-.084q6.979,3.185,13.864,6.576a2.55,2.55,0,0,0,2.8-.154c2.886-1.788,5.785-3.573,8.788-5.152,3.863-2.032,7.762-1.615,11.423.571a4.689,4.689,0,0,1,2.309,4.229,3.454,3.454,0,0,1-2.1,2.915c-4.266,2.378-8.5,4.808-12.777,7.173A2.153,2.153,0,0,0,879.1,546.3c-.806,6.275-1.651,12.545-2.571,18.8a2.769,2.769,0,0,1-1.2,1.674c-1.812,1.133-3.715,2.12-5.588,3.155-1.651.912-2.357.552-2.642-1.313q-1.125-7.38-2.266-14.758A3.689,3.689,0,0,0,864.648,553.347Zm-31.726-6.113c3.624,4.212,7.108,8.274,10.608,12.322,1.311,1.516,2.139,1.673,3.9.689,5.277-2.954,10.528-5.955,15.818-8.886a1.484,1.484,0,0,0,.913-1.971c-.236-.841-.388-1.75.651-2.319,4.364-2.392,8.708-4.823,13.079-7.2,1.052-.573,1.818-.079,1.9,1.118a7.792,7.792,0,0,1-.061.934c.472-.222.807-.355,1.118-.53q5.35-3.015,10.693-6.042c1.456-.826,1.563-1.268.552-2.6a3.02,3.02,0,0,0-1.151-.977c-2.9-1.2-5.776-1.6-8.689.117q-15.869,9.357-31.787,18.631a3.309,3.309,0,0,1-4.351-.3c-2.315-1.8-4.607-3.63-6.947-5.4a1.606,1.606,0,0,0-1.331-.3C836.215,545.327,834.661,546.257,832.922,547.233Zm36.491,20.074c1.307-.712,2.468-1.391,3.671-1.985a2.2,2.2,0,0,0,1.279-1.951c.488-4.016,1.065-8.02,1.6-12.03.355-2.658.7-5.318,1.079-8.257l-10.467,5.805c.477,3.182.914,6.171,1.374,9.157C868.419,561.078,868.908,564.107,869.413,567.307ZM850.221,533.15c3.269,2.865,6.361,5.609,9.513,8.281a1.61,1.61,0,0,0,1.424-.028c1.8-.971,3.545-2.04,5.308-3.078.688-.405,1.37-.821,2.224-1.333-4.5-2.139-8.724-4.17-12.979-6.144a1.842,1.842,0,0,0-1.405.039C852.976,531.543,851.7,532.316,850.221,533.15Z" fill="#83433e" stroke="#83433e" stroke-width="0.5"/>
        <path id="Trazado_1327917" data-name="Trazado 1327917" d="M886.573,702.817c.379,1.881.734,3.6,1.072,5.323a4.765,4.765,0,0,1-3.463,5.581q-2.977.743-5.988,1.347a4.7,4.7,0,0,1-5.705-3.635c-.26-1.036-.5-2.08-.694-3.131a4.572,4.572,0,0,1,3.5-5.511c2.25-.577,4.533-1.03,6.8-1.543.448-.1.891-.227,1.5-.383-.656-2.947-1.282-5.834-1.969-8.707-.053-.221-.53-.463-.826-.485-8.887-.65-14.465-5.658-16.153-14.532-.391-2.058-.391-2.058,1.014-3.014-.136-.677-.276-1.36-.409-2.044-.511-2.617.044-3.753,2.408-4.945.2-.1.537-.213.546-.338.136-1.942,1.8-1.637,2.939-1.906a2.51,2.51,0,0,1,3.133,2.2,2.6,2.6,0,0,1-2.037,3.273c-2.361.62-2.574.566-3.55-.908-1.613.329-1.373,1.27-.522,4.234,1.608-.331,2.065.684,2.255,2.023a12.071,12.071,0,0,0,3.8,7.566c4.762,4.313,10.9,2.728,13.019-3.352a12.242,12.242,0,0,0,.17-7.406c-.643-2.395-.555-2.49.975-3.347-.156-2.9-.56-3.6-2.085-3.612a3.49,3.49,0,0,1-4.109,2.372,2.9,2.9,0,0,1-2.176-3.016,2.292,2.292,0,0,1,1.93-2.4c1.2-.195,2.6-1.336,3.565.5.068.128.51.084.776.079,2.309-.051,3.5.875,4.065,3.159.188.766.383,1.531.6,2.384,1.513-.169,1.848.789,2.171,2.054a17.9,17.9,0,0,1-1.435,13.659,14.267,14.267,0,0,1-7.753,6.734L886,700.409c1.7-.353,3.336-.63,4.929-1.076.339-.1.659-.783.729-1.237a7.029,7.029,0,0,1,5.814-5.981,6.917,6.917,0,0,1,7.387,3.844,7.009,7.009,0,0,1-2.7,9.013A6.875,6.875,0,0,1,892.975,703a1.963,1.963,0,0,0-2.68-.982C889.116,702.386,887.872,702.547,886.573,702.817Zm-2.421.463c-2.989.68-5.85,1.251-8.66,2.011a2.014,2.014,0,0,0-1.33,2.482c.156.962.4,1.911.619,2.861a2.362,2.362,0,0,0,3.1,1.993q2.667-.53,5.315-1.151a2.389,2.389,0,0,0,1.986-3.11C884.879,706.767,884.538,705.177,884.152,703.279Zm6.38-26.946a37.74,37.74,0,0,1-1.237,4.926c-2.78,7.2-10.454,9.112-16.348,4.134a13.649,13.649,0,0,1-4.7-8.019c-.069-.352-.458-.642-.7-.96-.106.389-.359.8-.294,1.163A14.282,14.282,0,0,0,872.07,686c4.007,3.5,8.919,4.2,13.014,1.857,4.939-2.826,7.651-9.985,5.741-16.005-.061-.192-.362-.308-.552-.459-.141.286-.429.59-.4.855C890.026,673.487,890.263,674.717,890.533,676.333Zm8.134,27.148a4.515,4.515,0,1,0-4.646-4.44A4.593,4.593,0,0,0,898.667,703.481Z" transform="translate(-24.659 -96.448)" fill="#83433e" stroke="#83433e" stroke-width="0.5"/>
        <path id="Trazado_1327918" data-name="Trazado 1327918" d="M1038.11,701.981c-1-6.926-.144-9.686,3.482-11.372,3.355-1.56,6.352-.767,9.361,2.539a7.2,7.2,0,0,1,4.837-3.177,7.667,7.667,0,0,1,4.864.848c3.452,1.929,4.254,4.788,3.046,11.162,1.585,0,3.132.009,4.679,0,.879-.007,1.834.006,1.856,1.154.024,1.237-.987,1.271-1.907,1.273-1.675,0-3.353-.049-5.024.036a1.9,1.9,0,0,0-1.316.722c-2.716,4.129-6.31,7.429-9.93,10.712a1.47,1.47,0,0,1-2.3-.026c-3.638-3.332-7.3-6.633-10-10.837a1.732,1.732,0,0,0-1.244-.579c-1.719-.066-3.442-.027-5.164-.029-.907,0-1.778-.159-1.723-1.31.051-1.07.9-1.126,1.746-1.118C1034.947,701.991,1036.52,701.981,1038.11,701.981Zm11.191,3.729,3.507-7.238c.824-1.7,1.62-1.792,2.865-.323.9,1.064,1.772,2.154,2.7,3.2a1.662,1.662,0,0,0,3.034-.643,14.731,14.731,0,0,0,.559-3.421,4.774,4.774,0,0,0-3.438-4.712,4.708,4.708,0,0,0-5.577,2.048c-.331.5-.578,1.063-.91,1.566-.662,1-1.541,1.011-2.211.017-.337-.5-.6-1.044-.919-1.559a4.485,4.485,0,0,0-4.74-2.22,4.586,4.586,0,0,0-4.057,3.336,6.728,6.728,0,0,0,.775,5.75c.394.618,2.193.342,3.352.47a1.738,1.738,0,0,0,.418,0,2.451,2.451,0,0,1,2.585,1.213A31.2,31.2,0,0,0,1049.3,705.71Zm1.628,8.157,8.6-9.021-.225-.34c-2.626.058-3.07-2.576-4.842-3.767-.286.562-.582,1.123-.86,1.693-.937,1.92-1.843,3.855-2.809,5.76-.671,1.323-1.485,1.4-2.444.269a24.339,24.339,0,0,1-2.257-2.834c-.891-1.445-2.109-1.351-3.755-.742Z" transform="translate(-145.133 -116.512)" fill="#83433e" stroke="#83433e" stroke-width="0.5"/>
        <path id="Trazado_1327919" data-name="Trazado 1327919" d="M979.657,786.673c-.269.207-.516.536-.814.594-.5.1-1.27.224-1.489-.034a1.837,1.837,0,0,1-.2-1.583,2.68,2.68,0,0,1,3.085-1.32A2.72,2.72,0,0,1,982.4,786.9a2.573,2.573,0,0,1-1.8,2.81c-.521.11-1.145-.269-1.722-.426a12.249,12.249,0,0,1,.467-1.582c.114-.263.432-.438.659-.652Z" transform="translate(-105.817 -184.54)" fill="#83433e" stroke="#83433e" stroke-width="0.5"/>
      </g>
    </g>
  </g>
</svg>
