<svg xmlns="http://www.w3.org/2000/svg" width="182.222" height="201.822" viewBox="0 0 182.222 201.822">
  <g id="Grupo_1207688" data-name="Grupo 1207688" transform="translate(-11.914 -104.684)">
    <path id="Trazado_1328130" data-name="Trazado 1328130" d="M23.437,381.3C15,384.141,10.424,389.2,12.352,404.384S32.233,413.3,32.233,413.3Z" transform="translate(0 -145.056)" fill="#2333a3"/>
    <path id="Trazado_1328131" data-name="Trazado 1328131" d="M72.015,369.337c-24.345,12.773-44.587,2.648-44.587,2.648s-.48-15.907-.96-40.965A189.272,189.272,0,0,1,27.852,302.5c.085-.636.176-1.257.268-1.864,1.462-9.673,3.813-16.747,6.778-20.235,5.543-6.517,19.628-14.142,51.817-11.269C86.715,269.127,96.353,356.565,72.015,369.337Z" transform="translate(-7.607 -85.908)" fill="#3752a4"/>
    <path id="Trazado_1328132" data-name="Trazado 1328132" d="M44.919,351.65a31.4,31.4,0,0,1-8.2,15.508,29.8,29.8,0,0,1-10.232,6.569c0,.3.008.594.014.894.48,25.058.96,40.965.96,40.965s20.242,10.125,44.587-2.648C85.337,405.967,88.5,376.75,88.63,351.65Z" transform="translate(-7.644 -129.51)" fill="#662d91" opacity="0.3" style="mix-blend-mode: multiply;isolation: isolate"/>
    <path id="Trazado_1328133" data-name="Trazado 1328133" d="M68.9,313.635l-.148.508a57.663,57.663,0,0,0-12.215-1.7c-10.252-.4-20.525,3.912-26.844,12.088l-.268.332c.085-.636.176-1.257.268-1.864C37.267,313.063,50.124,309.3,62.84,312A59.422,59.422,0,0,1,68.9,313.635Z" transform="translate(-9.185 -108.273)" fill="#121b1f"/>
    <path id="Trazado_1328134" data-name="Trazado 1328134" d="M89.832,220.486c-17.843,0-31.1-1.327-35.194,5.352S49.818,248.612,65,249.361s44.343-1.464,44.343-1.464Z" transform="translate(-21.078 -60.67)" fill="#6771c3"/>
    <path id="Trazado_1328135" data-name="Trazado 1328135" d="M104.345,250.848c-8.026-.032-16.074-.9-24.081-.125-.148.018-.3.034-.445.049-.378.039-.756.078-1.134.125l.43-.058a22.447,22.447,0,0,1-5.172-.139,19.22,19.22,0,0,1-11.8,11.731,14.159,14.159,0,0,0,8.119,2.675c15.182.75,44.343-1.464,44.343-1.464l-9.135-12.834C105.094,250.832,104.718,250.849,104.345,250.848Z" transform="translate(-26.341 -76.415)" fill="#662d91" opacity="0.3" style="mix-blend-mode: multiply;isolation: isolate"/>
    <g id="Grupo_1207687" data-name="Grupo 1207687" transform="translate(131.814 154.829)">
      <path id="Trazado_1328136" data-name="Trazado 1328136" d="M368.736,269.4c-1.32,6.538-2.972,12.1-4.957,15.512l-3.339-1.807-7.971-4.321,2.775-65.027s1.031.035,2.592.127a.152.152,0,0,0,.056.007c3.919.247,11.071.861,13.422,2.2C373.834,217.536,372.98,248.44,368.736,269.4Z" transform="translate(-310.402 -212.028)" fill="#fff"/>
      <g id="Grupo_1207683" data-name="Grupo 1207683" transform="translate(40.069 3.828)">
        <path id="Trazado_1328137" data-name="Trazado 1328137" d="M362.149,325.319q-6.408-.106-12.815-.219l-.176,4.145q6.8.064,13.606.148A29.369,29.369,0,0,1,362.149,325.319Z" transform="translate(-348.735 -274.244)" fill="#ede7db"/>
        <path id="Trazado_1328138" data-name="Trazado 1328138" d="M370.67,221.776a2.183,2.183,0,0,0-.678-1.271c-3.3-1.885-16.077-2.337-16.077-2.337l-.156,3.693Q362.212,221.617,370.67,221.776Z" transform="translate(-351.148 -218.168)" fill="#8cc63f"/>
        <path id="Trazado_1328139" data-name="Trazado 1328139" d="M351.656,296.272c1.335.2,2.669.431,4,.65-.028-.819-.057-1.645-.085-2.471-1.391-.283-2.775-.579-4.173-.861a.947.947,0,0,1-.678-.466l-.155,3.657A1.036,1.036,0,0,1,351.656,296.272Z" transform="translate(-349.475 -257.475)" fill="#39b54a"/>
        <path id="Trazado_1328140" data-name="Trazado 1328140" d="M380.022,302.121c1.221.24,2.436.48,3.657.734.092-.692.169-1.391.247-2.09-1.193-.268-2.387-.515-3.587-.77C380.213,300.7,380.107,301.409,380.022,302.121Z" transform="translate(-364.92 -261.079)" fill="#8cc63f"/>
        <path id="Trazado_1328141" data-name="Trazado 1328141" d="M384.455,245.513c.021.1.035.2.049.3.007.028.049.247.049.247.028.17.064.332.1.5.063.283.134.558.2.833.9.014,1.793.021,2.69.028q0-2.139-.049-4.024c-1.1-.014-2.2-.036-3.3-.057C384.257,244.073,384.342,244.793,384.455,245.513Z" transform="translate(-367.108 -231.371)" fill="#8cc63f"/>
        <path id="Trazado_1328142" data-name="Trazado 1328142" d="M365.526,243.03q-6.344-.106-12.687-.219l-.176,4.138,13.478.148A30.391,30.391,0,0,1,365.526,243.03Z" transform="translate(-350.572 -231.091)" fill="#ede7db"/>
        <path id="Trazado_1328143" data-name="Trazado 1328143" d="M370.806,230.147q-8.706-.169-17.418.085l-.162,3.785,17.941.311C371.082,232.71,370.962,231.3,370.806,230.147Z" transform="translate(-350.868 -224.415)" fill="#ede7db"/>
        <path id="Trazado_1328144" data-name="Trazado 1328144" d="M350.075,303.188l-.353,8.31,17.023.3c.283-1.687.536-3.417.777-5.168q-8.345-1.716-16.761-3.008A.907.907,0,0,1,350.075,303.188Z" transform="translate(-349.031 -262.753)" fill="#ede7db"/>
        <path id="Trazado_1328145" data-name="Trazado 1328145" d="M370.372,300.075c.092-.727.2-1.454.332-2.167q-2.563-.54-5.112-1.073l.078,2.387C367.237,299.489,368.8,299.778,370.372,300.075Z" transform="translate(-357.353 -259.421)" fill="#8cc63f"/>
        <path id="Trazado_1328146" data-name="Trazado 1328146" d="M381.219,327.817c.014.1.035.2.049.3.007.021.014.1.028.155,0,.021.007.035.007.057a.075.075,0,0,1,.007.035c.035.176.07.339.106.508.064.275.127.558.2.833.113,0,.219,0,.332.007.283-1.3.558-2.648.8-4.032-.6-.007-1.193-.021-1.793-.029C381.014,326.37,381.1,327.1,381.219,327.817Z" transform="translate(-365.41 -274.531)" fill="#ede7db"/>
        <path id="Trazado_1328147" data-name="Trazado 1328147" d="M348.268,346.16l12.13,3.17a43.119,43.119,0,0,0,3.926-10.915q-7.858-.085-15.717-.177Z" transform="translate(-348.268 -281.133)" fill="#ede7db"/>
        <path id="Trazado_1328148" data-name="Trazado 1328148" d="M351.43,269.474,351,279.592a.977.977,0,0,1,1.081-.473q8.44,1.694,16.867,3.509c.148-1.5.289-2.986.409-4.476l-16.147-3.495a1.059,1.059,0,0,1,.452-2.069l15.865,3.439q.148-1.928.254-3.806c-6.015-1.208-12.094-2.111-18.2-2.719A.91.91,0,0,1,351.43,269.474Z" transform="translate(-349.7 -245.073)" fill="#ede7db"/>
        <path id="Trazado_1328149" data-name="Trazado 1328149" d="M352.083,260.413a1.1,1.1,0,0,1,.508-.063q9,.89,17.87,2.648c.113-2.387.191-4.681.226-6.835q-9.2-.095-18.414-.2Z" transform="translate(-350.269 -237.989)" fill="#ede7db"/>
        <path id="Trazado_1328150" data-name="Trazado 1328150" d="M370.985,227.81a15.3,15.3,0,0,0-.416-2.125q-8.452-.159-16.91.085l-.092,2.125Q362.273,227.64,370.985,227.81Z" transform="translate(-351.047 -222.077)" fill="#fff"/>
        <path id="Trazado_1328151" data-name="Trazado 1328151" d="M368.221,244.783c-.063-.275-.134-.551-.2-.833-.035-.169-.071-.331-.1-.5,0,0-.042-.219-.049-.247-.014-.106-.028-.2-.049-.3-.113-.72-.2-1.44-.261-2.167,1.1.021,2.2.042,3.3.057q-.032-1.112-.085-2.118l-17.941-.311-.092,2.118q6.354.106,12.687.219a30.391,30.391,0,0,0,.615,4.067l-13.478-.148-.085,2.118q9.213.095,18.414.2c.007-.727.014-1.433.014-2.118C370.015,244.8,369.118,244.8,368.221,244.783Z" transform="translate(-350.479 -228.756)" fill="#fff"/>
        <path id="Trazado_1328152" data-name="Trazado 1328152" d="M349.241,322.772q6.408.106,12.815.219a29.368,29.368,0,0,0,.615,4.074q-6.8-.085-13.606-.148l-.085,2.1q7.859.1,15.717.177c.163-.685.325-1.384.48-2.1-.113-.007-.219-.007-.332-.007-.07-.275-.134-.558-.2-.833-.035-.169-.07-.332-.106-.508a.076.076,0,0,0-.007-.035c0-.021-.007-.035-.007-.057-.014-.057-.021-.134-.028-.155-.014-.1-.036-.2-.049-.3-.12-.72-.2-1.447-.262-2.168.6.007,1.193.021,1.793.029.127-.692.254-1.4.374-2.1l-17.023-.3Z" transform="translate(-348.641 -271.916)" fill="#fff"/>
        <path id="Trazado_1328153" data-name="Trazado 1328153" d="M351.99,265.239l-.085,1.977a.916.916,0,0,0,.148.028c6.107.607,12.186,1.511,18.2,2.719.042-.72.078-1.433.113-2.139q-8.854-1.759-17.87-2.648A1.1,1.1,0,0,0,351.99,265.239Z" transform="translate(-350.175 -242.816)" fill="#fff"/>
        <path id="Trazado_1328154" data-name="Trazado 1328154" d="M354.76,278.059l16.147,3.495c.063-.706.12-1.419.169-2.125l-15.865-3.439A1.059,1.059,0,0,0,354.76,278.059Z" transform="translate(-351.251 -248.476)" fill="#fff"/>
        <path id="Trazado_1328155" data-name="Trazado 1328155" d="M350.581,290.2a1.153,1.153,0,0,0-.049,1.13.947.947,0,0,0,.678.466c1.4.283,2.782.579,4.173.861.028.826.057,1.652.085,2.471-1.334-.219-2.669-.445-4-.65a1.035,1.035,0,0,0-1.087.508,1.153,1.153,0,0,0-.049,1.13.907.907,0,0,0,.685.431q8.419,1.292,16.761,3.008c.092-.692.184-1.391.268-2.1-1.221-.254-2.436-.494-3.657-.734.085-.713.191-1.419.318-2.125,1.2.254,2.394.5,3.587.77.085-.706.162-1.419.24-2.132q-8.42-1.811-16.867-3.509A.977.977,0,0,0,350.581,290.2Zm12.053,3.968c-.135.713-.24,1.44-.332,2.167-1.568-.3-3.135-.586-4.7-.854l-.078-2.387Q360.074,293.625,362.633,294.168Z" transform="translate(-349.282 -255.682)" fill="#fff"/>
      </g>
      <path id="Trazado_1328156" data-name="Trazado 1328156" d="M372.964,269.356c-1.32,6.538-2.972,12.1-4.957,15.512l-3.339-1.807c-2.3-4.4-4.138-8.9-4.138-8.9l1.532-60.325.007-.169a1.529,1.529,0,0,1,.049.176C362.825,216.226,370.429,242.336,372.964,269.356Z" transform="translate(-314.629 -211.982)" fill="#ede7db" style="mix-blend-mode: multiply;isolation: isolate"/>
      <g id="Grupo_1207685" data-name="Grupo 1207685" transform="translate(0 8.502)">
        <path id="Trazado_1328157" data-name="Trazado 1328157" d="M307.948,284.247l-1.546,2.81-2.45,4.463c-2.846-2.238-8.381-9.172-14.453-17.453-11.805-16.105-25.608-37.28-25.481-38.847.2-2.372,13.245-7.222,13.245-7.222Z" transform="translate(-264.017 -227.996)" fill="#fff"/>
        <g id="Grupo_1207684" data-name="Grupo 1207684" transform="translate(2.951 0.635)">
          <path id="Trazado_1328158" data-name="Trazado 1328158" d="M301.935,273.12c.219.7.409,1.4.579,2.118,1.709-.367,3.41-.727,5.112-1.094L306.588,272C305.042,272.386,303.488,272.753,301.935,273.12Z" transform="translate(-286.853 -251.706)" fill="#ede7db"/>
          <path id="Trazado_1328159" data-name="Trazado 1328159" d="M331.849,312.9q-5.348,2.3-10.7,4.6c.833,1.144,1.659,2.274,2.471,3.368l10.231-4.321Z" transform="translate(-296.927 -273.154)" fill="#ede7db"/>
          <path id="Trazado_1328160" data-name="Trazado 1328160" d="M323.359,300.768q-6.143,2-12.4,3.58c1.186,1.695,2.387,3.382,3.573,5.034q5.475-2.351,10.958-4.709Z" transform="translate(-291.586 -266.793)" fill="#ede7db"/>
          <path id="Trazado_1328161" data-name="Trazado 1328161" d="M316.935,291.178a1,1,0,0,1-.6.346l-12.885,2.661c.749,1.081,1.5,2.175,2.266,3.269q6.408-1.567,12.681-3.6Z" transform="translate(-287.647 -261.764)" fill="#8cc63f"/>
          <path id="Trazado_1328162" data-name="Trazado 1328162" d="M346.143,335.359q-4.406,2.118-8.861,4.123c3.389,4.293,6.248,7.569,8.035,8.974l4-7.272Z" transform="translate(-305.389 -284.933)" fill="#8cc63f"/>
          <path id="Trazado_1328163" data-name="Trazado 1328163" d="M339.021,324.506l-9.949,4.194c.876,1.165,1.73,2.294,2.563,3.375q4.618-2.065,9.186-4.265Z" transform="translate(-301.084 -279.242)" fill="#ede7db"/>
          <path id="Trazado_1328164" data-name="Trazado 1328164" d="M311.574,282.886l-2.295-4.208q-7.117,1.578-14.248,3.057c.876,1.307,1.786,2.648,2.711,4L311.5,282.9C311.525,282.893,311.553,282.893,311.574,282.886Z" transform="translate(-283.232 -255.209)" fill="#ede7db"/>
          <path id="Trazado_1328165" data-name="Trazado 1328165" d="M317.185,272.541c.7-.156,1.391-.3,2.083-.452l-1.236-2.274c-.643.163-1.278.332-1.92.495C316.472,271.051,316.825,271.8,317.185,272.541Z" transform="translate(-294.287 -250.561)" fill="#39b54a"/>
          <path id="Trazado_1328166" data-name="Trazado 1328166" d="M289.871,247.138q3.792-1.6,7.569-3.2l-1.977-3.622-7.8,3.347A29.763,29.763,0,0,1,289.871,247.138Z" transform="translate(-279.371 -235.093)" fill="#8cc63f"/>
          <path id="Trazado_1328167" data-name="Trazado 1328167" d="M295.116,251.852,281.3,257.684c.847,1.335,1.773,2.782,2.761,4.3q7.371-1.589,14.672-3.5Z" transform="translate(-276.031 -241.142)" fill="#ede7db"/>
          <path id="Trazado_1328168" data-name="Trazado 1328168" d="M279.871,250.725c-.057-.085-.113-.169-.162-.254-.014-.014-.057-.078-.092-.127a.238.238,0,0,1-.035-.057c-.007-.007-.014-.014-.014-.021-.1-.141-.2-.283-.3-.424-.17-.226-.339-.452-.516-.678-1.426.614-2.853,1.222-4.279,1.836.593,1.01,1.3,2.175,2.1,3.467,1.476-.621,2.944-1.243,4.42-1.864C280.641,251.961,280.274,251.34,279.871,250.725Z" transform="translate(-272.45 -239.732)" fill="#ede7db"/>
          <path id="Trazado_1328169" data-name="Trazado 1328169" d="M283.462,229.332s-13.048,4.85-13.238,7.223a7.253,7.253,0,0,0,.967,2.2l14.107-6.058Z" transform="translate(-270.223 -229.332)" fill="#ede7db"/>
          <path id="Trazado_1328170" data-name="Trazado 1328170" d="M293.481,275.382c-1.25.283-2.5.565-3.749.833.4.622.826,1.25,1.249,1.885,1.024-.212,2.048-.431,3.064-.643C293.883,276.759,293.686,276.067,293.481,275.382Z" transform="translate(-280.454 -253.481)" fill="#ede7db"/>
          <path id="Trazado_1328171" data-name="Trazado 1328171" d="M345.462,332.353c1.228-.593.268-2.478-.96-1.885-.283.134-.572.275-.855.41q-4.564,2.192-9.186,4.265c.459.586.9,1.158,1.342,1.715q4.459-2,8.861-4.123C344.932,332.607,345.193,332.48,345.462,332.353Z" transform="translate(-303.91 -282.308)" fill="#fff"/>
          <path id="Trazado_1328172" data-name="Trazado 1328172" d="M331.168,310.06c1.25-.536.289-2.422-.96-1.885-.261.113-.516.226-.777.332q-5.475,2.362-10.958,4.709.635.89,1.271,1.758,5.348-2.309,10.7-4.6C330.687,310.265,330.927,310.166,331.168,310.06Z" transform="translate(-295.526 -270.628)" fill="#fff"/>
          <path id="Trazado_1328173" data-name="Trazado 1328173" d="M338.188,321.786c1.257-.529.29-2.415-.96-1.892l-.657.275-10.231,4.321c.438.593.868,1.172,1.3,1.744l9.948-4.194Z" transform="translate(-299.652 -276.775)" fill="#fff"/>
          <path id="Trazado_1328174" data-name="Trazado 1328174" d="M295.4,239.073c1.25-.53.283-2.415-.967-1.885q-2.531,1.069-5.069,2.139-3.781,1.6-7.569,3.2a29.771,29.771,0,0,0-2.2-3.474l7.8-3.347c1.7-.734,3.41-1.469,5.112-2.2,1.257-.536.289-2.422-.96-1.885l-5.168,2.224L272.258,239.9c.29.536.643,1.158,1.052,1.85,1.426-.614,2.853-1.221,4.279-1.836.176.226.346.452.516.678.1.141.2.283.3.424,0,.007.007.014.014.021a.239.239,0,0,0,.035.057c.035.049.078.113.092.127.049.085.106.169.162.254.4.614.77,1.236,1.123,1.878-1.476.621-2.944,1.243-4.42,1.864.36.579.741,1.179,1.144,1.808l13.818-5.832Z" transform="translate(-271.29 -230.48)" fill="#fff"/>
          <path id="Trazado_1328175" data-name="Trazado 1328175" d="M322.42,298.074c1.278-.424.861-2.506-.431-2.076-.367.12-.727.24-1.094.353q-6.27,2.033-12.681,3.6c.431.621.868,1.243,1.306,1.864q6.259-1.578,12.4-3.58C322.088,298.187,322.25,298.13,322.42,298.074Z" transform="translate(-290.146 -264.261)" fill="#fff"/>
          <path id="Trazado_1328176" data-name="Trazado 1328176" d="M315.51,289.251a1.079,1.079,0,0,0-.946-1.737c-.021.007-.049.007-.078.014l-13.754,2.831c.424.628.861,1.264,1.292,1.9L314.91,289.6A1,1,0,0,0,315.51,289.251Z" transform="translate(-286.222 -259.837)" fill="#fff"/>
          <path id="Trazado_1328177" data-name="Trazado 1328177" d="M306.57,270.8a1.061,1.061,0,0,0-.43-2.076c-.692.155-1.384.3-2.076.452h-.007c-.692.155-1.384.3-2.083.452-.36-.741-.713-1.49-1.073-2.231.643-.163,1.278-.332,1.921-.495.671-.176,1.342-.346,2.005-.529,1.306-.353.89-2.429-.43-2.076-.868.233-1.744.466-2.62.692q-7.3,1.917-14.672,3.5c.41.614.826,1.249,1.25,1.892,1.249-.268,2.5-.551,3.749-.833.2.685.4,1.377.565,2.076-1.016.212-2.04.431-3.064.643q.625.942,1.271,1.906,7.128-1.482,14.248-3.057Zm-11.833.381c-.169-.713-.36-1.419-.579-2.118,1.553-.367,3.107-.734,4.653-1.122l1.038,2.146C298.146,270.45,296.445,270.81,294.736,271.177Z" transform="translate(-279.075 -247.644)" fill="#fff"/>
        </g>
      </g>
      <path id="Trazado_1328178" data-name="Trazado 1328178" d="M319.365,288.029l-2.45,4.463c-2.846-2.238-8.381-9.172-14.453-17.453-6.842-17.644-13.726-45.187-13.726-45.187Z" transform="translate(-276.98 -220.467)" fill="#ede7db" style="mix-blend-mode: multiply;isolation: isolate"/>
      <g id="Grupo_1207686" data-name="Grupo 1207686" transform="translate(11.46 0)">
        <path id="Trazado_1328179" data-name="Trazado 1328179" d="M363.272,212.243c.021.049.042.1.064.157C363.314,212.344,363.293,212.292,363.272,212.243Z" transform="translate(-327.526 -211.233)" fill="#8cc63f"/>
        <path id="Trazado_1328180" data-name="Trazado 1328180" d="M350.29,316.208c-7.421.628-14.884.861-22.227,2.1.346.72.692,1.433,1.031,2.139q10.6-1.821,21.259-3.311C350.332,316.829,350.31,316.519,350.29,316.208Z" transform="translate(-309.063 -265.753)" fill="#ede7db"/>
        <path id="Trazado_1328181" data-name="Trazado 1328181" d="M363.536,212.942c.037.107.073.221.11.347C363.609,213.163,363.573,213.048,363.536,212.942Z" transform="translate(-327.665 -211.6)" fill="#8cc63f"/>
        <path id="Trazado_1328182" data-name="Trazado 1328182" d="M365.26,220.6q.049.277.1.571C365.325,220.979,365.292,220.79,365.26,220.6Z" transform="translate(-328.569 -215.618)" fill="#8cc63f"/>
        <path id="Trazado_1328183" data-name="Trazado 1328183" d="M363.819,213.852q.077.268.155.587Q363.9,214.119,363.819,213.852Z" transform="translate(-327.813 -212.077)" fill="#8cc63f"/>
        <path id="Trazado_1328184" data-name="Trazado 1328184" d="M359.787,210.4c.056.008.108.017.161.025C359.895,210.42,359.843,210.411,359.787,210.4Z" transform="translate(-325.699 -210.268)" fill="#8cc63f"/>
        <path id="Trazado_1328185" data-name="Trazado 1328185" d="M358.276,210.243l.181.016Z" transform="translate(-324.906 -210.185)" fill="#8cc63f"/>
        <path id="Trazado_1328186" data-name="Trazado 1328186" d="M361.977,210.923c.035.014.066.029.1.044C362.043,210.952,362.012,210.937,361.977,210.923Z" transform="translate(-326.847 -210.541)" fill="#8cc63f"/>
        <path id="Trazado_1328187" data-name="Trazado 1328187" d="M356.534,210.15l.186.007Z" transform="translate(-323.993 -210.136)" fill="#8cc63f"/>
        <path id="Trazado_1328188" data-name="Trazado 1328188" d="M357.861,291.76a1.137,1.137,0,0,1,0,.487c2.295-.007,4.6-.021,6.9-.029-.169-2.189-.353-4.405-.536-6.623h-7.463C357.077,287.658,357.437,289.712,357.861,291.76Z" transform="translate(-324.111 -249.7)" fill="#ede7db"/>
        <path id="Trazado_1328189" data-name="Trazado 1328189" d="M361.045,210.633c.045.011.083.023.125.034C361.128,210.656,361.09,210.644,361.045,210.633Z" transform="translate(-326.358 -210.389)" fill="#8cc63f"/>
        <path id="Trazado_1328190" data-name="Trazado 1328190" d="M362.968,211.652c.015.023.03.044.045.071C363,211.7,362.983,211.675,362.968,211.652Z" transform="translate(-327.367 -210.923)" fill="#8cc63f"/>
        <path id="Trazado_1328191" data-name="Trazado 1328191" d="M288.292,224.862c-.006.012-.017.024-.022.036s0,.02-.007.027c0-.009.005-.019.009-.028S288.285,224.873,288.292,224.862Z" transform="translate(-288.191 -217.851)" fill="#8cc63f"/>
        <path id="Trazado_1328192" data-name="Trazado 1328192" d="M315.7,281.443q-1.5-7.573-3.566-15.017a.436.436,0,0,1-.021-.092,61.139,61.139,0,0,1-9.744-1.314c2.28,5.183,4.907,10.915,7.527,16.515,1.941,0,3.883-.014,5.825-.021A.4.4,0,0,0,315.7,281.443Z" transform="translate(-295.586 -238.91)" fill="#8cc63f"/>
        <path id="Trazado_1328193" data-name="Trazado 1328193" d="M314.051,237.965c.579,0,1.15.007,1.723.007.113-1.609.2-3.226.283-4.836q-13.207.043-26.414-.078c.346,1.116.812,2.436,1.377,3.911,1.321.275,2.655.48,4,.629C301.335,238.311,307.71,238,314.051,237.965Z" transform="translate(-288.914 -222.149)" fill="#ede7db"/>
        <path id="Trazado_1328194" data-name="Trazado 1328194" d="M288.182,227c.026.227.063.473.123.761h.007C288.252,227.483,288.209,227.229,288.182,227Z" transform="translate(-288.149 -218.974)" fill="#8cc63f"/>
        <path id="Trazado_1328195" data-name="Trazado 1328195" d="M343.264,210.507c-.755.06-1.546.134-2.358.219q1.221-.127,2.358-.216Z" transform="translate(-315.797 -210.323)" fill="#8cc63f"/>
        <path id="Trazado_1328196" data-name="Trazado 1328196" d="M350.484,210.214l-.153.005v0Z" transform="translate(-320.74 -210.169)" fill="#8cc63f"/>
        <path id="Trazado_1328197" data-name="Trazado 1328197" d="M345.794,303.96q-12.751.064-25.51.106c.925,1.984,1.85,3.933,2.754,5.832,7.6-1.32,15.335-1.567,23.024-2.217C345.977,306.46,345.885,305.217,345.794,303.96Z" transform="translate(-304.983 -259.33)" fill="#ede7db"/>
        <path id="Trazado_1328198" data-name="Trazado 1328198" d="M316.734,222.093c.088-2.017.144-4.035.185-6.052-9.226,1-21.457,3.468-26.158,5.982Q303.753,222.128,316.734,222.093Z" transform="translate(-289.501 -213.225)" fill="#ede7db"/>
        <path id="Trazado_1328199" data-name="Trazado 1328199" d="M354.7,268.341c.169,2.019.4,4.031.678,6.037h7.583c-.169-2.062-.36-4.116-.551-6.136-1.052.028-2.1.049-3.156.057Q356.973,268.33,354.7,268.341Z" transform="translate(-323.029 -240.599)" fill="#ede7db"/>
        <path id="Trazado_1328200" data-name="Trazado 1328200" d="M327.513,268.019q1.96,7.16,3.418,14.431a1.087,1.087,0,0,1-.057.629l9.6-.042a124.764,124.764,0,0,1-2.146-14.813C334.715,268.224,331.107,268.175,327.513,268.019Z" transform="translate(-308.774 -240.482)" fill="#ede7db"/>
        <path id="Trazado_1328201" data-name="Trazado 1328201" d="M362.711,211.345c-.008-.008-.015-.023-.023-.029s-.026-.014-.036-.021c.01.009.025.016.035.025S362.7,211.337,362.711,211.345Z" transform="translate(-327.201 -210.736)" fill="#8cc63f"/>
        <path id="Trazado_1328202" data-name="Trazado 1328202" d="M349.611,215.313q-.125,6.63-.571,13.239c3.064.042,6.135.127,9.192.057-.467-4.1-.933-7.652-1.375-10.31q-.232-1.3-.451-2.427c.106.5.214,1.064.324,1.686-.171-.97-.338-1.8-.5-2.458A47.083,47.083,0,0,0,349.611,215.313Z" transform="translate(-320.063 -212.707)" fill="#8cc63f"/>
        <path id="Trazado_1328203" data-name="Trazado 1328203" d="M320.01,254.6c3.53.021,7.061.028,10.591-.064-.254-2.612-.515-5.133-.777-7.513-1.6.036-3.2.036-4.8.014-3.353-.042-6.707-.113-10.061-.078-3.219.035-6.432.113-9.645.063a71.132,71.132,0,0,1-10.894-.882c.791,1.991,1.715,4.194,2.725,6.545a47.267,47.267,0,0,0,5.627,1.13A128.965,128.965,0,0,0,320.01,254.6Z" transform="translate(-291.422 -229.007)" fill="#ede7db"/>
        <path id="Trazado_1328204" data-name="Trazado 1328204" d="M336.895,211.37l.389-.047Z" transform="translate(-313.694 -210.751)" fill="#8cc63f"/>
        <path id="Trazado_1328205" data-name="Trazado 1328205" d="M338.56,211.1c.362-.041.722-.081,1.076-.118Q339.1,211.033,338.56,211.1Z" transform="translate(-314.567 -210.569)" fill="#8cc63f"/>
        <path id="Trazado_1328206" data-name="Trazado 1328206" d="M292.734,221.477l.069-.033Z" transform="translate(-290.536 -216.058)" fill="#8cc63f"/>
        <path id="Trazado_1328207" data-name="Trazado 1328207" d="M335.012,211.625l.235-.03Z" transform="translate(-312.707 -210.894)" fill="#8cc63f"/>
        <path id="Trazado_1328208" data-name="Trazado 1328208" d="M354.555,210.12h0Z" transform="translate(-322.955 -210.12)" fill="#8cc63f"/>
        <path id="Trazado_1328209" data-name="Trazado 1328209" d="M291.67,222.052h0Z" transform="translate(-289.978 -216.377)" fill="#8cc63f"/>
        <path id="Trazado_1328210" data-name="Trazado 1328210" d="M348.586,331.267q6.111-1.631,12.321-2.874c-.1-1.829-.212-3.784-.346-5.832q-6.651.942-13.288,2.012A37.924,37.924,0,0,0,348.586,331.267Z" transform="translate(-319.136 -269.085)" fill="#8cc63f"/>
        <path id="Trazado_1328211" data-name="Trazado 1328211" d="M347.985,361.56s.782.17,1.969.4c-1.178-.224-1.956-.393-1.969-.4Z" transform="translate(-319.51 -289.536)" fill="#8cc63f"/>
        <path id="Trazado_1328212" data-name="Trazado 1328212" d="M289.06,223.814c.021-.021.039-.042.061-.063C289.1,223.772,289.081,223.793,289.06,223.814Z" transform="translate(-288.609 -217.268)" fill="#8cc63f"/>
        <path id="Trazado_1328213" data-name="Trazado 1328213" d="M289.785,223.183l.082-.06Z" transform="translate(-288.989 -216.939)" fill="#8cc63f"/>
        <path id="Trazado_1328214" data-name="Trazado 1328214" d="M290.573,222.642l.086-.055Z" transform="translate(-289.403 -216.658)" fill="#8cc63f"/>
        <path id="Trazado_1328215" data-name="Trazado 1328215" d="M288.127,226.4c0-.06-.01-.121-.011-.176C288.117,226.277,288.123,226.339,288.127,226.4Z" transform="translate(-288.114 -218.564)" fill="#8cc63f"/>
        <path id="Trazado_1328216" data-name="Trazado 1328216" d="M371.7,363.8a3.142,3.142,0,0,0,2.164-.6.494.494,0,0,0,.067-.157.491.491,0,0,1-.066.155A3.14,3.14,0,0,1,371.7,363.8Z" transform="translate(-331.947 -290.312)" fill="#8cc63f"/>
        <path id="Trazado_1328217" data-name="Trazado 1328217" d="M288.129,225.517c0-.034.008-.063.012-.094C288.137,225.453,288.132,225.484,288.129,225.517Z" transform="translate(-288.121 -218.145)" fill="#8cc63f"/>
        <path id="Trazado_1328218" data-name="Trazado 1328218" d="M288.579,224.347c.02-.028.042-.056.065-.084C288.621,224.291,288.6,224.319,288.579,224.347Z" transform="translate(-288.357 -217.537)" fill="#8cc63f"/>
        <path id="Trazado_1328219" data-name="Trazado 1328219" d="M352.285,210.148l.28-.008Z" transform="translate(-321.765 -210.13)" fill="#8cc63f"/>
        <path id="Trazado_1328220" data-name="Trazado 1328220" d="M376.651,360.392c-.008.174-.017.331-.028.476C376.634,360.724,376.643,360.566,376.651,360.392Z" transform="translate(-334.528 -288.923)" fill="#8cc63f"/>
        <path id="Trazado_1328221" data-name="Trazado 1328221" d="M376.466,362.461c-.012.079-.025.145-.039.2C376.441,362.606,376.454,362.54,376.466,362.461Z" transform="translate(-334.425 -290.008)" fill="#8cc63f"/>
        <path id="Trazado_1328222" data-name="Trazado 1328222" d="M358.116,349.316c.081-1.878-.015-5.429-.242-9.994q-8.388,1.684-16.6,4.1c.911,1.862,1.663,3.39,2.21,4.5C347.124,348.484,354.518,349.537,358.116,349.316Z" transform="translate(-315.991 -277.874)" fill="#ede7db"/>
        <path id="Trazado_1328223" data-name="Trazado 1328223" d="M337.3,327.49q-2.541.413-5.076.855c1.228,2.542,2.372,4.893,3.368,6.94,1.023-.3,2.04-.593,3.064-.883A40.43,40.43,0,0,1,337.3,327.49Z" transform="translate(-311.242 -271.669)" fill="#ede7db"/>
        <path id="Trazado_1328224" data-name="Trazado 1328224" d="M376.57,361.6c-.009.113-.02.214-.032.307Q376.556,361.769,376.57,361.6Z" transform="translate(-334.483 -289.557)" fill="#8cc63f"/>
        <path id="Trazado_1328225" data-name="Trazado 1328225" d="M360.467,359.8c0-.032.009-.068.014-.1.012-.092.023-.194.032-.307,0-.033.006-.064.008-.1.011-.145.02-.3.028-.476v-.027h0c-3.6.222-10.992-.832-14.631-1.4h0c.627,1.271.981,1.984.981,1.984h0c.013,0,.791.172,1.969.4a50,50,0,0,0,9.31,1.065,3.141,3.141,0,0,0,2.165-.6.492.492,0,0,0,.066-.155c.006-.02.011-.048.017-.072C360.442,359.945,360.455,359.879,360.467,359.8Z" transform="translate(-318.426 -287.347)" fill="#fff"/>
        <path id="Trazado_1328226" data-name="Trazado 1328226" d="M364.979,219.2l0,.022-.009-.056q-.049-.293-.1-.571l-.024-.137c-.11-.622-.218-1.187-.324-1.686Q364.748,217.9,364.979,219.2Z" transform="translate(-328.185 -213.608)" fill="#f2f2f2"/>
        <path id="Trazado_1328227" data-name="Trazado 1328227" d="M346.224,210.455l-.361.025v0Z" transform="translate(-318.397 -210.296)" fill="#c69c6d"/>
        <path id="Trazado_1328228" data-name="Trazado 1328228" d="M348.114,210.347l.081,0Z" transform="translate(-319.577 -210.236)" fill="#c69c6d"/>
        <path id="Trazado_1328229" data-name="Trazado 1328229" d="M311.824,230.942c3.354-.035,6.708.035,10.061.078,1.6.021,3.206.021,4.8-.014-.07-.72-.148-1.426-.233-2.111-3.057.07-6.128-.014-9.192-.057q.452-6.606.571-13.239c-.688.06-1.4.131-2.131.21-.04,2.017-.1,4.035-.185,6.052q-12.984.041-25.973-.071a8.52,8.52,0,0,0-.961.584c-.053-.21-.1-.4-.136-.59h-.007c.12.586.318,1.3.572,2.118q13.207.116,26.414.078c-.078,1.61-.17,3.227-.283,4.836-.572,0-1.144-.007-1.723-.007-6.341.035-12.716.346-19.035-.367-1.342-.148-2.676-.353-4-.629.275.734.572,1.5.9,2.309A71.125,71.125,0,0,0,302.18,231C305.392,231.054,308.6,230.977,311.824,230.942Z" transform="translate(-288.284 -212.993)" fill="#fff"/>
        <path id="Trazado_1328230" data-name="Trazado 1328230" d="M350.023,210.225l-.279.016.279-.014Z" transform="translate(-320.432 -210.175)" fill="#c69c6d"/>
        <path id="Trazado_1328231" data-name="Trazado 1328231" d="M335.074,278.743c-2.3.007-4.6.021-6.9.029a1.138,1.138,0,0,0,0-.487c-.424-2.047-.784-4.1-1.1-6.164h7.463c-.057-.706-.12-1.412-.184-2.118h-7.583c-.275-2.006-.508-4.018-.678-6.037q2.277-.011,4.554-.042c1.052-.007,2.1-.029,3.156-.057-.064-.713-.134-1.419-.2-2.118-3.53.092-7.06.085-10.591.064a128.962,128.962,0,0,1-17.235-.784,47.255,47.255,0,0,1-5.627-1.13c.339.8.692,1.609,1.052,2.436a61.135,61.135,0,0,0,9.744,1.314.435.435,0,0,0,.021.092q2.055,7.445,3.566,15.017a.4.4,0,0,1,.021.071c-1.941.007-3.883.021-5.825.021.332.706.663,1.412,1,2.111q12.751-.043,25.51-.106C335.18,280.155,335.124,279.456,335.074,278.743Zm-18.548.078a1.087,1.087,0,0,0,.057-.629q-1.462-7.265-3.418-14.431c3.594.156,7.2.2,10.81.2a124.77,124.77,0,0,0,2.146,14.813Z" transform="translate(-294.426 -236.224)" fill="#fff"/>
        <path id="Trazado_1328232" data-name="Trazado 1328232" d="M349.1,311.784c-7.689.65-15.42.9-23.024,2.217.318.671.635,1.327.946,1.984,7.343-1.236,14.806-1.469,22.227-2.1C349.2,313.2,349.148,312.49,349.1,311.784Z" transform="translate(-308.02 -263.433)" fill="#fff"/>
        <path id="Trazado_1328233" data-name="Trazado 1328233" d="M351.97,326.082q-6.207,1.25-12.321,2.874a37.923,37.923,0,0,1-1.313-6.693q6.63-1.07,13.288-2.012c-.042-.685-.092-1.384-.134-2.1q-10.654,1.482-21.259,3.311c.318.671.643,1.335.946,1.984q2.531-.445,5.076-.855a40.431,40.431,0,0,0,1.356,6.912c-1.024.29-2.041.579-3.064.883.332.678.643,1.32.939,1.928q8.208-2.4,16.6-4.1C352.047,327.529,352.012,326.816,351.97,326.082Z" transform="translate(-310.199 -266.773)" fill="#fff"/>
        <path id="Trazado_1328234" data-name="Trazado 1328234" d="M288.411,219.5a8.528,8.528,0,0,1,.961-.584c4.7-2.514,16.932-4.979,26.158-5.982.731-.079,1.443-.15,2.131-.21a47.083,47.083,0,0,1,6.62-.215h0l-.008-.029q-.078-.32-.155-.587l-.024-.086c-.037-.126-.074-.241-.11-.347-.021-.06-.041-.121-.062-.175s-.043-.108-.064-.157c-.034-.078-.067-.15-.1-.21-.015-.027-.029-.048-.045-.071a.729.729,0,0,0-.092-.119c-.008-.008-.016-.02-.023-.026s-.025-.016-.035-.025a1.193,1.193,0,0,0-.223-.132c-.032-.015-.063-.03-.1-.044a2.98,2.98,0,0,0-.318-.1c-.042-.011-.08-.023-.125-.034-.132-.031-.281-.059-.438-.084-.053-.009-.1-.018-.161-.025-.166-.024-.347-.043-.537-.06l-.181-.016c-.2-.016-.417-.028-.642-.037l-.186-.007q-.352-.012-.738-.014h-.2c-.258,0-.523,0-.8.01l-.28.008c-.253.007-.51.016-.776.028l-.153.008-.279.014c-.227.012-.458.025-.694.039l-.081,0q-.35.023-.709.049l-.362.028q-1.135.089-2.357.216l-.039,0c-.354.037-.714.077-1.076.118l-.4.046-.389.047-.661.082-.235.03c-7.462.963-16.04,2.756-20.038,4.654l-.069.033c-.177.085-.347.171-.505.256h0c-.156.085-.3.169-.436.254l-.086.055c-.1.067-.2.134-.293.2l-.082.06c-.1.08-.2.159-.284.239-.022.021-.04.042-.061.063a2.259,2.259,0,0,0-.164.181c-.023.028-.045.056-.065.084a1.441,1.441,0,0,0-.122.2c-.006.011-.015.023-.02.035s-.005.02-.009.028a.932.932,0,0,0-.051.2c0,.031-.01.06-.012.094a2.3,2.3,0,0,0-.006.286c0,.056.007.116.011.176s.012.127.02.2q.04.337.13.761C288.315,219.1,288.358,219.291,288.411,219.5Z" transform="translate(-288.112 -210.12)" fill="#fff"/>
      </g>
    </g>
    <path id="Trazado_1328235" data-name="Trazado 1328235" d="M213.763,305.792c6.651,5.265,22.213,38.332,24.881,41.523,12.865,14.083,7.06,44.229-13.581,19.792-3.232-4.582-19.366-31.726-23.058-44.268S213.763,305.792,213.763,305.792Z" transform="translate(-99.386 -105.462)" fill="#f28a76"/>
    <path id="Trazado_1328236" data-name="Trazado 1328236" d="M246.511,379.794c3.133-2.735,25.932-36.322,25.932-36.322s11.9.031,15.875,4.661c0,0-17.219,41.489-21.731,44.817S243.378,382.529,246.511,379.794Z" transform="translate(-122.839 -125.221)" fill="#f28a76"/>
    <path id="Trazado_1328237" data-name="Trazado 1328237" d="M227.912,316.9c4.68,11.922,9.654,17.419,9.477,18.934s-10.836,23.01-20.607,26.03-9.773-44.964-9.773-44.964Z" transform="translate(-102.308 -111.287)" fill="#83433e"/>
    <path id="Trazado_1328238" data-name="Trazado 1328238" d="M225.745,323.384a23.35,23.35,0,0,1,.691-6.483H207.008s0,47.984,9.774,44.964c6.239-1.929,12.841-11.392,16.844-18.375C228.378,338.2,226.071,330.666,225.745,323.384Z" transform="translate(-102.308 -111.287)" fill="#662d91" opacity="0.3" style="mix-blend-mode: multiply;isolation: isolate"/>
    <path id="Trazado_1328239" data-name="Trazado 1328239" d="M161.31,198.357a8.652,8.652,0,0,0,2.886-6.606c.1-4.819-1.588-9.817-5.944-11.385a3.749,3.749,0,0,0-.825-5.54,4.643,4.643,0,0,0,3.325-3.855c.39-2.681-.227-5.8-2.316-7.67a6.293,6.293,0,0,0-4.145-1.624,3.461,3.461,0,0,0-3.1-4.549,3.03,3.03,0,0,0-1.757-2.965c-11.434-6.015-23.383-1.517-34.315,3.3a2.788,2.788,0,0,0-1.837,2.49,2.578,2.578,0,0,0-.714.374,6.958,6.958,0,0,0-2.176,2.29,5.83,5.83,0,0,0-.585,3.853,4.7,4.7,0,0,0,.626,1.631,3.575,3.575,0,0,0-1.514-.314c-3.316,0-4.213,3.761-2.686,5.792a13.525,13.525,0,0,0-4.49.132,9.9,9.9,0,0,0-7.576,6.252,13.164,13.164,0,0,0,.579,10.934,9.318,9.318,0,0,0-1.137.142,7.779,7.779,0,0,0-5.753,4.485,5.45,5.45,0,0,0,.835,5.427c-9.59,2.747-8.046,19.02.667,22.724,5.685,2.417,12.712,2.347,18.787,2.312,7.057-.041,14.116-.25,21.172-.383a3.319,3.319,0,0,0,2.46-1.05c6.257-.143,12.524-.23,18.771-.553,5.12-.264,12.885-.482,16.584-4.533C173.589,212.4,169.58,200.954,161.31,198.357Z" transform="translate(-36.825 -24.431)" fill="#1a1a1a"/>
    <path id="Trazado_1328240" data-name="Trazado 1328240" d="M167.769,159.29c11.528.721,19.011-1.392,19.011-1.392a3.275,3.275,0,0,0-2.044-.77,3.03,3.03,0,0,0-1.757-2.965c-11.434-6.015-23.383-1.517-34.315,3.3a2.788,2.788,0,0,0-1.837,2.49,2.579,2.579,0,0,0-.714.374l-.012.01A103.932,103.932,0,0,1,167.769,159.29Z" transform="translate(-70.369 -24.431)" fill="#662d91" opacity="0.3" style="mix-blend-mode: multiply;isolation: isolate"/>
    <path id="Trazado_1328241" data-name="Trazado 1328241" d="M171.188,243.816a8.22,8.22,0,0,0-4.439-1.525c-.2-.013-.342-.329-.116-.426a6.2,6.2,0,0,0,2.3-1.55,2.97,2.97,0,0,0,.749-2.151,3.647,3.647,0,0,0-1.122-2.421,4.052,4.052,0,0,0-2.054-.8,12.806,12.806,0,0,1-2.306-.486.231.231,0,0,1-.1-.381,2.608,2.608,0,0,0-1.275-4.348,2.08,2.08,0,0,0-1.223.255c-.564.263-1.417.743-2.021.333a7.152,7.152,0,0,1-.894-.8,7.25,7.25,0,0,0-1.042-.847,27.4,27.4,0,0,0-3.735-1.964,20.366,20.366,0,0,0-3.762-1.223c-4.993-1.2-10.292-1.182-15.092-3.132.01.033.026.063.035.1a.229.229,0,0,1-.44.121,3.164,3.164,0,0,0-1.273-1.8,3.709,3.709,0,0,0-3.8-.15c-1.343.766-1.326,2.384-1.123,3.73a.229.229,0,0,1-.417.176,3.628,3.628,0,0,0-2.595-1.245c-1.811-.166-3.9.558-4.455,2.465-.547,1.874.4,3.988,1.4,5.541.136.211-.122.4-.312.312a2.231,2.231,0,0,0-2.9.762,2.018,2.018,0,0,0,.881,2.754.229.229,0,0,1-.231.394,8.556,8.556,0,0,0-.971-.351,7.648,7.648,0,0,0-7.292,1.478,7.543,7.543,0,0,0-2.018,3.487,8.689,8.689,0,0,0-.364,3.436,7.9,7.9,0,0,0,2.926,5.039,20.657,20.657,0,0,0,5.713,3.242c1.662.675,3.367,1.231,5.077,1.772a.212.212,0,0,1,.127-.042q.894,0,1.788.011c4.933.063,9.86.362,14.787.58,4.858.215,9.715.24,14.577.3a62.326,62.326,0,0,0,13.085-.881,10.167,10.167,0,0,0,4.231-1.65,4.828,4.828,0,0,0,1.784-4.219A5.189,5.189,0,0,0,171.188,243.816Z" transform="translate(-50.981 -60.557)" fill="#662d91" opacity="0.3" style="mix-blend-mode: multiply;isolation: isolate"/>
    <path id="Trazado_1328242" data-name="Trazado 1328242" d="M213.231,271.45c11.788,3.339,17.281,16.542,18.281,24.656,2.7,21.919-10.294,42.054-10.941,40.739S213.231,271.45,213.231,271.45Z" transform="translate(-105.571 -87.453)" fill="#4555aa"/>
    <path id="Trazado_1328243" data-name="Trazado 1328243" d="M128.164,263.025c-13.254.964-27.6,7.46-32.293,12.531s-6.989,102.79-3.856,109.716,64.586,3.792,67.96,1.864c0,0-1.2-50.009-1.446-60.854s3.2-15.193,4.973-22.032c1.81-6.987,6.309-37.37-29.336-41.226Z" transform="translate(-41.251 -83.035)" fill="#83433e"/>
    <path id="Trazado_1328244" data-name="Trazado 1328244" d="M92.937,330.478c-1,12.658-1.7,29.622-2,45.446h0a26.906,26.906,0,0,0,26.906-26.906v-18.54Z" transform="translate(-41.437 -118.407)" fill="#662d91" opacity="0.3" style="mix-blend-mode: multiply;isolation: isolate"/>
    <path id="Trazado_1328245" data-name="Trazado 1328245" d="M177.5,230.185c-2.353,5.938,3.249,12.1,3.473,14.117s.051,8.956-10.444,8.347c-10.616-.616-14.653-5.322-12.524-14.957a59.464,59.464,0,0,0,.784-18.934Z" transform="translate(-76.321 -59.82)" fill="#f48775"/>
    <path id="Trazado_1328246" data-name="Trazado 1328246" d="M168.541,232.421c3.2,2.4,6.418,3.494,10,2.529a8.767,8.767,0,0,1,.427-4.765l-18.71-11.428s2.985,2.279,3.089,5.276C163.9,225.56,166.552,230.926,168.541,232.421Z" transform="translate(-77.791 -59.82)" fill="#c05344"/>
    <path id="Trazado_1328247" data-name="Trazado 1328247" d="M151.469,195.066c3.391,6.878,12.813,12.652,20.915,12.18s11.588-7.16,10.269-19.031c-1.2-10.754.085-13-.715-17.744a1.272,1.272,0,0,0-1.689-.993,32.995,32.995,0,0,1-20.434.461A4.24,4.24,0,0,0,154.447,174c-.057,4.591-.722,10.291-3.544,11.647,0,0-2.355-4.617-5.747-2.544S144.215,196.009,151.469,195.066Z" transform="translate(-69.085 -33.937)" fill="#f48775"/>
    <path id="Trazado_1328248" data-name="Trazado 1328248" d="M192.981,195.528a1.473,1.473,0,1,1-1.433-1.815A1.658,1.658,0,0,1,192.981,195.528Z" transform="translate(-93.45 -46.687)" fill="#42210b"/>
    <path id="Trazado_1328249" data-name="Trazado 1328249" d="M216.1,191.711a1.473,1.473,0,1,1-1.433-1.815A1.658,1.658,0,0,1,216.1,191.711Z" transform="translate(-105.571 -44.685)" fill="#42210b"/>
    <path id="Trazado_1328250" data-name="Trazado 1328250" d="M193.979,218.939c-.958.91-.294,3.63,2.456,4.681s5.043-.764,4.709-2.34S194.934,218.032,193.979,218.939Z" transform="translate(-95.259 -59.781)" fill="#fff"/>
    <path id="Trazado_1328251" data-name="Trazado 1328251" d="M180.977,185.4s2.006-3.248,6.448-1.242" transform="translate(-88.657 -41.331)" fill="none" stroke="#1a1a1a" stroke-linecap="round" stroke-linejoin="round" stroke-width="4.454"/>
    <path id="Trazado_1328252" data-name="Trazado 1328252" d="M211.232,182.649s1.616-1.779,4.768-.012" transform="translate(-104.523 -40.469)" fill="none" stroke="#1a1a1a" stroke-linecap="round" stroke-linejoin="round" stroke-width="4.454"/>
    <path id="Trazado_1328253" data-name="Trazado 1328253" d="M208.851,213.869c0,.594-.3,1.075-1.393,1.075s-2.579-.481-2.579-1.075,1.482-1.075,2.579-1.075S208.851,213.275,208.851,213.869Z" transform="translate(-101.191 -56.693)" fill="#c05344"/>
    <path id="Trazado_1328254" data-name="Trazado 1328254" d="M142.284,136.157s-8.336-17.864,4.8-26.3c15.459-9.932,27.376-5.716,32.39,14.039Z" transform="translate(-66.999)" fill="#3b4b68"/>
    <path id="Trazado_1328255" data-name="Trazado 1328255" d="M174.487,119.668a10,10,0,0,1-.4,3.872c-2.156,6.875-7.7,10.887-14.374,12.892-6.382,1.918-13.327,3.065-18.966-1.291-.287-.222-.557-.454-.82-.691a32.507,32.507,0,0,0,2.489,9.565L179.6,131.751A37.06,37.06,0,0,0,174.487,119.668Z" transform="translate(-67.131 -7.858)" fill="#662d91" opacity="0.3" style="mix-blend-mode: multiply;isolation: isolate"/>
    <path id="Trazado_1328256" data-name="Trazado 1328256" d="M145.16,151.809a96.28,96.28,0,0,1,41.285-2.623s19.069-6.592,7.837-13.852C186.258,130.148,145.16,151.809,145.16,151.809Z" transform="translate(-69.875 -15.652)" fill="#ef8a0c"/>
    <path id="Trazado_1328257" data-name="Trazado 1328257" d="M195.53,136.241a12.778,12.778,0,0,0-1.248-1.151c-7.421-6.016-49.121,16.476-49.121,16.476S188.105,130.228,195.53,136.241Z" transform="translate(-69.875 -15.409)" fill="#f6aa1e"/>
    <path id="Trazado_1328258" data-name="Trazado 1328258" d="M97.875,278.993c21.2,5.311,20.833,19.268,20.833,30.5,0,18.27-17.007,38.193-29.581,44.814,0,0-3.159,10.468-.056,17.029,0,0,37.8-17.737,40.084-60s-24.977-35.879-24.977-35.879S99,275.068,97.875,278.993Z" transform="translate(-39.746 -89.376)" fill="#4555aa"/>
    <path id="Trazado_1328259" data-name="Trazado 1328259" d="M41.7,356.712s-16.794,27.867-18.085,31.742-4.983,43.184-4.983,43.184h15.5S44.1,396.02,45.944,394.175s19.377-25.837,19.377-25.837Z" transform="translate(-3.522 -132.164)" fill="#f48775"/>
    <path id="Trazado_1328260" data-name="Trazado 1328260" d="M73.891,375.754q1.758,1.771,3.3,3.669c4.29-5.8,8.152-11.085,8.152-11.085L61.719,356.712s-2.121,3.519-4.912,8.228A54.256,54.256,0,0,1,73.891,375.754Z" transform="translate(-23.542 -132.164)" fill="#662d91" opacity="0.3" style="mix-blend-mode: multiply;isolation: isolate"/>
    <path id="Trazado_1328261" data-name="Trazado 1328261" d="M78.062,287.254c-8.623,5.905-24.31,28.42-23.387,32.48s25.468,17.532,31.742,16.794,14.77-24.593,12.549-31.927S78.062,287.254,78.062,287.254Z" transform="translate(-22.403 -95.74)" fill="#83433e"/>
    <path id="Trazado_1328262" data-name="Trazado 1328262" d="M301.151,322.25S299.245,303,306,303c3.915,0,1.642,9.309,1.642,9.309s12.042,5.366,9.287,14.954Z" transform="translate(-151.547 -103.999)" fill="#f28a76"/>
  </g>
</svg>
