<svg xmlns="http://www.w3.org/2000/svg" xmlns:xlink="http://www.w3.org/1999/xlink" width="135.176" height="127.499" viewBox="0 0 135.176 127.499">
  <defs>
    <clipPath id="clip-path">
      <rect id="Rectángulo_400938" data-name="Rectángulo 400938" width="120" height="120" fill="none"/>
    </clipPath>
  </defs>
  <g id="Grupo_1207845" data-name="Grupo 1207845" transform="translate(-386 -6034.663)">
    <g id="Grupo_108927" data-name="Grupo 108927" transform="translate(2.059 1567.663)">
      <path id="Rectángulo_36179" data-name="Rectángulo 36179" d="M0,0H129.117V127.5H0Z" transform="translate(390 4467)" fill="#f9f7f0"/>
    </g>
    <g id="Grupo_1207763" data-name="Grupo 1207763" transform="translate(-765.901 5569.435)">
      <path id="Trazado_1328456" data-name="Trazado 1328456" d="M1266.283,539.206v-1.22q0-19.38,0-38.76a5.907,5.907,0,0,0-2.3-5.184,5.587,5.587,0,0,0-8.894,4.582c-.026,3.341-.007,6.681-.009,10.022,0,1.972-.536,2.791-1.831,2.809-1.314.018-1.879-.807-1.881-2.75,0-1.486,0-2.972,0-4.555h-6.916c7.678,8.015,10.709,17.307,7.625,28.022-3.075,10.683-10.519,16.978-21.23,19.726v1.31c0,6.52.015,13.041-.01,19.561a5.545,5.545,0,0,1-10.523,2.448,7.032,7.032,0,0,1-.553-2.8c-.046-6.4-.024-12.8-.024-19.2v-.968c-3.086-1.367-6.1-2.417-8.827-3.972a26.367,26.367,0,0,1-11.521-13.512,1.345,1.345,0,0,0-1.5-1c-4.145.039-8.291.021-12.437.015-.633,0-1.174-.048-1.168.9.034,5.715.021,11.431.028,17.146a2.554,2.554,0,0,0,.117.469c.444.021.91.061,1.376.061q13.644.005,27.289,0c1.981,0,2.83.538,2.863,1.8.034,1.3-.911,1.943-2.877,1.943q-14.852,0-29.7,0c-2.208,0-2.77-.568-2.77-2.791q0-25.116,0-50.231c0-2.157.575-2.746,2.685-2.747,8.774,0,17.549-.028,26.323.031a7.149,7.149,0,0,0,3.287-.761,27.5,27.5,0,0,1,25.632.387,5.034,5.034,0,0,0,2.167.327c3.059.034,6.118.014,9.177.014h1.492c0-.706-.011-1.333,0-1.959a9.293,9.293,0,0,1,18.578-.207c.065,1.728.021,3.461.021,5.192q0,21.312,0,42.624c0,6.193-3.908,10.115-10.086,10.12q-11.29.008-22.58-.009c-.55,0-1.272.034-1.61-.278a2.656,2.656,0,0,1-.968-1.833c.072-.569.824-1.143,1.4-1.521.349-.227.938-.1,1.42-.1,7.607,0,15.214.01,22.821-.011a5.569,5.569,0,0,0,1.312-11.035,5.572,5.572,0,0,0-6.461,4.259c-.082.434-.1.88-.163,1.318a1.846,1.846,0,1,1-3.687-.2c-.2-4.515,3.885-8.9,8.532-9.159C1262.127,537.406,1262.9,537.6,1266.283,539.206Zm-16.8-14.63a24.191,24.191,0,1,0-24.172,24.071A24.239,24.239,0,0,0,1249.484,524.576Zm-65.121-5.721c.368.029.606.063.844.064,2.173.006,4.346-.022,6.518.018a1.819,1.819,0,0,1,1.895,1.908,1.8,1.8,0,0,1-1.9,1.759c-.844.031-1.69.009-2.535.009H1184.4V530h13.5a27.388,27.388,0,0,1,.794-13.966,28.2,28.2,0,0,1,7.536-11.868h-21.87Zm39.12,33.476c-.029.28-.066.472-.066.664q0,9.7,0,19.4c0,.354,0,.832.2,1.035.482.469,1.091,1.106,1.653,1.111a2.76,2.76,0,0,0,1.662-1.088,2.35,2.35,0,0,0,.227-1.389q.019-9.34.005-18.68c0-.346-.049-.692-.077-1.056Z" transform="translate(0 0)"/>
      <path id="Trazado_1328457" data-name="Trazado 1328457" d="M1299.905,587.73c-1.734-3.789-3.568-7.492-5.133-11.3s-3.036-7.7-4.248-11.645a11,11,0,0,1,11.073-14.116,20.43,20.43,0,1,1-19.887,26.776,19.692,19.692,0,0,1,.42-13.927c.56-1.446,1.58-2.011,2.667-1.55s1.356,1.512.792,2.993a16.607,16.607,0,0,0,7.505,20.739A17.282,17.282,0,0,0,1299.905,587.73Zm2.516-.043c7.047-.315,13.138-5.544,15.007-12.964,1.6-6.348-1.4-13.363-5.55-16.241.6,2.776.722,4.1-.232,6.868-1.475,4.287-3.1,8.528-4.823,12.723C1305.484,581.329,1303.9,584.483,1302.421,587.687Zm-1.651-6.247.5-.079c.6-1.3,1.248-2.582,1.776-3.912,1.715-4.323,3.538-8.612,5.032-13.012,1.734-5.108-1.671-9.985-6.777-10.051a7.341,7.341,0,0,0-7.081,10C1296.215,570.136,1298.572,575.76,1300.77,581.439Z" transform="translate(-75.865 -46.591)"/>
      <path id="Trazado_1328458" data-name="Trazado 1328458" d="M1342.621,579.288a5.553,5.553,0,1,1,5.573,5.6A5.547,5.547,0,0,1,1342.621,579.288Zm7.411-.006a1.858,1.858,0,0,0-3.715.086,1.858,1.858,0,0,0,3.715-.086Z" transform="translate(-122.88 -64.113)"/>
    </g>
  </g>
</svg>
