<svg xmlns="http://www.w3.org/2000/svg" width="104" height="122.537" viewBox="0 0 104 122.537">
  <g id="Grupo_1207856" data-name="Grupo 1207856" transform="translate(8747.965 7814)">
    <g id="Grupo_1207594" data-name="Grupo 1207594">
      <circle id="Elipse_13777" data-name="Elipse 13777" cx="52" cy="52" r="52" transform="translate(-8747.965 -7814)" fill="#fbe49d"/>
      <g id="Grupo_1207591" data-name="Grupo 1207591" transform="translate(-9610.781 -8316.965)">
        <path id="Trazado_1327920" data-name="Trazado 1327920" d="M950.585,652.1l-2.041-1.934a6.876,6.876,0,0,1,8.964-.766,8.213,8.213,0,0,1,3.661,7.026c-.074,12.841-.031,25.683-.032,38.524a8.906,8.906,0,0,1-.025,1.069,1.4,1.4,0,0,1-1.374,1.374,9.954,9.954,0,0,1-1.2.029q-43.794,0-87.587,0a9.9,9.9,0,0,1-1.069-.022,1.412,1.412,0,0,1-1.447-1.446,7.359,7.359,0,0,1-.018-.8c0-12.975.026-25.951-.018-38.926a7.872,7.872,0,0,1,4.52-7.31,6.627,6.627,0,0,1,7.422.588,3.136,3.136,0,0,1,.518.421,4.134,4.134,0,0,0,5.974.071,7.79,7.79,0,0,1,3-1.629,6.57,6.57,0,0,1,6.361,1.449c.137.114.261.243.4.358a3.89,3.89,0,0,0,5.444-.015,7.751,7.751,0,0,1,3.477-1.883,6.886,6.886,0,0,1,5.908,1.353,2.565,2.565,0,0,1,.31.255,4.084,4.084,0,0,0,6.06.049,6.154,6.154,0,0,1,3.413-1.708,6.951,6.951,0,0,1,6.245,1.9l-2.209,2.007a8.648,8.648,0,0,0-1.583-.788,4.061,4.061,0,0,0-4.055,1.071,6.706,6.706,0,0,1-7.068,1.519,8.878,8.878,0,0,1-2.61-1.553c-1.99-1.606-3.812-1.64-5.752.024a7.051,7.051,0,0,1-9.7.011c-2.008-1.705-3.824-1.688-5.841.055a6.972,6.972,0,0,1-9.484.036c-1.361-1.2-2.844-1.791-4.519-1a4.915,4.915,0,0,0-3.172,4.557c-.022,2.45-.005,4.9-.005,7.5.35-.192.6-.319.843-.464a6.873,6.873,0,0,1,8.529.728,4.364,4.364,0,0,0,6.1-.026,6.727,6.727,0,0,1,9.343.016,4.378,4.378,0,0,0,6.1,0,6.827,6.827,0,0,1,9.46.057,4.018,4.018,0,0,0,3.913,1.119,4.664,4.664,0,0,0,1.533-.761c3.6-2.766,5.739-2.963,9.832-.727v-2.138c0-1.026,0-2.051,0-3.077,0-1.864.217-2.147,2.034-2.627.656-2.395,1.323-4.838,1.994-7.279.837-3.047,1.665-6.1,2.525-9.136a3.038,3.038,0,0,0-.063-2.055,4.5,4.5,0,0,1,1.573-5.129,4.714,4.714,0,0,1,5.387-.157,4.408,4.408,0,0,1,1.867,4.9,4.859,4.859,0,0,0-.027,2.852c1.435,5.1,2.838,10.2,4.257,15.306.071.254.186.5.274.725,1.686.448,1.824.629,1.827,2.415s0,3.558,0,5.518c3.112-2.126,6.144-2.22,9.286-.01.027-.453.062-.781.063-1.108,0-2.185-.045-4.371.015-6.554.062-2.264-2.706-5.337-5.378-4.693A16.681,16.681,0,0,0,950.585,652.1Zm-15.412,37.288c-.552.4-1.02.8-1.544,1.1a7.1,7.1,0,0,1-8.189-1c-1.941-1.777-3.921-1.79-5.838-.019a7.176,7.176,0,0,1-9.709-.05,3.794,3.794,0,0,0-5.632-.055,7.148,7.148,0,0,1-9.9-.025,3.808,3.808,0,0,0-2.641-1.12A4.266,4.266,0,0,0,888.6,689.5a6.847,6.847,0,0,1-6.193,1.7,7.378,7.378,0,0,1-3.592-1.939,3.679,3.679,0,0,0-4.46-.626c-1.917,1.05-3.433,2.924-2.753,5.639h86.5c0-.395-.008-.7,0-1.008a4.907,4.907,0,0,0-3-4.674c-1.726-.883-3.347-.353-4.753,1a6.314,6.314,0,0,1-4.1,1.74,6.545,6.545,0,0,1-5.326-1.91l1.868-2.11a14.7,14.7,0,0,0,2.307.9,4.139,4.139,0,0,0,3.631-1.276,6.788,6.788,0,0,1,7.706-1.157c.545.242,1.046.583,1.665.934,0-1.7.089-3.26-.022-4.81a4.907,4.907,0,0,0-3.246-4.232,3.879,3.879,0,0,0-4.3.953,6.955,6.955,0,0,1-9.68-.02,4.23,4.23,0,0,0-3.414-1.173,4.529,4.529,0,0,0-2.44,1.272,7.019,7.019,0,0,1-9.493.016c-2.1-1.794-3.865-1.812-5.942-.025a6.939,6.939,0,0,1-3.155,1.664,6.755,6.755,0,0,1-6.4-1.711l2.063-2.155c2.376,1.449,3.662,1.354,5.792-.424a6.867,6.867,0,0,1,9.367.1,4.286,4.286,0,0,0,5.988.036,6.894,6.894,0,0,1,9.573,0c2.015,1.727,3.814,1.725,5.837-.006a7.036,7.036,0,0,1,8.764-.688c.2.12.418.2.718.339,0-2-.008-3.875,0-5.747a5.006,5.006,0,0,0-3.149-4.714c-1.762-.87-3.236-.152-4.615,1.054a6.923,6.923,0,0,1-9.273.025c-2.253-1.924-3.909-1.937-6.143-.049a6.986,6.986,0,0,1-9.387,0c-2.174-1.859-3.867-1.865-6.037-.024a6.99,6.99,0,0,1-9.49-.034c-2.1-1.79-3.852-1.788-5.937,0a6.992,6.992,0,0,1-9.488.024c-2.168-1.837-3.88-1.833-6.037.034a6.968,6.968,0,0,1-5.562,1.745,7.409,7.409,0,0,1-4.135-2,3.727,3.727,0,0,0-4.9-.45,5.075,5.075,0,0,0-2.522,4.573c.067,1.513.01,3.031.016,4.547,0,.327.033.654.056,1.091.374-.234.592-.374.814-.51a7.007,7.007,0,0,1,5.772-.827,7.948,7.948,0,0,1,3.073,1.818,3.822,3.822,0,0,0,4.691.5,9.322,9.322,0,0,0,1.046-.824,6.94,6.94,0,0,1,6.355-1.562,7.82,7.82,0,0,1,3.342,1.86,3.843,3.843,0,0,0,4.916.406l.456-.272,2.091,2.139a6.2,6.2,0,0,1-.528.49,7.059,7.059,0,0,1-8.981-.439c-2.11-1.788-3.85-1.756-5.957-.023a8.173,8.173,0,0,1-2.506,1.47,6.713,6.713,0,0,1-7.067-1.525,3.858,3.858,0,0,0-4.178-1.012,4.821,4.821,0,0,0-3.311,3.886,42.8,42.8,0,0,0-.045,5.244c.3-.183.443-.273.588-.365a6.913,6.913,0,0,1,8.854.626c2.057,1.735,3.8,1.733,5.844-.007,3.02-2.568,6.633-2.629,9.563-.006a4.23,4.23,0,0,0,5.983-.027,6.818,6.818,0,0,1,9.457-.023c2.094,1.8,3.9,1.81,5.95.037a6.93,6.93,0,0,1,9.577.016c1.823,1.57,3.31,1.7,5.342.458a1.376,1.376,0,0,1,.277-.129Zm10.474-24.333v-6.143H930.354v6.183a4.413,4.413,0,0,0,2.718-1.1,10.4,10.4,0,0,1,2.966-1.7,6.68,6.68,0,0,1,6.7,1.554A3.665,3.665,0,0,0,945.646,665.051Zm-7.657-14.783c-1.79,1.535-3.488,2.967-5.149,4.442a3.345,3.345,0,0,0-.5,1.039h11.333c-.114-.345-.119-.674-.286-.821C941.618,653.374,939.828,651.849,937.989,650.268Zm-1.337-9.984c-1.42,3.765-1.42,3.765,1.181,5.757a1.4,1.4,0,0,0,.22.087l2.386-2.066-1.081-3.779Zm2.829-4.54a1.515,1.515,0,1,0-1.521,1.538A1.568,1.568,0,0,0,939.481,635.744Z" transform="translate(0 -71.919)" fill="#83433e"/>
        <path id="Trazado_1327921" data-name="Trazado 1327921" d="M944.054,545.278h3.5a9.862,9.862,0,0,1,3.6-7.223,9.277,9.277,0,0,1,12.317.707,9.49,9.49,0,0,1,2.766,6.414,14.153,14.153,0,0,1,1.884.552,4.669,4.669,0,0,1,2.674,4.921,4.547,4.547,0,0,1-4.6,3.856c-6.909.022-13.819.009-20.728.009h-1.415a17.336,17.336,0,0,1-22.7,11.252,5.655,5.655,0,0,1-4.2,1.1c-1.2-.045-2.395-.009-3.508-.009a18.158,18.158,0,0,1-.246,2.83,4.28,4.28,0,0,1-4.167,3.326c-2.227.06-4.457.025-6.686.025-4.056,0-8.113.034-12.169-.018a4.58,4.58,0,0,1-.215-9.152c1.638-.06,3.28-.012,5.045-.012-.03-.506-.062-.889-.076-1.273a4.482,4.482,0,0,1,4.634-4.894c3.878-.031,7.756-.008,11.634-.011.265,0,.529-.025.945-.047a16.9,16.9,0,0,1,.287-15.829,16.552,16.552,0,0,1,9.246-7.887C929.437,531.178,940.334,534.153,944.054,545.278Zm-30.2,7.785c.5,1.205.945,2.21,1.333,3.237a1.845,1.845,0,0,0,2.223,1.395,5.43,5.43,0,0,1,1.2,0,4.2,4.2,0,0,1,3.777,2.557,16.768,16.768,0,0,1,.734,2.729c6.83,2.876,15.714-1.806,17.344-8.441-2.528-1.09-3.549-2.357-3.6-4.454-.063-2.579,1.429-3.983,3.661-4.792-2.235-7.608-11.892-11.481-18.508-7.95C927.667,544.088,922.785,553.6,913.854,553.064Zm39.921-1.549h11.353a8.479,8.479,0,0,0,1.067-.021,1.564,1.564,0,0,0-.014-3.126c-.529-.055-1.069,0-1.6-.03a1.525,1.525,0,0,1-1.6-1.825c.015-.177.079-.349.091-.526a6.023,6.023,0,0,0-2.572-5.68,5.9,5.9,0,0,0-6.2-.555,6.022,6.022,0,0,0-3.5,6.191c.1,2.074-.214,2.4-2.314,2.4q-3.072,0-6.144,0a6.568,6.568,0,0,0-.934.022,1.557,1.557,0,0,0-.052,3.11,6.8,6.8,0,0,0,1.066.035Q948.1,551.517,953.775,551.515ZM899.7,570.008q4.209,0,8.417,0a5.237,5.237,0,0,0,1.194-.071,1.473,1.473,0,0,0,1.168-1.443,1.441,1.441,0,0,0-1.068-1.511c-.291-.1-.617-.1-.911-.194a1.427,1.427,0,0,1-1.012-1.543,1.372,1.372,0,0,1,1.233-1.356,6.87,6.87,0,0,1,1.066-.034c2.538,0,5.077,0,7.615,0a4.88,4.88,0,0,0,1.192-.083,1.54,1.54,0,0,0-.041-3,3.922,3.922,0,0,0-.927-.074q-8.618-.006-17.235,0a5.282,5.282,0,0,0-.667.015,1.739,1.739,0,0,0-1.576,1.406,1.692,1.692,0,0,0,1.256,1.681c.209.067.445.048.657.109a1.483,1.483,0,0,1-.206,2.938,9.373,9.373,0,0,1-1.068.025c-2.494,0-4.988,0-7.482.006a4.956,4.956,0,0,0-1.319.125,1.414,1.414,0,0,0-1.083,1.368,1.365,1.365,0,0,0,.942,1.46,3.979,3.979,0,0,0,1.3.182C894,570.016,896.853,570.008,899.7,570.008Zm14.023-20.356a6.021,6.021,0,0,0,6.988-3.16,5.883,5.883,0,0,0-1.666-7.406C916.4,540.609,913.486,545.429,913.727,549.653Z" transform="translate(-12.765)" fill="#83433e"/>
        <path id="Trazado_1327922" data-name="Trazado 1327922" d="M1033.884,601.136a4.591,4.591,0,1,1-9.182-.054,4.591,4.591,0,1,1,9.182.054Zm-4.642-1.543a1.622,1.622,0,0,0-1.517,1.564,1.569,1.569,0,0,0,3.135-.106A1.612,1.612,0,0,0,1029.243,599.594Z" transform="translate(-114.52 -46.548)" fill="#83433e"/>
      </g>
    </g>
  </g>
</svg>
