<svg xmlns="http://www.w3.org/2000/svg" width="173.889" height="179.834" viewBox="0 0 173.889 179.834">
  <g id="Grupo_1207722" data-name="Grupo 1207722" transform="translate(-20.464 -12.333)">
    <path id="Trazado_1328263" data-name="Trazado 1328263" d="M107.409,192.167c-.989,0-1.974-.023-2.954-.056l-.861-.034c-.8-.035-1.59-.079-2.373-.134l-.63-.042q-1.468-.114-2.926-.28l-.507-.061c-2.068-.243-4.13-.559-6.118-.938l-.315-.062q-1.147-.224-2.283-.476l-.548-.125c-.745-.172-1.445-.342-2.143-.521l-.511-.13c-1.714-.451-3.439-.962-5.114-1.515l-.391-.133q-1.038-.349-2.073-.725l-.591-.218c-.652-.244-1.29-.489-1.923-.743l-.557-.223c-.8-.327-1.6-.662-2.387-1.011a86.921,86.921,0,0,1-51.74-79.527c0-2.78.133-5.564.4-8.277a86.733,86.733,0,0,1,4.079-19.308,85.53,85.53,0,0,1,3.209-8.181A87.719,87.719,0,0,1,63.81,29.977C69.495,21,78.946,19.3,82.234,18.983a26.324,26.324,0,0,1,9.261-1.763,22.573,22.573,0,0,1,5.55.685,21.373,21.373,0,0,1,31.477,2.96,86.832,86.832,0,0,1,65.78,81.341q.051,1.487.052,3.007a86.094,86.094,0,0,1-8.389,37.278c-.182,3.164-.436,6.16-.757,8.922,0,.042-.009.084-.014.127-1.024,8.738-2.716,15.243-5.174,19.88h0a20.561,20.561,0,0,1-1.287,2.161,34.668,34.668,0,0,1-11.922,10.761,43.862,43.862,0,0,1-4.312,2.119,55.444,55.444,0,0,1-11.2,3.387l-.5.092a67.928,67.928,0,0,1-12.386,1.131h0a51.571,51.571,0,0,1-11.349-1.143A86.952,86.952,0,0,1,107.409,192.167Z" fill="#fcfcfc"/>
    <g id="Grupo_1207721" data-name="Grupo 1207721" transform="translate(25.869 17.315)">
      <path id="Trazado_1328264" data-name="Trazado 1328264" d="M191.063,107.771a81.963,81.963,0,1,1-163.927,0q0-3.947.373-7.8a81.611,81.611,0,0,1,3.844-18.208,80.051,80.051,0,0,1,3.022-7.7,81.95,81.95,0,0,1,156.637,30.868Q191.062,106.34,191.063,107.771Z" transform="translate(-27.136 -19.873)" fill="#6e79b7"/>
      <circle id="Elipse_13818" data-name="Elipse 13818" cx="10.387" cy="10.387" r="10.387" transform="matrix(0.23, -0.973, 0.973, 0.23, 19.44, 46.515)" fill="#eba04d"/>
      <g id="Grupo_1207689" data-name="Grupo 1207689" transform="translate(1.603 16.364)">
        <path id="Trazado_1328265" data-name="Trazado 1328265" d="M186.9,47.116H161.4c.863-1.378,1.66-2.8,2.631-4.11a10,10,0,0,1,5.87-4.234c2.425-.457,5.281.839,5.9,3.229.365-.664.763-1.32,1.187-1.943A81.752,81.752,0,0,1,186.9,47.116Z" transform="translate(-54.227 -38.681)" fill="#fce2e0"/>
        <path id="Trazado_1328266" data-name="Trazado 1328266" d="M30.924,95.738a4.188,4.188,0,0,1,.979,1.785,24.049,24.049,0,0,1,10.021-9.839c2.9-1.511,6.327-2.408,9.457-1.445,5.064,1.561,7.488,7.19,9.141,12.221a9.7,9.7,0,0,1,16.447,4.591H29.114Z" transform="translate(-29.114 -47.633)" fill="#fce2e0"/>
      </g>
      <path id="Trazado_1328267" data-name="Trazado 1328267" d="M191.3,126.311A81.965,81.965,0,0,1,28.386,139.2a5.554,5.554,0,0,1,3.254-.29c2.1.473,3.645,2.2,5.048,3.827q3.662,4.272,7.331,8.543A56.589,56.589,0,0,1,53.236,130.5c2.192-3.079,5.04-6.127,8.784-6.65,3.355-.457,6.651,1.245,9.341,3.321,6.849,5.289,11.325,13.027,15.293,20.715,4.683,9.091,8.909,18.415,13.118,27.731,6.268-6.8,10.511-15.169,15.144-23.181s9.93-15.966,17.585-21.147c7.672-5.181,18.225-7.015,26.2-2.341,8.07,4.724,11.466,14.447,17.253,21.794a71.753,71.753,0,0,1,15.294-27.274Q191.3,124.879,191.3,126.311Z" transform="translate(-27.373 -38.412)" fill="#f5bb0b"/>
      <g id="Grupo_1207720" data-name="Grupo 1207720" transform="translate(33.805)">
        <g id="Grupo_1207694" data-name="Grupo 1207694" transform="translate(14.935 131.006)">
          <path id="Trazado_1328268" data-name="Trazado 1328268" d="M140.4,216.616a81.685,81.685,0,0,1-19.876,2.432,80.751,80.751,0,0,1-12.438-.946,3.475,3.475,0,0,1-.415-.058,81.4,81.4,0,0,1-20.333-5.994c-.341-11.44,1.652-23.7,2.665-29.067.025-.141.05-.282.075-.415.291-1.519.482-2.383.482-2.383l40,.141.6,2.209.108.407Z" transform="translate(-87.295 -180.184)" fill="#1f263b"/>
          <g id="Grupo_1207693" data-name="Grupo 1207693" transform="translate(2.703 2.065)">
            <g id="Grupo_1207690" data-name="Grupo 1207690">
              <path id="Trazado_1328269" data-name="Trazado 1328269" d="M133.872,182.909a.214.214,0,0,1-.166.241c-.607.1-1.2.191-1.811.274a102.312,102.312,0,0,1-12.221,1.022c-.888.024-1.785.033-2.682.033-2.416,0-4.832-.066-7.232-.166-.141,0-.274-.009-.415-.017-1.287-.049-2.574-.108-3.844-.166l-6.733-.3-.424-.025-7.713-.34c.025-.141.05-.282.075-.415l14.82.672c1.3.058,2.607.117,3.919.166a2.146,2.146,0,0,0,.233.008c3.313.133,6.667.216,9.988.133a100.664,100.664,0,0,0,12.122-1.013c.623-.083,1.237-.182,1.852-.283A.206.206,0,0,1,133.872,182.909Z" transform="translate(-90.632 -182.732)" fill="#fceeed"/>
            </g>
            <g id="Grupo_1207691" data-name="Grupo 1207691" transform="translate(17.668 1.123)">
              <path id="Trazado_1328270" data-name="Trazado 1328270" d="M113.91,184.335l-.009.241-1.046,34.273a3.475,3.475,0,0,1-.415-.058l.432-14.155.016-.59.6-19.486.008-.241a.182.182,0,0,1,.092-.166.219.219,0,0,1,.116-.033.2.2,0,0,1,.117.041A.2.2,0,0,1,113.91,184.335Z" transform="translate(-112.44 -184.119)" fill="#fceeed"/>
            </g>
            <g id="Grupo_1207692" data-name="Grupo 1207692" transform="translate(7.684 0.703)">
              <path id="Trazado_1328271" data-name="Trazado 1328271" d="M110.71,204.624a.206.206,0,0,1-.149-.063,39.449,39.449,0,0,1-10.441-20.719.207.207,0,0,1,.409-.068,39.023,39.023,0,0,0,10.331,20.5.208.208,0,0,1-.15.352Z" transform="translate(-100.116 -183.6)" fill="#fceeed"/>
            </g>
          </g>
        </g>
        <g id="Grupo_1207702" data-name="Grupo 1207702" transform="translate(5.766)">
          <path id="Trazado_1328272" data-name="Trazado 1328272" d="M111.2,59.153l1.594,15.3c-6.459,6.883-19.926,6.459-19.926,6.459a33.058,33.058,0,0,0-1.694-11.44s-7.738.315-8.9-.109c-.847-.307-1.47-6.06-1.752-9.207a1.492,1.492,0,0,0-.017-.2c-.091-1.1-.141-1.827-.141-1.827l-4.134-.747,3.919-7.415c.016-.1.033-.19.049-.282.922-5.654,1.262-11.574,4.774-16.373a18.32,18.32,0,0,1,14.786-7.548A18.651,18.651,0,0,1,111.2,59.153Z" transform="translate(-76.027 -19.865)" fill="#e8bfbc"/>
          <path id="Trazado_1328273" data-name="Trazado 1328273" d="M112.011,65.631c-11.657.1-17.062-7.738-17.062-7.738L88.8,54.181a19.094,19.094,0,0,1-3.81-10.81l-5.347-.249a31.826,31.826,0,0,1,.207-6.219,25.1,25.1,0,0,0-1.726,6.144l-2.142-.1C78.942,26.41,94.417,26.2,94.417,26.2l.05-.058c14.1-5.613,24.435,4.185,27.191,15.318S112.011,65.631,112.011,65.631Z" transform="translate(-75.978 -19.627)" fill="#1f263b"/>
          <circle id="Elipse_13819" data-name="Elipse 13819" cx="16.429" cy="16.429" r="16.429" transform="translate(29.992)" fill="#1f263b"/>
          <g id="Grupo_1207696" data-name="Grupo 1207696" transform="translate(12.827 28.547)">
            <path id="Trazado_1328274" data-name="Trazado 1328274" d="M92.8,56.225a5.065,5.065,0,0,1,3.234-2.431,3.713,3.713,0,0,1,3.707,1.337,4.484,4.484,0,0,1,.7,1.747,7.529,7.529,0,0,1-1.391,5.986,4.086,4.086,0,0,1-3.044,1.79,3.73,3.73,0,0,1-2.72-1.38A5.687,5.687,0,0,1,92.8,56.225Z" transform="translate(-91.81 -53.718)" fill="#e8bfbc"/>
            <g id="Grupo_1207695" data-name="Grupo 1207695" transform="translate(1.808 0.474)">
              <path id="Trazado_1328275" data-name="Trazado 1328275" d="M94.064,61.75a8.031,8.031,0,0,1,1.1-4.815A5.583,5.583,0,0,1,99.236,54.3" transform="translate(-94.042 -54.303)" fill="none" stroke="#1f263b" stroke-linecap="round" stroke-linejoin="round" stroke-width="0.256"/>
              <path id="Trazado_1328276" data-name="Trazado 1328276" d="M94.071,61.43a2.793,2.793,0,0,1,1.44-1.71,4.968,4.968,0,0,1,2.151-.552" transform="translate(-94.048 -55.227)" fill="none" stroke="#1f263b" stroke-linecap="round" stroke-linejoin="round" stroke-width="0.256"/>
            </g>
          </g>
          <g id="Grupo_1207701" data-name="Grupo 1207701" transform="translate(3.602 27.056)">
            <g id="Grupo_1207697" data-name="Grupo 1207697" transform="translate(0.88 11.711)">
              <path id="Trazado_1328277" data-name="Trazado 1328277" d="M84.2,66.512a4.43,4.43,0,0,1-2.674,1.346,1.492,1.492,0,0,0-.017-.2,4.238,4.238,0,0,0,2.541-1.287.1.1,0,0,1,.15-.008A.105.105,0,0,1,84.2,66.512Z" transform="translate(-81.511 -66.333)" fill="#1f263b"/>
            </g>
            <g id="Grupo_1207698" data-name="Grupo 1207698" transform="translate(0 9.831)">
              <path id="Trazado_1328278" data-name="Trazado 1328278" d="M81.641,65.466H81.63a.106.106,0,0,1-.085-.063l-.458-1.078-.476.648a.1.1,0,0,1-.145.023.1.1,0,0,1-.023-.145l.583-.795a.112.112,0,0,1,.1-.042.1.1,0,0,1,.083.062l.457,1.074.714-1.014a.1.1,0,0,1,.145-.025.1.1,0,0,1,.024.144l-.821,1.166A.1.1,0,0,1,81.641,65.466Z" transform="translate(-80.424 -64.013)" fill="#1f263b"/>
            </g>
            <g id="Grupo_1207699" data-name="Grupo 1207699" transform="translate(1.517 2.657)">
              <path id="Trazado_1328279" data-name="Trazado 1328279" d="M84.036,56.517c0,.751-.39,1.36-.87,1.36s-.869-.609-.869-1.36.389-1.36.869-1.36S84.036,55.765,84.036,56.517Z" transform="translate(-82.297 -55.157)" fill="#1f263b"/>
            </g>
            <g id="Grupo_1207700" data-name="Grupo 1207700" transform="translate(1.593)">
              <path id="Trazado_1328280" data-name="Trazado 1328280" d="M84.321,53.193a.207.207,0,0,1-.172-.092,1.9,1.9,0,0,0-1.549-.808.213.213,0,0,1-.21-.2.207.207,0,0,1,.2-.21h.032a2.277,2.277,0,0,1,1.867.991.207.207,0,0,1-.056.288A.205.205,0,0,1,84.321,53.193Z" transform="translate(-82.39 -51.878)" fill="#1f263b"/>
            </g>
          </g>
        </g>
        <path id="Trazado_1328281" data-name="Trazado 1328281" d="M93.61,85.777s12.436.847,19.5-5.371l1.272,4.1s12.153,9.327,13.849,19.22.989,57.658.989,57.658-19.643,5.653-39.993-.141l-1.555-20.633s-9.186-13.991-7.066-20.351S93.643,91.285,93.643,91.285Z" transform="translate(-71.031 -30.237)" fill="#fcfcfc"/>
        <g id="Grupo_1207703" data-name="Grupo 1207703" transform="translate(33.931 111.807)">
          <path id="Trazado_1328282" data-name="Trazado 1328282" d="M120.738,165.81a39.883,39.883,0,0,1-10-1.266l1.04-4.019a36.7,36.7,0,0,0,27.635-4.039l2.148,3.553A40.362,40.362,0,0,1,120.738,165.81Z" transform="translate(-110.743 -156.486)" fill="#eba04d"/>
        </g>
        <g id="Grupo_1207707" data-name="Grupo 1207707" transform="translate(0 61.687)">
          <g id="Grupo_1207706" data-name="Grupo 1207706">
            <g id="Grupo_1207705" data-name="Grupo 1207705" transform="translate(0 10.529)">
              <g id="Grupo_1207704" data-name="Grupo 1207704" transform="translate(0.957 19.784)">
                <path id="Trazado_1328283" data-name="Trazado 1328283" d="M99.7,132.562l1.413,18.513,7.773,24.024s8.2-.283,10.175-11.023.989-29.395.989-29.395Z" transform="translate(-75.672 -132.137)" fill="#e8bfbc"/>
                <path id="Trazado_1328284" data-name="Trazado 1328284" d="M103.254,175s-6.077.425-14.133-9.186-19.078-28.546-19.078-28.546l7.914-5.23,24.025,21.623Z" transform="translate(-70.043 -132.038)" fill="#e8bfbc"/>
              </g>
              <path id="Trazado_1328285" data-name="Trazado 1328285" d="M69.819,132.632a12.093,12.093,0,0,1,.283-9.963c2.614-4.946,5.087-10.246,5.794-10.881a44.773,44.773,0,0,1,5.794-3.463l3.533-.706-.847,3.038s-2.473.141-2.614,1.2-.636,2.9-.636,2.9a11.9,11.9,0,0,0,3.674-2.686c1.342-1.625,1.978-3.25,2.9-2.826s-1.06,6.5-1.978,7.984-8.2,8.692-6.5,11.447Z" transform="translate(-68.861 -107.618)" fill="#e8bfbc"/>
            </g>
            <path id="Trazado_1328286" data-name="Trazado 1328286" d="M104.132,94.693S94.1,99.922,93.532,110.8s0,23.742,0,23.742l28.264.848.848-25.721S117.557,93.421,104.132,94.693Z" transform="translate(-73.497 -94.622)" fill="#fcfcfc"/>
          </g>
          <path id="Trazado_1328287" data-name="Trazado 1328287" d="M107.625,98.9s-11.023,1.131-12.578,9.045,1.131,27.7,1.131,27.7l24.731.283v-13.85" transform="translate(-73.74 -95.434)" fill="none" stroke="#1f263b" stroke-linecap="round" stroke-linejoin="round" stroke-width="0.512"/>
        </g>
        <g id="Grupo_1207719" data-name="Grupo 1207719" transform="translate(14.559 23.669)">
          <g id="Grupo_1207708" data-name="Grupo 1207708">
            <path id="Trazado_1328288" data-name="Trazado 1328288" d="M86.832,109.668a37.092,37.092,0,0,1,3.816-10.6C93.3,94.723,96.9,89,106.334,88.47S128.7,100.341,128.7,100.341l1.378,7.949S117.994,93.24,107.182,94.512,90.965,106.7,90.965,106.7Z" transform="translate(-86.832 -55.434)" fill="#eba04d"/>
            <path id="Trazado_1328289" data-name="Trazado 1328289" d="M203.782,144.24c-.033,1.146-.083,2.292-.142,3.412-.174,3.463-.44,6.792-.805,9.938a.292.292,0,0,0-.008.083c-.872,7.439-2.341,13.832-4.65,18.166a.032.032,0,0,1-.008.017,15.786,15.786,0,0,1-.979,1.644,29.748,29.748,0,0,1-10.245,9.216,38.762,38.762,0,0,1-3.819,1.876,50.62,50.62,0,0,1-10.2,3.08c-.158.025-.307.058-.457.083-11.158,2.076-21.894.73-24.883-1.113-5.513-3.387-7.206-16.53-8.477-30.944-.283-3.155-.531-8.834-.747-15.783-.033-1.1-.066-2.234-.092-3.387-.3-10.412-.54-22.99-.715-34.115-.016-1.179-.032-2.333-.041-3.471-.033-1.669-.049-3.3-.075-4.873v-.009c-.033-2.225-.058-4.334-.083-6.284-.075-5.6-.117-9.947-.142-12.131,0-.141,0-.282-.008-.407-.008-.747-.008-1.154-.008-1.154a50.834,50.834,0,0,1,2.973-18.017,18.655,18.655,0,0,1,3.595-6.062c.116-.132.233-.257.357-.382,7.654-8,21.728-6.866,33.774-2.674,14.629,5.081,20.989,23.737,22.259,31.367.15.913.4,2.707.706,5.2.008.141.033.283.041.424C202.237,99.132,204.488,123.243,203.782,144.24Z" transform="translate(-96.389 -47.697)" fill="#eba04d"/>
          </g>
          <g id="Grupo_1207714" data-name="Grupo 1207714" transform="translate(41.121 40.808)">
            <g id="Grupo_1207709" data-name="Grupo 1207709" transform="translate(0 14.438)">
              <path id="Trazado_1328290" data-name="Trazado 1328290" d="M175.839,124.9c-.142-.016-.283-.024-.424-.041-12.3-1.054-27.432-2.665-37.786-5.5-.016-1.179-.032-2.333-.041-3.471,9.9,2.881,25.058,4.542,37.487,5.613.141.016.282.024.423.033C175.63,122.672,175.747,123.8,175.839,124.9Z" transform="translate(-137.588 -115.888)" fill="#fce2e0"/>
            </g>
            <g id="Grupo_1207710" data-name="Grupo 1207710" transform="translate(0.756 51.858)">
              <path id="Trazado_1328291" data-name="Trazado 1328291" d="M177.634,165.43c-.141.033-.282.058-.424.083a108.211,108.211,0,0,1-38.6.117c-.033-1.1-.066-2.234-.092-3.387a104.89,104.89,0,0,0,38.623-.092l.424-.075C177.593,163.188,177.618,164.309,177.634,165.43Z" transform="translate(-138.521 -162.076)" fill="#fce2e0"/>
            </g>
            <g id="Grupo_1207711" data-name="Grupo 1207711" transform="translate(40.65 6.086)">
              <path id="Trazado_1328292" data-name="Trazado 1328292" d="M196.547,197.7a38.758,38.758,0,0,1-3.819,1.876c2.789-11.848,3.254-24.086,2.889-35.685-.041-1.179-.083-2.341-.141-3.5-.191-4.243-.482-8.386-.781-12.379-.73-9.581-1.527-17.377-2.507-24.509-.016-.108-.024-.207-.041-.307-.141-1.022-.29-2.042-.456-3.072a40.321,40.321,0,0,0-3.928-12.96l.9-.49,2.017-1.1c.058.108.117.215.166.323,2.425,4.567,3.5,9.59,4.251,14.488.117.788.233,1.569.34,2.349.009.041.009.083.017.125v.008c1,7.257,1.818,15.161,2.557,24.883.283,3.7.548,7.539.739,11.466q.087,1.718.15,3.462C199.3,173.992,198.971,185.956,196.547,197.7Z" transform="translate(-187.762 -105.579)" fill="#fce2e0"/>
            </g>
            <g id="Grupo_1207712" data-name="Grupo 1207712" transform="translate(57.429)">
              <path id="Trazado_1328293" data-name="Trazado 1328293" d="M216.469,157.372c.017,3.254-.008,6.518-.1,9.78a.292.292,0,0,0-.008.083c-.872,7.439-2.341,13.832-4.65,18.166a217.772,217.772,0,0,0,1.445-27.257q0-1.706-.024-3.412c-.075-6.659-.308-13.284-.54-19.843-.315-8.926-.647-18.15-1.867-27.116a27.676,27.676,0,0,0-2.085-8.211c-.049-.117-.108-.224-.166-.341l.266-.133,2.865-1.021.174.373a31.179,31.179,0,0,1,2.242,8.884c1.237,9.125,1.569,18.44,1.893,27.449.224,6.344.448,12.761.531,19.2C216.46,155.105,216.469,156.235,216.469,157.372Z" transform="translate(-208.473 -98.067)" fill="#fce2e0"/>
            </g>
            <g id="Grupo_1207713" data-name="Grupo 1207713" transform="translate(39.355 55.735)">
              <path id="Trazado_1328294" data-name="Trazado 1328294" d="M213.081,166.861c-.033,1.146-.083,2.292-.142,3.412-.241.05-.473.1-.706.158q-1.669.349-3.313.772-5.243,1.308-10.328,3.113c-1.1.382-2.192.78-3.28,1.212-2.956,1.137-5.853,2.408-8.717,3.795-.142.066-.291.141-.432.215.041-1.245.075-2.49.091-3.736a4.635,4.635,0,0,1,.424-.2q4.184-1.969,8.494-3.579c1.079-.416,2.175-.805,3.271-1.171q5.144-1.782,10.454-3.064c1.1-.274,2.209-.523,3.313-.755Q212.644,166.936,213.081,166.861Z" transform="translate(-186.164 -166.861)" fill="#fce2e0"/>
            </g>
          </g>
          <g id="Grupo_1207718" data-name="Grupo 1207718" transform="translate(40.814 5.929)">
            <g id="Grupo_1207715" data-name="Grupo 1207715" transform="translate(0 25.564)">
              <path id="Trazado_1328295" data-name="Trazado 1328295" d="M200.906,95.32l-2.657.938-3.139,1.121-13.865,4.914-2.183.772-.008.009-5.721,2.025-.4.141-.016.009-.083-.133a40.252,40.252,0,0,0-35.618-18.092c0-.141,0-.282-.008-.407a40.632,40.632,0,0,1,35.884,18.133l9.473-3.363.39-.141,12.255-4.343,2.865-1.021,2.789-.988C200.873,95.037,200.9,95.179,200.906,95.32Z" transform="translate(-137.209 -86.569)" fill="#1f263b"/>
            </g>
            <g id="Grupo_1207716" data-name="Grupo 1207716" transform="translate(6.559)">
              <path id="Trazado_1328296" data-name="Trazado 1328296" d="M184.1,95.408V95.4a61.376,61.376,0,0,0-9.059-20.972,46.88,46.88,0,0,0-14.313-14.139A33.19,33.19,0,0,0,145.3,55.4c.116-.132.233-.257.357-.382a33.55,33.55,0,0,1,15.285,4.923,47.333,47.333,0,0,1,14.447,14.256,61.911,61.911,0,0,1,9.1,21.064c.009.017.009.041.017.058Z" transform="translate(-145.305 -55.015)" fill="#1f263b"/>
            </g>
            <g id="Grupo_1207717" data-name="Grupo 1207717" transform="translate(35.261 43.921)">
              <path id="Trazado_1328297" data-name="Trazado 1328297" d="M185.647,164.664c-.016,1.237-.041,2.482-.083,3.719a173.676,173.676,0,0,1-4.376,34.97c-.158.025-.307.058-.457.083a172.231,172.231,0,0,0,4.4-34.838c.041-1.245.075-2.49.091-3.736q.088-4.7,0-9.383c-.008-1.12-.033-2.242-.066-3.362-.19-7.68-.63-15.285-1.12-22.758-.125-1.8-.25-3.745-.432-5.762-.092-1.1-.207-2.225-.34-3.362a64.861,64.861,0,0,0-2.068-10.694,1.646,1.646,0,0,0-.049-.19l.4-.125c.016.058.032.116.049.174a65.341,65.341,0,0,1,2.092,10.868c.133,1.137.25,2.266.341,3.37.174,1.993.3,3.911.423,5.7.49,7.456.93,15.045,1.129,22.708.025,1.112.05,2.233.066,3.354C185.7,158.478,185.706,161.566,185.647,164.664Z" transform="translate(-180.732 -109.227)" fill="#1f263b"/>
            </g>
          </g>
          <path id="Trazado_1328298" data-name="Trazado 1328298" d="M190.707,102.7l3.286-1.272s2.119,3.6,2.332,10.387l-3.6.53S191.555,104.711,190.707,102.7Z" transform="translate(-106.55 -57.896)" fill="#1f263b"/>
        </g>
      </g>
    </g>
  </g>
</svg>
