<svg xmlns="http://www.w3.org/2000/svg" width="129" height="127" viewBox="0 0 129 127">
  <g id="Grupo_1207848" data-name="Grupo 1207848" transform="translate(-392.059 -6372.663)">
    <g id="Grupo_1207847" data-name="Grupo 1207847">
      <g id="Grupo_108927" data-name="Grupo 108927" transform="translate(2 1905.663)">
        <rect id="Rectángulo_36179" data-name="Rectángulo 36179" width="129" height="127" transform="translate(390.059 4467)" fill="#f9f7f0"/>
      </g>
      <g id="Grupo_1207765" data-name="Grupo 1207765" transform="translate(-802.728 5916.566)">
        <path id="Trazado_1328466" data-name="Trazado 1328466" d="M1263.213,483.19v-9.638c0-3.683,0-3.683,3.643-3.683,2.878,0,5.759-.074,8.631.048a3.185,3.185,0,0,1,2.309,1.031c1.94,3.156,4.642,3.919,8.216,3.7,5.209-.312,10.451-.085,15.678-.078,2.6,0,3.677,1.058,3.68,3.635q.013,9.281,0,18.561c0,2.727-.984,3.685-3.766,3.69-4.839.008-9.677,0-14.718,0v1.614q0,13.885,0,27.77a37.744,37.744,0,0,1-24.249,35.767c-2.845,1.137-5.671,2.323-8.53,3.424a2.914,2.914,0,0,1-1.92.215c-5.1-2.172-10.436-3.982-15.189-6.771-9.487-5.567-15.27-14.063-17.419-24.891a38.352,38.352,0,0,1-.663-7.277c-.059-14.82-.031-29.64-.029-44.46,0-2.383.276-2.662,2.63-2.662q19.856,0,39.712,0Zm0,3.258c-1.67,0-3.154.1-4.618-.029-1.359-.119-1.857.338-2.169,1.691-1.349,5.847-5.57,8.984-10.973,8.275-1.946-.255-3.881-.608-5.81-.975-4.823-.919-7.6.382-9.767,4.693a9.558,9.558,0,0,1-6.5,5.224c-1.023.25-1.268.624-1.263,1.613.04,7.961-.156,15.926.065,23.881.347,12.514,5.867,22.333,16.559,28.839,4.172,2.539,8.945,4.1,13.48,6.019a2.891,2.891,0,0,0,1.9-.2c2.327-.884,4.6-1.9,6.928-2.785a34.647,34.647,0,0,0,22.514-32.807c-.159-9.2-.03-18.415-.03-27.622v-1.806h-1.746q-7.41,0-14.819,0c-2.761,0-3.744-.977-3.751-3.7C1263.206,493.4,1263.212,490.052,1263.212,486.447Zm3.3,10.56h35.532V477.933h-1.628c-5.224,0-10.463-.242-15.668.081-3.751.233-6.623-.612-8.588-3.925-.225-.379-.686-.868-1.049-.878-2.853-.072-5.708-.04-8.6-.04Zm-44.333,5.106a6.289,6.289,0,0,0,4.822-3.687c2.578-5.186,6.278-7.153,12.027-6.4,2.606.342,5.205.854,7.822.974a6.439,6.439,0,0,0,6.453-6.449h-31.124Z" transform="translate(0 0)"/>
        <path id="Trazado_1328467" data-name="Trazado 1328467" d="M1297.979,600.668a26.4,26.4,0,1,1-26.424-26.264A26.328,26.328,0,0,1,1297.979,600.668Zm-44.7,14c1.979-1.382,3.791-2.744,5.7-3.947a4.732,4.732,0,0,0,2.323-2.929,4.767,4.767,0,0,1,1.321-2.151c3.773-3.518,10.971-1.7,12.76,3.127a5.075,5.075,0,0,1-.843,5.317h2.812c-.891-4.673.544-6.654,5.172-7.144,3.67-.389,7.367-.787,10.774,1.2,3.05-7.477,1.088-18.113-6.531-24.772-7.388-6.457-17.972-6.77-23.279-3.892,1.51,2.647,1.071,4.768-1.337,6.452-.039.027-.084.047-.123.074-2.135,1.471-2.128,1.561.025,3.112a27.7,27.7,0,0,1,2.507,1.921,5.338,5.338,0,0,1,1.227,6.908,9.706,9.706,0,0,1-5.984,5.062,36.094,36.094,0,0,1-5.757.7c1.031,4.62.876,5.4-2.011,9.268Zm2.86,2.974c10.7,10.449,29.326,7.008,35.84-6.383a15.932,15.932,0,0,0-1.914-.875c-2.607-.812-5.232-.325-7.843.006-1.862.235-2.073.595-1.639,2.418.547,2.294-.32,4.044-2.615,4.432a11.781,11.781,0,0,1-4.911-.233c-2.547-.692-3.062-2.924-1.272-4.863a2.009,2.009,0,0,0,.376-2.478c-1.068-2.314-4.954-3.34-7-1.819a1.78,1.78,0,0,0-.655.894c-.679,2.7-2.513,4.31-4.935,5.433A5.949,5.949,0,0,0,1256.134,617.642Zm3.916-36.661c-10.865,5.739-14.036,19.833-9.478,28.778a8.188,8.188,0,0,0,.624-2.34,28.263,28.263,0,0,0-.689-3.789c-.656-3.078,1.076-4.686,4.048-3.741a6.9,6.9,0,0,0,8.132-3.208c.825-1.5.718-2.311-.594-3.4-1.069-.885-2.273-1.611-3.315-2.524-2.359-2.068-2.248-4.783.214-6.746.336-.267.721-.472,1.069-.725C1261.4,582.318,1261.4,582.059,1260.05,580.981Z" transform="translate(-18.732 -74.456)"/>
        <path id="Trazado_1328468" data-name="Trazado 1328468" d="M1424.5,512.831c1.188.905,2.343,1.758,3.467,2.65.992.787,1.21,1.855.523,2.6-.813.887-1.678.706-2.547.033-1.135-.879-2.287-1.735-3.416-2.588-3.743,2.458-7.718,2.392-10.76-1.113a7.3,7.3,0,0,1-.058-9.406,7.542,7.542,0,0,1,9.35-1.948C1424.576,504.954,1425.818,508.382,1424.5,512.831Zm-6.86.975a4.168,4.168,0,0,0,4.171-4.213,4.271,4.271,0,0,0-4.325-4.1,4.1,4.1,0,0,0-4.032,4.184A4.008,4.008,0,0,0,1417.638,513.806Z" transform="translate(-136.113 -23.039)"/>
        <path id="Trazado_1328469" data-name="Trazado 1328469" d="M1344.554,616.01a9.194,9.194,0,0,1-5.44-2.253,3.716,3.716,0,0,1-.528-5.489,2.466,2.466,0,0,0,.1-3.157c-1.668-2.744-1.328-4.092,1.466-5.71a35.028,35.028,0,0,1,3.656-1.958,6.288,6.288,0,0,1,7.4,1.789,4.4,4.4,0,0,1,1.082,3.569,23.242,23.242,0,0,0,.024,4.574C1352.719,612.123,1349.423,616.074,1344.554,616.01Zm-3.471-13.341c1.776,2.634,2.177,5.131.156,7.667-.144.181.158,1,.466,1.212,1.621,1.125,3.471,1.636,5.255.617,1.812-1.035,2.164-2.892,2-4.879a22.689,22.689,0,0,1-.121-3.983c.211-2.161-1.5-3.686-3.525-2.858C1343.881,601.031,1342.554,601.884,1341.083,602.668Z" transform="translate(-84.552 -90.484)"/>
      </g>
    </g>
  </g>
</svg>
