<svg xmlns="http://www.w3.org/2000/svg" width="104" height="124.416" viewBox="0 0 104 124.416">
  <g id="Grupo_1207857" data-name="Grupo 1207857" transform="translate(8482.711 7814)">
    <g id="Grupo_1207595" data-name="Grupo 1207595">
      <circle id="Elipse_13777" data-name="Elipse 13777" cx="52" cy="52" r="52" transform="translate(-8482.711 -7814)" fill="#fbe49d"/>
      <g id="Grupo_1207592" data-name="Grupo 1207592" transform="translate(-9387.36 -8388.352)">
        <path id="Trazado_1327923" data-name="Trazado 1327923" d="M1010.619,656.276c1.369,1.366,2.806,2.587,3.983,4.021a14.938,14.938,0,0,1,3.114,9.763c.017,3.916.006,7.832,0,11.749a6.042,6.042,0,0,1-.07.962c-.193,1.18-.6,1.581-1.814,1.6-1.984.038-3.97.013-5.955.014h-1.637v1.438a31.5,31.5,0,0,1,4.044,1.779,10.546,10.546,0,0,1,5.317,8.85c.086,1.7-.417,2.267-2.12,2.271q-12.956.027-25.912,0c-1.633,0-2.094-.538-2.07-2.15a10.967,10.967,0,0,1,7.057-9.861c.7-.256,1.418-.465,2.251-.735.035-.409.075-.864.118-1.366a2.7,2.7,0,0,0-.662-.206c-2.038-.016-4.077-.013-6.115-.019a10.137,10.137,0,0,1-1.286-.034A1.415,1.415,0,0,1,987.514,683a1.785,1.785,0,0,1-.029-.32c.03-5.149-.117-10.308.153-15.445.19-3.613,2.085-6.6,4.747-9.037.668-.613,1.414-1.141,2.3-1.844-6.942-2.48-12.262-6.76-15.567-13.331a25.182,25.182,0,0,1-1.3-20.418,26.264,26.264,0,0,1,50.249,2.519,25.22,25.22,0,0,1-2.7,19.1A26.344,26.344,0,0,1,1010.619,656.276Zm3.674,24.737c0-4.536.016-8.871-.018-13.2a6.956,6.956,0,0,0-.39-1.877,11.724,11.724,0,0,0-15.227-7.726,11.4,11.4,0,0,0-7.921,10.966c-.079,3.64-.024,7.284-.017,10.926a5.651,5.651,0,0,0,.152.916Zm11.227-49.585a22.976,22.976,0,1,0-23.037,22.808A22.875,22.875,0,0,0,1025.519,631.428Zm-11.367,64a7.725,7.725,0,0,0-7.643-6.235c-2.621-.062-5.246-.031-7.868,0a10.053,10.053,0,0,0-2.063.266,7.3,7.3,0,0,0-5.5,5.97Zm-9.345-10.936h-4.562c.027.5.048.9.069,1.277h4.563C1004.851,685.29,1004.831,684.932,1004.808,684.5Z" transform="translate(-46.69)" fill="#83433e"/>
        <path id="Trazado_1327924" data-name="Trazado 1327924" d="M1124.032,789.422v-2.877c-.275-.182-.628-.4-.971-.643a11.8,11.8,0,0,1-5.373-10.057c-.038-3.431.052-6.864-.023-10.294a7.672,7.672,0,0,1,7.816-7.821c1.711.084,3.431,0,5.146.021a5.906,5.906,0,0,1,5.6,3.621,2.153,2.153,0,0,0,1.545,1.376,5.1,5.1,0,0,1,3.781,4.851c.065,3.108.119,6.224-.029,9.326a10.469,10.469,0,0,1-4.628,8.434,3.15,3.15,0,0,0-1.457,3.807c1.1.276,2.265.467,3.355.856a10.974,10.974,0,0,1,7.484,9.047,6.156,6.156,0,0,1,.074,1.282c-.043,1.2-.561,1.725-1.78,1.836-.319.029-.643.011-.965.011-8.739,0-17.479-.053-26.217.032-2.711.026-3.163-1.208-2.732-3.373a11.207,11.207,0,0,1,8.108-9.069C1123.166,789.66,1123.573,789.554,1124.032,789.422Zm-3.054-21.778h0c0,.75-.037,1.5.006,2.249a8.356,8.356,0,0,0,5.072,7.589,8.212,8.212,0,0,0,9.04-1.146c2.505-1.991,3.307-4.7,3.27-7.828a2.58,2.58,0,0,0-2.695-2.868c-1.719-.1-1.878-.3-2.17-1.945a2.837,2.837,0,0,0-3.058-2.662c-1.766-.045-3.535-.052-5.3,0a4.135,4.135,0,0,0-4.165,4.2C1120.951,766.036,1120.978,766.841,1120.978,767.644Zm-2.887,31.211h24.821a13.955,13.955,0,0,0-.615-1.755,7.573,7.573,0,0,0-6.771-4.417c-3.367-.121-6.745-.108-10.113-.008A7.576,7.576,0,0,0,1118.092,798.854ZM1137.6,778.89c-5.843,4.021-11.66,3.24-16.26-.6a8.036,8.036,0,0,0,4.232,5.267,2.763,2.763,0,0,1,1.8,3.045,25.471,25.471,0,0,0,.022,2.628h4.548c0-1.2,0-2.271,0-3.34a2.089,2.089,0,0,1,1.287-2.046,8.094,8.094,0,0,0,.863-.43A7.532,7.532,0,0,0,1137.6,778.89Z" transform="translate(-140.448 -103.463)" fill="#83433e"/>
        <path id="Trazado_1327925" data-name="Trazado 1327925" d="M916.76,789.418c.034-.354.054-.618.086-.88a2.9,2.9,0,0,0-1.416-3.047,11.045,11.045,0,0,1-4.832-9.327c-.031-3.592.05-7.186-.024-10.777a7.552,7.552,0,0,1,7.609-7.663c1.6.093,3.217.043,4.825.008a6.241,6.241,0,0,1,6.357,4.225c.061.147.141.286.25.506.261.061.569.12.869.206a5.338,5.338,0,0,1,3.97,5.076c.051,2.948.108,5.9-.02,8.846a11.472,11.472,0,0,1-4.642,8.806c-.5.4-1.052.736-1.656,1.155v2.624c1.137.264,2.233.465,3.3.774a11.075,11.075,0,0,1,7.8,9.844c.165,1.584-.484,2.328-2.067,2.387-1.178.043-2.359.011-3.538.011h-23c-.322,0-.643.006-.965,0-1.837-.043-2.43-.627-2.24-2.487a10.914,10.914,0,0,1,7.083-9.526C915.193,789.892,915.917,789.7,916.76,789.418Zm3.981-28.393v-.01c-.856,0-1.713-.021-2.568,0a4.169,4.169,0,0,0-4.332,4.36c-.031,1.5-.06,3,.013,4.495a8.663,8.663,0,0,0,14.685,5.944c2.16-2.014,2.782-4.6,2.649-7.45-.085-1.822-.653-2.482-2.476-2.7-1.942-.237-1.942-.237-2.352-2.125a2.87,2.87,0,0,0-2.889-2.5C922.562,760.987,921.65,761.025,920.741,761.025ZM910.9,798.836h24.737c-.31-2.892-3.337-6.126-7.446-6.183-3.264-.045-6.529-.037-9.793,0a7.52,7.52,0,0,0-5.229,2.122A6.969,6.969,0,0,0,910.9,798.836Zm3.742-20.109c-.07.174-.146.271-.139.361a1.31,1.31,0,0,0,.12.46,8.123,8.123,0,0,0,3.934,4.075,2.577,2.577,0,0,1,1.676,2.786c-.055.937.03,1.883.053,2.827h4.532c0-.963.054-1.817-.012-2.662a2.775,2.775,0,0,1,1.8-3.037,8.163,8.163,0,0,0,4.232-5.258C925.424,782.534,920.07,782.59,914.645,778.727Z" transform="translate(0 -103.458)" fill="#83433e"/>
        <path id="Trazado_1327926" data-name="Trazado 1327926" d="M945.172,697.07a14.288,14.288,0,0,1-.124,1.75,1.721,1.721,0,0,1-1.55,1.4,1.625,1.625,0,0,1-1.632-1.458,20.7,20.7,0,0,1-.013-3.508,1.531,1.531,0,0,1,1.627-1.44,1.612,1.612,0,0,1,1.592,1.5,12.213,12.213,0,0,1,.016,1.755Z" transform="translate(-23.321 -60.124)" fill="#83433e"/>
        <path id="Trazado_1327927" data-name="Trazado 1327927" d="M945.076,726.462a11.167,11.167,0,0,1-.013,1.595,1.626,1.626,0,0,1-1.713,1.548,1.548,1.548,0,0,1-1.541-1.538,20.817,20.817,0,0,1,.023-3.348,1.624,1.624,0,0,1,1.591-1.506,1.72,1.72,0,0,1,1.628,1.5,12.248,12.248,0,0,1,.016,1.753Z" transform="translate(-23.3 -80.063)" fill="#83433e"/>
        <path id="Trazado_1327928" data-name="Trazado 1327928" d="M1181.9,633.118a13.54,13.54,0,0,1-.012,1.6,1.655,1.655,0,0,1-1.582,1.515,1.575,1.575,0,0,1-1.559-1.353,22.6,22.6,0,0,1,.012-3.818,1.515,1.515,0,0,1,1.62-1.253,1.546,1.546,0,0,1,1.492,1.4,16.3,16.3,0,0,1,.015,1.915Z" transform="translate(-183.952 -16.724)" fill="#83433e"/>
        <path id="Trazado_1327929" data-name="Trazado 1327929" d="M1191.885,649.646a15.706,15.706,0,0,1,1.767.013,1.426,1.426,0,0,1,1.331,1.37,1.362,1.362,0,0,1-1.018,1.612,23.3,23.3,0,0,1-4.294,0c-.7-.062-1.117-.917-1.048-1.6a1.527,1.527,0,0,1,1.334-1.391,1.874,1.874,0,0,1,.32-.026c.536,0,1.073,0,1.609,0Z" transform="translate(-190.693 -30.162)" fill="#83433e"/>
        <path id="Trazado_1327930" data-name="Trazado 1327930" d="M1181.828,662.695c0,.482.038.968-.008,1.445a1.611,1.611,0,0,1-3.22.033,21.532,21.532,0,0,1,.027-3.368,1.526,1.526,0,0,1,1.646-1.428,1.567,1.567,0,0,1,1.539,1.552c.058.583.011,1.177.011,1.766Z" transform="translate(-183.867 -36.775)" fill="#83433e"/>
        <path id="Trazado_1327931" data-name="Trazado 1327931" d="M1162.22,652.861a13.213,13.213,0,0,1-1.834-.166,1.531,1.531,0,0,1-1.256-1.771,1.482,1.482,0,0,1,1.543-1.332c1.068-.05,2.141-.052,3.209,0a1.539,1.539,0,0,1,1.6,1.47,1.615,1.615,0,0,1-1.422,1.669A15.29,15.29,0,0,1,1162.22,652.861Z" transform="translate(-170.689 -30.115)" fill="#83433e"/>
        <path id="Trazado_1327932" data-name="Trazado 1327932" d="M925.512,713.5a17.754,17.754,0,0,1,1.918.1,1.441,1.441,0,0,1,1.261,1.437,1.383,1.383,0,0,1-1.153,1.515,27.292,27.292,0,0,1-4.149-.009,1.348,1.348,0,0,1-1.081-1.554,1.4,1.4,0,0,1,1.283-1.4,15.77,15.77,0,0,1,1.92-.016Z" transform="translate(-10.112 -73.477)" fill="#83433e"/>
        <path id="Trazado_1327933" data-name="Trazado 1327933" d="M955.01,713.569a15.835,15.835,0,0,1,1.915.015,1.523,1.523,0,0,1,.077,2.994,25.3,25.3,0,0,1-3.982-.02,1.311,1.311,0,0,1-1.136-1.506A1.359,1.359,0,0,1,953.1,713.6a17.308,17.308,0,0,1,1.912-.1Z" transform="translate(-30.17 -73.475)" fill="#83433e"/>
        <path id="Trazado_1327934" data-name="Trazado 1327934" d="M947.732,643.9a1.761,1.761,0,0,1-1.745,1.71,1.729,1.729,0,0,1-1.7-1.738,1.8,1.8,0,0,1,1.725-1.734A1.837,1.837,0,0,1,947.732,643.9Z" transform="translate(-25.018 -25.086)" fill="#83433e"/>
        <path id="Trazado_1327935" data-name="Trazado 1327935" d="M1148.162,720.992a1.817,1.817,0,0,1,1.8,1.669,1.966,1.966,0,0,1-1.7,1.8,1.906,1.906,0,0,1-1.785-1.706A1.776,1.776,0,0,1,1148.162,720.992Z" transform="translate(-162.119 -78.556)" fill="#83433e"/>
        <path id="Trazado_1327936" data-name="Trazado 1327936" d="M1021.637,631.218l1.078,1c1.149-1.131,2.173-2.138,3.2-3.146.344-.339.667-.7,1.03-1.017a1.765,1.765,0,0,1,2.882.3,19.319,19.319,0,0,1,3.28,6.225c2.349,7.934.908,15.156-4.76,21.195-5.454,5.811-12.284,7.947-20.187,6.36a20.713,20.713,0,0,1-8.146-3.65c-1.52-1.1-1.6-1.952-.311-3.264,1.238-1.262,2.5-2.5,3.855-3.846l-.938-1.1c-.482.445-.88.791-1.254,1.161-.916.9-1.807,1.833-2.733,2.726-1.271,1.226-2.148,1.173-3.19-.2a20.855,20.855,0,0,1-3.333-6.556,21.307,21.307,0,0,1,12.612-26.067c7.259-2.847,14.176-1.881,20.61,2.574,1.439,1,1.564,2.212.239,3.408C1024.259,628.492,1023.063,629.791,1021.637,631.218Zm.457-5.355c-6.343-4.541-16.953-3.785-23.315,3.594-6.138,7.119-4.856,17.416-1.509,20.982l3.339-2.9c-2.382-5.707-2.053-11.019,2.208-15.505,4.589-4.833,10.182-5.427,16.011-2.942Zm-18.99,30.626c6.338,4.434,16.7,3.969,23.172-3.21,6.208-6.883,5.4-16.938,1.732-21.468l-3.258,3.148c2.844,6.27,1.207,11.628-1.791,14.978-4.664,5.211-10.392,5.843-16.579,3.38Zm7.35-13.065h4.481a16.951,16.951,0,0,0-.136-4.593c-.829,0-1.521-.011-2.212,0s-1.357.053-2.133.086Zm11.4,2.167c-1.239.25-2.321.438-3.383.7a1.027,1.027,0,0,0-.638.6c-.295,1.1-.509,2.228-.807,3.592A9.822,9.822,0,0,0,1021.852,645.59Zm-4.836-13.652c.285,1.309.465,2.3.733,3.273a1.287,1.287,0,0,0,.625.829c1.1.323,2.225.529,3.539.822A10.222,10.222,0,0,0,1017.016,631.938Zm-13.631,13.6a10.5,10.5,0,0,0,4.958,4.932c-.363-1.56-.658-2.825-.938-4.025Zm-.012-8.641c1.41-.324,2.534-.56,3.643-.856a.868.868,0,0,0,.526-.527c.267-1.108.474-2.231.739-3.532A10.519,10.519,0,0,0,1003.373,636.894Zm3.59,6.034V639.36c-1.635.511-3.245.645-4.532,1.956A9.706,9.706,0,0,0,1006.964,642.928Zm11.378.04a9.24,9.24,0,0,0,4.555-1.774,8.819,8.819,0,0,0-4.555-1.71Zm-7.49,3.954c.5,1.646.627,3.248,1.917,4.455,1.085-1.346,1.285-2.868,1.714-4.455Zm.014-11.408h3.672c-.557-1.6-.623-3.212-1.9-4.438C1011.53,632.351,1011.29,633.873,1010.866,635.514Z" transform="translate(-56.812 -9.886)" fill="#83433e"/>
      </g>
    </g>
  </g>
</svg>
