<svg xmlns="http://www.w3.org/2000/svg" width="105.473" height="127.358" viewBox="0 0 105.473 127.358">
  <g id="Grupo_1207858" data-name="Grupo 1207858" transform="translate(8202.701 7814)">
    <g id="Grupo_1207596" data-name="Grupo 1207596">
      <circle id="Elipse_13777" data-name="Elipse 13777" cx="52" cy="52" r="52" transform="translate(-8201.965 -7814)" fill="#fbe49d"/>
      <g id="Grupo_1207593" data-name="Grupo 1207593" transform="translate(-9144.877 -8341.893)">
        <path id="Trazado_1327937" data-name="Trazado 1327937" d="M1004.585,607.957v7.209c1.067.263,2.093.448,3.074.769A14.358,14.358,0,0,1,1017.5,626.3c.613,2.192,1.09,4.422,1.621,6.637.715,2.984-.924,5.061-4.008,5.089-.19,0-.38,0-.57,0-3.1,0-3.11,0-5,2.306a1.58,1.58,0,0,0-.305.893c-.037,1.041-.014,2.084-.014,3.307.758.021,1.45.031,2.141.059a8.842,8.842,0,0,1,8.462,8.4c.036,1.573-.407,2.076-1.989,2.078q-14.609.019-29.219,0c-1.553,0-2.049-.576-1.975-2.106a8.886,8.886,0,0,1,8.37-8.366c.756-.036,1.516-.005,2.484-.005,0-1.252.01-2.417-.011-3.582a.843.843,0,0,0-.25-.483c-.677-.727-1.343-1.47-2.074-2.141a1.681,1.681,0,0,0-1.008-.345c-1.139-.044-2.281.016-3.42-.03a3.769,3.769,0,0,1-3.622-4.6c.562-2.5,1.129-5,1.874-7.45,1.779-5.846,5.74-9.338,11.729-10.531.181-.036.356-.1.719-.207v-7.2c-.668-.027-1.216-.067-1.765-.067q-20.168-.005-40.337,0a16.736,16.736,0,0,1-1.708-.043,4.533,4.533,0,0,1-4.17-4.881,47.016,47.016,0,0,1,3.414-14.931,49.255,49.255,0,0,1,21.53-24.627,48.048,48.048,0,0,1,16.971-5.9c.506-.076,1.006-.2,1.48-.289.61-4.851,2.5-6.957,6.166-6.934,3.637.023,5.59,2.217,6.058,6.908.93.18,1.893.374,2.859.554a49.123,49.123,0,0,1,30.332,18.437,3.172,3.172,0,0,1,.563.974,1.487,1.487,0,0,1-.679,1.726,1.37,1.37,0,0,1-1.715-.157,7.715,7.715,0,0,1-.838-.966,46.429,46.429,0,0,0-43.876-17.173,45.452,45.452,0,0,0-20.642,8.69,46.011,46.011,0,0,0-17.616,27.294,53.124,53.124,0,0,0-.89,6.057c-.177,1.605.4,2.165,2,2.2.285.007.57,0,.855,0q43.544,0,87.088.026c3.118,0,3.038-1.07,2.789-3.23a46.624,46.624,0,0,0-5.521-17.538c-.676-1.214-.559-2.173.28-2.627.857-.465,1.781-.109,2.479,1.184a49.463,49.463,0,0,1,5.934,20.056,4.59,4.59,0,0,1-4.606,5.18c-.474.023-.95.009-1.425.009h-41.864Zm-10.906,26.97c-.348-1.485-.081-2.771-.749-3.981a1.405,1.405,0,0,1,1.191-1.995,13.456,13.456,0,0,1,1.421-.077c2.41-.2,4.678-.666,6.344-2.709.812-.995,2.024-.865,2.942.207A6.518,6.518,0,0,0,1009,628.6c1.031.151,2.077.192,3.113.309,1.3.147,2.039,1.151,1.442,2.159-.715,1.209-.4,2.456-.606,3.862.672,0,1.228.006,1.784,0,1.484-.018,1.633-.207,1.281-1.7-.467-1.986-.954-3.967-1.426-5.952a11.558,11.558,0,0,0-10.56-8.926,11.431,11.431,0,0,0-11.932,8.016c-.754,2.444-1.291,4.955-1.9,7.443-.18.739.075,1.06.866,1.106S992.652,634.926,993.679,634.926Zm22.769,17.018a5.209,5.209,0,0,0-4.657-4.2q-8.548-.162-17.1,0a5.1,5.1,0,0,0-4.59,4.195Zm-13.2-22.709a11.781,11.781,0,0,1-6.573,2.647,6.454,6.454,0,0,0,3.087,6.644,6.865,6.865,0,0,0,7.4-.264c1.675-1.132,3.408-4.22,2.632-6.391A11.74,11.74,0,0,1,1003.248,629.236Zm2.507-72.308a2.734,2.734,0,0,0-1.221-3.095,2.856,2.856,0,0,0-3.093-.011,2.733,2.733,0,0,0-1.249,3.105ZM1000.7,644.5h5.346v-2.049H1000.7Z" transform="translate(-8.059 0)" fill="#83433e"/>
        <path id="Trazado_1327938" data-name="Trazado 1327938" d="M973.009,810.3a9.465,9.465,0,0,1,2.427,5.336c.186,1.763-.3,2.379-2.1,2.381q-14.537.02-29.075,0c-1.73,0-2.255-.674-2.045-2.436.216-1.819.662-2.843,2.33-5.279-1.365-1.335-1.289-3.092-1.191-4.862q.263-4.769.495-9.539a1.619,1.619,0,0,1,.7-1.471,1.514,1.514,0,0,1,2.274.914,4.847,4.847,0,0,1,.055,1.41c-.14,3.181-.3,6.361-.44,9.542a5.694,5.694,0,0,0,.015,1.138c.11.7.578,1.068,1.2.8a13.589,13.589,0,0,1,5.248-.7,14.606,14.606,0,0,0,.106-3.839c-.007-.22-.3-.458-.506-.639a9.72,9.72,0,0,1-3.491-7.649,2.892,2.892,0,0,0-.3-1.2c-.677-1.441-.127-2.4,1.475-2.533.992-.083,1.989-.145,2.97-.3a6.6,6.6,0,0,0,4.153-2.266,1.782,1.782,0,0,1,2.944-.118c1.632,2,3.863,2.443,6.219,2.659.425.039.859,0,1.281.05a1.552,1.552,0,0,1,1.322,2.366,4.522,4.522,0,0,0-.391,1.6,9.523,9.523,0,0,1-3.086,6.967,2.262,2.262,0,0,0-.839,1.974c.063.895.014,1.8.014,2.858.537.036.993.041,1.441.1a28.909,28.909,0,0,1,3.211.507c1.321.337,1.712.09,1.665-1.32q-.088-2.636-.2-5.271c-.134-3.086-.285-6.172-.415-9.258a11.731,11.731,0,0,0-21.2-6.3c-.291.374-.525.8-.849,1.14a1.456,1.456,0,0,1-1.822.28,1.539,1.539,0,0,1-.655-1.862,4.276,4.276,0,0,1,.556-.991c3.783-5.2,8.907-7.24,15.187-6.191a14.43,14.43,0,0,1,11.5,11.293,42.116,42.116,0,0,1,.54,5.945c.184,3.559.258,7.124.445,10.684A5.39,5.39,0,0,1,973.009,810.3Zm-27.5,4.575h26.559a2.338,2.338,0,0,0-.075-.505,6,6,0,0,0-5.972-3.778q-7.188-.013-14.377,0a7.42,7.42,0,0,0-1.693.17A5.867,5.867,0,0,0,945.505,814.875Zm6.681-20.224a6.409,6.409,0,0,0,3.026,6.537,6.3,6.3,0,0,0,7.246.007,6.528,6.528,0,0,0,3.063-6.556,11.65,11.65,0,0,1-6.694-2.606A11.716,11.716,0,0,1,952.186,794.651Zm9.44,10.569h-5.37v2.263h5.37Z" transform="translate(0 -162.777)" fill="#83433e"/>
        <path id="Trazado_1327939" data-name="Trazado 1327939" d="M1217.963,809.924c.783,0,1.391-.014,2,0a8.958,8.958,0,0,1,8.706,8.2c.139,1.65-.412,2.288-2.088,2.29q-14.53.016-29.059,0c-1.732,0-2.284-.676-2.083-2.414a8.915,8.915,0,0,1,8.95-8.078c.562-.009,1.125,0,1.887,0,0-1.227.044-2.349-.029-3.464a1.636,1.636,0,0,0-.6-.89,10.13,10.13,0,0,1-3.456-7.964,22.991,22.991,0,0,0-.4-3.81,10.412,10.412,0,0,1,20.5-3.66,15.337,15.337,0,0,1-.176,5.1,18.387,18.387,0,0,0-.242,2.68,9.4,9.4,0,0,1-3.151,7.352,2.153,2.153,0,0,0-.762,1.861C1217.991,808.014,1217.963,808.906,1217.963,809.924Zm7.228,7.346a1.361,1.361,0,0,0,.048-.344,1.459,1.459,0,0,0-.125-.4,5.713,5.713,0,0,0-5.4-3.514c-4.322-.015-8.643-.007-12.965,0-1,0-2-.032-2.991.032a5.357,5.357,0,0,0-4.878,4.235Zm-6.168-23.28a7.225,7.225,0,0,0-3.045-8.159,7.539,7.539,0,0,0-8.637.561c-2.1,1.692-3.329,5.459-2.166,7.58a6.677,6.677,0,0,0,5.111-1.918c1.353-1.424,2.172-1.433,3.513-.019A6.819,6.819,0,0,0,1219.022,793.991Zm-.342,3.176a12.64,12.64,0,0,1-6.7-2.4,11.7,11.7,0,0,1-6.637,2.4,6.59,6.59,0,0,0,3.288,6.72,6.3,6.3,0,0,0,7.111-.19A6.384,6.384,0,0,0,1218.68,797.167Zm-9.218,12.708c1.847.067,3.612.063,5.4.012V807.78h-5.4Z" transform="translate(-181.039 -165.335)" fill="#83433e"/>
        <path id="Trazado_1327940" data-name="Trazado 1327940" d="M1098.3,617.994a19.119,19.119,0,1,1-19.018-19.17A19.059,19.059,0,0,1,1098.3,617.994Zm-35.113-.146a16.028,16.028,0,1,0,16.108-15.942A16.064,16.064,0,0,0,1063.186,617.848Z" transform="translate(-84.281 -34.657)" fill="#83433e"/>
        <path id="Trazado_1327941" data-name="Trazado 1327941" d="M1107.268,632.761c.217,7-5.826,13.156-13.039,13.205a13.144,13.144,0,1,1-.122-26.286A13.148,13.148,0,0,1,1107.268,632.761Zm-14.676-9.778c-7.482,1.048-10.393,9.533-7.343,14.212,2.286-2.012,4.574-4.008,6.833-6.036a1.5,1.5,0,0,0,.489-.955C1092.611,627.836,1092.592,625.467,1092.592,622.983Zm10.485,14.262c3.264-5.93-1.012-13.665-7.409-14.2a38.093,38.093,0,0,1-.036,4.67,4.967,4.967,0,0,0,2.291,5.048C1099.745,634.1,1101.357,635.729,1103.077,637.246Zm-10.592,5.522v-7.817l-5.522,4.86A9.879,9.879,0,0,0,1092.485,642.768Zm3.273-.154a7.86,7.86,0,0,0,5.41-2.779,26.647,26.647,0,0,0-5.41-4.548Z" transform="translate(-99.216 -49.568)" fill="#83433e"/>
      </g>
    </g>
  </g>
</svg>
