<svg xmlns="http://www.w3.org/2000/svg" width="127" height="127" viewBox="0 0 127 127">
  <g id="Grupo_1207845" data-name="Grupo 1207845" transform="translate(-275.971 -825.5)">
    <g id="Grupo_1207757" data-name="Grupo 1207757">
      <g id="Grupo_1207190" data-name="Grupo 1207190" transform="translate(-225.43 -6272.842)">
        <circle id="Elipse_13775" data-name="Elipse 13775" cx="63.5" cy="63.5" r="63.5" transform="translate(501.4 7098.342)" fill="#fbe49d"/>
        <circle id="Elipse_13776" data-name="Elipse 13776" cx="52" cy="52" r="52" transform="translate(513.4 7110.342)" fill="#3b4b68"/>
      </g>
      <g id="Grupo_1207750" data-name="Grupo 1207750" transform="translate(-890.3 318.626)">
        <path id="Trazado_1328426" data-name="Trazado 1328426" d="M1213.04,543.077a22.116,22.116,0,0,1,21.855,22.16c-.023,12.118-9.966,22.168-21.984,21.97-13.323-.22-22.264-9.83-22.138-22.27C1190.9,552.767,1199.621,543.468,1213.04,543.077Zm19.289,22.339c-.329-11.843-8.654-19.559-19.476-19.6-10.561-.042-19.355,7.335-19.595,19.567-.2,10.452,8.836,19.251,19.448,19.294A19.618,19.618,0,0,0,1232.329,565.416Z" fill="#fef8e6"/>
        <path id="Trazado_1328427" data-name="Trazado 1328427" d="M1364.339,630.807V591.89h-28.517c-.338,0-.677.015-1.013-.012a1.2,1.2,0,0,1-1.247-1.306,1.175,1.175,0,0,1,1.207-1.226c.3-.023.6-.019.9-.019q14.586,0,29.172,0c1.9,0,2.108.216,2.108,2.164q0,19.937,0,39.873c0,1.865-.274,2.135-2.166,2.136q-22.583,0-45.167,0c-1.823,0-2.105-.282-2.107-2.069s.012-3.6,0-5.407c-.009-.894.329-1.478,1.284-1.472s1.269.614,1.259,1.5c-.019,1.567-.006,3.134-.006,4.759Z" transform="translate(-98.179 -35.828)" fill="#fef8e6"/>
        <path id="Trazado_1328428" data-name="Trazado 1328428" d="M1371.357,715.437c.937-1.42,1.793-2.732,2.664-4.035.915-1.368,1.859-1.361,2.779.018.869,1.3,1.726,2.614,2.651,4.017.516-.57.942-1.076,1.406-1.545.8-.807,1.693-.759,2.226.214q1.971,3.6,3.817,7.26c.549,1.092-.023,1.947-1.266,1.95q-10.239.023-20.478,0c-1.3,0-1.807-.87-1.2-2.06q1.805-3.557,3.711-7.063a1.3,1.3,0,0,1,2.3-.292c.239.237.452.5.678.751C1370.837,714.872,1371.04,715.091,1371.357,715.437Zm-2.212,1.506-1.972,3.8h16.465l-1.983-3.8c-.378.419-.629.7-.877.974-1.211,1.358-1.939,1.3-2.961-.224-.781-1.167-1.56-2.335-2.419-3.62-.906,1.362-1.71,2.573-2.516,3.783-.878,1.319-1.677,1.364-2.756.162C1369.831,717.689,1369.531,717.365,1369.145,716.943Z" transform="translate(-133.966 -129.609)" fill="#fef8e6"/>
        <path id="Trazado_1328429" data-name="Trazado 1328429" d="M1452.087,612.519a7.738,7.738,0,0,1,5.63,2.046,2.235,2.235,0,0,0,1.13.485,1.355,1.355,0,0,1,1.165,1.957,1.769,1.769,0,0,0-.132.992,7.973,7.973,0,0,1-3.257,8.789,7.71,7.71,0,0,1-9.046-.374,7.889,7.889,0,0,1-2.622-8.694A7.774,7.774,0,0,1,1452.087,612.519Zm4.224,4.464a5.079,5.079,0,0,0-7.068-.851,5.144,5.144,0,0,0-1.391,6.73,5.233,5.233,0,0,0,6.546,2.176c2.248-1.011,3.631-3.5,2.948-5.447-.984.91-1.929,1.809-2.9,2.678-.931.833-1.4.826-2.328-.015-.667-.6-1.328-1.215-1.959-1.856a1.16,1.16,0,0,1,.014-1.793,1.19,1.19,0,0,1,1.724-.09c.469.368.893.793,1.411,1.259Z" transform="translate(-196.6 -53.796)" fill="#fef8e6"/>
        <path id="Trazado_1328430" data-name="Trazado 1328430" d="M1392.889,675v-2.474c-.4-.019-.794-.051-1.188-.053-1.689-.007-3.379.015-5.067-.017a1.229,1.229,0,0,1-1.352-1.217,1.163,1.163,0,0,1,1.145-1.393c2.626-.059,5.256-.081,7.878.031a1.74,1.74,0,0,1,1.131,1.242c.136,1.716.066,3.449.052,5.175a1.252,1.252,0,0,1-1.348,1.35c-3.265.034-6.531.027-9.8.006a1.241,1.241,0,0,1-1.39-1.3c0-.928.6-1.338,1.465-1.344,2.4-.015,4.8-.007,7.207-.008Z" transform="translate(-148.883 -98.17)" fill="#fef8e6"/>
        <path id="Trazado_1328431" data-name="Trazado 1328431" d="M1487.116,703.933c0,1.2-.015,2.4,0,3.6.017,1.015-.422,1.544-1.469,1.537-1.61-.01-3.221-.008-4.831,0a1.267,1.267,0,0,1-1.453-1.439c0-2.472.008-4.944,0-7.416a1.35,1.35,0,0,1,1.525-1.518q2.36-.023,4.719,0a1.345,1.345,0,0,1,1.509,1.533C1487.1,701.461,1487.116,702.7,1487.116,703.933Zm-2.613,2.56v-5.086h-2.516v5.086Z" transform="translate(-223.572 -120.545)" fill="#fef8e6"/>
        <path id="Trazado_1328432" data-name="Trazado 1328432" d="M1404.494,628.879v-2.533c-1.387,0-2.724,0-4.061,0-.413,0-.828.018-1.238-.018a1.248,1.248,0,0,1-1.27-1.311,1.208,1.208,0,0,1,1.261-1.309c2.215-.041,4.431-.047,6.645.005a1.219,1.219,0,0,1,1.255,1.32c.013,1.727.022,3.455,0,5.181a1.259,1.259,0,0,1-1.386,1.315q-3.21.048-6.421,0a1.24,1.24,0,0,1-1.347-1.346,1.26,1.26,0,0,1,1.4-1.3C1401.014,628.864,1402.7,628.879,1404.494,628.879Z" transform="translate(-160.48 -62.437)" fill="#fef8e6"/>
        <path id="Trazado_1328433" data-name="Trazado 1328433" d="M1230.433,566.192a16.941,16.941,0,0,1,16.864,16.727,16.633,16.633,0,0,1-17.109,16.96c-9.55-.053-16.751-7.416-16.715-17.091A16.881,16.881,0,0,1,1230.433,566.192Zm14.235,17.128a14,14,0,0,0-14.318-14.445c-7.875.057-14.1,5.49-14.31,14.364-.18,7.609,6.536,14.135,14.283,14.162A14.361,14.361,0,0,0,1244.669,583.319Z" transform="translate(-17.587 -17.907)" fill="#fef8e6"/>
        <path id="Trazado_1328434" data-name="Trazado 1328434" d="M1267.4,614.634c-.187.285-.357.85-.671.948a2.121,2.121,0,0,1-1.545-.112c-1.935-1.142-3.718-2.577-5.729-3.547a12.188,12.188,0,0,1-6.939-8.47,56.648,56.648,0,0,0-2.26-6.1c-.263-.692-.458-1.372.222-1.954.7-.6,1.319-.241,1.942.155,3.192,2.032,6.394,4.047,9.569,6.106a2.64,2.64,0,0,1,1,1.137c1.391,3.556,2.726,7.133,4.072,10.706C1267.175,613.813,1267.25,614.143,1267.4,614.634Zm-13.177-14.852-.2.138c.869,2.3,1.734,4.609,2.615,6.909a.937.937,0,0,0,.372.4c2.044,1.311,4.094,2.612,6.448,4.111-1-2.647-1.881-4.981-2.784-7.3a1.173,1.173,0,0,0-.483-.446Q1257.208,601.675,1254.219,599.782Z" transform="translate(-45.891 -40.284)" fill="#fef8e6"/>
      </g>
    </g>
  </g>
</svg>
