<svg xmlns="http://www.w3.org/2000/svg" xmlns:xlink="http://www.w3.org/1999/xlink" width="74.882" height="75.195" viewBox="0 0 74.882 75.195">
  <defs>
    <clipPath id="clip-path">
      <rect x="96" width="74.882" height="75.195" fill="none"/>
    </clipPath>
  </defs>
  <g id="Grupo_1207843" data-name="Grupo 1207843" transform="translate(-621.118 -833.789)">
    <g id="Grupo_de_desplazamiento_1" data-name="Grupo de desplazamiento 1" transform="translate(525.118 833.789)" clip-path="url(#clip-path)" style="isolation: isolate">
      <g id="Grupo_1207620" data-name="Grupo 1207620" transform="translate(-174 -833.789)">
        <path id="Trazado_1328559" data-name="Trazado 1328559" d="M876.882,110h0Z" transform="translate(174 815.984)" fill="#fef8e6"/>
        <g id="Grupo_1207842" data-name="Grupo 1207842" transform="translate(270 833.789)">
          <g id="Grupo_1207385" data-name="Grupo 1207385">
            <g id="Grupo_1207190" data-name="Grupo 1207190">
              <circle id="Elipse_13775" data-name="Elipse 13775" cx="37.195" cy="37.195" r="37.195" fill="#fbe49d"/>
              <circle id="Elipse_13776" data-name="Elipse 13776" cx="29.902" cy="29.902" r="29.902" transform="translate(7.293 7.293)" fill="#3b4b68"/>
            </g>
          </g>
        </g>
        <g id="Grupo_1207619" data-name="Grupo 1207619" transform="translate(288.221 851.942)">
          <path id="Trazado_1328007" data-name="Trazado 1328007" d="M879.8,494.245a8.111,8.111,0,0,1-1.308-.49,2.367,2.367,0,0,1-.536-3.651.6.6,0,0,0,.124-.723,10.284,10.284,0,0,1,1.1-9.779c.3-.459.61-.915.939-1.408.694.166,1.4.311,2.083.507a.489.489,0,0,0,.638-.217c.528-.74,1.09-1.456,1.655-2.2.737.364,1.467.7,2.174,1.085a.427.427,0,0,0,.613-.11c.529-.56,1.075-1.105,1.631-1.674l1.886,2,2.622-1.294c.549.726,1.109,1.439,1.635,2.177a.52.52,0,0,0,.683.237,14.926,14.926,0,0,1,1.7-.411.608.608,0,0,1,.508.151,12.706,12.706,0,0,1,2.381,4.811,10.807,10.807,0,0,1-.492,6.18.669.669,0,0,0,.059.571,2.4,2.4,0,0,1,.519,2.544,2.338,2.338,0,0,1-2.05,1.579c-.082.011-.163.036-.253.056a9.3,9.3,0,0,1-4.79,7.417,6.952,6.952,0,0,1,3.6,6.8,6.009,6.009,0,0,1,1.14-.711,5.673,5.673,0,0,1,1.313-.136v-.52c0-2.528.01-5.057-.006-7.585a1.461,1.461,0,0,1,.8-1.489,1.568,1.568,0,0,1,1.774.261c1.77,1.419,3.546,2.831,5.314,4.252a1.416,1.416,0,0,1,.59,1.668,1.434,1.434,0,0,1-1.533.965q-2.553,0-5.107,0h-.593v3.646a2.622,2.622,0,0,1,1.887.963,2.437,2.437,0,0,1-1.92,3.944c-2.372.017-4.745.006-7.118.006q-4.255,0-8.511,0a2.476,2.476,0,0,1-2.718-2.717c0-1.479.01-2.958,0-4.437a2.511,2.511,0,0,1,1.07-2.17.911.911,0,0,0,.282-.283c.4-.784.783-1.576,1.184-2.39A9.172,9.172,0,0,1,879.8,494.245Zm14.314-11.619a2,2,0,0,1,1.474,1.562c.072.577.366.746.827.923a2.429,2.429,0,0,1,1.715,2.536c0,.43-.01.86.008,1.289a1.007,1.007,0,0,0,.15.332,1.176,1.176,0,0,0,.345-.212,1.412,1.412,0,0,0,.178-.424,9.225,9.225,0,0,0-1.395-8.782.6.6,0,0,0-.5-.167,13.472,13.472,0,0,0-1.65.395.563.563,0,0,1-.728-.264c-.477-.669-.983-1.318-1.487-1.987-.693.346-1.359.663-2.009,1.009a.454.454,0,0,1-.661-.1c-.433-.5-.9-.984-1.409-1.542-.539.572-.989,1.021-1.4,1.5a.509.509,0,0,1-.747.126c-.629-.346-1.281-.649-1.964-.989-.519.684-1.044,1.339-1.524,2.025a.522.522,0,0,1-.686.227c-.559-.165-1.127-.3-1.7-.413a.542.542,0,0,0-.446.172,9.141,9.141,0,0,0-1.313,9.014c.061.166.264.279.4.417a2.116,2.116,0,0,0,.177-.52,15.522,15.522,0,0,1,.1-1.9,2.416,2.416,0,0,1,1.841-1.829.681.681,0,0,0,.557-.673,1.95,1.95,0,0,1,1.553-1.67l.449.9c-.293.319-.624.538-.746.841-.258.643.214,1.165,1,1.167q4.1.007,8.2,0c.275,0,.55,0,.825,0a.853.853,0,0,0,.874-.665.837.837,0,0,0-.429-1.007c-.128-.076-.251-.16-.393-.251Zm2.513,12.763a.661.661,0,0,0-.144-.031c-1.633,0-3.266.021-4.9.014a1.861,1.861,0,0,1-2.01-2.036c0-.529,0-1.057,0-1.6H888.35c0,.528,0,1.008,0,1.489a1.916,1.916,0,0,1-2.168,2.149c-1.358,0-2.716,0-4.075,0h-.85a7.882,7.882,0,0,0,8.022,6.08C892.867,501.308,896.292,498.433,896.632,495.389Zm2.782,14.633a2.282,2.282,0,0,1-.041-.313c.011-.358-.012-.717-.4-.874a.821.821,0,0,0-.99.347l-.926,1.109c-1.037-.828-1.932-1.521-2.8-2.247a.6.6,0,0,0-.883-.064c-.879.63-1.794,1.21-2.693,1.812-.132.089-.255.192-.412.312a9.092,9.092,0,0,0,4.549,2.079c1.938.214,3.9.2,5.858.241a1.154,1.154,0,0,0,1.114-1.19,1.173,1.173,0,0,0-1.148-1.207C900.238,510.005,899.829,510.022,899.414,510.022Zm-9.882-19.582a1.542,1.542,0,0,0,.042-.2c.081-1.666.655-2.206,2.342-2.207h4.975c.185-1.462-.527-1.67-1.437-1.984a.48.48,0,0,0-.385.128,2.351,2.351,0,0,1-1.686.647q-4.435,0-8.869,0a2.29,2.29,0,0,1-1.641-.626.55.55,0,0,0-.338-.178,1.527,1.527,0,0,0-1.442,2.027c1.882,0,3.756-.03,5.627.013a1.766,1.766,0,0,1,1.624,1.713c.012.215,0,.431,0,.664Zm3.579,16.27c-.315-.824-.594-1.616-.919-2.388a2.6,2.6,0,0,0-3.307-1.485,2.673,2.673,0,0,0-1.692,3.186,7.846,7.846,0,0,0,2.1,3.226Zm-9.076-12.576c.773,0,1.546.007,2.32,0,.558-.007.752-.2.756-.742q.012-1.7,0-3.4c0-.524-.191-.714-.721-.717q-2.319-.014-4.639,0c-.561,0-.722.18-.725.76q-.009,1.676,0,3.352c0,.56.184.743.742.751C882.523,494.141,883.279,494.134,884.035,494.134Zm9.841-4.869c-.755,0-1.51-.005-2.264,0-.64.006-.807.165-.811.785q-.01,1.647,0,3.295c0,.588.189.782.766.785q2.29.011,4.58,0c.561,0,.767-.222.769-.791q.009-1.647,0-3.295c0-.572-.2-.77-.776-.778C895.385,489.258,894.63,489.265,893.875,489.265Zm6.7,14.634c1.981,0,3.867,0,5.754-.007.112,0,.223-.105.335-.162a1.188,1.188,0,0,0-.2-.328c-.972-.79-1.953-1.57-2.932-2.352-.738-.589-1.471-1.184-2.221-1.757a2.48,2.48,0,0,0-.577-.245,2.923,2.923,0,0,0-.149.616c-.018.738-.007,1.477-.007,2.216Zm-13.431,4.82v3.67h4.285c-.773-.553-1.579-1.05-2.29-1.659S887.812,509.4,887.142,508.718Zm-1.276-1.116H883.5v2.386h2.363Zm9.785-.036c.068-2.029-1.336-4.281-2.795-4.758.372.919.844,1.9,1.165,2.932A3.581,3.581,0,0,0,895.651,507.567Zm-12.123,3.669c-.076,1.112,1.012,1.4,2.331,1.121v-1.121Zm-.006-4.935h2.349v-1.139C884.447,504.927,883.454,505.285,883.522,506.3Zm-3.766-15.78a1.175,1.175,0,1,0,0,2.349Zm18.406,2.366a1.217,1.217,0,0,0,1.2-1.233,1.145,1.145,0,0,0-1.2-1.115ZM884.946,503.9a7.06,7.06,0,0,0,.714-.005c.19-.02.454-.026.548-.146a14.339,14.339,0,0,0,.8-1.226C886.154,502.15,885.473,502.586,884.946,503.9Z" transform="translate(-877.326 -475.582)" fill="#fef8e6"/>
          <path id="Trazado_1328008" data-name="Trazado 1328008" d="M1146.049,508.581c-1.806-2.189-3.616-4.326-5.359-6.516a6.568,6.568,0,0,1-1.306-3.636,6.739,6.739,0,1,1,11.946,3.867c-1.636,2.1-3.395,4.1-5.1,6.15A1.315,1.315,0,0,1,1146.049,508.581Zm.043-1.9c.145-.165.258-.29.367-.42q1.819-2.173,3.636-4.347a6.3,6.3,0,0,0,1.445-3.245,5.5,5.5,0,0,0-10.03-3.814,5.809,5.809,0,0,0,.467,6.908c1.126,1.386,2.287,2.744,3.433,4.114C1145.626,506.139,1145.847,506.395,1146.091,506.683Z" transform="translate(-1114.888 -489.714)" fill="#fef8e6"/>
          <path id="Trazado_1328009" data-name="Trazado 1328009" d="M1245.624,700.736v1.145h-1.174v-1.145Z" transform="translate(-1210.161 -679.707)" fill="#fef8e6"/>
          <path id="Trazado_1328010" data-name="Trazado 1328010" d="M1192.189,700.583h1.173v1.165h-1.173Z" transform="translate(-1162.781 -679.568)" fill="#fef8e6"/>
          <path id="Trazado_1328011" data-name="Trazado 1328011" d="M1218.969,700.2v1.13h-1.127C1217.648,699.979,1217.669,700.059,1218.969,700.2Z" transform="translate(-1185.957 -679.156)" fill="#fef8e6"/>
          <path id="Trazado_1328012" data-name="Trazado 1328012" d="M982.289,706.19v-1.206c.848,0,1.685-.024,2.52.007a1.849,1.849,0,0,0,1.828-.875l1.072.524a2.6,2.6,0,0,1-2.228,1.535C984.438,706.242,983.389,706.19,982.289,706.19Z" transform="translate(-972.486 -682.771)" fill="#fef8e6"/>
          <path id="Trazado_1328013" data-name="Trazado 1328013" d="M948.472,630.888l-.676,1.006-1.824-1.208.668-1.018Z" transform="translate(-939.561 -615.276)" fill="#fef8e6"/>
          <path id="Trazado_1328014" data-name="Trazado 1328014" d="M928.15,644.972l-1.824-1.21.665-1.016,1.827,1.212Z" transform="translate(-921.749 -627.132)" fill="#fef8e6"/>
          <path id="Trazado_1328015" data-name="Trazado 1328015" d="M1052.649,631.865l-1.818-1.208.659-1.024,1.835,1.222Z" transform="translate(-1034.626 -615.244)" fill="#fef8e6"/>
          <path id="Trazado_1328016" data-name="Trazado 1328016" d="M1031.045,643.8l.673-1.011,1.831,1.21-.671,1.013Z" transform="translate(-1016.688 -627.173)" fill="#fef8e6"/>
          <path id="Trazado_1328017" data-name="Trazado 1328017" d="M1174.14,521.729a4.281,4.281,0,1,1-4.243-4.294A4.289,4.289,0,0,1,1174.14,521.729Zm-4.278-3.056a3.014,3.014,0,0,0-3.048,3.033,3.044,3.044,0,1,0,6.087,0A3,3,0,0,0,1169.861,518.673Z" transform="translate(-1138.655 -513.526)" fill="#fef8e6"/>
        </g>
      </g>
    </g>
  </g>
</svg>
