<svg xmlns="http://www.w3.org/2000/svg" xmlns:xlink="http://www.w3.org/1999/xlink" width="135.211" height="129.406" viewBox="0 0 135.211 129.406">
  <defs>
    <clipPath id="clip-path">
      <rect id="Rectángulo_400938" data-name="Rectángulo 400938" width="120" height="120" fill="none"/>
    </clipPath>
  </defs>
  <g id="Grupo_1207844" data-name="Grupo 1207844" transform="translate(-462.5 -6923)">
    <g id="Grupo_108927" data-name="Grupo 108927" transform="translate(78.652 2456)">
      <rect id="Rectángulo_36179" data-name="Rectángulo 36179" width="129" height="127" transform="translate(390.059 4467)" fill="#f9f7f0"/>
    </g>
    <g id="Grupo_1207723" data-name="Grupo 1207723" transform="translate(-495.899 6545.403)">
      <path id="Trazado_1328299" data-name="Trazado 1328299" d="M1012.833,415.912a14.156,14.156,0,0,1,1.58.18c2.173.5,3.242,1.985,3.245,4.533q.014,12.814,0,25.629v1.766h22.524v-1.606q0-12.606,0-25.212c0-3.678,1.093-4.9,4.814-5.312.027-.339.055-.7.084-1.053a3.715,3.715,0,0,1,3.74-3.569q12.327-.051,24.654,0a3.631,3.631,0,0,1,3.72,3.723q.058,15.461,0,30.922c-.009,2.451-1.481,3.6-4.712,3.891-.032.288-.077.594-.1.9a3.848,3.848,0,0,1-3.93,3.857c-1.848.057-3.7.011-5.706.011v36.862c.5.12,1.117.257,1.729.416a5.869,5.869,0,0,1,4.694,5.782c-.166,2.538-2.364,4.619-5.338,5.014a15.87,15.87,0,0,1-2.084.111q-32.8.008-65.606-.015a11.5,11.5,0,0,1-3.418-.471,5.355,5.355,0,0,1-4.078-5.048,5.859,5.859,0,0,1,4.288-5.252c.661-.208,1.342-.353,2.093-.547V454.585c-1.564,0-3.041,0-4.519,0-3.624,0-4.814-1.088-5.144-4.77-.338-.032-.693-.073-1.049-.1a3.76,3.76,0,0,1-3.684-3.78c-.057-2.274-.019-4.55-.019-6.825q0-11.631,0-23.261c0-3.182,1.408-4.6,4.556-4.6q11.353-.006,22.7,0C1011.373,411.25,1012.593,412.371,1012.833,415.912Zm-14.457,38.673v36.807h61.031V454.585c-4.606,0-9.2-.074-13.787.029-2.539.057-4.5-.573-5.339-3.233-7.3,0-14.538-.007-21.778.022a1.231,1.231,0,0,0-.954.5c-.915,2.087-2.545,2.729-4.71,2.7C1008.062,454.539,1003.283,454.585,998.377,454.585Zm58.975-12.77a4.782,4.782,0,0,1,3.771,4.545c.114,2.383-1.228,3.95-3.774,5.021,3.728,0,7.013-.046,10.295.023,1.26.027,1.587-.477,1.583-1.645q-.045-14.488,0-28.977c0-1.147-.375-1.527-1.529-1.521q-11.353.06-22.708,0c-1.207-.007-1.613.359-1.6,1.591.053,6.083.024,12.166.024,18.25,0,3.622.007,7.244-.005,10.866,0,.773.091,1.412,1.078,1.412q5.207,0,10.413,0c-2.22-1.03-3.5-2.658-3.373-5.114.128-2.435,1.641-3.823,3.9-4.51a13.674,13.674,0,0,1-.778-1.481c-1.465-3.856-2.851-7.744-4.384-11.572a4.928,4.928,0,0,1,.06-3.765,6.388,6.388,0,0,1,8.108-3.7c3.5,1.312,5,4.5,3.711,7.9-.328.867-.623,1.747-.953,2.613C1059.929,435.077,1058.657,438.4,1057.352,441.815Zm-42.918-6.482c0-4.779-.043-9.558.028-14.335.02-1.344-.4-1.752-1.737-1.742q-11.2.082-22.408,0c-1.248-.008-1.711.317-1.7,1.631q.068,14.4,0,28.81c0,1.243.35,1.716,1.662,1.707q11.2-.078,22.408,0c1.323.009,1.794-.369,1.774-1.737C1014.391,444.891,1014.434,440.112,1014.434,435.333Zm14.473,59.455c-10.907,0-21.814-.026-32.721.039a7.042,7.042,0,0,0-3.392.894,1.738,1.738,0,0,0,.248,3.207,6.859,6.859,0,0,0,2.81.631q33.069.051,66.139,0a6.745,6.745,0,0,0,2.805-.648,1.715,1.715,0,0,0,.223-3.19,7.055,7.055,0,0,0-3.391-.894C1050.722,494.762,1039.814,494.788,1028.907,494.788Zm-19.393-78.8c.253-1.135-.13-1.613-1.171-1.612q-11.622.009-23.245,0c-.94,0-1.325.4-1.324,1.346q.022,14.754,0,29.508c0,1.112.5,1.486,1.678,1.271v-1.531q0-12.179,0-24.358c0-3.091,1.518-4.615,4.6-4.619q8.978-.01,17.956,0Zm62.879,30.509c1.17.216,1.679-.157,1.677-1.267q-.016-14.753,0-29.507c0-.942-.378-1.351-1.32-1.35q-11.622.015-23.244,0c-1.04,0-1.428.472-1.177,1.613h1.5q8.977,0,17.954,0c3.081,0,4.605,1.531,4.607,4.616q.007,12.179,0,24.357Zm-16.16-11.166a4.1,4.1,0,0,0,.338-.52c.9-2.378,1.755-4.775,2.713-7.13a2.58,2.58,0,0,0-.894-3.076,2.954,2.954,0,0,0-3.717-.334c-1.081.656-1.844,1.665-1.454,2.887C1054.086,429.878,1055.177,432.519,1056.233,435.337Zm.53,12.827c.285-.4.953-.955,1.068-1.6.165-.939-.528-1.555-1.506-1.563a1.431,1.431,0,0,0-1.583,1.538C1054.733,447.515,1055.307,448.043,1056.763,448.164Z" transform="translate(0 -12.729)"/>
      <path id="Trazado_1328300" data-name="Trazado 1328300" d="M1158.2,398.33l-2.6-.849.526-3.18,3.513,1.139Z" transform="translate(-126.235 -0.508)"/>
      <path id="Trazado_1328301" data-name="Trazado 1328301" d="M1135.316,393.6c.1,1.176.177,2.117.268,3.188l-2.754.619-1.005-3.021Z" transform="translate(-109.08)"/>
      <path id="Trazado_1328302" data-name="Trazado 1328302" d="M1109.475,403.5l2.959-2.049,1.52,2.794-2.278,1.6Z" transform="translate(-92.958 -5.667)"/>
      <path id="Trazado_1328303" data-name="Trazado 1328303" d="M1174.575,409.934l-1.478-1.616,2.164-2.352,1.865,2Z" transform="translate(-138.852 -8.922)"/>
      <path id="Trazado_1328304" data-name="Trazado 1328304" d="M1149.525,598.939h5.313V578.175h3.147c.024.454.065.859.065,1.263q.006,10.167,0,20.335c0,1.985-.374,2.362-2.353,2.362q-17.41,0-34.82,0c-.454,0-.907-.037-1.433-.061v-2.985h27.033a12.556,12.556,0,0,0-.713-1.076c-1.988-2.33-4.015-4.627-5.964-6.989a1.5,1.5,0,0,0-1.858-.585,11.824,11.824,0,0,1-14.52-7.358,12.013,12.013,0,1,1,22.283.458,2.005,2.005,0,0,0,.406,2.551c2.165,2.421,4.254,4.909,6.357,7.385,1.159,1.364,1.1,1.922-.267,3.131C1151.405,597.312,1150.6,598.006,1149.525,598.939Zm-14.981-11.271a8.817,8.817,0,0,0,.343-17.629,8.918,8.918,0,0,0-9.062,8.819A8.752,8.752,0,0,0,1134.544,587.668Zm14.775,7.059-6.182-7.2-1.214.965,6.231,7.321Z" transform="translate(-100.151 -124.977)"/>
      <path id="Trazado_1328305" data-name="Trazado 1328305" d="M1053.146,603.263h14.465v3.019a9.932,9.932,0,0,1-1.051.11q-7.241.011-14.482,0c-1.558,0-2.064-.464-2.066-1.942q-.016-15.6,0-31.193a3.623,3.623,0,0,1,.083-.5h3.05Z" transform="translate(-50.06 -129.238)"/>
      <path id="Trazado_1328306" data-name="Trazado 1328306" d="M1105.447,662.505h-32.1v-2.944h32.1Z" transform="translate(-66.899 -191.855)"/>
      <path id="Trazado_1328307" data-name="Trazado 1328307" d="M1073.209,645.055v-3.078h17.615v3.078Z" transform="translate(-66.797 -179.17)"/>
      <path id="Trazado_1328308" data-name="Trazado 1328308" d="M1087.6,618.851v3.119H1073.25v-3.119Z" transform="translate(-66.827 -162.488)"/>
      <path id="Trazado_1328309" data-name="Trazado 1328309" d="M1073.156,598.932v-3.106h12.723v3.106Z" transform="translate(-66.759 -145.879)"/>
      <path id="Trazado_1328310" data-name="Trazado 1328310" d="M1117.605,567.153v3.017h-9.454v-3.017Z" transform="translate(-92.003 -125.195)"/>
      <path id="Trazado_1328311" data-name="Trazado 1328311" d="M1020.777,457.277c1.16,0,2.32-.012,3.48,0,1.55.02,2.138.563,2.16,2.059.028,1.856.032,3.713,0,5.568-.025,1.362-.611,1.98-1.95,2-2.505.038-5.012.023-7.517,0a1.728,1.728,0,0,1-1.88-1.934c-.021-1.9-.031-3.805,0-5.708.024-1.413.625-1.964,2.089-1.987C1018.364,457.262,1019.571,457.277,1020.777,457.277Zm2.3,3.291h-4.6v3h4.6Z" transform="translate(-24.843 -45.932)"/>
      <path id="Trazado_1328312" data-name="Trazado 1328312" d="M1015.376,500.88v-3.153h22.364v3.153Z" transform="translate(-25.079 -75.115)"/>
      <path id="Trazado_1328313" data-name="Trazado 1328313" d="M1015.354,518.284v-2.96h22.386v2.96Z" transform="translate(-25.063 -87.808)"/>
      <path id="Trazado_1328314" data-name="Trazado 1328314" d="M1015.307,535.574v-2.983h22.421v2.983Z" transform="translate(-25.029 -100.264)"/>
      <path id="Trazado_1328315" data-name="Trazado 1328315" d="M1061.761,483.6v-3.051h9.487V483.6Z" transform="translate(-58.539 -62.723)"/>
      <path id="Trazado_1328316" data-name="Trazado 1328316" d="M1061.728,466.175v-3.007h9.492v3.007Z" transform="translate(-58.515 -50.185)"/>
      <path id="Trazado_1328317" data-name="Trazado 1328317" d="M1171.4,598.335l-3.008.195c-.851-4.41-3.413-6.844-7.991-7.094v-3C1165.537,587.583,1171.2,592.584,1171.4,598.335Z" transform="translate(-129.696 -140.482)"/>
    </g>
  </g>
</svg>
