<svg xmlns="http://www.w3.org/2000/svg" xmlns:xlink="http://www.w3.org/1999/xlink" width="135.176" height="127.499" viewBox="0 0 135.176 127.499">
  <defs>
    <clipPath id="clip-path">
      <rect id="Rectángulo_400938" data-name="Rectángulo 400938" width="120" height="120" fill="none"/>
    </clipPath>
  </defs>
  <g id="Grupo_1207845" data-name="Grupo 1207845" transform="translate(-462.5 -7092.406)">
    <g id="Grupo_108927" data-name="Grupo 108927" transform="translate(78.559 2625.406)">
      <path id="Rectángulo_36179" data-name="Rectángulo 36179" d="M0,0H129.117V127.5H0Z" transform="translate(390 4467)" fill="#f9f7f0"/>
    </g>
    <g id="Grupo_1207724" data-name="Grupo 1207724" transform="translate(-501.651 6677.706)">
      <path id="Trazado_1328318" data-name="Trazado 1328318" d="M1014.065,477.037c0-4.21.191-8.1-.054-11.953s-3.681-6.733-7.675-6.876c-1.379-.049-2.762-.032-4.143-.011a4.452,4.452,0,0,0-4.683,4.491c-.062,1.205-.014,2.416-.023,3.625-.007.917-.293,1.676-1.356,1.681-1.031,0-1.447-.7-1.41-1.635a39.883,39.883,0,0,1,.366-5.779,6.093,6.093,0,0,1,4.038-4.546,1.222,1.222,0,0,0,.915-1.427,19.577,19.577,0,0,1,0-2.459c.113-1.582.063-2.886-1.767-3.72a3.945,3.945,0,0,1-1.626-2.741c-.264-1.8-.471-3.7.634-5.407a2.734,2.734,0,0,0,.162-1.258,39.657,39.657,0,0,1,.233-4.639,6.449,6.449,0,0,1,6.336-5.434c3.883-.073,7.769-.044,11.653-.011a2.352,2.352,0,0,1,2.485,2.539,6.265,6.265,0,0,1-1.189,4.624,3.273,3.273,0,0,0-.377,1.579,9.186,9.186,0,0,0,1.8,6.772c1.524,2.117.834,3.608-1.809,4.275,0,.743.028,1.516-.005,2.286a4.489,4.489,0,0,1-4.252,4.391,5.236,5.236,0,0,0-.774.038c-.382.086-.75.231-1.125.351a3.878,3.878,0,0,0,.8.848,9.485,9.485,0,0,1,4.509,4.651,16.468,16.468,0,0,1,1.151,5.229c.169,3.834.092,7.681.028,11.521a2.832,2.832,0,0,0,1.136,2.4c1.537,1.351,2.908,2.889,4.411,4.28,1.156,1.069,2.138.772,3.184-.329a7.45,7.45,0,0,1,2.723-1.468,5.467,5.467,0,0,1,1.772-.033c.036-.8.055-1.471.1-2.143a6.755,6.755,0,0,1,4.274-6.114,1.449,1.449,0,0,0,1.042-1.623c-.062-1.765-.019-3.534-.019-5.388a4.769,4.769,0,0,1-3.629-4.843c-1.931-.566-2.264-1.009-2.274-2.961,0-.906-.038-1.815.016-2.718.031-.5.047-1.2.359-1.456,1.307-1.048,1-2.446,1.021-3.784a10.086,10.086,0,0,1,6-9.506,10.339,10.339,0,0,1,14.295,6.506c.146.522.716.919,1.056,1.4.358.5.917,1.013.967,1.559a33.067,33.067,0,0,1,.011,4.394,2.15,2.15,0,0,1-.5,1.153,3.224,3.224,0,0,0-.3,4.058c.422.7.864,1.392,1.291,2.091,1.408,2.3.875,3.667-1.713,4.376-.8,6.006-.889,6.111-6.013,6.913a4.764,4.764,0,0,0,.531.413,10.608,10.608,0,0,1,5.777,9.712c.038,2.33.008,4.661.009,6.992,0,.463,0,.925,0,1.491,2.244,0,4.311.022,6.378-.009a2.666,2.666,0,0,1,2.586,1.364,1.585,1.585,0,0,0,1.148.493c2.466.125,3.614,1.28,3.7,3.7.064,1.839-.075,3.553-1.942,4.445a28.632,28.632,0,0,1,4.737,1.26,9.083,9.083,0,0,1,5.582,8.217c.151,2.754.1,5.523.044,8.284-.04,2.127-1.447,3.317-3.778,3.318q-18.127.008-36.255,0-7.057,0-14.113,0c-2.208,0-3.11-.9-2.912-3.1a19.676,19.676,0,0,1,6.555-13.1,2.361,2.361,0,0,0,.8-1.468c.052-6,.032-12,.026-18a3.623,3.623,0,0,0-.078-.525,1.052,1.052,0,0,0-1.569.545,10.828,10.828,0,0,1-1.666,2.132c-1.228,1.3-2.423,1.375-4.447.453a29.92,29.92,0,0,0-2.07,2.222,2.4,2.4,0,0,0-.368,1.378q-.031,13.142-.016,26.285c0,2.43-.742,3.18-3.144,3.182q-6.28.005-12.56,0c-2.132,0-2.978-.849-2.979-2.974,0-8.977.011-17.955-.03-26.932a6.653,6.653,0,0,0-.617-1.848,8.208,8.208,0,0,1-.7-2.293c-.06-5.61-.03-11.221-.037-16.832,0-.979.283-1.769,1.393-1.787,1.139-.018,1.4.8,1.4,1.767,0,5.352.029,10.7-.024,16.054-.012,1.178.323,1.575,1.533,1.559,4.618-.062,9.236-.015,13.854-.044a4.276,4.276,0,0,0,1.232-.4,7.665,7.665,0,0,0-.792-.911q-5.784-4.885-11.589-9.746a5.248,5.248,0,0,1-1.984-4.3c.03-3.323,0-6.647.011-9.97.012-3.19,2.049-5.355,5.041-5.386a5.172,5.172,0,0,1,5.231,5.276c.058,2.329-.027,4.662.047,6.991a2.426,2.426,0,0,0,.692,1.511C1011.725,475.171,1012.822,476,1014.065,477.037Zm44.657,19.173h-1.529q-6.214,0-12.429,0c-1.76,0-2.11-.36-2.115-2.137-.009-3.237.026-6.474-.022-9.709a2.379,2.379,0,0,0-2.337-2.574,2.328,2.328,0,0,0-2.31,2.577q-.041,6.926,0,13.853a2.359,2.359,0,0,0,2.628,2.661c1.466.034,2.934.013,4.4.009.895,0,1.536.334,1.6,1.3.071,1.067-.623,1.448-1.547,1.493-.833.041-1.671.009-2.506.009,8.561,3.034,13.473,8.921,14.694,17.861h6.114c0-1.825-.138-3.56.031-5.264a8.554,8.554,0,0,0-2.425-7.193,9.336,9.336,0,0,1-1.616-2.176c-1.38-2.7-3.46-3.718-6.485-3.285-1.775.254-2.416-.319-2.4-1.376.018-1.03.63-1.377,2.445-1.378,1.924,0,3.848,0,5.807,0Zm-46.8-2.131h-7.066v1.481q0,6.28,0,12.56c0,1.468.031,2.937-.027,4.4a1.3,1.3,0,0,1-1.394,1.386,1.33,1.33,0,0,1-1.382-1.4c-.025-.344-.011-.69-.011-1.036q0-8.029,0-16.057c0-.453-.045-.906-.067-1.343H999v27.482h3.045c0-.829-.006-1.558,0-2.286.01-.909.435-1.514,1.374-1.54.962-.027,1.38.607,1.422,1.493.036.764.008,1.531.008,2.343h7.073Zm-4.516-38.693c.771-2.491,1.048-2.695,3.644-2.706.3,0,.6.011.9-.015a1.714,1.714,0,0,0,1.763-1.828c.023-.861.008-1.723.009-2.585,0-2.01.113-2.153,2.321-2.685-2.335-2.173-2.6-4.905-2.265-7.868h-3.4c-2.575,0-2.575,0-3.232,2.437-.71,2.632-2.975,3.311-5.114,1.621a2.133,2.133,0,0,0-1.747-.312c-.438.154-.8.843-.961,1.368a5.925,5.925,0,0,0-.048,1.8c.039,1.438.49,1.934,1.935,1.986a1.462,1.462,0,0,1,1.619,1.7c-.011.6,0,1.206,0,1.809,0,1.745,0,3.49,0,5.278Zm42.176,37.967c0-3.179.176-6.2-.044-9.2a7.584,7.584,0,0,0-6.47-7.209,32.76,32.76,0,0,0-5.162-.131c-3.2-.006-4.926,1.724-4.934,4.959q-.018,7.438,0,14.876c0,.413.045.826.068,1.228h2.114v-1.506c0-3.924-.006-7.848.008-11.771a6.783,6.783,0,0,1,.169-1.79,5.226,5.226,0,0,1,5.195-3.861,5.014,5.014,0,0,1,4.819,4.71c.167,2.707.073,5.429.1,8.145.005.5.046,1,.073,1.551Zm-4.845-33.643c-3.036.692-5.927,1.364-8.825,2-.736.161-1.3.331-1.174,1.294s.456,1.647,1.512,1.791c2.026.274,2.083.346,2.085,2.409,0,2.226,0,4.452,0,6.816,1.5,0,2.832.037,4.155-.032.26-.013.586-.392.733-.678a2.33,2.33,0,0,1,2.259-1.422c.6.01,1.209.029,1.81-.012a1.821,1.821,0,0,0,1.905-1.98c.027-.861.006-1.724.008-2.586,0-1.891.158-2.085,2.128-2.541-1.2-1.841-2.653-3.574-2.058-6.117l-1.541.437c-.261,1.175.478,2.781-1.358,2.993C1044.781,462.267,1044.909,460.883,1044.74,459.71Zm-26.808,24.311c-.393-.347-.707-.635-1.032-.909-2.806-2.361-5.588-4.752-8.436-7.06a3.093,3.093,0,0,1-1.266-2.761c.079-2.5.056-5.007.008-7.509a2.411,2.411,0,0,0-2.381-2.549,2.283,2.283,0,0,0-2.276,2.565c-.019,2.417-.031,4.834,0,7.251.06,4.794-.63,3.519,3.116,6.709,3.049,2.6,6.13,5.155,9.261,7.785.344-.38.636-.685.909-1.007C1016.525,485.718,1017.207,484.892,1017.932,484.021Zm36.41,37.578c-1.26-9.759-9.234-16.364-18.642-15.425-9.6.958-15.049,9.06-15.183,15.416h2.006a15.074,15.074,0,0,1,4.707-9.359,13.673,13.673,0,0,1,9.707-3.968c8.705.193,13.646,4.982,15.391,13.336Zm-5.685-70.986c-.226-3.862-4.245-6.915-8.227-6.393a7.792,7.792,0,0,0-6.416,9.7Zm17.464,71.039c1.724,0,3.27-.027,4.814.011.761.019.97-.342.966-1.016-.017-2.453.1-4.913-.048-7.357a7.1,7.1,0,0,0-9.141-6.562c.4.542.738,1.083,1.157,1.549a8.718,8.718,0,0,1,2.281,6.75C1066.005,517.162,1066.122,519.316,1066.122,521.652Zm-61.733-82.1c.16-.688.331-1.531.552-2.362.481-1.806,1.156-2.317,3.028-2.324,1.639-.006,3.278,0,4.917,0,2.063,0,2.756-.924,2.246-3.076-3.774,0-7.565-.048-11.353.024a3.184,3.184,0,0,0-3.113,2.336,21.643,21.643,0,0,0-.464,3.928Zm25.817,46.3c-2.3-.368-2.435-.261-2.435,1.762q0,8.272,0,16.543c0,.451.041.9.063,1.377,2.37-.658,2.37-.658,2.37-2.817V485.844Zm2.311-26.309c.487-.087.907-.147,1.319-.239,5.031-1.129,10.058-2.273,15.09-3.391,1.913-.424,2.1-.723,1.465-2.762-.7.134-1.422.25-2.129.409-4.652,1.047-9.3,2.114-13.954,3.152C1032.269,457.159,1032.264,457.136,1032.517,459.535Zm1,62.057-5.732-5.8a11.062,11.062,0,0,0-2.34,5.8Zm-3.291-8.434,5.677,5.88v-8.176Zm10.793,8.417h8.231a9.025,9.025,0,0,0-2.46-5.765Zm-2.135-2.349,5.953-5.933-5.953-2.432Zm-1.381-15.984a12.052,12.052,0,0,1-1.3-1.669c-.67-1.237-1.791-.864-2.728-.73-.244.035-.381,1.108-.487,1.718a4.536,4.536,0,0,0,.069,1.092Zm24.2-5.236v3.034c.652-.2,1.489-.25,1.577-.532a3.669,3.669,0,0,0-.03-2.129C1063.161,498.129,1062.294,498.136,1061.7,498.006Zm-42.5-8.723c2.036-1.5,2.123-2.031.509-2.989L1018,488.342Z" transform="translate(0 0)"/>
      <path id="Trazado_1328319" data-name="Trazado 1328319" d="M1044.014,491.846c.216.239.8.614.954,1.119.211.715.486,1.1,1.235,1.241.9.168,1.448.862,1.07,1.673a2.139,2.139,0,0,1-1.635,1,3.639,3.639,0,0,1-3.405-3.276C1042.115,492.572,1042.692,491.845,1044.014,491.846Z" transform="translate(-35.212 -46.643)"/>
      <path id="Trazado_1328320" data-name="Trazado 1328320" d="M1054.158,470.027c.057.994-.107,1.854-1.321,1.947-.968.074-1.473-.621-1.472-1.946,0-1.306.528-2.032,1.48-1.944C1054.042,468.194,1054.223,469.048,1054.158,470.027Z" transform="translate(-41.99 -29.028)"/>
      <path id="Trazado_1328321" data-name="Trazado 1328321" d="M1181.013,565.926c.2.228.765.585.9,1.06a1.752,1.752,0,0,0,1.312,1.351,2.024,2.024,0,0,1,1.094,1.445c.065.83-.654,1.223-1.493,1.226a3.78,3.78,0,0,1-3.613-3.526C1179.2,566.5,1179.777,565.874,1181.013,565.926Z" transform="translate(-136.728 -101.538)"/>
    </g>
  </g>
</svg>
