<svg xmlns="http://www.w3.org/2000/svg" width="289.736" height="249.552" viewBox="0 0 289.736 249.552">
  <g id="Grupo_1207842" data-name="Grupo 1207842" transform="translate(8781.868 5860.063)">
    <g id="Grupo_1207357" data-name="Grupo 1207357" transform="translate(-8781.868 -5860.063)">
      <path id="Trazado_1279118" data-name="Trazado 1279118" d="M875.238,64.859a1.856,1.856,0,0,1,.939.45c.207.2.136.134.151.468-.851,1.494-3.843,1.962-5.24,3.085-2.345,1.886-4.436,4.4-5,7.429-.176.946-.138,1.89-.279,2.83a1.254,1.254,0,0,1-.551.96c-1.193.113-2.884-1.794-3.985-2.434a13.447,13.447,0,0,0-10.461-1.742,2.134,2.134,0,0,1-1.477.4c-.276-.067-.285-.183-.437-.4a1.5,1.5,0,0,1,.081-.493c.382-.921,1.768-1.45,2.646-1.665,4.265-1.046,8.8,1.223,12.328,3.362a19.42,19.42,0,0,1,1.275-4.013c2.056-4.365,5.624-6.629,10.01-8.236" transform="translate(-791.308 -60.459)" fill="#3d3e3c"/>
      <path id="Trazado_1279119" data-name="Trazado 1279119" d="M3733.849,1075.159a28.317,28.317,0,0,1,5.136-26.714,8.037,8.037,0,0,1,1.935-2.135c.458-.01.426-.01.763.3.06,1.006-1.845,2.781-2.44,3.672-4.967,7.407-6.177,13.994-4.464,22.719,2.065,7.773,6.178,14.165,9.785,21.245,5.858,11.495,9.508,24,2.528,35.941-5.541,9.484-14.483,13-24.454,15.99-2.463.74-5.138,1.3-7.514,2.267a4.113,4.113,0,0,1,.642-1.587c2.572-.636,5.111-1.388,7.635-2.195,9.9-3.162,18.486-7.039,23.483-16.83a25.63,25.63,0,0,0,2.545-14.526c-1.464-14.257-11.269-24.923-15.581-38.151" transform="translate(-3463.084 -975.324)" fill="#3d3e3c"/>
      <path id="Trazado_1279120" data-name="Trazado 1279120" d="M26.162,1921.64a4.313,4.313,0,0,1,.063,1.393c.066,1.292.751,8.631.523,9.331a1.408,1.408,0,0,1,.078,1.07l-.093.093c.462,1.01,1.135,8.874,1.393,10.737-2.419,2.365-4.888,4.712-7.137,7.242-1.3,1.461-4.841,6.281-6.064,7.16,1.843,9.259,7.076,19.156,14.175,25.4.817.717,4.616,3.4,4.326,4.366-1.555.058-3.838-2.089-4.936-3.107-7.565-7.014-11.718-15.372-14.528-25.147a43.849,43.849,0,0,1-1.4-16.493,51.841,51.841,0,0,0-11.18,32.781c0,1.438.593,6.493.078,7.4-.384.156-.33.215-.75.068-1.615-4.406-.133-16.121.969-20.781A48.657,48.657,0,0,1,8.73,1946.6c1.328-1.89,3.114-3.591,4.263-5.576.818-1.415,1.146-3.257,1.823-4.772,2.216-4.964,6.664-11.718,11.346-14.609" transform="translate(0.001 -1791.272)" fill="#3d3e3c"/>
      <path id="Trazado_1279121" data-name="Trazado 1279121" d="M229.817,1942.171c.066,1.292.751,8.631.523,9.331-4.488,1.623-8.159,4.4-11.93,7.245a39.332,39.332,0,0,1,11.407-16.576" transform="translate(-203.594 -1810.411)" fill="#f8f6ee"/>
      <path id="Trazado_1279122" data-name="Trazado 1279122" d="M211.827,2096.859c.462,1.01,1.135,8.874,1.393,10.738-2.419,2.366-4.887,4.712-7.137,7.242-1.3,1.46-4.841,6.281-6.064,7.159-1.258-4.894-2.165-11.827-.694-16.688,3.417-3.571,8.081-6.335,12.5-8.45" transform="translate(-185.093 -1954.604)" fill="#f8f6ee"/>
      <path id="Trazado_1279123" data-name="Trazado 1279123" d="M3742.656,1471.593c4.311,13.227,14.116,23.893,15.581,38.151a25.643,25.643,0,0,1-2.546,14.525c-5,9.79-13.585,13.668-23.483,16.829-2.524.807-5.063,1.559-7.635,2.195,1.125-3.361,2.33-6.678,3.368-10.07a107.662,107.662,0,0,0,3.1-12.619,15.513,15.513,0,0,0,3.216-2.887c6.785-7.864,7.407-23.335,6.784-33.334-.222-3.556-.844-7.068-1.089-10.615a24.8,24.8,0,0,0,2.708-2.175" transform="translate(-3471.895 -1371.757)" fill="#f8f6ee"/>
      <path id="Trazado_1279124" data-name="Trazado 1279124" d="M74.217,2255.132c.52,2.6.779,5.24,1.271,7.84a40.088,40.088,0,0,0,1.568,6.913c1.12,3.04,3.129,5.917,4.689,8.758,8.645,15.734,20.735,32.776,35.485,43.356a119.044,119.044,0,0,0,16.694,10.805c2.046,1.157,4.352,2.154,6.289,3.457a2.061,2.061,0,0,0,1.694.709,34,34,0,0,1,4.2,1.755,26.487,26.487,0,0,1-3.149,4.4c-5.022,5.5-12.266,8.265-19.6,8.535-17.7.651-42.342-10.763-55.248-22.759-8.747-8.128-18.282-22.116-18.655-34.336-.272-8.92,4.659-17.208,10.6-23.524,2.81,9.775,6.962,18.133,14.528,25.147,1.1,1.019,3.381,3.166,4.936,3.107.29-.962-3.509-3.648-4.326-4.366-7.1-6.244-12.331-16.142-14.175-25.4,1.223-.879,4.765-5.7,6.064-7.159,2.25-2.529,4.718-4.876,7.137-7.242" transform="translate(-46.095 -2102.141)" fill="#83433e"/>
      <path id="Trazado_1279125" data-name="Trazado 1279125" d="M2954.312,14.62a53.264,53.264,0,0,1,8.081-5.031c11.742-6.448,24.967-10.666,38.489-9.346a45.811,45.811,0,0,1,31.225,16.25c9.663,11.812,12.655,27.148,11.147,42.06-1.319,13.045-5.462,22.1-12.932,32.724-1.529,2.174-3.207,4.237-4.742,6.4-1.713-8.725-.5-15.311,4.464-22.719.6-.89,2.5-2.665,2.441-3.672-.338-.312-.305-.313-.764-.3a8.034,8.034,0,0,0-1.935,2.135,31.04,31.04,0,0,0-5.763,11.642,31.228,31.228,0,0,0,.627,15.072,24.849,24.849,0,0,1-2.708,2.175,119.489,119.489,0,0,0-10.338-34.792c-9.238-19.406-24.982-35.043-43.43-45.793a84.536,84.536,0,0,0-13.863-6.805" transform="translate(-2753.888 -0.001)" fill="#83433e"/>
      <path id="Trazado_1279126" data-name="Trazado 1279126" d="M2421.09,163.083c-2.458-1.028-5.023-1.945-7.556-2.775-.95-.312-1.962-.473-2.9-.818a1.758,1.758,0,0,1-.881-.633l.048-.3a1.824,1.824,0,0,1,.438-.266c1.389-.546,10.3,3.142,12.006,3.829a84.578,84.578,0,0,1,13.864,6.805c18.447,10.75,34.192,26.387,43.429,45.793a119.477,119.477,0,0,1,10.339,34.792c.245,3.547.866,7.059,1.087,10.615.625,10,0,25.471-6.783,33.335a15.518,15.518,0,0,1-3.216,2.887,107.353,107.353,0,0,1-3.1,12.619c-1.037,3.392-2.241,6.709-3.368,10.07a4.1,4.1,0,0,0-.641,1.587,115.194,115.194,0,0,1-33.563,44.7,85.173,85.173,0,0,1-7,5.328,4.551,4.551,0,0,1-1.761-1.477c-3.952-5.625.564-16.169-.666-22.668-.948-5-5.441-8.172-6.072-13.989-.582-5.351,3.162-10.739.689-15.852-2.455-5.075-7.536-4.444-12.095-6.067.8-7.071,1.67-14.11,1.271-21.239a50.582,50.582,0,0,0-13.06-31.113,139.875,139.875,0,0,0-10.578-10.019,59.494,59.494,0,0,1-6.2-5.342c-1.342-1.319-1.308-2.367-1.305-4.141a28.326,28.326,0,0,1,2.407-10.068c.228.075.457.149.69.207,1.275.322,3.211.443,4.343-.293,1.9-1.237,1.147-4.928,1.665-6.917a15.48,15.48,0,0,1,2.084-4.236,72.4,72.4,0,0,1,11.108-13.5c2.865-2.768,7.239-5.838,9.292-9.231,1.145-1.892,1.538-4.325,2.056-6.449-2.215,2.12-3.706,4.5-6.45,6.09a7.961,7.961,0,0,1-6.156,1.19,2.981,2.981,0,0,1-1.972-1.531c-.772-1.612-.1-4.073.478-5.688a28.677,28.677,0,0,1,14.37-15.81,30.14,30.14,0,0,0-5.01-2.2c2.193-2.888,5.7-5.178,8.66-7.23" transform="translate(-2221.819 -147.506)" fill="#9daf83"/>
      <path id="Trazado_1279127" data-name="Trazado 1279127" d="M3035.276,585.311a18.011,18.011,0,0,1,3.882.422c-1.6,2.389-3.587,2.421-5.616,4.086-1.516,1.245-2.225,2.971-4,3.982a3,3,0,0,1-1-.026,3.729,3.729,0,0,1-2.166-1.9,3.925,3.925,0,0,1-.245-3.158c1.6-1.164,3.672-1.227,5.494-1.892,1.244-.454,2.379-1.124,3.649-1.515" transform="translate(-2820.628 -545.594)" fill="#b7d5dc"/>
      <path id="Trazado_1279128" data-name="Trazado 1279128" d="M3686.465,1616.441a26.39,26.39,0,0,1,2.578,3.484c1.142,1.621,3.049,3.564,5.088,3.863a3.085,3.085,0,0,0,2.589-.724,55,55,0,0,1,.625,8.845c-2.514-.1-5.05-.451-7.082-2.075-3.342-2.672-3.271-9.4-3.8-13.393" transform="translate(-3436.368 -1506.779)" fill="#b7d5dc"/>
      <path id="Trazado_1279129" data-name="Trazado 1279129" d="M2822.161,565.03a3.509,3.509,0,0,1,.828.2,4.675,4.675,0,0,1,1.984,2.547c1.318,3.132,1.855,8.724.469,11.9-1.091,2.5-5.081,4.249-7.473,5.136a7.563,7.563,0,0,1-1.537.3,1.355,1.355,0,0,1-1.1-.374,1.385,1.385,0,0,1-.463-1.135c.124-1.683,2.82-3.333,4.028-4.3,2.627-2.113,2.872-5.777,2.528-8.882a16.158,16.158,0,0,1-.26-3.854,2.284,2.284,0,0,1,.995-1.538" transform="translate(-2623.9 -526.696)" fill="#b7d5dc"/>
      <path id="Trazado_1279130" data-name="Trazado 1279130" d="M3409.758,1745.831c1.532,2.2,2.817,4.615,4.141,6.947,2.446,4.308,5.08,8.747,6.686,13.456.815,2.39,2.04,9.119,3.548,10.5a4.836,4.836,0,0,0,3.232-.763c1.1-.586,9.159-5.867,9.733-6.541a10.15,10.15,0,0,0,1.769-3.836c.154,2.847-.672,5.676-.544,8.461-.429.493-.839.851-.8,1.55.012.214.034.424.061.636a107.449,107.449,0,0,1-3.1,12.619,2.659,2.659,0,0,1-.611-.356c-1.492-1.231-1.155-4.416-1.42-6.17a2.988,2.988,0,0,0-1.152-2.151c-1.532-.32-3.5.937-5.024,1.28a4.3,4.3,0,0,1-3.6-.458c-2.018-1.375-2.634-4.07-3.811-6.082-.975-1.667-2.551-2.94-3.473-4.636-3.938-7.243-4.263-16.492-5.633-24.452" transform="translate(-3178.436 -1627.391)" fill="#b7d5dc"/>
      <path id="Trazado_1279131" data-name="Trazado 1279131" d="M2383.526,1147.49c3.247,1.9,6.208,3.365,10.068,2.335,6.408-1.711,8.211-10.281,15.1-10.794a8.081,8.081,0,0,1,4.583,1.05c2.813,1.613,4.245,4.393,5.593,7.211a9.7,9.7,0,0,0,1.189,2.215,1.217,1.217,0,0,0,1.353.442,3.8,3.8,0,0,0,1.8-2.286,5.964,5.964,0,0,0-.219-4.624c-1.115-2.378-6.473-6.352-5.474-9.095a1.272,1.272,0,0,1,.707-.794,4.554,4.554,0,0,1,3.009,1.037c4.04,2.722,7,8.461,7.85,13.16.307,1.7.414,3.465.838,5.143,5.711-5.175,3.81-15.808,14.36-15.351,1.819.079,3.632.362,5.446.509,2.433.2,7.185-.152,8.919,1.864a1.964,1.964,0,0,1,.441,1.389,1.66,1.66,0,0,1-.748,1.25c-4.589,3.293-19.122-2.759-21.1,7.069a5.335,5.335,0,0,0,.836,4.054,3.17,3.17,0,0,0,2.392,1.428,13.608,13.608,0,0,0,3.184-.1c3.464-.319,6.186.363,8.454,3.159a5.392,5.392,0,0,1,1.379,3.981,4.3,4.3,0,0,1-1.82,2.759,13.771,13.771,0,0,1-10.681,2.311,16.913,16.913,0,0,1-4.048-1.35c-1.342-.626-4.694-3.157-6.117-2.064-1.745,1.34-.044,7.466-4.081,7.426-3.289-.035-4.576-3.809-7.345-5.02-1.59-.7-4.223-1-5.373-2.318-1.359-1.56-.287-4.588-.784-6.514-.777-3.018-4.514-5.4-7.5-5.7-3.538-.356-7.751,2.643-10.876,4.162a34.123,34.123,0,0,1-3.831,1.542,59.557,59.557,0,0,1-6.2-5.343c-1.342-1.319-1.308-2.367-1.305-4.141" transform="translate(-2221.819 -1056.246)" fill="#b7d5dc"/>
      <path id="Trazado_1279132" data-name="Trazado 1279132" d="M2766.679,1285.862a7.217,7.217,0,0,1,7.34,4.674c.1.362.124.284-.078.641-1.97-.386-4.182-.66-5.939-1.674a3.094,3.094,0,0,1-1.656-1.913,2.275,2.275,0,0,1,.333-1.729" transform="translate(-2578.627 -1198.624)" fill="#9daf83"/>
      <path id="Trazado_1279133" data-name="Trazado 1279133" d="M2781.513,163.083c-2.458-1.028-5.024-1.945-7.557-2.775-.95-.312-1.962-.473-2.9-.818a1.757,1.757,0,0,1-.881-.633l.048-.3a1.82,1.82,0,0,1,.437-.266c1.389-.546,10.3,3.142,12.006,3.829a84.535,84.535,0,0,1,13.863,6.805c18.448,10.75,34.193,26.387,43.43,45.793a119.505,119.505,0,0,1,10.338,34.792c.245,3.547.866,7.059,1.088,10.615.625,10,0,25.471-6.782,33.335a15.53,15.53,0,0,1-3.216,2.887c-.027-.212-.05-.422-.062-.636-.036-.7.375-1.057.8-1.55-.127-2.784.7-5.613.545-8.46a69.589,69.589,0,0,0,.543-13.07,54.945,54.945,0,0,0-.626-8.845,49.028,49.028,0,0,0-.631-5.959,126.943,126.943,0,0,0-4.687-17.582,120.659,120.659,0,0,0-47.556-61.158,114.53,114.53,0,0,0-11.858-6.58,30.145,30.145,0,0,0-5.01-2.2c2.193-2.888,5.7-5.178,8.661-7.23" transform="translate(-2582.246 -147.506)" fill="#83433e"/>
      <path id="Trazado_1279134" data-name="Trazado 1279134" d="M2781.513,163.083c-2.458-1.028-5.024-1.945-7.557-2.775-.95-.312-1.962-.473-2.9-.818a1.757,1.757,0,0,1-.881-.633l.048-.3a1.82,1.82,0,0,1,.437-.266c1.389-.546,10.3,3.142,12.006,3.829a84.535,84.535,0,0,1,13.863,6.805c18.448,10.75,34.193,26.387,43.43,45.793a119.505,119.505,0,0,1,10.338,34.792c.245,3.547.866,7.059,1.088,10.615.625,10,0,25.471-6.782,33.335a15.53,15.53,0,0,1-3.216,2.887c-.027-.212-.05-.422-.062-.636-.036-.7.375-1.057.8-1.55a15.958,15.958,0,0,0,2.36-2.556c7.03-9.593,6.457-29.1,4.686-40.4-1.849-11.394-4.006-21.16-8.6-31.833-11.053-25.7-33.205-45.969-59.069-56.291" transform="translate(-2582.246 -147.506)" fill="#3d3e3c"/>
      <path id="Trazado_1279135" data-name="Trazado 1279135" d="M3828.312,1535.209a47.374,47.374,0,0,0,7.215-6.624c1.771,11.3,2.344,30.809-4.685,40.4a16.142,16.142,0,0,1-2.36,2.556c-.127-2.784.7-5.613.544-8.46a69.669,69.669,0,0,0,.543-13.07,54.949,54.949,0,0,0-.627-8.845,48.458,48.458,0,0,0-.631-5.959" transform="translate(-3568.594 -1424.885)" fill="#f8f6ee"/>
      <path id="Trazado_1279136" data-name="Trazado 1279136" d="M405.12,226.337c.653-1.779,2.324-3.555,3.531-5A110.71,110.71,0,0,1,430.7,201.124,119.415,119.415,0,0,1,507.652,180.4a176.694,176.694,0,0,1,17.921,2.854c3.056,1.111,6.3,1.8,9.406,2.771,4.184,1.312,8.255,2.972,12.324,4.6a30.146,30.146,0,0,1,5.01,2.2,28.675,28.675,0,0,0-14.37,15.81c-.576,1.614-1.251,4.076-.479,5.688a2.981,2.981,0,0,0,1.972,1.531,7.961,7.961,0,0,0,6.157-1.19c2.743-1.592,4.234-3.97,6.449-6.09-.518,2.124-.911,4.557-2.055,6.449-2.052,3.393-6.426,6.462-9.292,9.231a72.452,72.452,0,0,0-11.108,13.5,15.483,15.483,0,0,0-2.084,4.236c-.517,1.989.237,5.68-1.664,6.917-1.131.735-3.067.615-4.343.293-.234-.059-.462-.132-.691-.207A28.328,28.328,0,0,0,518.4,259.06c0,1.774-.036,2.822,1.305,4.141a59.44,59.44,0,0,0,6.2,5.342,139.708,139.708,0,0,1,10.577,10.019,50.58,50.58,0,0,1,13.06,31.113c.4,7.129-.475,14.168-1.271,21.239,4.558,1.623,9.64.992,12.094,6.067,2.473,5.113-1.27,10.5-.689,15.852.631,5.817,5.124,8.986,6.072,13.989,1.231,6.5-3.286,17.043.666,22.668a4.552,4.552,0,0,0,1.761,1.477,47.787,47.787,0,0,1-5.9,3.889,119.45,119.45,0,0,1-18.555,9.037,1.685,1.685,0,0,1-.774.876,2.309,2.309,0,0,1-1.052-.171,7.616,7.616,0,0,0-2.4.779,96.526,96.526,0,0,1-14.143,4.185c-18.733,4.142-38.686,4.239-57.2-1.081a114.754,114.754,0,0,1-11.432-4.079,33.97,33.97,0,0,0-4.2-1.756,2.06,2.06,0,0,1-1.694-.709c-1.936-1.3-4.242-2.3-6.289-3.457a119.068,119.068,0,0,1-16.694-10.805c-14.75-10.581-26.841-27.622-35.485-43.357-1.56-2.841-3.569-5.718-4.689-8.758a40.068,40.068,0,0,1-1.568-6.913c-.492-2.6-.751-5.239-1.271-7.839-.258-1.863-.93-9.727-1.393-10.737l.093-.093a1.407,1.407,0,0,0-.079-1.07c.228-.7-.457-8.04-.523-9.331a4.309,4.309,0,0,0-.063-1.393c-.469-2.948.013-7.41.121-10.5a109.387,109.387,0,0,1,7.422-30.366c.843-2,2.375-4.475,2.328-6.635.438-3.19,2.831-6.118,4.651-8.675a13.96,13.96,0,0,1,.289-2.208c.626-2.947,2.347-9.279,4.38-11.347a18.347,18.347,0,0,1,3.069-2.118" transform="translate(-356.697 -167.814)" fill="#33332f"/>
      <path id="Trazado_1279137" data-name="Trazado 1279137" d="M719.126,1719.585l.134.194a5.643,5.643,0,0,1-.041,2.537l-.251-.113a2.985,2.985,0,0,1-.781-1.557,2.367,2.367,0,0,1,.939-1.062" transform="translate(-669.466 -1602.924)" fill="#fee5a7"/>
      <path id="Trazado_1279138" data-name="Trazado 1279138" d="M1302.385,2129.183a1.047,1.047,0,0,1,.408.36.843.843,0,0,1,.234.9,3.516,3.516,0,0,1-1.752,1.039l-.308.1-.17-.137a10.147,10.147,0,0,1,1.588-2.256" transform="translate(-1212.546 -1984.736)" fill="#b7d5dc"/>
      <path id="Trazado_1279139" data-name="Trazado 1279139" d="M1216.116,1402.081a15.334,15.334,0,0,1,.736,2.752l-2.279,1.128-.378.033c.144-1.142,1.383-2.823,1.921-3.914" transform="translate(-1131.823 -1306.961)" fill="#9daf83"/>
      <path id="Trazado_1279140" data-name="Trazado 1279140" d="M1488.124,826.446l.8-.009c1.06.565,1.413,2.521,1.745,3.606a2.7,2.7,0,0,1-1.918-1.206,3.608,3.608,0,0,1-.627-2.391" transform="translate(-1387.146 -770.371)" fill="#9daf83"/>
      <path id="Trazado_1279141" data-name="Trazado 1279141" d="M1144.606,1463.191c.413.126.254.006.488.347-.021.041-.037.085-.062.125a6.263,6.263,0,0,1-1.524,1.208,18,18,0,0,1-7.294,3.477l-.17-.01-.083-.151c1.182-.959,2.851-1.362,4.195-2.077a48,48,0,0,0,4.45-2.917" transform="translate(-1058.897 -1363.927)" fill="#9daf83"/>
      <path id="Trazado_1279142" data-name="Trazado 1279142" d="M864.136,1039.2c.877.559,1.773,1.1,2.6,1.732a16.96,16.96,0,0,1-2.621,2.114c-.339-.675-1.058-1.511-1.078-2.289-.019-.712.622-1.133,1.1-1.556" transform="translate(-804.485 -968.696)" fill="#f8f6ee"/>
      <path id="Trazado_1279143" data-name="Trazado 1279143" d="M1025.187,1059.306a15.653,15.653,0,0,1,10.592,2.871,16.666,16.666,0,0,1,6.6,11.528c-.387.469-.739.969-1.1,1.459a5.666,5.666,0,0,1-.671,1.064,19.279,19.279,0,0,0-1.42-6.913,17.681,17.681,0,0,0-10.438-9.278c-1.08-.34-2.312-.268-3.347-.649-.073-.026-.144-.055-.217-.083" transform="translate(-955.635 -987.4)" fill="#9daf83"/>
      <path id="Trazado_1279144" data-name="Trazado 1279144" d="M954.281,1021.585a17.655,17.655,0,0,1,17.97,10.394c.636,1.458,2.1,5.834,1.532,7.251l-.319.019a4.951,4.951,0,0,0-1.114-.611,36.327,36.327,0,0,0-.835-3.728,18.987,18.987,0,0,0-9.442-11.041c-4.926-2.373-9.213-1.7-14.151.04a16.546,16.546,0,0,1,6.359-2.323" transform="translate(-883.615 -952.198)" fill="#9daf83"/>
      <path id="Trazado_1279145" data-name="Trazado 1279145" d="M1788.133,585.538c3.03,1.6,5.7,3.6,8.607,5.384,4.444,2.737,9.719,3.787,14.858,4.207,1.91.155,4.331.516,6.191,0a2.566,2.566,0,0,0,1.022-.573l.767-.815a7,7,0,0,1,1.921,1.589.953.953,0,0,1,.147.936,1.6,1.6,0,0,1-.59.382c-1.667.551-4.338.09-6.143-.006-6.947-.369-13.7-1.494-19.908-4.8-2.73-1.453-5.274-3.27-8.053-4.624l-.265-.128a5.272,5.272,0,0,1,1.446-1.55" transform="translate(-1665.475 -545.814)" fill="#fee5a7"/>
      <path id="Trazado_1279146" data-name="Trazado 1279146" d="M646.894,819.648c.08.024.162.043.24.073a1.762,1.762,0,0,1,1.085,1.014c.047,3.212-9.5,5.091-10.53,7.154-.036.071-.064.146-.1.218a26.583,26.583,0,0,0-1.9,5.242,17.659,17.659,0,0,0-2.632,1.8,4.691,4.691,0,0,1-.9.7c-.271-1.4,2.093-7.452,2.872-8.913,1.12-2.1,9.442-6.488,11.868-7.286" transform="translate(-589.248 -764.042)" fill="#fee5a7"/>
      <path id="Trazado_1279147" data-name="Trazado 1279147" d="M923.56,1082.546c.069-.009.137-.021.206-.027a15.324,15.324,0,0,1,16.881,13.967,16.133,16.133,0,0,1-3.3,11.794c-1.527,1.81-5.147,4.478-7.492,4.687l.034-.145a19.684,19.684,0,0,0,5.593-4.835,15.087,15.087,0,0,0,2.968-11.38,15.448,15.448,0,0,0-5.992-10.243c-3.84-2.924-7.8-3.241-12.445-2.609a11.1,11.1,0,0,1,3.552-1.209" transform="translate(-857.589 -1009.019)" fill="#9daf83"/>
      <path id="Trazado_1279148" data-name="Trazado 1279148" d="M564.182,1034.231a9.073,9.073,0,0,1,.87-.424c1.65-.664,10.354-.963,12.052-.251-.479.423-1.12.845-1.1,1.556.02.778.74,1.615,1.078,2.289-2.657-.217-10.293.669-12.559,1.9a49.406,49.406,0,0,0-4.791,3.495c-1.435,1.223-2.743,2.594-4.2,3.794l-.275-.061a1.287,1.287,0,0,1-.076-1.023c1.014-3.857,5.6-9.27,9-11.278" transform="translate(-517.453 -963.054)" fill="#fee5a7"/>
      <path id="Trazado_1279149" data-name="Trazado 1279149" d="M1097.445,1916.73c4.454,2.221,8.909,3.97,12.424,7.627-1.449,1.9-2.584,4.035-4.011,5.966-.69.917-3.276,4.129-4.307,4.284a1.8,1.8,0,0,1-.716-1.268c-.445-1.876-.431-3.927-.684-5.84a50.6,50.6,0,0,0-2.706-10.769" transform="translate(-1022.995 -1786.696)" fill="#f8f6ee"/>
      <path id="Trazado_1279150" data-name="Trazado 1279150" d="M2328.472,705.3a55.12,55.12,0,0,0,15.174-2.106c-.111,4.957-1.508,9.51-3.075,14.159a81.444,81.444,0,0,0-12.455-10.643c.122-.466.268-.938.355-1.41" transform="translate(-2170.175 -655.489)" fill="#fee5a7"/>
      <path id="Trazado_1279151" data-name="Trazado 1279151" d="M1496.17,562.057a16.878,16.878,0,0,1-5.638-.745c-1.571-.539-3.85-1.821-4.56-3.4a2.669,2.669,0,0,1-.054-2.1c.781-1.615,4.616-3.078,6.25-3.637,5.294-1.81,10.472-1.09,15.421,1.319a5.28,5.28,0,0,0-1.446,1.55,19.68,19.68,0,0,0-12.4-1.346c-2.079.46-5.184,1.452-6.362,3.317l.057.24c1.288.07,2.614-1.047,3.76-1.535a16.542,16.542,0,0,1,9.424-.751,40.223,40.223,0,0,0-4.453,7.095" transform="translate(-1384.93 -513.765)" fill="#b7d5dc"/>
      <path id="Trazado_1279152" data-name="Trazado 1279152" d="M1498.169,1462.066a18.788,18.788,0,0,0,8.78,1.626l.21,3.064a20.713,20.713,0,0,0-4.6,1.6c-5.529,2.794-13,9.57-17.326,14.176-.973,1.058-1.84,2.231-2.734,3.355a47.5,47.5,0,0,1-2.657-9.7c3.514.349,7.742,2.082,10.985.02,4.692-2.984,6.2-9.089,7.337-14.143" transform="translate(-1379.451 -1362.878)" fill="#b7d5dc"/>
      <path id="Trazado_1279153" data-name="Trazado 1279153" d="M2220.765,778.39c2.1.108,4.185.093,6.286.067a58.589,58.589,0,0,1,10.989,9.146,6.853,6.853,0,0,1,2.219,5.223,10.7,10.7,0,0,1-3.281,7.324l1.2-4.208a14.943,14.943,0,0,0,.166-4.592,5.6,5.6,0,0,0-1.932-3.927,4.778,4.778,0,0,0-3.727-.587c-3.64.727-5.964,3.444-7.859,6.415a73.108,73.108,0,0,1-4.058-14.862" transform="translate(-2070.106 -725.583)" fill="#3d3e3c"/>
      <path id="Trazado_1279154" data-name="Trazado 1279154" d="M1655.514,973.484a1.268,1.268,0,0,1,.455.206c1.448.96,2.42,4.019,2.839,5.631,1.617,6.228,1.027,21.576-.283,28.026a28.35,28.35,0,0,1-3.178,8.7l-1.3,1.911a46.021,46.021,0,0,0,1.436-12.123c-.056-3.172-.33-6.354-.192-9.526.2-4.464,1.017-8.84.94-13.332-.05-2.882-1.411-6.832-.717-9.492" transform="translate(-1541.831 -907.442)" fill="#9daf83"/>
      <path id="Trazado_1279155" data-name="Trazado 1279155" d="M2690.115,1730.159a38.954,38.954,0,0,1,3.428,5.638c6.032,11.566,5.988,24.375,4.277,36.991a7.731,7.731,0,0,1-.228,1.381c-.076-.269-.013-.169-.184-.356-6.373-6.953-4.251-16.545-3.98-25.052a48.934,48.934,0,0,0-.458-7.6,38.046,38.046,0,0,0-1.087-5.9c-.459-1.581-1.807-3.5-1.769-5.108" transform="translate(-2507.614 -1612.782)" fill="#9daf83"/>
      <path id="Trazado_1279156" data-name="Trazado 1279156" d="M717.5,1751.5c1.9,2.422,3.618,4.949,5.327,7.508-.036.1-.07.192-.107.286a11.852,11.852,0,0,1-6.157,6.653c-3.618,1.527-7.6.888-11.133-.538a13.35,13.35,0,0,1-3.354-2.153c-.465-3.355.024-6.868.31-10.228a8.356,8.356,0,0,0,1.307,1.658,6.9,6.9,0,0,0,4.939,1.976c3.787-.062,6.427-2.6,8.869-5.162" transform="translate(-654.266 -1632.67)" fill="#9daf83"/>
      <path id="Trazado_1279157" data-name="Trazado 1279157" d="M744.647,830.529c.042-.042.085-.082.127-.125,2.327-2.381,1.529-4.646,5.75-4.718,4.617-.078,9.215.29,13.825.427a11.323,11.323,0,0,0,2.944,4.7,3.627,3.627,0,0,1,2.285.059c.141.335.218.329.095.69a77.065,77.065,0,0,1-8.757-.793,84.273,84.273,0,0,0-9.353-.184c-6.272.123-11.683.225-16.3,5.085-.619.651-1.209,1.333-1.8,2.006a11.464,11.464,0,0,0-5.258,2.668,8.67,8.67,0,0,0-4.829-2.034c-.424-.041-.864-.07-1.283-.143-2.711.042-5.508.476-8.2.31l-.153-.2a1.09,1.09,0,0,1,.339-.843,2.828,2.828,0,0,1,1.273-.25c1.38,0,2.823.312,4.2.434,1.184.1,2.405.08,3.6.116,1.135-.055,2.87.036,3.645-.973a2.658,2.658,0,0,0,.449-1.944,1.882,1.882,0,0,0-.974-1.227c-1.87-1.032-7.115-.709-9.159-.008a7.063,7.063,0,0,0-1.715.993l-.146-.008c.14-.426.39-.568.774-.777.511-.279,6.479-2.991,6.534-3a34.954,34.954,0,0,1,5.446-.124c5.548-.07,11.1.232,16.647-.132" transform="translate(-665.319 -769.661)" fill="#9daf83"/>
      <path id="Trazado_1279158" data-name="Trazado 1279158" d="M1264.561,855.939c.435-.037.872-.076,1.307-.1a2,2,0,0,1,1.73.578c.038.267.111.3-.085.5-.931.923-7.955.853-9.608.921-.935.047-2.069.269-2.823-.393-.142-.428-.149-.393.052-.8,1.252-.869,7.515-.628,9.426-.71" transform="translate(-1169.84 -797.771)" fill="#33332f"/>
      <path id="Trazado_1279159" data-name="Trazado 1279159" d="M557.425,1128.772c3.417-.8,6.572-5.934,10.323-7.454,2.771-1.123,6.448-1.305,9.4-1.745a33.9,33.9,0,0,0-4.412,5.228,23.114,23.114,0,0,0-7.1,3.5c-2.048,1.419-6.342,4.23-6.811,6.832.451.1.756.261,1.184.01a22.747,22.747,0,0,0,3.2-2.816c2.08-1.888,5.962-4.948,8.686-5.632a24.346,24.346,0,0,0-1.117,4.722c-.1.792.071,2.881-.287,3.424-1.514.642-5.8,2.151-6.547,3.568a.874.874,0,0,0-.123.416,1.474,1.474,0,0,0,1.236.115c1.941-.441,3.972-1.746,5.742-2.657a.766.766,0,0,1,.173.435c.6,2.728,1.916,6.2,4.114,8.051a63.809,63.809,0,0,0,1.456,8.6c2.652,2.363,3.006,4.937,5.12,7.731a17.028,17.028,0,0,1-4.523,3.818,6.068,6.068,0,0,1-4.654.739,2.15,2.15,0,0,1-1.44-1.163c-.339-.839.014-2.376.027-3.3a17.042,17.042,0,0,0-1.075-7.048c-2.824-6.823-9.152-11.544-12.119-18.237a52.325,52.325,0,0,1-.453-7.137" transform="translate(-519.609 -1043.619)" fill="#fee5a7"/>
      <path id="Trazado_1279160" data-name="Trazado 1279160" d="M790.585,1123.025a13.615,13.615,0,0,1,7.935,2.355,13.252,13.252,0,0,1,5.55,8.567,13.615,13.615,0,0,1-2.13,10.213,15.161,15.161,0,0,1-9.95,6.289c-3.644.067-6.667-.587-9.5-3.01a14.538,14.538,0,0,1-4.612-10.043,14.108,14.108,0,0,1,3.293-10.186c2.469-2.857,5.754-3.924,9.418-4.186" transform="translate(-725.061 -1046.833)" fill="#9daf83"/>
      <path id="Trazado_1279161" data-name="Trazado 1279161" d="M828.544,1171.622a10.537,10.537,0,0,1,6.708,1.9,9.655,9.655,0,0,1,3.888,6.314,11.043,11.043,0,0,1-2.045,8.329,9.791,9.791,0,0,1-6.943,3.9,10.443,10.443,0,0,1-7.055-2.227,10.112,10.112,0,0,1-3.653-6.8,10.577,10.577,0,0,1,2.172-7.943,9.842,9.842,0,0,1,6.928-3.476" transform="translate(-763.784 -1092.123)" fill="#33332f"/>
      <path id="Trazado_1279162" data-name="Trazado 1279162" d="M1061.888,1280.68a4.942,4.942,0,0,1,.543,1.835,1.671,1.671,0,0,1-.716.517.806.806,0,0,1-.78-.052,1.348,1.348,0,0,1-.245-1.047c.1-.6.6-.937,1.033-1.3Z" transform="translate(-988.706 -1193.749)" fill="#718083"/>
      <path id="Trazado_1279163" data-name="Trazado 1279163" d="M1012.489,1332.739a9.427,9.427,0,0,1-.754,2.542c-.888.446-.65.753-1.345,1.294l-.385-.064a.994.994,0,0,1-.286-.816c.671-.5.988-.918,1.862-.9a4.759,4.759,0,0,0-.634-1.47,2.446,2.446,0,0,1,.278-.345c.362-.315.816-.232,1.264-.245" transform="translate(-941.217 -1242.323)" fill="#718083"/>
      <path id="Trazado_1279164" data-name="Trazado 1279164" d="M911.1,1204.5a9.038,9.038,0,0,1,1.355-.51c1.042-.286,3.183-.606,4.153-.061l.028.3-.236.16-.268-.061a2.613,2.613,0,0,1-.769.337l-.31-.757-.264.047a7.3,7.3,0,0,1-.737,1.948l-.315.025a2.216,2.216,0,0,1-1.027-.768,2.068,2.068,0,0,0,.663-.97,7.513,7.513,0,0,0-2,.282Z" transform="translate(-849.286 -1121.974)" fill="#9daf83"/>
      <path id="Trazado_1279165" data-name="Trazado 1279165" d="M852.618,1295.914a8.744,8.744,0,0,1-3.858-2.813c-1.672-2.219-1.679-4.514-1.258-7.117l.078.087.017-.275c.215.587.048,1.764.22,2.474a13.938,13.938,0,0,0,3.409,6.189,9.679,9.679,0,0,0,1.705,1.118Z" transform="translate(-789.786 -1198.564)" fill="#6a777b"/>
      <path id="Trazado_1279166" data-name="Trazado 1279166" d="M983.7,1329.677a15.188,15.188,0,0,0,.548-2.1,1.684,1.684,0,0,1,.791-1.291,1.5,1.5,0,0,1,1.048.141c-.467,2.185-1.461,4.94-3.46,6.214-.051.032-.106.057-.16.086a12.637,12.637,0,0,1,1.8-2.005,11.362,11.362,0,0,1-1.92,1.26,5.513,5.513,0,0,1-3.3.13c-.251-.119-.172-.11-.257-.418a5.479,5.479,0,0,0,1.8.2,4.836,4.836,0,0,0,2.986-2.053Z" transform="translate(-912.382 -1236.281)" fill="#6a777b"/>
      <path id="Trazado_1279167" data-name="Trazado 1279167" d="M893.889,1371.355c1.838.334.815,1.372,3.859,1.375l.044.265-.244.332c-.562.04-.439-.271-.959.059l.515.528c0,.074-.005.148-.005.222a1.927,1.927,0,0,0,.091.618c.959.4,1.825-.081,2.473.851.893.29,2.241-.483,3.068-.839a6.583,6.583,0,0,1-5.07,1.363,13.988,13.988,0,0,1-2.184-.461l.314-.337.946.249.213-.191.014-.5a7.527,7.527,0,0,0-2.105-1.052c-.779-.36-1.3-.61-1.61-1.44.086-.534.283-.654.643-1.046" transform="translate(-832.647 -1278.321)" fill="#718083"/>
      <path id="Trazado_1279168" data-name="Trazado 1279168" d="M913.736,1210.407a7.918,7.918,0,0,1,.228,1.437l.492.087-.183-.016c.054-.026.108-.05.16-.078a3.132,3.132,0,0,0,.665-.547l.074-.428a9.787,9.787,0,0,0-.852-.6,5.872,5.872,0,0,1,3.751,2.273,6.336,6.336,0,0,1,1.5,2.552l-.164-.052a1.839,1.839,0,0,0-.908-.288,1.081,1.081,0,0,0-.557.885,3.8,3.8,0,0,0,.165,1.211c-.185.475-.411.965-.558,1.451l.116.277c-.448.012-.9-.07-1.265.245a2.435,2.435,0,0,0-.278.345,8.965,8.965,0,0,0-1.075,1.219,1.853,1.853,0,0,1-.422.308,5.55,5.55,0,0,1-4.262.4,2.83,2.83,0,0,1-1.958-1.84c.078-.222-.56-3.272-.38-4.577l.593-.3-.228.5.025-.4c.74-.376,2.2-1.4,2.965-1.361.1.216.208.417.326.626a7.193,7.193,0,0,1,.77-.242c.062-.015.125-.027.187-.041-1.021-1.893.841-1.322.841-2.885Z" transform="translate(-846.387 -1128.156)" fill="#6a777b"/>
      <path id="Trazado_1279169" data-name="Trazado 1279169" d="M1038.756,1298.085a1.328,1.328,0,0,1,.744.624c-.185.475-.411.965-.558,1.451a3.029,3.029,0,0,1-.721-.267l.021-.729c.145-.366.342-.725.514-1.08" transform="translate(-967.787 -1210.022)" fill="#718083"/>
      <path id="Trazado_1279170" data-name="Trazado 1279170" d="M916.9,1232.681c-.2.094-.391.186-.592.268a6.105,6.105,0,0,1-4.311.264c-.214-.235-.719-.648-.741-.95l.4-.182c.171-.288-1.095-1.923-.975-2.723a2.483,2.483,0,0,1,.717-1.339c1.541-1.706,2.674-.4,3.817-1.035a31.788,31.788,0,0,0,3.355-2.859,11.155,11.155,0,0,0-1.091,2.476c.389.253.74.015,1.2.016-.685.842-1.557.6-2.8,1.851l.1.137a2.054,2.054,0,0,1,.826-.3c.661-.037,1.295,1.237,1.785,1.626l.1-.339a6.1,6.1,0,0,0-1.337-1.706c.22-.279.175-.276.542-.41l.284.524.26-.029a1.721,1.721,0,0,1,.588-.774c.234.288.19.165.268.493a3.338,3.338,0,0,0,.575,1.448c-.172.356-.369.714-.514,1.08-.511.1-.953.065-1.277.527-.469.67-.535,1.288-1.169,1.933" transform="translate(-848.891 -1141.079)" fill="#33332f"/>
      <path id="Trazado_1279171" data-name="Trazado 1279171" d="M1754.5,336.6c.266-.4.546-.783.83-1.165a25.255,25.255,0,0,1,16.191-9.773c8.381-1.194,17.566,2.164,24.221,7.163,5.2,3.905,12.248,11.649,13.2,18.224a55.119,55.119,0,0,1-15.173,2.106,4.141,4.141,0,0,0-1.471-2.165,39.923,39.923,0,0,0-6.045-4.049c-7.269-4.3-15.646-8.591-24.038-10.111a30.339,30.339,0,0,0-7.717-.23" transform="translate(-1635.475 -303.342)" fill="#b7d5dc"/>
      <path id="Trazado_1279172" data-name="Trazado 1279172" d="M1928.718,936.539c.078.07.154.142.233.211a1.344,1.344,0,0,0,.87.339c2.183-.581,3.508-6.727,8.425-7.6a3.376,3.376,0,0,1,2.347.278,2.8,2.8,0,0,1,1.166,1.872c.815,3.725-1.247,9.723-3.3,12.853a5.661,5.661,0,0,1-3.674,2.579,1.781,1.781,0,0,1-1.635-.257,5.289,5.289,0,0,0-1.805-1.11c-.416.2-.457.246-.613.712a1.9,1.9,0,0,0,.08,1.343,2.425,2.425,0,0,0,1.783.982,7.7,7.7,0,0,0,4.591-.761c-1.555,5.362-3.258,10.105-.629,15.419a26.139,26.139,0,0,1-14.531,13.974c-4.018,1.579-9.8,2.766-13.936.955a10.35,10.35,0,0,1-1.175-.636,36.1,36.1,0,0,1-2.342-10.566c6.793-.575,15.486-.428,20.257-6.156,1-1.2,3.142-4.661,2.943-6.235-.036-.281-.169-.354-.346-.553a1.257,1.257,0,0,0-.911-.028c-.876.987-1.154,2.656-1.8,3.839-2.6,4.749-8.305,6.242-13.334,6.784a1.8,1.8,0,0,1,.069-.834c1.5-5.155,8.514-18.111,11.776-22.407a20.212,20.212,0,0,1,5.253-5.073Z" transform="translate(-1775.362 -866.348)" fill="#fee5a7"/>
      <path id="Trazado_1279173" data-name="Trazado 1279173" d="M2338.612,961.077a6.065,6.065,0,0,1,.885-.024,1.936,1.936,0,0,1,1.262.627c.131.176.068.178.023.424a2.238,2.238,0,0,1-1.507.882c-.292.048-.581.107-.871.163a2.838,2.838,0,0,0-.915,1.127l-.1.183a4.827,4.827,0,0,1,2.1,2.917,2.814,2.814,0,0,1-.452,2.177,4.359,4.359,0,0,1-3.04,1.549,2.211,2.211,0,0,1-1.462-.2c-.25-.427-.339-.473-.271-.955.765-.653,2-.568,2.868-1.1a1.588,1.588,0,0,0,.775-1.157c-.271-.895-1.272-1.579-1.776-2.375a2.2,2.2,0,0,1-.328-1.848c.284-1,1.918-2,2.813-2.389" transform="translate(-2175.875 -895.845)" fill="#33332f"/>
      <path id="Trazado_1279174" data-name="Trazado 1279174" d="M1062.119,923.083c8.018-.631,19.665.622,27.6,2.193-1.274,3.622.4,7.549.42,11.3.017,3.815-.766,7.565-.953,11.365-.253,5.123.9,20.593-1.91,24.155a1.924,1.924,0,0,1-1.459.655c-1.038.1-7.868-.8-8.383-1.245a56.043,56.043,0,0,0-1.748-5.536c-1.06-2.761-2.74-5.841-3.081-8.786a17.846,17.846,0,0,1,.643-4.82,25.313,25.313,0,0,0-.208-10.253,22.071,22.071,0,0,0-9.4-13.344c-4.832-2.9-9.741-2.752-15.026-1.43,4.282-4.015,7.946-4.009,13.5-4.253" transform="translate(-977.479 -860.305)" fill="#9daf83"/>
      <path id="Trazado_1279175" data-name="Trazado 1279175" d="M1605.659,999.925c.352.008.706.02,1.057.049a1.543,1.543,0,0,1,1.247.553l-.147.336a7.533,7.533,0,0,1-1.694.071c-.344-.057-.376-.151-.571-.415Z" transform="translate(-1496.626 -932.087)" fill="#3a3a35"/>
      <path id="Trazado_1279176" data-name="Trazado 1279176" d="M1604.957,1043.255a14.165,14.165,0,0,1,1.529-.057,1.063,1.063,0,0,1,.858.4l-.19.573a2.406,2.406,0,0,1-1.73.11,1.432,1.432,0,0,1-.467-1.03" transform="translate(-1496.076 -972.418)" fill="#33332f"/>
      <path id="Trazado_1279177" data-name="Trazado 1279177" d="M1424.251,1025.648c.054,0,.109.006.162.013a1.89,1.89,0,0,1,1.338.606,1.556,1.556,0,0,1-.181,1.061,3.281,3.281,0,0,1-1.562-.538c-.1-.533.023-.659.243-1.142" transform="translate(-1327.366 -956.067)" fill="#33332f"/>
      <path id="Trazado_1279178" data-name="Trazado 1279178" d="M1437.395,983.077a4.03,4.03,0,0,1,2.009.433c.149.473.036.571-.142,1.02a3.609,3.609,0,0,1-1.851-.3,1.574,1.574,0,0,1-.015-1.154" transform="translate(-1339.78 -916.382)" fill="#33332f"/>
      <path id="Trazado_1279179" data-name="Trazado 1279179" d="M1513.812,1029.335a6.224,6.224,0,0,1,2.924.429c.324.451.279.452.213,1.011a4.444,4.444,0,0,1-2.817-.267,1.631,1.631,0,0,1-.321-1.174" transform="translate(-1411.112 -959.503)" fill="#33332f"/>
      <path id="Trazado_1279180" data-name="Trazado 1279180" d="M1490.172,988.741c1.255.051,3.874-.166,4.9.542.406.281.4.606.488,1.05-1.332-.227-4.221.026-5.216-.712-.2-.15-.151-.636-.168-.88" transform="translate(-1389.079 -921.662)" fill="#33332f"/>
      <path id="Trazado_1279181" data-name="Trazado 1279181" d="M1429.769,1090.088c1.066-.01,2.694.042,3.509.832.376.364.35.455.351.948-.145.03-.3.067-.451.085a4.443,4.443,0,0,1-3.29-.55,1.94,1.94,0,0,1-.119-1.315" transform="translate(-1332.716 -1016.135)" fill="#33332f"/>
      <path id="Trazado_1279182" data-name="Trazado 1279182" d="M1517.73,1104.741c2.444.087,4.932.172,7.363.437.291.35.218.665.243,1.107a36.569,36.569,0,0,1-7.292-.428c-.359-.372-.28-.61-.313-1.115" transform="translate(-1414.764 -1029.792)" fill="#33332f"/>
      <path id="Trazado_1279183" data-name="Trazado 1279183" d="M1448.95,1504.827c1.913.029,4.981.09,6.691.951.309.414.236.588.231,1.094a21.433,21.433,0,0,1-6.812-.809,2.113,2.113,0,0,1-.11-1.236" transform="translate(-1350.617 -1402.737)" fill="#33332f"/>
      <path id="Trazado_1279184" data-name="Trazado 1279184" d="M849.61,1316.033a25.524,25.524,0,0,0,4.254-.087,25.537,25.537,0,0,1,4.993-.507c2.905.256,5.681,1.763,8.636,2.109,1.9.222,4.449-.008,5.956-1.278,3.525-2.974-.17-8.288-1.091-11.539a9.983,9.983,0,0,1-.279-3.7c.143-1.139.63-3.023,1.622-3.729.236-.167.361-.088.629-.058a4.385,4.385,0,0,1,.936.982l.532.831c2.177,2.976,3.375,6.923,4.582,10.378,1.269,3.632,2.843,7.123,3.9,10.829.842,2.943,1.312,5.968,2.041,8.939a82.333,82.333,0,0,0,5.752,15.266c-4.682,3.112-8.908,6.927-13.817,9.722-2-6.827-4.939-10.539-11.307-13.639a47.914,47.914,0,0,1-7.209-3.982c-3.58-2.584-9.5-9.971-11.917-13.724,1.739,1.181,4.832,4.408,6.6,5.009a1.138,1.138,0,0,0,1.044-.058l.072-.3c-.858-2.022-8.916-7.428-11.06-9.571-.51-1.89-.769-3.859-1.093-5.788,3.633,4.143,8.256,7.283,12.816,10.3.892.59,2.189,1.686,3.25,1.825a1.141,1.141,0,0,0,.949-.284l-.018-.4a4.225,4.225,0,0,0-.962-1.148,26.007,26.007,0,0,0-2.655-1.634c-2.413-1.536-4.867-3.051-7.161-4.761" transform="translate(-786.174 -1209.197)" fill="#fee5a7"/>
      <path id="Trazado_1279185" data-name="Trazado 1279185" d="M1300.3,1313.177c-.179,1.25.155,3.108-.6,4.175l-.313.043-.407-.362a8.331,8.331,0,0,1,.029-3.606c.091-.607.265-.724.76-1.08Z" transform="translate(-1210.667 -1223.314)" fill="#f8f6ee"/>
      <path id="Trazado_1279186" data-name="Trazado 1279186" d="M670.757,1938.288a18.069,18.069,0,0,0,8.978,4.344,14.092,14.092,0,0,0,10.991-2.769c1.906,4.947,3.232,9.159,3.476,14.529.323,7.107-1.443,14.5-.918,21.263.38,4.889,2.553,10.83,7.39,12.952a32.768,32.768,0,0,0,4.11,1.03,26.748,26.748,0,0,1-5.083,3.249,15.7,15.7,0,0,1-12.346,1.129,17.176,17.176,0,0,1-9.865-9.2,42.772,42.772,0,0,1-2.883-8.6,198.32,198.32,0,0,1-3.3-21.068,98.2,98.2,0,0,1-1.269-12.377,13.036,13.036,0,0,1,.723-4.489" transform="translate(-624.578 -1806.793)" fill="#9daf83"/>
      <path id="Trazado_1279187" data-name="Trazado 1279187" d="M392.73,1221.526l.024.166c.458,3.3-.1,7.069.92,10.245a20.063,20.063,0,0,0,3.8,6.177c3.746,4.706,7.86,9.266,9.062,15.33-1.08.689-2.938,1.613-3.205,3a34.028,34.028,0,0,0-.3,3.788,69.727,69.727,0,0,0-.378,8.111,5.226,5.226,0,0,0-2.149,3.831c-.773,5.073.565,11.413,1.255,16.513.881,6.521,1.72,13.029,3.115,19.463a11.55,11.55,0,0,1-2.992-1.612,76.493,76.493,0,0,0-15.79-7.056c-.492-2.6-.751-5.239-1.271-7.839-.258-1.864-.93-9.728-1.393-10.738l.093-.093a1.407,1.407,0,0,0-.079-1.07c.228-.7-.457-8.04-.523-9.332a4.309,4.309,0,0,0-.063-1.393c-.469-2.948.013-7.41.121-10.5a109.387,109.387,0,0,1,7.422-30.365c.843-2,2.375-4.476,2.328-6.635" transform="translate(-356.697 -1138.657)" fill="#b7d5dc"/>
      <path id="Trazado_1279188" data-name="Trazado 1279188" d="M433.308,2370.687a76.441,76.441,0,0,1,15.79,7.057,11.575,11.575,0,0,0,2.992,1.611c2.159,7.188,3.948,14.366,11.129,18.249a16.96,16.96,0,0,0,13.089,1.377c6.83-2.071,10.738-6.331,15.633-11.014,1.565.265,3.758.438,4.767,1.849,1.116,1.558,1.1,3.8.758,5.613-.824,4.319-4.081,7.92-7.635,10.3-2.242,1.5-7.078,2.765-7.6,5.716-.265,1.507.607,3.009,1.081,4.4,2.314,6.77-4.288,10.032-8.264,13.871-14.75-10.58-26.841-27.622-35.485-43.356-1.56-2.841-3.569-5.718-4.689-8.759a40.033,40.033,0,0,1-1.568-6.913" transform="translate(-403.913 -2209.857)" fill="#9daf83"/>
      <path id="Trazado_1279189" data-name="Trazado 1279189" d="M2698.782,2404.109c4.558,1.624,9.639.992,12.095,6.067,2.472,5.113-1.271,10.5-.689,15.852.631,5.816,5.125,8.985,6.072,13.989,1.231,6.5-3.287,17.043.666,22.668a4.553,4.553,0,0,0,1.761,1.477,47.838,47.838,0,0,1-5.9,3.889,119.47,119.47,0,0,1-18.555,9.037c-.569-3.865-3.537-6.47-3.76-8.645-.332-3.222,3.089-5.438,3.2-8.687.157-4.79-4.163-8.182-3.98-12.921.121-3.168,1.439-6.323,2.373-9.323.85-2.733,1.648-5.486,2.314-8.271,1.987-8.314,3.193-16.687,4.412-25.134" transform="translate(-2507.204 -2241.012)" fill="#b7d5dc"/>
      <path id="Trazado_1279190" data-name="Trazado 1279190" d="M1625.2,614.6c3.344,1.247,6.222,3.376,9.329,5.094,7.185,3.974,13.744,5.109,21.706,6A57.51,57.51,0,0,0,1658.5,636c.4,1.294.845,3.5,1.6,4.555a3.507,3.507,0,0,0,1.144.751l.194.1a5.016,5.016,0,0,1-.618,1.693l-.242-.079a20.221,20.221,0,0,0-5.254,5.073c-3.261,4.3-10.28,17.252-11.776,22.407a1.81,1.81,0,0,0-.069.833c-2.106.26-4.244.355-6.363.443-3.78.158-7.3.388-10.664-1.643.391-2.72.408-5.5.542-8.249.36-7.356,1.215-16.9-3.3-23.178-1.776-2.471-3.71-2.678-6.519-3.157.091-7.421,2.878-15.5,8.021-20.946" transform="translate(-1507.463 -572.906)" fill="#b7d5dc"/>
      <path id="Trazado_1279191" data-name="Trazado 1279191" d="M979.455,1872.273c3.985,3.644,5.409,16.524,5.656,21.981.05,1.1-.1,2.792.5,3.733.456.191.448.164.922.008.724-.841.447-1.946.4-3,2.238,3.822,2.193,7.342,1.089,11.559a25.21,25.21,0,0,1-1.255,3.809c-.451,1.018-1.061,2-1.412,3.053a1.989,1.989,0,0,0-.071,1.167c.3.3.351.272.773.329.7-.213,1.063-.974,1.384-1.583,2.282-4.322,4.208-10.991,2.6-15.816a23.332,23.332,0,0,0-1.314-2.964c3.589-2.645,5.4-6.486,8.113-9.873a16.185,16.185,0,0,1,1.582,3.152,16.78,16.78,0,0,0-4.709,6.957c1.6,4.326,4.292,8.142,5.833,12.485a67.03,67.03,0,0,1,2.337,10.419c1.4,7.58,4.589,10.728,8.888,16.616a2.934,2.934,0,0,0-1.394-.1,7.47,7.47,0,0,0-1.005.994l-.363-.383c-.136.311-.086.1-.077.333s-.015.467-.023.688l-.16.134-.155-.113c.21,11.965-1.567,23.647-2.5,35.521-.181,2.294.133,6.873-.375,8.71a2.062,2.062,0,0,1-1.694-.709c-1.936-1.3-4.242-2.3-6.288-3.457a119.044,119.044,0,0,1-16.694-10.805c3.976-3.839,10.578-7.1,8.263-13.872-.474-1.386-1.346-2.888-1.081-4.4.519-2.951,5.356-4.212,7.6-5.716,3.554-2.383,6.811-5.984,7.635-10.3.347-1.817.358-4.055-.758-5.613-1.009-1.409-3.2-1.583-4.767-1.848.707-.8,1.6-1.516,1.556-2.647a1.447,1.447,0,0,0-.889-.6c-1.136.375-2.677,2.71-3.6,3.652a50.936,50.936,0,0,1-4.89,4.326,32.766,32.766,0,0,1-4.11-1.03c-4.837-2.122-7.01-8.063-7.39-12.952-.525-6.761,1.241-14.156.918-21.264-.244-5.37-1.569-9.582-3.476-14.529,1.892-1.859,2.914-3.919,4.408-6.054" transform="translate(-908.895 -1745.255)" fill="#b7d5dc"/>
      <path id="Trazado_1279192" data-name="Trazado 1279192" d="M1387.367,2825.219c.042-3.569.133-7.12.451-10.676.48-5.372,1.266-10.7,1.671-16.086q.423-5.637.606-11.275c.064-1.983-.039-4.047.172-6.016a2.041,2.041,0,0,1,.525-1.482.8.8,0,0,1,.818.274,3.821,3.821,0,0,1,.327,1.739c.21,11.966-1.567,23.647-2.5,35.521-.181,2.294.133,6.874-.374,8.71a2.06,2.06,0,0,1-1.694-.709" transform="translate(-1293.247 -2591.097)" fill="#33332f"/>
      <path id="Trazado_1279193" data-name="Trazado 1279193" d="M713.765,226.337c.653-1.779,2.324-3.555,3.531-5a110.711,110.711,0,0,1,22.046-20.212A119.414,119.414,0,0,1,816.3,180.4a176.691,176.691,0,0,1,17.921,2.854c3.056,1.111,6.3,1.8,9.406,2.771,4.184,1.312,8.255,2.972,12.324,4.6a30.137,30.137,0,0,1,5.01,2.2,28.677,28.677,0,0,0-14.37,15.81c-.576,1.614-1.251,4.076-.479,5.688a2.982,2.982,0,0,0,1.972,1.531,7.961,7.961,0,0,0,6.157-1.19c2.743-1.592,4.234-3.97,6.449-6.09-.518,2.124-.911,4.557-2.055,6.449-2.052,3.393-6.427,6.462-9.292,9.231a72.453,72.453,0,0,0-11.109,13.5,15.486,15.486,0,0,0-2.084,4.236c-.517,1.989.237,5.68-1.665,6.917-1.131.735-3.067.615-4.343.293-.234-.059-.462-.132-.691-.207l.5-1.642a19.57,19.57,0,0,0,5.277-5.827c1.6-2.791,2.578-6.714,1.7-9.882A54.087,54.087,0,0,0,840.422,218c.545-5.826-2.615-10.588-6.206-14.9-6.691-8.029-16.175-14.046-26.772-14.972a25.935,25.935,0,0,0-19.474,6.344c-1.392,1.177-6.31,5.817-6.2,7.628a1.043,1.043,0,0,0,.515.828c.688.355,3.073-.24,3.962-.249a29.826,29.826,0,0,1,6.133.632c8.894,1.779,19.694,7.2,27.068,12.427l-.767.815a2.09,2.09,0,0,0-1.095-.625,37.511,37.511,0,0,0-4.585-.407,49.674,49.674,0,0,1-6.8-.913,28.137,28.137,0,0,1-7.033-2.428c-5.661-2.905-9.21-6.629-15.794-8.174a20,20,0,0,0-5.334-.613c-3.92.15-10.169,1.889-12.854,4.952a3.224,3.224,0,0,0-.849,2.6c.232,1.91,1.972,3.8,3.485,4.9,2.368,1.725,5.076,1.938,7.905,1.977a32.822,32.822,0,0,0-2.039,6.95c-.227,1.577-.24,3.165-.421,4.743-.057.5-.08.582-.493.873a.97.97,0,0,1-.833-.5,10.042,10.042,0,0,1-.885-1.97c-1.453-3.623-1.725-5.9-5.969-6.933-2.656-.645-10.894-1.634-13.286-.247a3.872,3.872,0,0,0-1.255,1.359c-1.7.116-3.185.143-4.411,1.5a18.511,18.511,0,0,0-2.141,3.453l-19.011.005a3.718,3.718,0,0,0,.951-2.945,2.369,2.369,0,0,0-.98-1.618,3.377,3.377,0,0,0-2.773-.452c-3.116.651-5.6,2.981-8.409,4.294" transform="translate(-665.34 -167.814)" fill="#b7d5dc"/>
      <path id="Trazado_1279194" data-name="Trazado 1279194" d="M1352.166,1437.944c1.661,1.631,3.415,3.162,5.154,4.709a14.946,14.946,0,0,1-.991,1.152c-5.431,5.706-22.066,14.876-30.033,15.06a8.35,8.35,0,0,1-7.9-4.338,7.688,7.688,0,0,0-1.09-2.123,1.461,1.461,0,0,0-.971.077,1.139,1.139,0,0,0-.286.89c.107,1.64,1.553,3.6,2.7,4.659a10.523,10.523,0,0,0,7.922,2.662c8-.45,21.208-7.647,27.524-12.538a35.191,35.191,0,0,0,4.568-4.292,67.761,67.761,0,0,1,13.081,13.906c-.038,1.61,1.309,3.528,1.769,5.108a38.159,38.159,0,0,1,1.087,5.9,48.985,48.985,0,0,1,.459,7.6c-.271,8.506-2.393,18.1,3.98,25.051.17.187.107.087.184.356a215.778,215.778,0,0,1-4.687,26.306c-.646,2.6-1.343,5.2-2.11,7.763-.986,3.291-2.435,6.844-2.569,10.292-.2,5.227,4.116,8.4,3.952,13-.115,3.165-3.633,5.187-3.25,8.614.351,3.162,3.278,5.284,3.88,9.421a7.627,7.627,0,0,0-2.4.779,96.48,96.48,0,0,1-14.143,4.186c-18.733,4.142-38.686,4.238-57.2-1.082a114.886,114.886,0,0,1-11.432-4.079,34.019,34.019,0,0,0-4.2-1.756c.508-1.836.193-6.416.374-8.71.935-11.874,2.713-23.555,2.5-35.521l.156.113.16-.134c.008-.22.032-.465.023-.687s-.059-.021.077-.333l.363.383a7.464,7.464,0,0,1,1.005-.994,2.934,2.934,0,0,1,1.394.1,16.014,16.014,0,0,1,2.29,2.65c1.706,2.059,3.39,4.167,4.942,6.347,2.222,3.117,4.09,6.5,7.04,9.013a14.973,14.973,0,0,0,11.138,3.622c11.176-.922,22.3-12.75,28.938-21.138,2.887-3.65,5.408-7.574,8.432-11.122a50.015,50.015,0,0,0,5.615-1.527,26.4,26.4,0,0,0,16.026-13.552c.462-.931,1.425-2.807,1-3.809-.108-.252-.283-.219-.523-.285a2.061,2.061,0,0,0-.581.166c-.543.35-2.057,4.043-2.547,4.87-3.836,6.468-10.105,10.128-17.255,11.918,1.487-2.178,3.459-4.18,5.163-6.2,2.769-3.29,5.409-6.668,7.842-10.211a13.628,13.628,0,0,0,2.281-3.922,2.039,2.039,0,0,0-.113-1.674c-.422-.1-.581,0-.891.321a14.706,14.706,0,0,0-1.612,2.547c-.666,1.067-1.4,2.092-2.14,3.11-3.9,5.387-8.369,10.263-12.5,15.455-3.432,4.308-6.527,8.881-9.969,13.171-5.288,6.586-13.913,15.6-21.826,18.736a15.725,15.725,0,0,1-12.044.116,13.4,13.4,0,0,1-4.425-3.154c-2.421-2.549-4.113-5.754-6.226-8.556-4.307-5.716-10.106-10.98-13.176-17.49-2.421-5.136-2.154-10.847-3.926-16.165-1.525-4.576-4.494-8.462-6.257-12.916,1.737-.7,3.491-1.26,5.163-2.128a114.977,114.977,0,0,0,16.3-11.455c3.463,5.174,5.164,11.324,8.849,16.447a34.752,34.752,0,0,0,4.624,5.176c1.8,1.664,4.373,3.286,5.618,5.419a20.261,20.261,0,0,1,1.829,5.129c1.567,6.116,2.116,12.521.295,18.635-.364,1.222-2.215,5.2-2.278,6.045-.031.43.127.518.4.8a1.241,1.241,0,0,0,.918,0,7.414,7.414,0,0,0,1.516-2.544c4.119-9.744,2.664-19.939-1.263-29.482,1.122-2.128,7.913-10.029,7.952-10.922a1.567,1.567,0,0,0-.434-.787c-.21-.182-.342-.1-.6-.086-1.669.984-6.9,8.2-8.359,10.355-6.4-5.443-9.581-9.108-13.174-16.788-1.178-2.517-2.306-5.507-3.9-7.781a2.487,2.487,0,0,0-1.7-1.214,2.952,2.952,0,0,1-.725-.186c-1.031-.432-3.405-7.738-3.92-9.129,4.872-5.709,13.38-14.209,20-17.6a21.015,21.015,0,0,1,4.3-1.558c.64,2.263,1.042,4.762,1.849,6.949a4.506,4.506,0,0,0,1.565.969c5.07,2.082,11.528.922,16.415-1.112a26.313,26.313,0,0,0,15.018-14.963" transform="translate(-1189.353 -1340.392)" fill="#b1d1da"/>
      <path id="Trazado_1279195" data-name="Trazado 1279195" d="M1932.38,2421.906a1.65,1.65,0,0,1,1.026.328c4.44,3.582,8.176,10.61,8.944,16.25.285,2.086.77,5.747-.585,7.518-.293-.064-.584-.155-.875-.234a1.2,1.2,0,0,1-.449-.947c-.04-1.1.236-2.194.251-3.288a21.754,21.754,0,0,0-1.471-7.456,26.25,26.25,0,0,0-3.234-6.083c-.795-1.134-3.921-4.251-4.05-5.325-.029-.244.3-.566.444-.761" transform="translate(-1800.868 -2257.601)" fill="#33332f"/>
      <path id="Trazado_1279196" data-name="Trazado 1279196" d="M2048.056,1837.368a2.752,2.752,0,0,1,.648,0c.44.119.52.324.759.68-.131.691-.655.911-1.274,1.163-2,.812-4.13,1.3-6.077,2.279-6.43,3.251-11.313,9.815-14.724,16.01,6.568-4.069,13.8-5.923,21.412-6.781a20.083,20.083,0,0,1,3.646-.411.993.993,0,0,1,.9.537,1.141,1.141,0,0,1-.035.985,1.251,1.251,0,0,1-.921.429,61.564,61.564,0,0,0-16.488,3.066,30,30,0,0,0-3.64,1.436c-1.3.658-4.779,3.295-6.025,3.247a.823.823,0,0,1-.819-.414c-.267-1.5.806-3.668,1.5-4.979a37.864,37.864,0,0,1,4.317-6.229c4.858-5.881,9.565-8.831,16.821-11.016" transform="translate(-1887.971 -1712.697)" fill="#33332f"/>
      <rect id="Rectángulo_456431" data-name="Rectángulo 456431" width="289.736" height="249.551" transform="translate(0 0)" fill="none"/>
    </g>
  </g>
</svg>
