<svg xmlns="http://www.w3.org/2000/svg" xmlns:xlink="http://www.w3.org/1999/xlink" width="135.059" height="129" viewBox="0 0 135.059 129">
  <defs>
    <clipPath id="clip-path">
      <rect id="Rectángulo_400938" data-name="Rectángulo 400938" width="120" height="120" fill="none"/>
    </clipPath>
  </defs>
  <g id="Grupo_1207846" data-name="Grupo 1207846" transform="translate(-462.5 -7261.406)">
    <g id="Grupo_108927" data-name="Grupo 108927" transform="translate(78.5 2794.406)">
      <rect id="Rectángulo_36179" data-name="Rectángulo 36179" width="129" height="127" transform="translate(390.059 4467)" fill="#f9f7f0"/>
    </g>
    <g id="Grupo_1207725" data-name="Grupo 1207725" transform="translate(-485.156 6851.472)">
      <path id="Trazado_1328322" data-name="Trazado 1328322" d="M1028.094,497.035c-1.944,1.123-3.8,2.189-5.651,3.265q-13.673,7.956-27.343,15.915a7.089,7.089,0,0,1-9.459-1.6c-3.425-4.093-6.826-8.208-10.127-12.4a6.367,6.367,0,0,1-1.042-3.018,29.363,29.363,0,0,1-.041-4.03c.023-3.243,2.333-5.1,5.516-4.446.193.04.386.083.5.108a40.5,40.5,0,0,1,2.106-3.9,13.4,13.4,0,0,1,8.935-5.674c1.047-.2,1.856-.564,2.053-1.836a10.329,10.329,0,0,1-4.915-7.056c-4.168.058-5.53-1.971-5.723-4.083-.213-2.323,1.14-3.8,4.236-4.695a7.058,7.058,0,0,1-1.282-5.543,6.656,6.656,0,0,1,4.864-5.129,9.187,9.187,0,0,0,2.259-1.081,13.432,13.432,0,0,1,12.947-1.278c4.545,1.8,6.411,7.221,4.444,11.707-.194.444-.422.873-.637,1.313,3.068.942,4.452,2.468,4.264,4.68-.212,2.5-1.734,3.6-5.763,4.111a10.537,10.537,0,0,1-5.267,7.25c.7.591,1.186,1.333,1.786,1.446a14.4,14.4,0,0,1,10.868,8.062c2.11-1.207,4.174-2.357,6.2-3.575a1.446,1.446,0,0,0,.59-1.042c.045-3.016.069-6.034-.01-9.048a10.646,10.646,0,0,0-.709-2.462l1.8-1.662a5.731,5.731,0,0,1,1.815,4.411c.048,2.525.013,5.051.013,7.821l23.9-13.687a10.166,10.166,0,0,0-7.536-5.151c-.053.058-.139.109-.154.176-.834,3.592-1.9,4.452-5.55,4.452-.815,0-1.631.006-2.446,0a4.165,4.165,0,0,1-4.418-3.415c-.136-.5-.254-1-.408-1.619-5.16,1.746-8.7,5.033-10.144,10.172a83.567,83.567,0,0,0-1.545,9.139c-.071.436-.164.869-.271,1.433l-2.723-.336c.269-1.985.567-3.9.782-5.822.469-4.2,1.5-8.171,4.331-11.471.476-.555.975-1.091,1.438-1.606l-4.626-3.476,3.308-2.641-4.911-4.74c.711-.366,1.228-.635,1.747-.9a5.394,5.394,0,0,0,3.04-4.045,33.206,33.206,0,0,0,.531-4.849c.165-7.945,6.4-14.7,14.107-15.2,8.517-.557,15.616,5.021,16.777,13.209.148,1.044.176,2.107.227,3.163.178,3.708.779,7.162,5.132,8.419l-4.942,4.733,3.6,2.751-4.7,3.554,1.965,2.55q2.2-1.24,4.415-2.491c2.984-1.681,5.767-.07,5.782,3.351.008,1.875-.042,3.752.014,5.625a3.916,3.916,0,0,1-2.242,3.752c-3.322,1.9-6.624,3.837-9.932,5.762-.2.118-.391.262-.7.468a5.953,5.953,0,0,0,6.247,1.042c1.773-.7,3.444-1.659,5.162-2.5.425-.208.856-.4,1.45-.684,0,1.934.023,3.674,0,5.413-.057,3.624.119,7.276-.267,10.867-.89,8.279-7.716,16.01-15.759,18.143a4.17,4.17,0,0,1-2.362-.148q-13.516-4.984-15.408-19.3C1028.213,497.5,1028.167,497.355,1028.094,497.035Zm10.818-58.386a47.059,47.059,0,0,1,4.854,3.805,5.563,5.563,0,0,1,1.313,3.145,36.3,36.3,0,0,1,.039,5.617,9.992,9.992,0,0,1-3.912,7.7c-.4.317-1.024,1.013-.936,1.154a3.952,3.952,0,0,0,1.51,1.516c1.286.594,2.691.926,4.009,1.459a3.533,3.533,0,0,0,4.329-1.173l-3.071-2.452,4.232-3.958a8.947,8.947,0,0,1-2.978-6.028c-.149-1.456-.2-2.924-.422-4.368a19.276,19.276,0,0,0-.966-4.5,12.6,12.6,0,0,0-14.077-7.629,12.8,12.8,0,0,0-10.392,12.483c-.08,3.708-.332,7.352-3.56,10.312l4.443,4-2.934,2.416.067.448c1.1.283,2.3.984,3.285.759a33.729,33.729,0,0,0,5.545-2.143,1.11,1.11,0,0,0,.235-2.092,9.645,9.645,0,0,1-4.2-8.133c-.007-1.915-.069-3.835.032-5.745a4.033,4.033,0,0,1,.721-2.38c1.535-1.663,3.267-3.144,4.992-4.762,1.809,1.351,3.765,2.81,5.718,4.274.19.142.36.311.619.537l-1.635,2.206-4.727-3.495c-.826.848-1.629,1.6-2.341,2.436a2.241,2.241,0,0,0-.556,1.288c-.038,2.158-.11,4.328.058,6.475a7.029,7.029,0,0,0,14.012-.516c.04-1.793-.026-3.588.028-5.379a2.19,2.19,0,0,0-1.054-2.037c-1.351-.947-2.644-1.977-4-3Zm-10.8,46.647c-.533.264-.828.391-1.105.549q-16.63,9.529-33.256,19.064c-2.082,1.194-3.1,1.044-4.693-.741-2.988-3.338-5.943-6.705-8.978-10a2.369,2.369,0,0,0-1.768-.676c-.864.11-1.142.922-1.132,1.779.013,1.222-.059,2.449.031,3.665a3.14,3.14,0,0,0,.6,1.659q4.987,6.178,10.063,12.285a4.254,4.254,0,0,0,5.509,1.058c.649-.338,1.268-.733,1.9-1.1q15.938-9.265,31.865-18.547c.4-.234.909-.724.921-1.109C1028.153,490.623,1028.114,488.062,1028.114,485.3Zm-20.993-23.158a5.92,5.92,0,0,0-2.628-9.145c-3.236-1.071-6.629-1.066-9.6,1.008a10.954,10.954,0,0,1-3.432,1.687c-2.945.814-3.8,3.825-1.679,6.457l4.2-4.55,6.708,5.023L999,464.854l-4.765-3.525c-.844.89-1.644,1.648-2.331,2.5a2.552,2.552,0,0,0-.547,1.423c-.059,1.913-.08,3.831,0,5.742a7.166,7.166,0,0,0,6.693,6.878,6.908,6.908,0,0,0,7.252-5.755,56.426,56.426,0,0,0,.231-6.331,2.313,2.313,0,0,0-1.1-2.156c-1.324-.942-2.608-1.939-4.008-2.987l1.7-2.242Zm23.851,25.044c0,3.315-.107,6.373.021,9.422a19.516,19.516,0,0,0,13.22,17.529,2.97,2.97,0,0,0,1.738.011,19.362,19.362,0,0,0,9.574-7.051c4.5-5.965,3.793-12.864,3.7-19.9-5.578,3.222-10.318,2.494-14.136-2.677C1041.236,489.706,1036.537,490.386,1030.972,487.182Zm-17.861,3.37a11.009,11.009,0,0,0-6.866-6.174l-2.824,8.344c-1.365-.905-2.658-1.671-3.841-2.578a1.647,1.647,0,0,0-2.329.022c-1.186.9-2.467,1.674-3.806,2.567l-2.831-8.365a10.933,10.933,0,0,0-7.506,8.318.868.868,0,0,0,.12.668c1.672,1.916,3.369,3.811,5.059,5.712l.3-.126c-.288-2.473.654-5.067-.881-7.346l1.9-1.938a5.723,5.723,0,0,1,1.717,4.152c.008,2.566,0,5.132.012,7.7a12.156,12.156,0,0,0,.146,1.288,4.148,4.148,0,0,0,.639-.206c4.272-2.445,8.551-4.88,12.793-7.377a1.78,1.78,0,0,0,.578-1.273,6.1,6.1,0,0,1,1.813-4.3l1.927,1.783-.884,1.859Zm34.172-7.968c3.824-2.222,7.532-4.342,11.188-6.545a2.078,2.078,0,0,0,.772-1.475c.1-1.665.044-3.339.034-5.009-.01-1.606-.506-1.89-1.922-1.081q-10.862,6.212-21.716,12.438c-1.639.939-3.272,1.887-5.06,2.92,1.315.659,2.392,1.234,3.5,1.747a6.278,6.278,0,0,0,8.135-2.012c.939-1.222,1.86-2.458,2.877-3.8Zm-14.121-21.8a8.668,8.668,0,0,0-1.339,2.119,6.717,6.717,0,0,0,.076,2.39,1.4,1.4,0,0,0,1.507,1.3c1.176.038,2.357.054,3.532,0,1.318-.061,2.449-2.464,1.723-3.571-.459-.7-.9-1.412-1.425-2.232-.541.046-1.221.15-1.9.15C1034.609,460.934,1033.882,460.836,1033.162,460.781Zm-31.811,21.577c-.267-1.537-1.043-2.083-2.413-1.745a2.136,2.136,0,0,1-.972,0,1.779,1.779,0,0,0-2.447,1.635c2.7,2.563,2.778,2.567,5.576.3C1001.188,482.47,1001.289,482.4,1001.351,482.358ZM988.49,466.342a11.356,11.356,0,0,0-2.473.915,1.574,1.574,0,0,0,.012,1.462,11.173,11.173,0,0,0,2.461.874Zm19.91,3.362a11.962,11.962,0,0,0,2.507-1.108,1.586,1.586,0,0,0-.147-1.476,9.268,9.268,0,0,0-2.36-.658ZM996.967,486.99l-2.984-2.235-.192.157,1.188,3.4Zm4.949,1.343,1.26-3.8-3.269,2.457Z" transform="translate(0)"/>
      <path id="Trazado_1328323" data-name="Trazado 1328323" d="M1217.8,515.958c2.67-.266,2.9-.373,4.34-2.074l2.309,1.153c-.938,2.458-3.613,3.9-6.649,3.577Z" transform="translate(-183.871 -63.414)"/>
      <path id="Trazado_1328324" data-name="Trazado 1328324" d="M1071.453,594.5l2.392,1.178c-.967,2.513-3.67,3.917-6.761,3.509V596.6A4.491,4.491,0,0,0,1071.453,594.5Z" transform="translate(-70.027 -124.311)"/>
      <path id="Trazado_1328325" data-name="Trazado 1328325" d="M1217.354,671.162a37.691,37.691,0,0,0,6.032,1.757c2.313.288,3.626-1.712,5.227-3.254,1.588,1.392,2.882,3.577,5.273,3.259a38.8,38.8,0,0,0,6.042-1.788c-.257,4.477.745,9.208-1.487,13.637a14.873,14.873,0,0,1-8.615,7.667,4.074,4.074,0,0,1-2.463-.015,14.9,14.9,0,0,1-10-13.593C1217.3,676.237,1217.354,673.64,1217.354,671.162Zm2.761,4.16c0,1.215-.034,2.271.006,3.324a12.234,12.234,0,0,0,7.837,10.967,2.117,2.117,0,0,0,1.37-.006c5.4-2.085,8.665-7.6,7.611-14.219a21.789,21.789,0,0,0-16.824-.067Z" transform="translate(-183.523 -181.087)"/>
    </g>
  </g>
</svg>
