<svg xmlns="http://www.w3.org/2000/svg" xmlns:xlink="http://www.w3.org/1999/xlink" width="303.993" height="249.66" viewBox="0 0 303.993 249.66">
  <defs>
    <clipPath id="clip-path">
      <circle id="SVGID" cx="92.657" cy="92.657" r="92.657" fill="none" stroke="#fff" stroke-miterlimit="10" stroke-width="1"/>
    </clipPath>
  </defs>
  <g id="Grupo_1207842" data-name="Grupo 1207842" transform="translate(8343.493 5861.105)">
    <g id="Grupo_1207574" data-name="Grupo 1207574" transform="translate(-9251.212 -6107.565)">
      <path id="Trazado_1327624" data-name="Trazado 1327624" d="M996.922,400.306c-8.748,6.809-18.447,12.6-29.087,15.714s-22.3,3.414-32.682-.478-19.284-12.26-22.582-22.844-.335-23.179,8.172-30.288,22.312-7.458,30.444.077a13.049,13.049,0,0,1,4.213,6.935,7.47,7.47,0,0,1-2.594,7.378c-2.823,2.037-6.754,1.267-10.009.03-18.582-7.057-39.3-33.734-34.073-60.915,9.588-49.848,64.323-53.258,75.3-44.11,1.6,1.336,3.058,3.086,3.26,5.164s-1.446,4.4-3.522,4.189a4.625,4.625,0,0,1-2.222-1.023c-5.492-4.092-7.2-12.119-4.827-18.542s8.223-11.174,14.721-13.34,13.579-1.993,20.313-.746c12.075,2.235,23.768,8.131,31.334,17.8s10.418,23.348,5.673,34.675" transform="translate(0 0)" fill="none" stroke="#fa8400" stroke-miterlimit="10" stroke-width="0.26"/>
      <path id="Trazado_1327625" data-name="Trazado 1327625" d="M1449.543,400.306c8.749,6.809,18.447,12.6,29.087,15.714s22.3,3.414,32.683-.478,19.283-12.26,22.581-22.844.335-23.179-8.172-30.288-22.312-7.458-30.444.077a13.051,13.051,0,0,0-4.213,6.935,7.469,7.469,0,0,0,2.594,7.378c2.823,2.037,6.755,1.267,10.009.03,18.582-7.057,39.3-33.734,34.073-60.915-9.588-49.848-64.323-53.258-75.3-44.11-1.6,1.336-3.058,3.086-3.26,5.164s1.446,4.4,3.522,4.189a4.625,4.625,0,0,0,2.221-1.023c5.492-4.092,7.2-12.119,4.827-18.542s-8.223-11.174-14.721-13.34-13.578-1.993-20.313-.746c-12.075,2.235-23.768,8.131-31.334,17.8s-10.418,23.348-5.673,34.675" transform="translate(-327.042 0)" fill="none" stroke="#fa8400" stroke-miterlimit="10" stroke-width="0.26"/>
      <g id="Grupo_1207529" data-name="Grupo 1207529" transform="translate(960.113 265.789)">
        <g id="Grupo_1207516" data-name="Grupo 1207516" transform="translate(0 0)">
          <g id="Grupo_1207515" data-name="Grupo 1207515" clip-path="url(#clip-path)">
            <circle id="Elipse_13797" data-name="Elipse 13797" cx="92.657" cy="92.657" r="92.657" fill="#7bf2ff"/>
            <g id="Grupo_1207514" data-name="Grupo 1207514" transform="translate(-14.958 -7.452)" style="mix-blend-mode: overlay;isolation: isolate">
              <path id="Trazado_1327626" data-name="Trazado 1327626" d="M1116.444,531.44c6.619,1.1,12.043-5.932,14.742-12.075,4.623-10.521,3.246-24.114-5.249-31.852a14.526,14.526,0,0,1-2.33-2.356,11.061,11.061,0,0,1-1.444-5.189q-.535-5-1.07-10a11.81,11.81,0,0,0-.713-3.417c-1.973-4.616-8.346-4.806-13.335-4.247-4.661.523-9.927,1.4-12.523,5.305-2.821,4.246-1.491,10.821-5.485,13.99-3.3,2.62-8.407,1.066-11.378-1.923s-4.56-7.047-6.864-10.576c-3.079-4.715-7.711-9.229-7.254-14.841a8.957,8.957,0,0,1,17.573-1.616,15.4,15.4,0,0,0,.934,3.309c1.7,3.185,6.814,2.656,9.224-.029s2.946-6.5,3.686-10.03c1.4-6.679,4.543-13.808,10.876-16.35,2.949-1.183,6.426-1.291,8.846-3.349,3.013-2.562,3.207-7.064,3.165-11.019q-.075-6.987-.149-13.974c-.034-3.217-.092-6.544-1.435-9.468-1.851-4.031-5.955-6.857-7.153-11.128-1.174-4.186.757-8.6.649-12.942-.146-5.919-4.157-11.212-9.144-14.4s-10.87-4.629-16.656-5.882c-4.444-.962-9.094-1.933-12.628-4.794s-5.465-8.278-2.962-12.074c0,0-39.18,29.993-45.743,57.79s9.942,86.48,9.942,86.48S1067.03,523.239,1116.444,531.44Z" transform="translate(-1021.083 -314.635)" fill="#fff" stroke="#fff" stroke-miterlimit="10" stroke-width="2.468"/>
              <path id="Trazado_1327627" data-name="Trazado 1327627" d="M1412.9,282.755c-6.145-3.257-8.689,10.988-11.4,17.392s-3.61,13.892-.857,20.279c3.09,7.168,10.524,12.707,10.624,20.512a15.744,15.744,0,0,0,.194,4.4c.83,2.728,3.817,4.078,6.48,5.1,1.672.639,3.578,1.272,5.19.494,2.732-1.32,2.37-5.2,2.878-8.192,1.129-6.642,9.667-10.766,15.571-7.52,6.312,3.47,7.384,11.83,9.829,18.6a36.651,36.651,0,0,0,11.914,16.4,4.193,4.193,0,0,0,2.185,1.06,4.449,4.449,0,0,0,2.487-.88l11.876-7.154c1.3-.784,2.788-2.315,1.9-3.55C1481.777,359.693,1493.5,325.471,1412.9,282.755Z" transform="translate(-1274.595 -282.278)" fill="#fff" stroke="#fff" stroke-miterlimit="10" stroke-width="2.468"/>
              <path id="Trazado_1327628" data-name="Trazado 1327628" d="M1496.117,576.942c-2.384,4.492-8.2,5.87-13.281,5.747s-10.3-1.24-15.172.212c-3.014.9-5.668,2.721-8.611,3.828-3.967,1.492-8.7,1.839-11.481,5.041s-2.6,8.265-5.5,11.353c-1.515,1.611-3.654,2.443-5.645,3.4A38.071,38.071,0,0,0,1420.9,620.4a4.187,4.187,0,0,0-.895,3.041,3.531,3.531,0,0,0,.778,1.4c3.309,4.018,9.174,4.449,14.361,4.88s11.17,1.739,13.428,6.428c2.436,5.059-.87,10.808-2.7,16.117a30.666,30.666,0,0,0-1.177,15.338c.86,4.776,3.155,9.643,7.426,11.947,0,0,26.6-40.306,36.633-68.876S1496.117,576.942,1496.117,576.942Z" transform="translate(-1288.663 -479.958)" fill="#fff" stroke="#fff" stroke-miterlimit="10" stroke-width="2.468"/>
              <path id="Trazado_1327629" data-name="Trazado 1327629" d="M1422.133,531.491c.569,1.81.643,3.958-.551,5.433-1.585,1.958-4.559,1.87-7.047,1.472s-5.319-.848-7.287.725c-1.58,1.263-2.239,3.61-4.117,4.36-1.639.655-3.568-.282-4.613-1.7a12.135,12.135,0,0,1-1.757-4.947c-.521-2.635-1.035-5.41-.2-7.964.489-1.5,1.435-2.9,1.433-4.476,0-2.5-2.36-4.434-2.742-6.906-.37-2.4,1.284-4.754,3.421-5.9a14.674,14.674,0,0,1,7.078-1.3c1.4.01,3.015.193,3.77,1.368a7.1,7.1,0,0,1,.633,2.545C1410.667,516.828,1420.895,527.551,1422.133,531.491Z" transform="translate(-1272.063 -435.243)" fill="#fff" stroke="#fff" stroke-miterlimit="10" stroke-width="2.468"/>
            </g>
            <path id="Trazado_1327630" data-name="Trazado 1327630" d="M1116.444,531.44c6.619,1.1,12.043-5.932,14.742-12.075,4.623-10.521,3.246-24.114-5.249-31.852a14.526,14.526,0,0,1-2.33-2.356,11.061,11.061,0,0,1-1.444-5.189q-.535-5-1.07-10a11.81,11.81,0,0,0-.713-3.417c-1.973-4.616-8.346-4.806-13.335-4.247-4.661.523-9.927,1.4-12.523,5.305-2.821,4.246-1.491,10.821-5.485,13.99-3.3,2.62-8.407,1.066-11.378-1.923s-4.56-7.047-6.864-10.576c-3.079-4.715-7.711-9.229-7.254-14.841a8.957,8.957,0,0,1,17.573-1.616,15.4,15.4,0,0,0,.934,3.309c1.7,3.185,6.814,2.656,9.224-.029s2.946-6.5,3.686-10.03c1.4-6.679,4.543-13.808,10.876-16.35,2.949-1.183,6.426-1.291,8.846-3.349,3.013-2.562,3.207-7.064,3.165-11.019q-.075-6.987-.149-13.974c-.034-3.217-.092-6.544-1.435-9.468-1.851-4.031-5.955-6.857-7.153-11.128-1.174-4.186.757-8.6.649-12.942-.146-5.919-4.157-11.212-9.144-14.4s-10.87-4.629-16.656-5.882c-4.444-.962-9.094-1.933-12.628-4.794s-5.465-8.278-2.962-12.074c0,0-39.18,29.993-45.743,57.79s9.942,86.48,9.942,86.48S1067.03,523.239,1116.444,531.44Z" transform="translate(-1036.041 -322.087)" fill="#249077"/>
            <path id="Trazado_1327631" data-name="Trazado 1327631" d="M1412.9,282.755c-6.145-3.257-8.689,10.988-11.4,17.392s-3.61,13.892-.857,20.279c3.09,7.168,10.524,12.707,10.624,20.512a15.744,15.744,0,0,0,.194,4.4c.83,2.728,3.817,4.078,6.48,5.1,1.672.639,3.578,1.272,5.19.494,2.732-1.32,2.37-5.2,2.878-8.192,1.129-6.642,9.667-10.766,15.571-7.52,6.312,3.47,7.384,11.83,9.829,18.6a36.651,36.651,0,0,0,11.914,16.4,4.193,4.193,0,0,0,2.185,1.06,4.449,4.449,0,0,0,2.487-.88l11.876-7.154c1.3-.784,2.788-2.315,1.9-3.55C1481.777,359.693,1493.5,325.471,1412.9,282.755Z" transform="translate(-1289.554 -289.73)" fill="#249077"/>
            <path id="Trazado_1327632" data-name="Trazado 1327632" d="M1496.117,576.942c-2.384,4.492-8.2,5.87-13.281,5.747s-10.3-1.24-15.172.212c-3.014.9-5.668,2.721-8.611,3.828-3.967,1.492-8.7,1.839-11.481,5.041s-2.6,8.265-5.5,11.353c-1.515,1.611-3.654,2.443-5.645,3.4A38.071,38.071,0,0,0,1420.9,620.4a4.187,4.187,0,0,0-.895,3.041,3.531,3.531,0,0,0,.778,1.4c3.309,4.018,9.174,4.449,14.361,4.88s11.17,1.739,13.428,6.428c2.436,5.059-.87,10.808-2.7,16.117a30.666,30.666,0,0,0-1.177,15.338c.86,4.776,3.155,9.643,7.426,11.947,0,0,26.6-40.306,36.633-68.876S1496.117,576.942,1496.117,576.942Z" transform="translate(-1303.622 -487.41)" fill="#249077"/>
            <path id="Trazado_1327633" data-name="Trazado 1327633" d="M1422.133,531.491c.569,1.81.643,3.958-.551,5.433-1.585,1.958-4.559,1.87-7.047,1.472s-5.319-.848-7.287.725c-1.58,1.263-2.239,3.61-4.117,4.36-1.639.655-3.568-.282-4.613-1.7a12.135,12.135,0,0,1-1.757-4.947c-.521-2.635-1.035-5.41-.2-7.964.489-1.5,1.435-2.9,1.433-4.476,0-2.5-2.36-4.434-2.742-6.906-.37-2.4,1.284-4.754,3.421-5.9a14.674,14.674,0,0,1,7.078-1.3c1.4.01,3.015.193,3.77,1.368a7.1,7.1,0,0,1,.633,2.545C1410.667,516.828,1420.895,527.551,1422.133,531.491Z" transform="translate(-1287.022 -442.695)" fill="#249077"/>
            <path id="Trazado_1327634" data-name="Trazado 1327634" d="M1234.676,388.774c1.089,20.256-3.73,39.762-12.325,58.514a94.263,94.263,0,0,1-33.307,38.181c-33.743,23.057-77.215,19.246-108.323-2.529a92.666,92.666,0,1,0,153.955-94.166Z" transform="translate(-1076.05 -361.174)" fill="#023047" opacity="0.24"/>
            <path id="Trazado_1327635" data-name="Trazado 1327635" d="M1118.15,448.09a121.175,121.175,0,0,0-9.912,27.472" transform="translate(-1094.511 -400.967)" fill="none" stroke="#fff" stroke-miterlimit="10" stroke-width="1.234" style="mix-blend-mode: overlay;isolation: isolate"/>
            <path id="Trazado_1327636" data-name="Trazado 1327636" d="M1134.4,469.789a121.066,121.066,0,0,0-5.267,17.073" transform="translate(-1108.528 -415.525)" fill="none" stroke="#fff" stroke-miterlimit="10" stroke-width="1.234" style="mix-blend-mode: overlay;isolation: isolate"/>
          </g>
          <circle id="SVGID-2" data-name="SVGID" cx="92.657" cy="92.657" r="92.657" fill="none" stroke="#fff" stroke-miterlimit="10" stroke-width="1"/>
        </g>
        <g id="Grupo_1207517" data-name="Grupo 1207517" transform="translate(44.169 105.504)">
          <path id="Trazado_1327637" data-name="Trazado 1327637" d="M1213.7,647.243c0,1.216-2.163,2.2-4.832,2.2s-4.832-.985-4.832-2.2,2.163-2.2,4.832-2.2S1213.7,646.028,1213.7,647.243Z" transform="translate(-1202.95 -638.6)" fill="#1b775f"/>
          <path id="Trazado_1327638" data-name="Trazado 1327638" d="M1203.6,633.763s-3.951-3.951-2.582-5.4,3.912,1.721,3.912,1.721-.547-4.694,2.073-4.616,1.565,4.655,1.565,4.655,1.76-2.778,3.56-1.8-2.425,5.438-2.425,5.438Z" transform="translate(-1200.727 -625.469)" fill="#1b775f"/>
        </g>
        <g id="Grupo_1207518" data-name="Grupo 1207518" transform="translate(52.16 40.672)">
          <path id="Trazado_1327639" data-name="Trazado 1327639" d="M1237.983,450.266c0,1.216-2.163,2.2-4.832,2.2s-4.832-.985-4.832-2.2,2.163-2.2,4.832-2.2S1237.983,449.05,1237.983,450.266Z" transform="translate(-1227.229 -441.623)" fill="#1b775f"/>
          <path id="Trazado_1327640" data-name="Trazado 1327640" d="M1227.876,436.786s-3.951-3.951-2.582-5.4,3.912,1.721,3.912,1.721-.548-4.694,2.073-4.616,1.565,4.655,1.565,4.655,1.76-2.778,3.56-1.8-2.425,5.438-2.425,5.438Z" transform="translate(-1225.006 -428.492)" fill="#1b775f"/>
        </g>
        <g id="Grupo_1207519" data-name="Grupo 1207519" transform="translate(54.922 76.546)">
          <path id="Trazado_1327641" data-name="Trazado 1327641" d="M1246.377,559.262c0,1.216-2.164,2.2-4.832,2.2s-4.832-.985-4.832-2.2,2.163-2.2,4.832-2.2S1246.377,558.046,1246.377,559.262Z" transform="translate(-1235.623 -550.619)" fill="#1b775f"/>
          <path id="Trazado_1327642" data-name="Trazado 1327642" d="M1236.27,545.783s-3.951-3.951-2.582-5.4,3.912,1.721,3.912,1.721-.548-4.694,2.073-4.616,1.565,4.655,1.565,4.655,1.76-2.778,3.56-1.8-2.425,5.438-2.425,5.438Z" transform="translate(-1233.4 -537.488)" fill="#1b775f"/>
        </g>
        <g id="Grupo_1207520" data-name="Grupo 1207520" transform="translate(34.617 60.964)">
          <path id="Trazado_1327643" data-name="Trazado 1327643" d="M1184.684,511.918c0,1.216-2.163,2.2-4.832,2.2s-4.832-.985-4.832-2.2,2.163-2.2,4.832-2.2S1184.684,510.7,1184.684,511.918Z" transform="translate(-1173.93 -503.275)" fill="#1b775f"/>
          <path id="Trazado_1327644" data-name="Trazado 1327644" d="M1174.578,498.438s-3.951-3.951-2.582-5.4,3.912,1.721,3.912,1.721-.548-4.694,2.074-4.616,1.565,4.655,1.565,4.655,1.76-2.777,3.56-1.8-2.425,5.438-2.425,5.438Z" transform="translate(-1171.708 -490.143)" fill="#1b775f"/>
        </g>
        <g id="Grupo_1207521" data-name="Grupo 1207521" transform="translate(120.573 17.482)">
          <path id="Trazado_1327645" data-name="Trazado 1327645" d="M1440.317,370.539c0,.7-1.243,1.264-2.775,1.264s-2.774-.566-2.774-1.264,1.242-1.264,2.774-1.264S1440.317,369.841,1440.317,370.539Z" transform="translate(-1434.142 -365.576)" fill="#1b775f"/>
          <path id="Trazado_1327646" data-name="Trazado 1327646" d="M1434.513,362.8s-2.269-2.269-1.483-3.1,2.246.989,2.246.989-.314-2.7,1.191-2.651.9,2.673.9,2.673,1.011-1.6,2.044-1.033-1.393,3.122-1.393,3.122Z" transform="translate(-1432.865 -358.035)" fill="#1b775f"/>
        </g>
        <g id="Grupo_1207522" data-name="Grupo 1207522" transform="translate(141.648 29.218)">
          <ellipse id="Elipse_13798" data-name="Elipse 13798" cx="2.775" cy="1.264" rx="2.775" ry="1.264" transform="translate(0.626 3.7)" fill="#1b775f"/>
          <path id="Trazado_1327647" data-name="Trazado 1327647" d="M1498.544,398.453s-2.269-2.269-1.482-3.1,2.246.988,2.246.988-.315-2.7,1.19-2.651.9,2.674.9,2.674,1.011-1.6,2.044-1.033-1.393,3.122-1.393,3.122Z" transform="translate(-1496.896 -393.69)" fill="#1b775f"/>
        </g>
        <g id="Grupo_1207523" data-name="Grupo 1207523" transform="translate(127.375 36.781)">
          <path id="Trazado_1327648" data-name="Trazado 1327648" d="M1460.982,429.173c0,.7-1.242,1.264-2.774,1.264s-2.775-.566-2.775-1.264,1.242-1.264,2.775-1.264S1460.982,428.475,1460.982,429.173Z" transform="translate(-1454.807 -424.21)" fill="#1b775f"/>
          <path id="Trazado_1327649" data-name="Trazado 1327649" d="M1455.178,421.432s-2.269-2.269-1.483-3.1,2.247.988,2.247.988-.315-2.7,1.19-2.651.9,2.673.9,2.673,1.011-1.595,2.044-1.033-1.393,3.122-1.393,3.122Z" transform="translate(-1453.53 -416.669)" fill="#1b775f"/>
        </g>
        <g id="Grupo_1207524" data-name="Grupo 1207524" transform="translate(140.221 122.102)">
          <ellipse id="Elipse_13799" data-name="Elipse 13799" cx="6.319" cy="2.879" rx="6.319" ry="2.879" transform="translate(1.426 8.425)" fill="#1b775f"/>
          <path id="Trazado_1327650" data-name="Trazado 1327650" d="M1496.316,686.746s-5.167-5.167-3.377-7.06,5.116,2.251,5.116,2.251-.716-6.14,2.712-6.037,2.046,6.088,2.046,6.088,2.3-3.632,4.656-2.353-3.172,7.112-3.172,7.112Z" transform="translate(-1492.562 -675.898)" fill="#1b775f"/>
        </g>
        <g id="Grupo_1207525" data-name="Grupo 1207525" transform="translate(68.403 159.469)">
          <ellipse id="Elipse_13800" data-name="Elipse 13800" cx="6.319" cy="2.879" rx="6.319" ry="2.879" transform="translate(1.426 8.425)" fill="#1b775f"/>
          <path id="Trazado_1327651" data-name="Trazado 1327651" d="M1278.111,800.279s-5.167-5.167-3.377-7.06,5.116,2.251,5.116,2.251-.717-6.139,2.711-6.037,2.047,6.088,2.047,6.088,2.3-3.633,4.656-2.354-3.172,7.112-3.172,7.112Z" transform="translate(-1274.357 -789.431)" fill="#1b775f"/>
        </g>
        <g id="Grupo_1207526" data-name="Grupo 1207526" transform="translate(12.982 85.566)">
          <ellipse id="Elipse_13801" data-name="Elipse 13801" cx="6.319" cy="2.879" rx="6.319" ry="2.879" transform="translate(1.426 8.425)" fill="#1b775f"/>
          <path id="Trazado_1327652" data-name="Trazado 1327652" d="M1109.727,575.74s-5.168-5.167-3.377-7.061,5.116,2.251,5.116,2.251-.716-6.14,2.711-6.037,2.047,6.088,2.047,6.088,2.3-3.632,4.656-2.353-3.172,7.112-3.172,7.112Z" transform="translate(-1105.973 -564.892)" fill="#1b775f"/>
        </g>
        <g id="Grupo_1207527" data-name="Grupo 1207527" transform="translate(161.398 112.935)">
          <ellipse id="Elipse_13802" data-name="Elipse 13802" cx="3.159" cy="1.439" rx="3.159" ry="1.439" transform="translate(0.713 4.213)" fill="#1b775f"/>
          <path id="Trazado_1327653" data-name="Trazado 1327653" d="M1558.778,653.472s-2.584-2.584-1.688-3.53,2.558,1.126,2.558,1.126-.358-3.069,1.356-3.018,1.023,3.044,1.023,3.044,1.151-1.816,2.328-1.177-1.586,3.556-1.586,3.556Z" transform="translate(-1556.901 -648.048)" fill="#1b775f"/>
        </g>
        <g id="Grupo_1207528" data-name="Grupo 1207528" transform="translate(51.05 162.348)">
          <path id="Trazado_1327654" data-name="Trazado 1327654" d="M1230.12,812.416c0,.795-1.415,1.439-3.16,1.439s-3.159-.644-3.159-1.439,1.415-1.439,3.159-1.439S1230.12,811.621,1230.12,812.416Z" transform="translate(-1223.088 -806.764)" fill="#1b775f"/>
          <path id="Trazado_1327655" data-name="Trazado 1327655" d="M1223.511,803.6s-2.584-2.584-1.688-3.53,2.558,1.125,2.558,1.125-.358-3.069,1.356-3.018,1.023,3.044,1.023,3.044,1.151-1.816,2.328-1.177-1.586,3.556-1.586,3.556Z" transform="translate(-1221.634 -798.177)" fill="#1b775f"/>
        </g>
      </g>
      <g id="Grupo_1207533" data-name="Grupo 1207533" transform="translate(948.425 431.698)">
        <g id="Grupo_1207532" data-name="Grupo 1207532">
          <g id="Grupo_1207530" data-name="Grupo 1207530">
            <path id="Trazado_1327656" data-name="Trazado 1327656" d="M1059.287,845.8a3.314,3.314,0,0,1,.153,4.339,7.894,7.894,0,0,1-3.992,2.48,28.4,28.4,0,0,1-8.1,1.467,29.437,29.437,0,0,0,10.549,15.23,10.462,10.462,0,0,0,4.067,2.06,4.642,4.642,0,0,0,4.26-1.116,6.968,6.968,0,0,0,1.46-3.494,7.818,7.818,0,0,1,1.357-3.546,2.583,2.583,0,0,1,3.4-.651c1.4,1.118.546,3.373-.539,4.8a1.658,1.658,0,0,0-.441.916,1.508,1.508,0,0,0,.516.995,10.444,10.444,0,0,0,11.745,2.434,11.6,11.6,0,0,0,5.538-6.243,20.819,20.819,0,0,0,1.248-8.389,3.251,3.251,0,0,1,.179-1.5c.5-1.056,1.9-1.2,3.056-1.362a12.112,12.112,0,0,0,4.067-22.638,15.986,15.986,0,0,1-4.115,7.079c-1.042,1.039-2.567,1.982-3.906,1.372-1.652-.752-1.562-3.247-.526-4.737s2.677-2.49,3.657-4.017a7.2,7.2,0,0,0,.439-6.392,12.333,12.333,0,0,0-4.086-5.14,19.384,19.384,0,0,0-8.442-3.761,2.76,2.76,0,0,0-2.18.26,3.19,3.19,0,0,0-.836,2.383c-.322,3.96-2.1,8.218-5.773,9.737-1.173.485-2.859.454-3.342-.721a2.363,2.363,0,0,1-.022-1.434c.434-1.841,1.687-3.356,2.716-4.943s1.88-3.5,1.379-5.325a6.056,6.056,0,0,0-2.668-3.241,12.591,12.591,0,0,0-10.092-1.647,7.514,7.514,0,0,1-.356,7.624c-1.054,1.566-3.477,2.642-4.746,1.244-1.56-1.718.573-4.877-.9-6.672-.785-.958-2.2-1.007-3.441-1.028-5.344-.09-19.56-3.223-19.56-3.223a15.992,15.992,0,0,1,5.1,9.006c.55,2.981.451,6.519,2.838,8.387,2.084,1.63,5.038,1.136,7.684,1.1a3.673,3.673,0,0,1,2.947.932c1.029,1.225.225,3.17-1.009,4.189-2.939,2.428-7.215,1.823-11.024,1.676a1.711,1.711,0,0,0-1.563.5,1.735,1.735,0,0,0-.048,1.341c.9,3.788,1.868,7.729,4.378,10.7s7.057,4.623,10.406,2.64c1.458-.864,2.5-2.281,3.873-3.281S1058,844.691,1059.287,845.8Zm21.568-22.479c.281-.981,1.042-1.623,1.7-1.434s.96,1.136.678,2.117-1.042,1.622-1.7,1.434S1080.574,824.3,1080.856,823.32ZM1089.015,849c-.306-.925.566-2.045,1.948-2.5s2.75-.077,3.055.847-.566,2.045-1.948,2.5S1089.32,849.924,1089.015,849Zm-10.675-15.555c.7-2.45,2.6-4.053,4.244-3.582s2.4,2.839,1.694,5.289-2.6,4.053-4.244,3.582S1077.635,835.894,1078.34,833.444Zm-15.321-12.516c-.5-.467-.335-1.449.363-2.193s1.668-.968,2.166-.5.335,1.449-.363,2.193S1063.516,821.4,1063.019,820.928Zm18.506,37.626c.316-1.42,1.344-2.4,2.294-2.188s1.465,1.535,1.149,2.955-1.344,2.4-2.294,2.188S1081.209,859.974,1081.525,858.554Zm-37.083-19.117c-.7.743-1.668.968-2.166.5s-.335-1.449.363-2.193,1.668-.968,2.166-.5S1045.14,838.693,1044.442,839.437Zm20.55,15.761c-.758-1.529.479-3.685,2.762-4.818s4.749-.811,5.507.718-.479,3.685-2.762,4.817S1065.75,856.727,1064.992,855.2ZM1052.6,842.722c-2.284,1.132-4.749.811-5.506-.718s.479-3.685,2.762-4.818,4.749-.811,5.506.718S1054.889,841.59,1052.6,842.722Z" transform="translate(-1031.019 -808.999)" fill="#249077"/>
          </g>
          <g id="Grupo_1207531" data-name="Grupo 1207531">
            <path id="Trazado_1327657" data-name="Trazado 1327657" d="M1031.019,809a15.992,15.992,0,0,1,5.1,9.006c.55,2.981.451,6.519,2.838,8.387,2.084,1.63,5.038,1.136,7.684,1.1a3.673,3.673,0,0,1,2.947.932c1.029,1.225.225,3.17-1.009,4.189-2.939,2.428-7.215,1.823-11.024,1.676a1.711,1.711,0,0,0-1.563.5,1.735,1.735,0,0,0-.048,1.341c.9,3.788,1.868,7.729,4.378,10.7s7.057,4.623,10.406,2.64c1.458-.864,2.5-2.281,3.873-3.281s3.406-1.5,4.689-.391a3.314,3.314,0,0,1,.153,4.339,7.894,7.894,0,0,1-3.992,2.48,28.4,28.4,0,0,1-8.1,1.467,29.437,29.437,0,0,0,10.549,15.23,10.462,10.462,0,0,0,4.067,2.06,4.642,4.642,0,0,0,4.26-1.116,6.968,6.968,0,0,0,1.46-3.494,7.818,7.818,0,0,1,1.357-3.546,2.583,2.583,0,0,1,3.4-.651c1.4,1.118.546,3.373-.539,4.8a1.658,1.658,0,0,0-.441.916,1.508,1.508,0,0,0,.516.995,10.444,10.444,0,0,0,11.745,2.434,11.6,11.6,0,0,0,5.538-6.243,20.819,20.819,0,0,0,1.248-8.389,3.251,3.251,0,0,1,.179-1.5s-17.9-15.294-26.091-22.264S1031.019,809,1031.019,809Zm50.506,49.555c.316-1.42,1.344-2.4,2.294-2.188s1.465,1.535,1.149,2.955-1.344,2.4-2.294,2.188S1081.209,859.974,1081.525,858.554Zm-37.083-19.117c-.7.743-1.668.968-2.166.5s-.335-1.449.363-2.193,1.668-.968,2.166-.5S1045.14,838.693,1044.442,839.437Zm20.55,15.761c-.758-1.529.479-3.685,2.762-4.818s4.749-.811,5.507.718-.479,3.685-2.762,4.817S1065.75,856.727,1064.992,855.2ZM1052.6,842.722c-2.284,1.132-4.749.811-5.506-.718s.479-3.685,2.762-4.818,4.749-.811,5.506.718S1054.889,841.59,1052.6,842.722Z" transform="translate(-1031.019 -808.999)" fill="#1b775f"/>
          </g>
        </g>
        <path id="Trazado_1327658" data-name="Trazado 1327658" d="M1085.447,847.058c5.833,3.876,40.642,33.155,50.039,41.765" transform="translate(-1067.533 -834.531)" fill="none" stroke="#0d5b45" stroke-miterlimit="10" stroke-width="0.476"/>
      </g>
      <g id="Grupo_1207537" data-name="Grupo 1207537" transform="translate(1081.397 431.698)">
        <g id="Grupo_1207536" data-name="Grupo 1207536" transform="translate(0)">
          <g id="Grupo_1207534" data-name="Grupo 1207534">
            <path id="Trazado_1327659" data-name="Trazado 1327659" d="M1484.563,846.19c1.369,1,2.415,2.417,3.874,3.281,3.349,1.984,7.9.336,10.406-2.64s3.481-6.916,4.378-10.7a1.735,1.735,0,0,0-.048-1.341,1.71,1.71,0,0,0-1.563-.5c-3.809.148-8.086.753-11.024-1.676-1.234-1.019-2.038-2.964-1.009-4.189a3.673,3.673,0,0,1,2.947-.932c2.646.04,5.6.534,7.684-1.1,2.387-1.867,2.288-5.406,2.839-8.387a15.994,15.994,0,0,1,5.1-9.006s-14.217,3.133-19.56,3.223c-1.238.021-2.656.069-3.44,1.028-1.47,1.8.662,4.954-.9,6.672-1.269,1.4-3.692.322-4.746-1.244a7.514,7.514,0,0,1-.356-7.624,12.591,12.591,0,0,0-10.092,1.647,6.059,6.059,0,0,0-2.668,3.241c-.5,1.823.35,3.738,1.379,5.325s2.282,3.1,2.715,4.943a2.366,2.366,0,0,1-.022,1.434c-.483,1.174-2.169,1.206-3.342.721-3.671-1.519-5.451-5.777-5.774-9.737a3.19,3.19,0,0,0-.836-2.383,2.76,2.76,0,0,0-2.179-.26,19.383,19.383,0,0,0-8.443,3.761,12.329,12.329,0,0,0-4.086,5.14,7.2,7.2,0,0,0,.439,6.392c.982,1.527,2.621,2.527,3.658,4.017s1.126,3.984-.526,4.737c-1.339.61-2.864-.333-3.906-1.372a15.992,15.992,0,0,1-4.115-7.079,12.112,12.112,0,0,0,4.067,22.638c1.155.164,2.558.306,3.055,1.362a3.251,3.251,0,0,1,.179,1.5,20.817,20.817,0,0,0,1.248,8.389,11.6,11.6,0,0,0,5.537,6.243,10.445,10.445,0,0,0,11.745-2.434,1.509,1.509,0,0,0,.516-.995,1.658,1.658,0,0,0-.441-.916c-1.085-1.422-1.937-3.677-.539-4.8a2.583,2.583,0,0,1,3.4.651,7.818,7.818,0,0,1,1.357,3.546,6.968,6.968,0,0,0,1.46,3.494,4.643,4.643,0,0,0,4.26,1.116,10.466,10.466,0,0,0,4.067-2.06,29.438,29.438,0,0,0,10.549-15.23,28.4,28.4,0,0,1-8.1-1.467,7.894,7.894,0,0,1-3.992-2.48,3.314,3.314,0,0,1,.153-4.339C1481.158,844.691,1483.195,845.19,1484.563,846.19Zm-26.935-20.754c-.656.189-1.417-.453-1.7-1.434s.022-1.928.678-2.117,1.417.453,1.7,1.434S1458.284,825.248,1457.628,825.436Zm-10.536,24.41c-1.382-.456-2.254-1.576-1.948-2.5s1.673-1.3,3.055-.847,2.253,1.577,1.948,2.5S1448.473,850.3,1447.092,849.846Zm12.036-11.113c-1.639.471-3.539-1.133-4.243-3.582s.054-4.817,1.694-5.289,3.539,1.132,4.244,3.582S1460.768,838.261,1459.128,838.733Zm14.849-18.3c-.7-.744-.861-1.725-.363-2.193s1.467-.243,2.166.5.861,1.725.363,2.193S1474.676,821.172,1473.977,820.428Zm-17.489,41.081c-.951.212-1.978-.768-2.294-2.188s.2-2.743,1.149-2.955,1.978.768,2.294,2.188S1457.438,861.3,1456.488,861.509Zm37.869-24.264c.5-.468,1.468-.244,2.166.5s.861,1.725.363,2.193-1.467.244-2.166-.5S1493.859,837.712,1494.357,837.245Zm-25.694,18.671c-2.284-1.132-3.52-3.289-2.763-4.817s3.223-1.85,5.507-.718,3.52,3.289,2.762,4.818S1470.946,857.048,1468.663,855.916Zm15.131-18.01c.758-1.529,3.223-1.85,5.507-.718s3.52,3.289,2.762,4.818-3.223,1.849-5.507.718S1483.036,839.433,1483.794,837.905Z" transform="translate(-1435.025 -808.999)" fill="#249077"/>
          </g>
          <g id="Grupo_1207535" data-name="Grupo 1207535" transform="translate(13.444)">
            <path id="Trazado_1327660" data-name="Trazado 1327660" d="M1501.962,833.315c-8.2,6.97-26.092,22.264-26.092,22.264a3.251,3.251,0,0,1,.179,1.5,20.823,20.823,0,0,0,1.248,8.389,11.6,11.6,0,0,0,5.538,6.243,10.445,10.445,0,0,0,11.745-2.434,1.509,1.509,0,0,0,.516-.995,1.658,1.658,0,0,0-.441-.916c-1.085-1.422-1.936-3.677-.539-4.8a2.583,2.583,0,0,1,3.4.651,7.818,7.818,0,0,1,1.357,3.546,6.968,6.968,0,0,0,1.46,3.494,4.643,4.643,0,0,0,4.26,1.116,10.465,10.465,0,0,0,4.067-2.06,29.438,29.438,0,0,0,10.549-15.23,28.4,28.4,0,0,1-8.1-1.467,7.894,7.894,0,0,1-3.992-2.48,3.314,3.314,0,0,1,.153-4.339c1.284-1.107,3.32-.609,4.689.391s2.415,2.417,3.874,3.281c3.349,1.984,7.9.336,10.406-2.64s3.481-6.916,4.378-10.7a1.735,1.735,0,0,0-.048-1.341,1.711,1.711,0,0,0-1.563-.5c-3.809.148-8.086.753-11.024-1.676-1.234-1.019-2.038-2.964-1.009-4.189a3.673,3.673,0,0,1,2.947-.932c2.646.04,5.6.534,7.684-1.1,2.387-1.867,2.288-5.406,2.838-8.387a15.994,15.994,0,0,1,5.1-9.006S1510.159,826.345,1501.962,833.315Zm-18.073,28.194c-.951.212-1.978-.768-2.294-2.188s.2-2.743,1.149-2.955,1.978.768,2.294,2.188S1484.84,861.3,1483.89,861.509Zm37.869-24.264c.5-.468,1.468-.244,2.166.5s.861,1.725.363,2.193-1.467.244-2.166-.5S1521.261,837.712,1521.759,837.245Zm-25.693,18.671c-2.284-1.132-3.52-3.289-2.763-4.817s3.223-1.85,5.507-.718,3.521,3.289,2.763,4.818S1498.348,857.048,1496.065,855.916Zm15.131-18.01c.758-1.529,3.223-1.85,5.507-.718s3.52,3.289,2.762,4.818-3.223,1.849-5.507.718S1510.438,839.433,1511.2,837.905Z" transform="translate(-1475.871 -808.999)" fill="#1b775f"/>
          </g>
        </g>
        <path id="Trazado_1327661" data-name="Trazado 1327661" d="M1500.756,847.058c-5.833,3.876-40.642,33.155-50.038,41.765" transform="translate(-1445.553 -834.531)" fill="none" stroke="#0d5b45" stroke-miterlimit="10" stroke-width="0.476"/>
      </g>
      <path id="Trazado_1327662" data-name="Trazado 1327662" d="M1018.6,705.531h0a11.934,11.934,0,0,0,7.212,7.211h0a11.934,11.934,0,0,0-7.212,7.211h0a11.933,11.933,0,0,0-7.211-7.211h0a11.934,11.934,0,0,0,7.211-7.211Z" transform="translate(-69.426 -307.887)" fill="#ffb603"/>
      <path id="Trazado_1327663" data-name="Trazado 1327663" d="M1636.78,692.749h0a11.934,11.934,0,0,0,7.211,7.211h0a11.935,11.935,0,0,0-7.211,7.211h0a11.935,11.935,0,0,0-7.212-7.211h0a11.934,11.934,0,0,0,7.212-7.211Z" transform="translate(-484.141 -299.312)" fill="#ffb603"/>
      <path id="Trazado_1327664" data-name="Trazado 1327664" d="M1482.2,283.009h0a11.935,11.935,0,0,0,7.211,7.211h0a11.935,11.935,0,0,0-7.211,7.211h0a11.935,11.935,0,0,0-7.212-7.211h0a11.935,11.935,0,0,0,7.212-7.211Z" transform="translate(-380.436 -24.432)" fill="#ffb603"/>
      <path id="Trazado_1327665" data-name="Trazado 1327665" d="M1202.9,282.536h0a8.159,8.159,0,0,0,4.931,4.93h0a8.16,8.16,0,0,0-4.931,4.931h0a8.16,8.16,0,0,0-4.931-4.931h0a8.16,8.16,0,0,0,4.931-4.93Z" transform="translate(-194.596 -24.114)" fill="#ffb603"/>
      <path id="Trazado_1327666" data-name="Trazado 1327666" d="M1097.214,766.7h0a6.869,6.869,0,0,0,4.15,4.15h0a6.869,6.869,0,0,0-4.15,4.15h0a6.867,6.867,0,0,0-4.15-4.15h0a6.867,6.867,0,0,0,4.15-4.15Z" transform="translate(-124.218 -348.924)" fill="#ffb603"/>
      <path id="Trazado_1327667" data-name="Trazado 1327667" d="M1580.074,758.15h0a6.871,6.871,0,0,0,4.151,4.15h0a6.869,6.869,0,0,0-4.151,4.15h0a6.867,6.867,0,0,0-4.15-4.15h0a6.868,6.868,0,0,0,4.15-4.15Z" transform="translate(-448.153 -343.188)" fill="#ffb603"/>
      <path id="Trazado_1327668" data-name="Trazado 1327668" d="M1395.116,262.556h0a6.869,6.869,0,0,0,4.15,4.15h0a6.87,6.87,0,0,0-4.15,4.15h0a6.867,6.867,0,0,0-4.15-4.15h0a6.867,6.867,0,0,0,4.15-4.15Z" transform="translate(-324.07 -10.71)" fill="#ffb603"/>
      <g id="Grupo_1207547" data-name="Grupo 1207547" transform="translate(1097.78 290.315)">
        <path id="Trazado_1327669" data-name="Trazado 1327669" d="M1571.479,389.284l-8.994,8.669-46.449-16.3a39.346,39.346,0,0,0-22.993-.936l-4.3,1.125a5.279,5.279,0,0,0-3.645,3.36h0a5.28,5.28,0,0,0,3.234,6.731l67.9,23.825h0a8.387,8.387,0,0,0,10.691-5.137l3.471-9.893,3.695-10.529Z" transform="translate(-1484.803 -379.435)" fill="#dadada"/>
        <path id="Trazado_1327670" data-name="Trazado 1327670" d="M1485.5,394.317a5.273,5.273,0,0,0-.4.87h0a5.28,5.28,0,0,0,3.234,6.731l67.9,23.825a8.39,8.39,0,0,0,9.713-3.2Z" transform="translate(-1484.803 -389.419)" fill="#023047"/>
        <path id="Trazado_1327671" data-name="Trazado 1327671" d="M1513.175,388.067c.22-.524.489-1.036.767-1.548l-4.577-1.606c-1.21.338-2.443.613-3.67.907-1.111.267-2.232.549-3.312.924a6.264,6.264,0,0,0-2.225,1.122l11.5,4.036Q1512.381,389.971,1513.175,388.067Z" transform="translate(-1495.104 -383.111)" fill="#023047"/>
        <path id="Trazado_1327672" data-name="Trazado 1327672" d="M1547.737,393.409l-6.009-2.108c-.219.422-.432.848-.622,1.286-.586,1.35-1.126,2.723-1.639,4.105l6.069,2.13C1546.176,396.987,1547,395.211,1547.737,393.409Z" transform="translate(-1521.475 -387.396)" fill="#023047"/>
        <path id="Trazado_1327673" data-name="Trazado 1327673" d="M1592.689,426.356l23.875,23.759a16.744,16.744,0,0,0,6.247,3.863l10.975,3.851-19-23.719Z" transform="translate(-1557.18 -410.913)" fill="#dadada"/>
        <path id="Trazado_1327674" data-name="Trazado 1327674" d="M1523.281,388.175l-3.762,2.518" transform="translate(-1508.093 -385.298)" fill="none" stroke="#fff" stroke-miterlimit="10" stroke-width="0.12"/>
        <path id="Trazado_1327675" data-name="Trazado 1327675" d="M1526.611,391.093q-1.078.812-2.1,1.7" transform="translate(-1511.444 -387.256)" fill="none" stroke="#fff" stroke-miterlimit="10" stroke-width="0.12"/>
        <path id="Trazado_1327676" data-name="Trazado 1327676" d="M1550.8,398.338l-2.85,2.69" transform="translate(-1527.164 -392.116)" fill="none" stroke="#fff" stroke-miterlimit="10" stroke-width="0.12"/>
        <path id="Trazado_1327677" data-name="Trazado 1327677" d="M1553.738,400.423a18.2,18.2,0,0,0-2.292,2.178" transform="translate(-1529.512 -393.515)" fill="none" stroke="#fff" stroke-miterlimit="10" stroke-width="0.12"/>
        <g id="Grupo_1207538" data-name="Grupo 1207538" transform="translate(25.497 6.508)">
          <path id="Trazado_1327678" data-name="Trazado 1327678" d="M1568.1,402.964c.228-.745.444-1.494.666-2.241l-4.321-1.516c-.733,1.8-1.543,3.583-2.172,5.423l4.6,1.616C1567.258,405.141,1567.761,404.062,1568.1,402.964Z" transform="translate(-1562.27 -399.207)" fill="#023047"/>
          <path id="Trazado_1327679" data-name="Trazado 1327679" d="M1570,404.919a34.772,34.772,0,0,1-2.658,2.452" transform="translate(-1565.671 -403.039)" fill="none" stroke="#fff" stroke-miterlimit="10" stroke-width="0.12"/>
          <path id="Trazado_1327680" data-name="Trazado 1327680" d="M1572.158,406.155q-1.326,1.136-2.551,2.384" transform="translate(-1567.192 -403.868)" fill="none" stroke="#fff" stroke-miterlimit="10" stroke-width="0.12"/>
        </g>
        <g id="Grupo_1207539" data-name="Grupo 1207539" transform="translate(31.573 8.64)">
          <path id="Trazado_1327681" data-name="Trazado 1327681" d="M1586.557,409.442c.227-.745.444-1.494.666-2.241l-4.321-1.516c-.734,1.8-1.543,3.583-2.172,5.422l4.605,1.616C1585.719,411.619,1586.222,410.54,1586.557,409.442Z" transform="translate(-1580.731 -405.685)" fill="#023047"/>
          <path id="Trazado_1327682" data-name="Trazado 1327682" d="M1588.458,411.4a34.729,34.729,0,0,1-2.658,2.452" transform="translate(-1584.132 -409.517)" fill="none" stroke="#fff" stroke-miterlimit="10" stroke-width="0.12"/>
          <path id="Trazado_1327683" data-name="Trazado 1327683" d="M1590.619,412.633q-1.326,1.136-2.551,2.384" transform="translate(-1585.653 -410.346)" fill="none" stroke="#fff" stroke-miterlimit="10" stroke-width="0.12"/>
        </g>
        <g id="Grupo_1207540" data-name="Grupo 1207540" transform="translate(37.649 10.772)">
          <path id="Trazado_1327684" data-name="Trazado 1327684" d="M1605.018,415.92c.228-.745.444-1.494.666-2.241l-4.32-1.516c-.734,1.8-1.543,3.583-2.172,5.423l4.6,1.616C1604.18,418.1,1604.683,417.018,1605.018,415.92Z" transform="translate(-1599.192 -412.163)" fill="#023047"/>
          <path id="Trazado_1327685" data-name="Trazado 1327685" d="M1606.919,417.875a34.848,34.848,0,0,1-2.658,2.452" transform="translate(-1602.593 -415.995)" fill="none" stroke="#fff" stroke-miterlimit="10" stroke-width="0.12"/>
          <path id="Trazado_1327686" data-name="Trazado 1327686" d="M1609.081,419.111q-1.326,1.136-2.551,2.384" transform="translate(-1604.115 -416.824)" fill="none" stroke="#fff" stroke-miterlimit="10" stroke-width="0.12"/>
        </g>
        <g id="Grupo_1207541" data-name="Grupo 1207541" transform="translate(43.726 12.904)">
          <path id="Trazado_1327687" data-name="Trazado 1327687" d="M1623.48,422.4c.228-.746.444-1.494.666-2.241l-4.321-1.516c-.734,1.8-1.543,3.583-2.172,5.422l4.6,1.616C1622.642,424.575,1623.145,423.5,1623.48,422.4Z" transform="translate(-1617.654 -418.641)" fill="#023047"/>
          <path id="Trazado_1327688" data-name="Trazado 1327688" d="M1625.381,424.353a34.859,34.859,0,0,1-2.658,2.452" transform="translate(-1621.055 -422.473)" fill="none" stroke="#fff" stroke-miterlimit="10" stroke-width="0.12"/>
          <path id="Trazado_1327689" data-name="Trazado 1327689" d="M1627.542,425.589q-1.326,1.137-2.551,2.384" transform="translate(-1622.576 -423.302)" fill="none" stroke="#fff" stroke-miterlimit="10" stroke-width="0.12"/>
        </g>
        <g id="Grupo_1207542" data-name="Grupo 1207542" transform="translate(49.802 15.036)">
          <path id="Trazado_1327690" data-name="Trazado 1327690" d="M1641.941,428.875c.227-.745.444-1.494.666-2.241l-4.321-1.516c-.734,1.8-1.543,3.583-2.172,5.423l4.6,1.616C1641.1,431.052,1641.605,429.973,1641.941,428.875Z" transform="translate(-1636.115 -425.118)" fill="#023047"/>
          <path id="Trazado_1327691" data-name="Trazado 1327691" d="M1643.842,430.83a34.687,34.687,0,0,1-2.658,2.452" transform="translate(-1639.516 -428.95)" fill="none" stroke="#fff" stroke-miterlimit="10" stroke-width="0.12"/>
          <path id="Trazado_1327692" data-name="Trazado 1327692" d="M1646,432.067q-1.326,1.136-2.551,2.384" transform="translate(-1641.037 -429.78)" fill="none" stroke="#fff" stroke-miterlimit="10" stroke-width="0.12"/>
        </g>
        <g id="Grupo_1207543" data-name="Grupo 1207543" transform="translate(55.878 17.168)">
          <path id="Trazado_1327693" data-name="Trazado 1327693" d="M1660.4,435.353c.228-.745.444-1.494.666-2.241l-4.32-1.516c-.734,1.8-1.543,3.583-2.172,5.423l4.6,1.616C1659.564,437.53,1660.067,436.451,1660.4,435.353Z" transform="translate(-1654.576 -431.596)" fill="#023047"/>
          <path id="Trazado_1327694" data-name="Trazado 1327694" d="M1662.3,437.308a34.643,34.643,0,0,1-2.658,2.452" transform="translate(-1657.977 -435.428)" fill="none" stroke="#fff" stroke-miterlimit="10" stroke-width="0.12"/>
          <path id="Trazado_1327695" data-name="Trazado 1327695" d="M1664.465,438.544q-1.326,1.137-2.551,2.384" transform="translate(-1659.499 -436.257)" fill="none" stroke="#fff" stroke-miterlimit="10" stroke-width="0.12"/>
        </g>
        <g id="Grupo_1207544" data-name="Grupo 1207544" transform="translate(61.954 19.3)">
          <path id="Trazado_1327696" data-name="Trazado 1327696" d="M1678.864,441.831c.228-.745.444-1.494.666-2.241l-4.321-1.516c-.734,1.8-1.543,3.583-2.172,5.423l4.6,1.616C1678.026,444.008,1678.528,442.929,1678.864,441.831Z" transform="translate(-1673.038 -438.074)" fill="#023047"/>
          <path id="Trazado_1327697" data-name="Trazado 1327697" d="M1680.765,443.786a34.877,34.877,0,0,1-2.658,2.452" transform="translate(-1676.439 -441.906)" fill="none" stroke="#fff" stroke-miterlimit="10" stroke-width="0.12"/>
          <path id="Trazado_1327698" data-name="Trazado 1327698" d="M1682.926,445.022q-1.326,1.136-2.551,2.384" transform="translate(-1677.96 -442.735)" fill="none" stroke="#fff" stroke-miterlimit="10" stroke-width="0.12"/>
        </g>
        <g id="Grupo_1207545" data-name="Grupo 1207545" transform="translate(68.031 21.432)">
          <path id="Trazado_1327699" data-name="Trazado 1327699" d="M1697.325,448.309c.227-.746.444-1.494.666-2.241l-4.321-1.516c-.734,1.8-1.543,3.583-2.172,5.422l4.6,1.616C1696.487,450.486,1696.99,449.407,1697.325,448.309Z" transform="translate(-1691.499 -444.552)" fill="#023047"/>
          <path id="Trazado_1327700" data-name="Trazado 1327700" d="M1699.226,450.264a34.79,34.79,0,0,1-2.658,2.452" transform="translate(-1694.9 -448.384)" fill="none" stroke="#fff" stroke-miterlimit="10" stroke-width="0.12"/>
          <path id="Trazado_1327701" data-name="Trazado 1327701" d="M1701.387,451.5q-1.326,1.136-2.551,2.384" transform="translate(-1696.421 -449.213)" fill="none" stroke="#fff" stroke-miterlimit="10" stroke-width="0.12"/>
        </g>
        <g id="Grupo_1207546" data-name="Grupo 1207546" transform="translate(74.107 23.564)">
          <path id="Trazado_1327702" data-name="Trazado 1327702" d="M1715.786,454.786c.228-.745.444-1.494.666-2.241l-4.32-1.516c-.734,1.8-1.543,3.583-2.172,5.423l4.6,1.616C1714.948,456.963,1715.451,455.884,1715.786,454.786Z" transform="translate(-1709.96 -451.029)" fill="#023047"/>
          <path id="Trazado_1327703" data-name="Trazado 1327703" d="M1717.687,456.742a34.717,34.717,0,0,1-2.658,2.452" transform="translate(-1713.361 -454.862)" fill="none" stroke="#fff" stroke-miterlimit="10" stroke-width="0.12"/>
          <path id="Trazado_1327704" data-name="Trazado 1327704" d="M1719.849,457.978q-1.326,1.136-2.551,2.384" transform="translate(-1714.883 -455.691)" fill="none" stroke="#fff" stroke-miterlimit="10" stroke-width="0.12"/>
        </g>
      </g>
      <g id="Grupo_1207549" data-name="Grupo 1207549" transform="translate(971.631 324.685)">
        <path id="Trazado_1327705" data-name="Trazado 1327705" d="M1111.583,483.864a10.058,10.058,0,0,0-10.058,10.058c0,5.555,10.058,15.3,10.058,15.3s10.058-9.743,10.058-15.3A10.058,10.058,0,0,0,1111.583,483.864Zm0,14.1a4.423,4.423,0,1,1,4.423-4.423A4.423,4.423,0,0,1,1111.583,497.962Z" transform="translate(-1101.525 -483.864)" fill="#d53130"/>
        <g id="Grupo_1207548" data-name="Grupo 1207548" transform="translate(3.603 14.563)" style="mix-blend-mode: overlay;isolation: isolate">
          <path id="Trazado_1327706" data-name="Trazado 1327706" d="M1112.473,528.111l3.893,5.721" transform="translate(-1112.473 -528.111)" fill="none" stroke="#fff" stroke-miterlimit="10" stroke-width="0.491"/>
          <path id="Trazado_1327707" data-name="Trazado 1327707" d="M1120.114,530.135a25.293,25.293,0,0,1,1.722,2.914" transform="translate(-1117.599 -529.469)" fill="none" stroke="#fff" stroke-miterlimit="10" stroke-width="0.491"/>
        </g>
      </g>
      <path id="Trazado_1327708" data-name="Trazado 1327708" d="M1126.014,560.492a1.956,1.956,0,1,0,1.956-1.956A1.957,1.957,0,0,0,1126.014,560.492Z" transform="translate(-146.323 -209.273)" fill="#fff"/>
      <g id="Grupo_1207551" data-name="Grupo 1207551" transform="translate(1068.113 254.038)">
        <path id="Trazado_1327709" data-name="Trazado 1327709" d="M1404.724,269.217a10.058,10.058,0,0,0-10.058,10.058c0,5.555,10.058,15.3,10.058,15.3s10.058-9.743,10.058-15.3A10.058,10.058,0,0,0,1404.724,269.217Zm0,14.1a4.423,4.423,0,1,1,4.423-4.423A4.423,4.423,0,0,1,1404.724,283.315Z" transform="translate(-1394.666 -269.217)" fill="#d53130"/>
        <g id="Grupo_1207550" data-name="Grupo 1207550" transform="translate(3.603 14.563)" style="mix-blend-mode: overlay;isolation: isolate">
          <path id="Trazado_1327710" data-name="Trazado 1327710" d="M1405.613,313.464l3.893,5.721" transform="translate(-1405.613 -313.464)" fill="none" stroke="#fff" stroke-miterlimit="10" stroke-width="0.491"/>
          <path id="Trazado_1327711" data-name="Trazado 1327711" d="M1413.254,315.489a25.237,25.237,0,0,1,1.722,2.914" transform="translate(-1410.739 -314.823)" fill="none" stroke="#fff" stroke-miterlimit="10" stroke-width="0.491"/>
        </g>
      </g>
      <path id="Trazado_1327712" data-name="Trazado 1327712" d="M1419.155,345.845a1.956,1.956,0,1,0,1.956-1.956A1.956,1.956,0,0,0,1419.155,345.845Z" transform="translate(-342.981 -65.274)" fill="#fff"/>
      <g id="Grupo_1207553" data-name="Grupo 1207553" transform="translate(1116.101 345.212)">
        <path id="Trazado_1327713" data-name="Trazado 1327713" d="M1550.523,546.228a10.058,10.058,0,0,0-10.058,10.058c0,5.555,10.058,15.3,10.058,15.3s10.058-9.743,10.058-15.3A10.058,10.058,0,0,0,1550.523,546.228Zm0,14.1a4.423,4.423,0,1,1,4.423-4.423A4.423,4.423,0,0,1,1550.523,560.326Z" transform="translate(-1540.465 -546.228)" fill="#d53130"/>
        <g id="Grupo_1207552" data-name="Grupo 1207552" transform="translate(3.603 14.563)" style="mix-blend-mode: overlay;isolation: isolate">
          <path id="Trazado_1327714" data-name="Trazado 1327714" d="M1551.412,590.475l3.893,5.721" transform="translate(-1551.412 -590.475)" fill="none" stroke="#fff" stroke-miterlimit="10" stroke-width="0.491"/>
          <path id="Trazado_1327715" data-name="Trazado 1327715" d="M1559.053,592.5a25.2,25.2,0,0,1,1.722,2.914" transform="translate(-1556.538 -591.833)" fill="none" stroke="#fff" stroke-miterlimit="10" stroke-width="0.491"/>
        </g>
      </g>
      <path id="Trazado_1327716" data-name="Trazado 1327716" d="M1564.954,622.856a1.956,1.956,0,1,0,1.956-1.956A1.956,1.956,0,0,0,1564.954,622.856Z" transform="translate(-440.793 -251.111)" fill="#fff"/>
      <g id="Grupo_1207573" data-name="Grupo 1207573" transform="translate(969.835 290.601)">
        <path id="Trazado_1327717" data-name="Trazado 1327717" d="M1426.475,651.907s11.643-3.177,15.729,20.253c1.386,7.945,4.36,11.8,8.308,24.068-4.5,2.457-5.714,12.906-10.378,14.977-2-.722-4.73-5-5.318-6.441-7.237-17.765-11.532-32.684-11.532-32.684Z" transform="translate(-1315.586 -562.417)" fill="#da8c6e"/>
        <path id="Trazado_1327718" data-name="Trazado 1327718" d="M1500.982,693.168s-11.433,31.994-19.288,39.843c-4.32,4.317-9.744,5.2-12.131,3.188-1.954-1.644-1.862-8.355-.494-14.1,3.039-12.771,22.378-32.455,22.378-32.455Z" transform="translate(-1345.629 -587.828)" fill="#da8c6e"/>
        <path id="Trazado_1327719" data-name="Trazado 1327719" d="M1475.417,748.735a35.764,35.764,0,0,0-7.1,16.675S1465.562,752.472,1475.417,748.735Z" transform="translate(-1345.562 -627.472)" fill="#c36345"/>
        <path id="Trazado_1327720" data-name="Trazado 1327720" d="M1210.155,646.173s-10.8-5.39-19.382,16.79c-2.911,7.521-6.581,10.721-12.849,21.981,3.932,3.288,3.083,13.773,7.252,16.715,2.1-.318,5.615-3.976,6.474-5.278,10.568-16.01,17.695-29.8,17.695-29.8Z" transform="translate(-1150.983 -558.28)" fill="#da8c6e"/>
        <g id="Grupo_1207561" data-name="Grupo 1207561" transform="translate(22.415)">
          <ellipse id="Elipse_13803" data-name="Elipse 13803" cx="14.56" cy="66.784" rx="14.56" ry="66.784" transform="translate(0 46.582) rotate(-85.399)" fill="#d76c00"/>
          <path id="Trazado_1327721" data-name="Trazado 1327721" d="M1305.871,434.492s14.017,1.85,22.2,10.939a14.119,14.119,0,0,1,1.884,8.583c-.364,5.389,1.609,27.823,9.263,37.347,8.432,10.492,3.093,29.214-26.731,27.407-31.943-1.935-46.7-3.758-46.7-3.758s-20.348-1.61-8.729-22.823a67.937,67.937,0,0,0,7.264-42.4l17.737-16.383Z" transform="translate(-1224.081 -415.927)" fill="#060107"/>
          <path id="Trazado_1327722" data-name="Trazado 1327722" d="M1311.865,634.137a66.87,66.87,0,0,1,16.224-.769c7.824.781,16.007,4.495,16.007,4.495s-11.1,18.5-23.313,19.152S1311.865,634.137,1311.865,634.137Z" transform="translate(-1262.983 -549.929)" fill="#fff"/>
          <path id="Trazado_1327723" data-name="Trazado 1327723" d="M1259.221,528.2a29.356,29.356,0,0,1-2.586,13.654c-1.8,4.317-4.211,8.348-6.416,12.473a27.193,27.193,0,0,0-2.067,4.589,15.247,15.247,0,0,0,2.289,13.481c1.27,1.7,3.129,3.209,5.249,3.139" transform="translate(-1220.063 -479.521)" fill="none" stroke="#060107" stroke-miterlimit="10" stroke-width="0.405"/>
          <path id="Trazado_1327724" data-name="Trazado 1327724" d="M1309.327,621.8l6.158-.8a3.552,3.552,0,0,0,3.082-3.238l.37-4.6,15.993,1.287-.461,5.724a3.552,3.552,0,0,0,1.756,3.356l8.718,2.585s-13.329,22.187-24.93,19.355S1309.327,621.8,1309.327,621.8Z" transform="translate(-1261.541 -536.521)" fill="#da8c6e"/>
          <path id="Trazado_1327725" data-name="Trazado 1327725" d="M1343.526,623.39c3.982.44,7.283-1.6,9.881-4.563l.352-4.377-15.993-1.287-.37,4.6c0,.053-.013.1-.02.157C1339.034,621.316,1340.683,623.075,1343.526,623.39Z" transform="translate(-1280.37 -536.521)" fill="#c36345" opacity="0.94"/>
          <g id="Grupo_1207554" data-name="Grupo 1207554" transform="translate(85.54 51.092)">
            <path id="Trazado_1327726" data-name="Trazado 1327726" d="M1428.463,542.125a16.846,16.846,0,0,1,4.1-5.243c1.79-1.335,4.371-1.873,6.266-.691a5.8,5.8,0,0,1,2.415,4.351c.475,4.264-2.326,8.472-6.15,10.417-3.541,1.8-8.336,1.681-11.022-1.246Z" transform="translate(-1424.068 -535.538)" fill="#da8c6e"/>
            <path id="Trazado_1327727" data-name="Trazado 1327727" d="M1453.532,545.194a10.039,10.039,0,0,0-5.524,6.049,3.262,3.262,0,0,0-.2,1.471,1.418,1.418,0,0,0,.845,1.148,1.806,1.806,0,0,0,1.706-.533,2.8,2.8,0,0,0,1.018-1.718,1.538,1.538,0,0,0-.936-1.638,2.476,2.476,0,0,0-2.091.7" transform="translate(-1439.98 -542.016)" fill="none" stroke="#d05e3b" stroke-miterlimit="10" stroke-width="0.405"/>
          </g>
          <g id="Grupo_1207555" data-name="Grupo 1207555" transform="translate(32.47 42.783)">
            <path id="Trazado_1327728" data-name="Trazado 1327728" d="M1275.209,519.522a16.846,16.846,0,0,0-2.037-6.334c-1.22-1.871-3.457-3.265-5.643-2.809a5.8,5.8,0,0,0-3.768,3.251c-1.917,3.838-.738,8.754,2.181,11.9,2.7,2.911,7.245,4.452,10.776,2.631Z" transform="translate(-1262.827 -510.292)" fill="#da8c6e"/>
            <path id="Trazado_1327729" data-name="Trazado 1327729" d="M1277.4,519.019a10.039,10.039,0,0,1,3.1,7.583,3.267,3.267,0,0,1-.319,1.449,1.419,1.419,0,0,1-1.19.787,1.806,1.806,0,0,1-1.417-1.089,2.8,2.8,0,0,1-.363-1.964,1.538,1.538,0,0,1,1.444-1.215c.765.031,1.3.74,1.721,1.38" transform="translate(-1272.437 -516.147)" fill="none" stroke="#d05e3b" stroke-miterlimit="10" stroke-width="0.405"/>
          </g>
          <path id="Trazado_1327730" data-name="Trazado 1327730" d="M1342.349,452.973c-3.414-11.886-13.81-18.808-25.148-19.83-4.929-.444-9.975-.518-14.8,1.843a18.371,18.371,0,0,0-3.345,2.041c-6.555,5.222-9.583,13.655-11.538,21.805-1.135,4.734-2.02,9.613-1.5,14.453a25.3,25.3,0,0,0,28.593,22.364c8.658-1.187,16.278-6.923,21.063-14.235a50.386,50.386,0,0,0,7.245-20.518,18.921,18.921,0,0,0-.567-7.923Z" transform="translate(-1245.81 -415.588)" fill="#da8c6e"/>
          <path id="Trazado_1327731" data-name="Trazado 1327731" d="M1286.71,522.838a36.292,36.292,0,0,0-.7,10.785,25.256,25.256,0,0,0,24.086,22.555,23.068,23.068,0,0,1-13.147-5.849C1289.23,543.226,1286.727,533.047,1286.71,522.838Z" transform="translate(-1245.81 -475.926)" fill="#ffbea5"/>
          <path id="Trazado_1327732" data-name="Trazado 1327732" d="M1372.736,554a6.08,6.08,0,1,0,6.548-5.573A6.08,6.08,0,0,0,1372.736,554Z" transform="translate(-1304.078 -493.079)" fill="#c36345" opacity="0.58"/>
          <circle id="Elipse_13804" data-name="Elipse 13804" cx="6.08" cy="6.08" r="6.08" transform="translate(43.126 56.092) rotate(-21.028)" fill="#c36345" opacity="0.58"/>
          <g id="Grupo_1207557" data-name="Grupo 1207557" transform="translate(68.782 36.575)">
            <path id="Trazado_1327733" data-name="Trazado 1327733" d="M1376,515.841s2.62-7.3,7.752-7.492c6.118-.227,7.509,6.074,7.509,6.074Z" transform="translate(-1375.065 -502.776)" fill="#c36345" opacity="0.94"/>
            <g id="Grupo_1207556" data-name="Grupo 1207556" transform="translate(0 7.198)">
              <path id="Trazado_1327734" data-name="Trazado 1327734" d="M1378.026,529.407c12.563,5.7,17.387-15.409,4.428-15.815C1375.821,514.517,1370.745,525.9,1378.026,529.407Z" transform="translate(-1374.03 -513.496)" fill="#fff"/>
              <path id="Trazado_1327735" data-name="Trazado 1327735" d="M1390.062,519.62c-.575-3.462-3.9-6.492-8.532-6.312-4.305.167-8.373,4.478-8.375,10.337,0,0,2.235-8.765,9.29-8.092a7.107,7.107,0,0,1,6.714,7.02S1390.637,523.081,1390.062,519.62Z" transform="translate(-1373.154 -513.3)" fill="#060107"/>
              <ellipse id="Elipse_13805" data-name="Elipse 13805" cx="6.727" cy="5.697" rx="6.727" ry="5.697" transform="translate(3.488 14.565) rotate(-82.521)" fill="#060107"/>
            </g>
            <path id="Trazado_1327736" data-name="Trazado 1327736" d="M1378.289,493.2c-.09,1.126,1.533,1.114,3.52,1.274s3.588.432,3.679-.694-1.448-2.169-3.436-2.329S1378.38,492.073,1378.289,493.2Z" transform="translate(-1376.597 -491.429)" fill="#060107"/>
            <path id="Trazado_1327737" data-name="Trazado 1327737" d="M1379.942,542.407c-.048.6,1.03,1.175,2.409,1.286s2.535-.285,2.583-.884-1.03-1.175-2.408-1.286S1379.99,541.808,1379.942,542.407Z" transform="translate(-1377.707 -525.023)" fill="#fff"/>
            <path id="Trazado_1327738" data-name="Trazado 1327738" d="M1417.068,518.191l-1.473,1.329" transform="translate(-1401.626 -509.383)" fill="none" stroke="#060107" stroke-miterlimit="10" stroke-width="0.81"/>
            <path id="Trazado_1327739" data-name="Trazado 1327739" d="M1420.878,524.088a11.68,11.68,0,0,1-2.132,1.7" transform="translate(-1403.74 -513.339)" fill="none" stroke="#060107" stroke-miterlimit="10" stroke-width="0.81"/>
          </g>
          <g id="Grupo_1207559" data-name="Grupo 1207559" transform="translate(42.306 34.944)">
            <path id="Trazado_1327740" data-name="Trazado 1327740" d="M1311.825,510.467s-1.419-7.626-6.454-8.635c-6-1.2-8.384,4.8-8.384,4.8Z" transform="translate(-1295.58 -496.671)" fill="#c36345" opacity="0.94"/>
            <g id="Grupo_1207558" data-name="Grupo 1207558" transform="translate(0 6.629)">
              <path id="Trazado_1327741" data-name="Trazado 1327741" d="M1306.06,523.58c-13.312,3.615-14.7-17.991-1.841-16.319C1310.617,509.235,1313.808,521.284,1306.06,523.58Z" transform="translate(-1294.44 -506.987)" fill="#fff"/>
              <path id="Trazado_1327742" data-name="Trazado 1327742" d="M1293.12,511.678c1.122-3.325,4.886-5.785,9.432-4.866,4.223.853,7.549,5.759,6.614,11.544,0,0-.8-9.01-7.876-9.474a7.107,7.107,0,0,0-7.751,5.856S1292,515,1293.12,511.678Z" transform="translate(-1292.711 -506.618)" fill="#060107"/>
              <ellipse id="Elipse_13806" data-name="Elipse 13806" cx="6.727" cy="5.697" rx="6.727" ry="5.697" transform="translate(4.011 15.476) rotate(-88.276)" fill="#060107"/>
            </g>
            <path id="Trazado_1327743" data-name="Trazado 1327743" d="M1323.939,488.825c-.09,1.126-1.691.854-3.679.694s-3.611-.148-3.52-1.274,1.776-1.909,3.764-1.749S1324.03,487.7,1323.939,488.825Z" transform="translate(-1308.829 -486.476)" fill="#060107"/>
            <path id="Trazado_1327744" data-name="Trazado 1327744" d="M1305.524,534.191c-.048.6-1.2.995-2.583.884s-2.457-.687-2.409-1.286,1.2-.995,2.583-.884S1305.573,533.592,1305.524,534.191Z" transform="translate(-1297.957 -517.611)" fill="#fff"/>
            <path id="Trazado_1327745" data-name="Trazado 1327745" d="M1300.638,508.579l1.242,1.547" transform="translate(-1298.029 -501.304)" fill="none" stroke="#060107" stroke-miterlimit="10" stroke-width="0.81"/>
            <path id="Trazado_1327746" data-name="Trazado 1327746" d="M1294.607,513.576a8.047,8.047,0,0,0,1.52,1.674" transform="translate(-1293.983 -504.656)" fill="none" stroke="#060107" stroke-miterlimit="10" stroke-width="0.81"/>
          </g>
          <path id="Trazado_1327747" data-name="Trazado 1327747" d="M1342.045,528.434c-1.713-.509-2.285-2.893-2.258-4.68a7.371,7.371,0,0,1,.521-2.43,27.064,27.064,0,0,1,2.263-4.38l2.864-4.8a19.674,19.674,0,0,1,3.9,8.882C1349.869,525.778,1348.711,530.416,1342.045,528.434Z" transform="translate(-1281.986 -468.749)" fill="#da8c6e"/>
          <path id="Trazado_1327748" data-name="Trazado 1327748" d="M1342.046,528.434a6.314,6.314,0,0,1-2.258-4.68,7.371,7.371,0,0,1,.521-2.43,27.074,27.074,0,0,1,2.263-4.38l2.864-4.8" transform="translate(-1281.987 -468.749)" fill="none" stroke="#d05e3b" stroke-miterlimit="10" stroke-width="0.405"/>
          <path id="Trazado_1327749" data-name="Trazado 1327749" d="M1359.873,550.306a6.574,6.574,0,0,1,.695,1.2" transform="translate(-1295.462 -494.353)" fill="none" stroke="#d05e3b" stroke-miterlimit="10" stroke-width="0.405"/>
          <path id="Trazado_1327750" data-name="Trazado 1327750" d="M1343.68,537.461a2.043,2.043,0,1,0,2.2-2.211A2.221,2.221,0,0,0,1343.68,537.461Z" transform="translate(-1284.592 -484.248)" fill="#ffbea5"/>
          <path id="Trazado_1327751" data-name="Trazado 1327751" d="M1347.718,567.526s-6.254-5.977-10.015,0c0,0,.256,5.109,4.58,5.314S1347.718,567.526,1347.718,567.526Z" transform="translate(-1280.589 -504.123)" fill="#d53130"/>
          <path id="Trazado_1327752" data-name="Trazado 1327752" d="M1345.88,567.66a13.947,13.947,0,0,1-16.422.25" transform="translate(-1275.057 -505.995)" fill="none" stroke="#060107" stroke-miterlimit="10" stroke-width="0.405"/>
          <path id="Trazado_1327753" data-name="Trazado 1327753" d="M1345.155,593.58c-.03.366.631.718,1.474.786s1.552-.174,1.581-.54-.684-.055-1.528-.123S1345.184,593.214,1345.155,593.58Z" transform="translate(-1285.587 -523.285)" fill="#c36345" opacity="0.51"/>
          <path id="Trazado_1327754" data-name="Trazado 1327754" d="M1276.619,460.794s5.608-19.378,20.719-26.358c0,0-36.921-.3-25.031,25.054A6.8,6.8,0,0,1,1276.619,460.794Z" transform="translate(-1235.134 -416.619)" fill="#060107"/>
          <path id="Trazado_1327755" data-name="Trazado 1327755" d="M1400.45,436.016s-8.648,17.79,13.04,36.215c0,0,4.675-4.928,9.351-1.937,0,0,9.036-16.66,1.288-24.992C1415.985,436.543,1400.45,436.016,1400.45,436.016Z" transform="translate(-1321.542 -417.68)" fill="#060107"/>
          <g id="Grupo_1207560" data-name="Grupo 1207560" transform="translate(38.707)">
            <path id="Trazado_1327756" data-name="Trazado 1327756" d="M1281.777,402.716s5.585-24.63,35.172-22.249,30.542,30.874,30.542,30.874Z" transform="translate(-1281.777 -380.305)" fill="#fa8400"/>
            <path id="Trazado_1327757" data-name="Trazado 1327757" d="M1348.828,380.886c-1.107-.179-2.255-.323-3.455-.419-9.222-.742-16.112,1.14-21.228,4.082C1332.659,386.108,1341.581,385.074,1348.828,380.886Z" transform="translate(-1310.2 -380.305)" fill="#ffb603"/>
            <path id="Trazado_1327758" data-name="Trazado 1327758" d="M1347.491,428.552s-.45-13.4-10.279-22.592a19.1,19.1,0,0,1-6.812,3.078c-8.934,2.49-18.214,2.278-27.192,1.822-5.444-.32-10.883-.693-16.28-1.3a30.268,30.268,0,0,0-5.152,10.364Z" transform="translate(-1281.777 -397.516)" fill="#d76c00" opacity="0.42"/>
            <path id="Trazado_1327759" data-name="Trazado 1327759" d="M1344.743,429.554a36.626,36.626,0,0,1,2.749,11.5l-65.714-8.625a28.908,28.908,0,0,1,3.374-7.742,286.493,286.493,0,0,1,28.9.74C1329.07,426.641,1344.743,429.554,1344.743,429.554Z" transform="translate(-1281.777 -410.023)" fill="#d53130"/>
          </g>
          <path id="Trazado_1327760" data-name="Trazado 1327760" d="M1393.813,459.4c-.881,2.795-.2,5.842.829,8.586a17.434,17.434,0,0,0,3.616,6.171,23.015,23.015,0,0,0,4.447,3.289" transform="translate(-1317.959 -433.368)" fill="none" stroke="#060107" stroke-miterlimit="10" stroke-width="0.405"/>
          <path id="Trazado_1327761" data-name="Trazado 1327761" d="M1441.284,540.832a29.69,29.69,0,0,0-2.651,5.7" transform="translate(-1348.299 -487.997)" fill="none" stroke="#060107" stroke-miterlimit="10" stroke-width="0.405"/>
          <path id="Trazado_1327762" data-name="Trazado 1327762" d="M1440.96,539.483q-.686,1.394-1.474,2.734" transform="translate(-1348.871 -487.092)" fill="none" stroke="#060107" stroke-miterlimit="10" stroke-width="0.405"/>
          <path id="Trazado_1327763" data-name="Trazado 1327763" d="M1479.314,496.385c-.14,10.7,3.953,21.075,9.492,30.233,2.831,4.68,6.164,9.476,6.245,14.945a15.821,15.821,0,0,1-3.939,10.3,23.749,23.749,0,0,1-9.164,6.369" transform="translate(-1375.588 -458.179)" fill="none" stroke="#060107" stroke-miterlimit="10" stroke-width="0.405"/>
          <path id="Trazado_1327764" data-name="Trazado 1327764" d="M1268.106,457.98a15.166,15.166,0,0,0-2.461,6.4,10.07,10.07,0,0,0,1.4,6.629,12.178,12.178,0,0,0,1.006,1.317,7.441,7.441,0,0,0,3.435,2.511" transform="translate(-1232.194 -432.415)" fill="none" stroke="#060107" stroke-miterlimit="10" stroke-width="0.405"/>
          <path id="Trazado_1327765" data-name="Trazado 1327765" d="M1300.919,455.933c.9-11.186-28.174-22.652-64.939-25.611s-67.3,3.71-68.2,14.9c0,0,25.953-6.6,65.834-3.387S1300.919,455.933,1300.919,455.933Z" transform="translate(-1166.594 -413.389)" fill="#fa8400"/>
          <path id="Trazado_1327766" data-name="Trazado 1327766" d="M1285.078,440.963c-11.851-5.075-29.251-9.065-48.834-10.642-35.835-2.884-65.744,3.38-68.069,14.056C1205.72,422.4,1263.162,436.3,1285.078,440.963Z" transform="translate(-1166.859 -413.389)" fill="#ffb603"/>
        </g>
        <path id="Trazado_1327767" data-name="Trazado 1327767" d="M1243.035,625.259s1.66,19.262,8.918,20.691c10.69,2.105,23.313-16.966,23.313-16.966s16.359,9.376,29.316,6.146c0,0,1.781,8.917-8.908,11.67,0,0,2.592,8.422-10.528,11.661,0,0,2.754,12.472-5.669,19.76,0,0,15.225,32.717,16.2,68.349H1208.86s1.543-50.81,15.148-75.914c0,0-7.806-6.525-1.381-20.941,0,0-8.26-4.205-2.916-11.5,0,0-7.612-10.855-3.725-18.3C1215.986,619.914,1228.782,627.688,1243.035,625.259Z" transform="translate(-1171.737 -541.051)" fill="#7bf2ff"/>
        <path id="Trazado_1327768" data-name="Trazado 1327768" d="M1300.361,787.9c-18.842,4.793-40.062,3.471-57.124-5.264a83.981,83.981,0,0,0-3.594,8.994c9.89,14.216,30.234,17.022,47.523,20.165,7.271.909,11.815,7.271,12.724,14.541,1.12,11.2-3.632,21.708-11.482,29.4h27.917C1315.423,822.693,1302.27,792.165,1300.361,787.9Z" transform="translate(-1192.388 -650.213)" fill="#7bf2ff"/>
        <path id="Trazado_1327769" data-name="Trazado 1327769" d="M1254.884,733.837c-4.671-2.156-9.056-5.734-10.912-10.507-3.319,11.46,2.941,16.7,2.941,16.7-.49.9-.963,1.846-1.422,2.814,17.062,8.735,38.282,10.058,57.123,5.264-.15-.335-.232-.513-.232-.513a18.449,18.449,0,0,0,5.99-12.592C1294.314,748.059,1270.754,741.557,1254.884,733.837Z" transform="translate(-1194.641 -610.429)" fill="#7bf2ff"/>
        <path id="Trazado_1327770" data-name="Trazado 1327770" d="M1248.026,774.083s27.993,11.088,55.469,7.565c0,0,3.375,1.313,2.884,6.913,0,0-35.417,6.381-61.718-7.189C1244.661,781.372,1244.655,775.723,1248.026,774.083Z" transform="translate(-1195.755 -644.477)" fill="#d53130"/>
        <circle id="Elipse_13807" data-name="Elipse 13807" cx="2.612" cy="2.612" r="2.612" transform="translate(56.147 59.585) rotate(-45)" fill="#fff"/>
        <circle id="Elipse_13808" data-name="Elipse 13808" cx="2.612" cy="2.612" r="2.612" transform="matrix(0.383, -0.924, 0.924, 0.383, 111.497, 68.49)" fill="#fff"/>
        <g id="Grupo_1207562" data-name="Grupo 1207562" transform="translate(2.322 74.758)">
          <path id="Trazado_1327771" data-name="Trazado 1327771" d="M1127.382,608.972a5.977,5.977,0,0,0-3.415,1.691,20.984,20.984,0,0,0-2.49,3.421c-.037.051-.083.1-.125.149-.512-1.051-4.49-5.706-4.954-6.784-.089-.205.485,3.546.4,3.339-5.956,2.29-13.886,10.438-13.67,10.514.02.009,4.079,4.785,4.1,4.784a17.318,17.318,0,0,0,3.069,3.244,18.106,18.106,0,0,0,2.086,1.443,6.076,6.076,0,0,0,2.172.928l9.853-3.665a4.844,4.844,0,0,0,1.731-3.111,20.9,20.9,0,0,0,.242-5.316,9.817,9.817,0,0,1,.93-4.833,21.515,21.515,0,0,1,1.2-2.2,4.992,4.992,0,0,0,.8-1.694A1.61,1.61,0,0,0,1127.382,608.972Z" transform="translate(-1103.126 -607.441)" fill="#da8c6e"/>
          <path id="Trazado_1327772" data-name="Trazado 1327772" d="M1150.061,627.942a4.875,4.875,0,0,1-.569.653c-.562.532-1.266.888-1.868,1.374a5.412,5.412,0,0,0-.851,7.559" transform="translate(-1131.63 -621.195)" fill="none" stroke="#d05e3b" stroke-miterlimit="10" stroke-width="0.372"/>
        </g>
        <path id="Trazado_1327773" data-name="Trazado 1327773" d="M1133.955,664.932s4.963,33.611,11.133,42.843c3.393,5.077,8.541,7,11.275,5.5,2.237-1.231,3.458-7.83,3.239-13.735-.486-13.119-15.607-36.2-15.607-36.2Z" transform="translate(-1121.486 -570.18)" fill="#da8c6e"/>
        <g id="Grupo_1207567" data-name="Grupo 1207567" transform="translate(9.103 64.052)">
          <g id="Grupo_1207564" data-name="Grupo 1207564">
            <path id="Trazado_1327774" data-name="Trazado 1327774" d="M1151.779,579.145l.666-4.068s4.941-.924,8.773,1.6l-1.044,3.969Z" transform="translate(-1142.546 -574.912)" fill="#023047"/>
            <path id="Trazado_1327775" data-name="Trazado 1327775" d="M1223.421,600.118l1.805-3.706a11.938,11.938,0,0,1,7.946,4.049l-2.138,3.5Z" transform="translate(-1190.608 -589.336)" fill="#023047"/>
            <path id="Trazado_1327776" data-name="Trazado 1327776" d="M1205.683,589.522l-1.192,3.946,5.158,1.641a31.163,31.163,0,0,1,1.259-3.888C1207.876,589.237,1205.683,589.522,1205.683,589.522Z" transform="translate(-1177.908 -584.704)" fill="#023047"/>
            <g id="Grupo_1207563" data-name="Grupo 1207563" transform="translate(0 3.508)">
              <path id="Trazado_1327777" data-name="Trazado 1327777" d="M1156.191,618.724a1.816,1.816,0,0,0,2.132-.956l8.985-18.589a1.434,1.434,0,0,0,.2-.734,1.419,1.419,0,0,0-.593-.862c-8.532-7.323-19.829-10.753-31.021-11.836a17.382,17.382,0,0,0-6.977.365,2.117,2.117,0,0,0-.986.553,2.378,2.378,0,0,0-.437,1.179c-1.089,6.119-2.588,13.609-3.742,19.946a1.816,1.816,0,0,0,1.29,2.072Z" transform="translate(-1123.726 -585.571)" fill="#31c9d6"/>
              <path id="Trazado_1327778" data-name="Trazado 1327778" d="M1125.564,623.907c-.627,3.28-1.257,6.573-1.809,9.6a1.816,1.816,0,0,0,1.29,2.072l31.146,8.862a1.816,1.816,0,0,0,2.132-.956l4.784-9.9C1150.834,629.506,1138.427,625.05,1125.564,623.907Z" transform="translate(-1123.726 -611.289)" fill="#023047"/>
              <path id="Trazado_1327779" data-name="Trazado 1327779" d="M1167.511,617.091a1.419,1.419,0,0,0-.593-.862,41.147,41.147,0,0,0-3.763-2.864c-3,5.694-7.551,10.888-14.385,11.385-8.2.531-17.382-1.9-23.24-7.731-.615,3.219-1.233,6.446-1.774,9.418a1.816,1.816,0,0,0,1.29,2.072l31.146,8.862a1.815,1.815,0,0,0,2.131-.956l8.985-18.589A1.434,1.434,0,0,0,1167.511,617.091Z" transform="translate(-1123.726 -604.217)" fill="#023047" opacity="0.24"/>
            </g>
            <circle id="Elipse_13809" data-name="Elipse 13809" cx="9.38" cy="9.38" r="9.38" transform="translate(4.179 14.07) rotate(-19.608)" fill="#023047" opacity="0.6"/>
            <circle id="Elipse_13810" data-name="Elipse 13810" cx="9.38" cy="9.38" r="9.38" transform="translate(3.196 18.624) rotate(-45)" fill="#7bf2ff"/>
            <circle id="Elipse_13811" data-name="Elipse 13811" cx="6.815" cy="6.815" r="6.815" transform="matrix(0.948, -0.319, 0.319, 0.948, 7.827, 14.341)" fill="#060107"/>
            <rect id="Rectángulo_457455" data-name="Rectángulo 457455" width="7.475" height="4.031" transform="translate(32.009 13.203) rotate(19.335)" fill="#060107"/>
          </g>
          <g id="Grupo_1207565" data-name="Grupo 1207565" transform="translate(3.809 5.86)" style="mix-blend-mode: overlay;isolation: isolate">
            <path id="Trazado_1327780" data-name="Trazado 1327780" d="M1137.419,592.717q-.942,4.5-2.121,8.938" transform="translate(-1135.298 -592.717)" fill="none" stroke="#fff" stroke-miterlimit="10" stroke-width="0.312"/>
            <path id="Trazado_1327781" data-name="Trazado 1327781" d="M1142.7,599.274a19.057,19.057,0,0,1-.6,2.67" transform="translate(-1139.858 -597.116)" fill="none" stroke="#fff" stroke-miterlimit="10" stroke-width="0.312"/>
          </g>
          <g id="Grupo_1207566" data-name="Grupo 1207566" transform="translate(8.072 11.261)" style="mix-blend-mode: overlay;isolation: isolate">
            <path id="Trazado_1327782" data-name="Trazado 1327782" d="M1155.146,609.125a8.442,8.442,0,0,0-4.585,4.405" transform="translate(-1149.8 -609.125)" fill="none" stroke="#fff" stroke-miterlimit="10" stroke-width="0.312"/>
            <path id="Trazado_1327783" data-name="Trazado 1327783" d="M1148.422,626.947a4.65,4.65,0,0,0-.169,1.42" transform="translate(-1148.25 -621.081)" fill="none" stroke="#fff" stroke-miterlimit="10" stroke-width="0.312"/>
          </g>
        </g>
        <g id="Grupo_1207568" data-name="Grupo 1207568" transform="translate(0 72.047)">
          <path id="Trazado_1327784" data-name="Trazado 1327784" d="M1128.806,605.091c1.606,2.429,3.788,3.816,4.874,3.1s.665-3.269-.941-5.7-3.788-3.816-4.874-3.1S1127.2,602.662,1128.806,605.091Z" transform="translate(-1116.995 -599.204)" fill="#da8c6e"/>
          <path id="Trazado_1327785" data-name="Trazado 1327785" d="M1115.086,615.194c2.5,2.582,5.458,3.771,6.612,2.654s.067-4.115-2.431-6.7-5.458-3.771-6.613-2.654S1112.589,612.612,1115.086,615.194Z" transform="translate(-1106.887 -605.156)" fill="#da8c6e"/>
          <path id="Trazado_1327786" data-name="Trazado 1327786" d="M1106.234,627.279c2.5,2.582,5.458,3.77,6.612,2.654s.067-4.115-2.431-6.7-5.458-3.771-6.612-2.654S1103.737,624.7,1106.234,627.279Z" transform="translate(-1100.949 -613.263)" fill="#da8c6e"/>
          <path id="Trazado_1327787" data-name="Trazado 1327787" d="M1099.515,640.346c2.622,1.917,5.443,2.52,6.3,1.347s-.574-3.677-3.2-5.594-5.443-2.52-6.3-1.347S1096.892,638.429,1099.515,640.346Z" transform="translate(-1096.07 -622.65)" fill="#da8c6e"/>
          <path id="Trazado_1327788" data-name="Trazado 1327788" d="M1115.612,643.237a2.431,2.431,0,0,0-.627-2.188,15.156,15.156,0,0,0-4.638-4.13" transform="translate(-1105.648 -624.506)" fill="none" stroke="#d05e3b" stroke-miterlimit="10" stroke-width="0.372"/>
          <path id="Trazado_1327789" data-name="Trazado 1327789" d="M1118.993,631.873a2.446,2.446,0,0,0,2.156-.411,2.207,2.207,0,0,0-.015-2.375,18.053,18.053,0,0,0-5.336-6.1" transform="translate(-1109.304 -615.158)" fill="none" stroke="#d05e3b" stroke-miterlimit="10" stroke-width="0.372"/>
          <path id="Trazado_1327790" data-name="Trazado 1327790" d="M1125.747,618.506c.519.072,2.251.661,3.293-.873a2.575,2.575,0,0,0-.183-2.462,15.951,15.951,0,0,0-5.726-6.6" transform="translate(-1114.225 -605.486)" fill="none" stroke="#d05e3b" stroke-miterlimit="10" stroke-width="0.372"/>
          <path id="Trazado_1327791" data-name="Trazado 1327791" d="M1138.423,609.259a1.808,1.808,0,0,0,2.391.152.9.9,0,0,0,.263-.395,3.426,3.426,0,0,0,.028-1.861,12.375,12.375,0,0,0-3.179-6.12" transform="translate(-1124.15 -600.433)" fill="none" stroke="#d05e3b" stroke-miterlimit="10" stroke-width="0.372"/>
        </g>
        <path id="Trazado_1327792" data-name="Trazado 1327792" d="M1200.48,730.764a35.764,35.764,0,0,1,3.7,17.74S1209.416,736.354,1200.48,730.764Z" transform="translate(-1166.115 -615.416)" fill="#c36345"/>
        <g id="Grupo_1207569" data-name="Grupo 1207569" transform="translate(143.571 84.739)">
          <path id="Trazado_1327793" data-name="Trazado 1327793" d="M1537.811,638.055a5.975,5.975,0,0,1,2.433,2.933,20.976,20.976,0,0,1,.885,4.137c.013.062.036.123.053.187.894-.752,6.42-3.389,7.282-4.186.165-.151-1.883,3.043-1.722,2.888,4.512,4.512,8.448,15.179,8.219,15.161-.022,0-5.671,2.715-5.689,2.706a17.314,17.314,0,0,1-4.122,1.717,18.111,18.111,0,0,1-2.493.471,6.081,6.081,0,0,1-2.361-.034l-7.514-7.352a4.846,4.846,0,0,1-.318-3.546,20.906,20.906,0,0,1,1.939-4.956,9.818,9.818,0,0,0,1.114-4.794,21.642,21.642,0,0,0-.2-2.5,4.987,4.987,0,0,1-.04-1.872A1.61,1.61,0,0,1,1537.811,638.055Z" transform="translate(-1532.279 -637.766)" fill="#da8c6e"/>
          <path id="Trazado_1327794" data-name="Trazado 1327794" d="M1557,660.318a4.913,4.913,0,0,0,.255.828c.3.714.8,1.326,1.149,2.014a5.412,5.412,0,0,1-2.293,7.253" transform="translate(-1548.269 -652.895)" fill="none" stroke="#d05e3b" stroke-miterlimit="10" stroke-width="0.372"/>
        </g>
        <path id="Trazado_1327795" data-name="Trazado 1327795" d="M1189.924,629.021h0a6.43,6.43,0,0,0,2.38,4.953h0a6.429,6.429,0,0,0-4.953,2.38h0a6.432,6.432,0,0,0-2.38-4.953h0a6.431,6.431,0,0,0,4.953-2.38Z" transform="translate(-1155.711 -547.16)" fill="#fff"/>
        <circle id="Elipse_13812" data-name="Elipse 13812" cx="0.823" cy="0.823" r="0.823" transform="translate(65.165 55.328)" fill="#ffbea5"/>
        <circle id="Elipse_13813" data-name="Elipse 13813" cx="0.823" cy="0.823" r="0.823" transform="translate(104.173 59.014)" fill="#ffbea5"/>
        <g id="Grupo_1207571" data-name="Grupo 1207571" transform="translate(137.518 71.386)">
          <path id="Trazado_1327796" data-name="Trazado 1327796" d="M1528.664,598.249a15.34,15.34,0,0,1,4.759-1.053,1.563,1.563,0,0,1,.744.14c.573.312.689,1.176.742,1.938a154.578,154.578,0,0,1-.353,25.237,19.1,19.1,0,0,1-.424,2.847,2.57,2.57,0,0,1-.4.957,2.416,2.416,0,0,1-.634.532,40.921,40.921,0,0,1-17.562,6.485.744.744,0,0,1-.471-.047c-.188-.118-.224-.4-.245-.662a240.548,240.548,0,0,1-.56-31.552S1524.208,599.733,1528.664,598.249Z" transform="translate(-1513.947 -597.196)" fill="#7bf2ff"/>
          <path id="Trazado_1327797" data-name="Trazado 1327797" d="M1531.033,610.9a20.983,20.983,0,0,1,5.989.158,2.707,2.707,0,0,1,.953.357,2.94,2.94,0,0,1,.96,2.322,139.7,139.7,0,0,1-.413,27.288,15.108,15.108,0,0,1-.538,2.912,1.767,1.767,0,0,1-.511.876,2.059,2.059,0,0,1-.8.328,46.45,46.45,0,0,1-21.038.2,1.162,1.162,0,0,1-.533-.218,1.1,1.1,0,0,1-.281-.759,223.6,223.6,0,0,1-.616-32.186S1525.595,611.284,1531.033,610.9Z" transform="translate(-1513.888 -606.3)" fill="#023047"/>
          <path id="Trazado_1327798" data-name="Trazado 1327798" d="M1532.046,660.712a15.9,15.9,0,0,1-14.385,3.329,13.715,13.715,0,0,1-2.381-.85c.129,1.986.285,3.95.469,5.879a1.1,1.1,0,0,0,.281.759,1.162,1.162,0,0,0,.534.218,46.45,46.45,0,0,0,21.038-.2,2.062,2.062,0,0,0,.805-.328,1.768,1.768,0,0,0,.511-.876,15.128,15.128,0,0,0,.538-2.912,138.69,138.69,0,0,0,.866-18.138A27.183,27.183,0,0,1,1532.046,660.712Z" transform="translate(-1514.822 -631.009)" fill="#060107" opacity="0.4"/>
          <path id="Trazado_1327799" data-name="Trazado 1327799" d="M1520.014,641.6q-.243,6.978-.073,13.963" transform="translate(-1517.902 -626.986)" fill="none" stroke="#fff" stroke-miterlimit="10" stroke-width="0.243" style="mix-blend-mode: overlay;isolation: isolate"/>
          <g id="Grupo_1207570" data-name="Grupo 1207570" transform="translate(7.658 10.874)">
            <path id="Trazado_1327800" data-name="Trazado 1327800" d="M1537.155,632.826q.151,2.913.3,5.827" transform="translate(-1537.155 -631.973)" fill="none" stroke="#fff" stroke-miterlimit="10" stroke-width="0.243"/>
            <path id="Trazado_1327801" data-name="Trazado 1327801" d="M1537.428,631.561a.909.909,0,0,1,.548-.313,1.519,1.519,0,0,1,1.628.977,2.128,2.128,0,0,1-.328,1.954,3.627,3.627,0,0,1-1.653,1.19" transform="translate(-1537.338 -630.898)" fill="none" stroke="#fff" stroke-miterlimit="10" stroke-width="0.243"/>
            <path id="Trazado_1327802" data-name="Trazado 1327802" d="M1545.877,637.712l.791-5.181a5.935,5.935,0,0,1,.242-1.106c.02-.055.048-.116.1-.131.088-.023.152.08.184.165a47.562,47.562,0,0,1,1.817,6.054" transform="translate(-1543.006 -630.944)" fill="none" stroke="#fff" stroke-miterlimit="10" stroke-width="0.243"/>
            <path id="Trazado_1327803" data-name="Trazado 1327803" d="M1557.6,630.628c-.015-.022-.031-.044-.05-.067a.9.9,0,0,0-1.434,1.085l.008.011a3.524,3.524,0,0,0,.887.731,5,5,0,0,1,1.332,1.41,2.141,2.141,0,0,1,.375,1.75,1.156,1.156,0,0,1-.384.567,1.039,1.039,0,0,1-1.626-.589,2.368,2.368,0,0,1,.031-1.414" transform="translate(-1549.764 -630.233)" fill="none" stroke="#fff" stroke-miterlimit="10" stroke-width="0.243"/>
            <path id="Trazado_1327804" data-name="Trazado 1327804" d="M1566.374,631.036c-.015-.022-.032-.044-.05-.066a.9.9,0,0,0-1.433,1.085l.008.012a3.535,3.535,0,0,0,.887.73,5,5,0,0,1,1.332,1.41,2.14,2.14,0,0,1,.375,1.75,1.153,1.153,0,0,1-.384.567,1.039,1.039,0,0,1-1.626-.589,2.368,2.368,0,0,1,.031-1.414" transform="translate(-1555.649 -630.507)" fill="none" stroke="#fff" stroke-miterlimit="10" stroke-width="0.243"/>
            <path id="Trazado_1327805" data-name="Trazado 1327805" d="M1549.158,642.581a13.312,13.312,0,0,0-2.059.258" transform="translate(-1543.826 -638.517)" fill="none" stroke="#fff" stroke-miterlimit="10" stroke-width="0.243"/>
          </g>
          <circle id="Elipse_13814" data-name="Elipse 13814" cx="5.693" cy="5.693" r="5.693" transform="matrix(0.739, -0.674, 0.674, 0.739, 5.641, 26.178)" fill="none" stroke="#fff" stroke-miterlimit="10" stroke-width="0.243"/>
          <path id="Trazado_1327806" data-name="Trazado 1327806" d="M1550.187,666.323a9.711,9.711,0,0,1-8.766.637" transform="translate(-1532.359 -643.571)" fill="none" stroke="#fff" stroke-miterlimit="10" stroke-width="0.288"/>
          <path id="Trazado_1327807" data-name="Trazado 1327807" d="M1541.6,685.251a10.38,10.38,0,0,1,9.1.112" transform="translate(-1532.483 -655.601)" fill="none" stroke="#fff" stroke-miterlimit="10" stroke-width="0.288"/>
          <path id="Trazado_1327808" data-name="Trazado 1327808" d="M1553.759,660.994c.078.81.789,8.186,1.124,11.106" transform="translate(-1540.636 -639.996)" fill="none" stroke="#fff" stroke-miterlimit="10" stroke-width="0.288"/>
          <path id="Trazado_1327809" data-name="Trazado 1327809" d="M1560.838,661.544a11.6,11.6,0,0,1,.785,10.4" transform="translate(-1545.385 -640.365)" fill="none" stroke="#fff" stroke-miterlimit="10" stroke-width="0.288"/>
          <path id="Trazado_1327810" data-name="Trazado 1327810" d="M1546.442,662.085a11.6,11.6,0,0,0,.206,10.43" transform="translate(-1534.966 -640.728)" fill="none" stroke="#fff" stroke-miterlimit="10" stroke-width="0.288"/>
        </g>
        <g id="Grupo_1207572" data-name="Grupo 1207572" transform="translate(156.038 86.904)">
          <path id="Trazado_1327811" data-name="Trazado 1327811" d="M1576.048,650.332c-2.454,1.567-5.011,1.947-5.712.85s.721-3.257,3.175-4.824,5.011-1.948,5.712-.851S1578.5,648.765,1576.048,650.332Z" transform="translate(-1570.157 -644.704)" fill="#da8c6e"/>
          <path id="Trazado_1327812" data-name="Trazado 1327812" d="M1578.243,664.518c-3.331,1.345-6.519,1.228-7.12-.261s1.611-3.787,4.942-5.133,6.519-1.228,7.12.261S1581.574,663.173,1578.243,664.518Z" transform="translate(-1570.739 -653.631)" fill="#da8c6e"/>
          <path id="Trazado_1327813" data-name="Trazado 1327813" d="M1581.422,679.157c-3.331,1.345-6.519,1.228-7.12-.262s1.611-3.787,4.942-5.132,6.519-1.228,7.12.261S1584.753,677.812,1581.422,679.157Z" transform="translate(-1572.872 -663.452)" fill="#da8c6e"/>
          <path id="Trazado_1327814" data-name="Trazado 1327814" d="M1583.8,693.49c-3.175.686-6,.091-6.3-1.328s2.019-3.127,5.194-3.813,6-.091,6.3,1.328S1586.972,692.8,1583.8,693.49Z" transform="translate(-1575.059 -673.674)" fill="#da8c6e"/>
          <path id="Trazado_1327815" data-name="Trazado 1327815" d="M1577.326,691.971c.042-.792.772-1.354,1.462-1.745a15.159,15.159,0,0,1,5.916-1.89" transform="translate(-1574.967 -673.858)" fill="none" stroke="#d05e3b" stroke-miterlimit="10" stroke-width="0.372"/>
          <path id="Trazado_1327816" data-name="Trazado 1327816" d="M1576.773,680.214c-.73-.218-1.56-.529-1.8-1.251-.268-.8.345-1.611.979-2.164a18.059,18.059,0,0,1,7.355-3.408" transform="translate(-1573.343 -663.831)" fill="none" stroke="#d05e3b" stroke-miterlimit="10" stroke-width="0.372"/>
          <path id="Trazado_1327817" data-name="Trazado 1327817" d="M1574.594,665.256c-.5-.145-2.325-.31-2.654-2.136a2.575,2.575,0,0,1,1.167-2.175,15.953,15.953,0,0,1,7.915-3.709" transform="translate(-1571.339 -652.994)" fill="none" stroke="#d05e3b" stroke-miterlimit="10" stroke-width="0.372"/>
          <path id="Trazado_1327818" data-name="Trazado 1327818" d="M1572.843,651.657a1.808,1.808,0,0,1-2.247-.832.9.9,0,0,1-.08-.467,3.425,3.425,0,0,1,.73-1.712,12.373,12.373,0,0,1,5.391-4.3" transform="translate(-1570.396 -644.345)" fill="none" stroke="#d05e3b" stroke-miterlimit="10" stroke-width="0.372"/>
        </g>
      </g>
    </g>
  </g>
</svg>
