<svg xmlns="http://www.w3.org/2000/svg" width="127" height="127" viewBox="0 0 127 127">
  <g id="Grupo_1207848" data-name="Grupo 1207848" transform="translate(-582 -8263)">
    <g id="Grupo_1207732" data-name="Grupo 1207732" transform="translate(0 62)">
      <g id="Grupo_1207190" data-name="Grupo 1207190" transform="translate(80.6 1102.658)">
        <circle id="Elipse_13775" data-name="Elipse 13775" cx="63.5" cy="63.5" r="63.5" transform="translate(501.4 7098.342)" fill="#fbe49d"/>
        <circle id="Elipse_13776" data-name="Elipse 13776" cx="52" cy="52" r="52" transform="translate(513.4 7110.342)" fill="#3b4b68"/>
      </g>
      <g id="Grupo_1207727" data-name="Grupo 1207727" transform="translate(-560.249 7745.345)">
        <path id="Trazado_1328333" data-name="Trazado 1328333" d="M1180.565,535.316v1.137q0,7.032,0,14.064c0,.257.011.515-.012.77-.033.369-.257.654-.616.571-.2-.046-.384-.359-.48-.591a1.859,1.859,0,0,1-.02-.667q0-5.394,0-10.789v-1.125c-.274-.027-.517-.071-.76-.072-1.284-.007-2.568.006-3.852-.007-.789-.008-.963-.178-.971-.959-.014-1.413,0-2.826,0-4.238v-.953c-.272-.1-.481-.176-.685-.263a4.761,4.761,0,0,1-2.673-6.207c1.034-2.589,2.188-5.13,3.3-7.689.905-2.088,1.828-4.169,2.73-6.258a3.615,3.615,0,0,1,3.632-2.332c2.856.009,5.713,0,8.646,0v-2.194a2.789,2.789,0,0,0-.391-.058c-2.44,0-4.881-.048-7.319.01a6.115,6.115,0,0,0-6,5,10.888,10.888,0,0,0-.087,1.343,2.367,2.367,0,0,1-.027.762c-.11.256-.334.6-.558.64-.347.067-.546-.25-.559-.622a8.742,8.742,0,0,1,.488-3.6,7.456,7.456,0,0,1,3.178-3.7c-.214-.159-.385-.29-.56-.417a3.343,3.343,0,0,1-1.276-3.75,3.236,3.236,0,0,1,3.121-2.278c2.6-.022,5.2-.007,7.8-.007h.926a8.9,8.9,0,0,1,1-1.626c.954-.977,4.178-.991,5.142-.022a9.081,9.081,0,0,1,1.029,1.657,11.328,11.328,0,0,1,1.731.02,14.042,14.042,0,0,1,1.89.54v-1c0-3.724.006-7.449-.006-11.174a3.02,3.02,0,0,1,.57-1.9,2.267,2.267,0,0,1,1.63-.919,7.645,7.645,0,0,1,.77-.02q16.564,0,33.129-.01a2.558,2.558,0,0,1,2.629,1.382,3.787,3.787,0,0,1,.284,1.1,7.818,7.818,0,0,1,.016,1.058q0,29.235,0,58.47c0,.353.012.708-.014,1.059a2.506,2.506,0,0,1-2.485,2.443c-.192.01-.385,0-.578,0h-30.144a2.372,2.372,0,0,1-.764-.027c-.21-.075-.532-.327-.511-.452a.9.9,0,0,1,.467-.6,2.734,2.734,0,0,1,.952-.051c9.919,0,19.839-.025,29.758.02,1.817.008,2.235-.591,2.233-2.27q-.032-29.38-.014-58.759c0-.289.019-.58-.01-.866a1.407,1.407,0,0,0-1.434-1.384c-.256-.016-.513-.007-.77-.007h-32.358c-.289,0-.579-.012-.866.011a1.322,1.322,0,0,0-1.323,1.268,7.582,7.582,0,0,0-.015.866q0,8.766,0,17.531a2.815,2.815,0,0,1-.035.859c-.066.2-.341.487-.477.465a.842.842,0,0,1-.589-.467,5.246,5.246,0,0,1-.027-1.253c-.323.15-.541.254-.761.352-.359.16-.754.352-.987-.142-.192-.408.072-.654.426-.829a2.626,2.626,0,0,0,.49-.3,2.153,2.153,0,0,0,.736-2.337,2.084,2.084,0,0,0-1.869-1.558c-.6-.043-1.205-.008-1.862-.008-.02.341-.037.616-.054.895a.972.972,0,0,0,.287.127c.513.016,1.027.014,1.54.026.4.009.714.152.7.608-.013.417-.326.5-.679.5h-1.787v2.407a3.89,3.89,0,0,1,2.454,3.183c1.255,0,2.472.031,3.688-.007a5.1,5.1,0,0,1,4.854,2.693c1.714,2.862,3.48,5.692,5.227,8.534.164.267.349.521.651.968l1.192-8.336c-.617,0-1.157.014-1.7,0-.683-.022-.816-.126-.819-.774-.014-2.986,0-5.972-.009-8.958,0-.565.257-.824.815-.823,1.67,0,3.339-.013,5.008.008.672.008.837.19.858.88.024.794.006,1.59.006,2.454.416.018.728.038,1.041.045a2.068,2.068,0,0,1,2.281,2.348c-.027,1.762-.033,3.532-.218,5.281-.368,3.476-.792,6.949-1.3,10.407a7.255,7.255,0,0,1-8.439,6.274,7.166,7.166,0,0,1-5.366-3.824c-.938-1.674-1.867-3.353-3-5.027-.013.349-.037.7-.038,1.046q0,13.727,0,27.453c0,.289,0,.578-.008.867-.013.357-.148.649-.548.66s-.537-.277-.539-.641c0-.225,0-.45,0-.674q0-7.08,0-14.16v-1.084Zm20.046-6.661c0-2.919-.008-5.838.01-8.756,0-.4-.23-.982.414-1.125.607-.134.713.446.919.81,1.291,2.29,2.548,4.6,3.847,6.885a6.24,6.24,0,0,0,6.31,3.165,6.113,6.113,0,0,0,5.283-5.117c.248-1.453.389-2.924.58-4.387.122-.941.247-1.882.382-2.912l-5.041-.686c-.188,1.231-.37,2.395-.541,3.56-.159,1.078-.283,2.163-.474,3.235a1.127,1.127,0,0,1-.461.76c-.414.19-.589-.247-.784-.53-.109-.158-.205-.325-.306-.489q-3.12-5.084-6.236-10.172a3.655,3.655,0,0,0-2.494-1.953,17.722,17.722,0,0,0-2.7-.027c-.029.173-.063.324-.08.478q-.456,3.919-.91,7.838a13.69,13.69,0,0,0,.371,6.1A7.846,7.846,0,0,0,1200.611,528.655Zm-14.324-9.505a.766.766,0,0,0-.081-.179c-1.194-2.2-2.4-4.388-3.583-6.588-.862-1.6-.853-1.585-2.706-1.548a2.435,2.435,0,0,0-2.336,1.544c-.412.9-.8,1.818-1.2,2.729-1.57,3.614-3.149,7.224-4.7,10.845a3.771,3.771,0,0,0,.71,4.432,3.972,3.972,0,0,0,4.463.577c2.009-.993,4.084-1.852,6.125-2.779,1.007-.457,2-.939,3.03-1.421l-1.6-3.706c-.492.2-.909.364-1.323.536-1.568.65-3.132,1.311-4.708,1.942a.8.8,0,0,1-.678-.02.993.993,0,0,1-.155-.683,1.542,1.542,0,0,1,.194-.538q1.261-2.858,2.527-5.713c.417-.937.826-1.877,1.276-2.8.239-.49.771-.588.956-.195a1.122,1.122,0,0,1-.038.806,31.619,31.619,0,0,1-1.41,3.157c-.669,1.219-.393,2.476-.452,3.875,1.6-.673,3.073-1.282,4.533-1.921a.959.959,0,0,0,.388-.485C1185.776,520.45,1186,519.866,1186.287,519.15Zm-.655-8.275c.1.25.142.371.2.479,1.234,2.211,2.478,4.418,3.7,6.634a1.427,1.427,0,0,0,1.026.881,1.863,1.863,0,0,1,.943.757c.531.721,1.006,1.487,1.473,2.254a1.765,1.765,0,0,1-.254,2.37c-.569.555-1.253.991-1.856,1.513a1.939,1.939,0,0,0-.612.787,12.91,12.91,0,0,1-5.419,7.124c-.171.112-.326.249-.56.43,2.355.2,15.583.113,16.438-.144-.25-.265-.442-.5-.662-.7a15.333,15.333,0,0,1-5.188-13c.1-1.438.327-2.867.486-4.3.187-1.677.363-3.355.547-5.061h-3.63c-.227.858-.639,1.45-1.55,1.537-1.169.112-1.6-.706-1.936-1.561Zm25.619-6.713v8.228h3.244c0-1.2.007-2.35,0-3.5a2.562,2.562,0,0,1,.8-1.985,1.066,1.066,0,0,0,.336-.627c.043-.693.016-1.389.016-2.12Zm7.2,11.948a32.026,32.026,0,0,0,.482-7c-.015-1.476-.2-1.674-1.651-1.659a4.073,4.073,0,0,0-.575.023,1.09,1.09,0,0,0-1.048,1.16c-.029,1.088-.017,2.178,0,3.267a1.032,1.032,0,0,0,.9,1.079c.094.02.232-.008.278.047.168.2.445.446.417.636s-.37.408-.6.441a1.274,1.274,0,0,1-.821-.2,3.078,3.078,0,0,0-2.094-.3l-.251,1.815Zm-32.936,6.656,1.542,3.567c1.16-.55,2.246-1.014,3.278-1.577a9.572,9.572,0,0,0,1.506-1.172.824.824,0,0,0,.152-1.2c-.455-.7-.893-1.4-1.367-2.084a.767.767,0,0,0-1.344-.122c-.268.273-.488.592-.743.878-.559.628-.9.6-1.315-.093-.091-.152-.187-.3-.28-.449l-.19.021a3.789,3.789,0,0,1-.183,1.255C1186.386,522.144,1185.963,522.369,1185.513,522.766Zm-10.451,9.985v4.633h4.3v-6.242Zm25.462-.617a2.247,2.247,0,0,0-.536-2.171,11.638,11.638,0,0,1-2.851-6.994,25.93,25.93,0,0,1,.106-3.834c.236-2.456.564-4.9.844-7.353a8.267,8.267,0,0,0,0-.89h-.993c-.045.213-.1.395-.12.58-.316,2.8-.636,5.6-.937,8.408a14.3,14.3,0,0,0,1.721,8.814A12.094,12.094,0,0,0,1200.524,532.134Zm-12.833-30.125h-6.006a9.583,9.583,0,0,1,.452,2.164,10.516,10.516,0,0,1-.524,2.219c2.216,0,4.457,0,6.7,0,.116,0,.232-.016.4-.029a5.739,5.739,0,0,1-.771-1.014,5.5,5.5,0,0,1-.248-1.225c-.2,0-.424,0-.646,0a16.84,16.84,0,0,1-1.728-.031c-.19-.021-.514-.314-.494-.435a.955.955,0,0,1,.453-.6,1.78,1.78,0,0,1,.756-.048c.537,0,1.073,0,1.655,0Zm-11.05,2.155a2.281,2.281,0,0,0,2.219,2.216,2.315,2.315,0,0,0,2.239-2.3,2.212,2.212,0,0,0-2.276-2.129A2.187,2.187,0,0,0,1176.641,504.164Zm16.667-.04c-1.307,0-2.491-.028-3.672.023-.25.011-.488.309-.732.474.159.214.282.563.482.615.579.151.65.525.646,1.014-.011,1.316,0,2.632,0,3.949a1.673,1.673,0,0,0,.032.665.858.858,0,0,0,.5.448c.141.029.484-.207.487-.33.02-.887.413-1.817-.262-2.646a.677.677,0,0,1-.129-.592,1.139,1.139,0,0,1,.611-.324,1.893,1.893,0,0,1,.477.022,1.433,1.433,0,0,0,1.552-1.473C1193.334,505.4,1193.308,504.822,1193.308,504.124Zm-4.427-1.191h4.427c0-.736.025-1.4-.007-2.07a1.081,1.081,0,0,0-1.14-1.158,18.2,18.2,0,0,0-2.107,0,1.147,1.147,0,0,0-1.165,1.162C1188.849,501.532,1188.881,502.2,1188.881,502.933Zm.037,23.829a2.575,2.575,0,0,0-1.812,1.392,10.125,10.125,0,0,1-4.485,4.2c-.654.321-1.34.577-2,.859v.869C1183.472,534.238,1188.011,530.239,1188.918,526.762Zm-.107-7.708c-.126-.265-.211-.472-.319-.666q-1.891-3.393-3.788-6.782c-.463-.829-.463-.83-1.6-.666L1188,519.91Zm-8.192,12.885a9.491,9.491,0,0,0,4.981-3.481l-.115-.2-4.865,2.212Zm13.452-24.363-1.8,1.1v.993h3.5A2.445,2.445,0,0,0,1194.071,507.575Z" transform="translate(0 0)" fill="#fef8e6" stroke="#fef8e6" stroke-width="0.5"/>
        <path id="Trazado_1328334" data-name="Trazado 1328334" d="M1361.56,498.821h-9.906a2.81,2.81,0,0,1-1.5,1.9,4.841,4.841,0,0,1-1.574.338c-1.99.039-3.98.018-5.971.015a2.955,2.955,0,0,1-3.238-2.232h-9.992v1.15q0,8.14,0,16.28a3.075,3.075,0,0,1-.055.953.711.711,0,0,1-.534.4c-.169,0-.391-.262-.477-.458a1.746,1.746,0,0,1-.029-.666q0-8.766,0-17.532c0-.193,0-.385,0-.578,0-.485.266-.7.724-.7.642-.006,1.284-.006,1.926-.006q4.19,0,8.379,0c.963,0,.963.009,1.209.935a1.566,1.566,0,0,0,1.57,1.311q3.418.046,6.838,0a1.513,1.513,0,0,0,1.558-1.409c.16-.757.223-.831,1.021-.834q5.153-.014,10.305,0c.8,0,.937.168.963.968.006.192,0,.385,0,.578v55.872c0,1.486,0,1.487-1.5,1.487H1331.9c-.257,0-.514.005-.77-.008-.364-.018-.689-.219-.613-.57.049-.225.4-.439.656-.547a2.125,2.125,0,0,1,.763-.023h29.624Z" transform="translate(-127.667 -9.122)" fill="#fef8e6" stroke="#fef8e6" stroke-width="0.5"/>
        <path id="Trazado_1328335" data-name="Trazado 1328335" d="M1442.688,613.78a10.59,10.59,0,0,1,1.82-.515,3.243,3.243,0,0,1,3.635,2.8,2.075,2.075,0,0,0,.584,1.249,2.181,2.181,0,0,1-1.489,3.632c-2.177.038-4.359.073-6.534-.009a2.68,2.68,0,0,1-2.495-3.14,6.41,6.41,0,0,0,.008-1.316,2.777,2.777,0,0,1,4.231-2.821A2.432,2.432,0,0,0,1442.688,613.78Zm1.155,6.057v0c1.058,0,2.115,0,3.172,0a1.062,1.062,0,0,0,1.106-.749.952.952,0,0,0-.462-1.235,1.036,1.036,0,0,1-.591-1.157,2.221,2.221,0,0,0-4.377-.661c-.233.812-.332.893-1.137.628a1.64,1.64,0,0,0-1.839.435,1.552,1.552,0,0,0-.294,1.782,1.654,1.654,0,0,0,1.634.963C1441.984,619.82,1442.914,619.837,1443.843,619.837Zm-4.524-4.017a8.927,8.927,0,0,1,1.193-.362,7.892,7.892,0,0,1,1.149-.012l.284-.713C1440.782,613.97,1439.791,614.342,1439.319,615.82Z" transform="translate(-216.423 -102.395)" fill="#fef8e6" stroke="#fef8e6" stroke-width="0.5"/>
        <path id="Trazado_1328336" data-name="Trazado 1328336" d="M1441.4,673.079a11.855,11.855,0,0,1,1.785-1.757,3.278,3.278,0,0,1,4.962,2.258,2.444,2.444,0,0,0,.643,1.42,1.97,1.97,0,0,1,.343,2.245,2.173,2.173,0,0,1-2.033,1.378c-.895.049-1.794.016-2.692.017-1.122,0-2.245.028-3.365-.009a2.771,2.771,0,0,1-2.824-2.692,2.687,2.687,0,0,1,2.712-2.858C1441.152,673.072,1441.375,673.079,1441.4,673.079Zm2.612,4.423v0c.961,0,1.923.014,2.884,0a1.182,1.182,0,0,0,1.263-.825,1.023,1.023,0,0,0-.59-1.276c-.469-.239-.5-.565-.475-1.023a2.223,2.223,0,0,0-4.391-.67c-.216.752-.292.8-1.075.594a1.815,1.815,0,0,0-1.651.2,1.632,1.632,0,0,0-.61,1.789,1.65,1.65,0,0,0,1.568,1.2C1441.959,677.531,1442.986,677.5,1444.011,677.5Z" transform="translate(-216.446 -148.914)" fill="#fef8e6" stroke="#fef8e6" stroke-width="0.5"/>
        <path id="Trazado_1328337" data-name="Trazado 1328337" d="M1441.649,730.794a3.857,3.857,0,0,1,1.8-1.936,3.321,3.321,0,0,1,4.681,2.377,2.713,2.713,0,0,0,.682,1.51,1.934,1.934,0,0,1,.3,2.245,1.986,1.986,0,0,1-1.867,1.292c-2.178.013-4.357.043-6.534-.013a2.629,2.629,0,0,1-2.5-2.757,2.7,2.7,0,0,1,2.559-2.716C1441.06,730.78,1441.347,730.794,1441.649,730.794Zm2.33,4.44v-.009c1.027,0,2.054.018,3.08-.007a1.111,1.111,0,0,0,1.117-.892.94.94,0,0,0-.509-1.136,1.009,1.009,0,0,1-.575-1.166,2.226,2.226,0,0,0-4.371-.705c-.28.943-.285.945-1.243.649a1.673,1.673,0,0,0-2.017.866,1.564,1.564,0,0,0,.641,2.081,2.761,2.761,0,0,0,1.182.3C1442.18,735.264,1443.08,735.234,1443.979,735.234Z" transform="translate(-216.445 -195.519)" fill="#fef8e6" stroke="#fef8e6" stroke-width="0.5"/>
        <path id="Trazado_1328338" data-name="Trazado 1328338" d="M1383.946,521.912h-2.808c-.372,0-.743-.025-.75-.52-.006-.477.341-.568.723-.57,1.346,0,2.692-.02,4.037.016a.863.863,0,0,1,.672.387.923.923,0,0,1-.272.723c-.669.724-1.378,1.41-2.135,2.172a3,3,0,0,1,2.435,2.3,2.771,2.771,0,1,1-5.461.932.942.942,0,0,1,.006-.473c.09-.181.27-.448.405-.444a.94.94,0,0,1,.592.346c.108.127.076.367.125.552a1.729,1.729,0,0,0,1.792,1.283,1.8,1.8,0,0,0,1.487-1.654,1.656,1.656,0,0,0-1.457-1.642c-.38-.047-.773.006-1.149-.054-.226-.036-.577-.166-.614-.317a.959.959,0,0,1,.208-.75c.554-.621,1.164-1.191,1.749-1.783C1383.636,522.306,1383.723,522.183,1383.946,521.912Z" transform="translate(-169.732 -27.797)" fill="#fef8e6" stroke="#fef8e6" stroke-width="0.5"/>
        <path id="Trazado_1328339" data-name="Trazado 1328339" d="M1455.257,572.688a2.749,2.749,0,1,1,2.8-2.707A2.756,2.756,0,0,1,1455.257,572.688Zm-.02-4.427a1.679,1.679,0,1,0,1.673,1.615A1.672,1.672,0,0,0,1455.238,568.261Z" transform="translate(-227.968 -65.241)" fill="#fef8e6" stroke="#fef8e6" stroke-width="0.5"/>
        <path id="Trazado_1328340" data-name="Trazado 1328340" d="M1411.472,522.9c-.517.5-.85.834-1.2,1.152-.227.206-.491.339-.765.076a.55.55,0,0,1,0-.851c.69-.715,1.38-1.432,2.112-2.1.469-.43.9-.222.982.423a3.964,3.964,0,0,1,.006.481q0,3.32,0,6.639c0,.1,0,.193,0,.289.014.385-.072.763-.511.787-.494.027-.623-.354-.623-.785q0-2.357,0-4.715C1411.471,523.911,1411.472,523.528,1411.472,522.9Z" transform="translate(-193.103 -27.907)" fill="#fef8e6" stroke="#fef8e6" stroke-width="0.5"/>
        <path id="Trazado_1328341" data-name="Trazado 1328341" d="M1362.606,751.474h4.135a1.329,1.329,0,0,1,.569.023c.225.12.52.315.563.523.075.364-.217.567-.585.6-.159.013-.32.009-.48.009h-8.366c-.128,0-.257,0-.385,0-.364-.006-.639-.147-.655-.544-.019-.457.275-.6.685-.6q2.26,0,4.52,0Z" transform="translate(-151.195 -214.018)" fill="#fef8e6" stroke="#fef8e6" stroke-width="0.5"/>
        <path id="Trazado_1328342" data-name="Trazado 1328342" d="M1362.574,768.466q2.064,0,4.128,0a1.737,1.737,0,0,1,.664.031c.2.09.5.35.475.47a1.1,1.1,0,0,1-.494.571c-.14.088-.374.033-.566.033-2.784,0-5.568.006-8.351-.005-.417,0-.963.151-1.057-.512-.062-.441.213-.585,1.073-.587C1359.822,768.463,1361.2,768.466,1362.574,768.466Z" transform="translate(-151.166 -227.74)" fill="#fef8e6" stroke="#fef8e6" stroke-width="0.5"/>
        <path id="Trazado_1328343" data-name="Trazado 1328343" d="M1362.695,735.536c-1.376,0-2.752,0-4.128,0a1.877,1.877,0,0,1-.752-.08.651.651,0,0,1-.318-.5.717.717,0,0,1,.365-.468,1.266,1.266,0,0,1,.566-.039q4.272,0,8.543,0c.421,0,1.017-.139.988.554-.028.658-.617.526-1.04.53C1365.51,735.545,1364.1,735.536,1362.695,735.536Z" transform="translate(-151.272 -200.274)" fill="#fef8e6" stroke="#fef8e6" stroke-width="0.5"/>
        <path id="Trazado_1328344" data-name="Trazado 1328344" d="M1348.97,518.722c0,.57,0,1.044,0,1.518,0,.355-.122.656-.533.656s-.525-.3-.526-.656c0-.473,0-.946,0-1.518-.541,0-.98,0-1.421,0-.42,0-.835-.081-.812-.583.021-.476.429-.573.852-.564s.828,0,1.378,0c0-.464-.007-.868,0-1.273.008-.376-.07-.845.5-.859.636-.015.551.494.563.9.012.378,0,.756,0,1.232.544,0,.984,0,1.424,0s.8.137.778.63c-.023.444-.4.522-.781.516C1349.956,518.717,1349.516,518.722,1348.97,518.722Z" transform="translate(-141.728 -23.464)" fill="#fef8e6" stroke="#fef8e6" stroke-width="0.5"/>
        <path id="Trazado_1328345" data-name="Trazado 1328345" d="M1274.466,785.168c0,1.123,0,2.247,0,3.37a1.275,1.275,0,0,1-.077.654.864.864,0,0,1-.593.348c-.135.006-.329-.255-.409-.435a1.5,1.5,0,0,1-.029-.571c0-2.247-.006-4.494,0-6.741,0-.424-.14-1.023.536-1.017.632.006.568.575.57,1.021C1274.469,782.921,1274.466,784.045,1274.466,785.168Z" transform="translate(-83.325 -237.693)" fill="#fef8e6" stroke="#fef8e6" stroke-width="0.5"/>
        <path id="Trazado_1328346" data-name="Trazado 1328346" d="M1401.571,498.814c-1.027,0-2.054,0-3.08,0-.372,0-.781-.023-.817-.469-.039-.488.346-.636.777-.636q3.129,0,6.257,0c.393,0,.732.141.715.591-.018.469-.392.514-.771.512C1403.624,498.81,1402.6,498.814,1401.571,498.814Z" transform="translate(-183.709 -9.142)" fill="#fef8e6" stroke="#fef8e6" stroke-width="0.5"/>
        <path id="Trazado_1328347" data-name="Trazado 1328347" d="M1455.11,523.687a2.892,2.892,0,0,1,2.334-2.742c.411-.068.89-.183,1,.408.1.547-.338.563-.726.662a1.613,1.613,0,0,0-1.4,1.6,1.587,1.587,0,0,0,1.2,1.65c.184.055.422.02.554.128.17.138.375.395.35.569a.714.714,0,0,1-.5.432,2.541,2.541,0,0,1-2.418-1.432A9.08,9.08,0,0,1,1455.11,523.687Z" transform="translate(-230.086 -27.857)" fill="#fef8e6" stroke="#fef8e6" stroke-width="0.5"/>
        <path id="Trazado_1328348" data-name="Trazado 1328348" d="M1434.11,520.921a1.636,1.636,0,0,1,1.615,1.664,1.638,1.638,0,1,1-3.273-.049A1.626,1.626,0,0,1,1434.11,520.921Zm0,2.458c.235-.41.485-.651.451-.84s-.348-.339-.54-.506c-.148.18-.418.363-.412.538C1433.616,522.784,1433.854,522.989,1434.111,523.379Z" transform="translate(-211.791 -27.883)" fill="#fef8e6" stroke="#fef8e6" stroke-width="0.5"/>
        <path id="Trazado_1328349" data-name="Trazado 1328349" d="M1452.258,775.392a2.041,2.041,0,0,1-.217.369c-.376.39-.757.774-1.147,1.149a.438.438,0,0,1-.734-.049.726.726,0,0,1-.043-.651,10.187,10.187,0,0,1,1.208-1.218.56.56,0,0,1,.505-.072C1452,775.009,1452.115,775.225,1452.258,775.392Z" transform="translate(-226.006 -232.938)" fill="#fef8e6" stroke="#fef8e6" stroke-width="0.5"/>
        <path id="Trazado_1328350" data-name="Trazado 1328350" d="M1469.578,775.444a1.615,1.615,0,0,1-.193.371,11.479,11.479,0,0,1-1.167,1.137.671.671,0,0,1-.658-.029.682.682,0,0,1-.084-.663,10.657,10.657,0,0,1,1.287-1.285.557.557,0,0,1,.506.021C1469.411,775.081,1469.478,775.289,1469.578,775.444Z" transform="translate(-240.028 -232.967)" fill="#fef8e6" stroke="#fef8e6" stroke-width="0.5"/>
        <path id="Trazado_1328351" data-name="Trazado 1328351" d="M1482.736,524.194c-.4.262-.615.506-.863.544-.355.054-.583-.2-.571-.58s.241-.631.6-.559C1482.146,523.649,1482.35,523.908,1482.736,524.194Z" transform="translate(-251.234 -30.036)" fill="#fef8e6" stroke="#fef8e6" stroke-width="0.5"/>
        <path id="Trazado_1328352" data-name="Trazado 1328352" d="M1482.8,535.865c-.392.312-.593.589-.841.643a.476.476,0,0,1-.588-.565c.037-.22.312-.547.5-.558C1482.108,535.371,1482.363,535.623,1482.8,535.865Z" transform="translate(-251.283 -39.561)" fill="#fef8e6" stroke="#fef8e6" stroke-width="0.5"/>
        <path id="Trazado_1328353" data-name="Trazado 1328353" d="M1482.054,510.751c.269.425.521.653.544.9a.49.49,0,0,1-.637.52.782.782,0,0,1-.491-.564C1481.478,511.377,1481.76,511.155,1482.054,510.751Z" transform="translate(-251.369 -19.672)" fill="#fef8e6" stroke="#fef8e6" stroke-width="0.5"/>
      </g>
    </g>
  </g>
</svg>
