<svg xmlns="http://www.w3.org/2000/svg" width="127" height="127" viewBox="0 0 127 127">
  <g id="Grupo_1207850" data-name="Grupo 1207850" transform="translate(-1205 -8263)">
    <g id="Grupo_1207730" data-name="Grupo 1207730" transform="translate(0 62)">
      <g id="Grupo_1207190" data-name="Grupo 1207190" transform="translate(703.6 1102.658)">
        <circle id="Elipse_13775" data-name="Elipse 13775" cx="63.5" cy="63.5" r="63.5" transform="translate(501.4 7098.342)" fill="#fbe49d"/>
        <circle id="Elipse_13776" data-name="Elipse 13776" cx="52" cy="52" r="52" transform="translate(513.4 7110.342)" fill="#3b4b68"/>
      </g>
      <g id="Grupo_1207729" data-name="Grupo 1207729" transform="translate(45.48 7737.7)">
        <path id="Trazado_1328358" data-name="Trazado 1328358" d="M1190.931,556.411c0-2.994-.032-5.873.016-8.751a11.932,11.932,0,0,1,.375-3.565,31.964,31.964,0,0,1,2.041-4.127,47.066,47.066,0,0,1-1.947-4.384,11.054,11.054,0,0,1-.464-3.383c-.05-4.413.069-8.83-.043-13.241a11.226,11.226,0,0,1,10.214-11.382,1.476,1.476,0,0,0,1.279-.83,23.016,23.016,0,0,1,16.622-11.206A23.353,23.353,0,0,1,1242.56,506.5a2.437,2.437,0,0,0,1.779,1.3,9.995,9.995,0,0,1,7.572,11.917,4.589,4.589,0,0,0,.07,3.045c.768,1.823-.513,4.822-3.842,5.136a8.748,8.748,0,0,1-1.1,4.695,7.494,7.494,0,0,1-3.682,3.011c.212,1.454.212,1.454,1.559,1.757a12.069,12.069,0,0,1,9.16,10.466c.236,2.8.042,5.638.042,8.583H1253.1q-12.623,0-25.247.018a3.409,3.409,0,0,0-1.473.41c-3.944,2.019-3.672,2.007-7.553.05a4.027,4.027,0,0,0-1.725-.458c-8.327-.029-16.655-.02-24.982-.02Zm23.759-20.71c.1-.117.134-.136.14-.161a10.486,10.486,0,0,0,.5-2.22c.046-5.176.145-10.357-.01-15.529a8.869,8.869,0,0,0-6.4-7.839c-2.372-.694-4.8-.454-7.192-.371a9.091,9.091,0,0,0-8.786,9.057c-.057,4.56-.044,9.121,0,13.681a9.9,9.9,0,0,0,2.277,6.339c1.234-.4,2.406-.764,3.563-1.167a2.934,2.934,0,0,0,1.944-2.121c-.214-.114-.365-.2-.519-.277a8.726,8.726,0,0,1-5.111-7.222,45.54,45.54,0,0,1-.034-6.613,3.883,3.883,0,0,1,3.767-3.538c.365-.017.731,0,1.266,0a5.737,5.737,0,0,1-.955-4.091c.347,0,.665-.006.983,0s.624.03.963.047c.023.225.046.367.052.51.091,2.433,1.2,3.518,3.622,3.523,1.471,0,2.943-.011,4.413,0a4.041,4.041,0,0,1,4.2,4.15c.021,1.706.057,3.415-.01,5.119a9.05,9.05,0,0,1-5.11,8.075c-.2.105-.389.22-.569.323a3.359,3.359,0,0,0,3.653,2.405v-3.157Zm-1.3,2.068c0,2.155-.093,4.482.019,6.8a13,13,0,0,0,8.6,11.544,1.744,1.744,0,0,0,1.082,0,13.016,13.016,0,0,0,7.063-6.067c2.247-3.964,1.417-8.278,1.6-12.5a1.691,1.691,0,0,0-.369,0,9.95,9.95,0,0,1-8.394-1.026,1.46,1.46,0,0,0-1.011.078,20.611,20.611,0,0,1-3.719,1.248A32.961,32.961,0,0,1,1213.391,537.769Zm16.138,16.5h22.662c0-1.6.007-3.155,0-4.707a10.357,10.357,0,0,0-7.682-10.208.973.973,0,0,0-1.293.456,5.21,5.21,0,0,1-8.666.016c-.153-.218-.312-.433-.468-.649l-.318.027C1234.077,544.674,1233.771,549.97,1229.529,554.269Zm-14.055,0c-.147-.194-.222-.307-.31-.408a14.089,14.089,0,0,1-3.569-7.535c-.222-1.77-.2-3.57-.294-5.357-.015-.279-.065-.556-.1-.834l-.225-.03a6.354,6.354,0,0,1-2.962,3.366c-1.7.911-3.542.76-5.352.646a5.835,5.835,0,0,1-4.75-2.942c-.213-.341-.387-.706-.608-1.112a6.57,6.57,0,0,0-3.971,4.366,18.2,18.2,0,0,0-.4,4.007c-.062,1.93-.016,3.864-.016,5.834Zm16.266-29.448h0c0,1.383-.027,2.767.006,4.15a4.8,4.8,0,0,0,4,4.814,22.738,22.738,0,0,0,5.88.1c2.806-.347,4.405-2.448,4.417-5.282.009-2.207.012-4.415,0-6.622a2.11,2.11,0,0,0-2.251-2.274c-.883-.016-1.766-.02-2.649,0a7.108,7.108,0,0,1-4.81-1.663,1.2,1.2,0,0,0-.515-.307c-2.572-.359-4.076,1.11-4.077,3.2Q1231.739,522.88,1231.74,524.822Zm-27.585-5.121c-1.647,0-3.293-.018-4.94.006a2.06,2.06,0,0,0-2.183,2.151c-.026,1.793-.066,3.591.031,5.379a7.121,7.121,0,0,0,14.232-.3c.031-1.646.016-3.293.005-4.94a2.085,2.085,0,0,0-2.294-2.291C1207.389,519.691,1205.772,519.7,1204.155,519.7Zm45.564.266a1.639,1.639,0,0,0,.137-.288,8.079,8.079,0,0,0-4.187-9.275c-3.159-1.55-6.524-.575-9.831-.91a32.417,32.417,0,0,0,.021,3.572,5.109,5.109,0,0,0,5.209,4.641q1.41.032,2.82,0a4.033,4.033,0,0,1,3.305,1.547,1.233,1.233,0,0,0,.6.427C1248.415,519.815,1249.052,519.874,1249.719,519.967Zm-35.688-12.508h16.979a1.584,1.584,0,0,0-.077-.3,27.757,27.757,0,0,0-7.892-9.248,1.012,1.012,0,0,0-.961.008c-1.215,1.018-2.427,2.05-3.538,3.178A24.689,24.689,0,0,0,1214.031,507.459Zm15.47,2.188h-16.677a11.554,11.554,0,0,1,4.59,7.991h8.162A10.457,10.457,0,0,1,1229.5,509.646Zm-1.089,18.166c-2.51-1.111-3.31-3.637-2.561-5.218a3.779,3.779,0,0,0-.005-2.828H1217.5v8.046Zm-11.322,8.142a5.477,5.477,0,0,0,.567,0,7.954,7.954,0,0,0,4.178-1.716,1.083,1.083,0,0,1,1.458,0,30.414,30.414,0,0,0,2.8,1.442,1,1,0,0,0,1.424-.377,30.524,30.524,0,0,1,1.873-2.446,2.174,2.174,0,0,0,.287-2.854h-12.117Zm23.654-28.441a20.667,20.667,0,0,0-14.5-9.781c.015.056.012.132.048.165a30.864,30.864,0,0,1,6.95,9.255.806.806,0,0,0,.609.345C1236.108,507.523,1238.368,507.513,1240.743,507.513Zm-21.8-9.792c-5.046.269-13.243,5.823-14.475,9.792,2.187,0,4.361-.023,6.533.016a1,1,0,0,0,1.053-.686,29.067,29.067,0,0,1,6.385-8.581C1218.609,498.108,1218.753,497.932,1218.948,497.721Zm-19.618,41.765a3.71,3.71,0,0,0,2.891,2.47,16.272,16.272,0,0,0,4.1-.047,3.55,3.55,0,0,0,2.674-2.424,5.352,5.352,0,0,1-3.3-3.349c-.034-.1-.284-.178-.436-.182-.848-.017-1.7-.008-2.561-.008A5.293,5.293,0,0,1,1199.33,539.487Zm34.483-29.6c-4.392.8-7.419,6.1-5.658,10.079a2.137,2.137,0,0,0,2.182-1.552,4.333,4.333,0,0,1,3.244-2.593c.272-.066.539-.15.7-.2-.167-1.016-.378-1.93-.453-2.856S1233.813,510.894,1233.813,509.884ZM1238.958,536a13.046,13.046,0,0,0-1.322.01c-.419.043-1-.274-1.188.41-.209.756-.8,1.458-.184,2.318a3.212,3.212,0,0,0,5.255-.054,1.625,1.625,0,0,0,.182-1.135c-.374-1.556-.4-1.549-2.037-1.549Zm-9.339-10.19v-3.964a1.907,1.907,0,0,0-1.937,1.825C1227.616,524.788,1228.3,525.569,1229.62,525.807Zm18.539-3.968V525.8a2,2,0,0,0,1.943-2.123A1.922,1.922,0,0,0,1248.159,521.838Zm-16.768,11.728-1.527,2.131.12.15,2.92-.963Z" transform="translate(0)" fill="#fef8e6"/>
        <path id="Trazado_1328359" data-name="Trazado 1328359" d="M1340.539,766.036l-2.6-2.631,1.308-1.4,1.281,1.211,7.349-7.535,1.338,1.608Z" transform="translate(-121.068 -214.437)" fill="#fef8e6"/>
        <path id="Trazado_1328360" data-name="Trazado 1328360" d="M1440.433,684.3l1.695-.824c1.459,2.036,3.269,1.734,4.431-.008l1.705.82a4.038,4.038,0,0,1-3.86,2.606A4.081,4.081,0,0,1,1440.433,684.3Z" transform="translate(-205.458 -154.982)" fill="#fef8e6"/>
        <path id="Trazado_1328361" data-name="Trazado 1328361" d="M1435.9,646.549c-.065.667-.389,1.023-1.021,1.008a.979.979,0,1,1,.039-1.957A.927.927,0,0,1,1435.9,646.549Z" transform="translate(-200.095 -123.8)" fill="#fef8e6"/>
        <path id="Trazado_1328362" data-name="Trazado 1328362" d="M1482.159,646.595a.92.92,0,0,1-1.006.968.979.979,0,1,1,.022-1.957A.918.918,0,0,1,1482.159,646.595Z" transform="translate(-238.187 -123.804)" fill="#fef8e6"/>
        <path id="Trazado_1328363" data-name="Trazado 1328363" d="M1244.021,684.326l1.613-.805c1.3,1.683,2.916,2.1,4.511-.014l1.611.779a3.787,3.787,0,0,1-3.37,2.626A4.085,4.085,0,0,1,1244.021,684.326Z" transform="translate(-43.735 -155.012)" fill="#fef8e6"/>
        <path id="Trazado_1328364" data-name="Trazado 1328364" d="M1238.123,647.717c-.276-.374-.721-.72-.788-1.128-.093-.572.314-.982.958-.992s1.072.374,1,.954c-.052.411-.483.774-.745,1.159Z" transform="translate(-38.219 -123.797)" fill="#fef8e6"/>
        <path id="Trazado_1328365" data-name="Trazado 1328365" d="M1284.294,647.7c-.26-.389-.7-.761-.736-1.171-.053-.568.383-.96,1.026-.936s1.046.453.951,1.01c-.069.406-.538.744-.829,1.112Z" transform="translate(-76.285 -123.794)" fill="#fef8e6"/>
      </g>
    </g>
  </g>
</svg>
