<svg xmlns="http://www.w3.org/2000/svg" width="127" height="127" viewBox="0 0 127 127">
  <g id="Grupo_1207846" data-name="Grupo 1207846" transform="translate(-581.971 -825.5)">
    <g id="Grupo_1207756" data-name="Grupo 1207756">
      <g id="Grupo_1207190" data-name="Grupo 1207190" transform="translate(80.57 -6272.842)">
        <circle id="Elipse_13775" data-name="Elipse 13775" cx="63.5" cy="63.5" r="63.5" transform="translate(501.4 7098.342)" fill="#fbe49d"/>
        <circle id="Elipse_13776" data-name="Elipse 13776" cx="52" cy="52" r="52" transform="translate(513.4 7110.342)" fill="#3b4b68"/>
      </g>
      <g id="Grupo_1207751" data-name="Grupo 1207751" transform="translate(-601.535 333.485)">
        <path id="Trazado_1328435" data-name="Trazado 1328435" d="M1217.988,583.282l9.218-25.741a16.213,16.213,0,0,1-10.948-9.731,15.572,15.572,0,0,1-.472-10.568,16.02,16.02,0,0,1,16.716-11.523A16.2,16.2,0,0,1,1247.183,540a16.393,16.393,0,0,1-12.826,17.759q1.344,3.778,2.682,7.538c2.031,5.677,4.085,11.347,6.079,17.038a1.261,1.261,0,0,0,1.445,1.011c3.7-.047,7.4-.02,11.1-.02h1.109l-1.056-26.087h-4.4c-1.12,0-2.24.011-3.36,0a2.984,2.984,0,1,1,.048-5.952c1.218-.013,2.436,0,3.793,0-.2-5.123,2.016-8.548,7.105-10a3.765,3.765,0,0,0-.476-.426,2.969,2.969,0,0,1-1.542-2.783c.021-1.7.038-3.395-.02-5.09a2.074,2.074,0,0,0-.51-1.214,5.214,5.214,0,0,1-1.485-3.259c-.048-.84.32-1.3,1.17-1.3,2.579,0,5.16-.045,7.737.031a3.243,3.243,0,0,1,3.134,3.26c.037,2.579.025,5.159,0,7.738-.01,1.115-.279,1.47-1.989,3.015a22.618,22.618,0,0,1,2.337.948,7.9,7.9,0,0,1,4.586,6.961c.137,5.053.1,10.112.052,15.168a2.865,2.865,0,0,1-3.4,2.894c-.23-.02-.458-.053-.8-.094-.247,5.375-.492,10.685-.742,16.13.4.023.759.06,1.113.061q3.207.008,6.415,0c.74,0,1.445.1,1.428,1.026s-.727,1-1.462,1q-28.662-.007-57.324,0c-.767,0-1.448-.17-1.44-1.034.008-.88.723-1.028,1.472-.995C1217.424,583.338,1217.693,583.3,1217.988,583.282Zm17.369-27.966c6.317-1.777,10.04-8.285,9.758-13.068-.662,0-1.332,0-2,0-1.277.01-2.679-.323-3.387,1.253-.061.135-.3.18-.39.313a2.318,2.318,0,0,0-.51.952c-.068.979,0,1.967-.031,2.95a3.6,3.6,0,0,1-3.272,3.549,3.5,3.5,0,0,1-3.724-3.029,18.329,18.329,0,0,1-.127-1.944c-.166-.023-.293-.044-.42-.057a2.488,2.488,0,1,1,.167-4.97c.814-.018,1.632.039,2.441-.03.294-.025.565-.319.847-.49-.283-.162-.561-.452-.851-.465-1.219-.057-2.444.014-3.662-.047a2.5,2.5,0,0,1,.058-5c.677-.029,1.357,0,2.035-.016a1.146,1.146,0,0,0,.659-.151c.684-.574,1.361-1.163,1.987-1.8,1.149-1.167,2.26-2.37,3.4-3.569a1.491,1.491,0,0,0-.222-.161,13.809,13.809,0,0,0-14.885.688,1.582,1.582,0,0,0-.491,1.092c-.05,1.865,0,3.732-.031,5.6a3.21,3.21,0,0,1-3.243,3.332c-.576.028-1.16-.035-1.727.04-.2.026-.359.342-.536.526.178.147.347.408.535.422.709.053,1.424.008,2.136.033a2.6,2.6,0,0,1,2.681,2.18c.35,1.893.447,3.787-1.033,5.362-.346.368-.576.845-.922,1.213a.707.707,0,0,0,.088,1.193q1.715,1.423,3.433,2.842c.535.444.941.4,1.449-.148a5.671,5.671,0,0,1,4.282-1.8A6.207,6.207,0,0,1,1235.356,555.316Zm23.467,27.943h2.028v-1.17q0-7.027.006-14.053a1.94,1.94,0,0,1,.159-1.076,1.438,1.438,0,0,1,1.035-.553c.278.016.6.447.77.765a2.127,2.127,0,0,1,.043.9q0,7.027,0,14.053v1.133h2.075c.307-6.656.612-13.248.916-19.853h-7.941C1258.221,570.07,1258.521,576.636,1258.823,583.26Zm-13.77-43c.082-2.606-2.32-7.436-4.332-8.8a.722.722,0,0,0-.622-.09c-1.3.865-2.872,1.422-3.424,3.138-.1.3-.585.473-.87.729-.368.33-.885.626-1.029,1.043a1.182,1.182,0,0,1-1.245.946c-.983,0-1.968-.029-2.949.025-.265.014-.516.283-.773.435.265.183.522.511.8.525,1.184.06,2.382-.061,3.555.064a3.7,3.7,0,0,1,1.89.785,2.127,2.127,0,0,1,.56,2.514,2.349,2.349,0,0,1-2.131,1.634c-1.013.064-2.035,0-3.048.066-.22.013-.423.317-.633.487a2.479,2.479,0,0,0,.663.451,3.272,3.272,0,0,0,.91.021c.909-.014,1.405.367,1.359,1.339-.031.643-.02,1.288,0,1.932.031,1.078.663,1.766,1.572,1.739a1.541,1.541,0,0,0,1.463-1.727c.018-1.288.03-2.577,0-3.865a1.241,1.241,0,0,1,1.076-1.45,1.346,1.346,0,0,0,.893-.806c.152-1,.736-1.163,1.581-1.148C1241.893,540.28,1243.477,540.26,1245.053,540.26Zm20.858,20.99v-1.216q0-4.731,0-9.461c0-.687.184-1.267.97-1.279.831-.012,1.063.582,1.061,1.309,0,.2,0,.407,0,.611v9.993h1.969c0-4.016,0-7.945-.008-11.874a5.429,5.429,0,0,0-.175-1.1c-.5-2.318-2.742-4.492-4.525-4.621a13.909,13.909,0,0,1-1.7,2.1,1.511,1.511,0,0,0-.644,1.332c.022,4.408.011,8.817.014,13.226,0,.324.031.647.049.989Zm-7.438-17.7a5.919,5.919,0,0,0-4.218,4.16,18.96,18.96,0,0,0-.392,4.212c-.04.933-.437,1.38-1.36,1.377-.529,0-1.059,0-1.606,0v1.889h4.991v-3.846h2.017v9.894h2.8c.058-.114.113-.172.113-.231.014-4.811.03-9.623.015-14.434,0-.239-.244-.5-.418-.713C1259.839,545.152,1259.244,544.463,1258.473,543.55Zm-38.367,39.829c.933-.188,1.789.358,2.228-.894,2.454-7,4.982-13.977,7.479-20.964.4-1.124.781-2.257,1.18-3.412-1.779-.223-1.772-.221-2.279,1.193q-3.309,9.232-6.623,18.462C1221.443,579.573,1220.81,581.385,1220.106,583.379Zm38.8-50.095c0,1.706-.048,3.357.041,5a1.343,1.343,0,0,0,.865.906,1.189,1.189,0,0,1,1.039,1.367,13.543,13.543,0,0,0,.058,2.631,1.546,1.546,0,0,0,1.014.983c.618.119.937-.4.937-1.041,0-.846.011-1.693,0-2.539a1.239,1.239,0,0,1,1.04-1.386c.375-.1.914-.545.931-.858.092-1.673.044-3.355.044-5.064Zm-26.153,26c-.421,1.34-1.115,2.29-.636,3.6,2.338,6.386,4.607,12.8,6.9,19.2.5,1.4.694,1.5,2.279,1.066Zm-1.037,24v-1.228c0-4.444.053-8.888-.035-13.33a20.086,20.086,0,0,0-.73-3.622l-.5.011a25.236,25.236,0,0,0-.685,3.928c-.087,4.34-.033,8.683-.033,13.025v1.216Zm-4.036-9.3-.2-.038-3.328,9.31h3.529Zm9.641,9.282-3.414-9.521-.186.051v9.471Zm19.786-54a2.485,2.485,0,0,0,2.085,1.844c1.871.141,3.76.042,5.641.042.157-.949-.049-1.8-1-1.848C1261.629,529.188,1259.41,529.266,1257.111,529.266Zm-40.117,13.99,1.819,5.762a12.667,12.667,0,0,1,1.015-1.289c1.089-1.019.953-2.33.815-3.592a1.327,1.327,0,0,0-.916-.841A18.631,18.631,0,0,0,1216.993,543.256Zm3.7-10.8a13.821,13.821,0,0,0-3.044,5.762,6.305,6.305,0,0,0,1.91-.044c.449-.158,1.046-.68,1.083-1.085C1220.771,535.656,1220.69,534.2,1220.69,532.459Zm6.355,22.861a10.622,10.622,0,0,0,6.01.441A3.878,3.878,0,0,0,1227.046,555.32Zm43.156,8.056h-2.468a10.568,10.568,0,0,0,.725,1.743.947.947,0,0,0,.89.012A11.007,11.007,0,0,0,1270.2,563.375Zm-21.436-10.266a9.267,9.267,0,0,0-1.769.683,1.058,1.058,0,0,0,.018.977,8.979,8.979,0,0,0,1.751.679Z" transform="translate(0 0)" fill="#fef8e6"/>
        <path id="Trazado_1328436" data-name="Trazado 1328436" d="M1369.625,735.4c-.36-.669-1.534-1.2-.568-2.117.859-.813,1.439.112,2.067.623.67-.434,1.257-1.5,2.135-.591.816.843-.135,1.435-.6,2.049.447.7,1.479,1.293.53,2.169-.857.79-1.364-.176-2-.612-.7.261-1.241,1.552-2.186.521C1368.156,736.525,1369.258,736.051,1369.625,735.4Z" transform="translate(-122.32 -165.088)" fill="#fef8e6"/>
        <path id="Trazado_1328437" data-name="Trazado 1328437" d="M1489.079,561.735c-.4.251-.887.775-1.194.687a1.6,1.6,0,0,1-.962-1.1c-.036-.274.651-.9,1.017-.9.39,0,.783.541,1.174.847Q1489.1,561.5,1489.079,561.735Z" transform="translate(-216.479 -27.683)" fill="#fef8e6"/>
      </g>
    </g>
  </g>
</svg>
