<svg xmlns="http://www.w3.org/2000/svg" xmlns:xlink="http://www.w3.org/1999/xlink" width="135.059" height="129" viewBox="0 0 135.059 129">
  <defs>
    <clipPath id="clip-path">
      <rect id="Rectángulo_400938" data-name="Rectángulo 400938" width="120" height="120" fill="none"/>
    </clipPath>
  </defs>
  <g id="Grupo_1207842" data-name="Grupo 1207842" transform="translate(-489 -1694)">
    <g id="Grupo_108927" data-name="Grupo 108927" transform="translate(105 -2773)">
      <rect id="Rectángulo_36179" data-name="Rectángulo 36179" width="129" height="127" transform="translate(390.059 4467)" fill="#f9f7f0"/>
    </g>
    <g id="Grupo_1207580" data-name="Grupo 1207580" transform="translate(-523.999 518.084)">
      <path id="Trazado_1327819" data-name="Trazado 1327819" d="M1241.439,1314.891c-3.721-2.3-4.9-5.969-2.724-9a14.422,14.422,0,0,0,2.449-4.648c.636-2.283,2.6-3.327,4.9-3.741a2.946,2.946,0,0,0,1.557-.8,6.01,6.01,0,0,1,7.2-1.465,1.733,1.733,0,0,0,1.264-.034,6,6,0,0,1,7.1,1.463,2.883,2.883,0,0,0,1.552.828,6.018,6.018,0,0,1,5.428,5.676,1.644,1.644,0,0,0,.52,1.048,6.117,6.117,0,0,1-1.026,10.456c-.064.027-.094.131-.193.276a20.878,20.878,0,0,1,5.981,5.96c1.389,2.149,2.485,4.382,2.1,7.041-.515,3.552,1.474,6.382,2.737,9.394,1.849,4.409,1.921,4.373-.031,8.766-.759,1.709-1.53,3.416-2.2,5.161a7.354,7.354,0,0,0-.481,2.453c-.054,3.193-.015,6.386-.026,9.58-.005,1.554-.412,1.969-1.98,1.97q-20.119.011-40.237,0c-1.666,0-2.021-.37-2.025-2.039-.009-3.236.024-6.473-.026-9.708a4.242,4.242,0,0,0-.507-1.909q-2.4-4.357-4.932-8.644a2.206,2.206,0,0,1-.011-2.492c1.7-2.9,3.356-5.822,5.007-8.748a2.4,2.4,0,0,0,.438-1.287C1232.412,1323.42,1236.019,1318.737,1241.439,1314.891Zm35.125,32.284c.763-1.769,1.477-3.308,2.076-4.891a2.156,2.156,0,0,0-.1-1.44c-.974-2.357-2.052-4.671-3-7.036a1.273,1.273,0,0,0-1.428-.9q-18.777.025-37.555,0a1.479,1.479,0,0,0-1.483.9c-1.342,2.417-2.756,4.793-4.1,7.208a1.439,1.439,0,0,0-.147,1.146c.981,1.826,2.044,3.609,3.164,5.55,1.691-2.486,3.927-3.5,6.7-2.807,2.866.716,4.153,2.869,4.493,5.651h20.558a5.768,5.768,0,0,1,4.039-5.525C1272.372,1344.159,1274.628,1344.944,1276.564,1347.175Zm-21.286-34.887c3.829,0,7.659.011,11.489-.005a3.182,3.182,0,0,0,3.294-2.291,3.014,3.014,0,0,0-1.684-3.6,1.961,1.961,0,0,1-1.121-1.944c-.015-3.009-.9-3.9-3.842-3.914a2.1,2.1,0,0,1-2.125-1.265,2.667,2.667,0,0,0-4.337-1.05,2.108,2.108,0,0,1-3.12-.044,2.584,2.584,0,0,0-4.115.833,2.65,2.65,0,0,1-2.877,1.536,2.934,2.934,0,0,0-3.264,3.213,2.458,2.458,0,0,1-.021.885,3.8,3.8,0,0,1-.965,1.614c-1.692,1.129-2.279,2.234-1.812,3.909.387,1.39,1.6,2.124,3.523,2.126Q1249.788,1312.293,1255.278,1312.288Zm-18.238,11.7h36.674a5.18,5.18,0,0,0-.2-.52,11.288,11.288,0,0,0-.551-1.006,15.114,15.114,0,0,0-12.77-7.239c-3.146-.112-6.3-.086-9.449.006a16.806,16.806,0,0,0-4.142.64A15.062,15.062,0,0,0,1237.04,1323.986Zm-.792,38.29h38.279v-2.829h-38.279Zm-.008-32.459h38.289V1327.1h-38.289Zm8.948,23.708v2.874h20.525v-2.874Zm29.418,2.917c0-2.141.067-4.137-.022-6.125a2.928,2.928,0,0,0-2.741-2.727,2.85,2.85,0,0,0-3.023,2.378c-.161,2.137-.042,4.3-.042,6.473Zm-32.517.042c0-2.07.024-3.977-.007-5.883a2.924,2.924,0,0,0-5.829-.414c-.143,2.057-.035,4.131-.035,6.245.407.021.7.048.987.049C1238.771,1356.488,1240.338,1356.486,1242.089,1356.486Z" transform="translate(-155.694 -81.012)"/>
      <path id="Trazado_1327820" data-name="Trazado 1327820" d="M1061.375,1219.509v2.867h2.454c3.366,0,3.364,0,3.367,3.427q0,2.553.023,5.107a1.643,1.643,0,0,0,.142.367h5.672v-4.352l-2.739-.121v-2.9h2.817v-2.861h2.984v2.781h2.828v2.976h-2.707v4.384c.261.059.577.125.889.2a4.4,4.4,0,0,1-.792,8.677c-1.011.057-2.029.01-3.213.01,0,1.029.026,1.911-.006,2.791-.049,1.342-.843,1.881-2.129,1.476-1.209-.38-2.415-.769-3.865-1.231.322,2.522.6,4.831.914,7.135q1.226,9.038,2.476,18.072c.359,2.611.7,5.226,1.1,7.831.2,1.269-.176,2.083-1.359,2.273,0,1.375.021,2.677-.006,3.979-.027,1.324-.544,1.856-1.875,1.859q-9.961.022-19.921,0c-1.4,0-1.885-.53-1.905-1.958-.018-1.266,0-2.532,0-3.77-3.029-.552-3.044-.553-2.764-3.614.872-9.532,1.856-19.055,2.589-28.6.318-4.149.148-8.337.144-12.507a1.96,1.96,0,0,0-.633-1.157c-2.36-2.395-4.718-4.792-7.148-7.114a2.777,2.777,0,0,1-.882-2.737q1.876-10.935,3.711-21.876c.2-1.173.417-2.344.588-3.521a1.54,1.54,0,0,1,1.718-1.492q10.854.008,21.709,0a1.457,1.457,0,0,1,1.648,1.651c0,6.725.007,13.451-.008,20.177,0,1.234-.543,1.729-1.834,1.754C1064.046,1219.528,1062.737,1219.509,1061.375,1219.509Zm-11.843,14.727c.442,13.9-1.986,27.469-2.728,41.142h21.679c-.576-4.232-1.166-8.354-1.692-12.484-.848-6.659-1.647-13.325-2.5-19.984a1.281,1.281,0,0,0-.6-.92,58.948,58.948,0,0,0-6.192-1.932,6.191,6.191,0,0,1-4.9-4.612c-.092-.4-.159-.81-.237-1.211Zm-4.58-35.292a1.217,1.217,0,0,0-.164.326c-1.3,7.794-2.611,15.586-3.862,23.388a1.955,1.955,0,0,0,.548,1.412c1.826,1.9,3.879,3.605,5.538,5.635,1.555,1.9,3.38,1.658,5.417,1.461v-1.6c0-6.849-.233-13.708.092-20.541.18-3.771-.772-6.553-3.715-8.92A4.14,4.14,0,0,0,1044.952,1198.944Zm10.576,5.81v11.628h8.679v-11.628Zm14.662,29.422h-1.483c-2.767,0-5.534.009-8.3,0-1.648-.008-2.015-.384-2.029-2.055-.014-1.618-.009-3.236,0-4.853,0-1.006-.28-1.824-1.451-1.84s-1.495.762-1.49,1.791c.01,2.3-.019,4.6.011,6.9a2.925,2.925,0,0,0,2.315,2.974c2.279.672,4.548,1.377,6.817,2.083,1.848.575,3.689,1.172,5.615,1.786Zm-5.935-35.234h-12.472c2.566,2.88,2.566,2.88,6.234,2.88h6.238Zm-5.795,79.427v2.9h8.67c.151-2.085-.241-2.84-1.649-2.883C1063.2,1278.318,1060.911,1278.369,1058.46,1278.369Zm5.786-52.87h-2.939v5.708h2.939Zm-8.877,52.937h-5.754v2.85h5.754Zm17.769-41.3a13.184,13.184,0,0,0,3.007-.061,2.127,2.127,0,0,0,1.347-1.361c.074-.41-.621-1.3-1.095-1.4a16.207,16.207,0,0,0-3.259-.067Zm-14.839-17.53h-2.773v2.86h2.773Z"/>
      <path id="Trazado_1327821" data-name="Trazado 1327821" d="M1368,1530.723h-2.9v5.806h-2.912v-5.78h-2.9v-2.836l2.822-.125v-2.869H1365c.039.885.082,1.834.13,2.906H1368Z" transform="translate(-263.902 -270.038)"/>
      <path id="Trazado_1327822" data-name="Trazado 1327822" d="M1466.484,1531.5l2.784-.9,1.471,4.368-2.779.954Z" transform="translate(-351.887 -274.705)"/>
      <path id="Trazado_1327823" data-name="Trazado 1327823" d="M1345.643,1346.276h-2.882v-3.032h2.881l-.034-.035v3.1Z" transform="translate(-250.338 -120.895)"/>
      <path id="Trazado_1327824" data-name="Trazado 1327824" d="M1416.878,1346.9v-2.858h2.757v2.858Z" transform="translate(-311.171 -121.575)"/>
      <path id="Trazado_1327825" data-name="Trazado 1327825" d="M1358.68,1330.807v-2.751h2.9c.044.907.088,1.826.133,2.746l.039-.032-3.11,0Z" transform="translate(-263.377 -108.458)"/>
      <path id="Trazado_1327826" data-name="Trazado 1327826" d="M1375.782,1343.229h2.74v3.039h-2.729l.026.036q0-1.554,0-3.107Z" transform="translate(-277.441 -120.885)"/>
      <path id="Trazado_1327827" data-name="Trazado 1327827" d="M1361.73,1360.325c-.047.917-.094,1.834-.144,2.818h-2.9v-2.819l-.035.037h3.107Z" transform="translate(-263.378 -134.942)"/>
      <path id="Trazado_1327828" data-name="Trazado 1327828" d="M1345.574,1426.342v2.783h-2.81v-2.783Z" transform="translate(-250.34 -189.128)"/>
      <path id="Trazado_1327829" data-name="Trazado 1327829" d="M1378.638,1429.353h-2.728v-2.763h2.728Z" transform="translate(-277.546 -189.332)"/>
      <path id="Trazado_1327830" data-name="Trazado 1327830" d="M1411.59,1429.309H1408.9v-2.781h2.693Z" transform="translate(-304.621 -189.281)"/>
      <path id="Trazado_1327831" data-name="Trazado 1327831" d="M1136.005,1506.456a18.715,18.715,0,0,1-8.027-14.406h2.94a15.813,15.813,0,0,0,6.746,12Z" transform="translate(-74.049 -243.06)"/>
      <path id="Trazado_1327832" data-name="Trazado 1327832" d="M1120.8,1574.5c-4.087-1.156-8.093-5.961-8.185-9.808l2.673-.573a10.578,10.578,0,0,0,6.488,7.764Z" transform="translate(-61.443 -302.217)"/>
      <path id="Trazado_1327833" data-name="Trazado 1327833" d="M1153.178,1264.865v-2.725h2.785v2.725Z" transform="translate(-94.732 -54.355)"/>
    </g>
  </g>
</svg>
