<svg xmlns="http://www.w3.org/2000/svg" width="127" height="127" viewBox="0 0 127 127">
  <g id="Grupo_1207844" data-name="Grupo 1207844" transform="translate(-275.971 -2742.499)">
    <g id="Grupo_1207843" data-name="Grupo 1207843">
      <g id="Grupo_1207825" data-name="Grupo 1207825">
        <g id="Grupo_1207741" data-name="Grupo 1207741">
          <g id="Grupo_1207190" data-name="Grupo 1207190" transform="translate(-225.43 -4355.843)">
            <circle id="Elipse_13775" data-name="Elipse 13775" cx="63.5" cy="63.5" r="63.5" transform="translate(501.4 7098.342)" fill="#fbe49d"/>
            <circle id="Elipse_13776" data-name="Elipse 13776" cx="52" cy="52" r="52" transform="translate(513.4 7110.342)" fill="#3b4b68"/>
          </g>
          <g id="Grupo_1207734" data-name="Grupo 1207734" transform="translate(-901.491 2258.535)">
            <path id="Trazado_1328366" data-name="Trazado 1328366" d="M1277.578,547.522a36.619,36.619,0,1,1-36.8-36.563A36.6,36.6,0,0,1,1277.578,547.522Zm-13.5-21.333-.193-.169c-3.844,1.622-7.677,3.269-11.536,4.855a5.888,5.888,0,0,1-7.909-7.076c.95-3.193,1.9-6.384,2.912-9.774l-5.006-.546v67.864c16.295-.382,29.058-13.156,31.458-25.547h-1.2c-4.364,0-8.73.072-13.092-.036a18.372,18.372,0,0,1-5.02-.8c-3.137-.991-5.661-3.109-8.143-5.16-1.9-1.566-2.288-3.819-1.695-6.181a5.288,5.288,0,0,1,4.222-3.945c1.617-.415,3.193-1.026,4.828-1.328a9,9,0,0,0,7.276-5.955C1261.818,530.248,1263.031,528.252,1264.076,526.19Zm-24.413,55.156v-1.118c0-7.6-.1-15.2.065-22.793.05-2.213-.512-3.311-2.628-4.112-4-1.513-7.865-3.368-11.783-5.09a2.027,2.027,0,0,0-2.5.34A6.764,6.764,0,0,1,1212.6,547a3.038,3.038,0,0,0-3.335-1.747,10.017,10.017,0,0,1-1.417.016c-.675-.046-.915.279-.888.9a54.95,54.95,0,0,0,.281,5.871,33.493,33.493,0,0,0,15.282,23.907A32.842,32.842,0,0,0,1239.663,581.345Zm-28.181-38.562a2.684,2.684,0,0,0,.16-.44c.729-4.346,2.521-8.324,4.278-12.311a2.549,2.549,0,0,1,2.464-1.668,2.608,2.608,0,0,1,2.508,1.763c.445,1.034.956,2.042,1.349,3.095,1.475,3.953,3.429,7.8,2.838,12.525a5.01,5.01,0,0,0,1.482-.4,60.9,60.9,0,0,1,12.247-6.611,1.2,1.2,0,0,0,.867-1.364c-.023-7.565-.013-15.13-.017-22.7,0-.352-.032-.7-.049-1.052-16.551.3-30.586,13.747-32.258,29.086a4.287,4.287,0,0,0,.527.066C1209.077,542.786,1210.274,542.783,1211.483,542.783Zm63.07,10.45a34.112,34.112,0,0,0-7.366-27.462c-.2.341-.314.515-.408.7-1.518,2.974-3.051,5.942-4.543,8.928a8.809,8.809,0,0,1-5.894,4.769c-2.452.657-4.873,1.431-7.318,2.113a2.673,2.673,0,0,0-2,2.206,3.682,3.682,0,0,0,1.593,3.993c1.264.916,2.577,1.765,3.849,2.671a11.027,11.027,0,0,0,6.633,2.089c4.034-.021,8.068-.005,12.1-.005ZM1249.8,514.656c-1.022,3.431-2,6.692-2.963,9.957a3.361,3.361,0,0,0,4.547,3.937q4.014-1.683,8.022-3.381l5.168-2.181A34.131,34.131,0,0,0,1249.8,514.656Zm-31.218,16.294-.339.064a50.871,50.871,0,0,0-4.1,11.419,4.02,4.02,0,0,0,1.7,4.395,4.352,4.352,0,0,0,4.842.146,3.737,3.737,0,0,0,1.92-4.255,35.123,35.123,0,0,0-1.295-4.931C1220.5,535.477,1219.5,533.227,1218.582,530.951Zm21.043,10.167a54.511,54.511,0,0,0-10.731,5.745l10.731,4.837Z" transform="translate(0 0)" fill="#fef8e6" stroke="#fef8e6" stroke-width="0.5"/>
            <path id="Trazado_1328367" data-name="Trazado 1328367" d="M1306.882,568.79a26.092,26.092,0,0,1,2.245-7.223c.123-.3.268-.594.4-.892a2.061,2.061,0,0,1,2.024-1.372,1.941,1.941,0,0,1,1.93,1.328c.87,2.339,1.809,4.66,2.522,7.047a4.2,4.2,0,0,1-1.531,4.772,4.54,4.54,0,0,1-5.011.543A4.332,4.332,0,0,1,1306.882,568.79Zm4.941-6.171-.624.032c-.595,2-1.29,3.985-1.748,6.02a2.089,2.089,0,1,0,4.158.02C1313.125,566.64,1312.429,564.64,1311.823,562.618Z" transform="translate(-80.158 -37.793)" fill="#fef8e6" stroke="#fef8e6" stroke-width="0.5"/>
          </g>
        </g>
      </g>
    </g>
  </g>
</svg>
