<svg xmlns="http://www.w3.org/2000/svg" width="127" height="127" viewBox="0 0 127 127">
  <g id="Grupo_1207847" data-name="Grupo 1207847" transform="translate(-895.971 -825.5)">
    <g id="Grupo_1207755" data-name="Grupo 1207755">
      <g id="Grupo_1207190" data-name="Grupo 1207190" transform="translate(394.57 -6272.842)">
        <circle id="Elipse_13775" data-name="Elipse 13775" cx="63.5" cy="63.5" r="63.5" transform="translate(501.4 7098.342)" fill="#fbe49d"/>
        <circle id="Elipse_13776" data-name="Elipse 13776" cx="52" cy="52" r="52" transform="translate(513.4 7110.342)" fill="#3b4b68"/>
      </g>
      <g id="Grupo_1207752" data-name="Grupo 1207752" transform="translate(-260.066 359.451)">
        <path id="Trazado_1328438" data-name="Trazado 1328438" d="M1234.013,547.908c.581.537,1.178,1.058,1.74,1.615q3.6,3.567,7.172,7.154a3.312,3.312,0,1,1-4.547,4.813c-1.6-1.527-3.139-3.112-4.707-4.669-.237-.235-.484-.46-.716-.681-3.169,1.834-6.689,1.72-10.256,2.067,0,.394.011.781,0,1.166a3.165,3.165,0,0,1-6.329-.036c-.011-.361,0-.722,0-1.126-3.518-.353-7.043-.226-10.275-2.079-.58.578-1.2,1.2-1.828,1.823-1.2,1.19-2.391,2.384-3.6,3.565a3.171,3.171,0,0,1-3.325.768,3.122,3.122,0,0,1-2.247-2.562,3.3,3.3,0,0,1,1.069-3.078q4.05-4.025,8.086-8.063c.252-.252.492-.518.875-.923-.5-.027-.819-.059-1.137-.059-4.084,0-8.17-.075-12.251.025-2.484.061-3.153-1.113-3.145-3.107.047-12.037.023-24.074.023-36.111v-1.061c-1.748-.626-2.073-1.085-2.074-2.852,0-1.136-.007-2.272,0-3.409a2.161,2.161,0,0,1,2.4-2.387c2-.015,3.992,0,5.988,0h10.656c.6-1.763,1.036-2.066,2.91-2.067q11.147,0,22.293,0c1.652,0,2.2.422,2.644,2.066h.974q7.738,0,15.476.006a4.142,4.142,0,0,1,1.178.14,1.949,1.949,0,0,1,1.458,1.906c.028,1.473.031,2.948,0,4.421-.023,1.118-.6,1.7-2.064,2.136v1.041q0,18.1,0,36.2c0,.276.01.553-.005.829a2.166,2.166,0,0,1-2.226,2.211c-.889.032-1.781.01-2.671.01h-11.393Zm-43.186-2.5H1248.2V507.265h-57.374Zm42.618-44.476c-.513,1.656-1.012,2.018-2.788,2.019q-3.915,0-7.831,0c-4.914,0-9.827-.008-14.74.007a2.122,2.122,0,0,1-1.937-.829,7.731,7.731,0,0,1-.556-1.18h-16.978c0,1.262,0,2.455,0,3.648a4.4,4.4,0,0,0,.052.462H1250.4v-4.127Zm-25.6-.124H1231.2v-2.048H1207.85Zm3.607,47.057-.122-.264c-.763,0-1.528.034-2.289-.011a1.661,1.661,0,0,0-1.37.574q-4.869,4.894-9.766,9.76a4.4,4.4,0,0,0-.5.539,1.193,1.193,0,0,0,.106,1.517,1.116,1.116,0,0,0,1.505.14,4.656,4.656,0,0,0,.611-.557q5.247-5.23,10.494-10.461C1210.557,548.676,1211.013,548.277,1211.457,547.865Zm16.271-.255-.046.2c.207.219.409.443.622.656q3.843,3.836,7.688,7.669c1.238,1.235,2.463,2.482,3.714,3.7.7.681,1.4.684,1.916.063.424-.51.337-1.176-.281-1.793q-5.044-5.044-10.105-10.07a1.237,1.237,0,0,0-.679-.406C1229.615,547.582,1228.671,547.61,1227.728,547.61Zm-7.172,8.467v-8.4h-2.044v8.4Zm2.2-8.378v4.131l6.464.636c-.25-.28-.417-.487-.6-.675-1.149-1.151-2.355-2.251-3.435-3.463A2.233,2.233,0,0,0,1222.759,547.7Zm-6.449,0a2.223,2.223,0,0,0-2.432.644c-.8.93-1.726,1.744-2.594,2.612-.467.467-.925.942-1.492,1.522l6.518-.645Zm0,6.4a29.308,29.308,0,0,0-7.316.924,31.159,31.159,0,0,0,7.316.991Zm13.786.911a28.762,28.762,0,0,0-7.333-.887v1.89A30.634,30.634,0,0,0,1230.094,555.009Zm-9.516,3.258h-2.1c-.08,1.4.258,2.059,1.022,2.087C1220.3,560.384,1220.685,559.666,1220.578,558.267Z" fill="#fef8e6"/>
        <path id="Trazado_1328439" data-name="Trazado 1328439" d="M1271.952,597.494c-1.851-.657-3.471-1.237-5.215-.529-1.763.716-2.372,2.375-3.234,4-.851-1.672-1.5-3.339-3.308-4.032-1.737-.665-3.361-.079-5.081.568l.852-3.074c-4.739,3.157-9.666,4.169-14.951,2.069s-8.269-6.132-9.341-11.694a9.888,9.888,0,0,1-7.378-2.258,9.593,9.593,0,1,1,14.294-12.5,14.788,14.788,0,0,1,14.079-.867c4.834,2.187,7.558,6.068,8.583,11.3,1.237-.742,1.5-2.091,2.26-3.244.335.626.63,1.178.926,1.73a4.5,4.5,0,0,0,5.587,2.3l1.893-.588c-.177.564-.3.991-.444,1.411-.966,2.791-.093,4.93,2.558,6.258.41.206.817.417,1.4.715-.492.256-.869.463-1.255.652-2.839,1.386-3.707,3.537-2.636,6.53C1271.664,596.573,1271.766,596.919,1271.952,597.494ZM1242.3,586.909c-.635,2.512-1.564,3.232-4.1,3.233h-1.952c1.482,2.513,5.433,4.916,8.1,5.009a2.268,2.268,0,0,0,.023-.444,3.244,3.244,0,0,1,3.521-3.551c.613.028,1.23-.029,1.841.013.636.044.916-.157,1.02-.837a2.692,2.692,0,0,1,2.373-2.344,2.83,2.83,0,0,0,1.351-.649,4.33,4.33,0,0,0,1.2-4.787c-.194-.593-.371-1.192-.582-1.87,1.405.313,2.6,1.087,4.13.736l-.67-3h-1.124c-3.284,0-6.568.013-9.853-.006a3.162,3.162,0,1,1-.078-6.323c.675-.023,1.352.018,2.025-.018.909-.048,1.189-.436,1.063-1.382-6.613-2.519-13.853,1.682-15.538,6.685,2.5-.213,4.643.17,5.1,3.223,1.028,0,2.005-.008,2.982,0a3.159,3.159,0,1,1,.052,6.313C1242.883,586.914,1242.581,586.909,1242.3,586.909Zm26.6-3.289a7.75,7.75,0,0,0-10.841.024,6.812,6.812,0,0,1-2.21,5.412,7,7,0,0,1,2.238,5.384,7.545,7.545,0,0,0,10.826-.027,7.259,7.259,0,0,1,2.261-5.367A7.205,7.205,0,0,1,1268.894,583.621Zm-44.176-12.957a5.46,5.46,0,0,1,2.551,4.61,5.554,5.554,0,0,1-2.605,4.617,6.669,6.669,0,0,0,2.739,2.068c-.221-4.2,1.109-5.53,5.543-5.577l1.061-1.926c-2.157-1.684-2.984-3.792-2.12-6.419A7.032,7.032,0,0,0,1224.718,570.664ZM1234.876,588c1.227,0,2.45,0,3.673,0,1.15-.005,1.359-.189,1.558-1.336a2.055,2.055,0,0,1,2.084-1.812c.275-.01.552.006.827-.006.8-.035,1.336-.489,1.323-1.107s-.553-1.053-1.36-1.069c-.827-.016-1.655,0-2.482,0-1.677,0-2.245-.469-2.552-2.114-.108-.579-.4-.987-1.006-1.009-.942-.034-1.885-.009-2.854-.009A12.669,12.669,0,0,0,1234.876,588Zm17.951-16.362a3.409,3.409,0,0,1-3.855,2.548,9.343,9.343,0,0,0-1.468.013,1.06,1.06,0,0,0-.049,2.119,3.48,3.48,0,0,0,.55.024q4.41,0,8.82,0a5.189,5.189,0,0,0,.667-.1A12.567,12.567,0,0,0,1252.827,571.634Zm2.582,20.136a17.406,17.406,0,0,0-1.3-1.31c-.692-.563-1.073-.406-1.25.446a2.773,2.773,0,0,1-2.97,2.432c-.767.008-1.534-.017-2.3.01a1.082,1.082,0,0,0-1.135,1.069,1.035,1.035,0,0,0,1.225.94A12.819,12.819,0,0,0,1255.409,591.77Zm-31.874-13.854a3.016,3.016,0,0,0,.033-5.3A7.042,7.042,0,0,0,1223.535,577.916Zm7.911,4.68c.2-1.371.4-2.71.608-4.084a2.026,2.026,0,0,0-2.175.765,1.963,1.963,0,0,0-.245,2.16A1.788,1.788,0,0,0,1231.446,582.6Zm2.564-13.83a2.9,2.9,0,0,0,1.43,3.917l1.33-1.416A6.973,6.973,0,0,0,1234.01,568.767Z" transform="translate(-27.997 -56.342)" fill="#fef8e6"/>
        <path id="Trazado_1328440" data-name="Trazado 1328440" d="M1221.263,694.929v-1.947h10.529v1.947Z" transform="translate(-28.327 -160.172)" fill="#fef8e6"/>
        <path id="Trazado_1328441" data-name="Trazado 1328441" d="M1221.265,717.971v-1.956H1231.8v1.956Z" transform="translate(-28.329 -178.961)" fill="#fef8e6"/>
        <path id="Trazado_1328442" data-name="Trazado 1328442" d="M1221.343,738.927h2.028v1.989h-2.028Z" transform="translate(-28.392 -197.651)" fill="#fef8e6"/>
        <path id="Trazado_1328443" data-name="Trazado 1328443" d="M1244.613,738.862h1.968v2.015h-1.968Z" transform="translate(-47.375 -197.598)" fill="#fef8e6"/>
        <path id="Trazado_1328444" data-name="Trazado 1328444" d="M1267.677,741.056v-1.961h1.991v1.961Z" transform="translate(-66.189 -197.788)" fill="#fef8e6"/>
        <path id="Trazado_1328445" data-name="Trazado 1328445" d="M1429.348,673.836a4.161,4.161,0,0,1,4.262-4.217,4.26,4.26,0,0,1,4.255,4.267,4.375,4.375,0,0,1-4.26,4.221A4.27,4.27,0,0,1,1429.348,673.836Zm6.333-.039a2.141,2.141,0,0,0-2.113-2.109,2.287,2.287,0,0,0-2.136,2.132,2.135,2.135,0,0,0,2.2,2.108A2.025,2.025,0,0,0,1435.681,673.8Z" transform="translate(-198.071 -141.114)" fill="#fef8e6"/>
      </g>
    </g>
  </g>
</svg>
