<svg xmlns="http://www.w3.org/2000/svg" width="127" height="127" viewBox="0 0 127 127">
  <g id="Grupo_1207844" data-name="Grupo 1207844" transform="translate(-895.971 -2025)">
    <g id="Grupo_1207190" data-name="Grupo 1207190" transform="translate(394.57 -5073.342)">
      <circle id="Elipse_13775" data-name="Elipse 13775" cx="63.5" cy="63.5" r="63.5" transform="translate(501.4 7098.342)" fill="#fbe49d"/>
      <circle id="Elipse_13776" data-name="Elipse 13776" cx="52" cy="52" r="52" transform="translate(513.4 7110.342)" fill="#3b4b68"/>
    </g>
    <g id="Grupo_1207605" data-name="Grupo 1207605" transform="translate(-31.142 1497.965)">
      <path id="Trazado_1327968" data-name="Trazado 1327968" d="M968.342,579.451c0-.948,0-1.8,0-2.661,0-1.5.228-1.733,1.7-1.779.154,0,.307-.023.51-.038V558.3c-.685,0-1.349.014-2.012,0-.847-.023-1.272-.413-1.251-1.113.02-.664.419-1.032,1.231-1.035q5.967-.017,11.934,0a1.14,1.14,0,0,1,1.281,1.118c-.03.6-.524,1-1.273,1.032-.32.013-.642,0-.962,0h-1.047v16.608a.749.749,0,0,0,.194.083c1.969.161,1.969.161,1.969,2.186,0,.7,0,1.41,0,2.192h24.451c0-.827,0-1.68,0-2.532,0-1.558.222-1.787,1.747-1.83.127,0,.254-.022.459-.039V558.3c-.629,0-1.287.01-1.944,0-.831-.016-1.328-.41-1.351-1.044-.024-.668.5-1.107,1.381-1.109q5.871-.011,11.741,0c.856,0,1.318.384,1.335,1.043.019.7-.461,1.093-1.368,1.109-.607.011-1.215,0-1.9,0v16.653c.136.02.256.048.378.053,1.663.072,1.823.244,1.827,1.949,0,.737.009,1.475.018,2.213a1.3,1.3,0,0,0,.1.28c.975,0,1.992-.008,3.008,0a3.244,3.244,0,0,1,3.493,3.475q0,17.371-.026,34.742c0,1.219.036,2.437.028,3.655a3.27,3.27,0,0,1-3.588,3.573q-22.761.006-45.522,0c-3.946,0-7.894-.083-11.837.026a5.735,5.735,0,0,1-5.818-5.817q.1-17.467,0-34.935A4.594,4.594,0,0,1,962,579.431C964.077,579.531,966.158,579.451,968.342,579.451Zm53.466,41.01c-1.9,0-3.667.011-5.43-.005a1.092,1.092,0,1,1,0-2.151c1.154-.019,2.31-.006,3.465-.007,1.689,0,1.974-.279,1.974-1.935q0-16.409,0-32.819c0-1.659-.276-1.927-1.979-1.927H965.843c-1.679,0-1.957.279-1.957,1.952q0,16.361,0,32.722c0,1.741.264,2.006,2,2.006h45.041a6.991,6.991,0,0,1,1.057.032.918.918,0,0,1,.864,1.071c-.078.384-.516.715-.843,1.016-.109.1-.371.042-.563.042q-23.146,0-46.293,0a3.209,3.209,0,0,1-3.426-3.434q-.012-17.035,0-34.07v-1.292a2.3,2.3,0,0,0-2.279,2.616q0,17.372,0,34.743c0,.16-.005.321.007.481a3.325,3.325,0,0,0,2.583,3.1,6.032,6.032,0,0,0,1.428.137q28.2.01,56.4.005a7.483,7.483,0,0,0,.769-.01,1.2,1.2,0,0,0,1.176-1.173C1021.838,621.181,1021.808,620.8,1021.808,620.461Zm-12.255-45.53h3.285V558.387h-3.285Zm-36.671-16.572v16.587h3.245V558.359Zm5.41,21.056v-2.186h-7.609v2.186Zm36.737-2.179h-7.621v2.158h7.621Z" transform="translate(0)" fill="#f2eceb"/>
      <path id="Trazado_1327969" data-name="Trazado 1327969" d="M1209.983,701.982c0,1.732.01,3.464,0,5.2a2.357,2.357,0,0,1-2.687,2.633q-5.1.008-10.2,0c-1.839,0-2.676-.852-2.678-2.712q-.006-5.1,0-10.2c0-1.852.837-2.677,2.706-2.679q5.1-.006,10.2,0a2.36,2.36,0,0,1,2.659,2.661C1209.992,698.582,1209.983,700.282,1209.983,701.982Zm-2.282-5.405h-11.045v10.914H1207.7Z" transform="translate(-191.522 -111.493)" fill="#f2eceb"/>
      <path id="Trazado_1327970" data-name="Trazado 1327970" d="M1012.516,697.6c0-.728,0-1.361,0-1.995a1.238,1.238,0,0,1,.739-1.236,1.063,1.063,0,0,1,1.289.363q3.25,3.21,6.469,6.451a1.131,1.131,0,0,1-.033,1.777c-2.121,2.141-4.244,4.279-6.412,6.372a1.676,1.676,0,0,1-1.262.391c-.6-.1-.8-.659-.791-1.265s0-1.208,0-1.893c-.409-.019-.749-.049-1.089-.049-1.8-.005-3.592.018-5.387-.011a2.21,2.21,0,0,1-2.384-2.407q-.019-2.02,0-4.04a2.214,2.214,0,0,1,2.434-2.452c1.763-.024,3.527-.006,5.291-.007Zm-6.612,2.269v4.377h6.517c.053-.093.106-.171.144-.255.247-.542.626-.941,1.259-.8a1.211,1.211,0,0,1,.955,1.366c-.007.4,0,.791,0,1.236l3.608-3.58-3.615-3.659c0,.317.015.765,0,1.211-.026.62-.367,1.122-.956,1.133-.384.007-.786-.382-1.158-.628-.115-.076-.156-.263-.232-.4Z" transform="translate(-37.482 -111.536)" fill="#f2eceb"/>
      <path id="Trazado_1327971" data-name="Trazado 1327971" d="M1012.452,795.633c1.982,0,3.839,0,5.7,0,.385,0,.772-.015,1.154.023a2.145,2.145,0,0,1,2.026,2.162c.029,1.443.02,2.888.006,4.331a2.211,2.211,0,0,1-2.4,2.387c-1.764.027-3.529.007-5.294.008h-1.184c0,.687-.009,1.317,0,1.947a1.219,1.219,0,0,1-.685,1.263c-.586.286-1-.023-1.368-.388q-3.18-3.148-6.333-6.322a1.169,1.169,0,0,1,0-1.915q3.151-3.176,6.333-6.322c.368-.364.777-.684,1.365-.4a1.222,1.222,0,0,1,.69,1.261C1012.443,794.277,1012.452,794.882,1012.452,795.633Zm-2.213.676-3.7,3.714,3.65,3.742a6.327,6.327,0,0,1,.1-1.585,1.462,1.462,0,0,1,.821-.907c.329-.077.781.24,1.136.455.157.1.208.366.282.509h6.564V797.9h-6.589c-.234.689-.612,1.219-1.4,1.037-.763-.177-.914-.806-.88-1.506C1010.253,797.092,1010.239,796.75,1010.239,796.309Z" transform="translate(-37.419 -190.695)" fill="#f2eceb"/>
      <path id="Trazado_1327972" data-name="Trazado 1327972" d="M1193.153,809.59c.993,0,1.986-.016,2.979,0,1.21.025,1.652.594,1.285,1.729-1.035,3.193-2.079,6.384-3.19,9.551a1.657,1.657,0,0,1-1.078.907c-.644.119-.992-.438-1.188-1.028q-1.315-3.96-2.638-7.917c-.192-.576-.416-1.146-.556-1.735a1.089,1.089,0,0,1,1.12-1.5c1.087-.044,2.177-.01,3.266-.01Zm-.122,7.3.189.012,1.679-5.018h-3.542Z" transform="translate(-186.92 -204.651)" fill="#f2eceb"/>
      <path id="Trazado_1327973" data-name="Trazado 1327973" d="M1239.393,821.973c-.993,0-1.986.015-2.979,0-1.161-.022-1.63-.654-1.274-1.74,1.036-3.16,2.092-6.313,3.135-9.471.185-.56.487-.989,1.13-1s.966.411,1.153.969c1.056,3.153,2.127,6.3,3.16,9.461.382,1.168-.1,1.77-1.347,1.786C1241.379,821.984,1240.386,821.973,1239.393,821.973Zm-1.729-2.328h3.526l-1.663-4.967-.2.012Z" transform="translate(-224.315 -204.788)" fill="#f2eceb"/>
      <path id="Trazado_1327974" data-name="Trazado 1327974" d="M1114.746,719.546c-1.888,0-3.776.026-5.663-.021a1.935,1.935,0,0,1-1.192-.45,1.039,1.039,0,0,1,.484-1.7,2.883,2.883,0,0,1,.941-.105q5.52-.01,11.039,0c.16,0,.321-.008.48.005a1.18,1.18,0,0,1,1.219,1.107,1.156,1.156,0,0,1-1.261,1.157c-1.823.027-3.647.01-5.471.011Z" transform="translate(-121.428 -130.103)" fill="#f2eceb"/>
      <path id="Trazado_1327975" data-name="Trazado 1327975" d="M1114.909,742.609c-1.888,0-3.776.013-5.664-.011a2.242,2.242,0,0,1-1.091-.248,1.05,1.05,0,0,1,.159-1.859,2.608,2.608,0,0,1,1.025-.156c3.68-.01,7.359-.006,11.039-.006.128,0,.256-.005.384,0,.843.044,1.368.51,1.338,1.185a1.187,1.187,0,0,1-1.335,1.087C1118.813,742.622,1116.861,742.609,1114.909,742.609Z" transform="translate(-121.473 -148.727)" fill="#f2eceb"/>
      <path id="Trazado_1327976" data-name="Trazado 1327976" d="M1115.074,815.255c1.824,0,3.648,0,5.472,0,.284,0,.659-.051.833.1a1.925,1.925,0,0,1,.742,1.077c.017.322-.408.727-.727.984-.187.151-.55.11-.833.11q-5.615.009-11.231,0c-.128,0-.257.007-.384-.005a1.144,1.144,0,0,1-1.187-1.128,1.114,1.114,0,0,1,1.172-1.135c.766-.039,1.536-.012,2.3-.012Z" transform="translate(-121.551 -209.223)" fill="#f2eceb"/>
      <path id="Trazado_1327977" data-name="Trazado 1327977" d="M1115.072,838.284q2.688,0,5.375,0c.287,0,.652-.073.842.071a2.2,2.2,0,0,1,.851,1.018c.144.556-.282.955-.817,1.126a2.548,2.548,0,0,1-.76.06q-5.615.005-11.231,0c-.128,0-.257.007-.384,0a1.146,1.146,0,0,1-1.189-1.125,1.109,1.109,0,0,1,1.169-1.137c.8-.04,1.6-.012,2.4-.013Z" transform="translate(-121.551 -227.813)" fill="#f2eceb"/>
      <path id="Trazado_1327978" data-name="Trazado 1327978" d="M1254.239,788.321a3.916,3.916,0,0,1-.037.664,1.09,1.09,0,0,1-1.045.951,1.059,1.059,0,0,1-1.133-.95,4.939,4.939,0,0,1-.03-1.234,1.114,1.114,0,1,1,2.228,0c.018.189,0,.381,0,.572Z" transform="translate(-238 -186.097)" fill="#f2eceb"/>
      <path id="Trazado_1327979" data-name="Trazado 1327979" d="M1208.068,788.56c-.036.27.025.636-.131.816-.286.332-.685.741-1.062.768a1.252,1.252,0,0,1-.969-.713,3.116,3.116,0,0,1-.024-1.76,1.351,1.351,0,0,1,1.036-.753c.356.006.757.453,1.033.793C1208.1,787.9,1208.034,788.26,1208.068,788.56Z" transform="translate(-200.69 -186.349)" fill="#f2eceb"/>
      <path id="Trazado_1327980" data-name="Trazado 1327980" d="M1225.4,718.381c0,.38.014.7,0,1.016a1.1,1.1,0,1,1-2.191-.027c-.035-1.25-.015-2.5-.016-3.752,0-.9-.021-1.8.011-2.694.031-.87.381-1.247,1.249-1.253a6.643,6.643,0,0,1,2.084.214,3.194,3.194,0,0,1,2.187,3.359,3.242,3.242,0,0,1-2.562,2.984C1225.939,718.284,1225.717,718.317,1225.4,718.381Zm.043-2.31c.751-.1,1.09-.522,1.078-1.1a1.04,1.04,0,0,0-1.078-1.043Z" transform="translate(-214.751 -125.586)" fill="#f2eceb"/>
    </g>
  </g>
</svg>
