<svg xmlns="http://www.w3.org/2000/svg" width="127" height="127" viewBox="0 0 127 127">
  <g id="Grupo_1207848" data-name="Grupo 1207848" transform="translate(-1204.971 -825.5)">
    <g id="Grupo_1207754" data-name="Grupo 1207754">
      <g id="Grupo_1207190" data-name="Grupo 1207190" transform="translate(703.57 -6272.842)">
        <circle id="Elipse_13775" data-name="Elipse 13775" cx="63.5" cy="63.5" r="63.5" transform="translate(501.4 7098.342)" fill="#fbe49d"/>
        <circle id="Elipse_13776" data-name="Elipse 13776" cx="52" cy="52" r="52" transform="translate(513.4 7110.342)" fill="#3b4b68"/>
      </g>
      <g id="Grupo_1207753" data-name="Grupo 1207753" transform="translate(15.916 368.615)">
        <path id="Trazado_1328446" data-name="Trazado 1328446" d="M1250.449,536.722a20.443,20.443,0,0,0,3.049-2.9c1.409-2.067,2.572-4.3,3.846-6.483,0,0-.045-.086-.087-.086-1.874,0-1.951-.942-1.234-2.308,1.685-3.209,3.252-6.479,4.919-9.7a1.788,1.788,0,0,1,1.128-.921c.329-.032.852.474,1.058.863,1.147,2.171,2.224,4.379,3.374,6.673.62-.571,1.193-1.1,1.773-1.631a3.073,3.073,0,0,1,4.559,0c2.366,2.173,4.719,4.359,7.1,6.563.921-.85,1.793-1.67,2.682-2.472a2.61,2.61,0,0,1,3.883-.009c1.195,1.077,2.364,2.184,3.548,3.273.2.183.417.344.756.622v-2.971c0-3.724-.013-7.449.013-11.173,0-.613-.175-.843-.79-1.007-6.135-1.632-12.3-3.093-18.695-3.136a55.74,55.74,0,0,0-14.059,1.62c-.731.184-1.4.12-1.611-.682-.228-.852.412-1.154,1.114-1.323a56.034,56.034,0,0,1,23.1-.867c3.964.707,7.861,1.787,11.793,2.677a1.369,1.369,0,0,1,1.212,1.524c-.016,7.133.175,14.273-.059,21.4-.438,13.32-6.336,23.713-17.4,31.158-1.361.916-2.708,1.855-4.115,2.694a1.582,1.582,0,0,1-1.368.084c-4.121-2.682-8.309-5.276-11.654-8.981-5.914-6.551-9.475-14.175-9.849-23-.331-7.814-.152-15.649-.2-23.475a1.236,1.236,0,0,1,1.051-1.356c.859-.2,1.712-.425,2.569-.633.7-.17,1.227.065,1.368.779.131.663-.264,1.027-.9,1.213-2.021.588-2.017.6-2.017,2.688q0,9.042.007,18.085C1250.309,534.5,1250.391,535.472,1250.449,536.722Zm.429,3.18a35.932,35.932,0,0,0,6.254,14.709c3.439,4.836,8.11,8.239,13.06,11.319a1.068,1.068,0,0,0,.9-.1c.969-.59,1.889-1.257,2.845-1.869a35.5,35.5,0,0,0,14.331-17.224c.862-2.2,1.421-4.518,2.128-6.815A172.534,172.534,0,0,0,1250.878,539.9Zm39.6-3.354.328-.084c0-1.688.009-3.376-.012-5.064a.888.888,0,0,0-.273-.564c-1.8-1.682-3.591-3.362-5.427-5a1,1,0,0,0-.954-.074c-.916.748-1.761,1.584-2.7,2.451.343.307.6.535.856.768a1.029,1.029,0,0,1,.168,1.581.988.988,0,0,1-1.512-.038c-.189-.167-.374-.339-.559-.51q-4.41-4.079-8.821-8.157c-.832-.767-1.189-.764-2.015-.014-.7.632-1.379,1.279-2.076,1.927.2.424.374.793.558,1.155.843,1.66.619,2.1-1.192,2.323-.043.005-.076.087-.142.167.139.229.279.473.43.709.952,1.486,1.914,2.966,2.858,4.458.711,1.124.3,1.876-1.046,1.909-.63.016-1.262,0-1.893,0h-2.164v2l23.487.923c-1.1-1.017-2.154-2-3.209-2.977-1.034-.963-1.209-1.474-.7-2.02.523-.563,1.077-.431,2.083.5Zm-28.427-18.986-3.769,7.545c.4.031.586.049.773.059,1.428.075,1.766.739.992,1.97-.336.534-.685,1.06-1.024,1.591-.756,1.183-1.51,2.367-2.308,3.618h10.672c-.261-.425-.451-.746-.652-1.059-.939-1.459-1.9-2.9-2.814-4.377-.566-.918-.19-1.638.844-1.735.324-.031.651-.042,1.068-.069Zm-9.267,19.807.084.242,6.256-.481v-2.636c-.922,0-1.773-.02-2.622.011a1.485,1.485,0,0,0-.868.245C1254.656,535.6,1253.725,536.491,1252.779,537.369Zm10.061-2.8h-1.511v2.363c1.513.122,1.513.122,1.511-1.308C1262.84,535.285,1262.84,534.949,1262.84,534.565Z" transform="translate(-18 -18.177)" fill="#fef8e6"/>
        <path id="Trazado_1328447" data-name="Trazado 1328447" d="M1228.109,492.048c0,.016-.023.265-.023.514,0,7.8-.03,15.6.012,23.394a38.966,38.966,0,0,0,7.058,22.2c.142.208.28.421.432.621a.97.97,0,0,1-.164,1.557c-.6.4-1.12.166-1.533-.411a41.7,41.7,0,0,1-7.872-25.014c.043-7.766.011-15.533.012-23.3,0-1.363.063-1.47,1.409-1.791,4.9-1.168,9.775-2.515,14.725-3.43a58.794,58.794,0,0,1,23.965.6c3.809.869,7.594,1.844,11.386,2.784,1.52.377,1.555.442,1.555,1.971,0,7.735.045,15.47-.009,23.2-.107,15.246-6.57,27.123-19.117,35.721-2.134,1.462-4.307,2.866-6.456,4.305a1.315,1.315,0,0,1-1.65.138c-3.669-2.565-7.379-5.073-11-7.709a34.891,34.891,0,0,1-3.444-3.238.973.973,0,0,1-.119-1.5c.511-.53,1.061-.4,1.582.076a64.851,64.851,0,0,0,4.856,4.353c2.831,2.108,5.809,4.017,8.8,6.058,2.109-1.4,4.2-2.806,6.295-4.189a39.693,39.693,0,0,0,15.416-18.791,36.426,36.426,0,0,0,2.758-13.262c.071-8.208.03-16.416.033-24.624,0-.155-.024-.31-.016-.221A69.374,69.374,0,0,0,1228.109,492.048Z" fill="#fef8e6"/>
        <path id="Trazado_1328448" data-name="Trazado 1328448" d="M1398.531,550a4.215,4.215,0,0,1-4.289-4.122,4.285,4.285,0,0,1,4.188-4.25,4.24,4.24,0,0,1,4.272,4.149A4.178,4.178,0,0,1,1398.531,550Zm-.057-2.04a2.134,2.134,0,0,0,.059-4.267,2.135,2.135,0,1,0-.059,4.267Z" transform="translate(-136.362 -45.554)" fill="#fef8e6"/>
        <path id="Trazado_1328449" data-name="Trazado 1328449" d="M1330.353,686.311a5.828,5.828,0,0,1,1.008.923,29.125,29.125,0,0,1,1.618,2.773,1.166,1.166,0,0,0,1.268.711c1.07-.043,2.144-.025,3.216,0,1.1.025,1.538.733,1.023,1.707-.529,1-1.162,1.951-1.66,2.967a1.507,1.507,0,0,0,0,1.167c.482.989,1.094,1.912,1.62,2.881.579,1.068.156,1.782-1.064,1.811-1.1.026-2.211-.032-3.308.05a1.528,1.528,0,0,0-1.012.6c-.616.911-1.112,1.9-1.692,2.839-.618,1-1.423,1-2.041,0-.58-.937-1.075-1.929-1.692-2.84a1.525,1.525,0,0,0-1.014-.6c-1.129-.081-2.269-.017-3.4-.053-1.109-.036-1.526-.741-1.007-1.721.53-1,1.161-1.951,1.658-2.968a1.508,1.508,0,0,0,0-1.167c-.483-.988-1.1-1.912-1.62-2.881-.58-1.073-.151-1.775,1.075-1.8a17.859,17.859,0,0,1,2.551.012,1.894,1.894,0,0,0,2.181-1.283,17.328,17.328,0,0,1,1.328-2.285A5.3,5.3,0,0,1,1330.353,686.311Zm-.009,16.08c.465-.785.906-1.43,1.244-2.126a1.667,1.667,0,0,1,1.81-1.04c.794.059,1.6.013,2.547.013-.508-.89-.884-1.614-1.322-2.3a1.628,1.628,0,0,1,.012-1.935c.433-.679.8-1.4,1.277-2.242-1.011,0-1.856-.016-2.7,0a1.546,1.546,0,0,1-1.526-.9c-.4-.74-.842-1.452-1.338-2.3a23.4,23.4,0,0,0-1.2,2.049,1.852,1.852,0,0,1-2.046,1.157c-.727-.051-1.461-.01-2.336-.01.453.8.746,1.43,1.143,1.989a1.894,1.894,0,0,1,.02,2.433c-.422.6-.735,1.28-1.169,2.053.929,0,1.684.05,2.428-.013a1.754,1.754,0,0,1,1.957,1.117C1329.458,701.015,1329.894,701.63,1330.344,702.391Z" transform="translate(-77.793 -162.838)" fill="#fef8e6"/>
      </g>
    </g>
  </g>
</svg>
