<svg xmlns="http://www.w3.org/2000/svg" width="127" height="127" viewBox="0 0 127 127">
  <g id="Grupo_1207845" data-name="Grupo 1207845" transform="translate(-581.971 -2742.499)">
    <g id="Grupo_1207740" data-name="Grupo 1207740">
      <g id="Grupo_1207190" data-name="Grupo 1207190" transform="translate(80.57 -4355.843)">
        <circle id="Elipse_13775" data-name="Elipse 13775" cx="63.5" cy="63.5" r="63.5" transform="translate(501.4 7098.342)" fill="#fbe49d"/>
        <circle id="Elipse_13776" data-name="Elipse 13776" cx="52" cy="52" r="52" transform="translate(513.4 7110.342)" fill="#3b4b68"/>
      </g>
      <g id="Grupo_1207735" data-name="Grupo 1207735" transform="translate(-601.826 2250.291)">
        <path id="Trazado_1328368" data-name="Trazado 1328368" d="M1262.677,526.128c.812-1.626,1.561-3.2,2.378-4.734.609-1.143,1.451-1.16,2.053-.04a44.062,44.062,0,0,1,4.429,10.953,3.221,3.221,0,0,0,.756,1.339,32.851,32.851,0,0,1,8.842,23.4c-.278,10.826-4.914,19.468-13.135,25.979a35.17,35.17,0,0,1-27.925,7.432c-11.69-1.724-20.887-7.721-26.707-18.553a33.182,33.182,0,0,1,5.57-38.841,35.636,35.636,0,0,1,21.008-10.774,36.382,36.382,0,0,1,22.241,3.651C1262.318,526.005,1262.461,526.045,1262.677,526.128Zm-27.371,61.165a1.973,1.973,0,0,0,.374.194,35.472,35.472,0,0,0,17.182.534,1.847,1.847,0,0,0,1.461-1.32,49.536,49.536,0,0,0,2.848-25.206,61.924,61.924,0,0,0-7.764-22.268c-1.688-2.989-3.19-6.088-3.231-9.633a45.5,45.5,0,0,1,.584-5.565c-1.166,0-2.565.1-3.944-.024-2.229-.208-3.1,1.3-3.866,3.023a7.233,7.233,0,0,0-.288.866c-1.055,3.554-.385,6.962.863,10.3a56.11,56.11,0,0,1,3.552,16.375,57.337,57.337,0,0,1-4.705,26.347C1237.448,583.067,1236.349,585.137,1235.306,587.293Zm2.416-62.389a1.565,1.565,0,0,0-.381-.049,7.379,7.379,0,0,0-.757.162,32.735,32.735,0,0,0-16.616,9.927c-8.635,9.8-10.96,21.019-6.045,33.4,3.495,8.8,10.059,14.513,18.483,18.035.668.279.959.077,1.3-.517a56.283,56.283,0,0,0,5.8-14.441,52.673,52.673,0,0,0-1.23-30.675C1236.433,535.5,1235,530.312,1237.722,524.9Zm18.668,62.09c.335-.1.5-.133.668-.191a33.218,33.218,0,0,0,13.037-8.355,31.2,31.2,0,0,0,9.056-23.206c-.06-2.271-.053-2.267-2.137-3.1a22.74,22.74,0,0,0-12.482-1.276,23.034,23.034,0,0,0-7.046,2.327A54.708,54.708,0,0,1,1256.39,586.994Zm8.745-38.551c0-1.032-.04-2.14.014-3.243a1.417,1.417,0,0,0-.85-1.489,6.562,6.562,0,0,1-1.982-1.931,11.76,11.76,0,0,1-1.812-7.636,2.452,2.452,0,0,0-1.188-2.426c-.236.335-.416.622-.626.883a1.592,1.592,0,0,1-2.657.03c-1.668-2.015-1.668-2.015-2.829.447-.365.774-.939,1.466-1.768,1.27a3.385,3.385,0,0,1-1.809-1.248,7.127,7.127,0,0,1-.681-2.139l-.279-.071c-.062.387-.266.824-.16,1.152a33.262,33.262,0,0,0,1.511,4.047c1.666,3.487,3.461,6.906,5.117,10.4.7,1.484,1.186,3.082,1.705,4.46Zm13.5,2.171a31.546,31.546,0,0,0-6.9-14.522c-.058.415-.083.6-.108.779s-.042.381-.082.567c-.582,2.709-1.424,5.241-4.091,6.557a.714.714,0,0,0-.363.487c-.03,1.316-.017,2.634-.017,4.035A25,25,0,0,1,1278.632,550.614ZM1266.2,523.922l-.342-.057c-.934,2.36-1.938,4.694-2.782,7.089a11.584,11.584,0,0,0-.148,7.428,6.391,6.391,0,0,0,2.207,3.5c0-1.413-.071-2.558.021-3.689a2.717,2.717,0,0,0-1.048-2.46,4.8,4.8,0,0,1-.771-1.585l1.853-.882c.185-.105.645-.585,1.1-.577.759.012.783.759.781,1.394,0,.892,0,1.784,0,2.355.766.192,1.522.16,1.775.515.21.294-.086,1.089-.319,1.58-.256.537-.759.945-1.039,1.474a9.4,9.4,0,0,0-.519,1.578l.4.208a13.838,13.838,0,0,0,1.3-1.866,10.863,10.863,0,0,0,.988-6.793A34.436,34.436,0,0,0,1266.2,523.922Zm-4.267,4.181a33.388,33.388,0,0,0-11.844-3.808,1.128,1.128,0,0,0-.907.347,7.082,7.082,0,0,0-1.145,4.161c3-.94,2.77,1.591,3.334,3.433.7-1.432,1.155-2.872,2.66-3.264,1.609-.419,2.452.818,3.2,1.753.663-.485,1.212-1.185,1.83-1.258.655-.077,1.375.441,2.128.722.016-.038.09-.2.15-.373C1261.529,529.279,1261.713,528.74,1261.933,528.1Z" fill="#fef8e6"/>
        <path id="Trazado_1328369" data-name="Trazado 1328369" d="M1248.846,593.911c-1.037-.938-1.072-1.216-.325-2.326.506-.751,1.022-1.5,1.521-2.252.375-.567.98-1.065.255-1.871-.157-.174.073-.871.285-1.224.582-.97,1.25-1.885,1.922-2.878-.8-.623-.676-1.349-.249-2.117,1.435-2.58,2.842-5.178,4.305-7.741.507-.888,1.345-.932,1.847-.053q2.337,4.087,4.507,8.276c.209.4-.05,1.07-.092,1.614l-.313.021c.568.84,1.121,1.691,1.709,2.515.56.785,1.058,1.546-.022,2.309.8,1.194,1.54,2.289,2.275,3.387.781,1.167.759,1.369-.308,2.334.49.776.993,1.562,1.484,2.355.792,1.276.6,1.79-.967,2.229.631.921,1.274,1.776,1.816,2.7a1.784,1.784,0,0,1,.281,1.329,1.449,1.449,0,0,1-1.163.605,46.521,46.521,0,0,1-4.838-.343c-.731-.094-1.014.083-1.288.785-1.553,3.977-1.065,7.863.385,11.718.123.328.461.562.641.875.193.335.515.788.421,1.052a1.313,1.313,0,0,1-.924.773q-5.139.083-10.28,0c-.328-.006-.767-.439-.929-.787-.1-.216.188-.667.365-.973a8.344,8.344,0,0,0,.832-1.26,17.822,17.822,0,0,0,.234-11.465,5.368,5.368,0,0,0-.247-.637.806.806,0,0,0-.155-.2c-1.475.186-2.889.423-4.313.507a1.636,1.636,0,0,1-1.27-.62c-.174-.268.016-.934.233-1.3.53-.909,1.169-1.751,1.708-2.537-.44-.409-1.1-.734-1.166-1.158a3.139,3.139,0,0,1,.586-1.629C1247.964,595.248,1248.4,594.627,1248.846,593.911Zm.944,2.3c1.859.675,1.952,1.013.791,2.648-.453.638-.9,1.279-1.473,2.093a14.96,14.96,0,0,0,6.95-2.663c1.051-.743,1.268-.682,1.966.463a1.3,1.3,0,0,0,.456.462,17.974,17.974,0,0,0,7.547,1.915l-1.6-2.272c-1.148-1.63-1.04-2,.812-2.633-.471-.747-.886-1.519-1.406-2.2a1.374,1.374,0,0,1,.377-2.183c-.753-1.145-1.493-2.2-2.145-3.3-.2-.344-.373-1.043-.2-1.23.618-.677.162-1.082-.179-1.563s-.68-1-1.044-1.48c-1.062-1.4-1.067-1.4.064-2.778l-3.2-5.7-3.262,5.864c1.146.932,1.173,1.228.374,2.3-.652.873-1.272,1.773-1.975,2.756.989.678.662,1.4.138,2.149-.685.985-1.331,2-2.042,3.075,1.14.573.973,1.325.379,2.177C1250.65,594.773,1250.238,595.495,1249.79,596.211Zm4.718,5.481-.428-.034a4.073,4.073,0,0,0,.015,1.146,18.374,18.374,0,0,1,.786,8.571c-.257,1.53-.633,3.038-.959,4.579h5.915a1.774,1.774,0,0,0-.021-.4c-1.441-4.308-1.849-8.618-.085-12.953.066-.163-.107-.43-.169-.649-.193.105-.493.162-.561.324-.369.871-.611,1.807-1.039,2.642a1.922,1.922,0,0,1-1.137,1c-.292.044-.806-.549-1.005-.967C1255.316,603.9,1254.937,602.781,1254.508,601.691Z" transform="translate(-28.609 -40.284)" fill="#fef8e6"/>
        <path id="Trazado_1328370" data-name="Trazado 1328370" d="M1458.764,670.87a19.842,19.842,0,0,1-4.431,11.726c-2.056,2.553-5.234,3.534-7.61,2.6a4.77,4.77,0,0,1-2.964-5.09,5.876,5.876,0,0,1,.656-2.405c1.455-2.184,1.072-4.509.755-6.861-.087-.642-.172-1.288-.2-1.934-.133-3.028,1.093-4.929,3.935-5.655C1454.082,661.926,1458.946,664.889,1458.764,670.87Zm-1.983.665c.027-5.323-4.266-8.065-8.267-5.962a2.543,2.543,0,0,0-1.531,2.553c.094,1.406.206,2.813.38,4.21a8.286,8.286,0,0,1-.772,5.425,7.358,7.358,0,0,0-.819,2.463,2.626,2.626,0,0,0,2.583,3.229,5.267,5.267,0,0,0,4.442-2.153A17.928,17.928,0,0,0,1456.781,671.535Z" transform="translate(-182.441 -109.717)" fill="#fef8e6"/>
      </g>
    </g>
  </g>
</svg>
