<svg xmlns="http://www.w3.org/2000/svg" xmlns:xlink="http://www.w3.org/1999/xlink" width="135.059" height="129" viewBox="0 0 135.059 129">
  <defs>
    <clipPath id="clip-path">
      <rect id="Rectángulo_400938" data-name="Rectángulo 400938" width="120" height="120" fill="none"/>
    </clipPath>
  </defs>
  <g id="Grupo_1207844" data-name="Grupo 1207844" transform="translate(-489 -2032)">
    <g id="Grupo_108927" data-name="Grupo 108927" transform="translate(105 -2435)">
      <rect id="Rectángulo_36179" data-name="Rectángulo 36179" width="129" height="127" transform="translate(390.059 4467)" fill="#f9f7f0"/>
    </g>
    <g id="Grupo_1207582" data-name="Grupo 1207582" transform="translate(-49.453 1615.582)">
      <path id="Trazado_1327838" data-name="Trazado 1327838" d="M634.022,465.411c-2.029,1.819-3.569,3.874-3.81,6.57-.318,3.561.418,6.917,2.968,9.544,3.607,3.716,4.525,9.285,1.784,12.847a21.47,21.47,0,0,1-2.882,2.666l5.057,5.806a29.391,29.391,0,0,0-11.384,17.4c.658.03,1.188.072,1.718.074,2.938.007,5.876-.011,8.814.009a3.286,3.286,0,0,1,3.57,3.559c.014.7.005,1.4,0,2.1-.012,2.725-1.2,3.934-3.9,3.934q-24.345.005-48.69,0c-1.865,0-3.731.021-5.6-.008a3.229,3.229,0,0,1-3.373-3.326c-.037-.978-.038-1.96,0-2.938a3.2,3.2,0,0,1,3.379-3.318c3.4-.035,6.809-.022,10.213-.033a2.671,2.671,0,0,0,.472-.139,29.282,29.282,0,0,0-11.517-17.425c4.386-5.11,9.47-9,16.075-10.558,4.3-1.018,3.838-.111,4.115-4.957.177-3.105-.814-4.825-3.487-6.5-8.551-5.371-12.634-13.424-12.771-23.466a85.956,85.956,0,0,1,.238-11.871,13.966,13.966,0,0,1,18.829-11.353,3.008,3.008,0,0,0,3.054-.373c5.176-3.446,10.795-4.827,16.867-2.823a14.12,14.12,0,0,1,9.038,16.908,10.435,10.435,0,0,1-1.782,3.439,4.192,4.192,0,0,0-.968,3.062c.094,1.533,0,3.081.153,4.606A10.091,10.091,0,0,0,634.022,465.411Zm-38.179,54.841c.266.029.448.067.63.067,8.3,0,16.594-.014,24.891.03.972.005,1.125-.475,1.3-1.215a32.417,32.417,0,0,1,9.072-15.919c.258-.25.483-.535.96-1.07-2.173-1.556-4.149-3.2-6.337-4.473-2.244-1.308-4.413-2.57-5.355-5.068-6.543,3.746-11.762,1.271-16.623-3.133-.607,3.841-1.643,4.863-5.515,5.6a23.117,23.117,0,0,0-3.1.8,23.712,23.712,0,0,0-10.056,6.485C593.106,511.545,593.106,511.545,595.843,520.252Zm24.618-70.988c-.03-.533-.068-.943-.073-1.354-.013-1.1-.515-1.8-1.65-1.838-1-.036-1.617.85-1.527,2.073a4.793,4.793,0,0,0,4.39,4.331,7.991,7.991,0,0,0,8.456-7.506,11.377,11.377,0,0,0-12.7-11.787,18.855,18.855,0,0,0-10.164,4.224,2.377,2.377,0,0,1-2.413.375,26.527,26.527,0,0,0-6.644-1.266c-6.362.116-11.388,6.785-9.772,12.973,3.136-.493,6.309-.941,9.462-1.509,1.7-.307,3.2-.711,3.989-2.787.825-2.181,3.677-2.885,5.9-1.989,2.24.905,3.384,3.307,2.844,6.025H607.4c0-.614.039-1.163-.008-1.7a1.443,1.443,0,0,0-1.573-1.441,1.393,1.393,0,0,0-1.514,1.484,5.506,5.506,0,0,0,.415,2.16c1.2,2.561,3.992,3.421,7.223,2.314,2.349-.8,2.435-.946,2.055-3.347a4.879,4.879,0,1,1,9.409.572Zm-6.621,28.327c1.671-6.309,5.2-10.167,9.481-10.326l.618,2.884c-4.486,1.649-6.88,4.626-6.588,8.2h10.334c-1.357-4.623-1.111-8.986,1.9-12.976-2.607-3.084-2.83-6.782-2.667-10.669-3.988,1.506-7.5,1.528-10.6-1.271a12.933,12.933,0,0,1-8.139,2.284,1.335,1.335,0,0,0-1,.472,14.633,14.633,0,0,0-2.837,10.395C604.9,471.583,609.178,476.613,613.841,477.591Zm22.618,45.967H581.7v3.153h54.756Zm-48.264-64.185c-.115,7.4,6.645,17.856,12.767,19.508a16.354,16.354,0,0,1,.019-2.243c.169-1.2-.271-1.745-1.435-2.2a7.817,7.817,0,0,1-5.009-7.806,8,8,0,0,1,5.774-7.286c2.049-.655,2.171-.79,2.618-2.635Zm16.094,15.98c0,1.72-.061,3.564.011,5.4a11.344,11.344,0,0,0,11.206,10.517,4.873,4.873,0,0,0,.625-9.706,1.823,1.823,0,0,0-2.2,1.434c-.116.957.669,1.734,1.854,1.826.444.035.889.053,1.313.078v2.987c-2.139.285-4.017.007-5.367-1.749a4.894,4.894,0,0,1-.382-5.477Zm19.328,9.572c4.733-.3,7.176,2.139,6.264,6.28H626.9c0-.49.024-.908,0-1.322-.083-1.191-.854-1.982-1.8-1.874a1.8,1.8,0,0,0-1.433,2.2,4.875,4.875,0,0,0,4.1,4.182,4.813,4.813,0,0,0,5.248-3.051,6.339,6.339,0,0,0-.657-5.5c-1.863-3.446-5.249-4.821-10.142-4.2Zm-22.083-34.282-13.356,2.166v2.9a42.879,42.879,0,0,0,14.659-2.818Zm-.626,12.041a4.472,4.472,0,0,0-3.075,5.147,4.58,4.58,0,0,0,4.475,3.9c-.361-1.469-.825-2.921-1.053-4.409C601.02,465.789,601.014,464.224,600.908,462.684Z" transform="translate(0 0)"/>
      <path id="Trazado_1327839" data-name="Trazado 1327839" d="M657.957,683.869h3.215c0,2.067-.011,4.058,0,6.049.017,2.332,1.2,3.527,3.529,3.556,1.911.023,3.823.02,5.735.036.082,0,.163.077.313.152v3.083c-3.848-.337-7.9,1.148-11.239-2.2-3.2,3.391-7.31,1.79-11.206,2.273v-3.344c1.977,0,3.924.01,5.871,0,2.5-.016,3.654-1.181,3.668-3.7.01-1.819.008-3.637.015-5.456A3.232,3.232,0,0,1,657.957,683.869Z" transform="translate(-50.433 -182.886)"/>
      <path id="Trazado_1327840" data-name="Trazado 1327840" d="M723.881,534.163v3h-6.293v-3Z" transform="translate(-100.323 -75.079)"/>
    </g>
  </g>
</svg>
