<svg xmlns="http://www.w3.org/2000/svg" width="127" height="127" viewBox="0 0 127 127">
  <g id="Grupo_1207846" data-name="Grupo 1207846" transform="translate(-895.971 -2742.499)">
    <g id="Grupo_1207739" data-name="Grupo 1207739">
      <g id="Grupo_1207190" data-name="Grupo 1207190" transform="translate(394.57 -4355.843)">
        <circle id="Elipse_13775" data-name="Elipse 13775" cx="63.5" cy="63.5" r="63.5" transform="translate(501.4 7098.342)" fill="#fbe49d"/>
        <circle id="Elipse_13776" data-name="Elipse 13776" cx="52" cy="52" r="52" transform="translate(513.4 7110.342)" fill="#3b4b68"/>
      </g>
      <g id="Grupo_1207736" data-name="Grupo 1207736" transform="translate(-254.477 2284.445)">
        <path id="Trazado_1328371" data-name="Trazado 1328371" d="M1244.01,527.185a10.191,10.191,0,0,1-5.72,10.109c1.437,1.422,1.281,3.221,1.266,4.994-.017,1.99.01,3.981-.009,5.97a7.68,7.68,0,0,1-7.614,7.716q-24.814.052-49.629.015c-.18,0-.36-.022-.685-.042.368-1.707-.583-2.891-1.387-4.2a5.256,5.256,0,0,1,.263-6.046,7.73,7.73,0,0,0,1.088-2.025,2.852,2.852,0,0,0-.645-2.706,6.845,6.845,0,0,1-1.519-4.756c.052-5.472.032-10.946.015-16.418a14.464,14.464,0,0,1,5.541-11.8,2.369,2.369,0,0,0,.652-.969c3.28-8.655,9.174-14.784,17.851-18.014a29.959,29.959,0,0,1,35.441,11.419,36.594,36.594,0,0,1,2.109,3.724,1.116,1.116,0,0,0,1.216.729c.9-.055,1.8-.028,2.7-.011a3.381,3.381,0,0,1,3.532,3.521,52.683,52.683,0,0,1-.675,11.24,1.533,1.533,0,0,0,.123.886c1.439,3.154-.181,6.1-3.629,6.569A2.493,2.493,0,0,0,1244.01,527.185Zm-31.833,4.929c-1.444-2.72-1.556-3.185-1.556-6.374,0-2.145.016-4.29,0-6.435a12.248,12.248,0,0,0-12.262-12.185c-1.523-.008-3.047-.014-4.57,0a12.233,12.233,0,0,0-12.111,12.142c-.03,5.876-.035,11.752.026,17.627a6.345,6.345,0,0,0,.744,2.325c.31.7.863,1.3,1.127,2.019a5.355,5.355,0,0,1-.888,5.268c-1.427,1.957-1.393,2.94-.046,4.89.487.7.85,1.495,1.31,2.318h7.962c-.185-.207-.273-.321-.376-.419a8.519,8.519,0,0,1-2.8-4.736,38.184,38.184,0,0,1-.344-5.556c-.03-1.987-.4-4.068,1.235-5.712a10.231,10.231,0,0,1-5.722-10.015c.08-2.235,0-4.476.018-6.715a6.432,6.432,0,0,1,3.562-5.906c.426-.238.86-.46,1.207-.646l-.358-2.4h2.15c.816,3.4,2.128,4.419,5.649,4.419q3.078,0,6.156,0c3.863,0,6.139,2.217,6.08,6.055-.049,3.142.37,6.307-.484,9.505a18.162,18.162,0,0,1,2.149.018A19.738,19.738,0,0,1,1212.178,532.113Zm-22.165-16.166c-2.414.847-4.042,2.229-3.91,5.457.092,2.265-.006,4.537.026,6.805a7.79,7.79,0,0,0,7.848,7.792q2.144.015,4.289,0a7.762,7.762,0,0,0,7.875-7.844c.02-2.113.014-4.226,0-6.34a3.308,3.308,0,0,0-3.6-3.587c-2.051-.018-4.1-.065-6.152.011C1193.917,518.335,1191.684,517.878,1190.013,515.948Zm51.905,8.072-.114-.006c0-1.462.008-2.923,0-4.385a3.313,3.313,0,0,0-3.6-3.6c-2.3-.011-4.6-.018-6.9,0a7.238,7.238,0,0,1-5.359-1.976.815.815,0,0,0-.62-.223,4.679,4.679,0,0,0-3.524,4.321c-.035,3.482-.061,6.967.013,10.448a7.7,7.7,0,0,0,7.463,7.392q2.517.064,5.037,0a7.544,7.544,0,0,0,7.208-5.947A48.486,48.486,0,0,0,1241.918,524.02Zm-17.561-12.211-.406-2.4h2.243c.426,2.945,2.082,4.384,4.99,4.389,1.772,0,3.545,0,5.317,0,1.788,0,3.617-.217,5.208,1.069a3.216,3.216,0,0,0-3.215-3.308c-1.1-.026-2.207,0-3.312,0v-2.214c.473,0,.878.03,1.276,0,5.125-.45,8.034,2.038,7.554,7.508-.039.447-.005.9-.005,1.319l1.724.3a6.685,6.685,0,0,0,.131-.779c.137-2.977.286-5.954.388-8.932.045-1.332-.3-1.643-1.64-1.644-6.157,0-12.313-.032-18.47.012a8.506,8.506,0,0,0-7.86,4.783,8.092,8.092,0,0,0-.518,6.662,2.889,2.889,0,0,1,.788-.235c.79.022,1.01-.339,1.1-1.106a6.861,6.861,0,0,1,.766-2.176A7.355,7.355,0,0,1,1224.358,511.809Zm.811-6.892c-.178-.482-.358-.875-.467-1.287-.212-.8-.7-1-1.5-.974-1.957.067-3.917.022-5.876.022-4.291,0-8.582-.007-12.873.016-.318,0-.8.133-.923.357a24.221,24.221,0,0,0-.981,2.359c.122.1.163.155.217.174a14.416,14.416,0,0,1,9.552,9.927.8.8,0,0,0,.528.491c.727.058,1.462.023,2.188.023A11.231,11.231,0,0,1,1225.168,504.917Zm-2.163-4.526c0-.155.011-.19,0-.213a33.9,33.9,0,0,0-8.559-10.224c-.471-.384-.759-.149-1.12.145a34.455,34.455,0,0,0-8.156,9.613,6.425,6.425,0,0,0-.289.679Zm-32.224,46.7a7.557,7.557,0,0,0,7.225,6.655c3.384.059,6.77.024,10.156.018a2.226,2.226,0,1,0,.075-4.436c-.671-.022-1.344,0-2.093,0a6.441,6.441,0,0,0-.011-1.043,9.258,9.258,0,0,0-.33-1.084,3.147,3.147,0,0,0-1.072.373,7.687,7.687,0,0,1-6.02,1.783,3.819,3.819,0,0,1-3.272-1.771,1.033,1.033,0,0,0-.689-.469C1193.453,547.068,1192.152,547.092,1190.782,547.092Zm19.379-57.342c-5.755-.005-16.742,6.446-18.214,10.674,3.313,0,6.606.012,9.9-.026.239,0,.533-.337.7-.585,1.482-2.179,2.877-4.421,4.433-6.546A44.392,44.392,0,0,1,1210.161,489.751Zm7.518-.139a2.416,2.416,0,0,0,.2.354,37.972,37.972,0,0,1,7.576,9.968,1.256,1.256,0,0,0,.952.472c2.983.036,5.966.023,8.949.017a6.9,6.9,0,0,0,.792-.1A28.035,28.035,0,0,0,1217.679,489.612Zm9.721,64.137c1.724,0,3.34.077,4.947-.018a5.36,5.36,0,0,0,4.923-4.9c.132-2.851.077-5.712.036-8.568a2.036,2.036,0,0,0-1.96-2,2.194,2.194,0,0,0-2.458,2.39q-.054,3.26.011,6.521a1.9,1.9,0,0,0,.469,1.033c.417.517.915.968,1.253,1.317l-1.585,1.749a11.76,11.76,0,0,0-.887-1.1c-.321-.318-.7-.767-1.079-.8-1.195-.1-2.4-.038-3.668-.038Zm-7.934-6.761v-4.211H1208.44v4.269a4.718,4.718,0,0,1,3.8,2.275,4.582,4.582,0,0,1,.081,4.4h3.234C1214.225,550.39,1215.941,547.495,1219.466,546.987Zm8.2-8.937a10.754,10.754,0,0,1-6.128-3.789c-1.174,3-3.417,4.109-6.382,4.008v2.175c1.363,0,2.663-.005,3.963,0,1.822.009,2.653.854,2.665,2.7,0,.579,0,1.157,0,1.466l3.361,1.3C1224.923,543.008,1225.232,540.271,1227.662,538.05Zm-21.515,6.689c0-.608-.025-1.291.005-1.971a2.242,2.242,0,0,1,2.381-2.319c1.15-.021,2.3,0,3.452-.01a6.31,6.31,0,0,0,.777-.094v-2.1c-3.051.152-5.215-1.071-6.34-3.84a28.281,28.281,0,0,1-2.625,2.164,29.314,29.314,0,0,1-3.07,1.538,6.014,6.014,0,0,1,2.923,7.293Zm18.959,9.017c0-1.61.014-3.094-.016-4.577a.891.891,0,0,0-.35-.592c-.6-.441-1.221-.852-1.854-1.242-.671-.413-1.055-.209-1.1.57-.025.449,0,.9,0,1.408-.583,0-1.016-.011-1.448,0a7.8,7.8,0,0,0-1.294.092,2.19,2.19,0,0,0,.254,4.322C1221.183,553.8,1223.074,553.756,1225.106,553.756Zm-27.869-14.882c0,1.185,0,2.324,0,3.463s-.005,2.293.006,3.44a1.141,1.141,0,0,0,.95,1.287,1.976,1.976,0,0,0,2.532-1.056c.188-.283.381-.566.542-.865a3.608,3.608,0,0,0-1.043-4.652A31.417,31.417,0,0,0,1197.238,538.875Zm3.865-36c-.095-.1-.115-.139-.135-.139-3.472-.019-6.945-.042-10.417-.038a.8.8,0,0,0-.582.346c-.5.877-.947,1.781-1.427,2.7.17.034.236.07.283.053,3.583-1.23,7.269-1.008,10.957-.793.205.012.547-.076.609-.214C1200.675,504.153,1200.884,503.482,1201.1,502.872Zm-10.493,41.916h4.347c0-1.653.1-3.237-.033-4.8a1.983,1.983,0,0,0-2.275-1.73,2.035,2.035,0,0,0-2.022,1.935C1190.558,541.7,1190.609,543.22,1190.609,544.788Zm36.275-42.111c.267,2.015.459,2.2,2.231,2.2h9.807c-.215-.44-.4-.757-.53-1.1a1.635,1.635,0,0,0-1.845-1.129c-2.605.083-5.215.028-7.823.028Zm3.8,44.375v-8.276c-2.686.767-4.2,4.413-3.194,8.276Zm-14.919-15.07,4.152-.559c-.172-1.43-.344-2.857-.51-4.238l-2.112-.56A8.714,8.714,0,0,1,1215.768,531.981Zm-1.808-1.422c1.52-2.185,1.48-5.256-.042-6.813A5.832,5.832,0,0,0,1213.96,530.559Zm5.543-10.011a2.107,2.107,0,0,0-2.188,2.314,2,2,0,0,0,2.188,1.891Zm24.578,0v4.277a2.129,2.129,0,0,0,2.172-2.224A2.062,2.062,0,0,0,1244.081,520.552Zm-28.931.753a1.981,1.981,0,0,0,.144-2.759c-.392-.467-1.551-.292-2.455-.416,0,.932,0,1.639,0,2.346,0,.14.025.28.057.6l1.082-1.469Zm-6.449,12.53a3.032,3.032,0,0,0,3.823,1.984C1211.84,534.284,1210.663,533.661,1208.7,533.835Zm10.491.04a3.061,3.061,0,0,0-3.751,2.062C1217.341,536.15,1218.689,535.409,1219.191,533.875Z" fill="#fef8e6"/>
        <path id="Trazado_1328372" data-name="Trazado 1328372" d="M1251.59,717.532v-2.057c1.381,0,2.707,0,4.034,0a2.316,2.316,0,0,0,2.533-1.738.839.839,0,0,1,.522-.482,13.642,13.642,0,0,1,1.64-.023,3.981,3.981,0,0,1-3.244,4.253A44.4,44.4,0,0,1,1251.59,717.532Z" transform="translate(-58.719 -183.911)" fill="#fef8e6"/>
        <path id="Trazado_1328373" data-name="Trazado 1328373" d="M1281.646,670.229h-2.135c-.151-.894.223-2.177-1.21-2.118-1.264.052-.956,1.22-1.1,2.1h-2.136a3.639,3.639,0,0,1,1.364-3.729,3.385,3.385,0,0,1,3.692-.127A3.574,3.574,0,0,1,1281.646,670.229Z" transform="translate(-77.772 -145.4)" fill="#fef8e6"/>
        <path id="Trazado_1328374" data-name="Trazado 1328374" d="M1234.1,670.135h-2.107c-.222-.844.167-2.192-1.274-2.146-1.31.042-.947,1.279-1.135,2.13h-2.058a3.469,3.469,0,0,1,1.381-3.8,3.2,3.2,0,0,1,3.6-.081C1233.947,667.1,1234.21,668.486,1234.1,670.135Z" transform="translate(-39.079 -145.282)" fill="#fef8e6"/>
        <path id="Trazado_1328375" data-name="Trazado 1328375" d="M1441.444,701.751a5.553,5.553,0,0,1-2.371,5.623,5.253,5.253,0,0,1-5.98.178,5.474,5.474,0,0,1-2.635-5.8Zm-8.528,2.182a3.138,3.138,0,0,0,3.153,2.209,3,3,0,0,0,2.859-2.209Z" transform="translate(-204.161 -174.585)" fill="#fef8e6"/>
        <path id="Trazado_1328376" data-name="Trazado 1328376" d="M1421.686,653.924a3.319,3.319,0,1,1-3.305,3.319A3.35,3.35,0,0,1,1421.686,653.924Zm1.1,3.333a.982.982,0,0,0-1.014-1.073.964.964,0,0,0-1.129,1.04.95.95,0,0,0,1,1.078A1,1,0,0,0,1422.79,657.257Z" transform="translate(-194.384 -135.683)" fill="#fef8e6"/>
        <path id="Trazado_1328377" data-name="Trazado 1328377" d="M1472.708,657.245a3.283,3.283,0,0,1-3.295,3.314,3.32,3.32,0,1,1,.014-6.64A3.28,3.28,0,0,1,1472.708,657.245Zm-3.58,1.215c.882-.158,1.3-.482,1.34-1.137a.973.973,0,0,0-1.036-1.146c-.7-.02-1.193.389-1.1,1.062C1468.389,657.675,1468.848,658.056,1469.127,658.461Z" transform="translate(-233.16 -135.679)" fill="#fef8e6"/>
      </g>
    </g>
  </g>
</svg>
