<svg xmlns="http://www.w3.org/2000/svg" xmlns:xlink="http://www.w3.org/1999/xlink" width="135.176" height="127.499" viewBox="0 0 135.176 127.499">
  <defs>
    <clipPath id="clip-path">
      <rect id="Rectángulo_400938" data-name="Rectángulo 400938" width="120" height="120" fill="none"/>
    </clipPath>
  </defs>
  <g id="Grupo_1207845" data-name="Grupo 1207845" transform="translate(-489 -2201)">
    <g id="Grupo_108927" data-name="Grupo 108927" transform="translate(105.059 -2266)">
      <path id="Rectángulo_36179" data-name="Rectángulo 36179" d="M0,0H129.117V127.5H0Z" transform="translate(390 4467)" fill="#f9f7f0"/>
    </g>
    <g id="Grupo_1207583" data-name="Grupo 1207583" transform="translate(-17.686 1857.615)">
      <path id="Trazado_1327841" data-name="Trazado 1327841" d="M584.2,424.424h3.452c.036-.43.1-.815.1-1.2.006-6.049,0-12.1.015-18.146a1.6,1.6,0,0,0-.869-1.669,2.373,2.373,0,0,1-.853-1.733c-.1-2.095-.063-4.2-.031-6.3.023-1.45.649-2.062,2.154-2.068q8.248-.031,16.5,0c1.295,0,2.079.591,2.073,1.991-.009,2.149.023,4.3-.021,6.448-.01.466-.13,1.195-.43,1.347-1.837.932-1.14,2.472-1.149,3.944h6.815V403.9l-1.546-.213v-3.4H623.99v3.347l-1.564.265v3.284c2.823-.644,3.438,1.147,4.007,3.278,1.236,4.637,1.573,9.239.01,13.859,2.854.5,2.854.5,2.855,3.373,0,1.6.012,3.2,0,4.8-.019,1.852-.479,2.328-2.295,2.36-1.3.023-2.6-.038-3.9.032a2.131,2.131,0,0,0-1.259.536c-.971.93-1.862,1.942-2.764,2.9h10.144v3.35H525.407v-3.33h11.842c-.923-1.014-1.842-2.088-2.843-3.08a1.892,1.892,0,0,0-1.184-.384c-1.4-.047-2.8-.013-4.2-.026a1.861,1.861,0,0,1-2.049-2.054c-.022-.9-.018-1.8,0-2.7.017-1.075.191-2.147-1.139-2.738-.327-.145-.5-.956-.5-1.462q-.046-11.772-.014-23.545c0-1.482.615-2.061,2.093-2.133.436-.021.874,0,1.352,0-.266-5.237,1.429-9.527,6.006-11.956,2.127-1.128,2.68-2.437,2.964-4.579,1.064-8.036,7.879-14.033,16.262-14.553A17.325,17.325,0,0,1,571.367,381.6a1.63,1.63,0,0,0,1.78,1.459,12.016,12.016,0,0,1,10.341,16.113,1.394,1.394,0,0,0,.294,1.8,2.848,2.848,0,0,1,.4,1.822c.026,6.648.016,13.3.016,19.946Zm-55.383-20.59v20.594H580.7V403.834Zm25.833-3.622a13.8,13.8,0,1,0-13.726-13.855A13.726,13.726,0,0,0,554.65,400.212Zm36.552,24.18h10.292V403.855H591.2Zm13.928,0h11.957V410.767H605.131Zm-32.553-37.931c-.783,2.636-1.214,5.247-2.331,7.522-1.108,2.256-2.906,4.174-4.314,6.119h6.115c.327-1.431-.113-2.74,1.242-4.07,1.438-1.411,2.643-.564,3.99-.966-.111,2.516-1.451,3.957-3.71,5.146a32.212,32.212,0,0,1,3.889.03c1.445.194,2.061-.543,2.558-1.705A8.536,8.536,0,0,0,572.578,386.464ZM532.5,400.1h11.3a48.72,48.72,0,0,1-3.6-4.424,46.212,46.212,0,0,1-2.491-5.022A8.118,8.118,0,0,0,532.5,400.1Zm56.991-.012h13.786V396.96H589.492Zm31.256,24.356c.339.023.578.05.816.055.393.008.787,0,1.2,0a19.413,19.413,0,0,0,.029-13.727h-2.042ZM583.99,438.224c-.824-.885-1.752-1.923-2.735-2.907a1.612,1.612,0,0,0-1.006-.435c-1.948-.041-3.9-.048-5.846,0a1.82,1.82,0,0,0-1.108.516c-.959.946-1.855,1.956-2.664,2.822ZM596.392,428c.816.675,1.832,1.148,2.246,1.938a2.672,2.672,0,0,0,3.164,1.457c.651-.092,1.48-.02,1.9-.392a32.354,32.354,0,0,0,2.738-3Zm.243,10.18h10.137c-.73-.558-1.757-.953-2.077-1.665-.874-1.946-2.448-1.742-4.013-1.622a2.7,2.7,0,0,0-1.463.692C598.282,436.425,597.432,437.366,596.636,438.178ZM619.242,428c.883.985,1.772,2,2.691,2.984a1.18,1.18,0,0,0,.706.392c1.066.042,2.134.018,3.185.018V428Zm-88.668,3.4c.951,0,1.791.036,2.626-.015a1.941,1.941,0,0,0,1.184-.346c.965-.986,1.842-2.058,2.7-3.034h-6.506Zm27.323-3.36h-8.016c.833.9,1.744,1.833,2.59,2.821a2.229,2.229,0,0,0,2.728.171C556.125,429.994,557.059,428.965,557.9,428.037Zm-8.067,10.172h8.135c-.812-.847-1.755-1.748-2.6-2.734a2.059,2.059,0,0,0-2.927-.042C551.591,436.421,550.658,437.337,549.831,438.209Zm25.611-6.936v-3.246h-4.924a11.5,11.5,0,0,1,2.34,2.221A1.957,1.957,0,0,0,575.442,431.273ZM579.16,428v3.494c.743-.138,1.569-.047,1.98-.417A34.552,34.552,0,0,0,583.9,428Zm36.322-20.979h3.381v-3.17h-3.381ZM538.81,435.076l.706-.005c.457-.654,1.2-1.264,1.3-1.971.153-1.008-.641-1.67-1.677-1.669a1.487,1.487,0,0,0-1.652,1.69C537.6,433.824,538.347,434.428,538.81,435.076Zm10.966-1.6-.005-.724c-.653-.447-1.265-1.17-1.969-1.275-1-.15-1.678.6-1.665,1.657s.661,1.809,1.683,1.628C548.525,434.634,549.127,433.922,549.775,433.472Zm18.441,1.587.69.021c.491-.635,1.276-1.216,1.4-1.917a1.683,1.683,0,0,0-3.364-.109C567.02,433.761,567.768,434.394,568.216,435.06Zm17.382.007.69.01c.478-.644,1.25-1.24,1.365-1.943.162-.989-.614-1.683-1.656-1.7a1.517,1.517,0,0,0-1.707,1.656C584.375,433.79,585.137,434.41,585.6,435.067Zm8.668,0,.7.011c.469-.646,1.217-1.243,1.34-1.949.176-1.008-.609-1.679-1.643-1.7a1.488,1.488,0,0,0-1.685,1.658C593.077,433.795,593.814,434.413,594.266,435.069Zm13.816-.013.687.028c.5-.63,1.293-1.2,1.428-1.9a1.685,1.685,0,0,0-3.367-.143C606.9,433.744,607.639,434.386,608.081,435.056Zm8.791.021.687-.008c.462-.659,1.226-1.281,1.312-1.985a1.686,1.686,0,0,0-3.372.055C615.611,433.839,616.391,434.434,616.872,435.077Zm-57.183.012.7-.03c.431-.672,1.15-1.313,1.225-2.023a1.487,1.487,0,0,0-1.737-1.6c-1.029.056-1.8.744-1.587,1.751C558.438,433.885,559.2,434.458,559.69,435.089Zm27.955-7.081,2.68,1.99,2.6-1.99Zm-41.566.034h-5.195L543.5,430Zm20.823-.01h-5.23l2.621,1.957Zm48.489.025h-5.1l2.564,1.955Zm-69.165,10.21-2.755-2-2.7,2ZM567,438.248l-2.7-1.981-2.713,1.981Zm23.3-1.982-2.629,1.943h5.3Zm22.556,0-2.655,1.945H615.5Z"/>
      <path id="Trazado_1327842" data-name="Trazado 1327842" d="M876.284,404.2v-3.281c12.449-1.728,22.4,5.178,20.561,20.514h-3.257c0-1.685.031-3.364-.006-5.04a12.008,12.008,0,0,0-8-11.386,19.782,19.782,0,0,0-4.988-.782C879.216,404.1,877.816,404.2,876.284,404.2Z" transform="translate(-274.624 -24.692)"/>
      <path id="Trazado_1327843" data-name="Trazado 1327843" d="M874.16,446.621c0-1.546.012-3.034,0-4.521-.035-3.637-2.167-5.776-5.78-5.793-2.645-.012-5.29,0-8.052,0v-3.24a5.4,5.4,0,0,1,.946-.166c2.6-.012,5.2-.055,7.791.01a8.5,8.5,0,0,1,8.475,8.645c.022,1.646,0,3.292,0,5.066Z" transform="translate(-262.138 -49.901)"/>
      <path id="Trazado_1327844" data-name="Trazado 1327844" d="M847.868,401.419v3.3h-3.214v-3.3Z" transform="translate(-249.875 -25.289)"/>
      <path id="Trazado_1327845" data-name="Trazado 1327845" d="M831.6,436.641h-3.388V433.4H831.6Z" transform="translate(-237.012 -50.315)"/>
      <path id="Trazado_1327846" data-name="Trazado 1327846" d="M656.5,558.008h-3.313v-13.68H656.5Z" transform="translate(-100.062 -137.108)"/>
      <path id="Trazado_1327847" data-name="Trazado 1327847" d="M688.151,558.12h-3.4V544.48h3.4Z" transform="translate(-124.756 -137.226)"/>
      <path id="Trazado_1327848" data-name="Trazado 1327848" d="M720.011,558.14h-3.339V544.508h3.339Z" transform="translate(-149.736 -137.248)"/>
      <path id="Trazado_1327849" data-name="Trazado 1327849" d="M624.553,558.043H621.32V544.362h3.233Z" transform="translate(-75.128 -137.134)"/>
      <path id="Trazado_1327850" data-name="Trazado 1327850" d="M748.722,544.111H752V557.8h-3.277Z" transform="translate(-174.813 -136.938)"/>
      <path id="Trazado_1327851" data-name="Trazado 1327851" d="M560.986,557.967h-3.12v-13.7h3.12Z" transform="translate(-25.479 -137.061)"/>
      <path id="Trazado_1327852" data-name="Trazado 1327852" d="M592.858,557.962h-3.119v-13.7h3.119Z" transform="translate(-50.418 -137.059)"/>
      <path id="Trazado_1327853" data-name="Trazado 1327853" d="M637.717,420.483l-.149,1.54h-3.342l-.169-1.506c-2.735-.56-4.822-1.887-5.079-5.279,1.44.218,3-.781,3.969,1.1.153.3.76.476,1.17.5,1.145.067,2.3.042,3.444.02a1.673,1.673,0,1,0,.043-3.346c-.948-.036-1.9-.009-2.846-.015-3.083-.02-5.4-1.806-5.727-4.4-.375-3.018,1.183-5.155,4.367-5.987.193-.05.389-.089.641-.147.052-.474.1-.96.166-1.532h3.316l.215,1.455c3.662,1.167,4.976,2.575,4.946,5.4-.837,0-1.677.023-2.515-.013-.271-.012-.72-.117-.775-.284-.568-1.71-1.978-1.385-3.246-1.4a5.82,5.82,0,0,0-2.221.078c-.62.267-1.48,1.065-1.427,1.54a2.455,2.455,0,0,0,1.476,1.651,10.485,10.485,0,0,0,2.973.093c3.232.023,5.458,1.795,5.839,4.649.359,2.687-1.4,4.922-4.522,5.757C638.121,420.392,637.976,420.422,637.717,420.483Z" transform="translate(-81.118 -25.297)"/>
      <path id="Trazado_1327854" data-name="Trazado 1327854" d="M848,544.451v3.329H844.79v-3.329Z" transform="translate(-249.982 -137.204)"/>
    </g>
  </g>
</svg>
