<svg xmlns="http://www.w3.org/2000/svg" width="124.117" height="140.322" viewBox="0 0 124.117 140.322">
  <g id="Grupo_1207843" data-name="Grupo 1207843" transform="translate(-332.883 -3441.425)">
    <circle id="Elipse_13777" data-name="Elipse 13777" cx="62.059" cy="62.059" r="62.059" transform="translate(332.883 3441.425)" fill="#bbd8f2"/>
    <g id="Grupo_1207770" data-name="Grupo 1207770" transform="translate(-837.439 3020.144)">
      <path id="Trazado_1328470" data-name="Trazado 1328470" d="M1265.38,549.6c-3.437,2.121-6.726,4.482-10.295,6.289a48.447,48.447,0,0,1-32.43,4.395c-16.908-3.493-29.094-13.2-36.513-28.773a48.4,48.4,0,0,1-4.038-28.4,49.4,49.4,0,0,1,11.415-25.162,4.964,4.964,0,0,0,1.278-2.886,9.515,9.515,0,0,1,5.583-7.781,2.053,2.053,0,0,0,1-1.086,8.255,8.255,0,0,1,14.295-3.444,1.646,1.646,0,0,0,.363.24,8.57,8.57,0,0,1,9.047-2.789,10.338,10.338,0,0,0,3.266-.139,50.7,50.7,0,0,1,54.322,58.1,50.231,50.231,0,0,1-7.007,19.062,4.531,4.531,0,0,0-.612,2.161c-.07,2.838-.016,5.679-.033,8.519a4.9,4.9,0,0,1-9.516,1.936A1.382,1.382,0,0,0,1265.38,549.6Zm-35.139-61.937c2.924,0,5.767.134,8.592-.036,3.039-.184,5.261.854,6.651,3.579a2.508,2.508,0,0,0,2.587,1.388c2.93-.059,5.862-.032,8.794-.012a4.728,4.728,0,0,1,4.6,2.894c1.542,3.391-.894,6.892-4.853,6.926-5.358.047-10.718.012-16.076.014a5.766,5.766,0,0,0-1.772.062,2.157,2.157,0,0,0-1.281,1.038,1.786,1.786,0,0,0,.361,1.579,2.793,2.793,0,0,0,1.741.538c3.572.048,7.145-.009,10.717.039a4.9,4.9,0,1,1,.032,9.791c-1.51.04-3.023.009-4.534.016-1.13.005-1.895.486-1.854,1.7.038,1.146.814,1.541,1.871,1.537,1.466-.007,2.932-.025,4.4.008a4.5,4.5,0,0,1,4.2,2.155,8.3,8.3,0,0,1,.937,3.633c.093,6.09.035,12.183.05,18.274,0,1.434.552,2.115,1.623,2.067,1.336-.06,1.612-.956,1.6-2.093q-.032-2.748,0-5.5c.033-3.221,2.047-5.414,4.947-5.414s4.9,2.19,4.912,5.42c.013,3.481-.008,6.962.011,10.443.007,1.4.572,2.081,1.654,2.042,1.353-.048,1.6-.958,1.6-2.086-.011-5.68,0-11.359-.011-17.039,0-1.529-.546-2.057-2.069-2.071-1.923-.018-3.851.064-5.769-.035a6.879,6.879,0,0,1-2.752-.662,4.745,4.745,0,0,1-2.363-5.369,4.974,4.974,0,0,1,4.975-3.763c2.472-.054,4.947,0,7.42-.027.487-.005,1.158,0,1.417-.288.4-.449.867-1.33.675-1.7a2.457,2.457,0,0,0-1.728-1.181c-2.742-.134-5.5-.008-8.241-.1a4.876,4.876,0,0,1-.049-9.74c1.1-.066,2.2-.031,3.3-.038a1.77,1.77,0,0,0,1.965-1.8c.38-3.135,2.179-4.691,5.328-4.709,1.53-.008,3.059,0,4.635,0-5.827-24.252-29.412-37.834-49.068-35.766a11.955,11.955,0,0,1,1,2.369,2.308,2.308,0,0,0,1.482,1.727,9.385,9.385,0,0,1,5.4,8.608,9.15,9.15,0,0,1-5.2,8.706A3.1,3.1,0,0,0,1230.241,487.663Zm-6.064,5.1v1.32q0,14.424-.01,28.848a3.064,3.064,0,0,1-.253,1.579c-2.572,3.938-5.2,7.836-7.876,11.833-.269-.348-.475-.584-.648-.843-2.139-3.193-4.22-6.426-6.434-9.565a6.567,6.567,0,0,1-1.221-4.064c.053-9.387.031-18.774.013-28.161,0-.462-.046-1.171-.327-1.341a8.113,8.113,0,0,0-3.087-1.383,60.687,60.687,0,0,0-6.245-.063v3.207c.258.037.391.068.526.073,4.3.158,5.918,1.824,5.921,6.118,0,3.846-.025,7.693.01,11.539a6.086,6.086,0,0,1-2.547,5.169,22.211,22.211,0,0,0-8.88,19.262,4.591,4.591,0,0,0,.648,1.883c.736,1.36,2.27,1.181,3.461,1.654a25.893,25.893,0,0,0,19.015.031,26.831,26.831,0,0,1,17.131-.316c1.558.465,3.1,1,5.084,1.639a59.75,59.75,0,0,0,.386-7.865,22.41,22.41,0,0,0-9.351-16.706,4.711,4.711,0,0,1-2-3.882c-.029-4.579-.066-9.159.012-13.737a4.794,4.794,0,0,1,4.85-4.775c.529-.018,1.06,0,1.628,0V490.93C1230.627,490.966,1227.255,490.276,1224.178,492.761Zm5.232,65.137c.438.028.875.067,1.314.083a47.49,47.49,0,0,0,33.766-12.455,1.7,1.7,0,0,0,.629-.98q.07-3.983,0-7.968a1.376,1.376,0,0,0-1.534-1.413,1.43,1.43,0,0,0-1.593,1.365,11.436,11.436,0,0,0-.058,1.37c-.018,1.923.084,3.855-.066,5.767a4.9,4.9,0,0,1-9.78-.747c.028-6.229.017-12.457,0-18.686,0-1.689-.555-2.225-2.222-2.242-1.42-.014-2.842.04-4.258-.024a5.978,5.978,0,0,1-2.126-.424,4.855,4.855,0,0,1-2.8-5.424,4.988,4.988,0,0,1,4.837-3.934c1.646-.075,3.3-.011,4.945-.05a1.573,1.573,0,0,0,.058-3.145c-.41-.033-.823-.027-1.235-.028-3.3,0-6.6.023-9.893-.01-3.2-.031-5.385-2.114-5.339-5.024.045-2.869,2.185-4.784,5.381-4.789q8.175-.013,16.35,0c2.006,0,2.767-.444,2.791-1.623.025-1.229-.745-1.685-2.851-1.685-2.611,0-5.223-.053-7.831.015a5.492,5.492,0,0,1-5.139-2.79c-1.482-2.335-2.633-2.7-5.446-1.913,0,.625,0,1.266,0,1.905,0,3.4-.981,4.387-4.409,4.452-1.652.031-2.162.552-2.166,2.268-.008,3.893.057,7.787-.034,11.678a3.607,3.607,0,0,0,1.58,3.225,25.892,25.892,0,0,1,7.654,31.038A28.613,28.613,0,0,1,1229.41,557.9Zm-33.754-77.417a46.8,46.8,0,0,0-10.743,27.115,45.872,45.872,0,0,0,4.814,23.847c.194-.1.254-.116.258-.139a26.867,26.867,0,0,1,10.446-17.3,2.352,2.352,0,0,0,.776-1.633c.063-4.347.044-8.7.026-13.044a1.668,1.668,0,0,0-1.911-1.828c-.458,0-.917.02-1.373-.01a3.256,3.256,0,0,1-3.239-3.371c-.022-.915-.012-1.831,0-2.746.02-2.491,1.208-3.68,3.715-3.708,1.115-.013,2.23,0,3.724,0-.593-1.032-.829-2.087-1.436-2.383A11.272,11.272,0,0,1,1195.655,480.482Zm3.276,63.431c.089.257.095.363.151.421.317.329.637.657.972.967a49.109,49.109,0,0,0,19.556,11,7.711,7.711,0,0,0,6.438-.608c.714-.41,1.453-.779,2.146-1.221a22.8,22.8,0,0,0,8.836-10.285c-.791-.271-1.478-.485-2.15-.74a26.087,26.087,0,0,0-16.432-.891c-2.291.617-4.521,1.547-6.846,1.935A29.164,29.164,0,0,1,1198.931,543.913Zm9.238-64.353-.811.395a4.867,4.867,0,0,0-2.578,5.987,4.94,4.94,0,0,0,5.384,3.3,4.768,4.768,0,0,0,4.119-4.749c.043-5.537.052-11.074,0-16.611a4.765,4.765,0,0,0-4.975-4.754,4.821,4.821,0,0,0-4.743,4.868c-.008.454,0,.909,0,1.474-3.812.683-6.463,2.576-6.572,6.791a5.794,5.794,0,0,0,3.619,5.6,8.153,8.153,0,0,1,5.778-5.34Zm19.294-10.081c0-.359,0-.63,0-.9.007-3.24-1.944-5.426-4.86-5.448s-4.958,2.173-4.969,5.369q-.027,7.755.013,15.511a6.224,6.224,0,0,0,.4,2.269,4.871,4.871,0,0,0,5.6,2.909,4.988,4.988,0,0,0,3.819-4.774,4.865,4.865,0,0,0-4.047-4.833c-.793-.148-1.611-.164-2.431-.242V476.31c4.58-.433,7.673,1.447,9.392,5.566a5.963,5.963,0,0,0,3.644-5.812C1233.766,472.046,1231.226,470.129,1227.463,469.479Zm47.674,61.309a44.985,44.985,0,0,0,4.088-28.372c-1.9,0-3.725.013-5.547,0-1.248-.012-1.8.643-1.961,1.821-.411,3.1-2.213,4.674-5.352,4.729-1.007.017-2.017-.013-3.021.055a1.276,1.276,0,0,0-1.31,1.573,3.162,3.162,0,0,0,1.275,1.492c.271.2.8.081,1.209.083,2.336.005,4.673-.038,7.008.015a4.89,4.89,0,0,1,5.116,4.955c-.013,2.856-2.1,4.831-5.172,4.852-2.474.018-4.947-.006-7.421.009-1.347.009-2.072.61-2.073,1.656s.715,1.633,2.073,1.644c2.015.015,4.031-.023,6.047.014a4.778,4.778,0,0,1,4.683,3.362A14.2,14.2,0,0,1,1275.137,530.788Zm-57.4-31.6v22.7h3.047v-22.7Zm-3.537,22.739V499.2h-3.031v22.724Zm6.623-29.161L1216,489.712l-4.826,3.038v2.991h9.649Zm-1.442,32.649h-6.789l3.407,5.1Z" fill="#4e2825" stroke="#4e2825" stroke-width="0.5"/>
    </g>
  </g>
</svg>
