<svg xmlns="http://www.w3.org/2000/svg" width="127" height="127" viewBox="0 0 127 127">
  <g id="Grupo_1207843" data-name="Grupo 1207843" transform="translate(-385.26 -4619.287)">
    <g id="Grupo_1207805" data-name="Grupo 1207805">
      <g id="Grupo_1207190" data-name="Grupo 1207190" transform="translate(-116.141 -2479.055)">
        <circle id="Elipse_13775" data-name="Elipse 13775" cx="63.5" cy="63.5" r="63.5" transform="translate(501.4 7098.342)" fill="#83433e"/>
        <circle id="Elipse_13776" data-name="Elipse 13776" cx="52" cy="52" r="52" transform="translate(513.4 7110.342)" fill="#cdb3b1"/>
      </g>
      <g id="Grupo_1207621" data-name="Grupo 1207621" transform="translate(-673.305 4036.812)">
        <path id="Trazado_1328018" data-name="Trazado 1328018" d="M1089.947,612.936h56.618v27.119h2.228v6.8h-2.2a16.787,16.787,0,0,0,.033,2.166c.03.219.424.484.7.559a17.346,17.346,0,0,1,9.574,6.453,16.967,16.967,0,1,1-28.318,18.624,1.362,1.362,0,0,0-1.382-.7q-18,.018-36,.009h-1.254Zm54.31,2.312h-52.025v56.37h34.807l-.91-4.428c-1.716,0-3.391,0-5.065,0-2.73,0-3.853-.833-4.567-3.453a1.786,1.786,0,0,0-1.565-1.429c-.874-.142-1.747-.293-2.625-.413a4.067,4.067,0,0,1-3.68-3.3c-.692-2.693-1.492-5.36-2.166-8.058a2.277,2.277,0,0,0-2.017-1.928c-2.211-.384-4.408-.853-6.61-1.287a4.057,4.057,0,0,1-2.693-1.614,3.936,3.936,0,0,1,2.254-6.129c.754-.209,1.373-.528,1.542-1.348s-.337-1.293-.924-1.722q-.958-.7-1.9-1.418a3.928,3.928,0,0,1-1.654-3.351,29.428,29.428,0,0,0-.019-3.607,10.185,10.185,0,0,1,1.674-6.387,3.745,3.745,0,0,1,3.313-2.028c1.266-.025,2.533.01,3.8-.016a4.206,4.206,0,0,1,3.3,1.4,8.69,8.69,0,0,0,1.288,1.257,4.207,4.207,0,0,0,1.727.822c2.48.308,4.971.537,7.463.724,1.711.128,3.424.522,5.11-.378a13.033,13.033,0,0,1,7.594-1.548,3.8,3.8,0,0,1,3.54,3.254c.229,1.629.356,3.273.633,4.893a3.749,3.749,0,0,1-1.262,3.945c-2.678,1.928-3.461,4.484-3,7.591a.849.849,0,0,1,0,.19,1.808,1.808,0,0,0,.844,1.692,20.833,20.833,0,0,1,2.529,1.995,4,4,0,0,1,.829,4.569,3.546,3.546,0,0,1-3.548,2.357c-.7.007-1.394-.022-2.09.008a3.855,3.855,0,0,1-3.921-2.423c-.894-1.85-1.851-3.67-2.768-5.509a1.565,1.565,0,0,0-1.442-1.049c-1.235,0-2.476-.07-3.7.038-.458.04-1.174.421-1.264.776-.34,1.336-.622,2.761.328,4q3.182,4.139,6.432,8.226a2.707,2.707,0,0,0,1.108.831c1.562.582,3.153,1.089,4.785,1.642a8.387,8.387,0,0,1,.561-1,44.618,44.618,0,0,1,3.243-4.175,16,16,0,0,1,7.522-4.219c.27-.074.653-.352.683-.576a17.122,17.122,0,0,0,.033-2.177h-2.146v-6.8h6.627Zm-21.276,49.712c.6,0,1.2,0,1.8,0,1.5-.011,1.493.163,1.619-1.468a6.647,6.647,0,0,1,.312-1.385.928.928,0,0,0-.735-1.342c-1.06-.311-2.09-.729-3.155-1.024a5.538,5.538,0,0,1-3.041-2.122c-1.808-2.4-3.6-4.825-5.559-7.095A7.032,7.032,0,0,1,1112.55,645a3.862,3.862,0,0,1,4.022-3.812c1.108-.018,2.216-.008,3.324,0a3.73,3.73,0,0,1,3.52,2.15q1.109,2.148,2.186,4.313c1.389,2.807.979,2.583,4.312,2.581.805,0,1.521-.166,1.825-1.044a2.027,2.027,0,0,0-.748-2.432c-.7-.54-1.426-1.051-2.121-1.6a3.881,3.881,0,0,1-1.55-3.209c.006-1.329.019-2.659,0-3.988a3.982,3.982,0,0,1,1.228-2.981c.824-.831,1.723-1.6,2.457-2.5a2.838,2.838,0,0,0,.645-1.754c-.082-1.607-.331-3.207-.56-4.8-.178-1.239-.651-1.6-1.892-1.679a10.575,10.575,0,0,0-5.248.949,9.127,9.127,0,0,1-5.091,1.2c-2.949-.374-5.912-.686-8.879-.842a5.67,5.67,0,0,1-4.288-2.062,4.538,4.538,0,0,0-.948-.925,3.056,3.056,0,0,0-1.354-.551,24.863,24.863,0,0,0-3.793.013,2.157,2.157,0,0,0-1.45.829,7.207,7.207,0,0,0-1.449,5.071,10.084,10.084,0,0,1,.012,1.423c.059,4.033-.521,2.919,2.65,5.34a3.9,3.9,0,0,1,1.779,4,3.669,3.669,0,0,1-3.013,3.031,1.627,1.627,0,0,0-1.412,1.745c.028.9.483,1.4,1.536,1.617,2.352.486,4.7.97,7.061,1.434a3.851,3.851,0,0,1,3.193,2.989c.789,2.9,1.6,5.786,2.372,8.686a1.841,1.841,0,0,0,1.644,1.473c.812.126,1.619.3,2.435.387a4.016,4.016,0,0,1,3.833,3.466,1.7,1.7,0,0,0,1.825,1.454C1121.4,664.974,1122.189,664.958,1122.981,664.959Zm20.176-13.593a14.7,14.7,0,1,0,14.774,14.608A14.745,14.745,0,0,0,1143.157,651.366Zm3.371-8.956h-6.69v2.1h6.69Zm-2.287,6.7v-2.174h-2.076v2.174Z" fill="#262626"/>
        <path id="Trazado_1328019" data-name="Trazado 1328019" d="M1322.855,636.988h7.827v7.77h-2.229v-5.575h-5.6Z" transform="translate(-188.656 -19.482)" fill="#262626"/>
        <path id="Trazado_1328020" data-name="Trazado 1328020" d="M1113.884,876.952v-7.8h2.184V874.7h5.647v2.257Z" transform="translate(-19.389 -207.532)" fill="#262626"/>
        <path id="Trazado_1328021" data-name="Trazado 1328021" d="M1116.075,847.327h-2.124v-2.158h2.124Z" transform="translate(-19.443 -188.109)" fill="#262626"/>
        <path id="Trazado_1328022" data-name="Trazado 1328022" d="M1299.064,636.726c.471,0,.9-.005,1.336,0,.244,0,.488.03.786.049V638.9h-2.122Z" transform="translate(-169.385 -19.268)" fill="#262626"/>
        <path id="Trazado_1328023" data-name="Trazado 1328023" d="M1354.162,690.112v2.143h-2.09C1351.553,690.131,1351.79,689.877,1354.162,690.112Z" transform="translate(-212.137 -62.455)" fill="#262626"/>
        <path id="Trazado_1328024" data-name="Trazado 1328024" d="M1167.516,900.993v-2.148h2.188v2.148Z" transform="translate(-62.831 -231.587)" fill="#262626"/>
        <path id="Trazado_1328025" data-name="Trazado 1328025" d="M1351.932,839.521a9.783,9.783,0,0,1-.85,2.522,12.586,12.586,0,0,0-1.5,4.148c-.322,1.221-.6,2.454-.935,3.673a2.481,2.481,0,0,1-2.608,2.031,2.526,2.526,0,0,1-2.468-2.1c-.5-1.99-1-3.984-1.512-5.971a2.968,2.968,0,0,0-.421-.932,5.624,5.624,0,0,1-.036-6.808,8.3,8.3,0,0,0,.831-2.38c.406-1.493.758-3,1.134-4.5a2.642,2.642,0,0,1,2.541-2.158,2.6,2.6,0,0,1,2.534,2.043c.331,1.219.609,2.452.933,3.673a12.884,12.884,0,0,0,1.5,4.151A10.09,10.09,0,0,1,1351.932,839.521Zm-5.849-3.409a3.393,3.393,0,0,0-3.351,3.413,3.383,3.383,0,1,0,6.766-.072A3.379,3.379,0,0,0,1346.084,836.113Zm-1.384,8.956,1.226,4.6.427-.042,1.174-4.559Zm2.836-11.154-1.205-4.6-.419,0-1.2,4.607Z" transform="translate(-202.925 -173.429)" fill="#262626"/>
        <path id="Trazado_1328026" data-name="Trazado 1328026" d="M1394.868,836.566l.979-1.878a12.252,12.252,0,0,1,4.617,17.873l-1.773-1.185A10.362,10.362,0,0,0,1394.868,836.566Z" transform="translate(-246.987 -179.619)" fill="#262626"/>
        <path id="Trazado_1328027" data-name="Trazado 1328027" d="M1397.209,932.962l1.918-1.456,1.695,1.523-2.475,1.883Z" transform="translate(-248.883 -258.042)" fill="#262626"/>
      </g>
    </g>
  </g>
</svg>
