<svg xmlns="http://www.w3.org/2000/svg" width="127" height="127" viewBox="0 0 127 127">
  <g id="Grupo_1207844" data-name="Grupo 1207844" transform="translate(-384.166 -3084.309)">
    <g id="Grupo_1207843" data-name="Grupo 1207843">
      <g id="Grupo_1207842" data-name="Grupo 1207842">
        <g id="Grupo_1207618" data-name="Grupo 1207618" transform="translate(0 144)">
          <g id="Grupo_1207190" data-name="Grupo 1207190" transform="translate(-117.234 -4158.033)">
            <circle id="Elipse_13775" data-name="Elipse 13775" cx="63.5" cy="63.5" r="63.5" transform="translate(501.4 7098.342)" fill="#83433e"/>
            <circle id="Elipse_13776" data-name="Elipse 13776" cx="52" cy="52" r="52" transform="translate(513.4 7110.342)" fill="#cdb3b1"/>
          </g>
          <g id="Grupo_1207607" data-name="Grupo 1207607" transform="translate(-519.753 2491.894)">
            <path id="Trazado_1327992" data-name="Trazado 1327992" d="M989.8,517.926a14.549,14.549,0,1,1-18.174,16.746c-5.609,9.373-13.689,13.51-24.575,11.08a20.522,20.522,0,0,1-15.525-17.074c-1.444-11.962,4.241-19.7,15.323-24a10.227,10.227,0,0,1-6.265-6.6,9.484,9.484,0,0,1,.032-5.9c1.542-4.656,5.278-7.055,10.865-7.038a10.25,10.25,0,0,1,16.633-5.321,10.23,10.23,0,0,1,16.619,5.332c4.471-.228,8.05,1.364,10.168,5.422,2.083,3.992,1.38,7.788-1.322,11.284A10.2,10.2,0,0,1,989.8,517.926ZM956.957,507c0,.527.016,1.037,0,1.546a4.469,4.469,0,0,1-4.526,4.445c-.645.01-1.289-.007-1.934.005a2.309,2.309,0,0,0-2.517,2.345,4.522,4.522,0,0,1-4.789,4.4c-2.643.011-5.286,0-7.929,0-.314,0-.628.027-.993.044a17.712,17.712,0,0,0-.774,6.5,2.57,2.57,0,0,0,.45.1c1.257.007,2.514.023,3.771,0,.925-.016,1.167-.263,1.3-1.2a3.46,3.46,0,0,1,3.73-3.264q2.659-.02,5.318,0a11.512,11.512,0,0,1,1.829.1,4.41,4.41,0,0,1,3.629,3.765,4.307,4.307,0,0,1-2.747,4.707,10.226,10.226,0,0,1-2.554.365c-.931.081-1.195.284-1.324,1.187a3.465,3.465,0,0,1-3.8,3.292c-1.869.011-3.739,0-5.608,0-.307,0-.613.028-.961.046,4.208,7.284,13.849,10.365,20.4,8.184,0-1.177-.379-1.573-1.528-1.587-1.1-.013-2.194.036-3.287-.021a4.421,4.421,0,0,1-3.813-6.026,4.467,4.467,0,0,1,4.31-2.853c3.481-.015,6.962,0,10.443-.008A3.343,3.343,0,0,0,964,533a.98.98,0,0,0,.712-1.122.966.966,0,0,0-.813-.949,5.292,5.292,0,0,0-.865-.055c-.772-.026-1.553.019-2.316-.08a4.463,4.463,0,0,1,.882-8.867c2.8-.025,5.608-.007,8.412-.007h1.05C970.07,514.771,963.752,508.266,956.957,507ZM973.7,531.86a12.3,12.3,0,1,0,12.647-12.137A12.313,12.313,0,0,0,973.7,531.86ZM954.649,504.2a21.224,21.224,0,0,1,13.178,6.511,21.456,21.456,0,0,1,5.864,13.55,15.267,15.267,0,0,1,8.664-6.326,10.07,10.07,0,0,1-6.139-7.095,9.882,9.882,0,0,1,2.118-8.815l-2.389-4.675a10.237,10.237,0,0,1-7.845-2.476,10.4,10.4,0,0,1-8.038,2.473A10.408,10.408,0,0,1,954.649,504.2Zm16.737,20.078a1.662,1.662,0,0,0-.326-.079c-3.221-.005-6.442-.024-9.663,0a2.228,2.228,0,0,0-2.253,2.189,2.292,2.292,0,0,0,2.22,2.239c.8.04,1.612-.022,2.415.022a3.346,3.346,0,0,1-.193,6.688c-.965.029-1.932.008-2.9.009-2.674,0-5.347.012-8.02-.005a2.234,2.234,0,1,0-.176,4.46c1.125.056,2.255,0,3.381.021a3.274,3.274,0,0,1,3.18,2.479c.057.2.111.405.168.611A18.735,18.735,0,0,0,971.385,524.278Zm-16.724-17.741c-8.97-1.314-17.217,4.849-19.29,10.9,2.815,0,5.611.018,8.407-.021a2.2,2.2,0,0,0,1.127-.465,2.291,2.291,0,0,0,.862-1.854,4.364,4.364,0,0,1,4.547-4.275c.708-.008,1.418.027,2.124-.013a2.231,2.231,0,0,0,2.221-2.308C954.675,507.862,954.662,507.22,954.662,506.537Zm-19.606,26.551c2.8,0,5.4,0,8.008,0,1.171,0,1.378-.191,1.549-1.35a3.413,3.413,0,0,1,3.569-3.1c.322,0,.645.014.965-.008a2.312,2.312,0,0,0,2.212-2.248A2.243,2.243,0,0,0,949.1,524.2c-2.188-.03-4.377-.022-6.565,0-.847.008-1.117.295-1.238,1.156a3.411,3.411,0,0,1-3.785,3.285c-1.219,0-2.437,0-3.848,0Zm56.707-32.8c2.3-2.049,3.041-6.758.246-10.116-2.774-3.334-7.615-3.379-9.723-1.725l1.336,1.618c3.328-.824,5.42-.252,6.957,1.913a5.459,5.459,0,0,1,1.013,3.072,5.8,5.8,0,0,1-1.716,4.2Zm-40.434-12.747a7.633,7.633,0,0,0-8.585,5.35c-1.111,3.441.592,7.3,2.971,8.485l.716-2.071c-1.823-1.933-2.42-4.144-1.213-6.559,1.273-2.547,3.494-3.427,6.331-3.051C951.475,488.983,951.4,488.289,951.328,487.545Zm2.4,1.064,2.058-.965a5.5,5.5,0,0,1,3.367-5.353,5.653,5.653,0,0,1,6.338,1.189l1.052-1.9a7.734,7.734,0,0,0-12.815,7.03Zm14.878-5.75a9.9,9.9,0,0,1,1.328.481.974.974,0,0,0,1.265-.184,5.537,5.537,0,0,1,9.041,3.017c.047.2.13.4.2.6l1.975-1.033a7.677,7.677,0,0,0-6.768-6.147C973.264,479.242,969.72,480.618,968.606,482.858ZM952.291,497.9c.322-.431.64-.791.883-1.2a1.514,1.514,0,0,0-.118-2.013,3.047,3.047,0,0,1-.681-1.461,1.541,1.541,0,0,0-1.449-1.309,3.363,3.363,0,0,0-3.761,1.867,3.315,3.315,0,0,0,1.106,4.062A4.755,4.755,0,0,1,952.291,497.9Zm31.621.016a4.753,4.753,0,0,1,4.036-.071,3.259,3.259,0,0,0,1.112-4.039,3.34,3.34,0,0,0-3.843-1.867,1.562,1.562,0,0,0-1.377,1.275,3.841,3.841,0,0,1-.777,1.625,1.249,1.249,0,0,0-.182,1.5A17.122,17.122,0,0,0,983.912,497.914ZM961.72,484.008a3.471,3.471,0,0,0-3.655,3.19.81.81,0,0,0,.523.9,4.135,4.135,0,0,1,1.995,1.886c.414.774.6.9,1.422.656a7.006,7.006,0,0,0,1.47-.676c.507-.289.56-.681.416-1.291a6.486,6.486,0,0,1-.075-2.455c.161-1.011.174-1.262-.747-1.727A9.288,9.288,0,0,0,961.72,484.008Zm16.5,3.464a3.522,3.522,0,0,0-1.984-3.118,3.218,3.218,0,0,0-3.524.423.9.9,0,0,0-.376,1.23,3.648,3.648,0,0,1,.085,2.547c-.273.942-.232,1.148.621,1.616a6.87,6.87,0,0,0,1.625.538.673.673,0,0,0,.851-.437,4.544,4.544,0,0,1,2.171-2.231A2.122,2.122,0,0,0,978.219,487.473Zm9.735,23.756a3.3,3.3,0,0,0,.53-4.9.825.825,0,0,0-1.016-.282,3.694,3.694,0,0,1-2.915,0,.834.834,0,0,0-1.019.273,3.242,3.242,0,0,0,.559,4.888A5.02,5.02,0,0,1,987.953,511.229Zm1.823-6.766a5.468,5.468,0,0,1,1.815,4.071,5.737,5.737,0,0,1-1.8,4.167l.747,2.117c4.547-3,4.2-9.9-.007-12.476Zm-7.506,8.245a5.539,5.539,0,0,1-1.864-4.181,5.655,5.655,0,0,1,1.821-4.1l-.751-2.1c-4.274,2.63-4.476,9.607.04,12.506.09-.354.153-.7.27-1.032C981.913,513.45,982.091,513.109,982.27,512.708Zm-11.948-25.339a2.238,2.238,0,0,0-2.183-2.245,2.278,2.278,0,0,0-2.255,2.285,2.179,2.179,0,0,0,2.25,2.153A2.127,2.127,0,0,0,970.322,487.369Zm-15.87,4.713a2.226,2.226,0,0,0,2.159,2.267,2.357,2.357,0,0,0,2.3-2.169,2.229,2.229,0,0,0-2.25-2.274A2.12,2.12,0,0,0,954.451,492.083Zm31.514,25.366a2.225,2.225,0,0,0,2.287-2.136A2.34,2.34,0,0,0,986,513a2.255,2.255,0,0,0-2.215,2.229A2.171,2.171,0,0,0,985.966,517.449Zm-4.193-25.316a2.137,2.137,0,0,0-2.159-2.227,2.23,2.23,0,0,0-2.3,2.223,2.374,2.374,0,0,0,2.251,2.224A2.238,2.238,0,0,0,981.773,492.133Zm-31.58,11.928a2.22,2.22,0,0,0,2.275-2.144,2.312,2.312,0,0,0-2.268-2.286,2.249,2.249,0,0,0-2.2,2.23A2.164,2.164,0,0,0,950.193,504.06Zm35.844,0a2.226,2.226,0,0,0,2.218-2.2,2.318,2.318,0,0,0-2.232-2.228,2.244,2.244,0,0,0-2.239,2.289A2.165,2.165,0,0,0,986.038,504.061ZM968.559,491.91c1.4,2.43,5.522,3.888,7.4,2.987l-.883-1.953a5.8,5.8,0,0,1-4.411-1.8Zm-1.971,1.291-1.129-1.968a5.9,5.9,0,0,1-4.3,1.723l-1.019,2.092A7.714,7.714,0,0,0,966.587,493.2Zm-8.73,3.43-2.011-.138-1.784,2.957.71,2.068A7.734,7.734,0,0,0,957.857,496.631Zm24.172,2.677-1.592-2.756h-2.122a7.2,7.2,0,0,0,1.872,3.773Z" transform="translate(0 0)" fill="#262626"/>
            <path id="Trazado_1327993" data-name="Trazado 1327993" d="M1201.356,726.617c.231.159.464.315.692.478a3.143,3.143,0,0,1,1.463,2.484c.035.8.017,1.61.021,2.415,0,.353,0,.706,0,1.182h-2.189v2.25h-2.293c0-.639.042-1.244-.019-1.839a1.1,1.1,0,0,0-.406-.757,3.585,3.585,0,0,1-1.686-4.02h1.875a5.9,5.9,0,0,0,.773,1.9c.307.334,1.048.269,1.586.38.393-1.662.085-2.133-1.408-2.364a3.272,3.272,0,0,1-2.883-3.232c-.024-1.092,0-2.185,0-3.388H1199v-2.172h2.315v2.3a3.554,3.554,0,0,1,2.138,4.23l-2.117.17c0-.351.026-.7,0-1.054a1.19,1.19,0,0,0-1.261-1.273c-.311-.018-.624,0-.92,0-.256,1.752.008,2.106,1.625,2.283C1200.973,726.611,1201.165,726.609,1201.356,726.617Z" transform="translate(-214.195 -195.667)" fill="#262626"/>
          </g>
        </g>
      </g>
    </g>
  </g>
</svg>
