<svg xmlns="http://www.w3.org/2000/svg" width="124.117" height="136.919" viewBox="0 0 124.117 136.919">
  <g id="Grupo_1207843" data-name="Grupo 1207843" transform="translate(-742.883 -3441.425)">
    <circle id="Elipse_13777" data-name="Elipse 13777" cx="62.059" cy="62.059" r="62.059" transform="translate(742.883 3441.425)" fill="#bbd8f2"/>
    <g id="Grupo_1207771" data-name="Grupo 1207771" transform="translate(-464.692 2980.615)">
      <path id="Trazado_1328471" data-name="Trazado 1328471" d="M1237.535,587.757c.847-2.9.849-2.9,3.788-3.212,3.829-.407,7.664-.77,11.48-1.278a3.211,3.211,0,0,0,1.987-1.224c2.9-4.211,5.729-8.475,8.52-12.761a3.737,3.737,0,0,1,2.9-1.88c3.4-.412,6.777-1.051,10.184-1.395a4.83,4.83,0,0,1,3.016.82c5.845,4.146,11.6,8.426,17.418,12.6a3.034,3.034,0,0,1,1.542,2.868c-.082,1.314.045,2.642-.037,3.956-.067,1.084.291,1.459,1.405,1.5,4.113.156,8.222.414,12.332.637,1.687.092,2.3.652,2.386,2.291.655,12.011,1.321,24.021,1.926,36.035.135,2.685.055,5.381.049,8.073,0,2.139-.578,2.708-2.737,2.709q-16.707.01-33.414-.01a2.388,2.388,0,0,0-2.393,1.07,4.332,4.332,0,0,1-3.821,1.879q-4.909.036-9.818,0a4.344,4.344,0,0,1-3.824-1.875,2.392,2.392,0,0,0-2.389-1.076q-16.549.034-33.1.013c-2.6,0-3.152-.463-3.051-3.017q.7-17.71,1.489-35.416c.117-2.688.309-5.372.458-8.059.114-2.046.624-2.525,2.709-2.634C1230.223,588.185,1233.9,587.964,1237.535,587.757Zm-9.85,4.513c-.592,11.239-1.176,22.315-1.767,33.51h1.99c10.4,0,20.8-.024,31.206.017,2.654.01,5.306.224,8.075.35V624.89c0-2.481-.012-4.962.005-7.443.011-1.638.72-2.493,1.991-2.473s1.9.86,1.93,2.539c.008.528,0,1.056,0,1.584v7.114c2.392-.15,4.622-.4,6.852-.412,10.824-.042,21.648-.019,32.473-.019h1.956c-.6-11.319-1.191-22.407-1.783-33.545l-12.127-.63c-.343,2.894-.253,5.364,1.409,7.649a50.578,50.578,0,0,1,2.988,5.21c1.125,2.016.333,3.242-1.959,3.51a13.721,13.721,0,0,0-4.636,1.281c-4.344,2.243-8.6,2.379-12.8-.152a8.735,8.735,0,0,0-9.817.023,11.665,11.665,0,0,1-12.749.052,9.272,9.272,0,0,0-10-.073,18.045,18.045,0,0,1-6.277,1.8c-2.529.327-4.8-.814-7.026-2.017-2.911-1.577-2.941-1.495-2.427-4.818.626-4.04,1.227-8.083,1.87-12.336Zm37.883-19.217c-2.213,3.314-4.41,6.522-6.516,9.787-1.658,2.57-1.7,1.524.155,4.1a23.929,23.929,0,0,1,2.04,2.811,8.293,8.293,0,0,1,1.077,3.325c.132,3.741,0,7.491.1,11.234a2.5,2.5,0,0,0,1.091,1.8,7.75,7.75,0,0,0,7.576.017c1.728-.867,3.465-1.717,5.344-2.647a29.429,29.429,0,0,0-1.4-4.289c-1.412-2.872-.933-5.092,1.019-7.722a19.04,19.04,0,0,1,9.245-7.187c2.3-.8,4.478-1.968,7.006-3.1-2.319-1.549-4.351-2.935-6.424-4.257a2.076,2.076,0,0,0-1.218-.112c-3.725.381-7.444.821-11.172,1.162a2.466,2.466,0,0,0-2.239,1.634c-1.178,2.531-2.447,5.021-3.717,7.508-.719,1.409-1.858,1.9-2.925,1.255-1.274-.77-1.141-1.9-.584-3.042q1.278-2.629,2.6-5.235c1.829-3.6,1.835-3.6-.713-6.778A3.431,3.431,0,0,0,1265.568,573.053Zm15.951,17.91a32.988,32.988,0,0,1-2.131,2.8,3.233,3.233,0,0,0-.737,3.94c.743,1.679,1.166,3.5,1.813,5.223a2.109,2.109,0,0,0,.989,1.015c1.363.675,2.826,1.16,4.153,1.9a8.07,8.07,0,0,0,7.437.58c1.682-.718,3.3-1.581,5.034-2.42-.759-1.357-1.5-2.75-2.312-4.1a4.608,4.608,0,0,0-1.336-1.688C1290.189,595.765,1285.9,593.408,1281.519,590.963Zm-55.635,42.62h13.17c7.065,0,14.13.011,21.195-.009,1.491,0,2.721.177,3.033,2.01.064.377.764.827,1.233.915a13.251,13.251,0,0,0,2.444.042c.952-4.81-.931-7.025-5.311-6.968-11.281.147-22.565.049-33.848.049h-1.915Zm86.561-3.871c-.543-.036-.953-.086-1.363-.086q-17.714-.007-35.429,0a5.772,5.772,0,0,0-1.405.151c-2.7.684-3.762,3.151-2.864,6.761a15.512,15.512,0,0,0,2.469-.038c.431-.069,1.1-.485,1.147-.821.3-2.019,1.688-2.112,3.274-2.109q16.133.03,32.266.011h1.9Zm-54.116-34.819c-2.487,1.069-4.839,2.074-7.187,3.091-3.272,1.416-3.271,1.419-5.53-1.281-.777-.929-1.546-1.866-2.329-2.79-.653-.769-1.322-1.525-2.149-2.478-.709,4.5-1.379,8.643-1.99,12.8a1.439,1.439,0,0,0,.43,1.186c2.792,1.822,5.82,2.448,8.79.678,3.1-1.846,6.267-2.906,9.965-2.218Zm-1.121-3.811c-1.453-2.536-2.74-4.9-6.193-3.663a12.216,12.216,0,0,1-2.658.3c-1.433.165-2.864.347-4.612.561,1.753,2.112,3.262,3.982,4.849,5.784a1.369,1.369,0,0,0,1.225.154C1252.249,593.234,1254.65,592.178,1257.207,591.082Zm37.127,2.514v-8.986l-8.964,3.992Zm-24.984-22.66c1.1,2.7,2.676,3.864,5.472,3.01a23.292,23.292,0,0,1,4.231-.446c.575-.063,1.141-.212,1.972-.373-1.211-.984-2.121-1.777-3.093-2.487a2.594,2.594,0,0,0-1.5-.661C1274.087,570.219,1271.754,570.6,1269.35,570.935Z" transform="translate(0 -42.73)" fill="#4e2825"/>
      <path id="Trazado_1328472" data-name="Trazado 1328472" d="M1295.761,526.138c-4.523-9.143-10.164-16.708-21.2-18.72,0,2.611,0,4.961,0,7.312,0,.792.018,1.585-.015,2.375a1.953,1.953,0,1,1-3.9-.069c-.02-2.8-.007-5.6-.019-8.393a7.724,7.724,0,0,0-.107-.912c-6.982-.463-18.539,9.823-20.849,18.655,2.222.193,4.411.393,6.6.571,1.7.138,2.617.922,2.509,2.185-.105,1.221-1.048,1.866-2.688,1.733-2.313-.188-4.628-.379-6.927-.688-.931-.125-1.368.12-1.59,1-.4,1.583-.838,3.158-1.281,4.73-.409,1.446-1.319,2.116-2.505,1.792-1.36-.372-1.639-1.391-1.335-2.611.494-1.984,1.047-3.952,1.584-5.958-2.267-.8-4.477-1.64-6.735-2.317-.359-.108-1.183.4-1.377.819-1.733,3.713-3.421,7.448-5.011,11.224-.482,1.143-.992,2-2.356,1.837s-1.95-1.331-1.484-2.922a47.4,47.4,0,0,1,49.369-34.157,47.173,47.173,0,0,1,41.656,34.1c.445,1.528-.017,2.623-1.244,2.947s-1.965-.381-2.6-1.9c-1.536-3.684-3.222-7.307-4.831-10.961-.476-1.08-1.109-1.212-2.244-.83-3.242,1.089-6.539,2.016-9.823,2.98-1.175.345-2.371.458-3-.91C1293.744,527.708,1294.495,526.849,1295.761,526.138Zm-56.733-2.852,6.047,1.945,8.931-13.644A42.839,42.839,0,0,0,1239.027,523.286Zm67.128.009a42.388,42.388,0,0,0-14.79-11.625l8.8,13.579Z" transform="translate(-3.446)" fill="#4e2825"/>
      <path id="Trazado_1328473" data-name="Trazado 1328473" d="M1422.468,726.8c3.69,0,7.379-.007,11.069,0,1.762.005,2.523.579,2.555,1.876.034,1.351-.778,2.007-2.593,2.01q-11.149.016-22.3,0c-1.7,0-2.545-.652-2.583-1.89-.04-1.3.849-1.991,2.621-2C1414.983,726.792,1418.725,726.8,1422.468,726.8Z" transform="translate(-127.61 -152.615)" fill="#4e2825"/>
      <path id="Trazado_1328474" data-name="Trazado 1328474" d="M1259.04,726.8c1.263,0,2.528-.022,3.791.006a1.8,1.8,0,0,1,1.973,1.97,1.77,1.77,0,0,1-1.91,1.88c-2.632.045-5.266.05-7.9,0a1.784,1.784,0,0,1-1.908-1.89,1.817,1.817,0,0,1,2-1.954C1256.406,726.773,1257.724,726.8,1259.04,726.8Z" transform="translate(-21.331 -152.611)" fill="#4e2825"/>
      <path id="Trazado_1328475" data-name="Trazado 1328475" d="M1329.583,730.71a1.927,1.927,0,0,1,.169-3.841,1.96,1.96,0,0,1,1.986,2.009A2.039,2.039,0,0,1,1329.583,730.71Z" transform="translate(-72.433 -152.664)" fill="#4e2825"/>
      <path id="Trazado_1328476" data-name="Trazado 1328476" d="M1304.584,726.854a1.932,1.932,0,0,1,2.143,1.97,1.822,1.822,0,0,1-1.9,1.868,1.881,1.881,0,0,1-1.961-1.969A1.814,1.814,0,0,1,1304.584,726.854Z" transform="translate(-55.34 -152.655)" fill="#4e2825"/>
    </g>
  </g>
</svg>
